<?xml version="1.0" encoding="iso-8859-1"?>
<!-- Generator: Adobe Illustrator 18.0.0, SVG Export Plug-In . SVG Version: 6.00 Build 0)  -->
<!DOCTYPE svg PUBLIC "-//W3C//DTD SVG 1.1//EN" "http://www.w3.org/Graphics/SVG/1.1/DTD/svg11.dtd">
<svg version="1.1" id="Capa_1" xmlns="http://www.w3.org/2000/svg" xmlns:xlink="http://www.w3.org/1999/xlink" x="0px" y="0px"
	 viewBox="0 0 1000 1000" style="enable-background:new 0 0 1000 1000;" xml:space="preserve">
<path style="fill:#211915;stroke:#000000;stroke-miterlimit:10;" d="M25.66,808.424c-0.923,9.358,1.958,18.694,7.994,25.904
	L147.69,970.542c6.923,8.269,16.853,12.534,26.855,12.534c7.925,0,15.896-2.679,22.449-8.164
	c14.822-12.408,16.778-34.482,4.37-49.304L110.247,816.77l52.847-42.483l92.011,109.906c6.923,8.27,16.853,12.534,26.855,12.534
	c7.926,0,15.897-2.679,22.449-8.164c14.822-12.408,16.778-34.482,4.37-49.304L217.661,730.42l324.84-261.134l94.81,113.25
	c18.23,21.776,44.979,34.266,73.387,34.266c21.718,0,43.004-7.497,59.939-21.11l168.551-135.496
	c10.18-8.183,18.441-18.168,24.554-29.676c5.881-11.071,9.487-23.017,10.72-35.508c1.232-12.491,0.03-24.913-3.573-36.919
	c-3.746-12.481-9.897-23.887-18.281-33.903L720.488,46.924c-18.23-21.776-44.978-34.266-73.386-34.266
	c-21.719,0-43.006,7.498-59.941,21.111l-168.55,135.495c-10.18,8.183-18.441,18.167-24.555,29.676
	c-5.881,11.071-9.488,23.018-10.72,35.509c-1.233,12.491-0.03,24.913,3.574,36.919c3.746,12.481,9.897,23.888,18.282,33.904
	l92.365,110.33L38.562,784.582C31.233,790.473,26.583,799.066,25.66,808.424z M458.866,260.337
	c-9.237-11.033-7.612-27.5,3.603-36.515L631.018,88.327c4.741-3.811,10.429-5.668,16.083-5.668c7.348,0,14.638,3.137,19.713,9.2
	l232.12,277.265c9.236,11.033,7.612,27.5-3.603,36.516l-168.55,135.494c-4.741,3.811-10.429,5.668-16.083,5.668
	c-7.348,0-14.638-3.137-19.713-9.2L458.866,260.337z"/>
</svg>
