<?xml version="1.0" encoding="iso-8859-1"?>
<!-- Generator: Adobe Illustrator 18.0.0, SVG Export Plug-In . SVG Version: 6.00 Build 0)  -->
<!DOCTYPE svg PUBLIC "-//W3C//DTD SVG 1.1//EN" "http://www.w3.org/Graphics/SVG/1.1/DTD/svg11.dtd">
<svg version="1.1" id="Capa_1" xmlns="http://www.w3.org/2000/svg" xmlns:xlink="http://www.w3.org/1999/xlink" x="0px" y="0px"
	 viewBox="0 0 1000 1000" style="enable-background:new 0 0 1000 1000;" xml:space="preserve">
<path style="stroke:#000000;stroke-miterlimit:10;" d="M274.948,424.109c26.592,11.248,54.8,16.951,83.839,16.951
	s57.247-5.703,83.839-16.951c25.65-10.849,48.672-26.366,68.426-46.119c19.753-19.753,35.27-42.775,46.118-68.425
	c11.248-26.593,16.951-54.8,16.951-83.839s-5.703-57.247-16.951-83.839c-10.849-25.65-26.365-48.672-46.118-68.425
	c-19.754-19.753-42.775-35.27-68.426-46.119c-26.592-11.248-54.8-16.951-83.839-16.951s-57.247,5.703-83.839,16.951
	c-25.65,10.849-48.672,26.366-68.426,46.119c-19.753,19.753-35.27,42.775-46.118,68.425c-11.248,26.593-16.951,54.8-16.951,83.839
	s5.703,57.247,16.951,83.839c10.849,25.65,26.365,48.672,46.118,68.425C226.276,397.743,249.298,413.26,274.948,424.109z
	 M358.787,80.392c80.266,0,145.334,65.068,145.334,145.334S439.053,371.06,358.787,371.06s-145.334-65.068-145.334-145.334
	S278.521,80.392,358.787,80.392z"/>
<path style="stroke:#000000;stroke-miterlimit:10;" d="M969.203,670.699c-11.476-27.13-27.888-51.481-48.783-72.376
	c-20.895-20.895-45.245-37.308-72.376-48.783c-28.125-11.896-57.961-17.927-88.678-17.927s-60.553,6.032-88.678,17.927
	c-10.067,4.258-19.749,9.199-29.017,14.793c-3.747-4.292-7.644-8.475-11.702-12.534c-22.944-22.944-49.682-40.966-79.47-53.565
	c-30.876-13.06-63.634-19.681-97.363-19.681H264.438c-33.729,0-66.487,6.622-97.363,19.681
	c-29.787,12.599-56.524,30.621-79.469,53.565c-22.944,22.944-40.966,49.681-53.564,79.469
	c-13.06,30.876-19.682,63.634-19.682,97.363v120.304c0,56.324,45.823,102.147,102.147,102.147h484.562
	c10.062,0,19.786-1.47,28.977-4.193c12.705,8.775,26.28,16.248,40.644,22.323c28.125,11.896,57.961,17.928,88.678,17.928
	s60.553-6.032,88.678-17.928c27.131-11.475,51.481-27.888,72.376-48.783c20.896-20.895,37.308-45.246,48.783-72.376
	c11.896-28.125,17.928-57.961,17.928-88.678S981.1,698.824,969.203,670.699z M759.366,917.141c-25.242,0-49.094-5.938-70.25-16.478
	c-10.537-5.249-20.404-11.639-29.439-19.013c-10.037-8.193-19.051-17.593-26.81-27.986c-19.638-26.304-31.266-58.937-31.266-94.287
	c0-30.6,8.722-59.159,23.801-83.345c7.226-11.59,15.91-22.174,25.803-31.495c8.688-8.186,18.304-15.395,28.675-21.456
	c23.342-13.642,50.499-21.468,79.486-21.468c87.131,0,157.765,70.634,157.765,157.764S846.497,917.141,759.366,917.141z
	 M116.507,881.083c-17.755,0-32.147-14.393-32.147-32.147V728.632c0-99.455,80.624-180.079,180.078-180.079h188.699
	c53.691,0,101.886,23.506,134.878,60.779c-16.048,18.29-28.969,38.869-38.485,61.367c-11.896,28.125-17.928,57.961-17.928,88.678
	s6.031,60.553,17.928,88.678c4.877,11.531,10.655,22.554,17.281,33.028H116.507z"/>
<path style="stroke:#000000;stroke-miterlimit:10;" d="M836.301,724.377h-41.935v-41.935c0-19.33-15.67-35-35-35s-35,15.67-35,35
	v41.935h-21.203h-20.731c-5.069,0-9.882,1.086-14.23,3.025c-12.235,5.454-20.77,17.714-20.77,31.975
	c0,14.267,8.541,26.531,20.784,31.982c4.345,1.934,9.152,3.018,14.216,3.018h20.784h21.15v41.935c0,19.33,15.67,35,35,35
	s35-15.67,35-35v-41.935h41.935c19.33,0,35-15.67,35-35S855.631,724.377,836.301,724.377z"/>
</svg>
