<?xml version="1.0" encoding="iso-8859-1"?>
<!-- Generator: Adobe Illustrator 18.0.0, SVG Export Plug-In . SVG Version: 6.00 Build 0)  -->
<!DOCTYPE svg PUBLIC "-//W3C//DTD SVG 1.1//EN" "http://www.w3.org/Graphics/SVG/1.1/DTD/svg11.dtd">
<svg version="1.1" id="Capa_1" xmlns="http://www.w3.org/2000/svg" xmlns:xlink="http://www.w3.org/1999/xlink" x="0px" y="0px"
	 viewBox="0 0 1000 1000" style="enable-background:new 0 0 1000 1000;" xml:space="preserve">
<path style="stroke:#000000;stroke-miterlimit:10;" d="M106.875,855.312h345.207c7.425,10.394,15.723,20.196,24.871,29.344
	c21.284,21.284,46.088,38.002,73.722,49.691c28.647,12.117,59.038,18.26,90.327,18.26s61.679-6.144,90.327-18.26
	c27.634-11.689,52.438-28.407,73.722-49.691c9.148-9.148,17.446-18.95,24.871-29.344h63.204c52.383,0,95-42.617,95-95v-490
	c0-52.383-42.617-95-95-95H540.174l-16.496-28.235c-8.358-14.305-20.37-26.225-34.739-34.472
	C474.571,104.359,458.219,100,441.652,100H106.875c-52.383,0-95,42.617-95,95v50.312V732.51v27.802
	C11.875,812.695,54.492,855.312,106.875,855.312z M731.012,855.312c-25.745,17.237-56.702,27.295-90.011,27.295
	c-33.309,0-64.266-10.058-90.01-27.295c-25.626-17.158-46.078-41.434-58.538-70c-8.646-19.82-13.452-41.7-13.452-64.705
	c0-89.47,72.53-162,162-162s162,72.53,162,162c0,23.005-4.806,44.885-13.451,64.705C777.09,813.877,756.639,838.154,731.012,855.312
	z M81.875,732.51V245.312V195c0-13.807,11.193-25,25-25h334.777c8.886,0,17.104,4.716,21.586,12.389l29.523,50.534
	c4.482,7.672,12.701,12.389,21.586,12.389h378.777c13.807,0,25,11.193,25,25v490c0,13.807-11.193,25-25,25h-29.288
	c6.08-20.922,9.165-42.587,9.165-64.705c0-31.289-6.144-61.679-18.26-90.326c-11.688-27.635-28.407-52.439-49.691-73.722
	c-21.284-21.284-46.088-38.002-73.722-49.691c-28.647-12.117-59.038-18.26-90.327-18.26s-61.679,6.144-90.327,18.26
	c-27.634,11.689-52.438,28.407-73.722,49.691s-38.002,46.088-49.691,73.722c-12.117,28.647-18.26,59.037-18.26,90.326
	c0,22.118,3.085,43.783,9.165,64.705H106.875c-13.807,0-25-11.193-25-25V732.51z"/>
<path style="stroke:#000000;stroke-miterlimit:10;" d="M720.001,685.607h-44v-44c0-19.33-15.67-35-35-35s-35,15.67-35,35v44h-44
	c-19.33,0-35,15.67-35,35s15.67,35,35,35h44v29.705v14.295c0,19.33,15.67,35,35,35s35-15.67,35-35v-14.295v-29.705h44
	c19.33,0,35-15.67,35-35S739.332,685.607,720.001,685.607z"/>
</svg>
