<?xml version="1.0" encoding="iso-8859-1"?>
<!-- Generator: Adobe Illustrator 18.0.0, SVG Export Plug-In . SVG Version: 6.00 Build 0)  -->
<!DOCTYPE svg PUBLIC "-//W3C//DTD SVG 1.1//EN" "http://www.w3.org/Graphics/SVG/1.1/DTD/svg11.dtd">
<svg version="1.1" id="Capa_1" xmlns="http://www.w3.org/2000/svg" xmlns:xlink="http://www.w3.org/1999/xlink" x="0px" y="0px"
	 viewBox="0 0 1000 1000" style="enable-background:new 0 0 1000 1000;" xml:space="preserve">
<g>
	<path style="fill:#211915;stroke:#000000;stroke-miterlimit:10;" d="M161.589,840.411c44.071,44.071,95.4,78.676,152.562,102.854
		C373.351,968.304,436.216,981,501,981s127.649-12.696,186.849-37.735c57.162-24.177,108.491-58.782,152.562-102.854
		c44.071-44.071,78.676-95.4,102.854-152.562C968.304,628.649,981,565.784,981,501s-12.696-127.649-37.735-186.849
		c-24.178-57.162-58.782-108.492-102.854-152.562c-44.071-44.071-95.4-78.676-152.562-102.854C628.649,33.696,565.784,21,501,21
		S373.351,33.696,314.151,58.735c-57.162,24.177-108.491,58.782-152.562,102.854c-44.071,44.071-78.676,95.4-102.854,152.562
		C33.696,373.351,21,436.216,21,501s12.696,127.649,37.735,186.849C82.913,745.011,117.518,796.34,161.589,840.411z M123.205,341.42
		c20.648-48.818,50.216-92.669,87.881-130.334s81.516-67.232,130.334-87.881C391.944,101.835,445.635,91,501,91
		s109.056,10.835,159.58,32.206c48.818,20.648,92.669,50.216,130.334,87.881s67.232,81.516,87.881,130.334
		C900.165,391.945,911,445.635,911,501s-10.835,109.055-32.205,159.58c-20.648,48.818-50.216,92.669-87.881,130.334
		s-81.516,67.232-130.334,87.881C610.056,900.165,556.365,911,501,911s-109.056-10.835-159.58-32.206
		c-48.818-20.648-92.669-50.216-130.334-87.881s-67.232-81.516-87.881-130.334C101.835,610.055,91,556.365,91,501
		S101.835,391.945,123.205,341.42z"/>
	<path style="fill:#211915;stroke:#000000;stroke-miterlimit:10;" d="M283.042,536H465v181.958c0,19.33,15.67,35,35,35
		c19.33,0,35-15.67,35-35V536h181.958c19.33,0,35-15.67,35-35s-15.67-35-35-35H535V284.042c0-19.33-15.67-35-35-35s-35,15.67-35,35
		V466H283.042c-19.33,0-35,15.67-35,35C248.042,520.33,263.712,536,283.042,536z"/>
</g>
</svg>
