<?xml version="1.0" encoding="iso-8859-1"?>
<!-- Generator: Adobe Illustrator 18.0.0, SVG Export Plug-In . SVG Version: 6.00 Build 0)  -->
<!DOCTYPE svg PUBLIC "-//W3C//DTD SVG 1.1//EN" "http://www.w3.org/Graphics/SVG/1.1/DTD/svg11.dtd">
<svg version="1.1" id="Capa_1" xmlns="http://www.w3.org/2000/svg" xmlns:xlink="http://www.w3.org/1999/xlink" x="0px" y="0px"
	 viewBox="0 0 1000 1000" style="enable-background:new 0 0 1000 1000;" xml:space="preserve">
<path style="fill:#211915;stroke:#000000;stroke-miterlimit:10;" d="M952.026,44.96c-12.061-12.061-26.695-21.011-43.501-26.604
	C895.44,14,881.228,11.792,866.28,11.79c-22.581-0.002-46.776,5.058-69.971,14.632c-22.812,9.416-42.922,22.444-58.156,37.679
	L614.066,188.188L211.6,72.754c-8.562-2.455-17.416-3.7-26.318-3.7c-12.512,0-24.724,2.412-36.298,7.169
	c-11.736,4.824-22.238,11.821-31.212,20.796l-64.596,64.596c-10.674,10.674-18.755,23.88-23.367,38.188
	c-4.378,13.583-5.655,28.253-3.691,42.422c1.963,14.169,7.181,27.938,15.087,39.819c8.329,12.515,19.696,23.025,32.872,30.395
	L340.67,461.567l-76.887,76.887L136.507,514.15c-5.895-1.125-11.916-1.694-17.905-1.694c-12.54,0-24.778,2.423-36.374,7.201
	c-11.705,4.823-22.179,11.809-31.132,20.762l-18.268,18.269c-10.672,10.672-18.752,23.875-23.364,38.181
	c-4.378,13.581-5.656,28.248-3.694,42.416s7.176,27.936,15.081,39.816c8.325,12.515,19.688,23.026,32.86,30.397l149.888,83.888
	l83.897,149.899c16.862,30.128,48.798,48.844,83.345,48.844c25.472,0,49.432-9.93,67.465-27.962l18.271-18.271
	c22.383-22.383,32.204-54.31,26.269-85.403l-24.295-127.27l76.888-76.889L684.567,922.93c16.858,30.139,48.798,48.862,83.355,48.862
	c25.473,0,49.433-9.931,67.466-27.964l64.599-64.599c24.529-24.53,33.826-60.482,24.261-93.827L808.815,382.938L932.903,258.85
	c22.692-22.692,40.759-57.142,48.329-92.151c4.336-20.052,5.142-39.36,2.395-57.391C979.776,84.034,968.849,61.782,952.026,44.96z
	 M883.406,209.353L740.768,351.991c-6.546,6.546-9.024,16.129-6.472,25.028l122.667,427.684c2.553,8.899,0.074,18.482-6.472,25.028
	l-64.599,64.6c-5.044,5.044-11.533,7.462-17.969,7.462c-8.801,0-17.501-4.523-22.264-13.037L567.795,570.791
	c-4.763-8.515-13.462-13.037-22.264-13.037c-6.435,0.001-12.926,2.419-17.969,7.462L392.377,700.4
	c-5.965,5.965-8.589,14.496-7.007,22.782l28.716,150.434c1.582,8.285-1.042,16.817-7.007,22.782l-18.27,18.27
	c-5.044,5.044-11.533,7.461-17.969,7.461c-8.799,0-17.498-4.521-22.261-13.031l-90.038-160.87c-2.296-4.103-5.683-7.489-9.785-9.785
	l-160.86-90.028c-14.735-8.247-17.51-28.29-5.57-40.229l18.269-18.27c4.82-4.82,11.317-7.459,18.007-7.459
	c1.588,0,3.187,0.148,4.776,0.452l150.441,28.725c1.59,0.304,3.188,0.452,4.776,0.452c6.688,0,13.187-2.639,18.007-7.459
	l135.185-135.185c11.942-11.941,9.164-31.987-5.575-40.232L108.248,251.345c-14.739-8.244-17.517-28.291-5.575-40.232l64.599-64.599
	c4.844-4.844,11.349-7.46,18.01-7.46c2.342,0,4.704,0.323,7.019,0.987l427.684,122.667c2.315,0.664,4.676,0.987,7.019,0.987
	c6.661,0,13.166-2.616,18.009-7.459l142.638-142.639c17.511-17.511,50.589-31.81,78.624-31.808
	c14.314,0.002,27.319,3.731,36.254,12.666C928.99,120.919,909.868,182.891,883.406,209.353z"/>
</svg>
