<?xml version="1.0" encoding="iso-8859-1"?>
<!-- Generator: Adobe Illustrator 18.0.0, SVG Export Plug-In . SVG Version: 6.00 Build 0)  -->
<!DOCTYPE svg PUBLIC "-//W3C//DTD SVG 1.1//EN" "http://www.w3.org/Graphics/SVG/1.1/DTD/svg11.dtd">
<svg version="1.1" id="Capa_1" xmlns="http://www.w3.org/2000/svg" xmlns:xlink="http://www.w3.org/1999/xlink" x="0px" y="0px"
	 viewBox="0 0 1000 1000" style="enable-background:new 0 0 1000 1000;" xml:space="preserve">
<path style="fill:#211915;stroke:#000000;stroke-miterlimit:10;" d="M920.323,201.722c0-100.779-81.99-182.769-182.769-182.769
	c-72.581,0-135.411,42.528-164.892,103.973c-11.527-2.124-23.167-3.718-34.905-4.775V91.356c0-19.33-15.67-35-35-35s-35,15.67-35,35
	v26.794c-11.738,1.058-23.378,2.651-34.905,4.775C403.372,61.481,340.541,18.953,267.96,18.953
	c-100.779,0-182.769,81.989-182.769,182.769c0,57.107,26.333,108.173,67.487,141.714c-1.084,2.423-2.156,4.853-3.192,7.303
	c-20.013,47.316-30.161,97.537-30.161,149.27s10.148,101.954,30.161,149.271c19.316,45.667,46.953,86.665,82.144,121.856
	c19.099,19.099,39.922,35.953,62.26,50.479l-56.9,108.08c-9.005,17.104-2.439,38.271,14.666,47.275
	c5.202,2.738,10.778,4.036,16.275,4.036c12.577,0,24.734-6.8,31-18.702l56.888-108.058c46.634,19.366,96.055,29.191,146.939,29.191
	s100.305-9.825,146.939-29.191l56.888,108.058c6.267,11.903,18.421,18.702,31,18.702c5.496,0,11.074-1.299,16.275-4.036
	c17.104-9.005,23.67-30.171,14.666-47.275l-56.901-108.082c22.338-14.526,43.161-31.38,62.26-50.479
	c35.191-35.191,62.828-76.189,82.144-121.856c20.013-47.316,30.161-97.538,30.161-149.271s-10.148-101.953-30.161-149.27
	c-1.036-2.45-2.108-4.88-3.192-7.303C893.989,309.895,920.323,258.829,920.323,201.722z M816.188,500.008
	c0,107.825-54.453,202.925-137.354,259.323c-19.218,13.074-39.963,24.068-61.915,32.657c-35.377,13.843-73.88,21.45-114.162,21.45
	s-78.785-7.607-114.162-21.449c-21.952-8.59-42.697-19.584-61.915-32.658c-82.901-56.397-137.354-151.498-137.354-259.323
	c0-43.845,9.016-85.579,25.274-123.471c4.699-10.952,9.997-21.585,15.866-31.852c6.241-10.916,13.119-21.42,20.584-31.463
	c33.052-44.467,77.602-79.875,129.258-101.818c11.46-4.869,23.273-9.067,35.384-12.562c11.319-3.267,22.904-5.901,34.71-7.888
	c17.027-2.863,34.513-4.377,52.354-4.377c17.841,0,35.327,1.514,52.354,4.377c11.807,1.986,23.391,4.621,34.711,7.888
	c12.111,3.495,23.924,7.693,35.384,12.562c51.656,21.944,96.206,57.353,129.258,101.819c7.465,10.043,14.343,20.547,20.584,31.463
	c5.869,10.267,11.167,20.899,15.866,31.852C807.172,414.429,816.188,456.163,816.188,500.008z M155.192,201.722
	c0-62.181,50.588-112.769,112.769-112.769c40.481,0,76.042,21.444,95.937,53.566c-3.484,1.355-6.956,2.758-10.41,4.219
	c-45.667,19.315-86.666,46.952-121.856,82.144c-16.202,16.201-30.781,33.648-43.705,52.201
	C167.703,260.69,155.192,232.641,155.192,201.722z M773.884,228.882c-35.191-35.191-76.189-62.828-121.856-82.144
	c-3.454-1.461-6.926-2.863-10.41-4.219c19.895-32.122,55.456-53.566,95.937-53.566c62.181,0,112.769,50.588,112.769,112.769
	c0,30.919-12.512,58.969-32.734,79.361C804.665,262.53,790.085,245.083,773.884,228.882z"/>
<path style="fill:#211915;stroke:#000000;stroke-miterlimit:10;" d="M707.828,465.008H548.106c-5.707,0-10.349-4.643-10.349-10.35
	V349.49c0-19.33-15.67-35-35-35s-35,15.67-35,35v105.168c0,9.673,1.719,18.951,4.866,27.547v0.002
	c8.724,23.829,28.437,42.392,52.964,49.566c7.15,2.092,14.701,3.234,22.518,3.234h12.631h147.09c19.33,0,35-15.67,35-35
	S727.158,465.008,707.828,465.008z"/>
</svg>
