<?xml version="1.0" encoding="iso-8859-1"?>
<!-- Generator: Adobe Illustrator 18.0.0, SVG Export Plug-In . SVG Version: 6.00 Build 0)  -->
<!DOCTYPE svg PUBLIC "-//W3C//DTD SVG 1.1//EN" "http://www.w3.org/Graphics/SVG/1.1/DTD/svg11.dtd">
<svg version="1.1" id="Capa_1" xmlns="http://www.w3.org/2000/svg" xmlns:xlink="http://www.w3.org/1999/xlink" x="0px" y="0px"
	 viewBox="0 0 1000 1000" style="enable-background:new 0 0 1000 1000;" xml:space="preserve">
<path style="stroke:#000000;stroke-miterlimit:10;" d="M230.045,882.413c23.484,31.998,51.688,57.216,83.824,74.948
	c32.855,18.129,69.395,27.711,105.667,27.711c27.565,0,54.537-5.271,80.458-15.698c25.924,10.423,52.898,15.693,80.462,15.693
	c36.278,0,72.82-9.581,105.674-27.706c32.138-17.73,60.344-42.947,83.834-74.95c56.272-76.667,92.958-162.258,106.091-247.519
	c6.339-41.149,7.081-81.383,2.208-119.583c-5.014-39.301-15.853-75.609-32.216-107.917C801.039,318.526,718,267.559,618.223,267.559
	c-27.5,0-56.095,3.87-85.443,11.503c-1.011-7.583-2.343-15.937-4.097-24.854c7.349,0.825,14.606,1.251,21.695,1.251
	c57.137,0,106.009-26.594,137.613-74.884c20.797-31.777,27.305-62.918,28.398-68.837l14.281-77.329l-78.462-5.229
	c-6.371-0.425-12.696-0.64-18.8-0.64v70l-0.004-70c-35.509,0.004-67.069,7.189-93.824,21.358
	c-23.938,12.677-43.434,30.479-57.946,52.911c-3.926,6.069-7.234,12.133-10.042,18.059c-15.963-20.743-35.878-39.772-60.734-55.035
	c-16.47-10.114-38.024-4.96-48.14,11.512c-10.114,16.473-4.96,38.026,11.512,48.141c58.735,36.065,79.86,106.488,87.458,152.173
	c-27.407-6.708-54.137-10.095-79.916-10.1h-0.006h-0.045c-99.765-0.001-182.793,50.958-227.793,139.811
	c-16.363,32.308-27.2,68.618-32.212,107.922c-4.871,38.202-4.126,78.437,2.216,119.589
	C137.073,720.146,173.766,805.741,230.045,882.413z M633.392,98.542c4.533,0,9.238,0.157,14.162,0.485
	c0,0-15.963,86.434-97.175,86.434c-7.499,0-15.548-0.736-24.198-2.345C526.18,183.116,528.387,98.553,633.392,98.542z
	 M381.761,337.561c32.896,0.006,69.551,7.19,109.509,22.898c2.8,1.101,5.759,1.651,8.718,1.651c2.958,0,5.918-0.55,8.717-1.651
	c39.979-15.715,76.61-22.898,109.519-22.898c202.955,0,264.274,273.229,95.31,503.431c-35.31,48.107-83.575,74.076-133.078,74.076
	c-23.263,0-46.807-5.739-69.395-17.612c-3.458-1.817-7.264-2.726-11.071-2.726c-3.808,0-7.617,0.91-11.075,2.728
	c-22.585,11.876-46.116,17.614-69.379,17.614c-49.488,0-97.756-25.974-133.062-74.08
	C117.488,610.774,178.788,337.526,381.761,337.561z"/>
</svg>
