<?xml version="1.0" encoding="iso-8859-1"?>
<!-- Generator: Adobe Illustrator 18.0.0, SVG Export Plug-In . SVG Version: 6.00 Build 0)  -->
<!DOCTYPE svg PUBLIC "-//W3C//DTD SVG 1.1//EN" "http://www.w3.org/Graphics/SVG/1.1/DTD/svg11.dtd">
<svg version="1.1" id="Capa_1" xmlns="http://www.w3.org/2000/svg" xmlns:xlink="http://www.w3.org/1999/xlink" x="0px" y="0px"
	 viewBox="0 0 1000 1000" style="enable-background:new 0 0 1000 1000;" xml:space="preserve">
<path style="fill:#211915;stroke:#000000;stroke-miterlimit:10;" d="M902.896,237.584c11.933-22.395,14.43-48.096,7.033-72.37
	l-27.971-91.781c-6.054-19.864-18.114-36.824-34.877-49.051C830.7,12.437,811.343,6.122,791.099,6.121h-0.001
	c-0.001,0-0.001,0-0.002,0c-9.39,0-18.709,1.391-27.707,4.133l-638.315,194.53c-24.273,7.397-44.213,23.804-56.146,46.199
	s-14.431,48.096-7.033,72.37l27.971,91.781c4.879,16.01,13.667,30.13,25.668,41.41c-13.381,16.374-21.42,37.275-21.42,60.021
	v378.111c0,52.383,42.617,95,95,95h667.301c52.383,0,95-42.617,95-95V516.565c0-52.383-42.617-95-95-95h-461.77l452.106-137.782
	C871.022,276.386,890.962,259.979,902.896,237.584z M856.413,491.565c13.807,0,25,11.193,25,25v378.111c0,13.807-11.193,25-25,25
	H189.111c-13.807,0-25-11.193-25-25V516.565c0-13.807,11.193-25,25-25H856.413z M826.343,216.824l-638.318,194.53
	c-2.428,0.74-4.884,1.092-7.296,1.092c-10.713,0-20.621-6.939-23.906-17.719l-27.971-91.782
	c-4.025-13.207,3.418-27.177,16.626-31.202l638.318-194.53c2.428-0.74,4.884-1.092,7.297-1.092
	c10.712-0.001,20.62,6.939,23.905,17.719l27.971,91.782C846.994,198.829,839.55,212.799,826.343,216.824z"/>
<path style="fill:#211915;stroke:#000000;stroke-miterlimit:10;" d="M323.14,667.371h399.245c19.33,0,35-15.67,35-35
	s-15.67-35-35-35H323.14c-19.33,0-35,15.67-35,35S303.81,667.371,323.14,667.371z"/>
<path style="fill:#211915;stroke:#000000;stroke-miterlimit:10;" d="M323.14,813.871h399.245c19.33,0,35-15.67,35-35
	s-15.67-35-35-35H323.14c-19.33,0-35,15.67-35,35S303.81,813.871,323.14,813.871z"/>
</svg>
