<?xml version="1.0" encoding="iso-8859-1"?>
<!-- Generator: Adobe Illustrator 18.0.0, SVG Export Plug-In . SVG Version: 6.00 Build 0)  -->
<!DOCTYPE svg PUBLIC "-//W3C//DTD SVG 1.1//EN" "http://www.w3.org/Graphics/SVG/1.1/DTD/svg11.dtd">
<svg version="1.1" id="Capa_1" xmlns="http://www.w3.org/2000/svg" xmlns:xlink="http://www.w3.org/1999/xlink" x="0px" y="0px"
	 viewBox="0 0 1000 1000" style="enable-background:new 0 0 1000 1000;" xml:space="preserve">
<path style="fill:#211915;stroke:#000000;stroke-miterlimit:10;" d="M890.459,200.7H109.541c-52.383,0-95,42.617-95,95v92.255
	c0,41.23,26.405,76.404,63.19,89.516c-0.306,3.097-0.466,6.236-0.466,9.412v397.871c0,52.383,42.617,95,95,95h655.468
	c52.383,0,95-42.617,95-95V486.883c0-3.176-0.16-6.315-0.466-9.412c36.786-13.11,63.191-48.285,63.191-89.516V295.7
	C985.459,243.317,942.842,200.7,890.459,200.7z M915.459,387.955c0,13.807-11.193,25-25,25h-3.137H112.677h-3.136
	c-13.807,0-25-11.193-25-25V295.7c0-13.807,11.193-25,25-25h780.918c13.807,0,25,11.193,25,25L915.459,387.955L915.459,387.955z
	 M852.733,486.883v397.871c0,13.807-11.192,25-25,25H172.266c-13.807,0-25-11.193-25-25V486.883c0-1.337,0.107-2.647,0.31-3.928
	h704.849C852.626,484.235,852.733,485.546,852.733,486.883z"/>
<path style="fill:#211915;stroke:#000000;stroke-miterlimit:10;" d="M653.519,839.889h84.787c13.807,0,25-11.192,25-25v-21.051
	c0-13.807-11.193-25-25-25h-84.787c-13.808,0-25,11.193-25,25v21.051C628.519,828.696,639.711,839.889,653.519,839.889z"/>
</svg>
