<?xml version="1.0" encoding="iso-8859-1"?>
<!-- Generator: Adobe Illustrator 18.0.0, SVG Export Plug-In . SVG Version: 6.00 Build 0)  -->
<!DOCTYPE svg PUBLIC "-//W3C//DTD SVG 1.1//EN" "http://www.w3.org/Graphics/SVG/1.1/DTD/svg11.dtd">
<svg version="1.1" id="Capa_1" xmlns="http://www.w3.org/2000/svg" xmlns:xlink="http://www.w3.org/1999/xlink" x="0px" y="0px"
	 viewBox="0 0 1000 1000" style="enable-background:new 0 0 1000 1000;" xml:space="preserve">
<path style="stroke:#000000;stroke-miterlimit:10;" d="M280.124,891.312h439.751c52.383,0,95-42.617,95-95V200.707
	c0-52.383-42.617-95-95-95H280.124c-52.383,0-95,42.617-95,95v595.604C185.124,848.695,227.741,891.312,280.124,891.312z
	 M744.876,796.312c0,13.807-11.193,25-25,25H280.124c-13.807,0-25-11.193-25-25V535h489.751L744.876,796.312L744.876,796.312z
	 M255.124,200.707c0-13.807,11.193-25,25-25h439.751c13.807,0,25,11.193,25,25V465H255.124V200.707z"/>
<path style="stroke:#000000;stroke-miterlimit:10;" d="M179.393,992.408h641.213c52.383,0,95-42.617,95-95V102.592
	c0-52.383-42.617-95-95-95H179.393c-52.383,0-95,42.617-95,95v794.816C84.393,949.791,127.01,992.408,179.393,992.408z
	 M154.393,102.592c0-13.807,11.193-25,25-25h641.213c13.807,0,25,11.193,25,25v794.816c0,13.807-11.193,25-25,25H179.393
	c-13.807,0-25-11.193-25-25V102.592z"/>
<path style="stroke:#000000;stroke-miterlimit:10;" d="M614.562,297.453c-15.615,0-28.841,10.225-33.349,24.344H418.787
	c-4.508-14.12-17.734-24.344-33.349-24.344c-19.33,0-35,15.67-35,35v24.344c0,19.33,15.67,35,35,35h229.123c19.33,0,35-15.67,35-35
	v-24.344C649.562,313.123,633.892,297.453,614.562,297.453z"/>
<path style="stroke:#000000;stroke-miterlimit:10;" d="M385.438,715.435h229.123c19.33,0,35-15.67,35-35V656.09
	c0-19.33-15.67-35-35-35c-15.615,0-28.841,10.225-33.349,24.344H418.787c-4.508-14.12-17.734-24.344-33.349-24.344
	c-19.33,0-35,15.67-35,35v24.344C350.438,699.765,366.108,715.435,385.438,715.435z"/>
</svg>
