<?xml version="1.0" encoding="iso-8859-1"?>
<!-- Generator: Adobe Illustrator 18.0.0, SVG Export Plug-In . SVG Version: 6.00 Build 0)  -->
<!DOCTYPE svg PUBLIC "-//W3C//DTD SVG 1.1//EN" "http://www.w3.org/Graphics/SVG/1.1/DTD/svg11.dtd">
<svg version="1.1" id="Capa_1" xmlns="http://www.w3.org/2000/svg" xmlns:xlink="http://www.w3.org/1999/xlink" x="0px" y="0px"
	 viewBox="0 0 1000 1000" style="enable-background:new 0 0 1000 1000;" xml:space="preserve">
<path style="fill:#211915;stroke:#000000;stroke-miterlimit:10;" d="M417.084,418.316L837.156,275.14
	c48.956-16.634,75.289-69.979,58.705-118.967l-28.236-83.397C854.715,34.64,818.99,9.014,778.732,9.011h-0.005h-0.007
	c-10.248,0.001-20.374,1.671-30.099,4.964l-0.066,0.022l-0.067,0.023L82.397,241.048c-48.998,16.61-75.356,69.978-58.765,118.986
	l28.236,83.397c9.849,29.094,32.981,50.891,61.269,59.601v387.722c0,52.383,42.617,95,95,95H831.42c52.384,0,95-42.617,95-95
	V488.316v-70h-70H417.084z M856.42,890.754c0,13.807-11.193,25-25,25H208.138c-13.807,0-25-11.193-25-25v-392.7l28.568-9.737H856.42
	V890.754z M104.885,307.338L771.071,80.277c2.536-0.858,5.118-1.267,7.654-1.267c9.948-0.001,19.229,6.269,22.597,16.214
	l28.235,83.396c4.226,12.481-2.467,26.025-14.947,30.251L200.105,418.316l-51.683,17.615c-2.536,0.858-5.117,1.267-7.653,1.267
	c-9.948,0-19.23-6.27-22.598-16.215l-0.902-2.667l-27.333-80.729C85.711,325.106,92.403,311.563,104.885,307.338z"/>
<path style="fill:#211915;stroke:#000000;stroke-miterlimit:10;" d="M667.434,849.076h78.639c13.807,0,25-11.192,25-25v-17.809
	c0-13.808-11.193-25-25-25h-78.639c-13.807,0-25,11.192-25,25v17.809C642.434,837.884,653.627,849.076,667.434,849.076z"/>
</svg>
