<?xml version="1.0" encoding="iso-8859-1"?>
<!-- Generator: Adobe Illustrator 18.0.0, SVG Export Plug-In . SVG Version: 6.00 Build 0)  -->
<!DOCTYPE svg PUBLIC "-//W3C//DTD SVG 1.1//EN" "http://www.w3.org/Graphics/SVG/1.1/DTD/svg11.dtd">
<svg version="1.1" id="Capa_1" xmlns="http://www.w3.org/2000/svg" xmlns:xlink="http://www.w3.org/1999/xlink" x="0px" y="0px"
	 viewBox="0 0 1000 1000" style="enable-background:new 0 0 1000 1000;" xml:space="preserve">
<g>
	<path style="fill:#211915;stroke:#000000;stroke-miterlimit:10;" d="M875,316.851c52.383,0,95-42.617,95-95v-73.088
		c0-52.383-42.617-95-95-95H201.147H125c-52.383,0-95,42.617-95,95v590.086c0,52.383,42.617,95,95,95h469.007v15.823
		c0,13.622,2.763,26.78,8.211,39.108c5.19,11.742,12.573,22.178,21.945,31.017c18.077,17.05,41.691,26.44,66.492,26.44
		c22.116,0,43.792-7.781,61.036-21.909l184.342-151.034c1.551-1.271,3.905-3.255,6.558-5.9
		c35.875-35.783,35.966-94.082,0.212-129.967c-2.873-2.886-5.448-5.037-7.134-6.402L748.803,479.659
		c-16.899-13.689-38.091-21.227-59.673-21.227c-24.417,0-47.661,9.246-65.452,26.036c-9.221,8.702-16.485,18.975-21.592,30.534
		c-5.36,12.133-8.078,25.079-8.078,38.477v17.281h-300.92V316.85H875V316.851z M248.088,640.761h390.919c13.807,0,25-11.193,25-25
		V553.48c0-14.875,12.198-25.047,25.123-25.047c5.351,0,10.828,1.745,15.613,5.621l186.869,151.369
		c0.554,0.448,1.101,0.908,1.604,1.413c8.525,8.556,8.509,22.453-0.049,30.989c-0.472,0.47-0.982,0.902-1.497,1.323L707.327,870.182
		c-5.099,4.177-10.95,6.055-16.671,6.055c-13.702,0-26.648-10.78-26.648-26.566v-60.823c0-13.807-11.193-25-25-25H125
		c-13.807,0-25-11.193-25-25V148.763c0-13.807,11.193-25,25-25h76.147H875c13.807,0,25,11.193,25,25v73.088
		c0,13.807-11.193,25-25,25H248.088c-13.807,0-25,11.193-25,25v343.91C223.088,629.568,234.281,640.761,248.088,640.761z"/>
</g>
</svg>
