<?xml version="1.0" encoding="iso-8859-1"?>
<!-- Generator: Adobe Illustrator 18.0.0, SVG Export Plug-In . SVG Version: 6.00 Build 0)  -->
<!DOCTYPE svg PUBLIC "-//W3C//DTD SVG 1.1//EN" "http://www.w3.org/Graphics/SVG/1.1/DTD/svg11.dtd">
<svg version="1.1" id="Capa_1" xmlns="http://www.w3.org/2000/svg" xmlns:xlink="http://www.w3.org/1999/xlink" x="0px" y="0px"
	 viewBox="0 0 1000 1000" style="enable-background:new 0 0 1000 1000;" xml:space="preserve">
<path style="stroke:#000000;stroke-miterlimit:10;" d="M974.797,696.904l-0.083-0.143l-0.083-0.143L854.04,489.997
	c-15.844-27.286-44.744-44.612-76.132-45.901l-0.456-162.149c-0.037-12.864-2.666-25.313-7.813-37.002
	c-4.9-11.126-11.854-21.039-20.667-29.461c-17.321-16.552-40.018-25.669-63.909-25.672c-1.68,0-3.355,0.046-5.029,0.138
	l-49.921-85.896c-26.444-45.497-75.544-73.762-128.139-73.765h-0.002h-0.002h-0.231h-0.028
	c-52.713,0.076-101.832,28.483-128.188,74.134l-0.147,0.255l-0.146,0.257L241.607,337.42c-15.395,27.063-15.572,58.71-3.259,84.975
	l-137.359,79.59c-14.537,8.423-26.486,20.6-34.556,35.215c-7.548,13.669-11.525,29.177-11.5,44.847
	c0.024,15.67,4.05,31.165,11.642,44.81c1.034,1.858,2.131,3.677,3.288,5.454l-40.324,70.102
	C3.213,748.18,3.304,804.991,29.776,850.676c26.428,45.603,75.584,73.929,128.288,73.929h0.122h0.056h0.057l224.976-0.362
	c24.67-0.04,47.849-9.684,65.266-27.157c11.07-11.106,18.955-24.534,23.232-39.177c5.875,6.01,12.577,11.231,19.943,15.484
	l145.315,83.908c14.062,8.119,30.02,12.41,46.151,12.41c35.838,0,66.977-20.512,82.294-50.41h80.917
	c52.8,0,102-28.405,128.401-74.131C1001.194,799.442,1001.195,742.631,974.797,696.904z M302.47,371.999l131.673-232.576
	c13.913-24.098,39.841-39.093,67.667-39.133c0.054,0,0.104,0,0.159,0c27.752,0.001,53.667,14.927,67.623,38.938l68.986,118.701
	c4.084,7.027,11.46,10.949,19.042,10.949c3.752,0,7.556-0.961,11.034-2.983l5.2-3.022c3.618-2.103,7.458-3.062,11.201-3.061
	c11.655,0.001,22.36,9.302,22.397,22.332l0.472,167.8c0.037,13.076-10.689,22.458-22.394,22.458c-3.702,0-7.503-0.939-11.091-2.996
	l-145.571-83.472c-14.934-8.563-14.997-30.082-0.113-38.732l5.188-3.015c10.505-6.105,14.072-19.57,7.966-30.075l-20.224-34.798
	c-4.313-7.422-11.823-11.126-19.332-11.125c-7.566,0.001-15.132,3.763-19.421,11.274L399.564,427.44
	c-4.127,7.228-11.674,11.278-19.44,11.278c-3.758,0-7.569-0.949-11.067-2.946L310.8,402.508
	C300.077,396.382,296.347,382.724,302.47,371.999z M383.161,854.243l-224.976,0.362c-0.041,0-0.081,0-0.122,0
	c-27.825,0-53.766-14.945-67.721-39.025c-13.974-24.116-14.022-54.105-0.125-78.266l59.242-102.992
	c6.058-10.532,2.431-23.981-8.101-30.04l-5.214-2.999c-14.922-8.583-14.956-30.101-0.061-38.732l145.189-84.126
	c3.611-2.093,7.442-3.047,11.176-3.047c11.77,0,22.376,10.358,22.396,22.357l0.286,167.805c0.022,13.068-10.7,22.433-22.395,22.433
	c-3.711,0-7.521-0.943-11.116-3.011l-5.202-2.992c-3.457-1.989-7.228-2.933-10.949-2.933c-7.615,0-15.021,3.959-19.091,11.034
	l-10.963,19.059c-8.577,14.911,2.189,33.511,19.381,33.511c0.013,0,0.026,0,0.039,0l128.147-0.207c0.013,0,0.024,0,0.037,0
	c12.333,0.001,22.341,9.989,22.361,22.325l0.108,67.085C405.507,844.195,395.511,854.223,383.161,854.243z M491.712,713.425
	c-8.449,4.88-16.021,11.034-22.475,18.192c-4.587-11.932-11.649-22.885-20.967-32.186c-16.998-16.968-39.446-26.506-63.388-26.977
	c0.169-2.328,0.253-4.672,0.249-7.031l-0.267-156.84c31.26-1.613,59.875-19.086,75.491-46.433l0.1-0.175l0.099-0.175l15.895-28.213
	c5.298,5.01,11.202,9.405,17.6,13.074l140.232,80.41c-14.143,27.101-14.583,60.65,1.8,89.029l0.139,0.24l0.141,0.239l5.943,10.109
	c-1.785,0.883-3.545,1.824-5.276,2.824L491.712,713.425z M914.173,810.168c-13.937,24.137-39.908,39.132-67.78,39.132H727.577
	c-12.15,0-22,9.85-22,22v6.015c0,13.054-10.715,22.395-22.396,22.395c-3.723,0-7.544-0.949-11.147-3.03l-145.315-83.908
	c-14.906-8.607-14.907-30.122-0.001-38.73l145.315-83.916c3.604-2.081,7.425-3.031,11.148-3.03
	c11.68,0.001,22.396,9.342,22.396,22.395v6.001c0,12.15,9.85,22,22,22h21.988c17.214,0,27.973-18.635,19.366-33.542l-72.229-122.852
	c-6.175-10.695-2.51-24.372,8.185-30.547l58.098-33.543c3.522-2.033,7.366-3,11.16-3c7.728,0,15.245,4.011,19.387,11.185
	l120.642,206.708C928.109,756.041,928.108,786.031,914.173,810.168z"/>
</svg>
