<?xml version="1.0" encoding="iso-8859-1"?>
<!-- Generator: Adobe Illustrator 18.0.0, SVG Export Plug-In . SVG Version: 6.00 Build 0)  -->
<!DOCTYPE svg PUBLIC "-//W3C//DTD SVG 1.1//EN" "http://www.w3.org/Graphics/SVG/1.1/DTD/svg11.dtd">
<svg version="1.1" id="Capa_1" xmlns="http://www.w3.org/2000/svg" xmlns:xlink="http://www.w3.org/1999/xlink" x="0px" y="0px"
	 viewBox="0 0 1000 1000" style="enable-background:new 0 0 1000 1000;" xml:space="preserve">
<g>
	<path style="fill:#211915;stroke:#000000;stroke-miterlimit:10;" d="M948.303,677.491c-2.875-2.886-5.441-5.03-7.121-6.392
		L754.303,519.723c-16.9-13.689-38.092-21.227-59.674-21.227c-24.416,0-47.66,9.246-65.452,26.036
		c-9.22,8.701-16.485,18.974-21.592,30.532c-5.361,12.134-8.079,25.08-8.079,38.479v17.281H287.363
		c-0.859-12.723-4.17-25.323-9.702-36.794c-6.494-13.467-16.111-25.506-27.811-34.815l-71.201-56.652
		c-16.782-13.353-37.747-20.708-59.031-20.708c-0.001,0-0.001,0-0.001,0c-24.427,0.001-47.679,9.257-65.472,26.063
		c-9.211,8.7-16.469,18.97-21.571,30.523c-5.357,12.129-8.073,25.07-8.073,38.461v222.009c0,52.383,42.617,95,95,95h480.007v15.823
		c0,13.622,2.762,26.779,8.211,39.107c5.19,11.743,12.574,22.18,21.946,31.019c18.077,17.05,41.691,26.439,66.493,26.439
		c22.115,0,43.791-7.78,61.034-21.908l184.343-151.035c1.561-1.28,3.926-3.273,6.586-5.929
		C983.965,771.677,984.058,713.377,948.303,677.491z M898.665,757.887c-0.471,0.47-0.981,0.901-1.496,1.323L712.827,910.245
		c-5.098,4.176-10.951,6.055-16.671,6.055c-13.704,0-26.649-10.778-26.649-26.565v-60.823c0-13.807-11.193-25-25-25H119.5
		c-13.807,0-25-11.193-25-25V556.903c0-14.858,12.187-25.047,25.118-25.047c5.286,0,10.695,1.702,15.448,5.484l71.201,56.652
		c7.153,5.692,11.321,14.334,11.321,23.476v38.356c0,13.807,11.193,25,25,25h401.919c13.807,0,25-11.193,25-25v-62.281
		c0-14.874,12.199-25.047,25.123-25.047c5.352,0,10.827,1.744,15.614,5.621l186.868,151.369c0.553,0.448,1.101,0.908,1.604,1.412
		C907.24,735.454,907.224,749.352,898.665,757.887z"/>
	<path style="fill:#211915;stroke:#000000;stroke-miterlimit:10;" d="M975.097,220.452c0-52.383-42.617-95-95-95H400.09v-15.823
		c0-13.622-2.762-26.779-8.211-39.107c-5.19-11.743-12.573-22.18-21.945-31.019c-18.077-17.05-41.691-26.439-66.493-26.439
		c-22.115,0-43.791,7.78-61.034,21.908L58.064,186.006c-1.553,1.273-3.905,3.255-6.557,5.9
		c-35.875,35.781-35.968,94.08-0.214,129.966c2.893,2.903,5.459,5.046,7.138,6.406l186.863,151.364
		c16.9,13.688,38.092,21.227,59.674,21.227c24.416,0,47.66-9.247,65.451-26.036c9.22-8.701,16.485-18.974,21.592-30.532
		c5.361-12.134,8.079-25.08,8.079-38.479V388.54h312.144c0.859,12.724,4.17,25.323,9.703,36.795
		c6.494,13.466,16.111,25.505,27.81,34.813l71.201,56.652c16.782,13.353,37.747,20.708,59.031,20.708
		c24.427,0,47.68-9.256,65.474-26.063c9.211-8.7,16.469-18.97,21.572-30.523c5.356-12.129,8.073-25.069,8.073-38.461V220.452
		H975.097z M905.097,442.461c0,14.858-12.187,25.047-25.118,25.047c-5.286,0-10.695-1.702-15.448-5.484l-71.201-56.652
		c-7.153-5.692-11.321-14.334-11.321-23.476V343.54c0-13.807-11.193-25-25-25H355.09c-13.807,0-25,11.193-25,25v62.281
		c0,14.874-12.199,25.047-25.123,25.047c-5.352,0-10.827-1.744-15.613-5.621L102.485,273.878c-0.553-0.448-1.101-0.908-1.604-1.412
		c-8.525-8.557-8.509-22.454,0.049-30.99c0.471-0.47,0.981-0.901,1.496-1.323L286.77,89.118c5.098-4.176,10.951-6.055,16.671-6.055
		c13.703,0,26.648,10.778,26.648,26.565v60.823c0,13.807,11.193,25,25,25h525.007c13.807,0,25,11.193,25,25L905.097,442.461
		L905.097,442.461z"/>
</g>
</svg>
