<?xml version="1.0" encoding="iso-8859-1"?>
<!-- Generator: Adobe Illustrator 18.0.0, SVG Export Plug-In . SVG Version: 6.00 Build 0)  -->
<!DOCTYPE svg PUBLIC "-//W3C//DTD SVG 1.1//EN" "http://www.w3.org/Graphics/SVG/1.1/DTD/svg11.dtd">
<svg version="1.1" id="Capa_1" xmlns="http://www.w3.org/2000/svg" xmlns:xlink="http://www.w3.org/1999/xlink" x="0px" y="0px"
	 viewBox="0 0 1000 1000" style="enable-background:new 0 0 1000 1000;" xml:space="preserve">
<g>
	<path style="fill:#211915;stroke:#000000;stroke-miterlimit:10;" d="M54.639,521.741l375.174,411.298
		c17.958,19.687,43.54,30.978,70.187,30.978s52.229-11.291,70.186-30.977l375.176-411.299c13.03-14.285,21.315-31.858,23.958-50.819
		c2.438-17.488-0.064-35.318-7.234-51.563s-18.658-30.109-33.22-40.093c-15.79-10.825-34.356-16.547-53.691-16.547h-85.594V131.024
		c0-52.383-42.617-95-95-95H305.419c-52.383,0-95,42.617-95,95v231.695h-85.594c-19.335,0-37.901,5.722-53.691,16.547
		c-14.563,9.984-26.05,23.848-33.221,40.094c-7.17,16.246-9.671,34.076-7.233,51.563C33.324,489.884,41.609,507.456,54.639,521.741z
		 M124.825,432.719h130.594c13.807,0,25-11.193,25-25V131.024c0-13.807,11.193-25,25-25h389.162c13.807,0,25,11.193,25,25v276.695
		c0,13.807,11.193,25,25,25h130.594c21.724,0,33.11,25.798,18.47,41.848L518.47,885.865c-4.958,5.435-11.714,8.152-18.47,8.152
		s-13.513-2.717-18.47-8.152L106.355,474.567C91.715,458.517,103.101,432.719,124.825,432.719z"/>
</g>
</svg>
