<?xml version="1.0" encoding="iso-8859-1"?>
<!-- Generator: Adobe Illustrator 18.0.0, SVG Export Plug-In . SVG Version: 6.00 Build 0)  -->
<!DOCTYPE svg PUBLIC "-//W3C//DTD SVG 1.1//EN" "http://www.w3.org/Graphics/SVG/1.1/DTD/svg11.dtd">
<svg version="1.1" id="Capa_1" xmlns="http://www.w3.org/2000/svg" xmlns:xlink="http://www.w3.org/1999/xlink" x="0px" y="0px"
	 viewBox="0 0 1000 1000" style="enable-background:new 0 0 1000 1000;" xml:space="preserve">
<path style="stroke:#000000;stroke-miterlimit:10;" d="M687.378,590.974l262.968-446.179l0.349-0.592l0.337-0.598
	c15.486-27.495,14.938-60.668-1.468-88.736c-7.978-13.649-19.353-25.404-32.896-33.992c-15.478-9.815-32.945-15.003-50.514-15.003
	c-22.191,0-43.204,8.299-59.325,23.399L423.808,378.921c-25.798,23.145-47.462,59.977-58.209,84.58l-0.507,1.16l-0.464,1.178
	c-1.977,5.013-3.451,10.145-4.438,15.331c-29.285,9.009-56.629,25.931-80.728,50.22c-26.338,26.547-48.547,61.243-66.007,103.122
	c-11.882,28.498-30.019,55.081-53.906,79.011c-22.941,22.982-51.22,43.212-81.78,58.505c-31.573,15.799-51.699,47.542-52.525,82.84
	c-0.823,35.194,17.73,67.74,48.421,84.937c17.999,10.085,37.432,19.286,59.409,28.129c37.5,15.088,78.363,22.738,121.455,22.738
	c69.959,0,141.194-20.425,200.581-57.512c35.431-22.126,68.02-51.998,94.246-86.384c27.863-36.533,47.841-77.404,57.773-118.194
	c5.078-20.854,6.734-42.141,4.963-63.525c8.402-3.697,16.22-8.771,23.127-15.108C669.531,618.465,681.491,601.253,687.378,590.974z
	 M539.115,712.019C523.136,777.64,474.336,838.62,418.03,873.784c-47.399,29.601-105.858,46.885-163.502,46.885
	c-32.767,0-65.28-5.59-95.326-17.679c-17.572-7.07-34.832-15.016-51.321-24.255c-17.461-9.784-16.688-35.154,1.211-44.11
	c73.256-36.657,137.078-96.687,168.97-173.177c19.782-47.445,52.354-95.875,98.882-112.146c10.538-3.685,21.79-5.726,33.774-5.726
	c6.607,0,13.448,0.62,20.501,1.923c58.94,10.889,102.72,61.535,110.348,118.418C543.685,679.71,543.02,695.982,539.115,712.019z
	 M592.98,593.646c-4.109-8.759-8.827-17.282-14.167-25.529c-15.056-23.251-34.063-42.964-56.494-58.591
	c-23.825-16.598-50.196-27.654-78.383-32.861c-2.099-0.388-4.202-0.728-6.305-1.043c8.856-16.15,21.114-34.084,33.112-44.768
	L854.477,80.557c3.392-3.277,7.472-4.683,11.678-4.683c15.283,0,32.231,18.564,23.887,33.379L626.806,555.885
	C620.959,566.265,605.619,581.775,592.98,593.646z"/>
</svg>
