<?xml version="1.0" encoding="iso-8859-1"?>
<!-- Generator: Adobe Illustrator 18.0.0, SVG Export Plug-In . SVG Version: 6.00 Build 0)  -->
<!DOCTYPE svg PUBLIC "-//W3C//DTD SVG 1.1//EN" "http://www.w3.org/Graphics/SVG/1.1/DTD/svg11.dtd">
<svg version="1.1" id="Capa_1" xmlns="http://www.w3.org/2000/svg" xmlns:xlink="http://www.w3.org/1999/xlink" x="0px" y="0px"
	 viewBox="0 0 1000 1000" style="enable-background:new 0 0 1000 1000;" xml:space="preserve">
<path style="stroke:#000000;stroke-miterlimit:10;" d="M980.98,522.972l-0.498-38.582c-0.242-25.438-10.312-49.307-28.372-67.237
	c-18.114-17.984-42.146-27.888-67.67-27.888l-105.809,0.018l75.148-75.173c18.232-18.247,28.212-42.485,28.115-68.263
	c-0.097-25.776-10.261-49.939-28.618-68.035l-0.143-0.141l-0.144-0.14l-27.644-26.939c-18.064-17.719-41.937-27.474-67.249-27.474
	c-25.667-0.001-49.797,9.999-67.942,28.157l-74.78,74.805l-0.018-106.294c-0.021-52.951-43.103-96.019-96.035-96.023h-0.002h-0.003
	c-0.268,0-0.526,0.001-0.794,0.003l-0.15,0.001l-0.15,0.002l-38.583,0.498c-25.445,0.242-49.318,10.317-67.249,28.384
	c-17.986,18.122-27.885,42.163-27.875,67.695l0.018,105.772l-75.105-75.08c-18.147-18.133-42.256-28.115-67.896-28.116
	c-25.604-0.001-49.69,9.956-67.821,28.035l-27.417,27.28l-0.028,0.028l-0.028,0.028c-18.188,18.138-28.212,42.273-28.225,67.96
	s9.987,49.833,28.157,67.989l75.159,75.134l-106.197,0.018c-25.638,0.01-49.732,9.988-67.859,28.098
	c-18.126,18.108-28.129,42.192-28.165,67.814l-0.097,38.672v0.039v0.039c-0.036,25.68,9.938,49.829,28.084,68
	s42.282,28.179,67.962,28.179l106.309-0.018l-75.08,75.104c-18.122,18.137-28.103,42.229-28.116,67.852
	c-0.012,25.619,9.94,49.717,28.028,67.858l27.286,27.423l0.027,0.027l0.027,0.027c18.151,18.202,42.304,28.227,68.01,28.227
	c25.669,0,49.798-10,67.942-28.158l75.133-75.158l0.018,106.197c0.01,25.639,9.989,49.731,28.097,67.857
	c18.108,18.127,42.191,28.13,67.812,28.166l38.676,0.097h0.087h0.087c25.696,0,49.819-9.994,67.96-28.141
	c18.144-18.149,28.131-42.278,28.121-67.942l-0.018-106.272l75.173,75.148c18.148,18.134,42.258,28.115,67.898,28.115
	c12.556,0,24.807-2.409,36.412-7.162c12.056-4.937,22.818-12.155,31.986-21.454l0.143-0.146l0.142-0.146l26.942-27.647
	c17.811-18.161,27.565-42.161,27.469-67.608c-0.096-25.532-10.096-49.533-28.158-67.58l-74.804-74.779l106.294-0.018
	c25.795-0.01,49.991-10.093,68.15-28.39c18.158-18.296,28.057-42.568,27.871-68.345l-0.001-0.201L980.98,522.972z M884.952,550.108
	l-275.289,0.046l194.333,194.268c10.127,10.119,10.189,26.514,0.138,36.709l-27.047,27.755c-5.099,5.172-11.823,7.761-18.549,7.761
	c-6.66,0-13.322-2.539-18.409-7.621l-194.69-194.627l0.046,275.283c0.006,14.391-11.659,26.056-26.046,26.056
	c-0.011,0-0.025,0-0.036,0l-38.75-0.097c-14.366-0.021-26.004-11.67-26.01-26.035l-0.046-275.192L259.975,809.102
	c-5.087,5.091-11.755,7.636-18.424,7.636c-6.677,0-13.355-2.552-18.443-7.654l-27.332-27.469
	c-10.145-10.172-10.136-26.638,0.019-36.801L390.352,550.19l-275.283,0.046c-0.004,0-0.006,0-0.01,0
	c-14.398,0-26.066-11.683-26.046-26.082l0.097-38.75c0.02-14.366,11.669-26.004,26.035-26.009l275.192-0.046L195.65,264.727
	c-10.188-10.18-10.18-26.697,0.018-36.867l27.47-27.333c5.083-5.069,11.737-7.603,18.391-7.603c6.663,0,13.326,2.541,18.41,7.622
	l194.622,194.558l-0.046-274.783c-0.006-14.316,11.544-25.953,25.859-26.055l38.751-0.5c0.064,0,0.126,0,0.191,0
	c14.364,0.001,26.035,11.646,26.041,26.035l0.046,275.289l194.268-194.333c5.085-5.088,11.754-7.636,18.425-7.636
	c6.605,0,13.212,2.497,18.284,7.498l27.755,27.047c10.293,10.146,10.355,26.733,0.139,36.958L609.648,459.312l274.783-0.046
	c0.003,0,0.006,0,0.01,0c14.311,0,25.943,11.547,26.045,25.859l0.5,38.751C911.09,538.329,899.405,550.102,884.952,550.108z"/>
</svg>
