<?xml version="1.0" encoding="iso-8859-1"?>
<!-- Generator: Adobe Illustrator 18.0.0, SVG Export Plug-In . SVG Version: 6.00 Build 0)  -->
<!DOCTYPE svg PUBLIC "-//W3C//DTD SVG 1.1//EN" "http://www.w3.org/Graphics/SVG/1.1/DTD/svg11.dtd">
<svg version="1.1" id="Capa_1" xmlns="http://www.w3.org/2000/svg" xmlns:xlink="http://www.w3.org/1999/xlink" x="0px" y="0px"
	 viewBox="0 0 1000 1000" style="enable-background:new 0 0 1000 1000;" xml:space="preserve">
<path style="fill:#211915;stroke:#000000;stroke-miterlimit:10;" d="M225.027,993.45h549.946c52.383,0,95-42.617,95-95v-794.9
	c0-52.383-42.617-95-95-95H225.027c-52.383,0-95,42.617-95,95v794.9C130.027,950.833,172.644,993.45,225.027,993.45z
	 M200.027,103.55c0-13.807,11.193-25,25-25h549.946c13.807,0,25,11.193,25,25v794.9c0,13.807-11.193,25-25,25H225.027
	c-13.807,0-25-11.193-25-25V103.55z"/>
<path style="fill:#211915;stroke:#000000;stroke-miterlimit:10;" d="M320.395,809.605c23.304,23.304,50.46,41.609,80.715,54.405
	C432.47,877.275,465.741,884,500,884s67.53-6.725,98.89-19.989c30.255-12.797,57.411-31.101,80.715-54.405
	c23.305-23.304,41.609-50.461,54.406-80.715C747.274,697.53,754,664.259,754,630s-6.726-67.53-19.989-98.89
	c-12.796-30.254-31.101-57.411-54.406-80.715c-23.304-23.304-50.46-41.609-80.715-54.405C567.53,382.725,534.259,376,500,376
	s-67.53,6.725-98.89,19.989c-30.255,12.797-57.411,31.101-80.715,54.405c-23.305,23.304-41.609,50.461-54.406,80.715
	C252.726,562.47,246,595.741,246,630s6.726,67.53,19.989,98.89C278.786,759.144,297.09,786.301,320.395,809.605z M500,446
	c101.621,0,184,82.38,184,184s-82.379,184-184,184s-184-82.38-184-184S398.379,446,500,446z"/>
<path style="fill:#211915;stroke:#000000;stroke-miterlimit:10;" d="M500,337.995c57.9,0,105.006-47.106,105.006-105.006
	S557.9,127.983,500,127.983s-105.006,47.106-105.006,105.006S442.1,337.995,500,337.995z M500,197.983
	c19.303,0,35.006,15.704,35.006,35.006S519.303,267.995,500,267.995s-35.006-15.704-35.006-35.006S480.697,197.983,500,197.983z"/>
<path style="fill:#211915;stroke:#000000;stroke-miterlimit:10;" d="M500,735.006c57.9,0,105.006-47.106,105.006-105.006
	S557.9,524.994,500,524.994S394.994,572.099,394.994,630S442.1,735.006,500,735.006z M500,594.994
	c19.303,0,35.006,15.704,35.006,35.006S519.303,665.006,500,665.006S464.994,649.302,464.994,630S480.697,594.994,500,594.994z"/>
</svg>
