<?xml version="1.0" encoding="iso-8859-1"?>
<!-- Generator: Adobe Illustrator 18.0.0, SVG Export Plug-In . SVG Version: 6.00 Build 0)  -->
<!DOCTYPE svg PUBLIC "-//W3C//DTD SVG 1.1//EN" "http://www.w3.org/Graphics/SVG/1.1/DTD/svg11.dtd">
<svg version="1.1" id="Capa_1" xmlns="http://www.w3.org/2000/svg" xmlns:xlink="http://www.w3.org/1999/xlink" x="0px" y="0px"
	 viewBox="0 0 1000 1000" style="enable-background:new 0 0 1000 1000;" xml:space="preserve">
<g>
	<path style="fill:#211915;stroke:#000000;stroke-miterlimit:10;" d="M621.048,143.62c-17.738-16.94-40.976-26.271-65.434-26.271
		c-17.701,0-35.042,5.005-50.147,14.473L245.401,294.829h-94.936c-52.125,0-94.532,42.406-94.532,94.531v226.99
		c0,52.125,42.407,94.532,94.532,94.532h94.4l260.6,163.341c15.104,9.468,32.445,14.473,50.148,14.473
		c24.459,0,47.697-9.33,65.436-26.271c9.057-8.649,16.192-18.833,21.209-30.268c5.271-12.013,7.943-24.809,7.943-38.032V503.19
		v-0.336V211.921c0-13.225-2.673-26.021-7.945-38.035C637.24,162.453,630.104,152.27,621.048,143.62z M580.202,502.854v0.336
		v290.934c0,14.383-11.807,24.571-24.588,24.571c-4.354,0-8.821-1.183-12.973-3.785L279.334,649.872
		c-9.372-5.874-20.209-8.99-31.27-8.99h-97.599c-13.549,0-24.532-10.983-24.532-24.532V389.36c0-13.548,10.983-24.531,24.532-24.531
		H248.6c11.061,0,21.896-3.116,31.269-8.99l262.772-164.704c4.152-2.603,8.618-3.785,12.973-3.785
		c12.78,0,24.588,10.189,24.588,24.571V502.854z"/>
	<path style="fill:#211915;stroke:#000000;stroke-miterlimit:10;" d="M748.373,332.138c-8.604-17.31-29.616-24.364-46.921-15.761
		c-17.31,8.604-24.365,29.612-15.761,46.921c20.303,40.841,31.034,89.222,31.034,139.913c0,51.479-11.037,100.469-31.918,141.675
		c-8.738,17.243-1.844,38.304,15.398,47.042c5.072,2.569,10.472,3.787,15.793,3.787c12.771,0,25.081-7.016,31.249-19.187
		c25.826-50.966,39.478-110.897,39.478-173.317C786.726,441.765,773.464,382.608,748.373,332.138z"/>
	<path style="fill:#211915;stroke:#000000;stroke-miterlimit:10;" d="M801.107,220.551c-17.31,8.604-24.365,29.611-15.761,46.921
		c34.2,68.799,52.277,150.104,52.277,235.126c0,86.35-18.596,168.688-53.778,238.115c-8.737,17.242-1.843,38.303,15.399,47.04
		c5.072,2.57,10.472,3.788,15.793,3.788c12.771,0,25.081-7.016,31.249-19.188c40.127-79.186,61.337-172.466,61.337-269.756
		c0-95.776-20.607-187.856-59.596-266.286C839.424,219.002,818.419,211.943,801.107,220.551z"/>
</g>
</svg>
