<?xml version="1.0" encoding="iso-8859-1"?>
<!-- Generator: Adobe Illustrator 18.0.0, SVG Export Plug-In . SVG Version: 6.00 Build 0)  -->
<!DOCTYPE svg PUBLIC "-//W3C//DTD SVG 1.1//EN" "http://www.w3.org/Graphics/SVG/1.1/DTD/svg11.dtd">
<svg version="1.1" id="Capa_1" xmlns="http://www.w3.org/2000/svg" xmlns:xlink="http://www.w3.org/1999/xlink" x="0px" y="0px"
	 viewBox="0 0 1000 1000" style="enable-background:new 0 0 1000 1000;" xml:space="preserve">
<g>
	<path style="fill:#211915;stroke:#000000;stroke-miterlimit:10;" d="M130.52,481.664c-52.383,0-95,42.617-95,95v310.822
		c0,52.383,42.617,95,95,95h84.994c52.383,0,95-42.617,95-95V576.664c0-52.383-42.617-95-95-95H130.52z M240.513,576.664v310.822
		c0,13.807-11.193,25-25,25H130.52c-13.807,0-25-11.193-25-25V576.664c0-13.807,11.193-25,25-25h84.994
		C229.32,551.664,240.513,562.857,240.513,576.664z"/>
	<path style="fill:#211915;stroke:#000000;stroke-miterlimit:10;" d="M858.981,15.187h-84.993c-52.383,0-95,42.617-95,95v777.299
		c0,52.383,42.617,95,95,95h84.993c52.383,0,95-42.617,95-95V110.187C953.981,57.804,911.364,15.187,858.981,15.187z
		 M883.981,887.486c0,13.807-11.193,25-25,25h-84.993c-13.807,0-25-11.193-25-25V110.187c0-13.807,11.193-25,25-25h84.993
		c13.807,0,25,11.193,25,25V887.486z"/>
	<path style="fill:#211915;stroke:#000000;stroke-miterlimit:10;" d="M537.247,259.176h-84.993c-52.383,0-95,42.617-95,95v533.311
		c0,52.383,42.617,95,95,95h84.993c52.383,0,95-42.617,95-95V354.176C632.247,301.792,589.63,259.176,537.247,259.176z
		 M562.247,887.486c0,13.807-11.193,25-25,25h-84.993c-13.807,0-25-11.193-25-25v-533.31c0-13.807,11.193-25,25-25h84.993
		c13.807,0,25,11.193,25,25V887.486z"/>
</g>
</svg>
