<?xml version="1.0" encoding="iso-8859-1"?>
<!-- Generator: Adobe Illustrator 18.0.0, SVG Export Plug-In . SVG Version: 6.00 Build 0)  -->
<!DOCTYPE svg PUBLIC "-//W3C//DTD SVG 1.1//EN" "http://www.w3.org/Graphics/SVG/1.1/DTD/svg11.dtd">
<svg version="1.1" id="Capa_1" xmlns="http://www.w3.org/2000/svg" xmlns:xlink="http://www.w3.org/1999/xlink" x="0px" y="0px"
	 viewBox="0 0 1000 1000" style="enable-background:new 0 0 1000 1000;" xml:space="preserve">
<path style="stroke:#000000;stroke-miterlimit:10;" d="M833.089,277.123l21.644,37.489
	C848.189,301.692,840.959,289.18,833.089,277.123z"/>
<path style="stroke:#000000;stroke-miterlimit:10;" d="M85.778,281.553l24.075-41.699
	C101.124,253.309,93.089,267.215,85.778,281.553z"/>
<path style="stroke:#000000;stroke-miterlimit:10;" d="M35.196,493.363c0,6.559,0.142,13.097,0.41,19.615
	c2.301,55.977,14.461,110.334,36.25,161.85c23.481,55.516,57.082,105.36,99.869,148.147c24.165,24.165,50.583,45.398,79,63.535
	c21.899,13.976,44.985,26.115,69.147,36.334c35.94,15.201,73.262,25.72,111.553,31.472c22.984,3.453,46.318,5.188,69.911,5.188
	c23.593,0,46.927-1.736,69.911-5.188c38.291-5.752,75.613-16.271,111.553-31.472c24.162-10.22,47.248-22.358,69.147-36.335
	c28.417-18.136,54.834-39.369,79-63.534c42.787-42.787,76.388-92.631,99.869-148.147c21.789-51.515,33.949-105.872,36.25-161.849
	c0.268-6.517,0.41-13.055,0.41-19.615c0-62.898-12.334-123.951-36.66-181.464c-4.362-10.314-9.075-20.431-14.13-30.344l-2.043-3.54
	c-6.201-11.905-12.903-23.508-20.091-34.798l-1.942-3.364c-17.722-27.316-38.322-52.761-61.663-76.102
	c-35.769-35.768-76.472-65.112-121.294-87.496c-8.795-4.392-17.746-8.521-26.852-12.373c-57.513-24.326-118.566-36.66-181.464-36.66
	s-123.951,12.334-181.464,36.66c-9.106,3.852-18.057,7.981-26.852,12.373c-44.823,22.384-85.526,51.728-121.295,87.496
	c-23.341,23.341-43.941,48.786-61.663,76.103l-24.075,41.699c-5.055,9.914-9.769,20.031-14.131,30.345
	C47.53,369.412,35.196,430.465,35.196,493.363z M246.097,796.323c-70.408-59.378-119.832-142.852-135.552-237.708
	c6.495,1.087,13.103,1.645,19.759,1.645h249.789L255.198,776.583C251.547,782.908,248.516,789.521,246.097,796.323z
	 M693.227,840.001c-38.986,21.628-82.004,36.87-127.643,44.314H437.089c-45.639-7.443-88.657-22.686-127.644-44.314
	c-0.84-9.383,1.068-19.227,6.375-28.418l143.524-248.592c9.332-16.163,25.662-24.244,41.992-24.244s32.66,8.081,41.992,24.244
	l143.524,248.592C692.159,820.774,694.067,830.618,693.227,840.001z M756.576,796.323c-2.419-6.803-5.45-13.416-9.102-19.74
	L622.58,560.259h249.79c6.656,0,13.264-0.557,19.759-1.644C876.407,653.472,826.983,736.945,756.576,796.323z M686.853,168.935
	c4.14-7.17,9.661-12.742,15.945-16.731c52.508,31.074,97.218,73.927,130.501,124.919c7.87,12.057,15.1,24.569,21.644,37.489
	c25.794,50.924,40.915,108.169,42.41,168.798c-7.155,4.312-15.63,6.85-24.983,6.85H585.32c-37.326,0-60.655-40.407-41.992-72.732
	L686.853,168.935z M501.336,97.222c47.015,0,92.113,8.197,133.953,23.229c-3.306,4.265-6.335,8.768-9.059,13.484L501.336,350.259
	L376.441,133.935c-2.723-4.717-5.753-9.219-9.059-13.485C409.223,105.419,454.321,97.222,501.336,97.222z M147.73,314.611
	c0.571-1.127,1.154-2.248,1.735-3.369l17.859-30.932c0.68-1.064,1.359-2.13,2.049-3.187
	c33.283-50.991,77.993-93.845,130.501-124.919c6.284,3.989,11.805,9.561,15.945,16.731l143.524,248.592
	c18.663,32.325-4.666,72.732-41.992,72.732H130.304c-9.354,0-17.828-2.538-24.983-6.85
	C106.815,422.781,121.937,365.535,147.73,314.611z"/>
</svg>
