<?xml version="1.0" encoding="iso-8859-1"?>
<!-- Generator: Adobe Illustrator 18.0.0, SVG Export Plug-In . SVG Version: 6.00 Build 0)  -->
<!DOCTYPE svg PUBLIC "-//W3C//DTD SVG 1.1//EN" "http://www.w3.org/Graphics/SVG/1.1/DTD/svg11.dtd">
<svg version="1.1" id="Capa_1" xmlns="http://www.w3.org/2000/svg" xmlns:xlink="http://www.w3.org/1999/xlink" x="0px" y="0px"
	 viewBox="0 0 1000 1000" style="enable-background:new 0 0 1000 1000;" xml:space="preserve">
<path style="stroke:#000000;stroke-miterlimit:10;" d="M192.235,663.735c32.948,27.871,69.751,50.839,109.2,68.473l-35.641,209.654
	c-3.24,19.057,9.583,37.132,28.639,40.371c1.985,0.338,3.959,0.501,5.908,0.501c16.753,0,31.561-12.069,34.463-29.14l9.413-55.372
	h311.686l9.413,55.372c2.902,17.072,17.708,29.14,34.463,29.14c1.947,0,3.923-0.164,5.908-0.501
	c19.057-3.239,31.879-21.314,28.639-40.371l-35.641-209.654c39.449-17.634,76.252-40.602,109.2-68.473
	c41.537-35.136,75.276-76.495,100.28-122.928c26.027-48.333,41.512-100.208,46.026-154.185c2.202-26.314-6.802-52.57-24.704-72.032
	c-17.954-19.519-43.46-30.713-69.979-30.713H140.613c-26.519,0-52.025,11.194-69.979,30.713
	c-17.901,19.462-26.906,45.718-24.704,72.035c4.514,53.974,19.999,105.849,46.026,154.182
	C116.959,587.24,150.698,628.599,192.235,663.735z M140.613,353.878h718.894c14.561,0,26.141,12.402,24.927,26.912
	c-10.085,120.595-87.391,224.105-197.938,279.715c-21.05,10.589-43.3,19.443-66.526,26.344
	c-37.743,11.215-78.043,17.293-119.91,17.293s-82.167-6.078-119.909-17.292c-23.226-6.901-45.477-15.756-66.526-26.345
	c-110.547-55.609-187.854-159.12-197.938-279.715C114.472,366.28,126.052,353.878,140.613,353.878z M644.003,828.223H356.117
	l12.23-71.941c42.3,11.756,86.615,17.86,131.712,17.86c45.098,0,89.413-6.104,131.713-17.86L644.003,828.223z"/>
<path style="stroke:#000000;stroke-miterlimit:10;" d="M350.72,229.862l69.944,2.795c0.208-5.191,1.116-51.662-30.403-84.466
	c-12.992-13.521-36.554-29.64-75.023-29.64c-21.462,0-37.276-7.189-48.343-21.979C256.4,82.549,252.676,64.83,252.676,53.919
	c0-19.33-15.67-35-35-35s-35,15.67-35,35c0,29.396,10.532,61.02,28.174,84.594c17.083,22.827,49.06,50.039,104.388,50.039
	c16.573,0,22.451,5.998,24.383,7.969c9.412,9.604,11.203,27.985,11.089,33.668L350.72,229.862z"/>
<path style="stroke:#000000;stroke-miterlimit:10;" d="M597.622,229.862l69.944,2.795c0.208-5.191,1.116-51.662-30.403-84.466
	c-12.992-13.521-36.554-29.64-75.023-29.64c-21.462,0-37.276-7.189-48.343-21.979c-10.495-14.023-14.219-31.742-14.219-42.653
	c0-19.33-15.67-35-35-35s-35,15.67-35,35c0,29.396,10.532,61.02,28.174,84.594c17.083,22.827,49.06,50.039,104.388,50.039
	c16.573,0,22.451,5.998,24.383,7.969c9.412,9.604,11.203,27.985,11.089,33.668L597.622,229.862z"/>
</svg>
