<?xml version="1.0" encoding="iso-8859-1"?>
<!-- Generator: Adobe Illustrator 18.0.0, SVG Export Plug-In . SVG Version: 6.00 Build 0)  -->
<!DOCTYPE svg PUBLIC "-//W3C//DTD SVG 1.1//EN" "http://www.w3.org/Graphics/SVG/1.1/DTD/svg11.dtd">
<svg version="1.1" id="Capa_1" xmlns="http://www.w3.org/2000/svg" xmlns:xlink="http://www.w3.org/1999/xlink" x="0px" y="0px"
	 viewBox="0 0 1000 1000" style="enable-background:new 0 0 1000 1000;" xml:space="preserve">
<g>
	<path style="fill:#211915;stroke:#000000;stroke-miterlimit:10;" d="M209.682,481.664h-84.993c-52.383,0-95,42.617-95,95v310.822
		c0,52.383,42.617,95,95,95h84.993c52.383,0,95-42.617,95-95V576.664C304.682,524.281,262.065,481.664,209.682,481.664z
		 M234.682,887.486c0,13.807-11.193,25-25,25h-84.993c-13.807,0-25-11.193-25-25V576.664c0-13.807,11.193-25,25-25h84.993
		c13.807,0,25,11.193,25,25V887.486z"/>
	<path style="fill:#211915;stroke:#000000;stroke-miterlimit:10;" d="M536.665,982.486c52.383,0,95-42.617,95-95V110.187
		c0-52.383-42.617-95-95-95h-84.993c-52.383,0-95,42.617-95,95v777.299c0,52.383,42.617,95,95,95H536.665z M426.672,887.486V110.187
		c0-13.807,11.193-25,25-25h84.993c13.807,0,25,11.193,25,25v777.299c0,13.807-11.193,25-25,25h-84.993
		C437.865,912.486,426.672,901.294,426.672,887.486z"/>
	<path style="fill:#211915;stroke:#000000;stroke-miterlimit:10;" d="M863.649,982.486c52.383,0,95-42.617,95-95v-533.31
		c0-52.383-42.617-95-95-95h-84.993c-52.383,0-95,42.617-95,95v533.311c0,52.383,42.617,95,95,95L863.649,982.486L863.649,982.486z
		 M753.656,887.486v-533.31c0-13.807,11.193-25,25-25h84.993c13.807,0,25,11.193,25,25v533.311c0,13.807-11.193,25-25,25h-84.993
		C764.849,912.486,753.656,901.293,753.656,887.486z"/>
</g>
</svg>
