<?xml version="1.0" encoding="iso-8859-1"?>
<!-- Generator: Adobe Illustrator 18.0.0, SVG Export Plug-In . SVG Version: 6.00 Build 0)  -->
<!DOCTYPE svg PUBLIC "-//W3C//DTD SVG 1.1//EN" "http://www.w3.org/Graphics/SVG/1.1/DTD/svg11.dtd">
<svg version="1.1" id="Capa_1" xmlns="http://www.w3.org/2000/svg" xmlns:xlink="http://www.w3.org/1999/xlink" x="0px" y="0px"
	 viewBox="0 0 1000 1000" style="enable-background:new 0 0 1000 1000;" xml:space="preserve">
<path style="fill:#211915;stroke:#000000;stroke-miterlimit:10;" d="M12.31,288.801v442.241c0,52.383,42.617,95,95,95h660.617
	c52.383,0,95-42.617,95-95v-33.5h30.512c52.383,0,95-42.617,95-95V417.301c0-52.383-42.617-95-95-95h-30.512v-33.5
	c0-52.383-42.617-95-95-95H107.31C54.926,193.801,12.31,236.418,12.31,288.801z M82.31,288.801c0-13.807,11.193-25,25-25h660.617
	c13.807,0,25,11.193,25,25v33.5v70v235.241v70v33.5c0,13.807-11.193,25-25,25H107.31c-13.807,0-25-11.193-25-25V288.801z
	 M893.438,392.301c13.807,0,25,11.193,25,25v185.241c0,13.807-11.193,25-25,25h-30.512V392.301H893.438z"/>
<path style="fill:#211915;stroke:#000000;stroke-miterlimit:10;" d="M129.808,725.177h55h505.621h55c8.284,0,15-6.716,15-15v-12.635
	v-42.365v-27.635V392.301v-27.635v-42.365v-12.635c0-8.284-6.716-15-15-15h-55H184.808h-55c-8.284,0-15,6.716-15,15v55v290.512v55
	C114.808,718.462,121.524,725.177,129.808,725.177z M690.388,627.542l0.004,2.599c0.021,13.822-11.178,25.037-25,25.037H209.808
	c-13.807,0-25-11.193-25-25V389.665c0-13.807,11.193-25,25-25h455.229c13.792,0,24.979,11.17,25,24.963l0.004,2.672L690.388,627.542
	z"/>
</svg>
