<?xml version="1.0" encoding="iso-8859-1"?>
<!-- Generator: Adobe Illustrator 18.0.0, SVG Export Plug-In . SVG Version: 6.00 Build 0)  -->
<!DOCTYPE svg PUBLIC "-//W3C//DTD SVG 1.1//EN" "http://www.w3.org/Graphics/SVG/1.1/DTD/svg11.dtd">
<svg version="1.1" id="Capa_1" xmlns="http://www.w3.org/2000/svg" xmlns:xlink="http://www.w3.org/1999/xlink" x="0px" y="0px"
	 viewBox="0 0 1000 1000" style="enable-background:new 0 0 1000 1000;" xml:space="preserve">
<path style="fill:#211915;stroke:#000000;stroke-miterlimit:10;" d="M14.772,731.121c0,52.383,42.617,95,95,95h660.617
	c52.383,0,95-42.617,95-95v-33.5H895.9c52.383,0,95-42.617,95-95V417.379c0-52.383-42.617-95-95-95h-30.511v-33.5
	c0-52.383-42.617-95-95-95H109.772c-52.383,0-95,42.617-95,95C14.772,288.879,14.772,731.121,14.772,731.121z M84.772,288.879
	c0-13.807,11.193-25,25-25h660.617c13.807,0,25,11.193,25,25v33.5v70V627.62v70v33.5c0,13.807-11.193,25-25,25H109.772
	c-13.807,0-25-11.193-25-25V288.879z M895.901,392.379c13.807,0,25,11.193,25,25V602.62c0,13.807-11.193,25-25,25H865.39V392.379
	H895.901z"/>
<path style="fill:#211915;stroke:#000000;stroke-miterlimit:10;" d="M196.312,556.227c10.248,9.015,22.635,15.091,35.886,17.79
	c5.126,1.044,10.377,1.599,15.69,1.599c1.132,0,2.277-0.025,3.405-0.073l87.003-3.697v47.821c0,2.685,0.137,5.338,0.402,7.955
	c3.793,37.385,34.024,67.05,71.643,70c2.036,0.16,4.087,0.266,6.163,0.266c2.062,0,4.108-0.106,6.146-0.266
	c8.918-0.696,17.59-2.884,25.846-6.585l141.485-63.415l75.082-33.652c17.338-7.771,31.223-21.481,39.1-38.605
	c6.997-15.211,8.914-32.65,5.396-49.104c-3.5-16.37-12.315-31.45-24.823-42.462c-14.214-12.514-32.535-19.408-51.59-19.411
	c-1.142,0-2.287,0.025-3.415,0.073l-87.712,3.712v-47.817c0-2.691-0.137-5.352-0.404-7.974c-3.81-37.461-34.167-67.165-71.898-70
	c-1.953-0.146-3.918-0.246-5.907-0.246c-1.978,0-3.941,0.1-5.897,0.246c-9.037,0.676-17.823,2.885-26.18,6.643l-140.922,63.357
	l-58.615,26.353l-16.32,7.337c-17.32,7.787-31.187,21.505-39.046,38.628c-6.982,15.212-8.885,32.647-5.358,49.093
	C174.983,530.153,183.804,545.224,196.312,556.227z M244.581,489.914l215.86-97.049c0.473-0.213,0.953-0.367,1.432-0.485
	c0.648-0.16,1.297-0.246,1.937-0.246c0.662,0,1.311,0.091,1.94,0.246c3.479,0.859,6.269,3.962,6.269,7.974V512.63
	c0,4.552,3.696,8.211,8.204,8.211c0.117,0,0.236-0.002,0.354-0.007l152.15-6.438c0.138-0.006,0.273-0.009,0.408-0.009
	c8.716,0.001,11.428,12.061,3.298,15.705l-216.568,97.067c-0.447,0.2-0.899,0.346-1.351,0.462c-0.672,0.172-1.345,0.266-2.009,0.266
	c-0.689,0-1.364-0.098-2.017-0.266c-3.443-0.886-6.191-3.973-6.191-7.955V507.374c0-4.552-3.696-8.211-8.204-8.211
	c-0.118,0-0.237,0.002-0.356,0.008l-151.439,6.436c-0.138,0.006-0.274,0.009-0.409,0.009
	C239.176,505.615,236.46,493.565,244.581,489.914z"/>
</svg>
