<?xml version="1.0" encoding="iso-8859-1"?>
<!-- Generator: Adobe Illustrator 18.0.0, SVG Export Plug-In . SVG Version: 6.00 Build 0)  -->
<!DOCTYPE svg PUBLIC "-//W3C//DTD SVG 1.1//EN" "http://www.w3.org/Graphics/SVG/1.1/DTD/svg11.dtd">
<svg version="1.1" id="Capa_1" xmlns="http://www.w3.org/2000/svg" xmlns:xlink="http://www.w3.org/1999/xlink" x="0px" y="0px"
	 viewBox="0 0 1000 1000" style="enable-background:new 0 0 1000 1000;" xml:space="preserve">
<path style="fill:#211915;stroke:#000000;stroke-miterlimit:10;" d="M765.357,193.801H104.74c-52.383,0-95,42.617-95,95v442.241
	c0,52.383,42.617,95,95,95h660.617c52.383,0,95-42.617,95-95v-33.5h30.512c52.383,0,95-42.617,95-95V417.301
	c0-52.383-42.617-95-95-95h-30.512v-33.5C860.357,236.418,817.74,193.801,765.357,193.801z M790.357,392.301v235.241v70v33.5
	c0,13.807-11.192,25-25,25H104.74c-13.807,0-25-11.193-25-25V288.801c0-13.807,11.193-25,25-25h660.617c13.808,0,25,11.193,25,25
	v33.5V392.301z M890.869,392.301c13.808,0,25,11.193,25,25v185.241c0,13.807-11.192,25-25,25h-30.512V392.301H890.869z"/>
<path style="fill:#211915;stroke:#000000;stroke-miterlimit:10;" d="M464.765,697.542l-25.061-70l-84.219-235.241l-25.061-70
	l-6.334-17.691c-2.135-5.964-7.787-9.944-14.122-9.944H182.239h-55c-8.284,0-15,6.716-15,15v55v290.512v55c0,8.284,6.716,15,15,15
	h55h271.116c10.378,0,17.62-10.285,14.123-20.056L464.765,697.542z M350.521,627.542l5.206,14.192
	c2.394,6.526-2.438,13.444-9.389,13.444h-139.1c-13.808,0-25-11.193-25-25V389.665c0-13.807,11.192-25,25-25h39.879
	c4.195,0,7.944,2.618,9.389,6.556l7.731,21.079L350.521,627.542z"/>
</svg>
