<?xml version="1.0" encoding="iso-8859-1"?>
<!-- Generator: Adobe Illustrator 18.0.0, SVG Export Plug-In . SVG Version: 6.00 Build 0)  -->
<!DOCTYPE svg PUBLIC "-//W3C//DTD SVG 1.1//EN" "http://www.w3.org/Graphics/SVG/1.1/DTD/svg11.dtd">
<svg version="1.1" id="Capa_1" xmlns="http://www.w3.org/2000/svg" xmlns:xlink="http://www.w3.org/1999/xlink" x="0px" y="0px"
	 viewBox="0 0 1000 1000" style="enable-background:new 0 0 1000 1000;" xml:space="preserve">
<path style="fill:#211915;stroke:#000000;stroke-miterlimit:10;" d="M106.393,826.042h660.618c52.383,0,95-42.617,95-95v-33.5
	h30.511c52.383,0,95-42.617,95-95V417.301c0-52.383-42.617-95-95-95h-30.511v-33.5c0-52.383-42.617-95-95-95H106.393
	c-52.383,0-95,42.617-95,95v442.241C11.393,783.425,54.01,826.042,106.393,826.042z M81.393,288.801c0-13.807,11.193-25,25-25
	h660.618c13.807,0,25,11.193,25,25v33.5v70v235.241v70v33.5c0,13.807-11.193,25-25,25H106.393c-13.807,0-25-11.193-25-25V288.801z
	 M892.521,392.301c13.808,0,25,11.193,25,25v185.241c0,13.807-11.192,25-25,25H862.01V392.301H892.521z"/>
<path style="fill:#211915;stroke:#000000;stroke-miterlimit:10;" d="M128.892,725.177h55h478.254
	c10.378,0,17.62-10.285,14.123-20.056l-2.714-7.58l-25.061-70L564.275,392.3l-25.061-70l-6.334-17.691
	c-2.135-5.964-7.787-9.944-14.122-9.944H183.892h-55c-8.284,0-15,6.716-15,15v55v290.512v55
	C113.892,718.462,120.607,725.177,128.892,725.177z M559.312,627.542l5.205,14.192c2.394,6.526-2.438,13.444-9.389,13.444H208.892
	c-13.808,0-25-11.193-25-25V389.665c0-13.807,11.192-25,25-25h247.017c4.195,0,7.944,2.618,9.389,6.556l7.731,21.079
	L559.312,627.542z"/>
</svg>
