<?xml version="1.0" encoding="iso-8859-1"?>
<!-- Generator: Adobe Illustrator 18.0.0, SVG Export Plug-In . SVG Version: 6.00 Build 0)  -->
<!DOCTYPE svg PUBLIC "-//W3C//DTD SVG 1.1//EN" "http://www.w3.org/Graphics/SVG/1.1/DTD/svg11.dtd">
<svg version="1.1" id="Capa_1" xmlns="http://www.w3.org/2000/svg" xmlns:xlink="http://www.w3.org/1999/xlink" x="0px" y="0px"
	 viewBox="0 0 1000 1000" style="enable-background:new 0 0 1000 1000;" xml:space="preserve">
<path style="fill:#211915;stroke:#000000;stroke-miterlimit:10;" d="M846,815.208V435c0-46.679-9.158-91.999-27.219-134.7
	c-17.43-41.21-42.369-78.205-74.122-109.958c-19.37-19.371-40.701-36.189-63.74-50.33C658.177,61.56,585.683,4.042,500,4.042
	s-158.177,57.519-180.919,135.97c-23.039,14.141-44.369,30.959-63.74,50.33c-31.753,31.753-56.691,68.749-74.122,109.958
	C163.158,343.001,154,388.321,154,435v380.208v70h70h102.016c9.186,17.498,20.92,33.454,35.038,47.571
	c18.024,18.024,39.031,32.182,62.438,42.083c24.271,10.266,50.012,15.47,76.508,15.47s52.238-5.205,76.508-15.47
	c23.407-9.901,44.415-24.06,62.438-42.083c14.118-14.117,25.852-30.073,35.038-47.571H776h70V815.208z M776,815.208h-80.659h-70.648
	H375.307h-70.648H224V435c0-81.453,35.293-154.656,91.411-205.176c19.777-17.804,42.14-32.786,66.46-44.321
	C417.684,168.517,457.728,159,500,159l0,0c42.272,0,82.316,9.517,118.129,26.503c24.319,11.535,46.683,26.517,66.46,44.321
	C740.707,280.344,776,353.547,776,435V815.208z M500,74.042c25.369,0,48.896,8.027,68.182,21.67C545.889,91.253,523.112,89,500,89
	s-45.889,2.253-68.182,6.712C451.104,82.068,474.631,74.042,500,74.042z M500,920.333c-33.94,0-64.757-13.369-87.477-35.125h174.953
	C564.757,906.964,533.94,920.333,500,920.333z"/>
</svg>
