<?xml version="1.0" encoding="iso-8859-1"?>
<!-- Generator: Adobe Illustrator 18.0.0, SVG Export Plug-In . SVG Version: 6.00 Build 0)  -->
<!DOCTYPE svg PUBLIC "-//W3C//DTD SVG 1.1//EN" "http://www.w3.org/Graphics/SVG/1.1/DTD/svg11.dtd">
<svg version="1.1" id="Capa_1" xmlns="http://www.w3.org/2000/svg" xmlns:xlink="http://www.w3.org/1999/xlink" x="0px" y="0px"
	 viewBox="0 0 1000 1000" style="enable-background:new 0 0 1000 1000;" xml:space="preserve">
<path style="stroke:#000000;stroke-miterlimit:10;" d="M909.663,85.148c-24.116-23.626-52.143-41.92-83.3-54.374
	c-30.063-12.016-61.776-18.108-94.257-18.108c-33.34,0-65.831,6.405-96.567,19.037c-28.954,11.899-55.101,28.83-77.845,50.389
	c-33.527-15.766-70.182-23.977-107.826-23.979c-33.184-0.002-65.532,6.345-96.146,18.863
	c-31.723,12.972-60.097,31.984-84.333,56.511c-23.957,24.242-42.42,52.621-54.877,84.347c-11.92,30.356-17.834,62.438-17.578,95.355
	c0.26,33.354,6.833,65.846,19.535,96.57c5.655,13.678,12.417,26.71,20.229,39.047L34.38,851.262
	c-8.762,17.429-11.83,36.825-8.869,56.093c3.029,19.711,12.08,37.551,26.174,51.589l0.049,0.049l0.049,0.049
	c0.333,0.331,0.667,0.659,1.006,0.986c17.377,16.787,40.271,26.021,64.485,26.021c15.106,0,30.158-3.725,43.529-10.771
	l398.491-210.049c12.058,7.312,24.743,13.641,38.015,18.921c30.425,12.105,62.51,18.243,95.364,18.243
	c33.422,0,65.913-6.344,96.569-18.853c32.044-13.076,60.532-32.278,84.674-57.073c20.691-21.25,37.334-45.644,49.465-72.501
	c11.72-25.946,18.94-53.53,21.462-81.985c2.989-33.721-12.568-66.774-40.6-86.262c-15.58-10.829-28.525-25.364-37.439-42.036
	c-9.295-17.384-14.008-36.298-14.008-56.217c0-22.434,6.23-44.271,18.016-63.152c11.52-18.455,27.82-33.44,47.138-43.338
	c22.42-11.487,39.071-31.012,46.889-54.978c7.714-23.647,5.939-48.99-4.995-71.36C947.193,128.756,930.31,105.375,909.663,85.148z
	 M886.031,218.676c-61.288,31.399-103.235,95.194-103.235,168.79c0,64.519,32.243,121.499,81.49,155.729
	c7.356,5.114,11.621,13.683,10.83,22.607c-3.602,40.645-20.692,80.343-51.354,111.833c-35.609,36.572-83.274,54.757-131.089,54.757
	c-18.654,0-37.329-2.782-55.317-8.311c-26.059-8.009-50.676-21.795-71.687-41.343c-1.193-1.109-2.376-2.236-3.546-3.384
	L322.505,444.312c-1.169-1.147-2.319-2.308-3.452-3.479c-19.951-20.631-34.21-44.974-42.72-70.871
	c-20.928-63.695-7.029-136.802,42.845-187.272c35.922-36.352,83.281-54.579,130.685-54.576
	c35.911,0.002,71.852,10.467,102.837,31.44c4.338,2.937,9.275,4.361,14.158,4.361c7.449,0,14.773-3.315,19.656-9.641
	c4.417-5.722,9.218-11.244,14.405-16.532c35.981-36.682,83.566-55.076,131.187-55.076c46.393,0,92.82,17.462,128.572,52.486
	c15.266,14.955,27.361,31.985,36.276,50.227C902.942,197.63,898.167,212.458,886.031,218.676z M128.167,913.351
	c-3.432,1.809-7.177,2.698-10.892,2.698c-5.78,0-11.488-2.153-15.828-6.346c-0.122-0.118-0.243-0.236-0.363-0.355
	c-7.024-6.996-8.615-17.788-4.162-26.646l189.086-376.135l214.577,210.479L128.167,913.351z"/>
</svg>
