<?xml version="1.0" encoding="iso-8859-1"?>
<!-- Generator: Adobe Illustrator 18.0.0, SVG Export Plug-In . SVG Version: 6.00 Build 0)  -->
<!DOCTYPE svg PUBLIC "-//W3C//DTD SVG 1.1//EN" "http://www.w3.org/Graphics/SVG/1.1/DTD/svg11.dtd">
<svg version="1.1" id="Capa_1" xmlns="http://www.w3.org/2000/svg" xmlns:xlink="http://www.w3.org/1999/xlink" x="0px" y="0px"
	 viewBox="0 0 1000 1000" style="enable-background:new 0 0 1000 1000;" xml:space="preserve">
<path style="fill:#211915;stroke:#000000;stroke-miterlimit:10;" d="M189.582,818.436c6.732,6.221,15.249,9.294,23.745,9.294
	c9.421,0,18.816-3.782,25.714-11.247l210.624-227.937v1.133v314.147c0,22.549,8.943,43.288,25.183,58.395
	c14.821,13.789,34.934,21.696,55.18,21.696c22.284,0,43.022-9.162,58.394-25.798l133.335-144.295
	c13.7-14.825,21.245-34.107,21.245-54.293c0-20.187-7.545-39.469-21.244-54.293L532.319,500.229l189.436-205.008
	c13.7-14.825,21.245-34.107,21.245-54.294c0-20.186-7.544-39.468-21.244-54.292L588.42,42.34
	c-15.372-16.636-36.11-25.798-58.394-25.798c-20.245,0-40.357,7.908-55.179,21.697c-16.24,15.107-25.184,35.846-25.184,58.394
	V410.78v0.888L239.041,183.732c-13.119-14.198-35.262-15.071-49.459-1.953c-14.197,13.119-15.071,35.263-1.952,49.459
	l248.447,268.869L187.63,768.977C174.511,783.173,175.385,805.316,189.582,818.436z M670.345,752.745
	c3.516,3.805,3.516,9.767,0,13.572L537.008,910.613c-2.083,2.254-4.301,3.304-6.982,3.304c-2.882,0-10.362-1.812-10.362-10.091
	V589.679L670.345,752.745z M519.664,96.633c0-8.278,7.48-10.091,10.362-10.091c2.681,0,4.899,1.05,6.982,3.304l133.336,144.297
	c3.516,3.805,3.516,9.767,0,13.572L519.664,410.78V96.633z"/>
</svg>
