<?xml version="1.0" encoding="iso-8859-1"?>
<!-- Generator: Adobe Illustrator 18.0.0, SVG Export Plug-In . SVG Version: 6.00 Build 0)  -->
<!DOCTYPE svg PUBLIC "-//W3C//DTD SVG 1.1//EN" "http://www.w3.org/Graphics/SVG/1.1/DTD/svg11.dtd">
<svg version="1.1" id="Capa_1" xmlns="http://www.w3.org/2000/svg" xmlns:xlink="http://www.w3.org/1999/xlink" x="0px" y="0px"
	 viewBox="0 0 1000 1000" style="enable-background:new 0 0 1000 1000;" xml:space="preserve">
<path style="fill:#211915;stroke:#000000;stroke-miterlimit:10;" d="M798.73,604.805c16.443-25.187,19.034-56.664,6.932-84.2
	L605.635,65.472l-0.103-0.233l-0.104-0.233c-7.217-16.101-18.841-29.436-33.614-38.562c-13.636-8.424-29.381-12.876-45.532-12.876
	c-23.823,0-46.881,9.8-63.261,26.888c-16.418,17.127-24.9,39.788-23.884,63.808l0.002,0.041l0.002,0.041l10.916,251.046H275.591
	c-30.111,0-57.902,15.062-74.339,40.292s-18.988,56.736-6.822,84.281l199.958,452.72l0.093,0.21l0.094,0.21
	c7.227,16.075,18.849,29.387,33.612,38.496c13.627,8.409,29.359,12.854,45.494,12.854c23.826,0,46.886-9.803,63.267-26.895
	c16.419-17.131,24.899-39.796,23.878-63.818l-0.002-0.045l-0.002-0.045L549.931,645.03h174.504
	C754.513,645.028,782.287,629.992,798.73,604.805z M494.547,575.028c-9.666,0-17.384,8.053-16.974,17.71l13.316,303.975
	c0.472,11.095-8.352,17.739-17.208,17.739c-6.064,0-12.143-3.116-15.261-10.052L258.462,451.68
	c-5.467-12.378,3.597-26.291,17.129-26.291h229.831c9.664,0,17.382-8.051,16.974-17.707l-13.322-306.38
	c-0.469-11.096,8.354-17.737,17.208-17.737c6.07,0,12.155,3.122,15.269,10.07l200.027,455.133
	c5.439,12.375-3.625,26.259-17.143,26.259H494.547V575.028z"/>
</svg>
