<?xml version="1.0" encoding="iso-8859-1"?>
<!-- Generator: Adobe Illustrator 18.0.0, SVG Export Plug-In . SVG Version: 6.00 Build 0)  -->
<!DOCTYPE svg PUBLIC "-//W3C//DTD SVG 1.1//EN" "http://www.w3.org/Graphics/SVG/1.1/DTD/svg11.dtd">
<svg version="1.1" id="Capa_1" xmlns="http://www.w3.org/2000/svg" xmlns:xlink="http://www.w3.org/1999/xlink" x="0px" y="0px"
	 viewBox="0 0 1000 1000" style="enable-background:new 0 0 1000 1000;" xml:space="preserve">
<path style="fill:#211915;stroke:#000000;stroke-miterlimit:10;" d="M176,101v794.448c0,13.374,2.71,26.3,8.057,38.419
	c5.091,11.542,12.333,21.805,21.525,30.504c17.8,16.846,41.07,26.123,65.524,26.123c20.91,0,40.812-6.76,57.556-19.547L500,840.082
	l171.336,130.863c16.743,12.788,36.646,19.548,57.557,19.548c24.454,0,47.724-9.277,65.524-26.124
	c9.191-8.699,16.433-18.961,21.524-30.502c5.347-12.12,8.058-25.046,8.058-38.421V101c0-52.383-42.617-95-95-95H271
	C218.617,6,176,48.617,176,101z M754,101v794.448c0,14.822-12.161,25.046-25.106,25.046c-5.136,0-10.395-1.609-15.068-5.178
	L515.175,763.59c-4.48-3.421-9.827-5.132-15.175-5.132s-10.695,1.711-15.175,5.132l-198.65,151.725
	c-4.672,3.569-9.933,5.178-15.068,5.178c-12.947,0-25.106-10.223-25.106-25.046V101c0-13.807,11.193-25,25-25h458
	C742.807,76,754,87.193,754,101z"/>
</svg>
