<?xml version="1.0" encoding="iso-8859-1"?>
<!-- Generator: Adobe Illustrator 18.0.0, SVG Export Plug-In . SVG Version: 6.00 Build 0)  -->
<!DOCTYPE svg PUBLIC "-//W3C//DTD SVG 1.1//EN" "http://www.w3.org/Graphics/SVG/1.1/DTD/svg11.dtd">
<svg version="1.1" id="Capa_1" xmlns="http://www.w3.org/2000/svg" xmlns:xlink="http://www.w3.org/1999/xlink" x="0px" y="0px"
	 viewBox="0 0 1000 1000" style="enable-background:new 0 0 1000 1000;" xml:space="preserve">
<g>
	<path style="fill:#211915;stroke:#000000;stroke-miterlimit:10;" d="M852.719,9.029h-0.003
		c-14.219,0.001-28.525,3.334-41.369,9.638l-286.159,140.46c-6.142,3.015-11.896,6.679-17.188,10.901
		c-5.293-4.222-11.047-7.886-17.19-10.901L204.655,18.668c-12.849-6.307-27.156-9.639-41.377-9.639
		c-51.792,0-93.927,42.146-93.927,93.951v621.144c0,17.577,4.913,34.752,14.209,49.67c9.296,14.918,22.55,26.897,38.33,34.642
		l363.993,178.665c13.95,6.848,30.286,6.848,44.236,0l363.995-178.665c15.778-7.744,29.032-19.723,38.328-34.642
		c9.296-14.917,14.209-32.093,14.209-49.67V102.98c0-51.805-42.136-93.951-93.927-93.951C852.724,9.029,852.719,9.029,852.719,9.029
		z M472.651,243.438v634.588c0,11.347-11.898,18.761-22.084,13.761l-297.836-146.19c-8.19-4.02-13.381-12.35-13.381-21.473V102.98
		c0-13.854,11.368-23.951,23.928-23.951c3.492,0,7.076,0.78,10.533,2.478c0,0,286.022,140.392,286.157,140.458
		C468.755,226.278,472.651,233.842,472.651,243.438z M876.65,102.98v621.144c0,9.124-5.19,17.453-13.381,21.473L565.433,891.788
		c-10.186,5-22.084-2.415-22.084-13.761c0,0,0-633.808,0-634.588c0-9.244,3.929-17.177,12.683-21.474L842.189,81.507
		c3.458-1.697,7.042-2.478,10.533-2.478C865.282,79.029,876.65,89.126,876.65,102.98z"/>
	<path style="fill:#211915;stroke:#000000;stroke-miterlimit:10;" d="M410.45,334.677l-175.217-86.005
		c-17.353-8.517-38.323-1.354-46.841,15.997c-8.518,17.353-1.355,38.323,15.997,46.841l175.217,86.005
		c4.962,2.436,10.218,3.589,15.396,3.589c12.93,0,25.364-7.195,31.445-19.586C434.965,364.165,427.803,343.194,410.45,334.677z"/>
	<path style="fill:#211915;stroke:#000000;stroke-miterlimit:10;" d="M410.45,575.269l-175.217-86.005
		c-17.353-8.518-38.323-1.354-46.841,15.997c-8.518,17.353-1.355,38.323,15.997,46.841l175.217,86.005
		c4.962,2.436,10.218,3.589,15.396,3.589c12.93,0,25.364-7.195,31.445-19.586C434.965,604.757,427.803,583.786,410.45,575.269z"/>
	<path style="fill:#211915;stroke:#000000;stroke-miterlimit:10;" d="M780.767,248.672L605.55,334.677
		c-17.353,8.518-24.515,29.488-15.997,46.841c6.082,12.392,18.514,19.586,31.445,19.586c5.177,0,10.435-1.153,15.396-3.589
		l175.217-86.005c17.353-8.518,24.515-29.488,15.997-46.841C819.091,247.317,798.119,240.152,780.767,248.672z"/>
	<path style="fill:#211915;stroke:#000000;stroke-miterlimit:10;" d="M780.767,489.264L605.55,575.269
		c-17.353,8.518-24.515,29.488-15.997,46.841c6.082,12.392,18.514,19.586,31.445,19.586c5.177,0,10.435-1.153,15.396-3.589
		l175.217-86.005c17.353-8.518,24.515-29.488,15.997-46.841C819.091,487.909,798.119,480.743,780.767,489.264z"/>
</g>
</svg>
