<?xml version="1.0" encoding="iso-8859-1"?>
<!-- Generator: Adobe Illustrator 18.0.0, SVG Export Plug-In . SVG Version: 6.00 Build 0)  -->
<!DOCTYPE svg PUBLIC "-//W3C//DTD SVG 1.1//EN" "http://www.w3.org/Graphics/SVG/1.1/DTD/svg11.dtd">
<svg version="1.1" id="Capa_1" xmlns="http://www.w3.org/2000/svg" xmlns:xlink="http://www.w3.org/1999/xlink" x="0px" y="0px"
	 viewBox="0 0 1000 1000" style="enable-background:new 0 0 1000 1000;" xml:space="preserve">
<path style="stroke:#000000;stroke-miterlimit:10;" d="M327.016,271.321c-40.291,14.997-75.906,41.063-102.638,75.605
	c-34.944,45.153-51.941,101.374-47.897,158.385l22.163,398.366l0.035,0.637l0.047,0.636c1.735,23.463,12.184,45.203,29.422,61.214
	c17.239,16.012,39.69,24.83,63.218,24.83h417.266c23.528,0,45.979-8.818,63.218-24.83c17.238-16.011,27.687-37.751,29.422-61.214
	l0.047-0.636l0.035-0.637l22.163-398.366c4.044-57.01-12.952-113.231-47.897-158.385c-26.732-34.542-62.346-60.608-102.638-75.605
	V204v-19.644c21.295-17.436,34.911-43.919,34.911-73.525c0-52.383-42.617-95-95-95H387.106c-52.383,0-95,42.617-95,95
	c0,29.606,13.615,56.089,34.911,73.525V204v67.321H327.016z M362.106,110.831c0-13.807,11.193-25,25-25h225.789
	c13.807,0,25,11.193,25,25c0,10.484-6.456,19.455-15.607,23.169c-2.901,1.177-6.07,1.831-9.393,1.831H387.106
	c-3.323,0-6.492-0.654-9.393-1.831C368.562,130.286,362.106,121.315,362.106,110.831z M397.016,305.252v-99.421h205.968v99.421
	c0,11.904,8.377,22.24,20.063,24.504c78.931,15.291,136.774,87.712,130.611,171.089l-22.195,398.944
	c-0.884,11.956-10.842,21.205-22.83,21.205H291.367c-11.988,0-21.946-9.249-22.83-21.205l-22.195-398.944
	c-6.163-83.376,51.68-155.798,130.611-171.089C388.639,327.492,397.016,317.156,397.016,305.252z"/>
<path style="stroke:#000000;stroke-miterlimit:10;" d="M363.933,714.625c17.65,17.65,38.221,31.515,61.144,41.21
	c23.769,10.053,48.976,15.151,74.923,15.151s51.155-5.097,74.923-15.151c22.923-9.695,43.494-23.56,61.144-41.21
	c17.65-17.649,31.515-38.221,41.21-61.144c10.053-23.769,15.151-48.976,15.151-74.923s-5.097-51.155-15.151-74.923
	c-9.695-22.923-23.561-43.494-41.21-61.144c-17.65-17.65-38.221-31.515-61.144-41.21C551.154,391.228,525.947,386.13,500,386.13
	s-51.155,5.097-74.923,15.151c-22.923,9.695-43.494,23.561-61.144,41.21c-17.65,17.65-31.515,38.221-41.21,61.144
	c-10.053,23.769-15.151,48.976-15.151,74.923s5.097,51.155,15.151,74.923C332.418,676.404,346.283,696.976,363.933,714.625z
	 M500,456.131c67.615,0,122.428,54.813,122.428,122.428S567.615,700.987,500,700.987s-122.428-54.813-122.428-122.428
	C377.572,510.943,432.385,456.131,500,456.131z"/>
</svg>
