<?xml version="1.0" encoding="iso-8859-1"?>
<!-- Generator: Adobe Illustrator 18.0.0, SVG Export Plug-In . SVG Version: 6.00 Build 0)  -->
<!DOCTYPE svg PUBLIC "-//W3C//DTD SVG 1.1//EN" "http://www.w3.org/Graphics/SVG/1.1/DTD/svg11.dtd">
<svg version="1.1" id="Capa_1" xmlns="http://www.w3.org/2000/svg" xmlns:xlink="http://www.w3.org/1999/xlink" x="0px" y="0px"
	 viewBox="0 0 1000 1000" style="enable-background:new 0 0 1000 1000;" xml:space="preserve">
<path style="stroke:#000000;stroke-miterlimit:10;" d="M895.465,344.7H734.312l174.493-110.783
	c16.318-10.36,21.148-31.988,10.788-48.308c-10.36-16.318-31.985-21.149-48.308-10.788L603.712,344.7H105.38
	c-26.599,0-52.146,11.261-70.089,30.896c-17.979,19.675-26.917,46.196-24.52,72.765c7.056,78.21,38.852,153.032,91.95,216.378
	c40.997,48.909,93.59,89.669,153.84,119.513c7.692,44.716,46.749,78.846,93.626,78.846h300.468c46.877,0,85.934-34.13,93.626-78.846
	c60.25-29.844,112.844-70.604,153.841-119.513c53.099-63.345,84.895-138.168,91.95-216.378c2.397-26.568-6.54-53.09-24.52-72.765
	C947.61,355.961,922.064,344.7,895.465,344.7z M675.656,768.098c0,13.807-11.193,25-25,25H350.188c-13.807,0-25-11.193-25-25
	v-30.061c-135.81-52.521-232.812-164.199-244.7-295.966C79.164,427.388,90.637,414.7,105.38,414.7h790.085
	c14.743,0,26.216,12.688,24.892,27.371c-11.888,131.767-108.89,243.445-244.7,295.966v30.061H675.656z"/>
</svg>
