<?xml version="1.0" encoding="iso-8859-1"?>
<!-- Generator: Adobe Illustrator 18.0.0, SVG Export Plug-In . SVG Version: 6.00 Build 0)  -->
<!DOCTYPE svg PUBLIC "-//W3C//DTD SVG 1.1//EN" "http://www.w3.org/Graphics/SVG/1.1/DTD/svg11.dtd">
<svg version="1.1" id="Capa_1" xmlns="http://www.w3.org/2000/svg" xmlns:xlink="http://www.w3.org/1999/xlink" x="0px" y="0px"
	 viewBox="0 0 1000 1000" style="enable-background:new 0 0 1000 1000;" xml:space="preserve">
<g>
	<path style="fill:#211915;stroke:#000000;stroke-miterlimit:10;" d="M41.034,672.464l46.364,37.87
		c16.281,13.299,36.821,20.623,57.835,20.623c27.577,0,53.396-12.247,70.835-33.599l80.975-99.135L510.12,772.266
		c3.443,2.812,7.121,5.27,10.976,7.355c14.142,8.474,30.444,13.044,47.042,13.044c27.576,0,53.394-12.246,70.833-33.597
		l197.604-241.921l2.801,2.288c16.545,13.515,37.341,20.959,58.556,20.959c24.511,0,48.516-9.961,65.859-27.33
		c17.446-17.472,27.034-40.768,26.998-65.595l-0.308-204.418c-0.002-1.947-0.05-4.919-0.412-8.555
		c-2.192-22.042-12.481-42.361-28.969-57.195c-16.341-14.701-37.429-22.798-59.379-22.798c-2.908,0-5.852,0.145-8.752,0.432
		c-3.958,0.39-7.137,1.001-9.183,1.427l-201.949,42.002c-17.681,3.677-33.694,12.345-46.308,25.067
		c-11.675,11.775-19.938,26.551-23.896,42.731s-3.45,33.103,1.471,48.937c5.316,17.108,15.52,32.19,29.507,43.614l3.768,3.078
		L546.232,484.4L334.94,312.384c-16.792-13.671-37.961-21.201-59.606-21.203c-28.506-0.002-55.188,12.664-73.202,34.75
		L27.63,539.851C11.729,559.319,4.348,583.857,6.874,608.91C9.4,633.964,21.531,656.535,41.034,672.464z M81.872,584.099
		l174.506-213.925c4.831-5.923,11.862-8.994,18.953-8.993c5.423,0,10.882,1.797,15.416,5.488L539.605,569.27
		c3.982,3.253,8.782,4.837,13.553,4.837c6.216,0,12.381-2.689,16.621-7.879l161.53-197.757c7.493-9.172,6.131-22.681-3.042-30.174
		l-41.374-33.795c-13.973-11.413-8.465-33.929,9.199-37.603l201.956-42.004c0.598-0.125,1.2-0.239,1.809-0.299
		c0.627-0.062,1.249-0.092,1.866-0.092c9.535,0,17.73,7.251,18.694,16.94c0.057,0.568,0.066,1.141,0.066,1.712l0.308,204.416
		c0.02,13.555-11.091,22.821-22.858,22.821c-4.896,0-9.906-1.605-14.274-5.173l-40.406-33.003
		c-3.982-3.253-8.782-4.837-13.553-4.837c-6.216,0-12.382,2.689-16.621,7.879l-228.32,279.527c-4.24,5.19-10.404,7.879-16.62,7.879
		c-4.77,0-9.571-1.584-13.553-4.837l-0.183,0.224l-248.494-202.97c-4.508-3.682-9.94-5.474-15.34-5.474
		c-7.036,0-14.014,3.044-18.812,8.918L161.853,653.078c-4.239,5.19-10.403,7.879-16.62,7.879c-4.77,0-9.571-1.584-13.553-4.837
		l-46.364-37.87C74.934,609.771,73.392,594.48,81.872,584.099z"/>
</g>
</svg>
