<?xml version="1.0" encoding="iso-8859-1"?>
<!-- Generator: Adobe Illustrator 18.0.0, SVG Export Plug-In . SVG Version: 6.00 Build 0)  -->
<!DOCTYPE svg PUBLIC "-//W3C//DTD SVG 1.1//EN" "http://www.w3.org/Graphics/SVG/1.1/DTD/svg11.dtd">
<svg version="1.1" id="Capa_1" xmlns="http://www.w3.org/2000/svg" xmlns:xlink="http://www.w3.org/1999/xlink" x="0px" y="0px"
	 viewBox="0 0 1000 1000" style="enable-background:new 0 0 1000 1000;" xml:space="preserve">
<g>
	<circle style="fill:#211915;stroke:#000000;stroke-miterlimit:10;" cx="837.535" cy="168.744" r="34.667"/>
	<circle style="fill:#211915;stroke:#000000;stroke-miterlimit:10;" cx="734.201" cy="168.744" r="34.667"/>
	<circle style="fill:#211915;stroke:#000000;stroke-miterlimit:10;" cx="630.868" cy="168.744" r="34.667"/>
	<path style="fill:#211915;stroke:#000000;stroke-miterlimit:10;" d="M981.45,873V125.128c0-52.383-42.617-95-95-95H110.736
		c-52.383,0-95,42.617-95,95V873c0,52.383,42.617,95,95,95H886.45C938.833,968,981.45,925.383,981.45,873z M85.736,125.128
		c0-13.807,11.193-25,25-25H886.45c13.807,0,25,11.193,25,25v107H85.736V125.128z M85.736,873V302.128H911.45V873
		c0,13.807-11.193,25-25,25H110.736C96.929,898,85.736,886.807,85.736,873z"/>
</g>
</svg>
