<?xml version="1.0" encoding="iso-8859-1"?>
<!-- Generator: Adobe Illustrator 18.0.0, SVG Export Plug-In . SVG Version: 6.00 Build 0)  -->
<!DOCTYPE svg PUBLIC "-//W3C//DTD SVG 1.1//EN" "http://www.w3.org/Graphics/SVG/1.1/DTD/svg11.dtd">
<svg version="1.1" id="Capa_1" xmlns="http://www.w3.org/2000/svg" xmlns:xlink="http://www.w3.org/1999/xlink" x="0px" y="0px"
	 viewBox="0 0 1000 1000" style="enable-background:new 0 0 1000 1000;" xml:space="preserve">
<path style="stroke:#000000;stroke-miterlimit:10;" d="M13.857,367.447c0,52.383,42.617,95,95,95h56.475l294.953,391.314
	c8.807,11.685,20.384,21.312,33.479,27.84s27.751,9.979,42.384,9.979h352.708c52.383,0,95-42.617,95-95v-37.195
	c0-52.383-42.617-95-95-95H617.003L322.051,273.07c-8.807-11.685-20.384-21.312-33.479-27.84
	c-13.096-6.528-27.751-9.979-42.384-9.979H108.857c-52.383,0-95,42.617-95,95C13.857,330.251,13.857,367.447,13.857,367.447z
	 M83.857,330.252c0-13.807,11.193-25,25-25h137.331c7.848,0,15.24,3.685,19.964,9.952l308.455,409.228
	c4.724,6.267,12.116,9.952,19.964,9.952h294.287c13.807,0,25,11.193,25,25v37.195c0,13.807-11.193,25-25,25H536.149
	c-7.848,0-15.241-3.685-19.964-9.952L207.729,402.399c-4.724-6.267-12.116-9.952-19.964-9.952h-78.908c-13.807,0-25-11.193-25-25
	V330.252z"/>
<path style="stroke:#000000;stroke-miterlimit:10;" d="M888.821,230.431h-0.003h-0.006l-310.605,0.123
	c-25.497,0.01-49.43,9.982-67.39,28.079c-17.961,18.097-27.752,42.104-27.57,67.599l0.001,0.203l0.003,0.203l0.479,37.035
	c0.243,25.156,10.203,48.761,28.062,66.493c17.916,17.788,41.687,27.584,66.933,27.584l310.039-0.123
	c25.343-0.01,49.174-9.88,67.104-27.791c17.929-17.911,27.823-41.732,27.859-67.075l0.093-37.119v-0.04v-0.04
	c0.035-25.401-9.831-49.288-27.779-67.26C938.091,240.329,914.219,230.431,888.821,230.431z M913.725,362.66
	c-0.02,13.79-11.201,24.96-24.99,24.965l-310.001,0.123c-0.003,0-0.007,0-0.01,0c-13.736,0-24.901-11.084-24.999-24.821
	l-0.48-37.195c-0.099-13.873,11.117-25.173,24.99-25.179l310.574-0.123c0.002,0,0.008,0,0.01,0c13.82-0.001,25.019,11.213,25,25.035
	L913.725,362.66z"/>
</svg>
