<?xml version="1.0" encoding="iso-8859-1"?>
<!-- Generator: Adobe Illustrator 18.0.0, SVG Export Plug-In . SVG Version: 6.00 Build 0)  -->
<!DOCTYPE svg PUBLIC "-//W3C//DTD SVG 1.1//EN" "http://www.w3.org/Graphics/SVG/1.1/DTD/svg11.dtd">
<svg version="1.1" id="Capa_1" xmlns="http://www.w3.org/2000/svg" xmlns:xlink="http://www.w3.org/1999/xlink" x="0px" y="0px"
	 viewBox="0 0 1000 1000" style="enable-background:new 0 0 1000 1000;" xml:space="preserve">
<path style="fill:#211915;stroke:#000000;stroke-miterlimit:10;" d="M902.263,78.026c-10.837-41.943-48.66-71.237-91.979-71.237
	H187.918c-43.695,0-81.599,29.61-92.175,72.007L46.162,277.557c-1.874,7.516-2.824,15.251-2.824,22.993v487.812
	c0,52.383,42.617,95,95,95h20.342v14.781c0,52.383,42.617,95,95,95h14.881c52.383,0,95-42.617,95-95v-14.781H636.44v14.781
	c0,52.383,42.617,95,95,95h14.881c52.383,0,95-42.617,95-95v-14.781h20.342c52.383,0,95-42.617,95-95V300.656
	c0-8.009-1.016-16.001-3.018-23.757L902.263,78.026z M886.662,788.362c0,13.807-11.193,25-25,25h-26.637h-192.29h-285.47h-192.29
	h-26.637c-13.807,0-25-11.193-25-25V300.55c0-2.04,0.25-4.072,0.743-6.051l49.581-198.761c2.778-11.135,12.78-18.949,24.257-18.949
	h622.366c11.398,0,21.354,7.711,24.205,18.747l51.379,198.866c0.528,2.043,0.795,4.144,0.795,6.254v487.706H886.662z
	 M293.561,898.144c0,13.807-11.193,25-25,25H253.68c-13.807,0-25-11.193-25-25v-14.781h64.881L293.561,898.144L293.561,898.144z
	 M771.32,898.144c0,13.807-11.193,25-25,25h-14.88c-13.807,0-25-11.193-25-25v-14.781h64.881L771.32,898.144L771.32,898.144z"/>
<path style="fill:#211915;stroke:#000000;stroke-miterlimit:10;" d="M828.377,271.511c-10.784-42.035-48.624-71.393-92.021-71.393
	H262.02c-21.615,0-42.786,7.47-59.615,21.033c-16.829,13.564-28.626,32.666-33.217,53.787l-8.34,38.369
	c-1.438,6.614-2.168,13.405-2.168,20.179V557.38c0,52.383,42.617,95,95,95h492.64c52.383,0,95-42.617,95-95V333.956
	c0-7.957-1.003-15.9-2.98-23.608L828.377,271.511z M771.32,557.38c0,13.808-11.193,25-25,25H253.68c-13.807,0-25-11.192-25-25
	V333.486c0-1.785,0.191-3.565,0.571-5.31l8.34-38.369c2.498-11.492,12.669-19.689,24.43-19.689h474.337
	c11.415,0,21.38,7.73,24.216,18.787l9.964,38.839c0.521,2.029,0.784,4.117,0.784,6.212V557.38H771.32z"/>
<path style="fill:#211915;stroke:#000000;stroke-miterlimit:10;" d="M325.018,171.129h349.964c19.33,0,35-15.67,35-35
	s-15.67-35-35-35H325.018c-19.33,0-35,15.67-35,35S305.688,171.129,325.018,171.129z"/>
<path style="fill:#211915;stroke:#000000;stroke-miterlimit:10;" d="M300.018,699.481h-18.813c-13.807,0-25,11.192-25,25v18.812
	c0,3.2,0.608,6.256,1.703,9.068c3.632,9.322,12.689,15.932,23.297,15.932h18.813c5.203,0,10.034-1.591,14.035-4.311
	c6.617-4.497,10.965-12.085,10.965-20.689v-18.812C325.018,710.674,313.825,699.481,300.018,699.481z"/>
<path style="fill:#211915;stroke:#000000;stroke-miterlimit:10;" d="M718.795,699.481h-18.813c-13.807,0-25,11.192-25,25v18.812
	c0,8.604,4.347,16.192,10.965,20.689c4.001,2.72,8.832,4.311,14.035,4.311h18.813c10.607,0,19.665-6.609,23.297-15.932
	c1.095-2.812,1.703-5.868,1.703-9.068v-18.812C743.795,710.674,732.602,699.481,718.795,699.481z"/>
</svg>
