<?xml version="1.0" encoding="iso-8859-1"?>
<!-- Generator: Adobe Illustrator 18.0.0, SVG Export Plug-In . SVG Version: 6.00 Build 0)  -->
<!DOCTYPE svg PUBLIC "-//W3C//DTD SVG 1.1//EN" "http://www.w3.org/Graphics/SVG/1.1/DTD/svg11.dtd">
<svg version="1.1" id="Capa_1" xmlns="http://www.w3.org/2000/svg" xmlns:xlink="http://www.w3.org/1999/xlink" x="0px" y="0px"
	 viewBox="0 0 1000 1000" style="enable-background:new 0 0 1000 1000;" xml:space="preserve">
<g>
	<path style="fill:#211915;stroke:#000000;stroke-miterlimit:10;" d="M391.342,299.247c-15.63-12.723-35.33-19.73-55.474-19.732
		c-26.527-0.002-51.358,11.785-68.123,32.34L140.021,468.43c-14.802,18.12-21.674,40.965-19.321,64.291
		c2.352,23.324,13.646,44.337,31.802,59.167l33.936,27.719c15.259,12.463,34.508,19.327,54.202,19.327
		c25.841,0,50.035-11.476,66.379-31.486l47.398-58.029l141.427,115.519c3.481,2.844,7.156,5.297,10.968,7.365
		c13.085,7.668,28.094,11.798,43.369,11.798c25.84,0,50.033-11.475,66.377-31.483L750.28,488.906
		c12.63,6.868,26.853,10.548,41.291,10.548c22.885,0,45.295-9.298,61.482-25.51c16.315-16.339,25.281-38.108,25.248-61.297
		l-0.226-149.623c-0.003-2.793-0.129-5.416-0.385-8.014c-0.003-0.023-0.005-0.047-0.008-0.07
		c-2.072-20.809-11.777-39.973-27.327-53.963c-15.411-13.865-35.304-21.5-56.011-21.5c-2.753,0-5.537,0.138-8.275,0.409
		c-2.824,0.279-5.669,0.719-8.67,1.344l-147.818,30.744c-16.559,3.444-31.565,11.573-43.398,23.508
		c-10.943,11.036-18.686,24.878-22.393,40.028c-3.706,15.15-3.228,31.003,1.384,45.845c3.473,11.176,9.163,21.426,16.721,30.233
		l-50.429,61.738L391.342,299.247z M551.382,499.597l118.23-144.746c5.484-6.714,4.487-16.602-2.227-22.085l-30.284-24.736
		c-10.227-8.354-6.195-24.834,6.733-27.523l147.819-30.744c0.438-0.091,0.879-0.175,1.324-0.219
		c0.459-0.045,0.914-0.068,1.366-0.068c6.979,0,12.977,5.307,13.683,12.399c0.041,0.416,0.048,0.836,0.048,1.254l0.226,149.62
		c0.015,9.921-8.118,16.704-16.73,16.704c-3.584,0-7.251-1.175-10.448-3.786l-29.574-24.157c-2.915-2.381-6.429-3.54-9.92-3.54
		c-4.55,0-9.063,1.969-12.166,5.767L562.346,608.333c-3.104,3.799-7.615,5.767-12.165,5.767c-3.491,0-7.005-1.159-9.92-3.54
		l-0.135,0.164L358.245,462.161c-3.3-2.695-7.276-4.007-11.228-4.007c-5.15,0-10.258,2.228-13.77,6.527l-80.443,98.485
		c-3.103,3.799-7.615,5.767-12.165,5.767c-3.491,0-7.005-1.159-9.92-3.54l-33.936-27.719c-7.599-6.207-8.728-17.399-2.521-24.997
		l127.728-156.58c3.536-4.335,8.682-6.583,13.872-6.583c3.97,0,7.966,1.315,11.284,4.016l182.149,148.292
		c2.915,2.381,6.428,3.541,9.92,3.541C543.766,505.364,548.279,503.395,551.382,499.597z"/>
	<path style="fill:#211915;stroke:#000000;stroke-miterlimit:10;" d="M959.782,62.118H526V43.427c0-19.33-15.67-35-35-35
		s-35,15.67-35,35v18.691H40.218c-19.33,0-35,15.67-35,35v667.965c0,19.33,15.67,35,35,35h919.564c19.33,0,35-15.67,35-35V97.118
		C994.782,77.788,979.112,62.118,959.782,62.118z M924.782,730.083H75.218V132.118H491h433.782V730.083z"/>
	<path style="fill:#211915;stroke:#000000;stroke-miterlimit:10;" d="M959.782,839.079H39.94c-19.33,0-35,15.67-35,35
		s15.67,35,35,35h119.662l-19.236,27.367c-11.116,15.814-7.308,37.645,8.507,48.761c6.121,4.303,13.143,6.369,20.097,6.369
		c11.011,0,21.852-5.183,28.664-14.876l47.531-67.621h509.636l47.405,67.591c6.812,9.711,17.661,14.906,28.686,14.906
		c6.941,0,13.952-2.06,20.066-6.348c15.826-11.099,19.657-32.926,8.559-48.752l-19.215-27.397h119.48c19.33,0,35-15.67,35-35
		S979.112,839.079,959.782,839.079z"/>
</g>
</svg>
