<?xml version="1.0" encoding="iso-8859-1"?>
<!-- Generator: Adobe Illustrator 18.0.0, SVG Export Plug-In . SVG Version: 6.00 Build 0)  -->
<!DOCTYPE svg PUBLIC "-//W3C//DTD SVG 1.1//EN" "http://www.w3.org/Graphics/SVG/1.1/DTD/svg11.dtd">
<svg version="1.1" id="Capa_1" xmlns="http://www.w3.org/2000/svg" xmlns:xlink="http://www.w3.org/1999/xlink" x="0px" y="0px"
	 viewBox="0 0 1000 1000" style="enable-background:new 0 0 1000 1000;" xml:space="preserve">
<g>
	<path style="fill:#211915;stroke:#000000;stroke-miterlimit:10;" d="M203.542,621.242c18.008,22.08,44.688,34.746,73.195,34.746
		c21.646,0,42.815-7.53,59.609-21.202l211.292-172.018l100.146,122.608l-3.769,3.079c-13.986,11.424-24.189,26.506-29.506,43.614
		c-4.921,15.835-5.43,32.757-1.471,48.937c3.958,16.181,12.222,30.957,23.896,42.731c12.614,12.722,28.627,21.39,46.308,25.067
		l201.955,42.004c2.075,0.431,5.242,1.038,9.191,1.427c2.886,0.285,5.83,0.43,8.737,0.43c21.951,0,43.039-8.096,59.379-22.798
		c16.486-14.832,26.774-35.149,28.971-57.208c0.361-3.624,0.409-6.595,0.411-8.542l0.307-204.416
		c0.037-24.826-9.55-48.122-26.997-65.595c-17.343-17.369-41.348-27.331-65.858-27.331c-21.216,0-42.012,7.444-58.559,20.96
		l-2.8,2.287L640.377,188.1c-17.439-21.351-43.257-33.597-70.833-33.597c-16.498,0-32.702,4.514-46.784,12.89
		c-3.908,2.098-7.671,4.598-11.234,7.509L298.449,348.946l-80.977-99.137c-17.439-21.351-43.258-33.597-70.833-33.597
		c-21.015,0-41.555,7.324-57.836,20.624l-46.363,37.87C2.183,307.588-3.818,367.093,29.063,407.352L203.542,621.242z
		 M86.723,328.919l46.363-37.87c3.982-3.253,8.784-4.837,13.554-4.837c6.217,0,12.381,2.689,16.62,7.879l109.904,134.553
		c4.798,5.874,11.776,8.918,18.812,8.918c5.399,0,10.832-1.792,15.34-5.474l248.492-202.971l0.184,0.224
		c3.981-3.252,8.783-4.837,13.553-4.837c6.217,0,12.381,2.689,16.62,7.879l228.32,279.527c4.239,5.19,10.405,7.879,16.621,7.879
		c4.771,0,9.57-1.583,13.553-4.837l40.406-33.004c4.368-3.568,9.378-5.172,14.273-5.173c11.767,0,22.878,9.267,22.857,22.821
		l-0.307,204.416c0,0.571-0.01,1.144-0.066,1.712c-0.965,9.69-9.159,16.94-18.694,16.94c-0.617,0-1.239-0.03-1.866-0.092
		c-0.608-0.06-1.21-0.175-1.809-0.299l-201.955-42.004c-17.664-3.674-23.172-26.189-9.199-37.603l41.374-33.795
		c9.173-7.492,10.535-21.001,3.042-30.174L571.186,380.942c-4.239-5.19-10.405-7.879-16.621-7.879c-4.771,0-9.57,1.584-13.553,4.837
		L292.153,580.501c-4.533,3.69-9.993,5.488-15.416,5.488c-7.092,0-14.122-3.07-18.953-8.993L83.278,363.071
		C74.799,352.689,76.341,337.398,86.723,328.919z"/>
</g>
</svg>
