<?xml version="1.0" encoding="iso-8859-1"?>
<!-- Generator: Adobe Illustrator 18.0.0, SVG Export Plug-In . SVG Version: 6.00 Build 0)  -->
<!DOCTYPE svg PUBLIC "-//W3C//DTD SVG 1.1//EN" "http://www.w3.org/Graphics/SVG/1.1/DTD/svg11.dtd">
<svg version="1.1" id="Capa_1" xmlns="http://www.w3.org/2000/svg" xmlns:xlink="http://www.w3.org/1999/xlink" x="0px" y="0px"
	 viewBox="0 0 1000 1000" style="enable-background:new 0 0 1000 1000;" xml:space="preserve">
<g>
	<path style="fill:#211915;stroke:#000000;stroke-miterlimit:10;" d="M307.019,257.7c-16.344-20.009-40.538-31.485-66.379-31.485
		c-19.694,0-38.943,6.864-54.201,19.326l-33.937,27.719c-18.155,14.83-29.45,35.843-31.802,59.167
		c-2.353,23.325,4.52,46.17,19.351,64.326l127.698,156.545c16.759,20.548,41.587,32.335,68.114,32.335
		c20.146,0,39.848-7.007,55.477-19.73l140.126-114.08l50.429,61.738c-7.559,8.807-13.248,19.057-16.721,30.233
		c-4.611,14.842-5.09,30.695-1.384,45.845c3.707,15.15,11.45,28.992,22.393,40.028c11.834,11.935,26.841,20.063,43.398,23.507
		L777.4,683.92c3,0.624,5.845,1.065,8.694,1.346c2.713,0.269,5.497,0.407,8.249,0.407c20.708,0,40.599-7.635,56.01-21.499
		c15.552-13.99,25.257-33.155,27.329-53.964c0.003-0.023,0.005-0.047,0.008-0.071c0.256-2.598,0.382-5.22,0.385-8.014l0.226-149.62
		c0.033-23.192-8.933-44.961-25.248-61.3c-16.188-16.212-38.597-25.509-61.481-25.509c-14.44,0.001-28.663,3.682-41.292,10.548
		L616.56,212.533c-16.346-20.01-40.539-31.485-66.379-31.485c-15.271,0-30.274,4.127-43.357,11.791
		c-3.815,2.069-7.494,4.525-10.979,7.372L354.418,315.73L307.019,257.7z M540.126,254.425l0.135,0.164
		c2.915-2.381,6.429-3.54,9.92-3.54c4.55,0,9.062,1.968,12.165,5.767l167.116,204.597c3.103,3.799,7.616,5.767,12.166,5.767
		c3.491,0,7.005-1.159,9.92-3.54l29.574-24.157c3.197-2.611,6.864-3.786,10.448-3.786c8.612,0,16.745,6.782,16.73,16.704
		l-0.226,149.62c0,0.418-0.007,0.837-0.048,1.253c-0.706,7.092-6.705,12.399-13.684,12.399c-0.451,0-0.906-0.022-1.365-0.068
		c-0.445-0.044-0.887-0.128-1.324-0.219l-147.819-30.744c-12.929-2.689-16.96-19.169-6.733-27.523l30.284-24.736
		c6.714-5.484,7.711-15.372,2.227-22.085l-118.23-144.746c-3.103-3.799-7.616-5.767-12.166-5.767c-3.491,0-7.004,1.159-9.919,3.54
		l-182.15,148.292c-3.318,2.701-7.314,4.017-11.284,4.017c-5.19,0-10.336-2.247-13.872-6.583l-127.728-156.58
		c-6.207-7.599-5.078-18.791,2.521-24.997l33.936-27.719c2.915-2.381,6.429-3.54,9.92-3.54c4.551,0,9.062,1.968,12.165,5.767
		l80.443,98.485c3.512,4.3,8.62,6.528,13.77,6.528c3.952,0,7.928-1.312,11.228-4.007L540.126,254.425z"/>
	<path style="fill:#211915;stroke:#000000;stroke-miterlimit:10;" d="M959.782,63.691H526V45c0-19.33-15.67-35-35-35
		s-35,15.67-35,35v18.691H40.218c-19.33,0-35,15.67-35,35v667.965c0,19.33,15.67,35,35,35h919.564c19.33,0,35-15.67,35-35V98.691
		C994.782,79.361,979.112,63.691,959.782,63.691z M924.782,731.656H75.218V133.691H491h433.782V731.656z"/>
	<path style="fill:#211915;stroke:#000000;stroke-miterlimit:10;" d="M959.782,840.652H39.94c-19.33,0-35,15.67-35,35
		s15.67,35,35,35h119.662l-19.236,27.367c-11.116,15.814-7.308,37.646,8.507,48.761c6.122,4.303,13.143,6.369,20.097,6.369
		c11.011,0,21.852-5.184,28.664-14.876l47.53-67.621h509.638l47.404,67.591c6.812,9.711,17.661,14.906,28.686,14.906
		c6.941,0,13.952-2.06,20.066-6.348c15.826-11.1,19.657-32.927,8.559-48.752l-19.215-27.397h119.48c19.33,0,35-15.67,35-35
		S979.112,840.652,959.782,840.652z"/>
</g>
</svg>
