<?xml version="1.0" encoding="iso-8859-1"?>
<!-- Generator: Adobe Illustrator 18.0.0, SVG Export Plug-In . SVG Version: 6.00 Build 0)  -->
<!DOCTYPE svg PUBLIC "-//W3C//DTD SVG 1.1//EN" "http://www.w3.org/Graphics/SVG/1.1/DTD/svg11.dtd">
<svg version="1.1" id="Capa_1" xmlns="http://www.w3.org/2000/svg" xmlns:xlink="http://www.w3.org/1999/xlink" x="0px" y="0px"
	 viewBox="0 0 1000 1000" style="enable-background:new 0 0 1000 1000;" xml:space="preserve">
<path style="fill:#211915;stroke:#000000;stroke-miterlimit:10;" d="M853.118,755.169V238.932c0-52.383-42.617-95-95-95H241.882
	c-52.383,0-95,42.617-95,95v516.237c0,52.383,42.617,95,95,95h516.237C810.501,850.169,853.118,807.552,853.118,755.169z
	 M216.882,755.169V238.932c0-13.807,11.193-25,25-25h516.237c13.807,0,25,11.193,25,25v516.237c0,13.807-11.193,25-25,25H241.882
	C228.074,780.169,216.882,768.976,216.882,755.169z"/>
<path style="fill:#211915;stroke:#000000;stroke-miterlimit:10;" d="M982.95,207.592c0-106.691-86.8-193.491-193.492-193.491
	H626.846c-19.33,0-35,15.67-35,35s15.67,35,35,35h162.612c68.094,0,123.492,55.397,123.492,123.491v162.612c0,19.33,15.67,35,35,35
	s35-15.67,35-35V207.592z"/>
<path style="fill:#211915;stroke:#000000;stroke-miterlimit:10;" d="M626.846,980h162.612c106.692,0,193.492-86.8,193.492-193.491
	V623.896c0-19.33-15.67-35-35-35s-35,15.67-35,35v162.612C912.95,854.603,857.552,910,789.458,910H626.846c-19.33,0-35,15.67-35,35
	S607.516,980,626.846,980z"/>
<path style="fill:#211915;stroke:#000000;stroke-miterlimit:10;" d="M17.05,786.509C17.05,893.2,103.85,980,210.542,980h162.612
	c19.33,0,35-15.67,35-35s-15.67-35-35-35H210.542C142.448,910,87.05,854.603,87.05,786.509V623.896c0-19.33-15.67-35-35-35
	s-35,15.67-35,35C17.05,623.896,17.05,786.509,17.05,786.509z"/>
<path style="fill:#211915;stroke:#000000;stroke-miterlimit:10;" d="M17.05,207.592v162.612c0,19.33,15.67,35,35,35s35-15.67,35-35
	V207.592c0-68.094,55.398-123.491,123.492-123.491h162.612c19.33,0,35-15.67,35-35s-15.67-35-35-35H210.542
	C103.85,14.101,17.05,100.9,17.05,207.592z"/>
</svg>
