<?xml version="1.0" encoding="iso-8859-1"?>
<!-- Generator: Adobe Illustrator 18.0.0, SVG Export Plug-In . SVG Version: 6.00 Build 0)  -->
<!DOCTYPE svg PUBLIC "-//W3C//DTD SVG 1.1//EN" "http://www.w3.org/Graphics/SVG/1.1/DTD/svg11.dtd">
<svg version="1.1" id="Capa_1" xmlns="http://www.w3.org/2000/svg" xmlns:xlink="http://www.w3.org/1999/xlink" x="0px" y="0px"
	 viewBox="0 0 1000 1000" style="enable-background:new 0 0 1000 1000;" xml:space="preserve">
<path style="fill:#211915;stroke:#000000;stroke-miterlimit:10;" d="M799.825,6.614H199.089c-52.383,0-95,42.617-95,95v791.05
	c0,52.383,42.617,95,95,95h600.736c52.383,0,95-42.617,95-95v-791.05C894.825,49.231,852.208,6.614,799.825,6.614z M824.825,892.664
	c0,13.807-11.192,25-25,25H199.089c-13.807,0-25-11.193-25-25v-791.05c0-13.807,11.193-25,25-25h600.736c13.808,0,25,11.193,25,25
	V892.664z"/>
<path style="fill:#211915;stroke:#000000;stroke-miterlimit:10;" d="M678.844,117.798H320.071c-52.383,0-95,42.617-95,95v94.03
	c0,52.383,42.617,95,95,95h358.772c52.383,0,95-42.617,95-95v-94.03C773.844,160.415,731.227,117.798,678.844,117.798z
	 M703.844,306.828c0,13.807-11.193,25-25,25H320.071c-13.808,0-25-11.193-25-25v-94.03c0-13.807,11.192-25,25-25h358.772
	c13.807,0,25,11.193,25,25L703.844,306.828L703.844,306.828z"/>
<path style="fill:#211915;stroke:#000000;stroke-miterlimit:10;" d="M325.804,470.139h-61.465c-19.33,0-35,15.67-35,35
	s15.67,35,35,35h61.465c19.33,0,35-15.67,35-35S345.134,470.139,325.804,470.139z"/>
<path style="fill:#211915;stroke:#000000;stroke-miterlimit:10;" d="M530.189,470.139h-61.465c-19.33,0-35,15.67-35,35
	s15.67,35,35,35h61.465c19.33,0,35-15.67,35-35S549.52,470.139,530.189,470.139z"/>
<path style="fill:#211915;stroke:#000000;stroke-miterlimit:10;" d="M734.576,470.139h-61.465c-19.33,0-35,15.67-35,35
	s15.67,35,35,35h61.465c19.33,0,35-15.67,35-35S753.906,470.139,734.576,470.139z"/>
<path style="fill:#211915;stroke:#000000;stroke-miterlimit:10;" d="M325.804,625.653h-61.465c-19.33,0-35,15.67-35,35
	s15.67,35,35,35h61.465c19.33,0,35-15.67,35-35S345.134,625.653,325.804,625.653z"/>
<path style="fill:#211915;stroke:#000000;stroke-miterlimit:10;" d="M530.189,625.653h-61.465c-19.33,0-35,15.67-35,35
	s15.67,35,35,35h61.465c19.33,0,35-15.67,35-35S549.52,625.653,530.189,625.653z"/>
<path style="fill:#211915;stroke:#000000;stroke-miterlimit:10;" d="M734.576,625.653h-61.465c-19.33,0-35,15.67-35,35
	s15.67,35,35,35h61.465c19.33,0,35-15.67,35-35S753.906,625.653,734.576,625.653z"/>
<path style="fill:#211915;stroke:#000000;stroke-miterlimit:10;" d="M325.804,781.167h-61.465c-19.33,0-35,15.67-35,35
	s15.67,35,35,35h61.465c19.33,0,35-15.67,35-35S345.134,781.167,325.804,781.167z"/>
<path style="fill:#211915;stroke:#000000;stroke-miterlimit:10;" d="M530.189,781.167h-61.465c-19.33,0-35,15.67-35,35
	s15.67,35,35,35h61.465c19.33,0,35-15.67,35-35S549.52,781.167,530.189,781.167z"/>
<path style="fill:#211915;stroke:#000000;stroke-miterlimit:10;" d="M734.576,781.167h-61.465c-19.33,0-35,15.67-35,35
	s15.67,35,35,35h61.465c19.33,0,35-15.67,35-35S753.906,781.167,734.576,781.167z"/>
</svg>
