<?xml version="1.0" encoding="iso-8859-1"?>
<!-- Generator: Adobe Illustrator 18.0.0, SVG Export Plug-In . SVG Version: 6.00 Build 0)  -->
<!DOCTYPE svg PUBLIC "-//W3C//DTD SVG 1.1//EN" "http://www.w3.org/Graphics/SVG/1.1/DTD/svg11.dtd">
<svg version="1.1" id="Capa_1" xmlns="http://www.w3.org/2000/svg" xmlns:xlink="http://www.w3.org/1999/xlink" x="0px" y="0px"
	 viewBox="0 0 1000 1000" style="enable-background:new 0 0 1000 1000;" xml:space="preserve">
<g>
	<path style="fill:#211915;stroke:#000000;stroke-miterlimit:10;" d="M890.303,93.099h-97.772v-50.07c0-19.33-15.67-35-35-35
		s-35,15.67-35,35v50.069H282.362V43.029c0-19.33-15.67-35-35-35s-35,15.67-35,35v50.069H114.59c-52.383,0-95,42.617-95,95V891.97
		c0,52.383,42.617,95,95,95h775.713c52.383,0,95-42.617,95-95V188.099C985.303,135.716,942.686,93.099,890.303,93.099z
		 M89.59,188.099c0-13.808,11.193-25,25-25h97.773v39.94c0,19.33,15.67,35,35,35s35-15.67,35-35v-39.94h440.168v39.94
		c0,19.33,15.67,35,35,35s35-15.67,35-35v-39.94h97.772c13.807,0,25,11.192,25,25v88H89.59V188.099z M915.303,891.971
		c0,13.807-11.193,25-25,25H114.59c-13.807,0-25-11.193-25-25V346.099h825.713V891.971z"/>
</g>
</svg>
