<?xml version="1.0" encoding="iso-8859-1"?>
<!-- Generator: Adobe Illustrator 18.0.0, SVG Export Plug-In . SVG Version: 6.00 Build 0)  -->
<!DOCTYPE svg PUBLIC "-//W3C//DTD SVG 1.1//EN" "http://www.w3.org/Graphics/SVG/1.1/DTD/svg11.dtd">
<svg version="1.1" id="Capa_1" xmlns="http://www.w3.org/2000/svg" xmlns:xlink="http://www.w3.org/1999/xlink" x="0px" y="0px"
	 viewBox="0 0 1000 1000" style="enable-background:new 0 0 1000 1000;" xml:space="preserve">
<path style="fill:#211915;stroke:#000000;stroke-miterlimit:10;" d="M108.668,917.466h782.664c52.383,0,95-42.617,95-95V414.552
	c0-52.383-42.617-95-95-95H526.305V156c0-19.33-15.67-35-35-35s-35,15.67-35,35v163.552H108.668c-52.383,0-95,42.617-95,95v407.914
	C13.668,874.849,56.285,917.466,108.668,917.466z M83.668,414.552c0-13.807,11.192-25,25-25h782.664c13.808,0,25,11.193,25,25
	v407.914c0,13.807-11.192,25-25,25H108.668c-13.808,0-25-11.193-25-25V414.552z"/>
<path style="fill:#211915;stroke:#000000;stroke-miterlimit:10;" d="M161.54,519.875h18.847c13.808,0,25-11.193,25-25v-18.846
	c0-13.807-11.192-25-25-25H161.54c-13.807,0-25,11.193-25,25v18.846C136.54,508.682,147.733,519.875,161.54,519.875z"/>
<path style="fill:#211915;stroke:#000000;stroke-miterlimit:10;" d="M321.711,519.875h18.847c13.807,0,25-11.193,25-25v-18.846
	c0-13.807-11.193-25-25-25h-18.847c-13.807,0-25,11.193-25,25v18.846C296.711,508.682,307.904,519.875,321.711,519.875z"/>
<path style="fill:#211915;stroke:#000000;stroke-miterlimit:10;" d="M481.882,519.875h18.847c13.807,0,25-11.193,25-25v-18.846
	c0-13.807-11.193-25-25-25h-18.847c-13.808,0-25,11.193-25,25v18.846C456.882,508.682,468.074,519.875,481.882,519.875z"/>
<path style="fill:#211915;stroke:#000000;stroke-miterlimit:10;" d="M642.053,519.875h18.846c13.808,0,25-11.193,25-25v-18.846
	c0-13.807-11.192-25-25-25h-18.846c-13.808,0-25,11.193-25,25v18.846C617.053,508.682,628.245,519.875,642.053,519.875z"/>
<path style="fill:#211915;stroke:#000000;stroke-miterlimit:10;" d="M802.223,519.875h18.847c13.807,0,25-11.193,25-25v-18.846
	c0-13.807-11.193-25-25-25h-18.847c-13.807,0-25,11.193-25,25v18.846C777.223,508.682,788.416,519.875,802.223,519.875z"/>
<path style="fill:#211915;stroke:#000000;stroke-miterlimit:10;" d="M161.54,663.399h18.847c13.808,0,25-11.193,25-25v-18.846
	c0-13.807-11.192-25-25-25H161.54c-13.807,0-25,11.193-25,25v18.846C136.54,652.207,147.733,663.399,161.54,663.399z"/>
<path style="fill:#211915;stroke:#000000;stroke-miterlimit:10;" d="M161.54,804.967h18.847c13.808,0,25-11.193,25-25V761.12
	c0-13.807-11.192-25-25-25H161.54c-13.807,0-25,11.193-25,25v18.846C136.54,793.774,147.733,804.967,161.54,804.967z"/>
<path style="fill:#211915;stroke:#000000;stroke-miterlimit:10;" d="M321.711,804.967h339.188c13.808,0,25-11.193,25-25V761.12
	c0-13.807-11.192-25-25-25H321.711c-13.807,0-25,11.193-25,25v18.846C296.711,793.774,307.904,804.967,321.711,804.967z"/>
<path style="fill:#211915;stroke:#000000;stroke-miterlimit:10;" d="M321.711,652.933h18.847c13.807,0,25-11.193,25-25v-18.846
	c0-13.807-11.193-25-25-25h-18.847c-13.807,0-25,11.193-25,25v18.846C296.711,641.74,307.904,652.933,321.711,652.933z"/>
<path style="fill:#211915;stroke:#000000;stroke-miterlimit:10;" d="M481.882,652.933h18.847c13.807,0,25-11.193,25-25v-18.846
	c0-13.807-11.193-25-25-25h-18.847c-13.808,0-25,11.193-25,25v18.846C456.882,641.74,468.074,652.933,481.882,652.933z"/>
<path style="fill:#211915;stroke:#000000;stroke-miterlimit:10;" d="M642.053,652.933h18.846c13.808,0,25-11.193,25-25v-18.846
	c0-13.807-11.192-25-25-25h-18.846c-13.808,0-25,11.193-25,25v18.846C617.053,641.74,628.245,652.933,642.053,652.933z"/>
<path style="fill:#211915;stroke:#000000;stroke-miterlimit:10;" d="M759.073,652.933h18.149v90.611c0,13.807,11.193,25,25,25
	h18.847c13.808,0,25-11.193,25-25V609.086c0-13.807-11.192-25-25-25h-61.996c-13.807,0-25,11.193-25,25v18.846
	C734.073,641.74,745.267,652.933,759.073,652.933z"/>
</svg>
