<?xml version="1.0" encoding="iso-8859-1"?>
<!-- Generator: Adobe Illustrator 18.0.0, SVG Export Plug-In . SVG Version: 6.00 Build 0)  -->
<!DOCTYPE svg PUBLIC "-//W3C//DTD SVG 1.1//EN" "http://www.w3.org/Graphics/SVG/1.1/DTD/svg11.dtd">
<svg version="1.1" id="Capa_1" xmlns="http://www.w3.org/2000/svg" xmlns:xlink="http://www.w3.org/1999/xlink" x="0px" y="0px"
	 viewBox="0 0 1000 1000" style="enable-background:new 0 0 1000 1000;" xml:space="preserve">
<path style="fill:#211915;stroke:#000000;stroke-miterlimit:10;" d="M899,182.837H101c-52.383,0-95,42.617-95,95v483.051
	c0,52.383,42.617,95,95,95h798c52.383,0,95-42.617,95-95V277.837C994,225.453,951.383,182.837,899,182.837z M924,760.887
	c0,13.807-11.193,25-25,25h-78.316l-38.354-79.161c-9.959-20.557-31.154-33.839-53.996-33.839H271.667
	c-22.842,0-44.037,13.283-53.996,33.839l-38.355,79.161H101c-13.807,0-25-11.193-25-25v-483.05c0-13.807,11.193-25,25-25h798
	c13.807,0,25,11.193,25,25V760.887z M257.475,785.113l20.459-42.226h444.132l20.458,42.226H257.475z"/>
<path style="fill:#211915;stroke:#000000;stroke-miterlimit:10;" d="M775.843,305.228H224.157c-52.383,0-95,42.617-95,95v112.239
	c0,52.383,42.617,95,95,95h551.686c52.383,0,95-42.617,95-95V400.228C870.843,347.845,828.226,305.228,775.843,305.228z
	 M800.843,512.467c0,13.807-11.193,25-25,25H224.157c-13.807,0-25-11.193-25-25V400.228c0-13.807,11.193-25,25-25h551.686
	c13.807,0,25,11.193,25,25L800.843,512.467L800.843,512.467z"/>
<circle style="fill:#211915;stroke:#000000;stroke-miterlimit:10;" cx="309.031" cy="456.348" r="34.68"/>
<circle style="fill:#211915;stroke:#000000;stroke-miterlimit:10;" cx="676" cy="456.348" r="34.68"/>
</svg>
