<?xml version="1.0" encoding="iso-8859-1"?>
<!-- Generator: Adobe Illustrator 18.0.0, SVG Export Plug-In . SVG Version: 6.00 Build 0)  -->
<!DOCTYPE svg PUBLIC "-//W3C//DTD SVG 1.1//EN" "http://www.w3.org/Graphics/SVG/1.1/DTD/svg11.dtd">
<svg version="1.1" id="Capa_1" xmlns="http://www.w3.org/2000/svg" xmlns:xlink="http://www.w3.org/1999/xlink" x="0px" y="0px"
	 viewBox="0 0 1000 1000" style="enable-background:new 0 0 1000 1000;" xml:space="preserve">
<path style="fill:#211915;stroke:#000000;stroke-miterlimit:10;" d="M97.089,895.92c0,52.383,42.617,95,95,95h540.737
	c52.383,0,95-42.617,95-95V104.87c0-52.383-42.617-95-95-95H192.089c-52.383,0-95,42.617-95,95
	C97.089,104.87,97.089,895.92,97.089,895.92z M167.089,104.87c0-13.807,11.193-25,25-25h157.826c0,19.33,15.67,35,35,35H540
	c19.33,0,35-15.67,35-35h157.826c13.807,0,25,11.193,25,25v791.05c0,13.807-11.193,25-25,25H192.089c-13.807,0-25-11.193-25-25
	V104.87z"/>
<path style="fill:#211915;stroke:#000000;stroke-miterlimit:10;" d="M313.071,780.662h298.772c52.383,0,95-42.617,95-95V240.683
	c0-52.383-42.617-95-95-95H313.071c-52.383,0-95,42.617-95,95v444.979C218.071,738.045,260.688,780.662,313.071,780.662z
	 M288.071,240.683c0-13.807,11.193-25,25-25h298.772c13.807,0,25,11.193,25,25v444.979c0,13.807-11.193,25-25,25H313.071
	c-13.807,0-25-11.193-25-25V240.683z"/>
<path style="fill:#211915;stroke:#000000;stroke-miterlimit:10;" d="M493.189,815.424h-61.464c-19.33,0-35,15.67-35,35
	s15.67,35,35,35h61.464c19.33,0,35-15.67,35-35S512.52,815.424,493.189,815.424z"/>
</svg>
