<?xml version="1.0" encoding="iso-8859-1"?>
<!-- Generator: Adobe Illustrator 18.0.0, SVG Export Plug-In . SVG Version: 6.00 Build 0)  -->
<!DOCTYPE svg PUBLIC "-//W3C//DTD SVG 1.1//EN" "http://www.w3.org/Graphics/SVG/1.1/DTD/svg11.dtd">
<svg version="1.1" id="Capa_1" xmlns="http://www.w3.org/2000/svg" xmlns:xlink="http://www.w3.org/1999/xlink" x="0px" y="0px"
	 viewBox="0 0 1000 1000" style="enable-background:new 0 0 1000 1000;" xml:space="preserve">
<path style="stroke:#000000;stroke-miterlimit:10;" d="M949.331,306.151c-24.424-57.199-59.191-108.586-103.338-152.735
	c-44.146-44.148-95.532-78.918-152.73-103.344c-59.225-25.291-122.129-38.349-186.965-38.81c-1.158-0.008-2.342-0.012-3.492-0.012
	c-64.867,0-127.941,12.692-187.471,37.722c-57.453,24.157-109.158,58.729-153.682,102.754
	c-44.544,44.047-79.696,95.379-104.479,152.572C31.477,363.6,18.11,426.599,17.445,491.548c-0.654,63.92,10.89,125.993,34.33,184.72
	L13.609,873.605c-5.446,28.159,1.89,56.985,20.127,79.088c18.274,22.147,45.166,34.849,73.78,34.849
	c6.106,0,12.256-0.591,18.279-1.756l197.334-38.165c57.142,22.805,117.506,34.356,179.651,34.356c1.683,0,3.367-0.009,5.054-0.026
	c65.235-0.667,128.488-14.143,188.007-40.055c57.401-24.99,108.863-60.419,152.956-105.305
	c44.087-44.88,78.598-96.964,102.574-154.806c24.855-59.964,37.224-123.441,36.763-188.668
	C987.675,428.282,974.62,365.377,949.331,306.151z M507.124,911.956c-1.45,0.015-2.896,0.022-4.343,0.022
	c-58.543,0-114.258-12.117-164.774-33.972c-3.234-1.399-6.704-2.11-10.193-2.11c-1.63,0-3.265,0.155-4.881,0.468L112.5,917.062
	c-1.686,0.326-3.35,0.481-4.983,0.481c-15.706,0-28.317-14.432-25.181-30.646l40.699-210.433c0.981-5.076,0.411-10.329-1.643-15.074
	c-22.396-51.767-34.565-108.991-33.95-169.125C89.769,264.916,275.804,81.25,502.805,81.25c0.988,0,2.005,0.004,2.995,0.011
	C732.811,82.876,916.53,266.6,918.136,493.614C919.751,721.956,735.459,909.623,507.124,911.956z"/>
<path style="stroke:#000000;stroke-miterlimit:10;" d="M711.572,293.257H292.438c-55.611,0-100.854,45.243-100.854,100.854
	s45.243,100.854,100.854,100.854h419.134c55.611,0,100.854-45.243,100.854-100.854S767.184,293.257,711.572,293.257z
	 M711.572,424.965H292.438c-17.041,0-30.854-13.814-30.854-30.854s13.814-30.854,30.854-30.854h419.134
	c17.041,0,30.854,13.813,30.854,30.854S728.613,424.965,711.572,424.965z"/>
<path style="stroke:#000000;stroke-miterlimit:10;" d="M533.146,530.402H292.438c-55.611,0-100.854,45.243-100.854,100.854
	S236.827,732.11,292.438,732.11h240.708C588.757,732.11,634,686.867,634,631.256C634,575.646,588.757,530.402,533.146,530.402z
	 M533.146,662.111H292.438c-17.041,0-30.854-13.813-30.854-30.854s13.814-30.854,30.854-30.854h240.708
	c17.04,0,30.854,13.814,30.854,30.854S550.186,662.111,533.146,662.111z"/>
</svg>
