<?xml version="1.0" encoding="iso-8859-1"?>
<!-- Generator: Adobe Illustrator 18.0.0, SVG Export Plug-In . SVG Version: 6.00 Build 0)  -->
<!DOCTYPE svg PUBLIC "-//W3C//DTD SVG 1.1//EN" "http://www.w3.org/Graphics/SVG/1.1/DTD/svg11.dtd">
<svg version="1.1" id="Capa_1" xmlns="http://www.w3.org/2000/svg" xmlns:xlink="http://www.w3.org/1999/xlink" x="0px" y="0px"
	 viewBox="0 0 1000 1000" style="enable-background:new 0 0 1000 1000;" xml:space="preserve">
<path style="stroke:#000000;stroke-miterlimit:10;" d="M125.302,684.943c16.251,10.369,33.836,18.698,52.078,24.738l0.03,138.88
	c0.011,52.371,42.628,94.979,95,94.979h404.683c52.383,0,95-42.617,95-95v-85.651c51.842-13.362,99.055-41.46,135.88-81.41
	c46.886-50.865,73.174-116.998,74.023-186.218c0.464-37.756-6.496-74.511-20.688-109.244
	c-13.691-33.512-33.496-63.687-58.864-89.685s-55.048-46.539-88.213-61.049c-34.374-15.039-70.946-22.899-108.702-23.363
	c-1.163-0.014-2.315-0.021-3.466-0.021c-1.496,0-2.993,0.012-4.491,0.036c-7.116-14.914-15.562-29.197-25.266-42.709
	c-16.711-23.269-36.807-43.778-59.729-60.958c-23.236-17.414-48.892-31.039-76.253-40.496
	c-28.286-9.776-57.909-14.921-88.048-15.291c-1.159-0.015-2.326-0.021-3.487-0.021h-0.002
	c-69.724-0.001-136.545,25.821-188.152,72.711c-43.153,39.208-72.695,90.386-85.116,146.579
	c-25.826,8.835-49.866,22.257-70.742,39.621c-27.56,22.924-49.695,52.738-64.014,86.219c-30.738,71.878-23.655,153.636,18.948,218.7
	C73.556,643.54,97.619,667.28,125.302,684.943z M216.512,332.13c10.419-1.926,18.408-10.421,19.467-20.964
	c10.667-106.22,100.341-188.708,208.81-188.707c0.875,0,1.753,0.005,2.63,0.016c92.484,1.136,170.257,61.913,197.211,145.309
	c3.25,10.057,12.613,16.655,22.919,16.655c1.18,0,2.371-0.086,3.567-0.264c10.103-1.499,20.437-2.277,30.948-2.277
	c0.867,0,1.736,0.005,2.606,0.016c115.929,1.423,208.755,96.556,207.332,212.486c-1.324,107.874-83.791,195.728-188.648,206.27
	c-12.107,1.217-21.261,11.534-21.261,23.703V848.54c0,13.807-11.192,25-25,25h-43.397V722c0-19.33-15.67-35-35-35s-35,15.67-35,35
	v151.54H517V722c0-19.33-15.67-35-35-35s-35,15.67-35,35v151.54h-56V789c0-19.33-15.67-35-35-35s-35,15.67-35,35v84.54h-48.59
	c-13.805,0-24.997-11.189-25-24.994l-0.038-175.256c-0.003-11.818-8.65-21.94-20.355-23.575
	c-45.835-6.402-87.418-33.096-112.742-71.771C52.347,483.367,104.582,352.825,216.512,332.13z"/>
</svg>
