<?xml version="1.0" encoding="iso-8859-1"?>
<!-- Generator: Adobe Illustrator 18.0.0, SVG Export Plug-In . SVG Version: 6.00 Build 0)  -->
<!DOCTYPE svg PUBLIC "-//W3C//DTD SVG 1.1//EN" "http://www.w3.org/Graphics/SVG/1.1/DTD/svg11.dtd">
<svg version="1.1" id="Capa_1" xmlns="http://www.w3.org/2000/svg" xmlns:xlink="http://www.w3.org/1999/xlink" x="0px" y="0px"
	 viewBox="0 0 1000 1000" style="enable-background:new 0 0 1000 1000;" xml:space="preserve">
<path style="stroke:#000000;stroke-miterlimit:10;" d="M893.777,105.783c-32.192-32.052-69.805-56.877-111.795-73.784
	C741.549,15.718,698.835,7.464,655.025,7.464c-44.535,0-87.906,8.515-128.907,25.308c-42.576,17.438-80.556,43.002-112.883,75.982
	c-48.453,49.432-80.155,111.421-91.812,179.449c-2.559,10.168-13.063,51.367-26.841,98.13
	c-26.569,90.172-42.96,126.005-50.366,139.339c-10.533,18.964-14.726,41.227-11.808,62.688c1.109,8.151,3.235,16.129,6.278,23.734
	L127.07,723.709c-3.183-0.279-6.39-0.418-9.615-0.419c-24.675-0.002-48.857,8.474-68.094,23.867
	C29.198,763.291,15.436,785.776,9.56,812.18c-2.921,13.126-2.937,26.987-0.045,40.083c5.008,22.681,16.069,42.84,31.989,58.297
	c8.471,8.225,18.104,14.946,28.564,19.99c5.044,10.459,11.765,20.093,19.99,28.564c15.457,15.92,35.616,26.982,58.297,31.989
	c6.528,1.441,13.23,2.171,19.925,2.171c6.77,0,13.554-0.746,20.165-2.218c16.889-3.758,32.176-10.744,45.428-20.762
	c13.269-10.03,23.825-22.553,31.376-37.22c9.581-18.61,13.506-39.234,11.688-59.553l111.605-111.605
	c11.893,4.731,24.415,7.135,37.239,7.135c17.293,0,34.41-4.487,49.5-12.977c13.392-7.534,49.331-24.114,139.553-50.496
	c46.767-13.675,87.577-23.917,97.451-26.362c33.237-5.685,65.283-16.243,95.298-31.402c32.005-16.164,61.183-37.31,86.724-62.85
	c32.333-32.333,57.37-70.074,74.415-112.174c16.449-40.628,24.765-83.533,24.718-127.522c-0.048-43.987-8.456-86.87-24.992-127.46
	C951.31,175.743,926.187,138.052,893.777,105.783z M698.003,610.643c0,0-147.622,35.915-229.096,70.907
	c-10.59,4.548-20.065,9.081-27.95,13.517c-4.759,2.677-9.988,3.985-15.177,3.985c-7.948,0-15.8-3.069-21.715-8.983l-21.336-21.336
	l-25.423-25.422l-25.422-25.422l-21.425-21.425c-9.748-9.748-11.744-24.753-5.05-36.804c4.3-7.742,8.715-17.048,13.163-27.454
	c34.695-81.176,71.402-229.59,71.402-229.59l0.013-0.008c8.546-52.908,32.948-103.751,73.237-144.853
	c52.434-53.493,122.096-80.29,191.8-80.29c68.557,0,137.155,25.943,189.362,77.924c105.262,104.805,105.402,275.099,0.422,380.08
	c-41.437,41.437-93.052,66.481-146.798,75.162L698.003,610.643z M209.269,842.194c-6.753,6.753-8.76,16.93-5.032,25.723
	c8.906,21.007-1.429,48.231-31.002,54.811c-1.629,0.363-3.292,0.545-4.955,0.545c-1.622,0-3.244-0.174-4.834-0.525
	c-19.702-4.35-30.887-17.847-33.557-32.585c-1.804-9.955-9.479-17.63-19.434-19.434c-14.738-2.67-28.235-13.856-32.585-33.557
	c-0.711-3.219-0.696-6.571,0.021-9.789c5.058-22.731,22.307-34.096,39.56-34.094c5.194,0,10.391,1.031,15.251,3.092
	c2.943,1.248,6.041,1.853,9.114,1.853c6.108,0,12.116-2.392,16.609-6.885l123.964-123.964l25.422,25.422l25.422,25.422
	L209.269,842.194z"/>
</svg>
