<?xml version="1.0" encoding="iso-8859-1"?>
<!-- Generator: Adobe Illustrator 18.0.0, SVG Export Plug-In . SVG Version: 6.00 Build 0)  -->
<!DOCTYPE svg PUBLIC "-//W3C//DTD SVG 1.1//EN" "http://www.w3.org/Graphics/SVG/1.1/DTD/svg11.dtd">
<svg version="1.1" id="Capa_1" xmlns="http://www.w3.org/2000/svg" xmlns:xlink="http://www.w3.org/1999/xlink" x="0px" y="0px"
	 viewBox="0 0 1000 1000" style="enable-background:new 0 0 1000 1000;" xml:space="preserve">
<path style="stroke:#000000;stroke-miterlimit:10;" d="M43.035,898.307c8.237,8.905,17.775,16.306,28.261,21.998
	c4.535,11.036,10.871,21.312,18.842,30.456c14.724,16.892,34.462,29.142,57.079,35.425c8.1,2.251,16.482,3.392,24.912,3.392
	c5.135,0,10.307-0.428,15.372-1.273c17.254-2.877,33.058-9.096,46.969-18.483c13.918-9.391,25.236-21.441,33.641-35.813
	c10.811-18.487,15.875-39.372,14.972-60.23L405.1,764.208c13.49,6.415,28.379,9.857,43.62,9.857
	c15.534,0,31.116-3.641,45.064-10.529c14.166-6.996,51.913-22.022,145.59-44.059c48.885-11.499,91.779-19.847,101.98-21.799
	c25.606-2.974,50.857-8.817,75.109-17.384c26.808-9.47,47.837-30.213,57.696-56.911c9.896-26.796,7.375-56.355-6.914-81.099
	c-18.754-32.474-27.596-69.548-25.572-107.216c1.776-33.049,11.977-65.188,29.498-92.94c17.033-26.981,40.721-49.594,68.5-65.395
	c24.746-14.075,41.815-38.234,46.83-66.283c5.007-28.002-2.614-56.525-20.908-78.254c-2.541-3.018-5.171-6.036-7.816-8.968
	c-33.255-36.871-73.147-65.543-118.567-85.22C795.471,19.062,749.014,9.455,701.126,9.455c-86.717,0-169.546,32.134-233.23,90.481
	c-52.105,47.739-87.814,109.2-103.41,177.918c-3.155,10.193-16.224,51.958-32.97,99.26c-32.267,91.139-51.103,127.036-59.46,140.323
	c-11.675,18.563-17.084,40.816-15.231,62.66c0.727,8.566,2.579,16.999,5.427,25.077L140.21,714.766
	c-5.43-0.821-10.921-1.24-16.406-1.24c-23.89-0.002-47.515,7.947-66.521,22.384c-19.871,15.094-34.097,36.386-41.14,61.575
	c-3.644,13.035-4.408,26.962-2.21,40.277C17.755,860.921,27.819,881.857,43.035,898.307z M432.181,295.911
	c11.668-53.73,39.467-104.473,83.003-144.361c52.703-48.287,119.414-72.094,185.942-72.094c75.344,0,150.452,30.545,204.669,90.657
	c2.131,2.363,4.214,4.754,6.248,7.169c10.246,12.17,6.847,30.741-6.981,38.606c-75.513,42.95-128.28,122.234-133.289,215.424
	c-2.849,53.008,10.147,103.201,34.853,145.98c8.003,13.858,1.61,31.67-13.479,37c-20.302,7.172-41.244,11.876-62.372,14.133
	l-0.009,0.013c0,0-158.907,29.731-243.251,61.763c-9.238,3.508-17.585,7.044-24.727,10.572c-4.489,2.217-9.3,3.292-14.067,3.292
	c-8.738,0-17.321-3.616-23.452-10.444l-20.683-23.032l-24.644-27.444l-24.644-27.444l-20.769-23.128
	c-9.417-10.487-10.722-25.938-3.218-37.869c4.159-6.613,8.47-14.412,12.862-23.095c40.516-80.091,87.994-235.691,87.994-235.691
	L432.181,295.911z M83.557,816.333c6.171-22.071,23.258-32.809,40.241-32.807c6.051,0.001,12.092,1.365,17.617,4.065
	c3.349,1.637,6.948,2.435,10.524,2.435c5.824,0,11.588-2.117,16.105-6.173l135.17-121.381l24.644,27.444l24.644,27.444
	L217.333,838.74c-7.29,6.547-9.906,16.862-6.571,26.075c7.967,22.011-4.119,49.331-34.779,54.444
	c-1.276,0.213-2.566,0.319-3.855,0.319c-2.082,0-4.162-0.278-6.174-0.838c-19.944-5.541-30.659-19.984-32.584-35.229
	c-1.3-10.298-8.74-18.583-18.839-20.979c-14.951-3.547-28.163-15.749-31.534-36.172C82.447,823.023,82.646,819.59,83.557,816.333z"
	/>
</svg>
