<?xml version="1.0" encoding="iso-8859-1"?>
<!-- Generator: Adobe Illustrator 18.0.0, SVG Export Plug-In . SVG Version: 6.00 Build 0)  -->
<!DOCTYPE svg PUBLIC "-//W3C//DTD SVG 1.1//EN" "http://www.w3.org/Graphics/SVG/1.1/DTD/svg11.dtd">
<svg version="1.1" id="Capa_1" xmlns="http://www.w3.org/2000/svg" xmlns:xlink="http://www.w3.org/1999/xlink" x="0px" y="0px"
	 viewBox="0 0 1000 1000" style="enable-background:new 0 0 1000 1000;" xml:space="preserve">
<path style="fill:#211915;stroke:#000000;stroke-miterlimit:10;" d="M871.395,994.332c52.383,0,95-42.617,95-95V98.838
	c0-52.383-42.617-95-95-95h-742.79c-52.383,0-95,42.617-95,95v800.493c0,52.383,42.617,95,95,95L871.395,994.332L871.395,994.332z
	 M103.605,899.332V98.838c0-13.807,11.193-25,25-25h742.789c13.807,0,25,11.193,25,25v800.493c0,13.807-11.193,25-25,25H128.605
	C114.798,924.332,103.605,913.139,103.605,899.332z"/>
<path style="fill:#211915;stroke:#000000;stroke-miterlimit:10;" d="M328.384,470.739h343.232c33.084,0,60-26.916,60-60v-228.32
	c0-33.084-26.916-60-60-60H328.384c-33.084,0-60,26.916-60,60v228.32C268.384,443.823,295.3,470.739,328.384,470.739z
	 M338.384,192.419h323.232v208.32H338.384V192.419z"/>
<path style="fill:#211915;stroke:#000000;stroke-miterlimit:10;" d="M328.384,875.75h343.232c33.084,0,60-26.916,60-60V587.431
	c0-33.084-26.916-60-60-60H328.384c-33.084,0-60,26.916-60,60V815.75C268.384,848.834,295.3,875.75,328.384,875.75z
	 M338.384,597.431h323.232V805.75H338.384V597.431z"/>
<path style="fill:#211915;stroke:#000000;stroke-miterlimit:10;" d="M171.563,202.141h23.808c13.807,0,25-11.193,25-25v-23.808
	c0-13.807-11.193-25-25-25h-23.808c-13.807,0-25,11.193-25,25v23.808C146.563,190.948,157.756,202.141,171.563,202.141z"/>
<path style="fill:#211915;stroke:#000000;stroke-miterlimit:10;" d="M171.563,369.065h23.808c13.807,0,25-11.193,25-25v-23.808
	c0-13.807-11.193-25-25-25h-23.808c-13.807,0-25,11.193-25,25v23.808C146.563,357.872,157.756,369.065,171.563,369.065z"/>
<path style="fill:#211915;stroke:#000000;stroke-miterlimit:10;" d="M171.563,535.989h23.808c13.807,0,25-11.193,25-25v-23.807
	c0-13.807-11.193-25-25-25h-23.808c-13.807,0-25,11.193-25,25v23.807C146.563,524.796,157.756,535.989,171.563,535.989z"/>
<path style="fill:#211915;stroke:#000000;stroke-miterlimit:10;" d="M171.563,702.912h23.808c13.807,0,25-11.193,25-25v-23.808
	c0-13.807-11.193-25-25-25h-23.808c-13.807,0-25,11.193-25,25v23.808C146.563,691.72,157.756,702.912,171.563,702.912z"/>
<path style="fill:#211915;stroke:#000000;stroke-miterlimit:10;" d="M171.563,869.836h23.808c13.807,0,25-11.193,25-25v-23.807
	c0-13.807-11.193-25-25-25h-23.808c-13.807,0-25,11.193-25,25v23.807C146.563,858.643,157.756,869.836,171.563,869.836z"/>
<path style="fill:#211915;stroke:#000000;stroke-miterlimit:10;" d="M804.629,202.141h23.808c13.807,0,25-11.193,25-25v-23.808
	c0-13.807-11.193-25-25-25h-23.808c-13.807,0-25,11.193-25,25v23.808C779.629,190.948,790.822,202.141,804.629,202.141z"/>
<path style="fill:#211915;stroke:#000000;stroke-miterlimit:10;" d="M804.629,369.065h23.808c13.807,0,25-11.193,25-25v-23.808
	c0-13.807-11.193-25-25-25h-23.808c-13.807,0-25,11.193-25,25v23.808C779.629,357.872,790.822,369.065,804.629,369.065z"/>
<path style="fill:#211915;stroke:#000000;stroke-miterlimit:10;" d="M804.629,535.989h23.808c13.807,0,25-11.193,25-25v-23.807
	c0-13.807-11.193-25-25-25h-23.808c-13.807,0-25,11.193-25,25v23.807C779.629,524.796,790.822,535.989,804.629,535.989z"/>
<path style="fill:#211915;stroke:#000000;stroke-miterlimit:10;" d="M804.629,702.912h23.808c13.807,0,25-11.193,25-25v-23.808
	c0-13.807-11.193-25-25-25h-23.808c-13.807,0-25,11.193-25,25v23.808C779.629,691.72,790.822,702.912,804.629,702.912z"/>
<path style="fill:#211915;stroke:#000000;stroke-miterlimit:10;" d="M804.629,869.836h23.808c13.807,0,25-11.193,25-25v-23.807
	c0-13.807-11.193-25-25-25h-23.808c-13.807,0-25,11.193-25,25v23.807C779.629,858.643,790.822,869.836,804.629,869.836z"/>
</svg>
