<?xml version="1.0" encoding="iso-8859-1"?>
<!-- Generator: Adobe Illustrator 18.0.0, SVG Export Plug-In . SVG Version: 6.00 Build 0)  -->
<!DOCTYPE svg PUBLIC "-//W3C//DTD SVG 1.1//EN" "http://www.w3.org/Graphics/SVG/1.1/DTD/svg11.dtd">
<svg version="1.1" id="Capa_1" xmlns="http://www.w3.org/2000/svg" xmlns:xlink="http://www.w3.org/1999/xlink" x="0px" y="0px"
	 viewBox="0 0 1000 1000" style="enable-background:new 0 0 1000 1000;" xml:space="preserve">
<path style="fill:#211915;stroke:#000000;stroke-miterlimit:10;" d="M10.052,504.05c0,66.112,12.964,130.283,38.531,190.731
	c24.68,58.351,59.998,110.741,104.971,155.714s97.363,80.291,155.714,104.971c60.448,25.567,124.619,38.531,190.731,38.531
	s130.283-12.964,190.731-38.531c58.351-24.68,110.741-59.998,155.714-104.971s80.291-97.363,104.971-155.714
	c25.567-60.448,38.531-124.619,38.531-190.731s-12.964-130.283-38.531-190.731c-24.68-58.351-59.998-110.741-104.971-155.714
	S749.082,77.314,690.731,52.634C630.283,27.066,566.112,14.103,500,14.103S369.717,27.066,309.269,52.634
	c-58.351,24.68-110.741,59.998-155.714,104.971S73.264,254.968,48.583,313.319C23.016,373.768,10.052,437.938,10.052,504.05z
	 M500,84.103c231.931,0,419.948,188.017,419.948,419.948S731.931,923.998,500,923.998S80.052,735.981,80.052,504.05
	S268.069,84.103,500,84.103z"/>
<path style="fill:#211915;stroke:#000000;stroke-miterlimit:10;" d="M442.135,871.851c2.646,0.413,5.273,0.613,7.859,0.613
	c27.105,0,50.006-21.924,50.006-49.996V185.633c0-28.07-22.903-49.996-50.006-49.996c-2.588,0-5.211,0.2-7.859,0.613
	c-178.119,27.798-314.406,181.883-314.406,367.8S264.017,844.053,442.135,871.851z M197.729,504.05
	c0-36.948,6.57-73.005,19.528-107.169c12.524-33.021,30.645-63.393,53.859-90.274c41.73-48.32,97.488-82.107,158.884-96.689v588.264
	c-61.394-14.581-117.154-48.368-158.883-96.689c-23.214-26.881-41.334-57.253-53.859-90.274
	C204.3,577.055,197.729,540.998,197.729,504.05z"/>
</svg>
