<?xml version="1.0" encoding="iso-8859-1"?>
<!-- Generator: Adobe Illustrator 18.0.0, SVG Export Plug-In . SVG Version: 6.00 Build 0)  -->
<!DOCTYPE svg PUBLIC "-//W3C//DTD SVG 1.1//EN" "http://www.w3.org/Graphics/SVG/1.1/DTD/svg11.dtd">
<svg version="1.1" id="Capa_1" xmlns="http://www.w3.org/2000/svg" xmlns:xlink="http://www.w3.org/1999/xlink" x="0px" y="0px"
	 viewBox="0 0 1000 1000" style="enable-background:new 0 0 1000 1000;" xml:space="preserve">
<path style="stroke:#000000;stroke-miterlimit:10;" d="M132.715,775.863c38.459,41.024,83.556,74.18,134.036,98.548
	c52.049,25.125,107.765,39.876,165.601,43.844c2.167,0.149,4.36,0.224,6.522,0.224c9.697,0,19.058-1.466,27.877-4.184
	c9.208,42.817,47.346,75.01,92.867,75.01c2.176,0,4.382-0.076,6.555-0.225c109.062-7.507,211.803-54.32,289.299-131.816
	s124.31-180.237,131.816-289.298c1.802-26.18-7.435-52.195-25.34-71.376c-13.299-14.244-30.687-23.971-49.502-28.033
	c3.406-11.043,4.82-22.714,4.017-34.418c-3.968-57.829-18.72-113.544-43.848-165.594c-24.369-50.479-57.526-95.575-98.551-134.035
	c-84.38-79.104-194.569-122.669-310.27-122.669l0,0h-0.003c-61.3,0-120.767,11.984-176.747,35.618
	c-54.074,22.83-102.601,55.515-144.232,97.147s-74.316,90.159-97.146,144.232c-23.634,55.98-35.617,115.447-35.617,176.75
	C10.05,581.297,53.613,691.488,132.715,775.863z M917.453,563.16c-13.121,190.625-165.46,342.965-356.086,356.086
	c-0.588,0.041-1.169,0.06-1.75,0.06c-13.684,0-24.991-11.104-24.991-25.007v-332.88c0-13.807,11.193-25,25-25h332.88
	C906.998,536.418,918.448,548.702,917.453,563.16z M463.793,81.842C463.806,81.842,463.782,81.842,463.793,81.842
	c202.96,0,369.148,157.601,382.833,357.092c0.99,14.423-10.494,26.653-24.951,26.653H523.007c-32.703,0-59.213,26.511-59.213,59.213
	v298.668c0,13.876-11.263,25.011-24.92,25.011c-0.573,0-1.152-0.02-1.732-0.06C237.64,834.733,80.05,668.565,80.049,465.589
	C80.048,253.292,251.496,81.842,463.793,81.842z"/>
</svg>
