<?xml version="1.0" encoding="iso-8859-1"?>
<!-- Generator: Adobe Illustrator 18.0.0, SVG Export Plug-In . SVG Version: 6.00 Build 0)  -->
<!DOCTYPE svg PUBLIC "-//W3C//DTD SVG 1.1//EN" "http://www.w3.org/Graphics/SVG/1.1/DTD/svg11.dtd">
<svg version="1.1" id="Capa_1" xmlns="http://www.w3.org/2000/svg" xmlns:xlink="http://www.w3.org/1999/xlink" x="0px" y="0px"
	 viewBox="0 0 1000 1000" style="enable-background:new 0 0 1000 1000;" xml:space="preserve">
<path style="stroke:#000000;stroke-miterlimit:10;" d="M107.516,987.543c6.106,0,12.256-0.591,18.28-1.756l197.334-38.165
	c57.14,22.804,117.505,34.356,179.651,34.356c1.683,0,3.367-0.009,5.054-0.026c65.235-0.667,128.488-14.143,188.008-40.055
	c57.401-24.99,108.863-60.419,152.956-105.305c44.087-44.88,78.598-96.964,102.573-154.806
	c24.856-59.964,37.225-123.441,36.763-188.668c-0.459-64.836-13.514-127.742-38.803-186.967
	c-24.423-57.199-59.191-108.587-103.338-152.735S750.461,74.499,693.262,50.073c-59.225-25.291-122.129-38.349-186.965-38.81
	c-1.158-0.008-2.342-0.012-3.492-0.012c-64.867,0-127.941,12.692-187.471,37.722c-57.453,24.157-109.158,58.729-153.681,102.754
	c-44.545,44.047-79.697,95.379-104.479,152.572C31.477,363.6,18.11,426.599,17.445,491.548
	C16.79,555.467,28.334,617.54,51.774,676.267L13.609,873.605c-5.446,28.16,1.891,56.986,20.128,79.089
	C52.011,974.841,78.903,987.543,107.516,987.543z M82.335,886.897l40.699-210.433c0.981-5.076,0.411-10.329-1.643-15.074
	c-22.396-51.767-34.565-108.991-33.95-169.125C89.769,264.916,275.804,81.25,502.805,81.25c0.988,0,2.005,0.004,2.995,0.011
	C732.812,82.876,916.53,266.6,918.137,493.614c1.615,228.342-182.677,416.009-411.013,418.342c-1.45,0.015-2.896,0.022-4.342,0.022
	c-58.544,0-114.258-12.117-164.774-33.972c-3.234-1.399-6.704-2.11-10.193-2.11c-1.63,0-3.265,0.155-4.881,0.468L112.5,917.062
	c-1.686,0.326-3.35,0.481-4.983,0.481C91.811,917.543,79.2,903.111,82.335,886.897z"/>
<path style="stroke:#000000;stroke-miterlimit:10;" d="M754,603.492c57.398,0,104.095-46.697,104.095-104.095
	S811.398,395.302,754,395.302s-104.095,46.697-104.095,104.095S696.602,603.492,754,603.492z M754,465.302
	c18.83,0,34.095,15.265,34.095,34.095S772.83,533.492,754,533.492s-34.095-15.265-34.095-34.095
	C719.905,480.566,735.17,465.302,754,465.302z"/>
<path style="stroke:#000000;stroke-miterlimit:10;" d="M500,603.492c57.398,0,104.095-46.697,104.095-104.095
	S557.398,395.302,500,395.302s-104.095,46.697-104.095,104.095S442.602,603.492,500,603.492z M500,465.302
	c18.83,0,34.095,15.265,34.095,34.095S518.83,533.492,500,533.492s-34.095-15.265-34.095-34.095
	C465.905,480.566,481.17,465.302,500,465.302z"/>
<path style="stroke:#000000;stroke-miterlimit:10;" d="M246,603.492c57.398,0,104.095-46.697,104.095-104.095
	S303.398,395.302,246,395.302s-104.095,46.697-104.095,104.095S188.602,603.492,246,603.492z M246,465.302
	c18.83,0,34.095,15.265,34.095,34.095S264.83,533.492,246,533.492s-34.095-15.265-34.095-34.095
	C211.905,480.566,227.17,465.302,246,465.302z"/>
</svg>
