<?xml version="1.0" encoding="iso-8859-1"?>
<!-- Generator: Adobe Illustrator 18.0.0, SVG Export Plug-In . SVG Version: 6.00 Build 0)  -->
<!DOCTYPE svg PUBLIC "-//W3C//DTD SVG 1.1//EN" "http://www.w3.org/Graphics/SVG/1.1/DTD/svg11.dtd">
<svg version="1.1" id="Capa_1" xmlns="http://www.w3.org/2000/svg" xmlns:xlink="http://www.w3.org/1999/xlink" x="0px" y="0px"
	 viewBox="0 0 1000 1000" style="enable-background:new 0 0 1000 1000;" xml:space="preserve">
<g>
	<path style="fill:#211915;stroke:#000000;stroke-miterlimit:10;" d="M843.167,156.833c-44.548-44.548-96.442-79.53-154.241-103.978
		C629.05,27.529,565.486,14.688,500,14.688S370.95,27.529,311.073,52.855c-57.799,24.447-109.693,59.43-154.24,103.978
		c-44.548,44.548-79.531,96.441-103.978,154.24C27.529,370.95,14.688,434.515,14.688,500s12.841,129.05,38.167,188.927
		c24.447,57.799,59.43,109.692,103.978,154.24s96.442,79.53,154.24,103.978C370.95,972.471,434.514,985.312,500,985.312
		s129.05-12.841,188.927-38.167c57.799-24.447,109.693-59.43,154.241-103.978c44.547-44.548,79.531-96.441,103.977-154.24
		C972.47,629.05,985.312,565.485,985.312,500s-12.841-129.05-38.167-188.927C922.698,253.274,887.715,201.381,843.167,156.833z
		 M500,915.312C270.63,915.312,84.688,729.37,84.688,500S270.63,84.688,500,84.688S915.312,270.63,915.312,500
		S729.37,915.312,500,915.312z"/>
</g>
</svg>
