<?xml version="1.0" encoding="iso-8859-1"?>
<!-- Generator: Adobe Illustrator 18.0.0, SVG Export Plug-In . SVG Version: 6.00 Build 0)  -->
<!DOCTYPE svg PUBLIC "-//W3C//DTD SVG 1.1//EN" "http://www.w3.org/Graphics/SVG/1.1/DTD/svg11.dtd">
<svg version="1.1" id="Capa_1" xmlns="http://www.w3.org/2000/svg" xmlns:xlink="http://www.w3.org/1999/xlink" x="0px" y="0px"
	 viewBox="0 0 1000 1000" style="enable-background:new 0 0 1000 1000;" xml:space="preserve">
<path style="stroke:#000000;stroke-miterlimit:10;" d="M339.863,855.794l390.413-390.413
	c46.951-46.951,46.902-123.368-0.062-170.332c-46.939-46.939-123.319-46.951-170.27,0L359.041,496.157
	c-9.755,9.765-9.75,25.587,0.009,35.346l13.846,13.846c9.763,9.763,25.592,9.763,35.355,0l203.668-203.668
	c20.065-17.359,50.687-16.299,69.552,3.066c19.512,20.028,18.7,52.257-1.071,72.028L290.572,806.602
	c-43.282,43.282-113.764,43.257-157.033-0.012c-43.318-43.319-43.343-113.801-0.012-157.132l477.029-477.029
	c66.972-66.972,175.995-66.763,242.72,0.443c66.689,67.169,65.316,176.104-1.614,243.034L490.11,777.458
	c-9.763,9.763-9.763,25.592,0,35.355l13.886,13.886c9.763,9.763,25.592,9.763,35.355,0L903.37,462.681
	c92.658-94.062,92.24-245.961-1.293-339.494s-245.394-93.914-339.444-1.244l-478.36,478.36
	c-70.42,70.42-70.42,185.034,0.049,255.504C154.78,926.264,269.394,926.264,339.863,855.794z"/>
</svg>
