<?xml version="1.0" encoding="iso-8859-1"?>
<!-- Generator: Adobe Illustrator 18.0.0, SVG Export Plug-In . SVG Version: 6.00 Build 0)  -->
<!DOCTYPE svg PUBLIC "-//W3C//DTD SVG 1.1//EN" "http://www.w3.org/Graphics/SVG/1.1/DTD/svg11.dtd">
<svg version="1.1" id="Capa_1" xmlns="http://www.w3.org/2000/svg" xmlns:xlink="http://www.w3.org/1999/xlink" x="0px" y="0px"
	 viewBox="0 0 1000 1000" style="enable-background:new 0 0 1000 1000;" xml:space="preserve">
<g>
	<path style="fill:#211915;stroke:#000000;stroke-miterlimit:10;" d="M703.046,133.749c-19.458-12.714-40.643-21.985-60.223-28.687
		c-9.142-24.011-23.754-45.622-42.56-62.55c-27.602-24.847-62.852-38.53-99.259-38.53s-71.657,13.683-99.259,38.53
		c-18.806,16.928-33.418,38.54-42.56,62.55c-19.581,6.702-40.766,15.973-60.224,28.687h-83.047c-52.383,0-95,42.617-95,95v670.128
		c0,52.383,42.617,95,95,95h570.179c52.383,0,95-42.617,95-95V228.749c0-52.383-42.617-95-95-95H703.046z M420.07,145.91
		c0.802-4.168,1.877-8.225,3.181-12.161c11.548-34.861,41.993-59.767,77.753-59.767s66.205,24.906,77.753,59.767
		c1.304,3.936,2.379,7.992,3.182,12.161c1.827,9.493,9.106,16.957,18.455,19.42c33.935,8.943,61.6,22.326,79.249,38.419
		c2.783,2.537,5.325,5.14,7.595,7.805c11.195,13.148,1.963,33.361-15.306,33.361H330.078c-17.269,0-26.501-20.213-15.306-33.361
		c2.27-2.666,4.812-5.268,7.595-7.805c17.649-16.093,45.313-29.477,79.249-38.419C410.964,162.866,418.244,155.403,420.07,145.91z
		 M811.094,228.749v670.128c0,13.808-11.193,25-25,25H215.916c-13.807,0-25-11.192-25-25V228.749c0-13.807,11.193-25,25-25h26.43
		c-0.828,3.469-1.462,6.994-1.875,10.568c-1.902,16.466,0.782,33.156,7.761,48.264c6.964,15.076,17.9,27.912,31.626,37.12
		c14.836,9.954,32.202,15.214,50.221,15.214h341.854c18.019,0,35.385-5.261,50.221-15.214c13.726-9.208,24.662-22.044,31.626-37.12
		c6.979-15.108,9.663-31.798,7.761-48.264c-0.413-3.574-1.046-7.1-1.875-10.568h26.43
		C799.901,203.749,811.094,214.942,811.094,228.749z"/>
	<path style="fill:#211915;stroke:#000000;stroke-miterlimit:10;" d="M501.005,181.703c19.512,0,35.33-15.817,35.33-35.33
		c0-4.449-0.831-8.703-2.332-12.624c-5.082-13.275-17.936-22.706-32.998-22.706c-15.063,0-27.916,9.43-32.999,22.706
		c-1.501,3.921-2.332,8.175-2.332,12.624C465.675,165.886,481.493,181.703,501.005,181.703z"/>
	<path style="fill:#211915;stroke:#000000;stroke-miterlimit:10;" d="M658.028,464.125c-13.67-13.668-35.83-13.668-49.498,0
		L501.005,571.651L393.479,464.125c-13.669-13.669-35.829-13.668-49.498,0c-13.668,13.669-13.668,35.829,0,49.498l107.525,107.526
		L343.981,728.675c-13.668,13.669-13.668,35.829,0,49.498c6.835,6.834,15.792,10.251,24.749,10.251s17.915-3.417,24.749-10.251
		l107.525-107.526L608.53,778.173c6.834,6.834,15.792,10.251,24.749,10.251s17.914-3.417,24.749-10.251
		c13.668-13.669,13.668-35.829,0-49.498L550.503,621.149l107.525-107.526C671.696,499.954,671.696,477.794,658.028,464.125z"/>
</g>
</svg>
