<?xml version="1.0" encoding="iso-8859-1"?>
<!-- Generator: Adobe Illustrator 18.0.0, SVG Export Plug-In . SVG Version: 6.00 Build 0)  -->
<!DOCTYPE svg PUBLIC "-//W3C//DTD SVG 1.1//EN" "http://www.w3.org/Graphics/SVG/1.1/DTD/svg11.dtd">
<svg version="1.1" id="Capa_1" xmlns="http://www.w3.org/2000/svg" xmlns:xlink="http://www.w3.org/1999/xlink" x="0px" y="0px"
	 viewBox="0 0 1000 1000" style="enable-background:new 0 0 1000 1000;" xml:space="preserve">
<g>
	<path style="fill:#211915;stroke:#000000;stroke-miterlimit:10;" d="M702.042,133.749c-19.458-12.714-40.643-21.985-60.224-28.687
		c-9.142-24.011-23.754-45.622-42.56-62.55C571.657,17.665,536.407,3.982,500,3.982s-71.657,13.683-99.259,38.53
		c-18.806,16.928-33.418,38.54-42.56,62.55c-19.581,6.702-40.765,15.973-60.224,28.687H214.91c-52.383,0-95,42.617-95,95v670.128
		c0,52.383,42.617,95,95,95h570.179c52.383,0,95-42.617,95-95V228.749c0-52.383-42.617-95-95-95H702.042z M419.065,145.91
		c0.802-4.168,1.877-8.225,3.182-12.161C433.795,98.888,464.239,73.982,500,73.982s66.205,24.906,77.753,59.767
		c1.304,3.936,2.379,7.992,3.182,12.161c1.827,9.493,9.106,16.957,18.455,19.42c33.935,8.943,61.6,22.326,79.249,38.419
		c2.783,2.537,5.325,5.14,7.595,7.805c11.195,13.148,1.963,33.361-15.306,33.361H329.073c-17.269,0-26.501-20.213-15.306-33.361
		c2.27-2.666,4.812-5.268,7.595-7.805c17.649-16.093,45.314-29.477,79.249-38.419C409.959,162.866,417.239,155.403,419.065,145.91z
		 M810.089,228.749v670.128c0,13.808-11.193,25-25,25H214.911c-13.807,0-25-11.192-25-25V228.749c0-13.807,11.193-25,25-25h26.43
		c-0.828,3.469-1.462,6.994-1.875,10.568c-1.902,16.466,0.782,33.156,7.761,48.264c6.964,15.076,17.9,27.912,31.626,37.12
		c14.836,9.954,32.202,15.214,50.221,15.214h341.854c18.019,0,35.385-5.261,50.221-15.214c13.726-9.208,24.662-22.044,31.626-37.12
		c6.979-15.108,9.663-31.798,7.761-48.264c-0.413-3.574-1.046-7.1-1.875-10.568h26.43
		C798.896,203.749,810.089,214.942,810.089,228.749z"/>
	<path style="fill:#211915;stroke:#000000;stroke-miterlimit:10;" d="M500,181.703c19.512,0,35.33-15.817,35.33-35.33
		c0-4.449-0.831-8.703-2.332-12.624c-5.082-13.275-17.936-22.706-32.998-22.706s-27.916,9.43-32.998,22.706
		c-1.501,3.921-2.332,8.175-2.332,12.624C464.67,165.886,480.488,181.703,500,181.703z"/>
	<path style="fill:#211915;stroke:#000000;stroke-miterlimit:10;" d="M657.608,464.125L431.987,689.747l-89.596-89.597
		c-13.669-13.669-35.829-13.668-49.498,0c-13.668,13.669-13.668,35.829,0,49.498l114.345,114.346
		c6.564,6.563,15.467,10.251,24.749,10.251s18.185-3.688,24.749-10.251l250.37-250.371c13.668-13.669,13.668-35.829,0-49.498
		C693.437,450.457,671.276,450.457,657.608,464.125z"/>
</g>
</svg>
