<?xml version="1.0" encoding="iso-8859-1"?>
<!-- Generator: Adobe Illustrator 18.0.0, SVG Export Plug-In . SVG Version: 6.00 Build 0)  -->
<!DOCTYPE svg PUBLIC "-//W3C//DTD SVG 1.1//EN" "http://www.w3.org/Graphics/SVG/1.1/DTD/svg11.dtd">
<svg version="1.1" id="Capa_1" xmlns="http://www.w3.org/2000/svg" xmlns:xlink="http://www.w3.org/1999/xlink" x="0px" y="0px"
	 viewBox="0 0 1000 1000" style="enable-background:new 0 0 1000 1000;" xml:space="preserve">
<g>
	<path style="fill:#211915;stroke:#000000;stroke-miterlimit:10;" d="M786.89,133.749h-83.047
		c-19.458-12.714-40.643-21.985-60.224-28.687c-9.142-24.011-23.754-45.623-42.56-62.55c-27.602-24.846-62.853-38.53-99.259-38.53
		c-36.407,0-71.657,13.683-99.259,38.53c-18.806,16.928-33.418,38.54-42.56,62.55c-19.582,6.702-40.766,15.974-60.224,28.688H216.71
		c-52.383,0-95,42.617-95,95v670.128c0,52.383,42.617,95,95,95h570.18c52.383,0,95-42.617,95-95V228.749
		C881.89,176.366,839.272,133.749,786.89,133.749z M420.866,145.91c0.802-4.168,1.877-8.225,3.181-12.161
		c11.548-34.861,41.993-59.767,77.753-59.767s66.205,24.906,77.753,59.767c1.304,3.936,2.379,7.992,3.182,12.161
		c1.826,9.493,9.105,16.957,18.454,19.42c33.936,8.943,61.6,22.326,79.249,38.419c2.783,2.537,5.325,5.14,7.595,7.805
		c11.195,13.148,1.963,33.361-15.306,33.361H330.873c-17.269,0-26.5-20.213-15.306-33.361c2.27-2.666,4.812-5.268,7.595-7.805
		c17.649-16.093,45.313-29.477,79.249-38.419C411.76,162.866,419.039,155.403,420.866,145.91z M811.89,898.877
		c0,13.808-11.193,25-25,25H216.711c-13.807,0-25-11.192-25-25V228.749c0-13.807,11.193-25,25-25h26.43
		c-0.828,3.469-1.461,6.994-1.874,10.568c-1.902,16.467,0.781,33.156,7.761,48.264c6.964,15.076,17.9,27.912,31.625,37.12
		c14.836,9.953,32.202,15.214,50.221,15.214h341.854c18.019,0,35.385-5.261,50.221-15.215c13.726-9.208,24.662-22.044,31.626-37.12
		c6.979-15.108,9.662-31.798,7.761-48.264c-0.413-3.574-1.047-7.099-1.875-10.567h26.43c13.807,0,25,11.193,25,25L811.89,898.877
		L811.89,898.877z"/>
	<path style="fill:#211915;stroke:#000000;stroke-miterlimit:10;" d="M501.8,181.703c19.512,0,35.33-15.817,35.33-35.33
		c0-4.449-0.831-8.703-2.332-12.624c-5.083-13.275-17.936-22.706-32.999-22.706c-15.062,0-27.916,9.43-32.998,22.706
		c-1.501,3.921-2.332,8.175-2.332,12.624C466.471,165.886,482.288,181.703,501.8,181.703z"/>
	<path style="fill:#211915;stroke:#000000;stroke-miterlimit:10;" d="M312.773,457.726h178c19.33,0,35-15.67,35-35s-15.67-35-35-35
		h-178c-19.33,0-35,15.67-35,35S293.443,457.726,312.773,457.726z"/>
	<path style="fill:#211915;stroke:#000000;stroke-miterlimit:10;" d="M690.828,576.483H312.773c-19.33,0-35,15.67-35,35
		s15.67,35,35,35h378.055c19.33,0,35-15.67,35-35S710.158,576.483,690.828,576.483z"/>
	<path style="fill:#211915;stroke:#000000;stroke-miterlimit:10;" d="M582.653,766h-269.88c-19.33,0-35,15.67-35,35s15.67,35,35,35
		h269.88c19.33,0,35-15.67,35-35S601.983,766,582.653,766z"/>
</g>
</svg>
