<?xml version="1.0" encoding="iso-8859-1"?>
<!-- Generator: Adobe Illustrator 18.0.0, SVG Export Plug-In . SVG Version: 6.00 Build 0)  -->
<!DOCTYPE svg PUBLIC "-//W3C//DTD SVG 1.1//EN" "http://www.w3.org/Graphics/SVG/1.1/DTD/svg11.dtd">
<svg version="1.1" id="Capa_1" xmlns="http://www.w3.org/2000/svg" xmlns:xlink="http://www.w3.org/1999/xlink" x="0px" y="0px"
	 viewBox="0 0 1000 1000" style="enable-background:new 0 0 1000 1000;" xml:space="preserve">
<g>
	<path style="fill:#211915;stroke:#000000;stroke-miterlimit:10;" d="M160.942,839.058c44.014,44.014,95.286,78.578,152.393,102.732
		C372.496,966.813,435.299,979.5,500,979.5s127.504-12.688,186.665-37.71c57.107-24.154,108.379-58.718,152.393-102.732
		c44.014-44.014,78.579-95.286,102.733-152.393c25.022-59.161,37.71-121.964,37.71-186.665s-12.688-127.504-37.71-186.665
		c-24.154-57.107-58.719-108.379-102.733-152.393c-44.014-44.014-95.286-78.578-152.393-102.732
		C627.504,33.186,564.701,20.499,500,20.499s-127.504,12.688-186.665,37.71c-57.107,24.154-108.379,58.718-152.393,102.732
		S82.363,256.227,58.209,313.334C33.187,372.496,20.499,435.299,20.499,500s12.688,127.504,37.71,186.665
		C82.363,743.772,116.928,795.044,160.942,839.058z M500,90.499c226.161,0,409.501,183.34,409.501,409.501
		S726.161,909.501,500,909.501S90.499,726.161,90.499,500S273.839,90.499,500,90.499z"/>
	<path style="fill:#211915;stroke:#000000;stroke-miterlimit:10;" d="M321.839,678.161c6.834,6.834,15.791,10.251,24.749,10.251
		c8.957,0,17.915-3.417,24.749-10.251L500,549.497l128.664,128.664c6.834,6.834,15.792,10.251,24.749,10.251
		c8.958,0,17.915-3.417,24.749-10.251c13.668-13.668,13.668-35.829,0-49.497L549.497,500l128.664-128.664
		c13.668-13.668,13.668-35.829,0-49.497c-13.668-13.669-35.829-13.669-49.497,0L500,450.503L371.336,321.839
		c-13.668-13.669-35.83-13.669-49.497,0c-13.668,13.668-13.668,35.829,0,49.497L450.503,500L321.839,628.664
		C308.171,642.332,308.171,664.493,321.839,678.161z"/>
</g>
</svg>
