<?xml version="1.0" encoding="iso-8859-1"?>
<!-- Generator: Adobe Illustrator 18.0.0, SVG Export Plug-In . SVG Version: 6.00 Build 0)  -->
<!DOCTYPE svg PUBLIC "-//W3C//DTD SVG 1.1//EN" "http://www.w3.org/Graphics/SVG/1.1/DTD/svg11.dtd">
<svg version="1.1" id="Capa_1" xmlns="http://www.w3.org/2000/svg" xmlns:xlink="http://www.w3.org/1999/xlink" x="0px" y="0px"
	 viewBox="0 0 1000 1000" style="enable-background:new 0 0 1000 1000;" xml:space="preserve">
<path style="fill:#211915;stroke:#000000;stroke-miterlimit:10;" d="M947.097,416.808c-14.547-19.047-31.905-35.631-51.593-49.289
	c-9.248-6.416-18.913-12.118-28.933-17.076c0.246-4.617,0.37-9.238,0.37-13.857c0-35.14-6.897-69.266-20.502-101.429
	c-13.125-31.031-31.9-58.886-55.804-82.789s-51.758-42.678-82.789-55.803c-32.163-13.604-66.289-20.502-101.429-20.502
	c-44.005,0-87.527,11.203-125.862,32.397c-24.804,13.713-47.282,31.499-66.401,52.397c-25.763-10.917-53.434-17.005-81.697-17.843
	c-2.217-0.066-4.471-0.1-6.699-0.1c-30.269-0.002-59.77,5.979-87.69,17.78c-26.817,11.334-50.976,27.513-71.803,48.087
	c-20.87,20.617-37.354,44.618-48.995,71.338c-12.147,27.884-18.443,57.444-18.713,87.858c-0.031,3.479,0.019,6.962,0.146,10.441
	c-23.961,17.123-44.425,38.879-60.086,64.056C16.752,477.626,5.113,518.159,4.959,559.691c-0.112,30.084,5.791,59.377,17.545,87.066
	c11.24,26.479,27.322,50.328,47.801,70.882c20.731,20.809,44.901,37.182,71.837,48.665c27.997,11.936,57.617,17.987,88.036,17.987
	h533.538c31.183,0,61.527-6.205,90.193-18.442c27.596-11.781,52.338-28.583,73.54-49.938c20.952-21.103,37.378-45.587,48.82-72.771
	c11.954-28.4,17.903-58.44,17.682-89.287c-0.181-25.172-4.443-49.915-12.668-73.542
	C973.328,457.461,961.826,436.096,947.097,416.808z M763.716,714.292H230.178c-84.889,0-155.535-69.453-155.22-154.34
	c0.22-59.084,33.768-110.306,82.822-135.857c9.648-5.025,15.123-15.655,13.213-26.363c-1.686-9.446-2.527-19.184-2.439-29.134
	c0.76-85.793,71.922-155.689,157.191-155.682c1.537,0,3.091,0.023,4.636,0.069c30.291,0.898,58.415,10.39,82.051,26.103
	c4.314,2.868,9.201,4.253,14.021,4.253c7.995,0,15.807-3.812,20.514-11c34.022-51.949,92.716-86.277,159.451-86.277
	c105.224,0,190.523,85.299,190.523,190.523c0,13.014-1.324,25.714-3.824,37.987c-2.562,12.578,4.95,25.101,17.258,28.748
	c65.314,19.354,113.064,79.563,113.578,151.036C924.585,642.319,851.68,714.292,763.716,714.292z"/>
</svg>
