<?xml version="1.0" encoding="iso-8859-1"?>
<!-- Generator: Adobe Illustrator 18.0.0, SVG Export Plug-In . SVG Version: 6.00 Build 0)  -->
<!DOCTYPE svg PUBLIC "-//W3C//DTD SVG 1.1//EN" "http://www.w3.org/Graphics/SVG/1.1/DTD/svg11.dtd">
<svg version="1.1" id="Capa_1" xmlns="http://www.w3.org/2000/svg" xmlns:xlink="http://www.w3.org/1999/xlink" x="0px" y="0px"
	 viewBox="0 0 1000 1000" style="enable-background:new 0 0 1000 1000;" xml:space="preserve">
<path style="fill:#211915;stroke:#000000;stroke-miterlimit:10;" d="M406.843,199.141c-18.658-18.659-43.469-28.937-69.858-28.937
	s-51.199,10.276-69.858,28.936L34.437,431.83c-38.52,38.52-38.52,101.196,0,139.716L271.849,808.96
	c18.661,18.66,43.47,28.936,69.858,28.936s51.197-10.276,69.857-28.935c38.521-38.521,38.521-101.198,0.002-139.718L244.011,501.689
	l162.831-162.831C445.363,300.337,445.362,237.661,406.843,199.141z M357.345,289.36L165.377,481.328
	c-11.245,11.245-11.245,29.477,0,40.722l196.691,196.69c11.245,11.245,11.245,29.477,0,40.722l0,0
	c-5.623,5.622-12.992,8.434-20.361,8.434s-14.738-2.812-20.361-8.434L83.934,522.05c-11.245-11.245-11.245-29.477,0-40.722
	l232.69-232.69c5.623-5.622,12.991-8.434,20.361-8.434s14.738,2.812,20.361,8.434l0,0C368.59,259.883,368.59,278.115,357.345,289.36
	z"/>
<path style="fill:#211915;stroke:#000000;stroke-miterlimit:10;" d="M732.883,199.141c-18.66-18.66-43.469-28.936-69.858-28.936
	c-26.388,0-51.198,10.276-69.857,28.935c-38.521,38.522-38.521,101.199-0.001,139.718l162.831,162.831L588.443,669.243
	c-18.66,18.66-28.937,43.47-28.937,69.858c0,26.39,10.277,51.199,28.937,69.859c18.659,18.659,43.469,28.936,69.858,28.936
	c26.388,0,51.198-10.276,69.857-28.935l237.414-237.414c38.519-38.521,38.519-101.197,0.001-139.716L732.883,199.141z
	 M916.075,522.05L678.662,759.462c-5.622,5.622-12.991,8.434-20.361,8.434s-14.739-2.812-20.361-8.434l0,0
	c-11.245-11.245-11.245-29.477,0-40.722l196.691-196.69c11.245-11.245,11.245-29.477,0-40.722L642.664,289.36
	c-11.245-11.245-11.245-29.477,0-40.722l0,0c5.623-5.622,12.992-8.434,20.361-8.434s14.738,2.812,20.361,8.434l232.69,232.69
	C927.32,492.573,927.32,510.805,916.075,522.05z"/>
</svg>
