<?xml version="1.0" encoding="iso-8859-1"?>
<!-- Generator: Adobe Illustrator 18.0.0, SVG Export Plug-In . SVG Version: 6.00 Build 0)  -->
<!DOCTYPE svg PUBLIC "-//W3C//DTD SVG 1.1//EN" "http://www.w3.org/Graphics/SVG/1.1/DTD/svg11.dtd">
<svg version="1.1" id="Capa_1" xmlns="http://www.w3.org/2000/svg" xmlns:xlink="http://www.w3.org/1999/xlink" x="0px" y="0px"
	 viewBox="0 0 1000 1000" style="enable-background:new 0 0 1000 1000;" xml:space="preserve">
<path style="stroke:#000000;stroke-miterlimit:10;" d="M612.786,19.604H387.214c-52.605,0-95.402,42.797-95.402,95.402v16.795
	h-88.55c-52.383,0-95,42.617-95,95v62.889c0,31.988,15.894,60.333,40.197,77.557l44.13,526.089
	c1.997,23.803,12.779,45.816,30.361,61.985c17.582,16.168,40.42,25.073,64.306,25.073h425.488c23.886,0,46.724-8.905,64.306-25.073
	c17.582-16.169,28.365-38.182,30.361-61.985l44.578-531.435c0.128-1.532,0.215-3.063,0.269-4.593
	c17.485-17.239,28.343-41.183,28.343-67.619V226.8c0-52.383-42.617-95-95-95h-77.413v-16.795
	C708.188,62.402,665.391,19.604,612.786,19.604z M810.601,226.802v48.525v14.364c0,13.807-11.193,25-25,25H203.262
	c-13.807,0-25-11.193-25-25v-5.546v-57.343c0-13.807,11.193-25,25-25h88.55h416.377h77.413
	C799.408,201.802,810.601,212.995,810.601,226.802z M737.657,887.485c-1.086,12.952-11.916,22.91-24.913,22.91H287.256
	c-12.997,0-23.826-9.958-24.913-22.91l-42.176-502.794h559.665L737.657,887.485z M361.812,131.802v-16.795
	c0-14.029,11.373-25.402,25.402-25.402h225.572c14.029,0,25.402,11.373,25.402,25.402v16.795H361.812z"/>
</svg>
