<?xml version="1.0" encoding="iso-8859-1"?>
<!-- Generator: Adobe Illustrator 18.0.0, SVG Export Plug-In . SVG Version: 6.00 Build 0)  -->
<!DOCTYPE svg PUBLIC "-//W3C//DTD SVG 1.1//EN" "http://www.w3.org/Graphics/SVG/1.1/DTD/svg11.dtd">
<svg version="1.1" id="Capa_1" xmlns="http://www.w3.org/2000/svg" xmlns:xlink="http://www.w3.org/1999/xlink" x="0px" y="0px"
	 viewBox="0 0 1000 1000" style="enable-background:new 0 0 1000 1000;" xml:space="preserve">
<g>
	<path style="fill:#211915;stroke:#000000;stroke-miterlimit:10;" d="M23.968,815.385c-0.014,25.449,9.891,49.375,27.887,67.369
		l65.585,65.586c17.982,17.982,41.89,27.885,67.319,27.885c25.467,0,49.398-9.927,67.388-27.953l122.028-122.275
		c15.938,11.314,34.875,17.411,54.689,17.411c24.337,0,47.54-9.154,65.335-25.776c2.034-1.9,3.957-3.891,5.801-5.94
		c1.844,2.049,3.767,4.039,5.801,5.94c17.795,16.622,40.998,25.776,65.335,25.776c19.814,0,38.752-6.097,54.689-17.412
		l122.028,122.275c17.989,18.025,41.921,27.952,67.388,27.952c25.43,0,49.337-9.903,67.318-27.885l65.588-65.588
		c17.994-17.992,27.898-41.918,27.885-67.367c-0.013-25.45-9.94-49.365-27.955-67.342L824.821,625.045
		c18.058-26.203,21.974-59.969,9.513-90.19c-5.633-13.66-14.154-25.466-24.685-34.854c10.529-9.387,19.051-21.193,24.684-34.851
		c12.464-30.225,8.549-63.99-9.512-90.195l123.256-122.998c18.015-17.976,27.942-41.892,27.955-67.341
		c0.014-25.449-9.891-49.375-27.887-67.369L882.561,51.66c-17.982-17.982-41.89-27.885-67.319-27.885
		c-25.467,0-49.398,9.927-67.388,27.953L625.825,174.003c-15.935-11.311-34.872-17.41-54.684-17.411
		c-24.34-0.002-47.545,9.153-65.341,25.776c-2.034,1.9-3.956,3.89-5.801,5.94c-1.844-2.049-3.767-4.039-5.801-5.94
		c-17.795-16.622-40.998-25.776-65.335-25.776c-19.814,0-38.752,6.097-54.689,17.411L252.146,51.728
		c-17.989-18.025-41.921-27.952-67.387-27.952c0,0-0.003,0-0.005,0c-25.429,0.002-49.335,9.905-67.314,27.885l-65.588,65.588
		c-17.994,17.992-27.898,41.918-27.885,67.367c0.013,25.45,9.94,49.365,27.955,67.342l123.256,122.998
		c-18.058,26.203-21.974,59.969-9.513,90.191c5.633,13.659,14.154,25.466,24.685,34.854c-10.529,9.387-19.051,21.193-24.684,34.851
		c-12.464,30.225-8.549,63.99,9.512,90.194L51.923,748.043C33.908,766.02,23.98,789.935,23.968,815.385z M499.835,496.775
		c0.057-0.059,0.108-0.122,0.165-0.182c0.057,0.059,0.108,0.122,0.165,0.182c1.056,1.106,2.14,2.18,3.249,3.225
		c-1.109,1.045-2.193,2.12-3.249,3.225c-0.057,0.059-0.108,0.122-0.165,0.181c-0.056-0.059-0.107-0.121-0.163-0.18
		c-1.057-1.106-2.142-2.182-3.251-3.227C497.695,498.955,498.779,497.88,499.835,496.775z M898.632,797.593
		c9.86,9.84,9.869,25.812,0.019,35.661l-65.588,65.588c-4.921,4.921-11.372,7.382-17.821,7.382c-6.459,0-12.916-2.467-17.84-7.4
		L644.687,745.801c-4.922-4.932-11.382-7.399-17.84-7.4c-6.439-0.001-12.876,2.451-17.796,7.357l-20.3,20.243
		c-5.131,5.116-11.434,7.407-17.615,7.407c-12.958,0-25.386-10.064-25.385-25.256l0.016-183.169
		c-0.479-10.419,7.856-19.046,18.172-19.046c0.283,0,0.567,0.007,0.854,0.02l181.525-0.015
		c22.494-0.002,33.723,27.228,17.767,43.082l-19.354,19.23c-9.904,9.84-9.921,25.857-0.039,35.719L898.632,797.593z
		 M571.136,226.592c6.182,0,12.484,2.291,17.615,7.407l20.3,20.243c4.92,4.906,11.356,7.357,17.796,7.357
		c6.458,0,12.918-2.468,17.84-7.4l152.715-153.023c4.924-4.933,11.381-7.4,17.84-7.4c6.449,0,12.9,2.461,17.821,7.382l65.588,65.588
		c9.851,9.85,9.842,25.822-0.019,35.661L744.69,356.026c-9.882,9.862-9.865,25.878,0.039,35.719l19.354,19.23
		c15.956,15.854,4.728,43.084-17.767,43.082l-181.525-0.015c-0.286,0.013-0.57,0.02-0.854,0.02
		c-10.315,0-18.651-8.627-18.172-19.045l-0.016-183.169C545.75,236.656,558.178,226.591,571.136,226.592z M101.368,202.407
		c-9.86-9.84-9.869-25.812-0.019-35.661l65.588-65.588c4.921-4.921,11.372-7.382,17.821-7.382c6.459,0,12.916,2.467,17.84,7.4
		l152.715,153.023c4.922,4.932,11.382,7.4,17.84,7.4c6.439,0,12.876-2.451,17.796-7.357l20.3-20.243
		c5.131-5.116,11.434-7.407,17.615-7.407c12.958,0,25.386,10.064,25.385,25.256l-0.016,183.169
		c0.479,10.419-7.856,19.045-18.172,19.045c-0.283,0-0.567-0.006-0.854-0.02l-181.525,0.015
		c-22.494,0.002-33.723-27.228-17.767-43.082l19.354-19.23c9.904-9.84,9.921-25.857,0.039-35.719L101.368,202.407z M101.368,797.593
		L255.31,643.974c9.882-9.862,9.865-25.878-0.039-35.719l-19.354-19.23c-15.956-15.854-4.728-43.084,17.767-43.082l181.525,0.015
		c0.286-0.013,0.57-0.02,0.854-0.02c10.315,0,18.651,8.627,18.172,19.046l0.016,183.169c0.001,15.192-12.427,25.256-25.385,25.256
		c-6.182,0-12.484-2.291-17.615-7.407l-20.3-20.243c-4.92-4.906-11.356-7.357-17.796-7.357c-6.458,0-12.918,2.468-17.84,7.4
		L202.599,898.825c-4.924,4.933-11.381,7.4-17.84,7.4c-6.449,0-12.9-2.461-17.821-7.382l-65.588-65.588
		C91.499,823.405,91.508,807.432,101.368,797.593z"/>
</g>
</svg>
