<?xml version="1.0" encoding="iso-8859-1"?>
<!-- Generator: Adobe Illustrator 18.0.0, SVG Export Plug-In . SVG Version: 6.00 Build 0)  -->
<!DOCTYPE svg PUBLIC "-//W3C//DTD SVG 1.1//EN" "http://www.w3.org/Graphics/SVG/1.1/DTD/svg11.dtd">
<svg version="1.1" id="Capa_1" xmlns="http://www.w3.org/2000/svg" xmlns:xlink="http://www.w3.org/1999/xlink" x="0px" y="0px"
	 viewBox="0 0 1000 1000" style="enable-background:new 0 0 1000 1000;" xml:space="preserve">
<g>
	<path style="fill:#211915;stroke:#000000;stroke-miterlimit:10;" d="M947.64,143.205l-0.737-0.739
		c-0.132-0.133-0.265-0.265-0.399-0.397L855.072,51.85c-17.826-17.782-41.39-27.57-66.399-27.57
		c-24.094,0-47.067,9.06-64.686,25.511c-9.264,8.649-16.561,18.89-21.688,30.436c-5.369,12.091-8.091,25.01-8.09,38.396
		l0.008,101.904c-0.361,21.494,7.849,42.566,22.725,58.141c15.421,16.145,37.065,25.405,59.382,25.405
		c0.484,0,0.97-0.004,1.456-0.013l103.087,0.008c38.243,0.003,72.428-22.818,87.09-58.14
		C982.62,210.607,974.644,170.285,947.64,143.205z M880.874,234.068l-103.98-0.008c-0.191,0.009-0.38,0.013-0.569,0.013
		c-6.872,0-12.426-5.748-12.108-12.689l-0.008-102.766c-0.001-14.648,11.979-24.337,24.464-24.337c5.99,0,12.098,2.232,17.051,7.217
		l0,0l91.614,90.398l0.735,0.737C913.34,207.943,902.495,234.07,880.874,234.068z"/>
	<path style="fill:#211915;stroke:#000000;stroke-miterlimit:10;" d="M119.124,304.068l103.095-0.008
		c0.486,0.009,0.972,0.013,1.456,0.013c22.318,0,43.962-9.26,59.383-25.406c14.875-15.574,23.084-36.644,22.725-58.135
		l0.008-101.909c0.001-13.385-2.721-26.303-8.089-38.394c-5.126-11.545-12.422-21.785-21.684-30.434
		c-17.619-16.452-40.588-25.514-64.681-25.515c-0.002,0-0.001,0-0.003,0c-0.001,0-0.002,0-0.004,0
		c-25.014,0.005-48.561,9.784-66.381,27.55l-91.452,90.239c-0.131,0.13-0.262,0.26-0.392,0.39l-0.735,0.737
		c-27.012,27.088-34.988,67.408-20.328,102.729C46.7,281.245,80.882,304.068,119.124,304.068z M101.927,192.633l0.735-0.737
		l91.614-90.398l0,0c4.953-4.985,11.061-7.217,17.051-7.217c12.485-0.001,24.465,9.689,24.464,24.337l-0.008,102.766
		c0.319,6.942-5.235,12.689-12.108,12.689c-0.189,0-0.378-0.004-0.569-0.013l-103.98,0.008
		C97.505,234.07,86.66,207.943,101.927,192.633z"/>
	<path style="fill:#211915;stroke:#000000;stroke-miterlimit:10;" d="M723.987,950.822c17.619,16.451,40.592,25.511,64.686,25.511
		c25.001,0,48.554-9.779,66.379-27.55l91.452-90.239c0.133-0.132,0.266-0.264,0.399-0.397l0.735-0.737
		c27.005-27.081,34.981-67.401,20.322-102.722c-14.66-35.321-48.842-58.144-87.083-58.144l-103.095,0.008
		c-0.486-0.009-0.972-0.013-1.456-0.013c-22.317,0-43.961,9.26-59.382,25.405c-14.877,15.576-23.086,36.647-22.725,58.141
		l-0.008,101.904c-0.001,13.386,2.721,26.304,8.09,38.396C707.426,931.932,714.723,942.172,723.987,950.822z M764.217,779.229
		c-0.319-6.942,5.235-12.689,12.108-12.689c0.189,0,0.378,0.004,0.569,0.013l103.98-0.008c21.621-0.002,32.466,26.125,17.199,41.436
		l-0.735,0.737l-91.614,90.398c-4.953,4.985-11.061,7.217-17.051,7.217c-12.485,0-24.465-9.689-24.464-24.337L764.217,779.229z"/>
	<path style="fill:#211915;stroke:#000000;stroke-miterlimit:10;" d="M53.104,858.154c0.13,0.13,0.261,0.26,0.392,0.39
		l91.452,90.239c17.825,17.771,41.378,27.55,66.379,27.55c24.094,0,47.067-9.06,64.686-25.511
		c9.264-8.65,16.561-18.89,21.688-30.436c5.369-12.092,8.091-25.01,8.09-38.396l-0.008-101.909
		c0.359-21.491-7.849-42.56-22.724-58.134c-15.421-16.146-37.065-25.406-59.382-25.407c-0.001,0-0.001,0-0.001,0
		c-0.484,0-0.97,0.004-1.457,0.013l-103.087-0.008c-38.243-0.003-72.428,22.818-87.09,58.14s-6.686,75.643,20.318,102.724
		L53.104,858.154z M119.126,766.544l103.98,0.008c0.191-0.009,0.38-0.013,0.569-0.013c6.873,0,12.427,5.748,12.108,12.689
		l0.008,102.766c0.001,14.648-11.979,24.337-24.464,24.337c-5.99,0-12.098-2.232-17.051-7.217l-91.614-90.398l-0.735-0.737
		C86.66,792.67,97.505,766.542,119.126,766.544z"/>
	<path style="fill:#211915;stroke:#000000;stroke-miterlimit:10;" d="M734.743,606.54V393.46c0-52.383-42.617-95-95-95H360.257
		c-52.383,0-95,42.617-95,95v213.08c0,52.383,42.617,95,95,95h279.485C692.126,701.54,734.743,658.923,734.743,606.54z
		 M664.743,606.54c0,13.807-11.193,25-25,25H360.257c-13.807,0-25-11.193-25-25V393.46c0-13.807,11.193-25,25-25h279.485
		c13.807,0,25,11.193,25,25v213.08H664.743z"/>
</g>
</svg>
