<?xml version="1.0" encoding="iso-8859-1"?>
<!-- Generator: Adobe Illustrator 18.0.0, SVG Export Plug-In . SVG Version: 6.00 Build 0)  -->
<!DOCTYPE svg PUBLIC "-//W3C//DTD SVG 1.1//EN" "http://www.w3.org/Graphics/SVG/1.1/DTD/svg11.dtd">
<svg version="1.1" id="Capa_1" xmlns="http://www.w3.org/2000/svg" xmlns:xlink="http://www.w3.org/1999/xlink" x="0px" y="0px"
	 viewBox="0 0 1000 1000" style="enable-background:new 0 0 1000 1000;" xml:space="preserve">
<path style="fill:#211915;stroke:#000000;stroke-miterlimit:10;" d="M15.312,499.5c0,65.401,12.825,128.884,38.118,188.684
	c24.415,57.725,59.354,109.552,103.844,154.042s96.317,79.429,154.042,103.844c59.8,25.293,123.282,38.118,188.684,38.118
	s128.884-12.825,188.684-38.118c57.725-24.415,109.552-59.354,154.042-103.844s79.429-96.317,103.844-154.042
	c25.293-59.8,38.118-123.282,38.118-188.684s-12.825-128.884-38.118-188.684c-24.415-57.725-59.354-109.552-103.844-154.042
	S746.408,77.346,688.684,52.931C628.884,27.638,565.401,14.812,500,14.812S371.116,27.638,311.316,52.931
	c-57.725,24.415-109.552,59.354-154.042,103.844S77.846,253.092,53.431,310.816C28.138,370.616,15.312,434.099,15.312,499.5z
	 M183.063,232.062l55.307,55.307c6.834,6.834,15.792,10.251,24.749,10.251s17.914-3.417,24.749-10.251
	c13.668-13.669,13.668-35.829,0-49.498l-55.307-55.307C304.763,121.576,398.088,84.812,500,84.812
	c229.025,0,414.688,185.662,414.688,414.688c0,101.912-36.764,195.237-97.751,267.438l-55.307-55.307
	c-13.668-13.668-35.828-13.668-49.498,0c-13.668,13.669-13.668,35.829,0,49.498l55.307,55.307
	C695.237,877.424,601.912,914.188,500,914.188c-229.025,0-414.688-185.662-414.688-414.688
	C85.312,397.588,122.076,304.263,183.063,232.062z"/>
<path style="fill:#211915;stroke:#000000;stroke-miterlimit:10;" d="M267.891,756.186c12.799,8.15,27.545,12.458,42.644,12.458
	c16.13,0,31.749-4.885,45.167-14.126l223.295-153.78c8.729-6.008,16.22-13.497,22.244-22.246l153.776-223.288
	c16.838-24.447,18.756-55.892,5.005-82.061c-6.487-12.344-16.139-22.831-27.91-30.328c-12.8-8.15-27.546-12.458-42.645-12.458
	c-16.133,0-31.753,4.886-45.174,14.129L421.004,398.263c-8.747,6.024-16.234,13.514-22.254,22.261L244.983,643.797
	c-16.839,24.452-18.755,55.896-5.003,82.062C246.468,738.203,256.119,748.689,267.891,756.186z M302.634,683.501l153.78-223.293
	c1.157-1.682,2.612-3.137,4.294-4.295l223.293-153.779c1.798-1.238,3.672-1.777,5.466-1.777c6.971,0,12.712,8.155,7.899,15.143
	l-153.78,223.293c-1.157,1.681-2.612,3.137-4.294,4.294l-223.293,153.78c-1.798,1.238-3.672,1.777-5.465,1.777
	C303.563,698.644,297.822,690.488,302.634,683.501z"/>
<circle style="fill:#211915;stroke:#000000;stroke-miterlimit:10;" cx="500" cy="499.5" r="35.383"/>
</svg>
