<?xml version="1.0" encoding="iso-8859-1"?>
<!-- Generator: Adobe Illustrator 18.0.0, SVG Export Plug-In . SVG Version: 6.00 Build 0)  -->
<!DOCTYPE svg PUBLIC "-//W3C//DTD SVG 1.1//EN" "http://www.w3.org/Graphics/SVG/1.1/DTD/svg11.dtd">
<svg version="1.1" id="Capa_1" xmlns="http://www.w3.org/2000/svg" xmlns:xlink="http://www.w3.org/1999/xlink" x="0px" y="0px"
	 viewBox="0 0 1000 1000" style="enable-background:new 0 0 1000 1000;" xml:space="preserve">
<path style="fill:#211915;stroke:#000000;stroke-miterlimit:10;" d="M132,14.028c-19.33,0-35,15.67-35,35v168.809H70
	c-19.33,0-35,15.67-35,35s15.67,35,35,35h27v663.136c0,19.33,15.67,35,35,35s35-15.67,35-35V287.836h27c19.33,0,35-15.67,35-35
	s-15.67-35-35-35h-27V49.028C167,29.698,151.33,14.028,132,14.028z"/>
<path style="fill:#211915;stroke:#000000;stroke-miterlimit:10;" d="M377.333,14.028c-19.33,0-35,15.67-35,35v415.057h-26.085
	c-19.33,0-35,15.67-35,35c0,19.33,15.67,35,35,35h26.085v416.888c0,19.33,15.67,35,35,35s35-15.67,35-35V534.085h27.915
	c19.33,0,35-15.67,35-35s-15.67-35-35-35h-27.915V49.028C412.333,29.698,396.664,14.028,377.333,14.028z"/>
<path style="fill:#211915;stroke:#000000;stroke-miterlimit:10;" d="M587.667,49.028v173.577h-29.938c-19.33,0-35,15.67-35,35
	s15.67,35,35,35h29.938v658.368c0,19.33,15.67,35,35,35s35-15.67,35-35V292.604h24.062c19.33,0,35-15.67,35-35s-15.67-35-35-35
	h-24.062V49.028c0-19.33-15.67-35-35-35S587.667,29.698,587.667,49.028z"/>
<path style="fill:#211915;stroke:#000000;stroke-miterlimit:10;" d="M903,634.704V49.028c0-19.33-15.67-35-35-35s-35,15.67-35,35
	v585.676h-25.729c-19.33,0-35,15.67-35,35s15.67,35,35,35H833v246.269c0,19.33,15.67,35,35,35s35-15.67,35-35V704.704h28.271
	c19.33,0,35-15.67,35-35s-15.67-35-35-35H903z"/>
</svg>
