<?xml version="1.0" encoding="iso-8859-1"?>
<!-- Generator: Adobe Illustrator 18.0.0, SVG Export Plug-In . SVG Version: 6.00 Build 0)  -->
<!DOCTYPE svg PUBLIC "-//W3C//DTD SVG 1.1//EN" "http://www.w3.org/Graphics/SVG/1.1/DTD/svg11.dtd">
<svg version="1.1" id="Capa_1" xmlns="http://www.w3.org/2000/svg" xmlns:xlink="http://www.w3.org/1999/xlink" x="0px" y="0px"
	 viewBox="0 0 1000 1000" style="enable-background:new 0 0 1000 1000;" xml:space="preserve">
<g>
	<path style="fill:#211915;stroke:#000000;stroke-miterlimit:10;" d="M908.59,367.948c-22.344-52.826-54.304-100.242-94.994-140.932
		c-40.689-40.689-88.105-72.65-140.932-94.993c-32.848-13.894-67.043-23.706-102.078-29.314c-1.355-6.736-3.442-13.298-6.251-19.637
		c-5.139-11.596-12.45-21.89-21.731-30.597c-17.772-16.673-40.964-25.856-65.302-25.856c-23.608,0-46.29,8.829-63.866,24.862
		L297.9,156.869c-17.596,16.051-27.688,38.916-27.688,62.732s10.092,46.681,27.687,62.732l115.536,105.388
		c17.576,16.033,40.258,24.863,63.867,24.863c24.34,0,47.532-9.182,65.304-25.856c9.281-8.708,16.593-19.002,21.731-30.599
		c0.449-1.012,0.879-2.031,1.29-3.054c27.863,9.689,53.217,25.618,74.755,47.156c37.498,37.498,58.148,87.353,58.148,140.382
		s-20.651,102.884-58.148,140.382c-37.498,37.497-87.353,58.148-140.382,58.148s-102.884-20.651-140.381-58.148
		c-37.498-37.498-58.148-87.353-58.148-140.382c0-19.398,2.753-38.482,8.183-56.722c6.805-22.86,4.799-47.26-5.649-68.702
		c-10.444-21.434-28.414-38.048-50.6-46.782l-51.306-20.196c-11.136-4.385-22.841-6.609-34.782-6.61
		c-20.081-0.002-39.316,6.218-55.625,17.987c-16.773,12.103-28.905,28.949-35.084,48.717c-13.337,42.664-20.1,87.179-20.1,132.31
		c0,59.818,11.743,117.911,34.902,172.665c22.344,52.826,54.304,100.242,94.994,140.932c40.689,40.689,88.105,72.65,140.932,94.993
		c54.753,23.159,112.846,34.902,172.664,34.902s117.911-11.743,172.666-34.903c52.825-22.343,100.242-54.303,140.931-94.994
		c40.689-40.689,72.65-88.105,94.994-140.931c23.159-54.754,34.902-112.847,34.902-172.665
		C943.493,480.795,931.75,422.702,908.59,367.948z M844.12,686.009c-18.814,44.481-45.737,84.419-80.021,118.703
		s-74.221,61.207-118.703,80.021c-46.079,19.49-94.998,29.373-145.396,29.373s-99.317-9.882-145.396-29.373
		c-44.481-18.814-84.419-45.737-118.703-80.021s-61.207-74.221-80.021-118.703c-19.49-46.08-29.373-94.999-29.373-145.396
		c0-38.129,5.68-75.496,16.912-111.425c3.37-10.781,13.289-17.589,23.891-17.589c3.039,0,6.136,0.56,9.148,1.746l51.304,20.196
		c12.07,4.752,18.501,17.946,14.8,30.379c-7.368,24.753-11.092,50.459-11.092,76.694c0,71.727,27.932,139.16,78.651,189.879
		C360.839,781.21,428.273,809.142,500,809.142s139.161-27.932,189.879-78.651c50.719-50.719,78.651-118.152,78.651-189.879
		s-27.932-139.161-78.651-189.879c-43.508-43.509-99.32-70.234-159.589-76.954c-0.951-0.106-1.893-0.158-2.826-0.158
		c-13.622,0-25.007,11.032-25.007,25.005v18.908c0,14.984-12.273,25.049-25.155,25.049c-5.794,0-11.713-2.037-16.693-6.579
		L345.074,230.617c-6.483-5.913-6.483-16.118,0-22.032l115.535-105.387c4.98-4.543,10.897-6.579,16.693-6.579
		c12.881,0,25.155,10.066,25.155,25.049v21.394c0,13.14,10.172,24.045,23.283,24.932c41.32,2.796,81.464,12.344,119.657,28.499
		c44.481,18.814,84.419,45.737,118.703,80.021s61.207,74.221,80.021,118.703c19.49,46.08,29.373,94.998,29.373,145.396
		C873.493,591.01,863.61,639.929,844.12,686.009z"/>
</g>
</svg>
