<?xml version="1.0" encoding="iso-8859-1"?>
<!-- Generator: Adobe Illustrator 18.0.0, SVG Export Plug-In . SVG Version: 6.00 Build 0)  -->
<!DOCTYPE svg PUBLIC "-//W3C//DTD SVG 1.1//EN" "http://www.w3.org/Graphics/SVG/1.1/DTD/svg11.dtd">
<svg version="1.1" id="Capa_1" xmlns="http://www.w3.org/2000/svg" xmlns:xlink="http://www.w3.org/1999/xlink" x="0px" y="0px"
	 viewBox="0 0 1000 1000" style="enable-background:new 0 0 1000 1000;" xml:space="preserve">
<path style="stroke:#000000;stroke-miterlimit:10;" d="M897,134.917H103c-52.383,0-95,42.617-95,95V739c0,52.383,42.617,95,95,95
	h794c52.383,0,95-42.617,95-95V229.917C992,177.534,949.383,134.917,897,134.917z M78,229.917c0-13.807,11.193-25,25-25h794
	c13.807,0,25,11.193,25,25V281H78V229.917z M922,394.646H78V351h844V394.646z M922,739c0,13.807-11.193,25-25,25H103
	c-13.807,0-25-11.193-25-25V464.646h844V739z"/>
<path style="stroke:#000000;stroke-miterlimit:10;" d="M762.271,725.688h22.907c52.383,0,95-42.617,95-95V607.78
	c0-52.383-42.617-95-95-95h-22.907c-52.383,0-95,42.617-95,95v22.908C667.271,683.071,709.889,725.688,762.271,725.688z
	 M737.271,607.78c0-13.807,11.192-25,25-25h22.907c13.807,0,25,11.193,25,25v22.908c0,13.807-11.193,25-25,25h-22.907
	c-13.808,0-25-11.193-25-25V607.78z"/>
</svg>
