<?xml version="1.0" encoding="iso-8859-1"?>
<!-- Generator: Adobe Illustrator 18.0.0, SVG Export Plug-In . SVG Version: 6.00 Build 0)  -->
<!DOCTYPE svg PUBLIC "-//W3C//DTD SVG 1.1//EN" "http://www.w3.org/Graphics/SVG/1.1/DTD/svg11.dtd">
<svg version="1.1" id="Capa_1" xmlns="http://www.w3.org/2000/svg" xmlns:xlink="http://www.w3.org/1999/xlink" x="0px" y="0px"
	 viewBox="0 0 1000 1000" style="enable-background:new 0 0 1000 1000;" xml:space="preserve">
<path style="stroke:#000000;stroke-miterlimit:10;" d="M892.023,323.899c7.646-18.854,11.523-38.756,11.523-59.153
	s-3.877-40.299-11.523-59.153c-7.931-19.557-19.554-37.075-34.547-52.068c-14.991-14.992-32.51-26.616-52.067-34.547
	c-18.855-7.646-38.757-11.523-59.155-11.523c-20.397,0-40.299,3.877-59.154,11.523c-19.557,7.931-37.075,19.554-52.068,34.547
	L510,278.557L384.968,153.525c-14.993-14.993-32.511-26.617-52.068-34.547c-18.855-7.646-38.757-11.523-59.154-11.523
	s-40.3,3.877-59.154,11.523c-19.557,7.931-37.075,19.555-52.068,34.548c-14.992,14.992-26.615,32.51-34.546,52.067
	c-7.646,18.854-11.522,38.756-11.522,59.153s3.876,40.299,11.522,59.153c7.93,19.557,19.554,37.075,34.547,52.068L287.556,501
	L162.524,626.032c-14.993,14.993-26.616,32.512-34.547,52.069c-7.646,18.854-11.522,38.756-11.522,59.153
	c0,20.397,3.877,40.299,11.522,59.153c7.931,19.557,19.554,37.075,34.547,52.068c14.992,14.992,32.51,26.616,52.067,34.547
	c18.854,7.646,38.756,11.523,59.154,11.523c20.397,0,40.299-3.877,59.154-11.523c19.557-7.931,37.075-19.554,52.069-34.547
	L510,723.444l125.032,125.032c14.993,14.993,32.511,26.617,52.069,34.547c18.854,7.646,38.756,11.523,59.154,11.523
	c20.397,0,40.299-3.877,59.154-11.523c19.557-7.931,37.075-19.555,52.069-34.548c14.992-14.992,26.615-32.51,34.546-52.067
	c7.646-18.854,11.523-38.757,11.523-59.153c0-20.397-3.877-40.299-11.523-59.153c-7.931-19.557-19.554-37.076-34.547-52.069
	L732.444,501l125.032-125.032C872.469,360.975,884.092,343.456,892.023,323.899z M807.978,326.47L651.126,483.323
	c-9.763,9.763-9.763,25.592,0,35.355L807.978,675.53c34.09,34.089,34.09,89.359,0,123.448
	c-17.045,17.045-39.384,25.568-61.724,25.568s-44.679-8.522-61.725-25.568L527.678,642.126c-4.882-4.881-11.28-7.322-17.678-7.322
	s-12.796,2.441-17.678,7.322L335.47,798.978c-17.045,17.045-39.385,25.568-61.725,25.568s-44.679-8.522-61.724-25.568
	c-34.09-34.089-34.09-89.359,0-123.448l156.852-156.852c9.763-9.763,9.763-25.592,0-35.355L212.022,326.47
	c-34.09-34.09-34.09-89.359,0-123.448c17.044-17.045,39.384-25.568,61.724-25.568s44.68,8.523,61.725,25.568l156.852,156.852
	c4.882,4.882,11.28,7.322,17.678,7.322c6.398,0,12.796-2.441,17.678-7.322L684.53,203.022
	c17.045-17.045,39.385-25.568,61.725-25.568s44.679,8.523,61.724,25.568C842.068,237.111,842.068,292.381,807.978,326.47z"/>
</svg>
