<?xml version="1.0" encoding="iso-8859-1"?>
<!-- Generator: Adobe Illustrator 18.0.0, SVG Export Plug-In . SVG Version: 6.00 Build 0)  -->
<!DOCTYPE svg PUBLIC "-//W3C//DTD SVG 1.1//EN" "http://www.w3.org/Graphics/SVG/1.1/DTD/svg11.dtd">
<svg version="1.1" id="Capa_1" xmlns="http://www.w3.org/2000/svg" xmlns:xlink="http://www.w3.org/1999/xlink" x="0px" y="0px"
	 viewBox="0 0 1000 1000" style="enable-background:new 0 0 1000 1000;" xml:space="preserve">
<path style="stroke:#000000;stroke-miterlimit:10;" d="M849.908,159.762c-44.124-44.124-95.525-78.775-152.775-102.99
	C637.824,31.687,574.864,18.968,510,18.968S382.176,31.687,322.867,56.772c-57.25,24.215-108.651,58.865-152.775,102.99
	s-78.775,95.525-102.99,152.775c-25.085,59.309-37.804,122.27-37.804,187.133s12.719,127.824,37.805,187.133
	c24.215,57.25,58.865,108.651,102.99,152.776c44.124,44.124,95.525,78.775,152.775,102.99
	c59.308,25.085,122.269,37.805,187.133,37.805s127.824-12.719,187.133-37.805c57.25-24.215,108.651-58.865,152.775-102.99
	c44.124-44.125,78.775-95.525,102.99-152.776c25.085-59.308,37.805-122.269,37.805-187.133s-12.72-127.824-37.805-187.133
	C928.683,255.287,894.032,203.886,849.908,159.762z M545,908.895V747.812c0-19.33-15.67-35-35-35s-35,15.67-35,35v161.083
	C276.097,892.108,117.562,733.573,100.775,534.67h161.083c19.33,0,35-15.67,35-35s-15.67-35-35-35H100.775
	C117.562,265.767,276.097,107.232,475,90.445v161.083c0,19.33,15.67,35,35,35c19.33,0,35-15.67,35-35V90.445
	c198.903,16.787,357.438,175.321,374.225,374.225H758.142c-19.33,0-35,15.67-35,35s15.67,35,35,35h161.083
	C902.438,733.573,743.903,892.108,545,908.895z"/>
<circle style="stroke:#000000;stroke-miterlimit:10;" cx="510" cy="498.357" r="35"/>
</svg>
