<?xml version="1.0" encoding="iso-8859-1"?>
<!-- Generator: Adobe Illustrator 18.0.0, SVG Export Plug-In . SVG Version: 6.00 Build 0)  -->
<!DOCTYPE svg PUBLIC "-//W3C//DTD SVG 1.1//EN" "http://www.w3.org/Graphics/SVG/1.1/DTD/svg11.dtd">
<svg version="1.1" id="Capa_1" xmlns="http://www.w3.org/2000/svg" xmlns:xlink="http://www.w3.org/1999/xlink" x="0px" y="0px"
	 viewBox="0 0 1000 1000" style="enable-background:new 0 0 1000 1000;" xml:space="preserve">
<path style="stroke:#000000;stroke-miterlimit:10;" d="M918.854,771.415V229.473c0-9.487-5.369-18.156-13.863-22.382L511.12,11.103
	c-7.015-3.491-15.26-3.491-22.274,0L95.905,206.627c-8.493,4.226-13.863,12.896-13.863,22.382v542.405
	c0,9.49,5.373,18.161,13.871,22.386l393.406,195.585c7.01,3.485,15.249,3.485,22.259,0L904.983,793.8
	C913.481,789.576,918.854,780.904,918.854,771.415z M499.982,83.748L848.39,257.114l-10.566,5.258L499.982,430.479L162.14,262.371
	l-10.566-5.258L499.982,83.748z M453.204,502.488v390.77L152.042,743.532V352.763v-10.516l301.162,149.726L453.204,502.488
	L453.204,502.488z M848.854,352.763v390.769L547.692,893.258v-390.77v-10.516l301.162-149.726V352.763z"/>
</svg>
