<?xml version="1.0" encoding="iso-8859-1"?>
<!-- Generator: Adobe Illustrator 18.0.0, SVG Export Plug-In . SVG Version: 6.00 Build 0)  -->
<!DOCTYPE svg PUBLIC "-//W3C//DTD SVG 1.1//EN" "http://www.w3.org/Graphics/SVG/1.1/DTD/svg11.dtd">
<svg version="1.1" id="Capa_1" xmlns="http://www.w3.org/2000/svg" xmlns:xlink="http://www.w3.org/1999/xlink" x="0px" y="0px"
	 viewBox="0 0 1000 1000" style="enable-background:new 0 0 1000 1000;" xml:space="preserve">
<g>
	<path style="fill:#211915;stroke:#000000;stroke-miterlimit:10;" d="M17.143,188.099v703.872c0,52.383,42.617,95,95,95h775.713
		c52.383,0,95-42.617,95-95V188.099c0-52.383-42.617-95-95-95h-97.773v-50.07c0-19.33-15.67-35-35-35s-35,15.67-35,35v50.069
		H279.916V43.029c0-19.33-15.67-35-35-35s-35,15.67-35,35v50.069h-97.772C59.76,93.099,17.143,135.716,17.143,188.099z
		 M912.857,891.971c0,13.807-11.193,25-25,25H112.143c-13.807,0-25-11.193-25-25V346.099h825.713L912.857,891.971L912.857,891.971z
		 M244.916,238.039c19.33,0,35-15.67,35-35v-39.94h440.168v39.94c0,19.33,15.67,35,35,35s35-15.67,35-35v-39.94h97.773
		c13.807,0,25,11.192,25,25v88H87.143v-88c0-13.808,11.193-25,25-25h97.772v39.94C209.916,222.369,225.585,238.039,244.916,238.039z
		"/>
	<path style="fill:#211915;stroke:#000000;stroke-miterlimit:10;" d="M266.947,510.583c3.375,0,6.809-0.493,10.205-1.526
		l17.942-5.462v301.128c0,19.33,15.67,35,35,35s35-15.67,35-35V456.856v-0.502c0-0.232-0.013-0.461-0.018-0.692
		c-0.007-0.328-0.009-0.656-0.025-0.985c-0.029-0.613-0.073-1.223-0.133-1.828c-0.016-0.16-0.039-0.321-0.057-0.481
		c-0.044-0.389-0.091-0.777-0.148-1.162c-0.059-0.395-0.129-0.788-0.202-1.183c-0.028-0.15-0.051-0.302-0.081-0.452
		c-0.147-0.741-0.328-1.481-0.525-2.221c-0.068-0.256-0.138-0.51-0.211-0.763c-0.041-0.142-0.075-0.283-0.118-0.425
		c-0.136-0.448-0.288-0.888-0.441-1.326c-0.098-0.281-0.2-0.561-0.305-0.839c-0.207-0.549-0.426-1.09-0.657-1.623
		c-0.106-0.244-0.214-0.486-0.326-0.728c-0.314-0.679-0.64-1.35-0.992-2c-1.89-3.487-4.33-6.559-7.171-9.145
		c-0.024-0.021-0.046-0.044-0.07-0.065c-0.322-0.293-0.654-0.574-0.987-0.855c-0.112-0.094-0.22-0.19-0.333-0.283
		c-0.247-0.203-0.502-0.396-0.755-0.594c-0.208-0.16-0.413-0.325-0.624-0.481c-0.162-0.12-0.329-0.233-0.493-0.351
		c-0.31-0.222-0.62-0.443-0.938-0.654c-0.07-0.046-0.141-0.09-0.211-0.136c-3.642-2.391-7.752-4.126-12.168-5.024
		c-0.724-0.147-1.458-0.264-2.198-0.365c-0.262-0.036-0.525-0.069-0.788-0.1c-0.584-0.067-1.173-0.12-1.766-0.157
		c-0.282-0.019-0.564-0.034-0.847-0.045c-0.469-0.02-0.939-0.036-1.413-0.036c-0.15,0-0.297,0.01-0.447,0.012
		c-0.261,0.003-0.523,0.01-0.785,0.02c-0.764,0.026-1.524,0.069-2.275,0.144c-0.157,0.017-0.315,0.039-0.472,0.057
		c-0.393,0.045-0.785,0.092-1.174,0.149c-0.385,0.058-0.771,0.126-1.156,0.197c-0.16,0.029-0.321,0.055-0.48,0.086
		c-0.597,0.118-1.193,0.255-1.789,0.405c-0.314,0.079-0.622,0.171-0.932,0.258c-0.227,0.064-0.455,0.12-0.682,0.189l-0.471,0.144
		l-62.663,19.075c-18.492,5.63-28.92,25.184-23.291,43.676C238.072,500.861,251.945,510.583,266.947,510.583z"/>
	<path style="fill:#211915;stroke:#000000;stroke-miterlimit:10;" d="M542.668,822.065c22.458,11.717,46.4,17.657,71.158,17.657
		s48.7-5.94,71.158-17.657c21.083-10.999,39.887-26.583,55.887-46.318c31.711-39.113,49.175-90.683,49.175-145.209
		s-17.464-106.096-49.175-145.209c-16-19.734-34.804-35.318-55.887-46.317c-22.458-11.717-46.4-17.657-71.158-17.657
		s-48.699,5.94-71.158,17.657c-21.083,10.999-39.887,26.583-55.887,46.317c-31.711,39.113-49.175,90.683-49.175,145.209
		s17.464,106.096,49.175,145.209C502.782,795.482,521.584,811.066,542.668,822.065z M541.156,529.414
		c19.898-24.543,45.707-38.06,72.67-38.06c26.964,0,52.772,13.517,72.671,38.06c21.635,26.685,33.55,62.598,33.55,101.124
		s-11.915,74.439-33.55,101.125c-19.898,24.543-45.707,38.06-72.671,38.06c-26.964,0-52.772-13.517-72.67-38.06
		c-21.635-26.686-33.55-62.599-33.55-101.125S519.521,556.099,541.156,529.414z"/>
</g>
</svg>
