<?xml version="1.0" encoding="iso-8859-1"?>
<!-- Generator: Adobe Illustrator 18.0.0, SVG Export Plug-In . SVG Version: 6.00 Build 0)  -->
<!DOCTYPE svg PUBLIC "-//W3C//DTD SVG 1.1//EN" "http://www.w3.org/Graphics/SVG/1.1/DTD/svg11.dtd">
<svg version="1.1" id="Capa_1" xmlns="http://www.w3.org/2000/svg" xmlns:xlink="http://www.w3.org/1999/xlink" x="0px" y="0px"
	 viewBox="0 0 1000 1000" style="enable-background:new 0 0 1000 1000;" xml:space="preserve">
<path style="stroke:#000000;stroke-miterlimit:10;" d="M637.388,634.469c17.485-17.485,31.221-37.865,40.826-60.574
	c9.96-23.548,15.01-48.52,15.01-74.225s-5.05-50.678-15.01-74.225c-9.605-22.709-23.341-43.089-40.826-60.574
	s-37.865-31.221-60.574-40.826c-23.548-9.96-48.521-15.01-74.225-15.01s-50.677,5.05-74.225,15.01
	c-22.709,9.605-43.089,23.341-60.574,40.826c-17.485,17.485-31.221,37.865-40.826,60.574c-9.96,23.548-15.01,48.521-15.01,74.225
	s5.05,50.677,15.01,74.225c9.605,22.709,23.341,43.089,40.826,60.574c17.485,17.485,37.865,31.221,60.574,40.826
	c23.548,9.96,48.521,15.01,74.225,15.01s50.677-5.05,74.225-15.01C599.523,665.69,619.903,651.954,637.388,634.469z
	 M502.589,379.035c66.625,0,120.635,54.01,120.635,120.635s-54.01,120.635-120.635,120.635s-120.635-54.01-120.635-120.635
	C381.954,433.045,435.964,379.035,502.589,379.035z"/>
<path style="stroke:#000000;stroke-miterlimit:10;" d="M503.678,728.193c-19.278,0-34.937,15.598-34.998,34.891l-0.279,89.11
	c-0.061,19.33,15.561,35.049,34.891,35.109c0.038,0,0.074,0,0.112,0c19.278,0,34.937-15.598,34.998-34.891l0.279-89.11
	c0.061-19.33-15.561-35.049-34.891-35.109C503.752,728.193,503.715,728.193,503.678,728.193z"/>
<path style="stroke:#000000;stroke-miterlimit:10;" d="M501.491,271.147c0.095,0,0.193,0,0.289-0.001
	c19.329-0.157,34.872-15.953,34.716-35.282l-0.721-89.11c-0.156-19.329-15.931-34.853-35.282-34.716
	c-19.33,0.157-34.872,15.953-34.716,35.282l0.721,89.11C466.654,255.665,482.292,271.147,501.491,271.147z"/>
<path style="stroke:#000000;stroke-miterlimit:10;" d="M149.453,465.983c-19.278,0-34.937,15.599-34.998,34.891
	c-0.061,19.33,15.561,35.049,34.891,35.109l89.11,0.279c0.038,0,0.074,0,0.112,0c19.278,0,34.937-15.599,34.998-34.891
	c0.061-19.33-15.561-35.049-34.891-35.109l-89.11-0.279C149.527,465.983,149.491,465.983,149.453,465.983z"/>
<path style="stroke:#000000;stroke-miterlimit:10;" d="M889.721,498.074c-0.156-19.233-15.794-34.717-34.993-34.717
	c-0.095,0-0.193,0-0.289,0.001l-89.11,0.721c-19.329,0.156-34.872,15.953-34.716,35.282c0.156,19.233,15.794,34.717,34.993,34.717
	c0.095,0,0.193,0,0.289-0.001l89.11-0.721C874.334,533.2,889.877,517.404,889.721,498.074z"/>
<path style="stroke:#000000;stroke-miterlimit:10;" d="M253.668,784.947c8.92,0,17.843-3.389,24.67-10.174l63.208-62.813
	c13.711-13.625,13.781-35.786,0.155-49.497c-13.625-13.712-35.786-13.781-49.497-0.155l-63.208,62.813
	c-13.711,13.625-13.781,35.786-0.155,49.497C235.682,781.502,244.674,784.947,253.668,784.947z"/>
<path style="stroke:#000000;stroke-miterlimit:10;" d="M712.957,337.461l62.501-63.521c13.557-13.779,13.378-35.938-0.4-49.496
	c-13.779-13.558-35.938-13.377-49.496,0.4l-62.501,63.521c-13.557,13.779-13.378,35.938,0.4,49.496
	c6.817,6.708,15.683,10.052,24.546,10.052C697.059,347.913,706.107,344.422,712.957,337.461z"/>
<path style="stroke:#000000;stroke-miterlimit:10;" d="M314.625,349.457c8.92,0,17.843-3.389,24.67-10.174
	c13.711-13.625,13.781-35.786,0.155-49.497l-62.813-63.208c-13.625-13.712-35.787-13.781-49.497-0.155
	c-13.711,13.625-13.781,35.786-0.155,49.497l62.813,63.208C296.639,346.012,305.631,349.457,314.625,349.457z"/>
<path style="stroke:#000000;stroke-miterlimit:10;" d="M727.818,773.039c6.817,6.708,15.683,10.052,24.546,10.052
	c9.052,0,18.1-3.491,24.95-10.452c13.557-13.779,13.378-35.938-0.4-49.496l-63.52-62.5c-13.779-13.558-35.938-13.377-49.496,0.4
	c-13.557,13.779-13.378,35.938,0.4,49.496L727.818,773.039z"/>
</svg>
