<?xml version="1.0" encoding="iso-8859-1"?>
<!-- Generator: Adobe Illustrator 18.0.0, SVG Export Plug-In . SVG Version: 6.00 Build 0)  -->
<!DOCTYPE svg PUBLIC "-//W3C//DTD SVG 1.1//EN" "http://www.w3.org/Graphics/SVG/1.1/DTD/svg11.dtd">
<svg version="1.1" id="Capa_1" xmlns="http://www.w3.org/2000/svg" xmlns:xlink="http://www.w3.org/1999/xlink" x="0px" y="0px"
	 viewBox="0 0 1000 1000" style="enable-background:new 0 0 1000 1000;" xml:space="preserve">
<path style="fill:#211915;stroke:#000000;stroke-miterlimit:10;" d="M947.639,486.631c-14.547-19.048-31.905-35.631-51.592-49.289
	c-9.248-6.416-18.913-12.118-28.933-17.076c0.246-4.616,0.37-9.238,0.37-13.856c0-35.14-6.898-69.266-20.502-101.429
	c-13.125-31.031-31.9-58.886-55.803-82.789c-23.903-23.904-51.758-42.679-82.789-55.804
	c-32.164-13.604-66.289-20.502-101.429-20.502c-44.004,0-87.527,11.203-125.862,32.397c-24.805,13.714-47.282,31.499-66.401,52.398
	c-25.764-10.918-53.434-17.005-81.699-17.844c-2.216-0.066-4.47-0.1-6.698-0.1c-30.269-0.002-59.77,5.979-87.69,17.78
	c-26.817,11.334-50.975,27.513-71.803,48.087c-20.87,20.617-37.354,44.618-48.995,71.338C105.665,377.826,99.369,407.386,99.1,437.8
	c-0.031,3.479,0.018,6.962,0.146,10.442c-23.96,17.123-44.425,38.878-60.086,64.056C17.295,547.449,5.656,587.981,5.502,629.514
	c-0.112,30.083,5.791,59.377,17.545,87.066c11.24,26.479,27.323,50.328,47.801,70.882c20.732,20.809,44.901,37.182,71.837,48.665
	c27.998,11.936,57.618,17.987,88.037,17.987H764.26c31.182,0,61.528-6.205,90.193-18.442c27.596-11.781,52.339-28.583,73.541-49.938
	c20.952-21.103,37.377-45.586,48.82-72.771c11.954-28.4,17.903-58.44,17.681-89.286c-0.181-25.172-4.443-49.916-12.668-73.542
	C973.871,527.284,962.368,505.918,947.639,486.631z M764.259,784.114H230.721c-84.888,0-155.535-69.452-155.219-154.34
	c0.22-59.084,33.767-110.307,82.822-135.858c9.648-5.025,15.123-15.654,13.213-26.363c-1.686-9.446-2.527-19.184-2.439-29.134
	c0.759-85.793,71.922-155.689,157.191-155.682c1.537,0,3.09,0.023,4.635,0.069c30.291,0.898,58.416,10.39,82.052,26.103
	c4.314,2.868,9.2,4.253,14.021,4.253c7.995,0,15.807-3.812,20.513-10.999c34.022-51.949,92.716-86.277,159.451-86.277
	c105.224,0,190.524,85.3,190.524,190.524c0,13.013-1.324,25.713-3.825,37.987c-2.562,12.578,4.951,25.1,17.258,28.747
	c65.314,19.354,113.064,79.563,113.578,151.036C925.128,712.141,852.223,784.114,764.259,784.114z"/>
<path style="fill:#211915;stroke:#000000;stroke-miterlimit:10;" d="M639.339,417.054c-13.668-13.668-35.829-13.669-49.497,0
	l-80.843,80.843l-80.843-80.843c-13.668-13.668-35.83-13.668-49.497,0c-13.668,13.669-13.668,35.829,0,49.498l80.843,80.843
	l-80.843,80.843c-13.668,13.669-13.668,35.829,0,49.498c6.834,6.834,15.791,10.251,24.749,10.251
	c8.957,0,17.915-3.417,24.749-10.251L509,596.893l80.843,80.843c6.834,6.834,15.792,10.251,24.749,10.251
	c8.958,0,17.915-3.417,24.749-10.251c13.668-13.669,13.668-35.829,0-49.498l-80.843-80.843l80.843-80.843
	C653.007,452.883,653.007,430.723,639.339,417.054z"/>
</svg>
