<?xml version="1.0" encoding="iso-8859-1"?>
<!-- Generator: Adobe Illustrator 18.0.0, SVG Export Plug-In . SVG Version: 6.00 Build 0)  -->
<!DOCTYPE svg PUBLIC "-//W3C//DTD SVG 1.1//EN" "http://www.w3.org/Graphics/SVG/1.1/DTD/svg11.dtd">
<svg version="1.1" id="Capa_1" xmlns="http://www.w3.org/2000/svg" xmlns:xlink="http://www.w3.org/1999/xlink" x="0px" y="0px"
	 viewBox="0 0 1000 1000" style="enable-background:new 0 0 1000 1000;" xml:space="preserve">
<path style="stroke:#000000;stroke-miterlimit:10;" d="M108.614,952.316H607.47c8.144,0,16.051-1.031,23.6-2.968
	c12.192,8.251,25.177,15.306,38.873,21.099c28.125,11.896,57.961,17.928,88.678,17.928s60.553-6.032,88.678-17.928
	c27.13-11.475,51.481-27.888,72.376-48.783c20.895-20.895,37.308-45.246,48.783-72.376c11.896-28.125,17.928-57.96,17.928-88.678
	s-6.032-60.553-17.928-88.678c-11.475-27.13-27.888-51.481-48.783-72.376c-20.895-20.895-45.246-37.308-72.376-48.783
	c-28.125-11.896-57.961-17.928-88.678-17.928s-60.553,6.032-88.678,17.928c-10.067,4.258-19.749,9.199-29.016,14.793
	c-3.748-4.292-7.644-8.476-11.703-12.534c-22.944-22.944-49.681-40.966-79.469-53.565c-30.876-13.06-63.634-19.681-97.363-19.681
	H263.693c-33.73,0-66.487,6.622-97.364,19.681c-29.787,12.599-56.525,30.621-79.469,53.565s-40.966,49.682-53.565,79.47
	c-13.059,30.876-19.681,63.634-19.681,97.363v127.451C13.614,909.7,56.231,952.316,108.614,952.316z M452.392,549.787
	c53.692,0,101.885,23.506,134.878,60.779c-16.047,18.29-28.969,38.869-38.485,61.367c-11.896,28.125-17.928,57.96-17.928,88.678
	s6.032,60.553,17.928,88.678c4.877,11.531,10.655,22.554,17.281,33.028H108.614c-13.807,0-25-11.193-25-25V729.866
	c0-99.455,80.624-180.079,180.079-180.079L452.392,549.787L452.392,549.787z M758.621,602.846
	c87.131,0,157.764,70.634,157.764,157.765s-70.634,157.765-157.764,157.765c-24.313,0-47.338-5.504-67.905-15.328
	c-10.64-5.082-20.621-11.318-29.782-18.551c-10.694-8.444-20.268-18.243-28.464-29.139c-19.847-26.383-31.614-59.19-31.614-94.747
	c0-30.6,8.721-59.159,23.8-83.345c7.226-11.59,15.91-22.175,25.802-31.495c8.688-8.186,18.304-15.395,28.675-21.456
	C702.477,610.672,729.633,602.846,758.621,602.846z"/>
<path style="stroke:#000000;stroke-miterlimit:10;" d="M510.307,74.695c-19.753-19.753-42.775-35.27-68.425-46.119
	c-26.593-11.248-54.8-16.951-83.839-16.951s-57.247,5.703-83.839,16.951c-25.65,10.849-48.672,26.366-68.425,46.119
	s-35.27,42.775-46.119,68.425c-11.248,26.593-16.951,54.8-16.951,83.839s5.703,57.247,16.951,83.839
	c10.849,25.65,26.366,48.672,46.119,68.425s42.775,35.27,68.425,46.119c26.593,11.248,54.8,16.951,83.839,16.951
	s57.247-5.703,83.839-16.951c25.65-10.849,48.672-26.366,68.425-46.119s35.27-42.775,46.119-68.425
	c11.248-26.592,16.951-54.8,16.951-83.839s-5.703-57.247-16.951-83.839C545.577,117.47,530.06,94.448,510.307,74.695z
	 M358.042,372.293c-80.266,0-145.334-65.068-145.334-145.334S277.776,81.625,358.042,81.625s145.334,65.068,145.334,145.334
	C503.377,307.225,438.308,372.293,358.042,372.293z"/>
<path style="stroke:#000000;stroke-miterlimit:10;" d="M679.472,790.263c-13.668,13.668-13.668,35.829,0,49.497
	c6.389,6.389,14.633,9.79,22.999,10.207c0.583,0.029,1.166,0.045,1.75,0.045c8.958,0,17.915-3.417,24.749-10.251l29.652-29.652
	l29.652,29.652c6.834,6.834,15.791,10.251,24.749,10.251s17.915-3.417,24.749-10.251c13.668-13.668,13.668-35.829,0-49.497
	l-29.652-29.652l29.652-29.652c13.668-13.668,13.668-35.829,0-49.497c-13.668-13.669-35.829-13.669-49.497,0l-29.652,29.652
	l-29.652-29.652c-8.997-8.997-21.673-12.07-33.184-9.223c-5.977,1.479-11.641,4.551-16.313,9.223
	c-13.668,13.668-13.668,35.829,0,49.497l22.999,22.999l6.653,6.653l-6.653,6.653L679.472,790.263z"/>
</svg>
