<?xml version="1.0" encoding="iso-8859-1"?>
<!-- Generator: Adobe Illustrator 18.0.0, SVG Export Plug-In . SVG Version: 6.00 Build 0)  -->
<!DOCTYPE svg PUBLIC "-//W3C//DTD SVG 1.1//EN" "http://www.w3.org/Graphics/SVG/1.1/DTD/svg11.dtd">
<svg version="1.1" id="Capa_1" xmlns="http://www.w3.org/2000/svg" xmlns:xlink="http://www.w3.org/1999/xlink" x="0px" y="0px"
	 viewBox="0 0 1000 1000" style="enable-background:new 0 0 1000 1000;" xml:space="preserve">
<path style="fill:#211915;stroke:#000000;stroke-miterlimit:10;" d="M896.807,8.193H103.193c-52.383,0-95,42.617-95,95v793.614
	c0,52.383,42.617,95,95,95h793.614c52.383,0,95-42.617,95-95V103.193C991.807,50.81,949.19,8.193,896.807,8.193z M921.807,896.807
	c0,13.808-11.193,25-25,25H103.193c-13.807,0-25-11.192-25-25V103.193c0-13.807,11.193-25,25-25h793.614c13.807,0,25,11.193,25,25
	V896.807z"/>
<path style="fill:#211915;stroke:#000000;stroke-miterlimit:10;" d="M210.485,346.985h578.989c52.383,0,95-42.617,95-95v-44.968
	c0-52.383-42.617-95-95-95H210.485c-52.383,0-95,42.617-95,95v44.968C115.485,304.369,158.102,346.985,210.485,346.985z
	 M185.485,207.017c0-13.807,11.193-25,25-25h578.989c13.807,0,25,11.193,25,25v44.968c0,13.807-11.193,25-25,25H210.485
	c-13.807,0-25-11.193-25-25V207.017z"/>
<path style="fill:#211915;stroke:#000000;stroke-miterlimit:10;" d="M268.245,403.988h-57.759c-52.383,0-95,42.617-95,95v287.018
	c0,52.383,42.617,95,95,95h57.759c52.383,0,95-42.617,95-95V498.988C363.245,446.605,320.628,403.988,268.245,403.988z
	 M293.245,786.006c0,13.807-11.193,25-25,25h-57.759c-13.807,0-25-11.193-25-25V498.988c0-13.807,11.193-25,25-25h57.759
	c13.807,0,25,11.193,25,25V786.006z"/>
<path style="fill:#211915;stroke:#000000;stroke-miterlimit:10;" d="M791.249,403.988H524.98c-52.383,0-95,42.617-95,95V787.78
	c0,52.383,42.617,95,95,95h266.269c52.383,0,95-42.617,95-95V498.988C886.249,446.605,843.632,403.988,791.249,403.988z
	 M816.249,787.78c0,13.807-11.193,25-25,25H524.98c-13.807,0-25-11.193-25-25V498.988c0-13.807,11.193-25,25-25h266.269
	c13.807,0,25,11.193,25,25V787.78z"/>
</svg>
