<?xml version="1.0" encoding="iso-8859-1"?>
<!-- Generator: Adobe Illustrator 18.0.0, SVG Export Plug-In . SVG Version: 6.00 Build 0)  -->
<!DOCTYPE svg PUBLIC "-//W3C//DTD SVG 1.1//EN" "http://www.w3.org/Graphics/SVG/1.1/DTD/svg11.dtd">
<svg version="1.1" id="Capa_1" xmlns="http://www.w3.org/2000/svg" xmlns:xlink="http://www.w3.org/1999/xlink" x="0px" y="0px"
	 viewBox="0 0 1000 1000" style="enable-background:new 0 0 1000 1000;" xml:space="preserve">
<g>
	<path style="fill:#211915;stroke:#000000;stroke-miterlimit:10;" d="M110.144,983.079c0.084,0,0.201,0,0.296,0
		c0.031,0,0.062,0,0.093,0c3.696-0.016,6.709-0.275,8.653-0.469l252.919-25.119c19.382-1.925,37.52-9.392,52.454-21.596
		c13.829-11.301,24.333-26.213,30.377-43.127s7.37-35.106,3.835-52.613c-3.817-18.904-13.115-36.176-26.888-49.949l-15.216-15.216
		L774.99,416.667l15.216,15.216c18.586,18.586,43.205,28.822,69.322,28.822c23.476,0,46.239-8.387,64.095-23.615
		c19.314-16.473,31.342-39.552,33.868-64.985l25.122-252.952c0.193-1.937,0.451-4.942,0.466-8.62
		c0.101-25.012-9.566-48.545-27.221-66.272c-17.656-17.727-41.149-27.49-66.152-27.49h-0.027c-0.018,0-0.036,0-0.055,0
		c-4.015,0.003-7.285,0.298-9.395,0.52l-251.733,26.42c-19.318,2.028-37.373,9.564-52.216,21.793
		c-13.75,11.33-24.18,26.245-30.162,43.134c-5.982,16.888-7.265,35.043-3.711,52.502c3.836,18.846,13.123,36.066,26.856,49.8
		l13.92,13.92L224.86,583.182l-13.92-13.92c-18.586-18.585-43.205-28.821-69.324-28.821c-23.383,0-46.077,8.328-63.901,23.452
		c-19.272,16.352-31.348,39.295-34.004,64.602L17.29,880.239c-0.222,2.114-0.514,5.367-0.519,9.358
		c-0.028,24.954,9.673,48.424,27.318,66.089C61.733,973.351,85.192,983.079,110.144,983.079z M86.907,887.546l26.422-251.743
		c1.638-15.609,14.734-25.362,28.287-25.361c6.99,0,14.103,2.595,19.827,8.319l45.74,45.74c4.882,4.881,11.28,7.322,17.678,7.322
		s12.796-2.441,17.678-7.322L664.5,242.538c9.763-9.763,9.763-25.592,0-35.355l-45.739-45.74
		c-16.821-16.821-6.617-45.631,17.043-48.114l251.743-26.421c0.708-0.074,1.421-0.136,2.133-0.137c0.009,0,0.018,0,0.027,0
		c12.921,0,23.426,10.536,23.373,23.47c-0.003,0.666-0.058,1.332-0.124,1.994l-25.122,252.952
		c-1.558,15.689-14.699,25.518-28.305,25.518c-6.987,0-14.1-2.594-19.825-8.32l-47.036-47.036
		c-4.882-4.882-11.28-7.323-17.678-7.323c-6.398,0-12.796,2.441-17.678,7.323L335.35,757.312c-9.763,9.763-9.763,25.592,0,35.355
		l47.036,47.036c16.873,16.873,6.547,45.771-17.199,48.13l-252.952,25.122c-0.662,0.066-1.329,0.121-1.994,0.124
		c-0.032,0-0.065,0-0.097,0c-12.899,0-23.388-10.499-23.373-23.401C86.772,888.966,86.833,888.254,86.907,887.546z"/>
</g>
</svg>
