<?xml version="1.0" encoding="iso-8859-1"?>
<!-- Generator: Adobe Illustrator 18.0.0, SVG Export Plug-In . SVG Version: 6.00 Build 0)  -->
<!DOCTYPE svg PUBLIC "-//W3C//DTD SVG 1.1//EN" "http://www.w3.org/Graphics/SVG/1.1/DTD/svg11.dtd">
<svg version="1.1" id="Capa_1" xmlns="http://www.w3.org/2000/svg" xmlns:xlink="http://www.w3.org/1999/xlink" x="0px" y="0px"
	 viewBox="0 0 1000 1000" style="enable-background:new 0 0 1000 1000;" xml:space="preserve">
<g>
	<path style="fill:#211915;stroke:#000000;stroke-miterlimit:10;" d="M160.942,839.058c44.014,44.014,95.286,78.578,152.393,102.732
		C372.496,966.813,435.299,979.5,500,979.5s127.504-12.688,186.665-37.71c57.107-24.154,108.379-58.718,152.393-102.732
		c44.014-44.014,78.579-95.286,102.733-152.393c25.022-59.161,37.71-121.964,37.71-186.665s-12.688-127.504-37.71-186.665
		c-24.154-57.107-58.719-108.379-102.733-152.393c-44.014-44.014-95.286-78.578-152.393-102.732
		C627.504,33.186,564.701,20.499,500,20.499s-127.504,12.688-186.665,37.71c-57.107,24.154-108.379,58.718-152.393,102.732
		S82.363,256.227,58.209,313.334C33.187,372.496,20.499,435.299,20.499,500s12.688,127.504,37.71,186.665
		C82.363,743.772,116.928,795.044,160.942,839.058z M500,90.499c226.161,0,409.501,183.34,409.501,409.501
		S726.161,909.501,500,909.501S90.499,726.161,90.499,500S273.839,90.499,500,90.499z"/>
	<path style="fill:#211915;stroke:#000000;stroke-miterlimit:10;" d="M429.813,791.607c17.959,19.687,43.541,30.978,70.187,30.978
		s52.228-11.29,70.186-30.976l199.258-218.444c13.03-14.284,21.315-31.857,23.958-50.818c2.438-17.487-0.063-35.318-7.233-51.563
		c-7.17-16.246-18.658-30.11-33.221-40.094c-15.553-10.663-33.8-16.374-52.822-16.543V309.539c0-52.383-42.617-95-95-95H394.874
		c-52.383,0-95,42.617-95,95v104.607c-19.021,0.169-37.269,5.881-52.822,16.543c-14.563,9.984-26.05,23.848-33.221,40.094
		c-7.17,16.245-9.671,34.076-7.233,51.563c2.644,18.961,10.929,36.534,23.959,50.818L429.813,791.607z M300.743,484.142h44.131
		c13.807,0,25-11.193,25-25V309.539c0-13.807,11.193-25,25-25h210.253c13.807,0,25,11.193,25,25v149.603c0,13.807,11.193,25,25,25
		h44.131c21.724,0,33.11,25.798,18.47,41.848L518.47,744.432c-4.958,5.435-11.714,8.152-18.47,8.152s-13.513-2.717-18.47-8.152
		L282.272,525.99C267.632,509.94,279.019,484.142,300.743,484.142z"/>
</g>
</svg>
