<?xml version="1.0" encoding="iso-8859-1"?>
<!-- Generator: Adobe Illustrator 18.0.0, SVG Export Plug-In . SVG Version: 6.00 Build 0)  -->
<!DOCTYPE svg PUBLIC "-//W3C//DTD SVG 1.1//EN" "http://www.w3.org/Graphics/SVG/1.1/DTD/svg11.dtd">
<svg version="1.1" id="Capa_1" xmlns="http://www.w3.org/2000/svg" xmlns:xlink="http://www.w3.org/1999/xlink" x="0px" y="0px"
	 viewBox="0 0 1000 1000" style="enable-background:new 0 0 1000 1000;" xml:space="preserve">
<g>
	<path style="fill:#211915;stroke:#000000;stroke-miterlimit:10;" d="M161.219,839.058c44.014,44.014,95.286,78.578,152.393,102.733
		c59.161,25.023,121.964,37.71,186.665,37.71s127.504-12.688,186.665-37.71c57.107-24.154,108.379-58.718,152.393-102.733
		c44.014-44.014,78.579-95.286,102.733-152.393c25.022-59.161,37.71-121.964,37.71-186.665s-12.688-127.504-37.71-186.665
		c-24.154-57.107-58.719-108.379-102.733-152.393c-44.014-44.014-95.286-78.578-152.393-102.733
		c-59.161-25.023-121.964-37.71-186.665-37.71s-127.504,12.688-186.665,37.71c-57.107,24.154-108.379,58.718-152.393,102.733
		c-44.014,44.014-78.579,95.286-102.733,152.393C33.463,372.496,20.776,435.299,20.776,500s12.688,127.504,37.71,186.665
		C82.64,743.772,117.205,795.044,161.219,839.058z M500.277,90.499c226.161,0,409.501,183.34,409.501,409.501
		s-183.34,409.501-409.501,409.501S90.776,726.161,90.776,500S274.116,90.499,500.277,90.499z"/>
	<path style="fill:#211915;stroke:#000000;stroke-miterlimit:10;" d="M429.813,715.289c17.958,19.687,43.54,30.978,70.187,30.978
		c26.647,0,52.229-11.291,70.187-30.979l202.535-222.036c13.03-14.285,21.315-31.858,23.958-50.819
		c2.438-17.487-0.063-35.317-7.234-51.563c-7.17-16.245-18.657-30.11-33.22-40.093c-15.79-10.825-34.356-16.547-53.691-16.547
		H297.464c-19.335,0-37.901,5.722-53.691,16.547c-14.562,9.984-26.05,23.848-33.22,40.093s-9.672,34.075-7.234,51.563
		c2.643,18.961,10.928,36.534,23.958,50.819L429.813,715.289z M297.464,404.229h405.073c21.724,0,33.11,25.799,18.47,41.848
		L518.47,668.114c-4.957,5.435-11.714,8.152-18.47,8.152s-13.513-2.717-18.47-8.152L278.994,446.077
		C264.354,430.028,275.74,404.229,297.464,404.229z"/>
</g>
</svg>
