<?xml version="1.0" encoding="iso-8859-1"?>
<!-- Generator: Adobe Illustrator 18.0.0, SVG Export Plug-In . SVG Version: 6.00 Build 0)  -->
<!DOCTYPE svg PUBLIC "-//W3C//DTD SVG 1.1//EN" "http://www.w3.org/Graphics/SVG/1.1/DTD/svg11.dtd">
<svg version="1.1" id="Capa_1" xmlns="http://www.w3.org/2000/svg" xmlns:xlink="http://www.w3.org/1999/xlink" x="0px" y="0px"
	 viewBox="0 0 1000 1000" style="enable-background:new 0 0 1000 1000;" xml:space="preserve">
<g>
	<path style="fill:#211915;stroke:#000000;stroke-miterlimit:10;" d="M227.276,555.272L429.813,777.31
		c17.957,19.687,43.539,30.978,70.187,30.978s52.229-11.292,70.188-30.979l202.535-222.036
		c13.03-14.285,21.315-31.857,23.958-50.819c2.438-17.487-0.062-35.317-7.233-51.562c-7.17-16.246-18.657-30.11-33.22-40.094
		c-15.79-10.825-34.356-16.547-53.691-16.547H297.464c-19.335,0-37.901,5.722-53.691,16.547
		c-14.562,9.984-26.05,23.848-33.22,40.093s-9.672,34.076-7.234,51.563C205.962,523.415,214.246,540.988,227.276,555.272z
		 M297.464,466.251h405.072c21.724,0,33.11,25.798,18.471,41.848L518.47,730.136c-4.957,5.435-11.714,8.152-18.47,8.152
		c-6.757,0-13.513-2.717-18.47-8.152L278.993,508.099C264.354,492.049,275.74,466.251,297.464,466.251z"/>
	<path style="fill:#211915;stroke:#000000;stroke-miterlimit:10;" d="M112.144,968h775.713c52.383,0,95-42.617,95-95V125.128
		c0-52.383-42.617-95-95-95H112.144c-52.383,0-95,42.617-95,95V873C17.144,925.383,59.76,968,112.144,968z M912.856,873
		c0,13.807-11.192,25-25,25H112.144c-13.808,0-25-11.193-25-25V302.128h825.713L912.856,873L912.856,873z M87.144,125.128
		c0-13.807,11.192-25,25-25h775.713c13.808,0,25,11.193,25,25v107H87.144V125.128z"/>
</g>
</svg>
