<?xml version="1.0" encoding="iso-8859-1"?>
<!-- Generator: Adobe Illustrator 18.0.0, SVG Export Plug-In . SVG Version: 6.00 Build 0)  -->
<!DOCTYPE svg PUBLIC "-//W3C//DTD SVG 1.1//EN" "http://www.w3.org/Graphics/SVG/1.1/DTD/svg11.dtd">
<svg version="1.1" id="Capa_1" xmlns="http://www.w3.org/2000/svg" xmlns:xlink="http://www.w3.org/1999/xlink" x="0px" y="0px"
	 viewBox="0 0 1000 1000" style="enable-background:new 0 0 1000 1000;" xml:space="preserve">
<path style="fill:#211915;stroke:#000000;stroke-miterlimit:10;" d="M524.815,10.9h-48.331c-51.887,0-94.1,42.213-94.1,94.1v87.055
	H238.678c-43.14,0-80.923,29.141-91.884,70.865L28.613,712.859l-0.062,0.236c-0.088,0.335-0.156,0.672-0.234,1.009
	c-0.067,0.289-0.142,0.576-0.201,0.868c-0.135,0.664-0.252,1.33-0.349,1.997c-0.018,0.124-0.031,0.249-0.047,0.372
	c-0.065,0.488-0.121,0.977-0.166,1.465c-0.021,0.227-0.036,0.455-0.052,0.683c-0.028,0.39-0.05,0.78-0.065,1.17
	c-0.01,0.272-0.017,0.544-0.021,0.818c-0.002,0.17-0.013,0.339-0.013,0.51v163.025c0,52.383,42.617,95,95,95h755.194
	c52.383,0,95-42.617,95-95V721.987c0-0.171-0.01-0.339-0.013-0.51c-0.004-0.273-0.01-0.546-0.021-0.818
	c-0.015-0.39-0.037-0.78-0.065-1.17c-0.016-0.228-0.031-0.457-0.052-0.683c-0.045-0.489-0.101-0.977-0.166-1.465
	c-0.016-0.124-0.029-0.249-0.047-0.372c-0.097-0.667-0.214-1.333-0.349-1.998c-0.059-0.29-0.134-0.574-0.2-0.861
	c-0.078-0.338-0.147-0.677-0.235-1.014l-0.062-0.236L853.205,262.92c-10.96-41.724-48.744-70.864-91.883-70.864H618.915V105
	C618.915,53.113,576.702,10.9,524.815,10.9z M548.915,262.055v96.091c0,13.31,10.79,24.1,24.1,24.1h34.926
	c20.276,0,31.49,23.514,18.727,39.27L514.039,560.558c-0.451,0.558-0.912,1.11-1.427,1.609c-3.327,3.226-7.644,4.838-11.963,4.838
	c-4.339,0-8.678-1.628-12.011-4.885c-0.481-0.47-0.915-0.986-1.341-1.506L373.417,421.62c-12.89-15.733-1.697-39.374,18.642-39.374
	h36.224c13.31,0,24.1-10.79,24.1-24.1v-96.091v-70V105c0-13.31,10.79-24.1,24.1-24.1h48.331c13.31,0,24.1,10.79,24.1,24.1v87.055
	L548.915,262.055L548.915,262.055z M902.597,885.013c0,13.785-11.215,25-25,25H122.403c-13.785,0-25-11.215-25-25V756.987h805.194
	V885.013z M761.322,262.055c11.353,0,21.296,7.669,24.18,18.648l106.715,406.284H107.783l106.715-406.283
	c2.884-10.98,12.828-18.649,24.18-18.649h143.706v50.681c-15.157,1.54-29.64,6.695-42.352,15.135
	c-14.248,9.46-25.666,22.672-33.022,38.208c-7.355,15.536-10.339,32.742-8.627,49.758c1.85,18.386,9.072,35.727,20.887,50.147
	l113.88,138.994c1.408,1.718,3.613,4.326,6.577,7.22c16.369,15.994,38.008,24.809,60.922,24.809c22.787,0,44.341-8.73,60.69-24.583
	c3.235-3.138,5.604-5.965,7.106-7.82l112.616-139.027c11.701-14.445,18.822-31.775,20.592-50.118
	c1.639-16.982-1.396-34.14-8.776-49.617c-7.381-15.478-18.803-28.635-33.031-38.051c-12.318-8.151-26.295-13.223-40.931-14.914
	v-50.822L761.322,262.055L761.322,262.055z"/>
</svg>
