<?xml version="1.0" encoding="iso-8859-1"?>
<!-- Generator: Adobe Illustrator 18.0.0, SVG Export Plug-In . SVG Version: 6.00 Build 0)  -->
<!DOCTYPE svg PUBLIC "-//W3C//DTD SVG 1.1//EN" "http://www.w3.org/Graphics/SVG/1.1/DTD/svg11.dtd">
<svg version="1.1" id="Capa_1" xmlns="http://www.w3.org/2000/svg" xmlns:xlink="http://www.w3.org/1999/xlink" x="0px" y="0px"
	 viewBox="0 0 1000 1000" style="enable-background:new 0 0 1000 1000;" xml:space="preserve">
<path style="stroke:#000000;stroke-miterlimit:10;" d="M639.781,687.516c40.468-17.117,76.797-41.606,107.979-72.787
	c31.182-31.182,55.671-67.512,72.788-107.979c17.736-41.934,26.73-86.438,26.73-132.276V123.146c0-52.383-42.617-95-95-95H247.723
	c-52.383,0-95,42.617-95,95v251.326c0,45.838,8.993,90.343,26.729,132.276c17.117,40.468,41.606,76.798,72.788,107.979
	s67.511,55.67,107.979,72.787c33.496,14.167,68.635,22.738,104.781,25.621v189.029h-88.435c-19.33,0-35,15.67-35,35s15.67,35,35,35
	h246.869c19.33,0,35-15.67,35-35s-15.67-35-35-35H535V713.137C571.146,710.254,606.285,701.683,639.781,687.516z M222.723,123.146
	c0-13.808,11.193-25,25-25h504.554c13.807,0,25,11.192,25,25v251.326c0,148.991-120.781,269.772-269.772,269.772h-15.009
	c-148.991,0-269.772-120.781-269.772-269.772L222.723,123.146L222.723,123.146z"/>
<path style="stroke:#000000;stroke-miterlimit:10;" d="M500,610.194c62.791,0,121.824-24.452,166.224-68.853
	c44.399-44.399,68.852-103.432,68.852-166.223v-39.955c0-52.383-42.617-95-95-95h-280.15c-52.383,0-95,42.617-95,95v39.955
	c0,62.791,24.452,121.823,68.852,166.223C378.176,585.742,437.209,610.194,500,610.194z M334.925,335.164c0-13.785,11.215-25,25-25
	h280.15c13.785,0,25,11.215,25,25v39.955c0,91.022-74.053,165.075-165.075,165.075s-165.075-74.053-165.075-165.075L334.925,335.164
	L334.925,335.164z"/>
</svg>
