<?xml version="1.0" encoding="iso-8859-1"?>
<!-- Generator: Adobe Illustrator 18.0.0, SVG Export Plug-In . SVG Version: 6.00 Build 0)  -->
<!DOCTYPE svg PUBLIC "-//W3C//DTD SVG 1.1//EN" "http://www.w3.org/Graphics/SVG/1.1/DTD/svg11.dtd">
<svg version="1.1" id="Capa_1" xmlns="http://www.w3.org/2000/svg" xmlns:xlink="http://www.w3.org/1999/xlink" x="0px" y="0px"
	 viewBox="0 0 1000 1000" style="enable-background:new 0 0 1000 1000;" xml:space="preserve">
<path style="stroke:#000000;stroke-miterlimit:10;" d="M338.694,327.424c-29.23,12.931-55.05,33.03-74.961,58.758
	c-29.065,37.556-43.265,84.276-40.05,131.683L240.6,906.822l0.046,1.061l0.078,1.058c1.634,22.099,11.475,42.574,27.71,57.654
	c16.236,15.081,37.382,23.387,59.542,23.387h237.047c22.16,0,43.306-8.305,59.542-23.387c16.236-15.08,26.076-35.555,27.71-57.654
	l0.078-1.058l0.046-1.061l16.917-388.957c3.215-47.407-10.985-94.127-40.05-131.683c-19.911-25.728-45.73-45.827-74.961-58.758
	V189.472v-23.906c16.439-15.961,26.672-38.281,26.672-62.948v-2.656c0-48.398-39.375-87.772-87.772-87.772h-93.413
	c-48.397,0-87.772,39.374-87.772,87.772v2.656c0,24.668,10.233,46.988,26.672,62.948v23.906v137.952H338.694z M382.022,102.618
	v-2.656c0-9.815,7.957-17.772,17.772-17.772h93.413c9.815,0,17.772,7.957,17.772,17.772v2.656c0,7.853-5.099,14.503-12.162,16.854
	c-1.765,0.587-3.647,0.918-5.61,0.918h-93.413c-1.963,0-3.845-0.331-5.61-0.918C387.121,117.122,382.022,110.471,382.022,102.618z
	 M408.694,364.453V190.39h75.612v174.063c0,9.095,6.4,16.992,15.329,18.721c60.304,11.682,104.497,67.013,99.788,130.714
	l-16.957,389.893c-0.675,9.135-8.283,16.201-17.443,16.201H327.977c-9.159,0-16.767-7.067-17.443-16.201l-16.957-389.893
	c-4.708-63.7,39.484-119.031,99.788-130.714C402.293,381.445,408.694,373.548,408.694,364.453z"/>
<path style="stroke:#000000;stroke-miterlimit:10;" d="M425.657,613.595h41.686c52.383,0,95-42.617,95-95v-9.689
	c0-52.383-42.617-95-95-95h-41.686c-52.383,0-95,42.617-95,95v9.689C330.657,570.978,373.274,613.595,425.657,613.595z
	 M400.657,508.906c0-13.807,11.193-25,25-25h41.686c13.807,0,25,11.193,25,25v9.689c0,13.807-11.193,25-25,25h-41.686
	c-13.807,0-25-11.193-25-25V508.906z"/>
</svg>
