<?xml version="1.0" encoding="iso-8859-1"?>
<!-- Generator: Adobe Illustrator 18.0.0, SVG Export Plug-In . SVG Version: 6.00 Build 0)  -->
<!DOCTYPE svg PUBLIC "-//W3C//DTD SVG 1.1//EN" "http://www.w3.org/Graphics/SVG/1.1/DTD/svg11.dtd">
<svg version="1.1" id="Capa_1" xmlns="http://www.w3.org/2000/svg" xmlns:xlink="http://www.w3.org/1999/xlink" x="0px" y="0px"
	 viewBox="0 0 1000 1000" style="enable-background:new 0 0 1000 1000;" xml:space="preserve">
<path style="stroke:#000000;stroke-miterlimit:10;" d="M750.778,163.114h-84.339L684,102.296C687.279,90.935,697.83,83,709.655,83
	h95.513c19.33,0,35-15.67,35-35s-15.67-35-35-35h-95.513c-21.136,0-41.235,6.715-58.127,19.419s-28.919,30.152-34.782,50.459
	l-23.168,80.236H312.026c-52.775,0-95.711,42.936-95.711,95.711v53.844c0,34.016,17.836,63.942,44.647,80.921l43.389,504.69
	c1.848,23.981,12.531,46.195,30.135,62.619c17.783,16.591,40.971,25.728,65.292,25.728h263.247c24.321,0,47.508-9.137,65.291-25.728
	c17.599-16.42,28.282-38.624,30.134-62.6l43.391-504.71c26.811-16.979,44.647-46.905,44.647-80.921v-53.844
	C846.488,206.05,803.552,163.114,750.778,163.114z M776.488,312.669c0,14.199-11.511,25.711-25.71,25.711H736.33l-47.656,554.317
	c-0.936,13.477-12.14,23.93-25.649,23.93H399.779c-13.509,0-24.713-10.453-25.649-23.93L326.474,338.38h-14.448
	c-14.199,0-25.711-11.512-25.711-25.711v-53.844c0-14.199,11.511-25.711,25.711-25.711h261.34L503.801,474.04h-51.895h-76.004
	l6.24,75.747l20.316,246.62c1.757,24.041,12.387,46.325,29.991,62.83c17.806,16.695,41.055,25.89,65.464,25.89h66.978
	c24.409,0,47.657-9.194,65.464-25.89c17.604-16.505,28.234-38.789,29.991-62.83l20.316-246.62l6.24-75.747h-76.004H576.66
	l69.566-240.926h104.552c14.2,0,25.71,11.512,25.71,25.711V312.669z M610.898,544.04l-20.35,247.031
	c-0.872,13.528-12.1,24.056-25.657,24.056h-66.978c-13.557,0-24.785-10.527-25.657-24.056l-20.35-247.031L610.898,544.04
	L610.898,544.04z"/>
</svg>
