<?xml version="1.0" encoding="iso-8859-1"?>
<!-- Generator: Adobe Illustrator 18.0.0, SVG Export Plug-In . SVG Version: 6.00 Build 0)  -->
<!DOCTYPE svg PUBLIC "-//W3C//DTD SVG 1.1//EN" "http://www.w3.org/Graphics/SVG/1.1/DTD/svg11.dtd">
<svg version="1.1" id="Capa_1" xmlns="http://www.w3.org/2000/svg" xmlns:xlink="http://www.w3.org/1999/xlink" x="0px" y="0px"
	 viewBox="0 0 1000 1000" style="enable-background:new 0 0 1000 1000;" xml:space="preserve">
<path style="stroke:#000000;stroke-miterlimit:10;" d="M779.299,234.285c-33.434-63.061-71.302-114.038-112.552-151.515
	c-24.187-21.975-49.568-39.181-75.439-51.142c-29.85-13.8-60.591-20.797-91.369-20.797s-61.519,6.997-91.369,20.797
	c-25.871,11.96-51.253,29.167-75.439,51.142c-41.25,37.478-79.119,88.455-112.552,151.515
	c-29.495,55.63-54.261,118.744-71.621,182.519c-17.422,64.003-26.632,125.898-26.632,178.995c0,55.234,9.829,107.719,29.216,155.995
	c18.881,47.02,46.232,88.705,81.292,123.897c69.771,70.033,164.63,108.602,267.106,108.602s197.335-38.569,267.106-108.602
	c35.06-35.192,62.411-76.877,81.292-123.897c19.386-48.276,29.216-100.761,29.216-155.995c0-53.097-9.209-114.992-26.632-178.995
	C833.56,353.029,808.793,289.915,779.299,234.285z M499.938,914.292c-169.89,0-307.613-128.519-307.613-318.494
	c0-189.974,137.723-514.967,307.613-514.967s307.613,324.993,307.613,514.967C807.551,785.773,669.828,914.292,499.938,914.292z"/>
</svg>
