<?xml version="1.0" encoding="iso-8859-1"?>
<!-- Generator: Adobe Illustrator 18.0.0, SVG Export Plug-In . SVG Version: 6.00 Build 0)  -->
<!DOCTYPE svg PUBLIC "-//W3C//DTD SVG 1.1//EN" "http://www.w3.org/Graphics/SVG/1.1/DTD/svg11.dtd">
<svg version="1.1" id="Capa_1" xmlns="http://www.w3.org/2000/svg" xmlns:xlink="http://www.w3.org/1999/xlink" x="0px" y="0px"
	 viewBox="0 0 1000 1000" style="enable-background:new 0 0 1000 1000;" xml:space="preserve">
<g>
	<path style="fill:#211915;stroke:#000000;stroke-miterlimit:10;" d="M890.625,671.729h-777.65c-52.383,0-95,42.617-95,95v126.583
		c0,52.383,42.617,95,95,95h777.65c52.383,0,95-42.617,95-95V766.729C985.626,714.346,943.009,671.729,890.625,671.729z
		 M915.626,893.312c0,13.808-11.193,25-25,25h-777.65c-13.807,0-25-11.192-25-25V766.729c0-13.807,11.193-25,25-25h777.65
		c13.807,0,25,11.193,25,25V893.312z"/>
	<path style="fill:#211915;stroke:#000000;stroke-miterlimit:10;" d="M572.865,38.662C554.47,19.218,528.568,8.066,501.8,8.066
		c-26.767,0-52.668,11.151-71.064,30.595L44.795,446.597c-13.814,14.601-22.702,32.705-25.705,52.356
		c-2.767,18.107-0.376,36.63,6.915,53.562c7.29,16.933,19.101,31.398,34.157,41.833c16.338,11.324,35.598,17.31,55.698,17.31
		h771.882c20.1,0,39.36-5.985,55.698-17.31c15.056-10.435,26.866-24.9,34.156-41.833c7.29-16.932,9.682-35.453,6.915-53.562
		c-3.002-19.651-11.89-37.756-25.703-52.356L572.865,38.662z M887.742,541.658H115.86c-24.423,0-37-29.213-20.215-46.954
		L481.585,86.77c5.489-5.802,12.853-8.703,20.215-8.703c7.363,0,14.726,2.901,20.215,8.703l385.941,407.935
		C924.741,512.445,912.164,541.658,887.742,541.658z"/>
</g>
</svg>
