<?xml version="1.0" encoding="iso-8859-1"?>
<!-- Generator: Adobe Illustrator 18.0.0, SVG Export Plug-In . SVG Version: 6.00 Build 0)  -->
<!DOCTYPE svg PUBLIC "-//W3C//DTD SVG 1.1//EN" "http://www.w3.org/Graphics/SVG/1.1/DTD/svg11.dtd">
<svg version="1.1" id="Capa_1" xmlns="http://www.w3.org/2000/svg" xmlns:xlink="http://www.w3.org/1999/xlink" x="0px" y="0px"
	 viewBox="0 0 1000 1000" style="enable-background:new 0 0 1000 1000;" xml:space="preserve">
<g>
	<path style="fill:#211915;stroke:#000000;stroke-miterlimit:10;" d="M42.495,740.084c-19.33,0-35,15.67-35,35s15.67,35,35,35
		h50.068v77.772c0,52.383,42.617,95,95,95h703.873c52.383,0,95-42.617,95-95V112.144c0-52.383-42.617-95-95-95H187.563
		c-52.383,0-95,42.617-95,95v77.772H42.495c-19.33,0-35,15.67-35,35s15.67,35,35,35h50.068V465H42.495c-19.33,0-35,15.67-35,35
		c0,19.33,15.67,35,35,35h50.068v205.084H42.495z M916.437,112.144v775.713c0,13.807-11.193,25-25,25H345.564V87.144h545.872
		C905.243,87.144,916.437,98.336,916.437,112.144z M162.563,535h39.941c19.33,0,35-15.67,35-35s-15.67-35-35-35h-39.941V259.916
		h39.941c19.33,0,35-15.67,35-35s-15.67-35-35-35h-39.941v-77.772c0-13.807,11.193-25,25-25h88.001v825.713h-88.001
		c-13.807,0-25-11.193-25-25v-77.772h39.941c19.33,0,35-15.67,35-35s-15.67-35-35-35h-39.941L162.563,535L162.563,535z"/>
	<path style="fill:#211915;stroke:#000000;stroke-miterlimit:10;" d="M551.147,708.796c14.176,5.143,29.646-3.365,32.92-18.086
		l4.381-19.699c2.706-12.166-3.986-24.404-15.637-28.833c-25.229-9.59-47.763-25.903-64.842-47.218
		c-22.257-27.774-33.768-61.334-33.29-97.05c0.539-40.341,16.562-78.068,45.119-106.233C548.355,363.511,586.309,348,626.667,348
		c83.812,0.001,151.998,68.188,151.998,152c0,8.775-0.75,17.565-2.23,26.124c-1.25,7.229-5.827,11.281-8.444,13.053
		c-2.639,1.786-8.148,4.555-15.411,3.012l-23.02-4.888c4.732-12.277,7.335-25.605,7.335-39.53
		c0-60.781-49.449-110.23-110.229-110.23c-60.781,0-110.23,49.449-110.23,110.23c0,60.78,49.449,110.229,110.23,110.229
		c17.073,0,33.252-3.902,47.691-10.861l63.683,13.522c24.165,5.134,48.74,0.33,69.195-13.52
		c20.42-13.826,33.979-34.811,38.177-59.091c2.159-12.486,3.254-25.289,3.254-38.051c0-59.298-23.092-115.047-65.021-156.977
		c-41.93-41.931-97.679-65.022-156.977-65.023c-0.003,0,0.001,0,0.001,0c-58.872,0-114.287,22.674-156.023,63.838
		c-41.748,41.176-65.173,96.271-65.959,155.137c-0.688,51.398,16.593,101.742,48.658,141.758
		C478.957,670.698,513.016,694.961,551.147,708.796z M626.665,538c-22.183,0-40.23-18.047-40.23-40.229s18.048-40.23,40.23-40.23
		s40.229,18.048,40.229,40.23S648.848,538,626.665,538z"/>
</g>
</svg>
