<?xml version="1.0" encoding="iso-8859-1"?>
<!-- Generator: Adobe Illustrator 18.0.0, SVG Export Plug-In . SVG Version: 6.00 Build 0)  -->
<!DOCTYPE svg PUBLIC "-//W3C//DTD SVG 1.1//EN" "http://www.w3.org/Graphics/SVG/1.1/DTD/svg11.dtd">
<svg version="1.1" id="Capa_1" xmlns="http://www.w3.org/2000/svg" xmlns:xlink="http://www.w3.org/1999/xlink" x="0px" y="0px"
	 viewBox="0 0 1000 1000" style="enable-background:new 0 0 1000 1000;" xml:space="preserve">
<g>
	<path style="stroke:#000000;stroke-miterlimit:10;" d="M942.866,409.437l-265.912-180.64c1.837-3.747,3.452-7.625,4.804-11.631
		c6.115-18.117,6.694-37.365,1.672-55.662c-5.315-19.367-16.46-36.218-32.294-48.871l-91.639-77.502
		c-17.207-14.743-39.134-22.857-61.807-22.859c-0.001,0-0.002,0-0.003,0c-22.689-0.001-44.629,8.122-61.844,22.885l-92.542,78.305
		c-31.884,26.802-43.655,68.39-29.986,106.014c1.207,3.323,2.598,6.553,4.151,9.686L52.091,409.437
		c-19.198,13.041-30.683,34.75-30.665,57.958l0.326,419.377c0.039,51.179,41.709,92.816,92.888,92.816h765.677
		c51.178,0,92.848-41.637,92.888-92.815l0.326-419.378C973.549,444.186,962.063,422.478,942.866,409.437z M388.402,166.996
		L481.3,88.39c4.7-4.079,10.542-6.118,16.384-6.117c5.84,0,11.681,2.038,16.38,6.113l92.834,78.512
		c7.274,5.542,10.258,13.401,9.849,21c-0.661,12.286-10.215,23.886-25,23.886h-41.793c-5.446,0-10.378,2.184-13.985,5.715
		c-3.708,3.63-6.015,8.686-6.015,14.285v285.06c0,13.326-10.803,24.128-24.128,24.128h-17.579
		c-13.326,0-24.128-10.802-24.128-24.128v-285.06c0-5.425-2.168-10.338-5.675-13.941c-3.633-3.733-8.704-6.059-14.325-6.059H403.68
		c-15.168,0-25.669-11.035-25.933-23.572C377.596,181.037,380.786,173.371,388.402,166.996z M372.135,276.648
		c7.07,2.385,14.434,3.965,21.982,4.684v235.513c0,51.902,42.226,94.128,94.128,94.128h17.579c51.903,0,94.128-42.226,94.128-94.128
		V281.444c7.882-0.658,15.551-2.265,22.889-4.781L883.729,453.89L525.41,739.78c-16.446,13.047-39.419,13.047-55.79,0.061
		L111.226,453.889L372.135,276.648z M903.205,886.717c-0.01,12.634-10.254,22.87-22.888,22.87H114.64
		c-12.634,0-22.878-10.237-22.888-22.87l-0.279-359.038l334.569,266.94c20.236,16.053,45.606,24.894,71.437,24.894
		c25.831,0,51.201-8.841,71.514-24.955l334.492-266.879L903.205,886.717z"/>
</g>
</svg>
