<?xml version="1.0" encoding="iso-8859-1"?>
<!-- Generator: Adobe Illustrator 18.0.0, SVG Export Plug-In . SVG Version: 6.00 Build 0)  -->
<!DOCTYPE svg PUBLIC "-//W3C//DTD SVG 1.1//EN" "http://www.w3.org/Graphics/SVG/1.1/DTD/svg11.dtd">
<svg version="1.1" id="Capa_1" xmlns="http://www.w3.org/2000/svg" xmlns:xlink="http://www.w3.org/1999/xlink" x="0px" y="0px"
	 viewBox="0 0 1000 1000" style="enable-background:new 0 0 1000 1000;" xml:space="preserve">
<path style="stroke:#000000;stroke-miterlimit:10;" d="M989.96,503.427c0-51.692-42.055-93.746-93.746-93.746h-65.969
	c-51.692,0-93.746,42.054-93.746,93.746v38.485H263.502v-38.485c0-51.692-42.054-93.746-93.746-93.746h-65.969
	c-51.692,0-93.746,42.054-93.746,93.746L9.958,708.995c0.084,24.982,9.874,48.451,27.568,66.086s41.196,27.347,66.178,27.347
	h792.591c24.981,0,48.484-9.712,66.178-27.347c17.694-17.635,27.485-41.104,27.568-66.086L989.96,503.427z M896.296,733.352H103.704
	c-13.593,0-24.625-10.995-24.67-24.588l0.082-205.337c0-13.625,11.045-24.67,24.67-24.67h65.969c13.625,0,24.67,11.045,24.67,24.67
	v82.891c0,13.625,11.045,24.67,24.67,24.67h561.809c13.625,0,24.67-11.045,24.67-24.67v-82.891c0-13.625,11.045-24.67,24.67-24.67
	h65.969c13.625,0,24.67,11.045,24.67,24.67l0.082,205.337C920.92,722.357,909.889,733.352,896.296,733.352z"/>
</svg>
