<?xml version="1.0" encoding="iso-8859-1"?>
<!-- Generator: Adobe Illustrator 18.0.0, SVG Export Plug-In . SVG Version: 6.00 Build 0)  -->
<!DOCTYPE svg PUBLIC "-//W3C//DTD SVG 1.1//EN" "http://www.w3.org/Graphics/SVG/1.1/DTD/svg11.dtd">
<svg version="1.1" id="Capa_1" xmlns="http://www.w3.org/2000/svg" xmlns:xlink="http://www.w3.org/1999/xlink" x="0px" y="0px"
	 viewBox="0 0 1000 1000" style="enable-background:new 0 0 1000 1000;" xml:space="preserve">
<g>
	<path style="fill:#211915;stroke:#000000;stroke-miterlimit:10;" d="M888.915,93.04h-97.772V42.972c0-19.33-15.67-35-35-35
		s-35,15.67-35,35V93.04H280.974V42.972c0-19.33-15.67-35-35-35s-35,15.67-35,35V93.04h-97.771c-52.383,0-95,42.617-95,95v703.873
		c0,52.383,42.617,95,95,95h775.713c52.383,0,95-42.617,95-95V188.04C983.915,135.656,941.298,93.04,888.915,93.04z M88.202,188.04
		c0-13.807,11.192-25,25-25h97.771v39.941c0,19.33,15.67,35,35,35s35-15.67,35-35V163.04h440.169v39.941c0,19.33,15.67,35,35,35
		s35-15.67,35-35V163.04h97.772c13.807,0,25,11.193,25,25v88H88.202V188.04z M913.915,891.912c0,13.807-11.193,25-25,25H113.202
		c-13.808,0-25-11.193-25-25V346.04h825.713L913.915,891.912L913.915,891.912z"/>
	<path style="fill:#211915;stroke:#000000;stroke-miterlimit:10;" d="M489.389,880.541h30.541c52.383,0,95-42.617,95-95V755
		c0-52.383-42.617-95-95-95h-30.541c-52.383,0-95,42.617-95,95v30.541C394.389,837.924,437.006,880.541,489.389,880.541z
		 M464.389,755c0-13.785,11.215-25,25-25h30.541c13.785,0,25,11.215,25,25v30.541c0,13.785-11.215,25-25,25h-30.541
		c-13.785,0-25-11.215-25-25L464.389,755L464.389,755z"/>
	<path style="fill:#211915;stroke:#000000;stroke-miterlimit:10;" d="M216.712,880.541h30.541c52.383,0,95-42.617,95-95V755
		c0-52.383-42.617-95-95-95h-30.541c-52.383,0-95,42.617-95,95v30.541C121.712,837.924,164.329,880.541,216.712,880.541z
		 M191.712,755c0-13.785,11.215-25,25-25h30.541c13.785,0,25,11.215,25,25v30.541c0,13.785-11.215,25-25,25h-30.541
		c-13.785,0-25-11.215-25-25L191.712,755L191.712,755z"/>
	<path style="fill:#211915;stroke:#000000;stroke-miterlimit:10;" d="M760.597,880.541h30.541c52.383,0,95-42.617,95-95V755
		c0-52.383-42.617-95-95-95h-30.541c-52.383,0-95,42.617-95,95v30.541C665.597,837.924,708.214,880.541,760.597,880.541z
		 M735.597,755c0-13.785,11.215-25,25-25h30.541c13.785,0,25,11.215,25,25v30.541c0,13.785-11.215,25-25,25h-30.541
		c-13.785,0-25-11.215-25-25V755z"/>
	<path style="fill:#211915;stroke:#000000;stroke-miterlimit:10;" d="M489.389,608.041h30.541c52.383,0,95-42.617,95-95V482.5
		c0-52.383-42.617-95-95-95h-30.541c-52.383,0-95,42.617-95,95v30.541C394.389,565.424,437.006,608.041,489.389,608.041z
		 M464.389,482.5c0-13.785,11.215-25,25-25h30.541c13.785,0,25,11.215,25,25v30.541c0,13.785-11.215,25-25,25h-30.541
		c-13.785,0-25-11.215-25-25L464.389,482.5L464.389,482.5z"/>
	<path style="fill:#211915;stroke:#000000;stroke-miterlimit:10;" d="M760.597,608.041h30.541c52.383,0,95-42.617,95-95V482.5
		c0-52.383-42.617-95-95-95h-30.541c-52.383,0-95,42.617-95,95v30.541C665.597,565.424,708.214,608.041,760.597,608.041z
		 M735.597,482.5c0-13.785,11.215-25,25-25h30.541c13.785,0,25,11.215,25,25v30.541c0,13.785-11.215,25-25,25h-30.541
		c-13.785,0-25-11.215-25-25V482.5z"/>
</g>
</svg>
