<?xml version="1.0" encoding="iso-8859-1"?>
<!-- Generator: Adobe Illustrator 18.0.0, SVG Export Plug-In . SVG Version: 6.00 Build 0)  -->
<!DOCTYPE svg PUBLIC "-//W3C//DTD SVG 1.1//EN" "http://www.w3.org/Graphics/SVG/1.1/DTD/svg11.dtd">
<svg version="1.1" id="Capa_1" xmlns="http://www.w3.org/2000/svg" xmlns:xlink="http://www.w3.org/1999/xlink" x="0px" y="0px"
	 viewBox="0 0 1000 1000" style="enable-background:new 0 0 1000 1000;" xml:space="preserve">
<path style="stroke:#000000;stroke-miterlimit:10;" d="M23.803,888.626c8.068,13.974,19.615,25.737,33.393,34.016
	c14.728,8.85,31.656,13.528,48.955,13.528h787.697c17.299,0,34.228-4.678,48.956-13.528c13.778-8.28,25.325-20.042,33.393-34.017
	c8.068-13.974,12.481-29.855,12.762-45.927c0.3-17.179-4.113-34.178-12.763-49.16L582.348,111.374
	c-8.649-14.981-21.165-27.303-36.193-35.633C532.096,67.949,516.136,63.83,500,63.83s-32.096,4.119-46.155,11.911
	c-15.028,8.329-27.544,20.652-36.194,35.634L23.804,793.539c-8.65,14.981-13.063,31.981-12.762,49.16
	C11.323,858.771,15.736,874.652,23.803,888.626z M84.425,828.539l393.848-682.165c4.828-8.363,13.277-12.544,21.726-12.544
	s16.898,4.181,21.726,12.544l393.848,682.165c9.656,16.725-2.414,37.631-21.726,37.631H106.152
	C86.839,866.17,74.769,845.264,84.425,828.539z"/>
<path style="stroke:#000000;stroke-miterlimit:10;" d="M401.935,730.759c0,54.073,43.992,98.065,98.065,98.065
	s98.065-43.992,98.065-98.065c0-24.398-8.958-46.742-23.756-63.92c16.474-17.958,26.545-41.881,26.545-68.113V393.03
	c0-55.611-45.243-100.854-100.854-100.854S399.146,337.419,399.146,393.03v205.695c0,26.233,10.071,50.155,26.545,68.113
	C410.893,684.017,401.935,706.361,401.935,730.759z M500,758.824c-15.5,0-28.065-12.565-28.065-28.065S484.5,702.694,500,702.694
	s28.065,12.565,28.065,28.065S515.5,758.824,500,758.824z M469.146,393.03c0-17.041,13.814-30.854,30.854-30.854
	c17.04,0,30.854,13.814,30.854,30.854v205.695c0,17.04-13.814,30.854-30.854,30.854s-30.854-13.814-30.854-30.854V393.03z"/>
</svg>
