<?xml version="1.0" encoding="iso-8859-1"?>
<!-- Generator: Adobe Illustrator 18.0.0, SVG Export Plug-In . SVG Version: 6.00 Build 0)  -->
<!DOCTYPE svg PUBLIC "-//W3C//DTD SVG 1.1//EN" "http://www.w3.org/Graphics/SVG/1.1/DTD/svg11.dtd">
<svg version="1.1" id="Capa_1" xmlns="http://www.w3.org/2000/svg" xmlns:xlink="http://www.w3.org/1999/xlink" x="0px" y="0px"
	 viewBox="0 0 1000 1000" style="enable-background:new 0 0 1000 1000;" xml:space="preserve">
<path style="stroke:#000000;stroke-miterlimit:10;" d="M963.713,359.248c-4.628-14.611-19.275-59.091-40.518-106.788
	c-37.204-83.539-74.366-132.112-113.609-148.493c-22.529-9.405-45.626-8.465-66.794,2.716c-17.092,9.028-23.63,30.203-14.602,47.295
	c9.027,17.091,30.201,23.63,47.295,14.602c1.723-0.911,3.012-1.448,5.859-0.497c0.393,0.131,0.813,0.288,1.271,0.479
	c7.171,2.992,32.386,18.604,69.152,96.093c2.356,4.965,4.758,10.178,7.207,15.664c9.448,21.165,17.577,41.916,23.95,59.259
	L598.482,350.38c-26.002,0.988-49.853,13.505-65.437,34.342c-0.262,0.35-0.514,0.706-0.77,1.06
	c-10.067-1.925-20.559-2.926-31.219-2.926c-9.944,0-19.777,0.887-29.268,2.583c-0.175-0.239-0.344-0.48-0.521-0.717
	c-15.584-20.836-39.434-33.354-65.435-34.342L121.39,339.578c6.373-17.344,14.502-38.094,23.95-59.259
	c2.449-5.486,4.851-10.699,7.207-15.664c36.766-77.489,61.98-93.101,69.152-96.093c0.458-0.191,0.877-0.348,1.271-0.479
	c2.847-0.951,4.135-0.415,5.859,0.497c17.092,9.026,38.267,2.491,47.295-14.602c9.028-17.092,2.491-38.267-14.602-47.295
	c-21.169-11.181-44.266-12.12-66.794-2.716c-39.243,16.381-76.405,64.954-113.609,148.493
	c-21.242,47.697-35.89,92.177-40.518,106.788c-3.421,2.926-6.635,6.135-9.6,9.618C14.679,388.04,7.622,413.294,11.64,438.154
	L30.542,555.09c3.153,19.509,13.042,37.466,27.845,50.56c14.802,13.094,33.83,20.719,53.578,21.469l219.638,8.341
	c1.69,0.064,3.4,0.097,5.087,0.097c61.102,0,114.273-41.374,129.304-100.613l19.727-77.752c0.274-1.081,0.519-2.164,0.75-3.249
	c4.711-0.709,9.615-1.088,14.586-1.088c5.801,0,11.484,0.498,16.86,1.441c0.211,0.967,0.432,1.932,0.677,2.896l19.727,77.751
	c15.03,59.24,68.201,100.613,129.303,100.613c1.687,0,3.397-0.032,5.084-0.096l219.64-8.342c19.75-0.75,38.778-8.375,53.58-21.469
	c14.802-13.095,24.691-31.051,27.845-50.561l18.902-116.935c4.018-24.862-3.04-50.118-19.364-69.292
	C970.346,365.381,967.133,362.174,963.713,359.248z M923.57,426.984L904.668,543.92c-1.2,7.42-7.467,12.965-14.978,13.25
	l-219.637,8.342c-0.814,0.031-1.622,0.046-2.431,0.046c-28.9,0-54.295-19.615-61.453-47.828l-19.727-77.752
	c-2.47-9.733,4.661-19.267,14.695-19.648l306.256-11.631c0.207-0.008,0.411-0.012,0.616-0.012
	C917.669,408.687,925.127,417.354,923.57,426.984z M444.175,431.691L444.175,431.691L444.175,431.691L444.175,431.691z
	 M336.69,565.558c-0.809,0-1.617-0.015-2.431-0.046l-219.637-8.342c-7.511-0.285-13.779-5.83-14.978-13.25L80.743,426.984
	c-1.557-9.631,5.901-18.297,15.56-18.297c0.205,0,0.409,0.004,0.616,0.012l306.256,11.631c10.035,0.381,17.165,9.915,14.696,19.648
	l-19.727,77.752C390.986,545.943,365.591,565.558,336.69,565.558z"/>
</svg>
