<?xml version="1.0" encoding="iso-8859-1"?>
<!-- Generator: Adobe Illustrator 18.0.0, SVG Export Plug-In . SVG Version: 6.00 Build 0)  -->
<!DOCTYPE svg PUBLIC "-//W3C//DTD SVG 1.1//EN" "http://www.w3.org/Graphics/SVG/1.1/DTD/svg11.dtd">
<svg version="1.1" id="Capa_1" xmlns="http://www.w3.org/2000/svg" xmlns:xlink="http://www.w3.org/1999/xlink" x="0px" y="0px"
	 viewBox="0 0 1000 1000" style="enable-background:new 0 0 1000 1000;" xml:space="preserve">
<g>
	<path style="fill:#211915;stroke:#000000;stroke-miterlimit:10;" d="M934.167,420.728l-376.3-217.257
		c-14.464-8.352-30.876-12.766-47.461-12.766h-0.001l0,0c-52.404,0.001-95.037,42.635-95.037,95.038v67.845l-260.01-150.117
		c-14.464-8.352-30.876-12.766-47.461-12.766h-0.001l0,0c-52.404,0.001-95.037,42.635-95.037,95.038v434.514
		c0,52.404,42.634,95.038,95.039,95.038c16.584,0,32.996-4.414,47.459-12.764l260.012-150.118v67.844
		c0,52.404,42.634,95.038,95.039,95.038c16.584,0,32.996-4.414,47.459-12.764L934.17,585.272
		c14.967-8.642,27.278-21.146,35.6-36.159c7.785-14.047,11.9-29.992,11.9-46.113s-4.115-32.066-11.9-46.113
		C961.446,441.873,949.135,429.369,934.167,420.728z M899.168,524.65l-376.3,217.258c-4.027,2.325-8.3,3.387-12.461,3.387
		c-13.06,0-25.039-10.443-25.039-25.038V611.998v-80.829v-56.338v-80.829V285.743c0-14.594,11.98-25.037,25.039-25.038
		c4.162,0,8.433,1.062,12.461,3.387l376.3,217.258C915.835,490.972,915.835,515.028,899.168,524.65z M120.358,741.908
		c-4.027,2.325-8.3,3.387-12.461,3.387c-13.06,0-25.039-10.443-25.039-25.038V285.743c0-14.594,11.98-25.037,25.039-25.038
		c4.162,0,8.433,1.062,12.461,3.387l295.01,170.324v137.168L120.358,741.908z"/>
</g>
</svg>
