<?xml version="1.0" encoding="iso-8859-1"?>
<!-- Generator: Adobe Illustrator 18.0.0, SVG Export Plug-In . SVG Version: 6.00 Build 0)  -->
<!DOCTYPE svg PUBLIC "-//W3C//DTD SVG 1.1//EN" "http://www.w3.org/Graphics/SVG/1.1/DTD/svg11.dtd">
<svg version="1.1" id="Capa_1" xmlns="http://www.w3.org/2000/svg" xmlns:xlink="http://www.w3.org/1999/xlink" x="0px" y="0px"
	 viewBox="0 0 1000 1000" style="enable-background:new 0 0 1000 1000;" xml:space="preserve">
<path style="stroke:#000000;stroke-miterlimit:10;" d="M776.175,587.538c25.195-31.013,44.835-65.722,58.376-103.162
	c14.014-38.751,21.12-79.449,21.12-120.963c0-47.906-9.384-94.423-27.891-138.257c-17.861-42.304-43.421-80.298-75.969-112.927
	c-32.544-32.625-70.469-58.277-112.723-76.244c-43.775-18.614-90.25-28.116-138.134-28.243l-0.949-0.001
	c-47.913,0-94.464,9.432-138.362,28.033c-42.329,17.936-80.348,43.584-113.003,76.231c-32.659,32.651-58.317,70.67-76.261,113
	c-18.613,43.908-28.05,90.476-28.05,138.411c0,41.51,7.105,82.204,21.117,120.951c13.538,37.437,33.175,72.143,58.365,103.155
	c24.949,30.715,54.602,56.896,88.134,77.815c22.002,13.726,45.264,24.927,69.516,33.492c-36.71,13.151-63.046,48.294-63.046,89.471
	v32.8c0,43.933,29.974,80.996,70.548,91.81c7.756,44.639,46.776,78.688,93.599,78.688h34.877c46.463,0,85.242-33.528,93.415-77.659
	c42.714-9.284,74.805-47.385,74.805-92.84v-32.8c0-41.947-27.328-77.632-65.115-90.186c23.52-8.466,46.097-19.42,67.484-32.76
	C721.564,644.436,751.221,618.254,776.175,587.538z M615.657,821.1c0,13.807-11.193,25-25,25h-23.219c-13.807,0-25,11.193-25,25
	v25.499c0,13.807-11.193,25-25,25H482.56c-13.807,0-25-11.193-25-25V871.1c0-13.807-11.193-25-25-25h-19.146
	c-13.807,0-25-11.193-25-25v-32.8c0-13.807,11.193-25,25-25h19.147c13.807,0,25-11.193,25-25v-71.58
	c0-11.754-8.199-21.876-19.675-24.42C309.983,613.94,214.33,499.852,214.329,363.415c-0.001-157.519,128.25-285.674,285.676-285.674
	c0.25,0,0.514,0,0.765,0.001c157.418,0.415,284.901,128.155,284.901,285.67c0,136.452-95.672,250.55-223.594,278.896
	c-11.462,2.54-19.639,12.67-19.639,24.411v71.582c0,13.807,11.193,25,25,25h23.219c13.807,0,25,11.193,25,25L615.657,821.1
	L615.657,821.1z"/>
<path style="stroke:#000000;stroke-miterlimit:10;" d="M635.396,496.308c17.563-17.562,31.359-38.033,41.007-60.842
	c10.004-23.652,15.076-48.735,15.076-74.554s-5.072-50.902-15.076-74.554c-9.648-22.809-23.444-43.28-41.007-60.842
	c-17.563-17.563-38.033-31.359-60.842-41.007c-23.652-10.004-48.735-15.076-74.554-15.076s-50.902,5.072-74.554,15.076
	c-22.81,9.647-43.28,23.444-60.842,41.007c-17.562,17.562-31.359,38.032-41.007,60.842c-10.004,23.651-15.076,48.735-15.076,74.553
	s5.072,50.902,15.076,74.554c9.648,22.809,23.444,43.28,41.007,60.842c17.562,17.562,38.033,31.359,60.842,41.007
	c23.652,10.004,48.735,15.076,74.554,15.076s50.902-5.072,74.554-15.076C597.363,527.667,617.833,513.87,635.396,496.308z
	 M500,239.434c67.091,0,121.478,54.388,121.478,121.479S567.09,482.392,500,482.392c-67.091,0-121.478-54.388-121.478-121.479
	C378.522,293.822,432.909,239.434,500,239.434z"/>
</svg>
