<?xml version="1.0" encoding="iso-8859-1"?>
<!-- Generator: Adobe Illustrator 18.0.0, SVG Export Plug-In . SVG Version: 6.00 Build 0)  -->
<!DOCTYPE svg PUBLIC "-//W3C//DTD SVG 1.1//EN" "http://www.w3.org/Graphics/SVG/1.1/DTD/svg11.dtd">
<svg version="1.1" id="Capa_1" xmlns="http://www.w3.org/2000/svg" xmlns:xlink="http://www.w3.org/1999/xlink" x="0px" y="0px"
	 viewBox="0 0 1000 1000" style="enable-background:new 0 0 1000 1000;" xml:space="preserve">
<g>
	<path style="fill:#211915;stroke:#000000;stroke-miterlimit:10;" d="M881,252.28c0-25.189-9.758-48.922-27.478-66.827
		L712.09,42.554c-8.882-8.973-19.292-15.986-30.941-20.847c-11.65-4.86-23.958-7.325-36.581-7.325H214c-52.383,0-95,42.617-95,95
		v781.235c0,52.383,42.617,95,95,95h572c52.383,0,95-42.617,95-95V252.28z M797.144,228H693.16c-6.681,0-12.961-2.603-17.684-7.328
		c-4.722-4.727-7.321-11.009-7.316-17.689l0.075-105.227L797.144,228z M811,890.618c0,13.807-11.193,25-25,25H214
		c-13.807,0-25-11.193-25-25V109.382c0-13.807,11.193-25,25-25h384.245l-0.085,118.55c-0.018,25.388,9.855,49.26,27.801,67.219
		C643.907,288.109,667.772,298,693.16,298H811V890.618z"/>
</g>
</svg>
