<?xml version="1.0" encoding="iso-8859-1"?>
<!-- Generator: Adobe Illustrator 18.0.0, SVG Export Plug-In . SVG Version: 6.00 Build 0)  -->
<!DOCTYPE svg PUBLIC "-//W3C//DTD SVG 1.1//EN" "http://www.w3.org/Graphics/SVG/1.1/DTD/svg11.dtd">
<svg version="1.1" id="Capa_1" xmlns="http://www.w3.org/2000/svg" xmlns:xlink="http://www.w3.org/1999/xlink" x="0px" y="0px"
	 viewBox="0 0 1000 1000" style="enable-background:new 0 0 1000 1000;" xml:space="preserve">
<path style="fill:#211915;stroke:#000000;stroke-miterlimit:10;" d="M211,994h578c52.383,0,95-42.617,95-95V101
	c0-52.383-42.617-95-95-95H211c-52.383,0-95,42.617-95,95v798C116,951.383,158.617,994,211,994z M186,101c0-13.807,11.193-25,25-25
	h578c13.807,0,25,11.193,25,25v798c0,13.807-11.193,25-25,25H211c-13.807,0-25-11.193-25-25V101z"/>
<path style="fill:#211915;stroke:#000000;stroke-miterlimit:10;" d="M324,779h252c19.33,0,35-15.67,35-35s-15.67-35-35-35H324
	c-19.33,0-35,15.67-35,35S304.67,779,324,779z"/>
<path style="fill:#211915;stroke:#000000;stroke-miterlimit:10;" d="M324,535h352c19.33,0,35-15.67,35-35s-15.67-35-35-35H324
	c-19.33,0-35,15.67-35,35C289,519.33,304.67,535,324,535z"/>
<path style="fill:#211915;stroke:#000000;stroke-miterlimit:10;" d="M324,291h352c19.33,0,35-15.67,35-35s-15.67-35-35-35H324
	c-19.33,0-35,15.67-35,35S304.67,291,324,291z"/>
</svg>
