<?xml version="1.0" encoding="iso-8859-1"?>
<!-- Generator: Adobe Illustrator 18.0.0, SVG Export Plug-In . SVG Version: 6.00 Build 0)  -->
<!DOCTYPE svg PUBLIC "-//W3C//DTD SVG 1.1//EN" "http://www.w3.org/Graphics/SVG/1.1/DTD/svg11.dtd">
<svg version="1.1" id="Capa_1" xmlns="http://www.w3.org/2000/svg" xmlns:xlink="http://www.w3.org/1999/xlink" x="0px" y="0px"
	 viewBox="0 0 1000 1000" style="enable-background:new 0 0 1000 1000;" xml:space="preserve">
<g>
	<path style="fill:#211915;stroke:#000000;stroke-miterlimit:10;" d="M701.183,42.554c-8.882-8.973-19.292-15.986-30.941-20.847
		c-11.65-4.86-23.958-7.325-36.581-7.325H203.093c-52.383,0-95,42.617-95,95v781.235c0,52.383,42.617,95,95,95h572
		c52.383,0,95-42.617,95-95V252.28c0-25.189-9.758-48.922-27.478-66.827L701.183,42.554z M786.237,228H682.254
		c-6.682,0-12.962-2.603-17.685-7.328c-4.723-4.727-7.32-11.008-7.315-17.69l0.075-105.227L786.237,228z M800.093,890.618
		c0,13.807-11.193,25-25,25h-572c-13.807,0-25-11.193-25-25V109.382c0-13.807,11.193-25,25-25h384.245l-0.084,118.549
		c-0.019,25.389,9.854,49.261,27.801,67.22C633,288.11,656.865,298,682.254,298h117.839V890.618z"/>
	<path style="fill:#211915;stroke:#000000;stroke-miterlimit:10;" d="M274.09,258.362h215.004c19.33,0,35-15.67,35-35
		s-15.67-35-35-35H274.09c-19.33,0-35,15.67-35,35S254.76,258.362,274.09,258.362z"/>
	<path style="fill:#211915;stroke:#000000;stroke-miterlimit:10;" d="M584.701,686.637H274.09c-19.33,0-35,15.67-35,35
		s15.67,35,35,35h310.611c19.33,0,35-15.67,35-35S604.031,686.637,584.701,686.637z"/>
	<path style="fill:#211915;stroke:#000000;stroke-miterlimit:10;" d="M239.09,472.5c0,19.33,15.67,35,35,35H708.1
		c19.33,0,35-15.67,35-35s-15.67-35-35-35H274.09C254.76,437.5,239.09,453.17,239.09,472.5z"/>
</g>
</svg>
