<?xml version="1.0" encoding="iso-8859-1"?>
<!-- Generator: Adobe Illustrator 18.0.0, SVG Export Plug-In . SVG Version: 6.00 Build 0)  -->
<!DOCTYPE svg PUBLIC "-//W3C//DTD SVG 1.1//EN" "http://www.w3.org/Graphics/SVG/1.1/DTD/svg11.dtd">
<svg version="1.1" id="Capa_1" xmlns="http://www.w3.org/2000/svg" xmlns:xlink="http://www.w3.org/1999/xlink" x="0px" y="0px"
	 viewBox="0 0 1000 1000" style="enable-background:new 0 0 1000 1000;" xml:space="preserve">
<g>
	<path style="fill:#211915;stroke:#000000;stroke-miterlimit:10;" d="M104.264,938.618h506.86
		c17.297,14.296,36.489,25.943,57.286,34.74c28.647,12.117,59.038,18.26,90.327,18.26s61.679-6.144,90.327-18.26
		c27.634-11.688,52.438-28.407,73.722-49.691s38.002-46.088,49.691-73.722c12.117-28.647,18.26-59.038,18.26-90.327
		s-6.144-61.679-18.26-90.327c-11.688-27.634-28.407-52.438-49.691-73.722s-46.088-38.002-73.722-49.691
		c-28.647-12.117-59.038-18.26-90.327-18.26c-9.244,0-18.407,0.55-27.473,1.619V244.28c0-25.189-9.758-48.922-27.478-66.827
		L562.353,34.554c-8.879-8.971-19.289-15.985-30.94-20.847c-11.65-4.861-23.957-7.325-36.581-7.325H104.264
		c-52.383,0-95,42.617-95,95v742.235C9.264,896.001,51.881,938.618,104.264,938.618z M758.736,921.618
		c-19.756,0-38.684-3.542-56.19-10.016c-24.632-9.11-46.446-24.033-63.771-43.109c-26.121-28.764-42.04-66.96-42.04-108.875
		c0-52.876,25.337-99.83,64.527-129.398c20.181-15.226,44.036-25.835,70-30.271c8.931-1.525,18.107-2.331,27.473-2.331
		c89.47,0,162,72.53,162,162S848.207,921.618,758.736,921.618z M629.592,202h-86.168c-6.681,0-12.961-2.603-17.684-7.328
		c-4.723-4.727-7.321-11.009-7.316-17.689l0.062-87.24L629.592,202z M79.264,101.382c0-13.807,11.193-25,25-25h344.232
		l-0.072,100.55c-0.018,25.388,9.855,49.26,27.801,67.219S518.036,272,543.424,272h117.84v277.06
		c-24.773,11.467-47.146,27.079-66.576,46.509c-21.284,21.284-38.002,46.088-49.691,73.722
		c-12.117,28.647-18.26,59.038-18.26,90.327s6.144,61.679,18.26,90.327c2.699,6.381,5.678,12.603,8.908,18.673H104.264
		c-13.807,0-25-11.193-25-25V101.382z"/>
	<path style="fill:#211915;stroke:#000000;stroke-miterlimit:10;" d="M180.764,258.362h178c19.33,0,35-15.67,35-35s-15.67-35-35-35
		h-178c-19.33,0-35,15.67-35,35S161.434,258.362,180.764,258.362z"/>
	<path style="fill:#211915;stroke:#000000;stroke-miterlimit:10;" d="M180.764,507h378.055c19.33,0,35-15.67,35-35s-15.67-35-35-35
		H180.764c-19.33,0-35,15.67-35,35S161.434,507,180.764,507z"/>
	<path style="fill:#211915;stroke:#000000;stroke-miterlimit:10;" d="M180.764,756.637h269.88c19.33,0,35-15.67,35-35
		s-15.67-35-35-35h-269.88c-19.33,0-35,15.67-35,35S161.434,756.637,180.764,756.637z"/>
	<path style="fill:#211915;stroke:#000000;stroke-miterlimit:10;" d="M837.736,724.618H731.264h-51.527
		c-6.782,0-13.11,1.935-18.473,5.274c-9.92,6.179-16.527,17.178-16.527,29.726s6.607,23.547,16.527,29.726
		c5.362,3.339,11.69,5.274,18.473,5.274h51.527h106.473c19.33,0,35-15.67,35-35S857.066,724.618,837.736,724.618z"/>
</g>
</svg>
