<?xml version="1.0" encoding="iso-8859-1"?>
<!-- Generator: Adobe Illustrator 18.0.0, SVG Export Plug-In . SVG Version: 6.00 Build 0)  -->
<!DOCTYPE svg PUBLIC "-//W3C//DTD SVG 1.1//EN" "http://www.w3.org/Graphics/SVG/1.1/DTD/svg11.dtd">
<svg version="1.1" id="Capa_1" xmlns="http://www.w3.org/2000/svg" xmlns:xlink="http://www.w3.org/1999/xlink" x="0px" y="0px"
	 viewBox="0 0 1000 1000" style="enable-background:new 0 0 1000 1000;" xml:space="preserve">
<path style="stroke:#000000;stroke-miterlimit:10;" d="M898.185,236.891H739.651v-69.952c0-51.657-42.026-93.683-93.683-93.683
	H354.893c-51.657,0-93.683,42.025-93.683,93.683v69.952H102.676c-52.383,0-95,42.617-95,95v513.498c0,52.383,42.617,95,95,95
	h795.509c52.383,0,95-42.617,95-95V331.891C993.185,279.508,950.568,236.891,898.185,236.891z M923.185,845.389
	c0,13.807-11.193,25-25,25H826.69V306.891h71.495c13.807,0,25,11.193,25,25V845.389z M77.676,845.389V331.891
	c0-13.807,11.193-25,25-25h71.495v563.498h-71.495C88.869,870.389,77.676,859.196,77.676,845.389z M331.21,166.938
	c0-12.837,10.845-23.683,23.683-23.683h291.076c12.837,0,23.683,10.846,23.683,23.683v69.952H331.21V166.938z M756.69,870.389
	H244.171V306.891H756.69V870.389z"/>
<path style="stroke:#000000;stroke-miterlimit:10;" d="M362.011,623.64h101.995v101.994c0,19.33,15.67,35,35,35
	c19.33,0,35-15.67,35-35V623.64H636c19.33,0,35-15.67,35-35s-15.67-35-35-35H534.005V451.645c0-19.33-15.67-35-35-35
	s-35,15.67-35,35V553.64H362.011c-19.33,0-35,15.67-35,35S342.681,623.64,362.011,623.64z"/>
</svg>
