<?xml version="1.0" encoding="iso-8859-1"?>
<!-- Generator: Adobe Illustrator 18.0.0, SVG Export Plug-In . SVG Version: 6.00 Build 0)  -->
<!DOCTYPE svg PUBLIC "-//W3C//DTD SVG 1.1//EN" "http://www.w3.org/Graphics/SVG/1.1/DTD/svg11.dtd">
<svg version="1.1" id="Capa_1" xmlns="http://www.w3.org/2000/svg" xmlns:xlink="http://www.w3.org/1999/xlink" x="0px" y="0px"
	 viewBox="0 0 1000 1000" style="enable-background:new 0 0 1000 1000;" xml:space="preserve">
<path style="stroke:#000000;stroke-miterlimit:10;" d="M967.833,437.333c-19.999-24.344-42.68-46.578-67.414-66.084
	c-24.915-19.648-51.996-36.594-80.492-50.365c-29.043-14.036-59.692-24.839-91.095-32.107
	c-32.257-7.467-65.534-11.253-98.904-11.253s-66.646,3.786-98.904,11.253c-31.403,7.269-62.051,18.071-91.095,32.107
	c-28.496,13.771-55.577,30.717-80.492,50.365c-20.21,15.938-39.048,33.699-56.173,52.944L190.852,319.578
	c-17.674-16.448-40.602-25.506-64.56-25.506c-24.327,0-47.51,9.171-65.278,25.824c-9.292,8.709-16.612,19.008-21.756,30.612
	c-5.393,12.164-8.127,25.156-8.127,38.613V606c0,13.458,2.735,26.45,8.128,38.615c5.144,11.603,12.463,21.901,21.754,30.61
	c17.769,16.654,40.951,25.825,65.278,25.825c23.958,0,46.886-9.058,64.56-25.506L303.264,570.93
	c17.126,19.244,35.964,37.005,56.173,52.943c24.915,19.648,51.996,36.593,80.492,50.365c29.043,14.036,59.692,24.839,91.095,32.108
	c32.257,7.467,65.534,11.253,98.904,11.253s66.647-3.786,98.905-11.253c31.402-7.269,62.051-18.072,91.094-32.108
	c28.496-13.771,55.577-30.717,80.492-50.365c24.734-19.506,47.415-41.739,67.414-66.083c13.902-16.923,21.558-38.312,21.558-60.229
	S981.734,454.255,967.833,437.333z M629.928,647.599c-114.35,0-216.484-52.282-283.815-134.243c-7.528-9.164-7.528-22.426,0-31.59
	c67.331-81.961,169.466-134.243,283.815-134.243s216.485,52.282,283.815,134.243c7.528,9.164,7.528,22.426,0,31.59
	C846.413,595.317,744.277,647.599,629.928,647.599z M101.131,606.001V389.122c0-15.003,12.284-25.05,25.161-25.05
	c5.87,0,11.864,2.089,16.871,6.749l116.522,108.44c10.625,9.888,10.625,26.714,0,36.602l-116.522,108.44
	c-5.008,4.66-11,6.749-16.871,6.749C113.417,631.051,101.131,621.003,101.131,606.001z"/>
<circle style="stroke:#000000;stroke-miterlimit:10;" cx="755" cy="462.562" r="35"/>
</svg>
