<?xml version="1.0" encoding="iso-8859-1"?>
<!-- Generator: Adobe Illustrator 18.0.0, SVG Export Plug-In . SVG Version: 6.00 Build 0)  -->
<!DOCTYPE svg PUBLIC "-//W3C//DTD SVG 1.1//EN" "http://www.w3.org/Graphics/SVG/1.1/DTD/svg11.dtd">
<svg version="1.1" id="Capa_1" xmlns="http://www.w3.org/2000/svg" xmlns:xlink="http://www.w3.org/1999/xlink" x="0px" y="0px"
	 viewBox="0 0 1000 1000" style="enable-background:new 0 0 1000 1000;" xml:space="preserve">
<path style="fill:#211915;stroke:#000000;stroke-miterlimit:10;" d="M139,947.5v-905c0-19.33-15.67-35-35-35s-35,15.67-35,35v905
	c0,19.33,15.67,35,35,35S139,966.83,139,947.5z"/>
<path style="fill:#211915;stroke:#000000;stroke-miterlimit:10;" d="M863.382,333.704l-9.581-3.514l-10.186-0.632
	c-74.205-4.606-163.326-75.875-249.513-144.797C496.269,106.526,395.118,25.639,283.834,11.295
	c-6.808-1.064-13.147-1.583-19.334-1.583c-37.401,0-58.608,19.426-67.92,31.005c-12.484,15.523-18.813,34.713-18.812,57.034v326.771
	c0,50.212,41.325,91.062,92.121,91.062c5.598,0,11.224-0.517,16.722-1.534l8.411-1.557l7.789-3.535
	c26.862-12.195,56.033-18.124,89.179-18.124c45.132,0,92.788,10.566,143.241,21.754c55.594,12.327,113.081,25.074,173.548,25.074
	c57.871,0,109.686-11.77,158.225-35.963c15.627-6.168,28.951-16.432,38.883-30.034c10.516-14.401,16.413-31.531,17.056-49.537
	C924.346,382.819,900.41,347.284,863.382,333.704z M839.279,437.275c-43.505,22.443-86.995,30.388-130.5,30.388
	c-105.6,0-211.189-46.828-316.789-46.828c-39.364,0-78.752,6.514-118.116,24.385c-1.329,0.246-2.662,0.365-3.984,0.365
	c-11.479,0-22.121-8.946-22.121-21.062c0-108.925,0-217.851,0-326.774c0-11.055,3.387-18.036,16.732-18.036
	c2.698,0,5.806,0.285,9.373,0.881c188.468,23.361,376.938,307.133,565.405,318.831C857.575,406.134,857.575,432.011,839.279,437.275
	z"/>
</svg>
