<?xml version="1.0" encoding="iso-8859-1"?>
<!-- Generator: Adobe Illustrator 18.0.0, SVG Export Plug-In . SVG Version: 6.00 Build 0)  -->
<!DOCTYPE svg PUBLIC "-//W3C//DTD SVG 1.1//EN" "http://www.w3.org/Graphics/SVG/1.1/DTD/svg11.dtd">
<svg version="1.1" id="Capa_1" xmlns="http://www.w3.org/2000/svg" xmlns:xlink="http://www.w3.org/1999/xlink" x="0px" y="0px"
	 viewBox="0 0 1000 1000" style="enable-background:new 0 0 1000 1000;" xml:space="preserve">
<path style="stroke:#000000;stroke-miterlimit:10;" d="M980.722,832.804c-2.601-18.94-10.833-36.511-23.804-50.812L669.083,464.654
	V163.687c0-52.383-42.617-95-95-95H427.727c-52.383,0-95,42.617-95,95v300.905l-288.7,317.289
	c-13.005,14.293-21.266,31.865-23.89,50.817c-2.421,17.48,0.093,35.3,7.27,51.532c7.176,16.232,18.665,30.084,33.224,40.058
	c15.784,10.813,34.34,16.528,53.663,16.528h772.257c19.308,0,37.852-5.707,53.628-16.505c14.554-9.96,26.044-23.797,33.229-40.013
	S983.122,850.275,980.722,832.804z M886.551,870.815H114.294c-21.708,0-33.101-25.768-18.491-41.825l300.415-330.166
	c4.188-4.603,6.509-10.602,6.509-16.825V163.687c0-13.807,11.193-25,25-25h146.357c13.807,0,25,11.193,25,25v256.277h-50.391
	c-13.807,0-25,11.192-25,25v20c0,13.807,11.193,25,25,25h51.713c1.089,3.248,2.819,6.274,5.16,8.854l39.128,43.14h-95.58
	c-13.807,0-25,11.193-25,25v20c0,13.807,11.193,25,25,25h159.072l47.614,52.494H549.114c-13.807,0-25,11.193-25,25v20
	c0,13.807,11.193,25,25,25h270.178l85.776,94.568C919.641,845.086,908.241,870.815,886.551,870.815z"/>
</svg>
