<?xml version="1.0" encoding="iso-8859-1"?>
<!-- Generator: Adobe Illustrator 18.0.0, SVG Export Plug-In . SVG Version: 6.00 Build 0)  -->
<!DOCTYPE svg PUBLIC "-//W3C//DTD SVG 1.1//EN" "http://www.w3.org/Graphics/SVG/1.1/DTD/svg11.dtd">
<svg version="1.1" id="Capa_1" xmlns="http://www.w3.org/2000/svg" xmlns:xlink="http://www.w3.org/1999/xlink" x="0px" y="0px"
	 viewBox="0 0 1000 1000" style="enable-background:new 0 0 1000 1000;" xml:space="preserve">
<path style="stroke:#000000;stroke-miterlimit:10;" d="M106.875,891.312h786.25c52.383,0,95-42.617,95-95v-490
	c0-52.383-42.617-95-95-95H540.174l-16.495-28.235c-8.358-14.305-20.371-26.225-34.74-34.472
	C474.571,140.359,458.219,136,441.652,136H106.875c-52.383,0-95,42.617-95,95v50.312V768.51v27.802
	C11.875,848.695,54.492,891.312,106.875,891.312z M81.875,768.51V281.312V231c0-13.807,11.193-25,25-25h334.777
	c8.886,0,17.104,4.716,21.586,12.389l29.524,50.534c4.482,7.672,12.7,12.389,21.586,12.389h378.777c13.807,0,25,11.193,25,25v490
	c0,13.807-11.193,25-25,25h-786.25c-13.807,0-25-11.193-25-25V768.51z"/>
</svg>
