<?xml version="1.0" encoding="iso-8859-1"?>
<!-- Generator: Adobe Illustrator 18.0.0, SVG Export Plug-In . SVG Version: 6.00 Build 0)  -->
<!DOCTYPE svg PUBLIC "-//W3C//DTD SVG 1.1//EN" "http://www.w3.org/Graphics/SVG/1.1/DTD/svg11.dtd">
<svg version="1.1" id="Capa_1" xmlns="http://www.w3.org/2000/svg" xmlns:xlink="http://www.w3.org/1999/xlink" x="0px" y="0px"
	 viewBox="0 0 1000 1000" style="enable-background:new 0 0 1000 1000;" xml:space="preserve">
<path style="stroke:#000000;stroke-miterlimit:10;" d="M895.042,452.676H104.958c-26.599,0-52.146,11.261-70.089,30.896
	c-17.98,19.675-26.917,46.196-24.52,72.764c6.787,75.223,36.609,147.64,86.243,209.423c41.651,51.847,96.415,95.184,159.548,126.467
	c7.692,44.716,46.748,78.846,93.626,78.846h300.468c46.877,0,85.934-34.13,93.626-78.846
	c63.132-31.283,117.897-74.62,159.548-126.467c49.634-61.783,79.456-134.201,86.242-209.423c2.397-26.567-6.54-53.089-24.519-72.764
	C947.188,463.937,921.642,452.676,895.042,452.676z M675.234,862.812v13.26c0,13.807-11.193,25-25,25H349.766
	c-13.807,0-25-11.193-25-25v-13.26c0-10.038-6.024-19.059-15.249-23.014C222.666,802.559,153.173,740.647,113.966,665h772.068
	c-39.207,75.647-108.7,137.559-195.551,174.797C681.257,843.753,675.234,852.774,675.234,862.812z M87.571,595
	c-3.594-14.675-6.127-29.678-7.505-44.953c-1.325-14.684,10.148-27.371,24.892-27.371h790.085c14.744,0,26.217,12.687,24.892,27.371
	c-1.378,15.276-3.911,30.278-7.505,44.953H87.571z"/>
<path style="stroke:#000000;stroke-miterlimit:10;" d="M286.493,296.348c-12.992-13.521-36.554-29.639-75.023-29.639
	c-21.463,0-37.276-7.189-48.344-21.979c-10.495-14.024-14.218-31.742-14.218-42.653c0-19.269-15.572-34.902-34.818-35
	c-19.536-0.099-35.336,16.467-35.178,36.002c0.236,29.11,10.729,60.285,28.17,83.591c17.083,22.828,49.06,50.039,104.389,50.039
	c16.573,0,22.451,5.998,24.383,7.969c4.39,4.479,7.773,12.605,10.123,20.579C249.088,375.819,258.886,383,269.898,383h20.692
	c16.214,0,28.176-15.2,24.288-30.941C310.387,333.878,302.003,312.49,286.493,296.348z"/>
<path style="stroke:#000000;stroke-miterlimit:10;" d="M533.394,296.348c-12.992-13.521-36.554-29.639-75.023-29.639
	c-21.462,0-37.276-7.189-48.344-21.979c-10.495-14.024-14.218-31.742-14.218-42.653c0-19.269-15.572-34.902-34.818-35
	c-19.536-0.099-35.336,16.467-35.178,36.002c0.236,29.11,10.729,60.285,28.17,83.591c17.083,22.827,49.06,50.039,104.388,50.039
	c16.573,0,22.451,5.998,24.383,7.969c4.39,4.479,7.773,12.605,10.123,20.579c3.112,10.562,12.91,17.743,23.922,17.743h20.692
	c16.214,0,28.176-15.2,24.288-30.941C557.288,333.878,548.904,312.49,533.394,296.348z"/>
</svg>
