<?xml version="1.0" encoding="iso-8859-1"?>
<!-- Generator: Adobe Illustrator 18.0.0, SVG Export Plug-In . SVG Version: 6.00 Build 0)  -->
<!DOCTYPE svg PUBLIC "-//W3C//DTD SVG 1.1//EN" "http://www.w3.org/Graphics/SVG/1.1/DTD/svg11.dtd">
<svg version="1.1" id="Capa_1" xmlns="http://www.w3.org/2000/svg" xmlns:xlink="http://www.w3.org/1999/xlink" x="0px" y="0px"
	 viewBox="0 0 1000 1000" style="enable-background:new 0 0 1000 1000;" xml:space="preserve">
<path style="stroke:#000000;stroke-miterlimit:10;" d="M982.585,880.802c0-19.33-15.67-35-35-35H52.415c-19.33,0-35,15.67-35,35
	s15.67,35,35,35h895.17C966.915,915.802,982.585,900.132,982.585,880.802z"/>
<path style="stroke:#000000;stroke-miterlimit:10;" d="M51.9,779.875c17.882,19.086,43.138,30.033,69.291,30.033h757.617
	c26.153,0,51.409-10.947,69.291-30.033c17.915-19.121,27.211-45.096,25.504-71.264c-3.959-60.672-19.258-119.14-45.472-173.781
	c-25.419-52.985-60.084-100.33-103.032-140.72c-53.671-50.475-117.354-87.167-186.28-108.195
	c-1.407-13.753-4.839-27.145-10.261-39.964c-7.032-16.626-17.085-31.544-29.879-44.337c-12.794-12.794-27.711-22.847-44.338-29.879
	c-17.25-7.296-35.533-10.996-54.342-10.996s-37.092,3.699-54.342,10.996c-16.627,7.032-31.544,17.085-44.338,29.879
	c-12.794,12.793-22.847,27.711-29.879,44.337c-5.422,12.82-8.854,26.211-10.261,39.964c-68.926,21.027-132.609,57.72-186.28,108.195
	c-42.948,40.39-77.613,87.735-103.032,140.72c-26.214,54.641-41.513,113.109-45.472,173.78
	C24.689,734.778,33.985,760.753,51.9,779.875z M372.018,355.951c22.652-7.547,46.195-13.145,70.431-16.596
	c18.8-2.677,38.013-4.068,57.552-4.068c19.539,0,38.752,1.391,57.552,4.068c24.235,3.451,47.778,9.049,70.431,16.596
	c152.662,50.862,264.874,190.218,275.77,357.217c0.943,14.461-10.452,26.74-24.943,26.74h-757.62
	c-14.491,0-25.887-12.279-24.943-26.74C107.144,546.169,219.355,406.813,372.018,355.951z M500,230.738
	c27.294,0,50.902,15.729,62.291,38.609c-20.516-2.692-41.315-4.062-62.291-4.062s-41.775,1.37-62.291,4.062
	C449.098,246.467,472.706,230.738,500,230.738z"/>
</svg>
