<?xml version="1.0" encoding="iso-8859-1"?>
<!-- Generator: Adobe Illustrator 18.0.0, SVG Export Plug-In . SVG Version: 6.00 Build 0)  -->
<!DOCTYPE svg PUBLIC "-//W3C//DTD SVG 1.1//EN" "http://www.w3.org/Graphics/SVG/1.1/DTD/svg11.dtd">
<svg version="1.1" id="Capa_1" xmlns="http://www.w3.org/2000/svg" xmlns:xlink="http://www.w3.org/1999/xlink" x="0px" y="0px"
	 viewBox="0 0 1000 1000" style="enable-background:new 0 0 1000 1000;" xml:space="preserve">
<path style="stroke:#000000;stroke-miterlimit:10;" d="M385.569,44.957c0-19.33-15.67-35-35-35s-35,15.67-35,35v129.372v41.781
	v129.373c0,58.37,22.731,113.247,64.005,154.521c21.941,21.941,47.726,38.642,75.836,49.473v359.565
	c0,43.388,35.298,78.686,78.686,78.686s78.685-35.298,78.685-78.686V549.478c28.11-10.831,53.896-27.531,75.836-49.473
	c41.274-41.274,64.005-96.151,64.005-154.521V216.11v-41.781V44.957c0-19.33-15.67-35-35-35s-35,15.67-35,35v129.372v41.781
	c0,69.844-48.464,128.572-113.526,144.35V44.957c0-19.33-15.67-35-35-35s-35,15.67-35,35V360.46
	c-65.063-15.776-113.527-74.505-113.527-144.35v-41.781V44.957z M542.781,909.043c0,4.789-3.896,8.686-8.685,8.686
	s-8.686-3.896-8.686-8.686V563.825c2.887,0.112,5.78,0.185,8.686,0.185c2.905,0,5.799-0.072,8.685-0.185V909.043z M534.096,434.637
	c53.745,0,104.519-19.284,144.449-54.558c-15.631,65.266-74.46,113.931-144.449,113.931c-69.99,0-128.818-48.665-144.449-113.931
	C429.577,415.353,480.351,434.637,534.096,434.637z"/>
</svg>
