<?xml version="1.0" encoding="iso-8859-1"?>
<!-- Generator: Adobe Illustrator 18.0.0, SVG Export Plug-In . SVG Version: 6.00 Build 0)  -->
<!DOCTYPE svg PUBLIC "-//W3C//DTD SVG 1.1//EN" "http://www.w3.org/Graphics/SVG/1.1/DTD/svg11.dtd">
<svg version="1.1" id="Capa_1" xmlns="http://www.w3.org/2000/svg" xmlns:xlink="http://www.w3.org/1999/xlink" x="0px" y="0px"
	 viewBox="0 0 1000 1000" style="enable-background:new 0 0 1000 1000;" xml:space="preserve">
<g>
	<path style="fill:#211915;stroke:#000000;stroke-miterlimit:10;" d="M175.659,625.376c-15.614-10.689-33.997-16.435-53.229-16.435
		c-24.279,0.001-47.428,9.13-65.182,25.707c-9.333,8.714-16.685,19.029-21.85,30.66c-5.41,12.183-8.152,25.2-8.151,38.691
		l0.015,179.08c-0.465,23.144,8.342,45.856,24.357,62.624c16.535,17.313,39.741,27.242,63.668,27.242
		c0.613,0,1.23-0.007,1.848-0.019l180.685,0.015c38.533,0.003,72.977-22.991,87.749-58.58c12.618-30.4,8.595-64.475-9.804-90.771
		L496.73,702.869c1.121-1.119,2.211-2.261,3.27-3.426c1.058,1.164,2.146,2.305,3.268,3.424L624.236,823.59
		c-18.398,26.295-22.423,60.369-9.806,90.768c14.771,35.588,49.211,58.583,87.742,58.583l180.692-0.015
		c0.617,0.013,1.234,0.019,1.848,0.019c23.927,0,47.133-9.929,63.668-27.242c16.016-16.769,24.822-39.481,24.357-62.624L972.752,704
		c0.001-13.49-2.741-26.508-8.151-38.69c-5.165-11.631-12.516-21.946-21.848-30.66c-17.756-16.578-40.904-25.707-65.183-25.707
		c-19.232,0-37.616,5.746-53.229,16.435l-121.66-121.914c-1.188-1.191-2.403-2.343-3.643-3.462c1.239-1.12,2.455-2.273,3.644-3.464
		l121.659-121.913c15.614,10.689,33.997,16.435,53.229,16.435c24.278,0,47.427-9.13,65.183-25.707
		c9.332-8.714,16.683-19.029,21.848-30.66c5.41-12.183,8.152-25.2,8.151-38.691l-0.015-179.08
		c0.465-23.144-8.342-45.856-24.357-62.624c-16.535-17.313-39.741-27.242-63.668-27.242c-0.613,0-1.23,0.007-1.848,0.019
		L702.18,27.058c-38.533-0.003-72.977,22.991-87.749,58.58c-12.618,30.4-8.596,64.475,9.804,90.771L503.27,297.131
		c-1.121,1.119-2.211,2.261-3.27,3.426c-1.058-1.164-2.146-2.305-3.268-3.424L375.766,176.409
		c18.397-26.295,22.422-60.368,9.805-90.767C370.8,50.054,336.36,27.058,297.829,27.058l-180.697,0.015
		c-0.597-0.012-1.194-0.019-1.788-0.019c-0.018,0-0.034,0-0.05,0c-23.928-0.002-47.135,9.927-63.671,27.24
		c-16.018,16.768-24.825,39.481-24.36,62.626L27.248,296c-0.001,13.49,2.741,26.508,8.151,38.69
		c5.165,11.631,12.516,21.946,21.848,30.66c17.756,16.578,40.904,25.707,65.183,25.707c19.232,0,37.616-5.746,53.229-16.435
		l121.66,121.914c1.188,1.191,2.403,2.343,3.643,3.463c-1.239,1.12-2.455,2.273-3.644,3.464L175.659,625.376z M500,428.188
		c1.037,1.141,2.104,2.261,3.201,3.359l65.061,65.06c1.165,1.166,2.357,2.295,3.571,3.392c-1.214,1.097-2.406,2.227-3.571,3.392
		l-65.06,65.059c-1.098,1.098-2.165,2.219-3.202,3.36c-1.037-1.141-2.104-2.261-3.201-3.359l-65.061-65.06
		c-1.165-1.166-2.357-2.295-3.571-3.392c1.214-1.097,2.406-2.227,3.571-3.392l65.06-65.059
		C497.896,430.451,498.963,429.33,500,428.188z M805.513,705.608c4.885,4.895,11.29,7.341,17.695,7.341
		c6.424,0,12.848-2.461,17.735-7.379l19.074-19.198c5.1-5.133,11.386-7.43,17.553-7.43c12.851,0,25.183,9.975,25.182,25.052
		l-0.015,180.061c0.476,10.335-7.793,18.892-18.025,18.892c-0.28,0-0.563-0.006-0.847-0.02l-181.691,0.015h-0.002
		c-22.254,0-33.417-26.894-17.702-42.653l20.079-20.136c9.746-9.774,9.728-25.598-0.043-35.348L552.717,653.322
		c-9.779-9.76-9.787-25.603-0.018-35.373l65.06-65.059c4.882-4.882,11.279-7.323,17.678-7.322c6.405,0,12.812,2.448,17.695,7.341
		L805.513,705.608z M552.717,346.678l151.789-151.483c9.771-9.75,9.789-25.574,0.043-35.348l-20.079-20.136
		c-15.716-15.76-4.553-42.655,17.704-42.653l181.691,0.015c0.283-0.013,0.566-0.019,0.847-0.019
		c10.232,0,18.501,8.557,18.025,18.892l0.015,180.061c0.001,15.077-12.331,25.052-25.182,25.052c-6.167,0-12.453-2.297-17.553-7.43
		l-19.074-19.198c-4.888-4.919-11.312-7.379-17.735-7.379c-6.405,0-12.811,2.446-17.695,7.341L653.132,447.092
		c-4.883,4.893-11.29,7.341-17.695,7.341c-6.398,0-12.796-2.44-17.678-7.322l-65.06-65.059
		C542.93,372.281,542.938,356.438,552.717,346.678z M194.487,294.392c-4.885-4.895-11.29-7.341-17.695-7.341
		c-6.424,0-12.848,2.461-17.735,7.379l-19.074,19.198c-5.1,5.133-11.386,7.43-17.553,7.43c-12.851,0-25.183-9.975-25.182-25.052
		l0.015-180.061c-0.476-10.335,7.793-18.893,18.025-18.892c0.28,0,0.563,0.006,0.847,0.019l181.691-0.015h0.002
		c22.254,0,33.417,26.894,17.702,42.653l-20.079,20.136c-9.746,9.774-9.728,25.598,0.043,35.348l151.789,151.483
		c9.779,9.76,9.787,25.603,0.018,35.373l-65.06,65.059c-4.882,4.882-11.279,7.322-17.678,7.322c-6.405,0-12.812-2.448-17.695-7.341
		L194.487,294.392z M346.868,552.908c4.883-4.893,11.29-7.341,17.695-7.341c6.398,0,12.796,2.44,17.678,7.322l65.06,65.059
		c9.77,9.77,9.762,25.613-0.018,35.373L295.494,804.805c-9.771,9.75-9.789,25.574-0.043,35.348l20.079,20.136
		c15.716,15.76,4.553,42.655-17.704,42.653l-181.691-0.015c-0.283,0.013-0.566,0.02-0.847,0.02
		c-10.232,0-18.501-8.557-18.025-18.892l-0.015-180.061c-0.001-15.077,12.331-25.052,25.182-25.052
		c6.167,0,12.453,2.297,17.553,7.43l19.074,19.198c4.888,4.919,11.312,7.379,17.735,7.379c6.405,0,12.811-2.446,17.695-7.341
		L346.868,552.908z"/>
</g>
</svg>
