<?xml version="1.0" encoding="iso-8859-1"?>
<!-- Generator: Adobe Illustrator 18.0.0, SVG Export Plug-In . SVG Version: 6.00 Build 0)  -->
<!DOCTYPE svg PUBLIC "-//W3C//DTD SVG 1.1//EN" "http://www.w3.org/Graphics/SVG/1.1/DTD/svg11.dtd">
<svg version="1.1" id="Capa_1" xmlns="http://www.w3.org/2000/svg" xmlns:xlink="http://www.w3.org/1999/xlink" x="0px" y="0px"
	 viewBox="0 0 1000 1000" style="enable-background:new 0 0 1000 1000;" xml:space="preserve">
<g>
	<path style="fill:#211915;stroke:#000000;stroke-miterlimit:10;" d="M100.002,460.926h265.774c52.383,0,95-42.617,95-95V100.152
		c0-52.383-42.617-95-95-95H100.002c-52.383,0-95,42.617-95,95v265.774C5.002,418.309,47.619,460.926,100.002,460.926z
		 M75.002,100.152c0-13.807,11.193-25,25-25h265.774c13.807,0,25,11.193,25,25v265.774c0,13.807-11.193,25-25,25H100.002
		c-13.807,0-25-11.193-25-25V100.152z"/>
	<path style="fill:#211915;stroke:#000000;stroke-miterlimit:10;" d="M899.998,5.152H634.224c-52.383,0-95,42.617-95,95v265.774
		c0,52.383,42.617,95,95,95h265.774c52.383,0,95-42.617,95-95V100.152C994.998,47.769,952.381,5.152,899.998,5.152z
		 M924.998,365.926c0,13.807-11.193,25-25,25H634.224c-13.807,0-25-11.193-25-25V100.152c0-13.807,11.193-25,25-25h265.774
		c13.807,0,25,11.193,25,25V365.926z"/>
	<path style="fill:#211915;stroke:#000000;stroke-miterlimit:10;" d="M100.002,992.796h265.774c52.383,0,95-42.617,95-95V632.022
		c0-52.383-42.617-95-95-95H100.002c-52.383,0-95,42.617-95,95v265.774C5.002,950.18,47.619,992.796,100.002,992.796z
		 M75.002,632.022c0-13.807,11.193-25,25-25h265.774c13.807,0,25,11.193,25,25v265.774c0,13.807-11.193,25-25,25H100.002
		c-13.807,0-25-11.193-25-25V632.022z"/>
	<path style="fill:#211915;stroke:#000000;stroke-miterlimit:10;" d="M899.998,537.022H634.224c-52.383,0-95,42.617-95,95v265.774
		c0,52.383,42.617,95,95,95h265.774c52.383,0,95-42.617,95-95V632.022C994.998,579.639,952.381,537.022,899.998,537.022z
		 M924.998,897.796c0,13.807-11.193,25-25,25H634.224c-13.807,0-25-11.193-25-25V632.022c0-13.807,11.193-25,25-25h265.774
		c13.807,0,25,11.193,25,25V897.796z"/>
</g>
</svg>
