<?xml version="1.0" encoding="iso-8859-1"?>
<!-- Generator: Adobe Illustrator 18.0.0, SVG Export Plug-In . SVG Version: 6.00 Build 0)  -->
<!DOCTYPE svg PUBLIC "-//W3C//DTD SVG 1.1//EN" "http://www.w3.org/Graphics/SVG/1.1/DTD/svg11.dtd">
<svg version="1.1" id="Capa_1" xmlns="http://www.w3.org/2000/svg" xmlns:xlink="http://www.w3.org/1999/xlink" x="0px" y="0px"
	 viewBox="0 0 1000 1000" style="enable-background:new 0 0 1000 1000;" xml:space="preserve">
<path style="stroke:#000000;stroke-miterlimit:10;" d="M147.031,668.732c17.249,17.254,40.097,26.757,64.332,26.757
	c24.168,0,47.815-9.817,64.878-26.935c10.871-10.906,18.628-24.12,22.829-38.564h70.938v70.971
	c-26.048,7.615-47.743,26.619-58.515,52.622c-14.167,34.2-6.406,73.21,19.771,99.384L438.53,960.215
	c16.029,16.65,38.301,26.155,61.469,26.155c23.17,0,45.442-9.506,61.473-26.158l108.236-108.22
	c26.157-26.152,33.929-65.139,19.799-99.322c-10.89-26.344-33.006-45.524-59.508-52.959v-69.72h73.89
	c4.667,11.868,11.746,22.741,20.987,32.012c17.785,17.843,42.435,28.076,67.628,28.076c25.229,0,49.022-9.902,66.998-27.881
	L960.21,561.473c16.652-16.029,26.159-38.301,26.16-61.47c0.001-23.171-9.505-45.445-26.158-61.475L851.992,330.29
	c-17.249-17.253-40.096-26.756-64.33-26.757c-23.275-0.001-45.47,8.745-62.496,24.627c-8.958,8.355-16.019,18.249-20.986,29.406
	c-1.805,4.053-3.302,8.203-4.488,12.432L630,370v-69.711c26.501-7.435,48.618-26.615,59.508-52.959
	c14.13-34.183,6.358-73.168-19.797-99.321L561.469,39.783C545.439,23.134,523.168,13.629,500,13.629
	c-23.174,0-45.45,9.51-61.48,26.166L331.268,147.03c-26.177,26.173-33.938,65.182-19.774,99.38
	c10.77,26.002,32.466,45.009,58.515,52.626V370H300.31c-1.188-4.231-2.685-8.382-4.49-12.437
	c-4.969-11.156-12.029-21.049-20.987-29.403c-17.023-15.877-39.213-24.623-62.48-24.626c-24.237-0.003-47.087,9.499-64.341,26.754
	L39.789,438.525c-16.653,16.03-26.16,38.304-26.16,61.475c0,23.172,9.507,45.447,26.163,61.476L147.031,668.732z M88.621,488.688
	l108.888-108.905c4.317-4.318,9.624-6.25,14.833-6.25c10.883,0.001,21.325,8.444,21.343,21.203l0.033,24.103
	c0.017,11.693,9.5,21.161,21.19,21.161c0.007,0,0.015,0,0.021,0h160.078c13.808,0,25-11.193,25-25V253.845
	c0.013-11.715-9.48-21.212-21.188-21.212c-0.023,0-0.048,0-0.07,0l-22.938,0.074c-0.025,0-0.05,0-0.075,0
	c-18.861,0-28.332-22.821-14.976-36.176l107.928-107.91c3.036-3.328,7.173-4.992,11.312-4.992c4.138,0,8.275,1.664,11.312,4.992
	l108.905,108.888c13.34,13.338,3.911,36.148-14.953,36.175l-24.103,0.034c-11.7,0.016-21.173,9.512-21.161,21.212V415
	c0,13.807,11.192,25,25,25h160.07c0.007,0,0.014,0,0.021,0c11.69,0,21.175-9.468,21.19-21.162l0.034-24.102
	c0.018-12.76,10.459-21.203,21.343-21.203c5.207,0,10.517,1.933,14.833,6.25l108.887,108.904c6.657,6.072,6.657,16.552,0,22.623
	L810.002,612.705c-5.095,5.095-11.355,7.375-17.497,7.375c-12.878,0-25.229-10.024-25.182-25.13l0.043-13.7
	c0.039-11.73-9.46-21.258-21.188-21.258c-0.007,0-0.017,0-0.023,0H585.001c-13.808,0-25,11.193-25,25V745.07
	c-0.011,11.699,9.461,21.195,21.161,21.211l24.103,0.034c18.865,0.026,28.293,22.837,14.952,36.175L511.312,911.378
	c-3.036,3.329-7.174,4.993-11.312,4.993s-8.275-1.664-11.312-4.992L380.76,803.468c-13.356-13.354-3.888-36.177,14.977-36.175
	c0.024,0,0.051,0,0.075,0l22.938,0.074c0.023,0,0.046,0,0.069,0c11.706,0,21.201-9.498,21.189-21.213V584.991
	c-0.001-13.807-11.193-25-25.001-25H253.845c-0.008,0-0.015,0-0.022,0c-11.728,0-21.228,9.528-21.19,21.258l0.074,22.939
	c0.041,12.806-10.428,21.301-21.344,21.301c-5.206,0-10.514-1.933-14.831-6.251L88.621,511.311
	C81.965,505.24,81.965,494.76,88.621,488.688z"/>
</svg>
