<?xml version="1.0" encoding="iso-8859-1"?>
<!-- Generator: Adobe Illustrator 18.0.0, SVG Export Plug-In . SVG Version: 6.00 Build 0)  -->
<!DOCTYPE svg PUBLIC "-//W3C//DTD SVG 1.1//EN" "http://www.w3.org/Graphics/SVG/1.1/DTD/svg11.dtd">
<svg version="1.1" id="Capa_1" xmlns="http://www.w3.org/2000/svg" xmlns:xlink="http://www.w3.org/1999/xlink" x="0px" y="0px"
	 viewBox="0 0 1000 1000" style="enable-background:new 0 0 1000 1000;" xml:space="preserve">
<path style="fill:#211915;stroke:#000000;stroke-miterlimit:10;" d="M536.406,110.953H334.148c-52.383,0-95,42.617-95,95v149.584
	c0,52.383,42.617,95,95,95h202.258c52.383,0,95-42.617,95-95V205.953C631.406,153.57,588.79,110.953,536.406,110.953z
	 M561.406,355.537c0,13.808-11.193,25-25,25H334.148c-13.807,0-25-11.192-25-25V205.953c0-13.807,11.193-25,25-25h202.258
	c13.807,0,25,11.193,25,25V355.537z"/>
<path style="fill:#211915;stroke:#000000;stroke-miterlimit:10;" d="M508.385,483.711H362.17c-19.33,0-35,15.67-35,35
	c0,19.33,15.67,35,35,35h146.215c19.33,0,35-15.67,35-35S527.715,483.711,508.385,483.711z"/>
<path style="fill:#211915;stroke:#000000;stroke-miterlimit:10;" d="M508.385,581.027H362.17c-19.33,0-35,15.67-35,35
	s15.67,35,35,35h146.215c19.33,0,35-15.67,35-35S527.715,581.027,508.385,581.027z"/>
<path style="fill:#211915;stroke:#000000;stroke-miterlimit:10;" d="M847.391,780.028h24.583c40.819,0,74.027-33.209,74.027-74.027
	V409.267c0.132-2.663,0.316-8.469,0-16.461V276.805v-0.12c0.654-12.454,1.658-76.957-42.888-123.902
	c-29.416-31-70.804-46.719-123.012-46.719h-33.759v-5.8c0-52.269-42.524-94.793-94.793-94.793H219.005
	c-52.269,0-94.793,42.524-94.793,94.793v681.023c-47.861,4.746-85.368,45.239-85.368,94.328v23.121
	c0,52.269,42.524,94.793,94.793,94.793h603.28c52.269,0,94.793-42.524,94.793-94.793v-23.121c0-49.089-37.507-89.582-85.367-94.328
	V654.629h27.021v51.372C773.364,746.819,806.573,780.028,847.391,780.028z M876.001,706.001c0,2.221-1.807,4.027-4.027,4.027
	h-24.583c-2.221,0-4.027-1.807-4.027-4.027V560.527c0-40.818-33.208-74.027-74.027-74.027h-22.994V291.709h33.759
	c30.11,0,52.379,8.102,68.08,24.767c22.398,23.776,26.997,59.842,27.82,78.109v311.416H876.001z M780.102,176.063
	c32.252,0,56.555,8.378,72.234,24.902c13.155,13.862,19.095,31.842,21.748,46.38c-25.722-17.025-57.193-25.637-93.982-25.637
	h-33.759v-45.646L780.102,176.063L780.102,176.063z M761.71,875.615v23.121c0,13.692-11.1,24.793-24.793,24.793h-603.28
	c-13.693,0-24.793-11.101-24.793-24.793v-23.121c0-13.692,11.1-24.793,24.793-24.793h35.782c13.693,0,24.793-11.1,24.793-24.793
	V100.264c0-13.692,11.1-24.793,24.793-24.793H651.55c13.693,0,24.793,11.101,24.793,24.793V826.03
	c0,13.693,11.1,24.793,24.792,24.793h35.782C750.61,850.822,761.71,861.923,761.71,875.615z M746.343,584.629V556.5h22.994
	c2.221,0,4.027,1.807,4.027,4.027v24.102L746.343,584.629L746.343,584.629z"/>
</svg>
