<?xml version="1.0" encoding="iso-8859-1"?>
<!-- Generator: Adobe Illustrator 18.0.0, SVG Export Plug-In . SVG Version: 6.00 Build 0)  -->
<!DOCTYPE svg PUBLIC "-//W3C//DTD SVG 1.1//EN" "http://www.w3.org/Graphics/SVG/1.1/DTD/svg11.dtd">
<svg version="1.1" id="Capa_1" xmlns="http://www.w3.org/2000/svg" xmlns:xlink="http://www.w3.org/1999/xlink" x="0px" y="0px"
	 viewBox="0 0 1000 1000" style="enable-background:new 0 0 1000 1000;" xml:space="preserve">
<path style="stroke:#000000;stroke-miterlimit:10;" d="M844.916,158.461c-44.336-44.336-95.984-79.153-153.509-103.484
	c-59.593-25.206-122.855-37.986-188.03-37.986s-128.438,12.78-188.03,37.986c-57.525,24.331-109.172,59.148-153.509,103.484
	c-44.336,44.336-79.153,95.984-103.484,153.509C33.148,371.562,20.368,434.825,20.368,500s12.78,128.438,37.986,188.03
	c24.331,57.525,59.148,109.172,103.484,153.509c44.336,44.336,95.984,79.153,153.509,103.484
	c59.593,25.206,122.855,37.986,188.03,37.986s128.438-12.78,188.03-37.986c57.525-24.331,109.172-59.148,153.509-103.484
	c44.336-44.336,79.153-95.984,103.484-153.509c25.206-59.593,37.986-122.855,37.986-188.03s-12.78-128.438-37.986-188.03
	C924.069,254.445,889.252,202.797,844.916,158.461z M765.386,465c-2.226-61.241-10.283-120.308-23.594-174.352
	c31.968-12.519,61.346-27.573,87.248-44.678c47.993,61.44,78.976,136.809,85.876,219.03H765.386z M538.377,93.798
	c47.051,18.514,88.124,73.667,116.541,151.163c-36.942,9.274-76.339,15.113-116.541,17.265V93.798z M468.377,93.798v168.43
	c-40.49-2.173-79.788-8.087-116.521-17.321C380.272,167.44,421.337,112.308,468.377,93.798z M331.768,312.123
	c43.547,11.227,89.28,17.993,136.609,20.22V465H311.412C313.553,410.317,320.66,358.663,331.768,312.123z M468.377,535v132.657
	c-47.328,2.227-93.062,8.993-136.609,20.22c-11.108-46.54-18.215-98.194-20.356-152.877L468.377,535L468.377,535z M468.377,737.771
	v168.43c-47.04-18.509-88.105-73.642-116.521-151.109C388.589,745.858,427.887,739.944,468.377,737.771z M538.377,906.202V737.774
	c40.202,2.151,79.599,7.99,116.541,17.265C626.501,832.534,585.428,887.688,538.377,906.202z M674.977,687.91
	c-43.316-11.096-89.563-17.945-136.601-20.225V535H695.34C693.2,589.696,686.09,641.362,674.977,687.91z M538.377,465V332.315
	c47.038-2.28,93.285-9.129,136.601-20.225C686.09,358.638,693.2,410.304,695.341,465H538.377z M780.604,193.861
	c-17.883,10.949-37.699,20.853-59.063,29.512c-5.667-15.667-11.833-30.708-18.502-45.005c-9.435-20.226-19.72-38.714-30.794-55.382
	C712.118,140.873,748.639,164.897,780.604,193.861z M334.509,122.985c-11.074,16.668-21.36,35.156-30.794,55.382
	c-6.666,14.291-12.83,29.326-18.495,44.986c-21.257-8.589-41.072-18.455-59.08-29.485
	C258.107,164.902,294.631,140.875,334.509,122.985z M177.713,245.972c25.898,17.092,55.31,32.152,87.251,44.666
	c-13.313,54.047-21.37,113.117-23.596,174.362H91.838C98.738,382.779,129.72,307.411,177.713,245.972z M241.368,535
	c2.226,61.245,10.284,120.315,23.597,174.362c-31.941,12.514-61.353,27.574-87.251,44.666C129.72,692.589,98.738,617.221,91.838,535
	H241.368z M226.14,806.131c18.007-11.03,37.822-20.896,59.08-29.485c5.665,15.66,11.829,30.695,18.495,44.986
	c9.435,20.226,19.72,38.714,30.794,55.382C294.631,859.125,258.107,835.098,226.14,806.131z M672.244,877.015
	c11.074-16.668,21.36-35.156,30.794-55.382c6.669-14.297,12.835-29.338,18.502-45.005c21.365,8.659,41.18,18.563,59.063,29.512
	C748.639,835.103,712.118,859.127,672.244,877.015z M829.039,754.029c-25.902-17.104-55.28-32.159-87.248-44.678
	c13.312-54.043,21.369-113.11,23.595-174.351h149.53C908.016,617.221,877.033,692.59,829.039,754.029z"/>
</svg>
