<?xml version="1.0" encoding="iso-8859-1"?>
<!-- Generator: Adobe Illustrator 18.0.0, SVG Export Plug-In . SVG Version: 6.00 Build 0)  -->
<!DOCTYPE svg PUBLIC "-//W3C//DTD SVG 1.1//EN" "http://www.w3.org/Graphics/SVG/1.1/DTD/svg11.dtd">
<svg version="1.1" id="Capa_1" xmlns="http://www.w3.org/2000/svg" xmlns:xlink="http://www.w3.org/1999/xlink" x="0px" y="0px"
	 viewBox="0 0 1000 1000" style="enable-background:new 0 0 1000 1000;" xml:space="preserve">
<path style="stroke:#000000;stroke-miterlimit:10;" d="M654.05,478.149l42.577-42.577c2.516,0.198,5.053,0.298,7.604,0.298
	c25.375,0,49.232-9.882,67.175-27.825l40.542-40.542c37.039-37.042,37.038-97.31,0.001-134.349L623.717,44.923
	c-17.943-17.943-41.799-27.825-67.175-27.825c-25.375,0-49.231,9.881-67.174,27.824l-40.543,40.542
	c-20.439,20.44-29.599,47.954-27.481,74.733L163.221,418.321c-2.516-0.198-5.053-0.298-7.604-0.298
	c-25.375,0-49.232,9.882-67.175,27.825L47.9,486.39c-37.041,37.042-37.04,97.311,0,134.35l188.231,188.23
	c17.941,17.943,41.798,27.825,67.174,27.825c25.375,0,49.232-9.882,67.175-27.825l40.542-40.542
	c17.943-17.943,27.825-41.8,27.825-67.175c0-2.551-0.1-5.088-0.298-7.604l42.578-42.578l305.23,305.23
	c17.942,17.943,41.799,27.825,67.175,27.825s49.232-9.882,67.176-27.825l38.572-38.572c37.04-37.043,37.039-97.311,0-134.35
	L654.05,478.149z M432.261,600.944l-76.684,76.684l5.948,5.948c9.763,9.763,9.763,25.592,0,35.355l-40.542,40.542
	c-4.881,4.881-11.28,7.322-17.678,7.322s-12.796-2.441-17.677-7.322l-188.23-188.23c-9.763-9.763-9.763-25.592,0-35.355
	l40.542-40.542c4.882-4.881,11.28-7.322,17.678-7.322s12.796,2.441,17.678,7.322l5.948,5.948l325.029-325.028l-5.949-5.948
	c-9.763-9.763-9.763-25.592,0-35.355l40.542-40.542c4.881-4.881,11.28-7.322,17.678-7.322s12.796,2.441,17.678,7.322l188.23,188.23
	c9.763,9.763,9.763,25.592,0,35.355l-40.542,40.542c-4.882,4.881-11.28,7.322-17.678,7.322s-12.796-2.441-17.678-7.322l-5.948-5.949
	l-76.684,76.684l-51.473,51.473l-68.714,68.715L432.261,600.944z M909.783,868.233l-38.572,38.572
	c-4.882,4.882-11.28,7.322-17.678,7.322c-6.398,0-12.797-2.44-17.678-7.322l-305.231-305.23l73.928-73.928l305.231,305.231
	C919.546,842.641,919.546,858.47,909.783,868.233z"/>
</svg>
