<?xml version="1.0" encoding="iso-8859-1"?>
<!-- Generator: Adobe Illustrator 18.0.0, SVG Export Plug-In . SVG Version: 6.00 Build 0)  -->
<!DOCTYPE svg PUBLIC "-//W3C//DTD SVG 1.1//EN" "http://www.w3.org/Graphics/SVG/1.1/DTD/svg11.dtd">
<svg version="1.1" id="Capa_1" xmlns="http://www.w3.org/2000/svg" xmlns:xlink="http://www.w3.org/1999/xlink" x="0px" y="0px"
	 viewBox="0 0 1000 1000" style="enable-background:new 0 0 1000 1000;" xml:space="preserve">
<path style="stroke:#000000;stroke-miterlimit:10;" d="M956.55,781.992L668.716,464.654V163.687c0-52.383-42.617-95-95-95H427.359
	c-52.383,0-95,42.617-95,95v300.905L43.66,781.881c-13.005,14.293-21.266,31.865-23.89,50.817c-2.421,17.48,0.093,35.3,7.27,51.532
	c7.176,16.232,18.665,30.084,33.224,40.058c15.784,10.813,34.34,16.528,53.663,16.528h772.257c19.308,0,37.852-5.707,53.628-16.505
	c14.554-9.96,26.044-23.797,33.229-40.013s9.714-34.022,7.314-51.494C977.753,813.863,969.521,796.293,956.55,781.992z
	 M886.183,870.815H113.926c-21.708,0-33.101-25.768-18.491-41.825L395.85,498.825c4.188-4.603,6.509-10.602,6.509-16.825V163.687
	c0-13.807,11.193-25,25-25h146.357c13.807,0,25,11.193,25,25v318.335c0,6.209,2.311,12.197,6.482,16.796L904.701,829.02
	C919.273,845.086,907.874,870.815,886.183,870.815z"/>
<path style="stroke:#000000;stroke-miterlimit:10;" d="M563.362,524.218c-4.744-5.336-11.544-8.391-18.685-8.391c0,0,0,0-0.001,0
	l-88.574,0.004c-7.128,0-13.917,3.043-18.661,8.364L205.57,784.305c-11.628,12.78-2.561,33.289,14.717,33.289h559.544
	c17.263,0,26.336-20.479,14.738-33.266L563.362,524.218z M332.071,747.594l144.201-161.763l48.197-0.002L668.26,747.594H332.071z"/>
</svg>
