<?xml version="1.0" encoding="iso-8859-1"?>
<!-- Generator: Adobe Illustrator 18.0.0, SVG Export Plug-In . SVG Version: 6.00 Build 0)  -->
<!DOCTYPE svg PUBLIC "-//W3C//DTD SVG 1.1//EN" "http://www.w3.org/Graphics/SVG/1.1/DTD/svg11.dtd">
<svg version="1.1" id="Capa_1" xmlns="http://www.w3.org/2000/svg" xmlns:xlink="http://www.w3.org/1999/xlink" x="0px" y="0px"
	 viewBox="0 0 1000 1000" style="enable-background:new 0 0 1000 1000;" xml:space="preserve">
<g>
	<path style="fill:#211915;stroke:#000000;stroke-miterlimit:10;" d="M773.546,495.429c-11.334-4.562-23.19-6.875-35.241-6.875
		c-52.294,0-94.838,42.69-94.838,95.163v296.247c0,52.473,42.544,95.163,94.838,95.163c12.051,0,23.907-2.313,35.242-6.875
		c46.605-18.76,86.344-50.623,114.916-92.146c29.282-42.554,44.76-92.439,44.76-144.266V447.629
		c0-58.47-11.459-115.208-34.059-168.641c-21.822-51.592-53.055-97.919-92.829-137.694c-39.775-39.774-86.103-71.007-137.694-92.828
		C615.208,25.865,558.47,14.406,500,14.406s-115.208,11.459-168.641,34.06c-51.592,21.821-97.919,53.054-137.694,92.828
		c-39.774,39.775-71.007,86.103-92.829,137.694c-22.6,53.433-34.059,110.171-34.059,168.641v284.212
		c0,51.826,15.478,101.712,44.76,144.266c28.572,41.522,68.311,73.386,114.917,92.146c11.332,4.561,23.188,6.874,35.239,6.875
		c0.003,0,0.003,0,0.003,0c24.779,0,48.3-9.641,66.23-27.144c18.447-18.01,28.606-42.166,28.606-68.02V583.717
		c0-52.473-42.544-95.163-94.838-95.163c-12.051,0-23.907,2.313-35.242,6.875c-34.144,13.743-64.594,34.527-89.676,60.982V447.629
		c0-97.021,37.782-188.233,106.386-256.837C311.767,122.188,402.979,84.406,500,84.406s188.233,37.781,256.837,106.386
		c68.604,68.604,106.386,159.816,106.386,256.837v108.782C838.141,529.956,807.69,509.172,773.546,495.429z M169.203,627.256
		c20.749-30.153,49.585-53.284,83.388-66.89c2.987-1.203,6.051-1.812,9.104-1.812c11.945,0,24.838,9.62,24.838,25.163v296.247
		c0,8.764-4.081,14.587-7.506,17.93c-4.709,4.597-11.024,7.233-17.328,7.233h-0.001c-3.056,0-6.12-0.61-9.107-1.812
		c-33.803-13.605-62.639-36.736-83.388-66.89c-21.213-30.827-32.426-66.992-32.426-104.584
		C136.777,694.248,147.99,658.084,169.203,627.256z M830.797,836.425c-20.749,30.153-49.585,53.284-83.388,66.89
		c-2.987,1.203-6.051,1.812-9.104,1.812c-11.945,0-24.838-9.62-24.838-25.163V583.717c0-15.543,12.893-25.163,24.838-25.163
		c3.054,0,6.117,0.609,9.104,1.812c33.803,13.605,62.639,36.736,83.388,66.89c21.213,30.828,32.426,66.992,32.426,104.585
		C863.223,769.433,852.01,805.598,830.797,836.425z"/>
</g>
</svg>
