<?xml version="1.0" encoding="iso-8859-1"?>
<!-- Generator: Adobe Illustrator 18.0.0, SVG Export Plug-In . SVG Version: 6.00 Build 0)  -->
<!DOCTYPE svg PUBLIC "-//W3C//DTD SVG 1.1//EN" "http://www.w3.org/Graphics/SVG/1.1/DTD/svg11.dtd">
<svg version="1.1" id="Capa_1" xmlns="http://www.w3.org/2000/svg" xmlns:xlink="http://www.w3.org/1999/xlink" x="0px" y="0px"
	 viewBox="0 0 1000 1000" style="enable-background:new 0 0 1000 1000;" xml:space="preserve">
<g>
	<path style="fill:#211915;stroke:#000000;stroke-miterlimit:10;" d="M119.79,108.292v782.456c0,52.383,42.617,95,95,95h568.978
		c52.383,0,95-42.617,95-95V108.292c0-52.383-42.617-95-95-95H214.79C162.407,13.292,119.79,55.908,119.79,108.292z
		 M808.768,108.292v782.456c0,13.807-11.193,25-25,25H214.79c-13.807,0-25-11.193-25-25V108.292c0-13.807,11.193-25,25-25h568.978
		C797.574,83.292,808.768,94.484,808.768,108.292z"/>
	<path style="fill:#211915;stroke:#000000;stroke-miterlimit:10;" d="M319.422,550.51c17.971,31.653,42.395,61.612,72.592,89.044
		c3.028,2.751,6.164,5.652,9.483,8.724c12.853,11.894,27.419,25.375,43.666,37.327c15.792,11.616,34.503,17.756,54.111,17.756
		c18.187,0,35.79-5.354,50.907-15.481c30.222-20.249,57.983-44.913,82.513-73.31c28.291-32.749,58.831-72.787,70.831-121.43
		c2.88-11.678,4.554-23.349,4.973-34.689c0.949-25.673-4.31-49.458-15.632-70.695c-12.306-23.082-30.764-42.462-53.378-56.044
		c-22.635-13.594-48.432-20.779-74.603-20.779c-23.203,0-45.699,5.477-65.901,15.801c-20.203-10.325-42.699-15.801-65.903-15.801
		c-27.453,0-54.261,7.911-77.522,22.877c-22.76,14.643-40.967,35.3-52.653,59.738c-13.649,28.545-16.897,59.7-9.652,92.6
		C297.736,506.512,306.052,526.963,319.422,550.51z M366.056,423.747c12.32-25.763,38.344-42.814,67.025-42.814
		c19.914,0,38.015,7.763,51.44,20.428c4.04,3.811,9.25,5.715,14.462,5.715c5.211,0,10.423-1.906,14.462-5.715
		c13.427-12.665,31.527-20.428,51.44-20.428c27.471,0,53.288,15.516,66.211,39.756c5.791,10.862,7.901,22.951,7.449,35.175
		c-0.256,6.919-1.326,13.792-2.983,20.51c-8.47,34.334-33.092,66.103-55.841,92.436c-20.041,23.2-43.035,43.852-68.502,60.914
		c-3.621,2.426-7.787,3.636-11.945,3.636c-4.444,0-8.88-1.383-12.632-4.143c-16.764-12.332-32.722-27.998-47.561-41.477
		c-22.899-20.802-43.482-44.835-58.788-71.793C364.424,487.997,351.1,455.024,366.056,423.747z"/>
</g>
</svg>
