<?xml version="1.0" encoding="iso-8859-1"?>
<!-- Generator: Adobe Illustrator 18.0.0, SVG Export Plug-In . SVG Version: 6.00 Build 0)  -->
<!DOCTYPE svg PUBLIC "-//W3C//DTD SVG 1.1//EN" "http://www.w3.org/Graphics/SVG/1.1/DTD/svg11.dtd">
<svg version="1.1" id="Capa_1" xmlns="http://www.w3.org/2000/svg" xmlns:xlink="http://www.w3.org/1999/xlink" x="0px" y="0px"
	 viewBox="0 0 1000 1000" style="enable-background:new 0 0 1000 1000;" xml:space="preserve">
<path style="stroke:#000000;stroke-miterlimit:10;" d="M28.782,891c0,52.383,42.617,95,95,95h201.371c52.383,0,95-42.617,95-95
	V516.015h159.693V891c0,52.383,42.617,95,95,95h201.371c52.383,0,95-42.617,95-95V391.428c0-30.873-15.071-59.914-40.316-77.684
	L554.688,48.893C538.594,37.562,519.683,31.574,500,31.574c-19.682,0-38.592,5.988-54.686,17.318L69.095,313.748
	c-25.241,17.767-40.312,46.808-40.312,77.681V891H28.782z M98.782,391.428c0-8.134,3.957-15.76,10.608-20.442l376.218-264.854
	c4.315-3.039,9.354-4.558,14.392-4.558s10.076,1.519,14.392,4.558L890.61,370.986c6.651,4.682,10.608,12.308,10.608,20.442V891
	c0,13.807-11.193,25-25,25H674.847c-13.807,0-25-11.193-25-25V471.015c0-13.807-11.193-25-25-25H375.153c-13.807,0-25,11.193-25,25
	V891c0,13.807-11.193,25-25,25H123.782c-13.807,0-25-11.193-25-25V391.428z"/>
</svg>
