<?xml version="1.0" encoding="iso-8859-1"?>
<!-- Generator: Adobe Illustrator 18.0.0, SVG Export Plug-In . SVG Version: 6.00 Build 0)  -->
<!DOCTYPE svg PUBLIC "-//W3C//DTD SVG 1.1//EN" "http://www.w3.org/Graphics/SVG/1.1/DTD/svg11.dtd">
<svg version="1.1" id="Capa_1" xmlns="http://www.w3.org/2000/svg" xmlns:xlink="http://www.w3.org/1999/xlink" x="0px" y="0px"
	 viewBox="0 0 1000 1000" style="enable-background:new 0 0 1000 1000;" xml:space="preserve">
<path style="stroke:#000000;stroke-miterlimit:10;" d="M840.192,152.846c-43.534-44.137-94.396-78.788-151.173-102.99
	c-58.554-24.96-120.85-37.67-185.173-37.793v-0.006c-0.157,0-0.313,0.003-0.47,0.003s-0.313-0.003-0.47-0.003v0.006
	c-64.323,0.123-126.619,12.833-185.173,37.793c-56.777,24.203-107.639,58.853-151.173,102.99
	c-43.337,43.937-77.33,95.161-101.034,152.25c-24.42,58.813-36.802,121.258-36.802,185.601c0,39.75,4.755,86.017,14.132,137.516
	c9.127,50.123,22.14,102.614,38.679,156.016l20.709,66.867l0.272-0.084l19.655,60.316l13.633,41.835
	c4.278,13.128,18.388,20.303,31.516,16.024l41.835-13.633l102.128-33.28l41.835-13.632c13.128-4.278,20.302-18.389,16.024-31.516
	l-13.632-41.835l-39.425-123.706c-25.796-83.289-41.82-167.928-41.82-220.889c0-62.8,23.833-121.549,67.109-165.425
	c42.935-43.529,100.452-67.546,162.002-67.667c61.55,0.122,119.067,24.139,162.002,67.667
	c43.276,43.875,67.109,102.625,67.109,165.425c0,52.96-16.024,137.6-41.82,220.889l-39.425,123.706l-13.632,41.835
	c-4.278,13.127,2.896,27.237,16.024,31.516l41.835,13.632l102.128,33.28l41.835,13.633c13.128,4.278,27.238-2.896,31.516-16.024
	l13.633-41.835l19.655-60.316l0.272,0.084l20.709-66.867c16.539-53.402,29.552-105.893,38.679-156.016
	c9.378-51.499,14.132-97.766,14.132-137.516c0-64.343-12.382-126.788-36.802-185.601
	C917.522,248.007,883.529,196.783,840.192,152.846z M289.906,856.669l-102.128,33.28l-0.051-0.156l-19.291-59.198l0.676-0.209
	l100.816-31.225l0.642-0.199l0.482-0.149L289.906,856.669z M818.975,889.949l-102.128-33.28l18.853-57.856l1.124,0.348
	l100.816,31.225l0.676,0.209L818.975,889.949z M858.35,763.519l-51.484-15.946l-49.111-16.003
	c28.014-90.642,44.732-180.64,44.732-240.874c0-81.316-30.994-157.522-87.272-214.581c-56.083-56.859-131.116-88.262-211.369-88.506
	v-0.011c-0.157,0-0.313,0.005-0.47,0.006c-0.157,0-0.313-0.006-0.47-0.006v0.011c-80.253,0.244-155.286,31.647-211.369,88.506
	c-56.279,57.058-87.272,133.264-87.272,214.581c0,60.233,16.718,150.231,44.732,240.874l-49.111,16.003l-51.484,15.946
	c-31.57-101.939-49.677-201.378-49.677-272.823c0-55.083,10.581-108.496,31.451-158.757c20.233-48.728,49.242-92.445,86.222-129.938
	c37.104-37.618,80.434-67.142,128.785-87.752c49.97-21.301,103.192-32.128,158.193-32.189
	c55.002,0.062,108.224,10.889,158.194,32.19c48.351,20.611,91.681,50.134,128.785,87.752c36.98,37.492,65.99,81.21,86.222,129.938
	c20.869,50.261,31.451,103.674,31.451,158.757C908.028,562.141,889.921,661.58,858.35,763.519z"/>
</svg>
