<?xml version="1.0" encoding="iso-8859-1"?>
<!-- Generator: Adobe Illustrator 18.0.0, SVG Export Plug-In . SVG Version: 6.00 Build 0)  -->
<!DOCTYPE svg PUBLIC "-//W3C//DTD SVG 1.1//EN" "http://www.w3.org/Graphics/SVG/1.1/DTD/svg11.dtd">
<svg version="1.1" id="Capa_1" xmlns="http://www.w3.org/2000/svg" xmlns:xlink="http://www.w3.org/1999/xlink" x="0px" y="0px"
	 viewBox="0 0 1000 1000" style="enable-background:new 0 0 1000 1000;" xml:space="preserve">
<path style="stroke:#000000;stroke-miterlimit:10;" d="M276.703,230.364l69.944,2.795c0.208-5.191,1.116-51.662-30.403-84.466
	c-12.992-13.521-36.554-29.64-75.023-29.64c-21.463,0-37.276-7.189-48.344-21.979c-10.495-14.024-14.218-31.742-14.218-42.653
	c0-19.33-15.67-35-35-35s-35,15.67-35,35c0,29.396,10.532,61.02,28.174,84.594c17.083,22.827,49.06,50.038,104.388,50.038
	c16.573,0,22.451,5.998,24.383,7.969c9.412,9.604,11.203,27.985,11.089,33.668L276.703,230.364z"/>
<path style="stroke:#000000;stroke-miterlimit:10;" d="M523.604,230.364l69.944,2.795c0.208-5.191,1.116-51.662-30.403-84.466
	c-12.992-13.521-36.554-29.64-75.024-29.64c-21.462,0-37.276-7.189-48.344-21.979c-10.495-14.023-14.218-31.741-14.218-42.652
	c0-19.33-15.67-35-35-35s-35,15.67-35,35c0,29.396,10.532,61.02,28.174,84.594c17.083,22.827,49.06,50.038,104.388,50.038
	c16.573,0,22.452,5.998,24.383,7.969c9.412,9.604,11.203,27.986,11.089,33.668L523.604,230.364z"/>
<path style="stroke:#000000;stroke-miterlimit:10;" d="M902.12,362.176c-21.175-21.98-45.902-39.271-73.496-51.39
	c-28.794-12.646-59.365-19.058-90.866-19.058h-84.929H364.046h-70H141.381c-51.711,0-93.782,42.07-93.782,93.782v246.81
	c0,47.193,9.259,93.011,27.518,136.182c17.622,41.663,42.835,79.066,74.938,111.169c32.103,32.104,69.506,57.315,111.168,74.938
	c43.171,18.26,88.989,27.519,136.182,27.519c47.271,0,93.159-9.287,136.389-27.604c41.715-17.676,79.149-42.961,111.263-75.152
	c32.114-32.192,57.307-69.688,74.881-111.446c0.146-0.347,0.279-0.697,0.424-1.044h17.396c30.756,0,60.659-6.122,88.879-18.196
	c27.053-11.574,51.445-28.131,72.498-49.208c21.952-21.977,39.187-47.75,51.227-76.604c12.405-29.729,18.676-61.302,18.639-93.843
	c-0.036-31.688-6.062-62.481-17.912-91.527C939.588,409.311,923.113,383.968,902.12,362.176z M642.773,766.88
	c-47.569,86.556-139.595,145.247-245.368,145.247l0,0c-154.533,0-279.806-125.273-279.806-279.807V385.51
	c0-13.135,10.647-23.782,23.782-23.782h152.665h70h288.782c13.112,0,23.75,10.612,23.783,23.725l0.6,246.186
	c0.055,22.46-2.555,44.302-7.501,65.241C663.859,721.646,654.72,745.142,642.773,766.88z M899.001,529.107
	c0.104,91.408-70.233,165.787-157.74,167.727c3.993-21.405,6.002-43.233,5.949-65.366l-0.599-246.185
	c-0.02-8.015-1.043-15.872-3-23.434C829.877,365.051,898.899,438.672,899.001,529.107L899.001,529.107z"/>
</svg>
