<?xml version="1.0" encoding="iso-8859-1"?>
<!-- Generator: Adobe Illustrator 18.0.0, SVG Export Plug-In . SVG Version: 6.00 Build 0)  -->
<!DOCTYPE svg PUBLIC "-//W3C//DTD SVG 1.1//EN" "http://www.w3.org/Graphics/SVG/1.1/DTD/svg11.dtd">
<svg version="1.1" id="Capa_1" xmlns="http://www.w3.org/2000/svg" xmlns:xlink="http://www.w3.org/1999/xlink" x="0px" y="0px"
	 viewBox="0 0 1000 1000" style="enable-background:new 0 0 1000 1000;" xml:space="preserve">
<path style="fill:#211915;stroke:#000000;stroke-miterlimit:10;" d="M907.376,154.068c18.029-28.885,18.97-65.327,2.455-95.104
	c-16.515-29.777-47.927-48.274-81.977-48.274H172.146c-34.05,0-65.462,18.498-81.977,48.274
	c-16.515,29.777-15.574,66.219,2.455,95.104c0.671,1.076,1.372,2.133,2.101,3.171l241.046,343.156L94.725,843.552
	c-0.729,1.038-1.429,2.095-2.101,3.171c-18.03,28.885-18.97,65.326-2.456,95.103c16.515,29.777,47.927,48.275,81.977,48.275h655.709
	c34.05,0,65.462-18.498,81.977-48.275c16.515-29.777,15.574-66.218-2.456-95.103c-0.628-1.007-1.282-1.997-1.96-2.97L666.02,500.395
	l239.396-343.357C906.094,156.065,906.748,155.075,907.376,154.068z M847.995,117.003L590.886,485.764
	c-6.129,8.791-6.129,20.471,0,29.262l257.108,368.761c9.871,15.813-1.499,36.312-20.14,36.312H172.146
	c-18.641,0-30.011-20.499-20.14-36.312L410.986,515.1c6.198-8.823,6.198-20.585,0-29.409l-258.98-368.688
	c-9.871-15.813,1.499-36.313,20.14-36.313h655.709C846.496,80.69,857.865,101.19,847.995,117.003z"/>
<path style="fill:#211915;stroke:#000000;stroke-miterlimit:10;" d="M660.383,201.017H339.617c-13.024,0-24.972,7.232-31.011,18.772
	c-6.039,11.54-5.17,25.479,2.255,36.18L465,478.124v59.582L265.373,825.189c-7.43,10.7-8.303,24.642-2.265,36.185
	c6.038,11.543,17.987,18.778,31.014,18.778H705.88c0.006,0,0.013,0,0.02,0c19.33,0,35-15.67,35-35c0-7.831-2.571-15.059-6.915-20.89
	L535,537.706v-59.582l154.139-222.156c7.425-10.701,8.293-24.64,2.254-36.18C685.355,208.249,673.407,201.017,660.383,201.017z
	 M361.036,810.152L467.42,656.948L500,610.03l32.58,46.918l106.384,153.204H361.036z M500,405.773l-93.499-134.757h186.998
	L500,405.773z"/>
</svg>
