<?xml version="1.0" encoding="iso-8859-1"?>
<!-- Generator: Adobe Illustrator 18.0.0, SVG Export Plug-In . SVG Version: 6.00 Build 0)  -->
<!DOCTYPE svg PUBLIC "-//W3C//DTD SVG 1.1//EN" "http://www.w3.org/Graphics/SVG/1.1/DTD/svg11.dtd">
<svg version="1.1" id="Capa_1" xmlns="http://www.w3.org/2000/svg" xmlns:xlink="http://www.w3.org/1999/xlink" x="0px" y="0px"
	 viewBox="0 0 1000 1000" style="enable-background:new 0 0 1000 1000;" xml:space="preserve">
<path style="stroke:#000000;stroke-miterlimit:10;" d="M963.221,167.373c-13.07-30.972-31.907-58.636-55.986-82.224
	c-24.115-23.626-52.143-41.92-83.301-54.374c-30.062-12.017-61.775-18.109-94.257-18.109c-33.341,0-65.83,6.405-96.567,19.037
	c-28.953,11.899-55.101,28.83-77.844,50.389c-33.527-15.766-70.184-23.977-107.826-23.979c-33.184-0.002-65.532,6.345-96.146,18.863
	c-31.723,12.972-60.097,31.984-84.333,56.511c-23.956,24.242-42.42,52.621-54.878,84.347c-11.92,30.357-17.834,62.439-17.577,95.355
	c0.26,33.354,6.833,65.846,19.536,96.57c5.654,13.678,12.417,26.71,20.229,39.047L31.951,851.262
	c-8.762,17.429-11.829,36.825-8.869,56.093c3.029,19.711,12.08,37.551,26.174,51.589l0.05,0.049l0.05,0.049
	c0.333,0.331,0.667,0.659,1.006,0.986c17.377,16.787,40.271,26.021,64.484,26.021c15.106,0,30.158-3.725,43.529-10.771
	l398.491-210.049c12.058,7.312,24.743,13.641,38.016,18.921c30.425,12.105,62.51,18.243,95.363,18.243
	c33.423,0,65.913-6.344,96.569-18.853c32.043-13.076,60.532-32.278,84.674-57.073c21.166-21.738,38.081-46.739,50.275-74.311
	c11.78-26.632,18.835-54.91,20.971-84.049c3.317-45.289-5.626-90.562-25.451-130.85c21.689-23.79,38.406-51.091,49.722-81.212
	c11.387-30.313,16.829-62.176,16.175-94.702C982.526,228.824,975.812,197.208,963.221,167.373z M690.245,732.392
	c-18.654,0-37.328-2.782-55.317-8.311c-26.059-8.009-50.676-21.795-71.687-41.343c-1.192-1.109-2.376-2.236-3.546-3.384
	L320.077,444.312c-1.17-1.147-2.319-2.308-3.452-3.479c-19.95-20.631-34.211-44.974-42.72-70.871
	c-20.928-63.695-7.029-136.802,42.845-187.272c35.922-36.352,83.281-54.579,130.686-54.576c35.91,0.002,71.852,10.467,102.836,31.44
	c4.338,2.937,9.275,4.361,14.158,4.361c7.449,0,14.773-3.315,19.656-9.641c4.416-5.722,9.218-11.244,14.404-16.532
	c35.981-36.682,83.566-55.076,131.187-55.076c46.393,0,92.82,17.462,128.573,52.487c71.236,69.785,73.566,184.718,5.148,257.269
	c-5.972,6.333-12.282,12.144-18.875,17.435c-10.248,8.223-12.33,22.879-4.738,33.603c50.229,70.952,44.283,169.745-18.451,234.176
	C785.726,714.207,738.061,732.392,690.245,732.392z M125.738,913.351c-3.432,1.809-7.177,2.698-10.893,2.698
	c-5.779,0-11.488-2.153-15.828-6.346c-0.121-0.118-0.242-0.236-0.362-0.355c-7.024-6.996-8.614-17.788-4.161-26.646L283.58,506.567
	l214.577,210.479L125.738,913.351z"/>
</svg>
