<?xml version="1.0" encoding="iso-8859-1"?>
<!-- Generator: Adobe Illustrator 18.0.0, SVG Export Plug-In . SVG Version: 6.00 Build 0)  -->
<!DOCTYPE svg PUBLIC "-//W3C//DTD SVG 1.1//EN" "http://www.w3.org/Graphics/SVG/1.1/DTD/svg11.dtd">
<svg version="1.1" id="Capa_1" xmlns="http://www.w3.org/2000/svg" xmlns:xlink="http://www.w3.org/1999/xlink" x="0px" y="0px"
	 viewBox="0 0 1000 1000" style="enable-background:new 0 0 1000 1000;" xml:space="preserve">
<path style="stroke:#000000;stroke-miterlimit:10;" d="M901.296,146.487l-54.864-54.479c-25.747-25.565-55.75-45.368-89.178-58.859
	c-32.258-13.02-66.312-19.62-101.217-19.62v35v35l-0.002-35l-0.002-35c-35.244,0.003-69.591,6.722-102.105,19.972
	c-33.705,13.734-63.877,33.873-89.677,59.856L93.207,467.029c-17.88,18.006-27.677,41.897-27.588,67.273
	c0.09,25.375,10.056,49.197,28.062,67.077l56.342,55.945L49.905,758.153c-11.779,11.862-20.898,25.715-27.103,41.172
	c-5.979,14.895-8.982,30.601-8.925,46.683c0.057,16.081,3.17,31.766,9.254,46.618c6.314,15.413,15.531,29.201,27.394,40.98
	l12.667,12.578c23.399,23.234,54.444,36.029,87.417,36.029c16.154,0,31.916-3.085,46.848-9.17
	c15.497-6.315,29.355-15.56,41.188-27.477l100.119-100.829l58.487,58.076c17.917,17.791,41.689,27.588,66.937,27.588
	c25.502,0,49.443-9.966,67.413-28.062l371.043-373.671c25.685-25.866,45.55-56.026,59.044-89.644
	c13.019-32.434,19.558-66.66,19.434-101.727c-0.124-35.067-6.904-69.246-20.152-101.588
	C947.24,202.19,927.162,172.172,901.296,146.487z M797.11,141.681l54.864,54.479c78.476,77.924,78.923,204.711,0.999,283.188
	l-371.044,373.67c-4.886,4.921-11.313,7.385-17.74,7.385c-6.369,0-12.738-2.418-17.615-7.26l-58.487-58.076l-49.672-49.322
	l-89.397-88.769l-49.672-49.322l-56.343-55.946c-9.797-9.729-9.854-25.558-0.125-35.355L513.923,142.68
	c39.138-39.415,90.619-59.146,142.097-59.15C707.036,83.525,758.049,102.895,797.11,141.681z M188.974,896.244
	c-10.567,10.642-24.467,15.97-38.365,15.97c-13.774,0-27.547-5.229-38.093-15.7l-12.669-12.58
	c-21.188-21.038-21.309-55.271-0.27-76.458l100.119-100.827l89.397,88.768L188.974,896.244z"/>
</svg>
