<?xml version="1.0" encoding="iso-8859-1"?>
<!-- Generator: Adobe Illustrator 18.0.0, SVG Export Plug-In . SVG Version: 6.00 Build 0)  -->
<!DOCTYPE svg PUBLIC "-//W3C//DTD SVG 1.1//EN" "http://www.w3.org/Graphics/SVG/1.1/DTD/svg11.dtd">
<svg version="1.1" id="Capa_1" xmlns="http://www.w3.org/2000/svg" xmlns:xlink="http://www.w3.org/1999/xlink" x="0px" y="0px"
	 viewBox="0 0 1000 1000" style="enable-background:new 0 0 1000 1000;" xml:space="preserve">
<path style="stroke:#000000;stroke-miterlimit:10;" d="M969.334,466.522V420.54c0-38.287-22.767-71.356-55.473-86.382
	c-21.512-81.491-66.898-155.351-130.933-211.814C744.67,88.61,701.233,62.241,653.824,43.97
	c-49.097-18.921-100.872-28.515-153.886-28.515S395.149,25.049,346.052,43.97c-47.409,18.271-90.847,44.64-129.105,78.374
	c-64.19,56.601-109.643,130.688-131.091,212.415c-32.018,15.293-54.191,47.997-54.191,85.781v45.982c0,52.383,42.617,95,95,95
	h15.918l1.944,17.211l35.699,316.12c5.431,48.082,46.014,84.339,94.4,84.339h450.622c48.387,0,88.97-36.258,94.4-84.339
	l35.699-316.12l1.944-17.211h17.043C926.718,561.522,969.334,518.905,969.334,466.522z M750.091,886.998
	c-1.427,12.641-12.121,22.194-24.842,22.194H274.627c-12.721,0-23.414-9.553-24.842-22.194l-35.699-316.12H785.79L750.091,886.998z
	 M126.666,491.522c-13.807,0-25-11.193-25-25V420.54c0-13.807,11.193-25,25-25h18.407
	C168.525,220.476,318.454,85.455,499.938,85.455S831.351,220.476,854.803,395.54h19.531c13.807,0,25,11.193,25,25v45.982
	c0,13.807-11.193,25-25,25H126.666z"/>
</svg>
