<?xml version="1.0" encoding="iso-8859-1"?>
<!-- Generator: Adobe Illustrator 18.0.0, SVG Export Plug-In . SVG Version: 6.00 Build 0)  -->
<!DOCTYPE svg PUBLIC "-//W3C//DTD SVG 1.1//EN" "http://www.w3.org/Graphics/SVG/1.1/DTD/svg11.dtd">
<svg version="1.1" id="Capa_1" xmlns="http://www.w3.org/2000/svg" xmlns:xlink="http://www.w3.org/1999/xlink" x="0px" y="0px"
	 viewBox="0 0 1000 1000" style="enable-background:new 0 0 1000 1000;" xml:space="preserve">
<path style="stroke:#000000;stroke-miterlimit:10;" d="M905.172,140.468l-47.613-48.056l-0.201-0.202l-0.202-0.201
	c-25.746-25.565-55.754-45.369-89.19-58.861C735.705,20.13,701.649,13.53,666.744,13.53c-35.229,0-69.579,6.719-102.094,19.969
	c-33.701,13.733-63.872,33.873-89.676,59.859L103.93,467.029c-36.909,37.173-36.696,97.441,0.474,134.35l51.516,51.153
	L51.042,758.153c-11.779,11.862-20.898,25.715-27.103,41.172c-5.979,14.895-8.982,30.601-8.925,46.683
	c0.057,16.081,3.17,31.766,9.254,46.618c6.314,15.413,15.531,29.201,27.394,40.98l12.667,12.578
	c23.399,23.234,54.444,36.029,87.417,36.029c16.154,0,31.916-3.085,46.848-9.17c15.497-6.315,29.355-15.56,41.188-27.477
	L344.66,839.945l63.314,62.869c17.918,17.791,41.689,27.588,66.937,27.588c25.504,0,49.445-9.967,67.414-28.064l325.407-327.711
	c15.095-15.2,24.698-35.297,27.04-56.585c2.365-21.496-2.756-43.347-14.42-61.527C865.73,433.72,858,407.262,858,380
	c0-19.972,4.044-39.248,12.019-57.294c7.723-17.476,18.746-33.017,32.762-46.189c9.488-8.917,16.918-19.482,22.084-31.402
	c4.961-11.448,7.59-23.587,7.813-36.081c0.223-12.512-1.979-24.757-6.542-36.395C921.391,160.543,914.338,149.719,905.172,140.468z
	 M854.84,225.509C813.699,264.177,788,319.084,788,380c0,42.099,12.275,81.328,33.436,114.313
	c6.299,9.818,4.845,22.714-3.375,30.991L492.653,853.018c-4.887,4.922-11.313,7.385-17.74,7.385c-6.368,0-12.739-2.418-17.615-7.26
	l-63.314-62.869l-49.672-49.322l-89.397-88.769l-49.672-49.322l-51.516-51.153c-9.797-9.729-9.853-25.558-0.125-35.355
	L524.646,142.68c39.143-39.42,90.613-59.15,142.098-59.15c51.01,0,102.034,19.37,141.09,58.151l47.613,48.055
	C865.332,199.713,865.075,215.89,854.84,225.509z M190.11,896.244c-10.567,10.642-24.467,15.97-38.365,15.97
	c-13.774,0-27.547-5.229-38.093-15.7l-12.669-12.58c-21.188-21.038-21.309-55.271-0.27-76.458l104.878-105.621l89.397,88.769
	L190.11,896.244z"/>
</svg>
