<?xml version="1.0" encoding="iso-8859-1"?>
<!-- Generator: Adobe Illustrator 18.0.0, SVG Export Plug-In . SVG Version: 6.00 Build 0)  -->
<!DOCTYPE svg PUBLIC "-//W3C//DTD SVG 1.1//EN" "http://www.w3.org/Graphics/SVG/1.1/DTD/svg11.dtd">
<svg version="1.1" id="Capa_1" xmlns="http://www.w3.org/2000/svg" xmlns:xlink="http://www.w3.org/1999/xlink" x="0px" y="0px"
	 viewBox="0 0 1000 1000" style="enable-background:new 0 0 1000 1000;" xml:space="preserve">
<path style="stroke:#000000;stroke-miterlimit:10;" d="M960.994,146.262c-11.536-24.4-26.994-46.511-45.946-65.724
	c-23.124-23.441-50.185-41.606-80.432-53.988c-29.137-11.927-59.929-17.975-91.518-17.975c-32.051,0-63.262,6.216-92.766,18.476
	c-26.847,11.156-51.117,26.85-72.299,46.73c-30.637-13.612-63.885-20.693-97.938-20.696c-32.335-0.003-63.801,6.317-93.523,18.786
	c-30.826,12.932-58.216,31.845-81.409,56.214c-25.807,27.115-45.311,59.858-57.97,97.318
	c-13.005,38.484-18.447,81.238-16.174,127.075c1.006,20.283,8.136,39.482,20.345,55.349c-10.881,4.619-20.853,11.38-29.172,19.968
	l-27.762,28.658c-20.394,21.052-28.294,49.665-23.85,76.579L38.76,711.281c-13.318,16.924-20.028,37.95-18.936,59.543
	c1.143,22.601,10.723,43.72,26.977,59.465l140.106,135.726c16.702,16.18,38.707,25.091,61.963,25.091
	c20.997,0,41.201-7.375,57.23-20.826l173.934-137.383c3.905,0.52,7.87,0.783,11.869,0.783c23.972,0,47.287-9.875,63.965-27.093
	l27.759-28.655c8.453-8.724,14.897-18.869,19.144-29.872c16.26,11.567,35.348,17.974,55.073,18.255
	c1.96,0.027,3.948,0.042,5.903,0.042c32.147,0,62.847-3.824,91.247-11.367c27.88-7.405,53.767-18.437,76.94-32.788
	c44.519-27.57,78.5-66.996,98.268-114.016c8.584-20.418,9.797-43.322,3.413-64.493c-6.533-21.666-20.616-40.292-39.656-52.447
	c-35.664-22.768-56.955-61.563-56.955-103.779c0-24.622,7.231-48.357,20.912-68.64c13.408-19.88,32.102-35.316,54.058-44.644
	c23.789-10.104,42.697-29.731,51.878-53.847c4.457-11.707,6.533-23.973,6.171-36.455
	C969.644,170.79,966.606,158.133,960.994,146.262z M884.607,209.755c-69.125,29.362-117.602,97.874-117.602,177.711
	c0,68.415,35.602,128.508,89.287,162.78c10.253,6.546,14.097,19.596,9.382,30.81c-26.889,63.955-94.054,115.301-201.927,115.301
	c-1.624,0-3.265-0.012-4.908-0.035c-7.352-0.104-14.049-3.372-19.339-8.479L309.745,368.398c-5.29-5.107-8.447-12.042-8.812-19.386
	c-7.438-150.045,85.728-225.936,179.157-225.928c33.047,0.003,66.141,9.502,94.808,28.574c3.95,2.628,8.421,3.886,12.859,3.886
	c7.164,0,14.241-3.28,18.886-9.37c4.014-5.263,8.375-10.349,13.083-15.227c33.644-34.852,78.477-52.373,123.372-52.373
	c44.188,0,88.438,16.979,122.116,51.122c13.702,13.891,24.535,29.645,32.494,46.479
	C903.774,189.008,897.669,204.206,884.607,209.755z M533.35,729.227l-27.761,28.657c-3.737,3.857-8.708,5.796-13.686,5.796
	c-4.774,0-9.554-1.784-13.254-5.368l-7.689-7.449L261.601,916.226c-3.627,3.259-8.182,4.88-12.731,4.88
	c-4.789,0-9.571-1.797-13.258-5.368L95.505,780.012c-7.189-6.965-7.763-18.306-1.312-25.961l158.631-214.504l-7.689-7.448
	c-7.557-7.321-7.749-19.383-0.428-26.94l27.761-28.657c3.737-3.857,8.708-5.795,13.686-5.795c4.774,0,9.554,1.783,13.254,5.367
	l233.514,226.214C540.479,709.608,540.671,721.67,533.35,729.227z"/>
</svg>
