<?xml version="1.0" encoding="iso-8859-1"?>
<!-- Generator: Adobe Illustrator 18.0.0, SVG Export Plug-In . SVG Version: 6.00 Build 0)  -->
<!DOCTYPE svg PUBLIC "-//W3C//DTD SVG 1.1//EN" "http://www.w3.org/Graphics/SVG/1.1/DTD/svg11.dtd">
<svg version="1.1" id="Capa_1" xmlns="http://www.w3.org/2000/svg" xmlns:xlink="http://www.w3.org/1999/xlink" x="0px" y="0px"
	 viewBox="0 0 1000 1000" style="enable-background:new 0 0 1000 1000;" xml:space="preserve">
<path style="fill:#211915;stroke:#000000;stroke-miterlimit:10;" d="M889,590h-65.851c-52.383,0-95,42.617-95,95v39h-454.81v-39
	c0-52.383-42.617-95-95-95h-66.851c-52.383,0-95,42.617-95,95v17.148h-0.722L16,772.382l0.404,120.935
	c0.085,25.316,10.006,49.1,27.937,66.971C62.272,978.158,86.089,988,111.404,988h131.935h513.81H889c52.383,0,95-42.617,95-95
	V772.148V685C984,632.617,941.383,590,889,590z M914,772.148V893c0,13.807-11.193,25-25,25H757.149h-513.81H111.404
	c-13.775,0-24.954-11.142-25-24.916L86,772.148h0.487V685c0-13.807,11.193-25,25-25h66.851c13.807,0,25,11.193,25,25v84
	c0,13.807,11.193,25,25,25h544.81c13.807,0,25-11.193,25-25v-84c0-13.807,11.193-25,25-25H889c13.807,0,25,11.193,25,25V772.148z"/>
<path style="fill:#211915;stroke:#000000;stroke-miterlimit:10;" d="M595.786,12H404.214c-52.383,0-95,42.617-95,95v139.921h-23
	c-19.335,0-37.901,5.722-53.691,16.547c-14.562,9.984-26.05,23.848-33.22,40.094c-7.17,16.245-9.672,34.075-7.234,51.562
	c2.643,18.961,10.928,36.534,23.958,50.819l213.786,234.37C447.771,660,473.353,671.292,500,671.292
	c26.647,0,52.229-11.292,70.187-30.979l213.786-234.37c13.031-14.285,21.315-31.858,23.958-50.819
	c2.438-17.487-0.064-35.317-7.234-51.562c-7.17-16.246-18.657-30.11-33.22-40.094c-15.79-10.825-34.356-16.547-53.691-16.547h-23
	V107C690.786,54.617,648.169,12,595.786,12z M713.786,316.921c21.724,0,33.11,25.799,18.47,41.848L518.47,593.14
	c-4.957,5.435-11.714,8.152-18.47,8.152s-13.513-2.718-18.47-8.152L267.744,358.77c-14.64-16.049-3.253-41.848,18.47-41.848h68
	c13.807,0,25-11.193,25-25V107c0-13.807,11.193-25,25-25h191.571c13.807,0,25,11.193,25,25v184.921c0,13.807,11.193,25,25,25
	L713.786,316.921L713.786,316.921z"/>
</svg>
