<?xml version="1.0" encoding="iso-8859-1"?>
<!-- Generator: Adobe Illustrator 18.0.0, SVG Export Plug-In . SVG Version: 6.00 Build 0)  -->
<!DOCTYPE svg PUBLIC "-//W3C//DTD SVG 1.1//EN" "http://www.w3.org/Graphics/SVG/1.1/DTD/svg11.dtd">
<svg version="1.1" id="Capa_1" xmlns="http://www.w3.org/2000/svg" xmlns:xlink="http://www.w3.org/1999/xlink" x="0px" y="0px"
	 viewBox="0 0 1000 1000" style="enable-background:new 0 0 1000 1000;" xml:space="preserve">
<path style="stroke:#000000;stroke-miterlimit:10;" d="M235.547,721.227c59.298,0,115.046-23.092,156.976-65.021L500,548.727
	l107.478,107.478c41.93,41.93,97.678,65.021,156.976,65.021S879.5,698.134,921.43,656.205c41.93-41.93,65.021-97.678,65.021-156.976
	s-23.092-115.046-65.021-156.976c-41.93-41.93-97.678-65.021-156.976-65.021s-115.046,23.092-156.976,65.021L500,449.732
	L392.522,342.254c-41.93-41.93-97.678-65.021-156.976-65.021S120.5,300.325,78.57,342.254
	c-41.93,41.93-65.021,97.678-65.021,156.976c0,59.297,23.092,115.046,65.021,156.975
	C120.501,698.135,176.249,721.227,235.547,721.227z M656.976,391.751c28.708-28.708,66.878-44.519,107.478-44.519
	s78.77,15.811,107.478,44.519c28.709,28.708,44.52,66.878,44.52,107.478s-15.811,78.769-44.52,107.478
	c-28.708,28.708-66.878,44.519-107.478,44.519s-78.77-15.811-107.478-44.519L549.497,499.229L656.976,391.751z M128.069,391.751
	c28.708-28.708,66.878-44.519,107.478-44.519s78.77,15.811,107.478,44.519l107.479,107.478l-107.48,107.479
	c-28.708,28.708-66.878,44.519-107.478,44.519s-78.77-15.811-107.478-44.519C99.36,577.999,83.55,539.83,83.55,499.23
	S99.36,420.46,128.069,391.751z"/>
</svg>
