<?xml version="1.0" encoding="iso-8859-1"?>
<!-- Generator: Adobe Illustrator 18.0.0, SVG Export Plug-In . SVG Version: 6.00 Build 0)  -->
<!DOCTYPE svg PUBLIC "-//W3C//DTD SVG 1.1//EN" "http://www.w3.org/Graphics/SVG/1.1/DTD/svg11.dtd">
<svg version="1.1" id="Capa_1" xmlns="http://www.w3.org/2000/svg" xmlns:xlink="http://www.w3.org/1999/xlink" x="0px" y="0px"
	 viewBox="0 0 1000 1000" style="enable-background:new 0 0 1000 1000;" xml:space="preserve">
<path style="fill:#211915;stroke:#000000;stroke-miterlimit:10;" d="M396.311,956.298c17.948,17.972,41.821,27.87,67.221,27.87
	h71.199c52.376,0,94.993-42.61,95-94.985l0.088-438.922c0.005-25.379-9.874-49.24-27.818-67.188
	c-17.944-17.947-41.803-27.832-67.182-27.832H386.434c-52.383,0-95,42.617-95,95v70.74c0,46.392,33.43,85.124,77.462,93.377
	l-0.364,274.684C368.497,914.44,378.363,938.326,396.311,956.298z M361.434,520.981v-70.74c0-13.807,11.193-25,25-25h148.385
	c13.809,0,25.003,11.196,25,25.005l-0.088,438.926c-0.002,13.805-11.194,24.995-25,24.995h-71.199c-13.82,0-25.019-11.213-25-25.033
	l0.422-318.121c0.019-13.82-11.18-25.033-25-25.033h-27.52C372.627,545.981,361.434,534.788,361.434,520.981z"/>
<path style="fill:#211915;stroke:#000000;stroke-miterlimit:10;" d="M651.774,168.096c0-20.458-4.022-40.342-11.956-59.099
	c-7.648-18.082-18.582-34.306-32.498-48.222s-30.141-24.85-48.222-32.498c-18.756-7.933-38.64-11.955-59.098-11.955
	s-40.342,4.022-59.099,11.956c-18.081,7.648-34.306,18.582-48.222,32.498s-24.85,30.14-32.498,48.222
	c-7.934,18.757-11.956,38.641-11.956,59.099s4.022,40.342,11.956,59.099c7.648,18.082,18.582,34.306,32.498,48.222
	s30.14,24.85,48.222,32.498c18.757,7.934,38.641,11.956,59.099,11.956s40.342-4.022,59.099-11.956
	c18.082-7.648,34.306-18.582,48.222-32.498s24.85-30.14,32.498-48.222C647.752,208.438,651.774,188.554,651.774,168.096z
	 M500,249.87c-45.162,0-81.774-36.612-81.774-81.774S454.838,86.322,500,86.322s81.774,36.611,81.774,81.774
	S545.162,249.87,500,249.87z"/>
</svg>
