<?xml version="1.0" encoding="iso-8859-1"?>
<!-- Generator: Adobe Illustrator 18.0.0, SVG Export Plug-In . SVG Version: 6.00 Build 0)  -->
<!DOCTYPE svg PUBLIC "-//W3C//DTD SVG 1.1//EN" "http://www.w3.org/Graphics/SVG/1.1/DTD/svg11.dtd">
<svg version="1.1" id="Capa_1" xmlns="http://www.w3.org/2000/svg" xmlns:xlink="http://www.w3.org/1999/xlink" x="0px" y="0px"
	 viewBox="0 0 1000 1000" style="enable-background:new 0 0 1000 1000;" xml:space="preserve">
<path style="fill:#211915;stroke:#000000;stroke-miterlimit:10;" d="M524.046,411.878h-82.729c-52.383,0-95,42.617-95,95v30.782
	c0,36.838,21.08,68.849,51.808,84.602l-0.214,161.612c-0.034,25.398,9.832,49.284,27.779,67.256
	c17.948,17.973,41.821,27.87,67.22,27.87h31.08c52.375,0,94.992-42.61,95-94.984l0.056-277.119
	c0.006-25.378-9.874-49.24-27.819-67.188C573.283,421.762,549.425,411.878,524.046,411.878z M548.99,784.005
	c-0.002,13.805-11.194,24.995-25,24.995h-31.08c-13.82,0-25.019-11.213-25-25.033l0.26-196.273c0.019-13.82-11.18-25.033-25-25.033
	h-1.854c-13.808,0-25-11.193-25-25v-30.782c0-13.807,11.192-25,25-25h82.729c13.809,0,25.003,11.196,25,25.005L548.99,784.005z"/>
<path style="fill:#211915;stroke:#000000;stroke-miterlimit:10;" d="M586.962,162.161c-11.431-11.431-24.761-20.413-39.62-26.698
	c-15.42-6.522-31.76-9.829-48.564-9.829s-33.145,3.307-48.564,9.829c-14.859,6.285-28.189,15.268-39.62,26.698
	s-20.413,24.761-26.698,39.62c-6.522,15.42-9.829,31.76-9.829,48.565s3.307,33.145,9.829,48.565
	c6.285,14.859,15.268,28.189,26.698,39.62s24.761,20.413,39.62,26.698c15.42,6.522,31.76,9.829,48.564,9.829
	s33.145-3.307,48.564-9.829c14.858-6.285,28.188-15.267,39.619-26.697c11.431-11.431,20.414-24.761,26.699-39.62
	c6.522-15.42,9.829-31.76,9.829-48.565s-3.307-33.146-9.829-48.565C607.375,186.921,598.393,173.591,586.962,162.161z
	 M498.777,305.057c-30.217,0-54.712-24.495-54.712-54.711c0-30.217,24.495-54.712,54.712-54.712
	c30.216,0,54.712,24.495,54.712,54.712C553.489,280.562,528.993,305.057,498.777,305.057z"/>
<path style="fill:#211915;stroke:#000000;stroke-miterlimit:10;" d="M847.891,151.136c-45.161-45.161-97.77-80.626-156.364-105.409
	C630.826,20.053,566.388,7.035,500,7.035S369.174,20.053,308.474,45.727C249.879,70.51,197.271,105.975,152.11,151.136
	S71.484,248.906,46.7,307.5C21.026,368.2,8.009,432.639,8.009,499.026c0,66.388,13.018,130.827,38.692,191.526
	c24.783,58.594,60.247,111.203,105.408,156.363c45.161,45.161,97.77,80.626,156.364,105.409
	c60.7,25.674,125.139,38.692,191.526,38.692s130.826-13.018,191.526-38.692c58.595-24.783,111.203-60.248,156.364-105.409
	s80.625-97.769,105.408-156.363c25.675-60.7,38.692-125.139,38.692-191.526S978.971,368.2,953.298,307.5
	C928.516,248.906,893.052,196.297,847.891,151.136z M500,921.017c-233.06,0-421.991-188.932-421.991-421.991
	S266.94,77.035,500,77.035s421.991,188.932,421.991,421.991S733.06,921.017,500,921.017z"/>
</svg>
