<?xml version="1.0" encoding="iso-8859-1"?>
<!-- Generator: Adobe Illustrator 18.0.0, SVG Export Plug-In . SVG Version: 6.00 Build 0)  -->
<!DOCTYPE svg PUBLIC "-//W3C//DTD SVG 1.1//EN" "http://www.w3.org/Graphics/SVG/1.1/DTD/svg11.dtd">
<svg version="1.1" id="Capa_1" xmlns="http://www.w3.org/2000/svg" xmlns:xlink="http://www.w3.org/1999/xlink" x="0px" y="0px"
	 viewBox="0 0 1000 1000" style="enable-background:new 0 0 1000 1000;" xml:space="preserve">
<path style="stroke:#000000;stroke-miterlimit:10;" d="M173.281,551.548c-9.659,31.861-14.554,64.975-14.554,98.49
	c0,45.753,8.977,90.174,26.68,132.029c17.084,40.394,41.528,76.655,72.651,107.778c31.123,31.124,67.385,55.567,107.777,72.652
	c41.856,17.703,86.277,26.68,132.03,26.68s90.174-8.977,132.03-26.68c40.393-17.085,76.655-41.528,107.778-72.652
	c31.124-31.123,55.567-67.385,72.651-107.778c17.704-41.855,26.68-86.276,26.68-132.029c0-33.517-4.896-66.632-14.556-98.494
	c-6.782-31.52-24.025-74.738-53.971-135.367c-22.772-46.106-52.766-101.831-89.147-165.623
	c-32.419-56.846-63.727-109.228-84.282-143.16c-12.114-19.998-21.579-35.387-27.386-44.774c-3.761-6.082-6.301-10.152-7.769-12.496
	c-0.974-1.556-1.723-2.743-2.23-3.543c-0.392-0.617-0.691-1.083-0.895-1.396c-12.917-19.905-34.573-31.883-58.062-32.162
	c-0.285-0.003-0.571-0.005-0.855-0.005c-23.867,0-45.852,12.012-58.946,32.256c-0.195,0.303-0.484,0.754-0.862,1.35
	c-0.503,0.794-1.247,1.975-2.213,3.519c-1.475,2.356-4.018,6.435-7.758,12.483c-5.821,9.413-15.295,24.821-27.378,44.768
	c-20.567,33.953-51.884,86.351-84.282,143.156c-36.386,63.797-66.381,119.521-89.154,165.624
	C197.31,476.804,180.064,520.026,173.281,551.548z M767.005,650.038c0,148.642-120.498,269.14-269.139,269.14
	S228.727,798.68,228.727,650.038c0-28.26,4.366-55.499,12.442-81.089c20.812-108.678,256.42-485.934,256.697-485.931
	c0.307,0,235.885,377.26,256.696,485.931C762.639,594.539,767.005,621.777,767.005,650.038z"/>
</svg>
