<?xml version="1.0" encoding="iso-8859-1"?>
<!-- Generator: Adobe Illustrator 18.0.0, SVG Export Plug-In . SVG Version: 6.00 Build 0)  -->
<!DOCTYPE svg PUBLIC "-//W3C//DTD SVG 1.1//EN" "http://www.w3.org/Graphics/SVG/1.1/DTD/svg11.dtd">
<svg version="1.1" id="Capa_1" xmlns="http://www.w3.org/2000/svg" xmlns:xlink="http://www.w3.org/1999/xlink" x="0px" y="0px"
	 viewBox="0 0 1000 1000" style="enable-background:new 0 0 1000 1000;" xml:space="preserve">
<path style="fill:#211915;stroke:#000000;stroke-miterlimit:10;" d="M947.639,416.808c-14.547-19.047-31.904-35.631-51.592-49.289
	c-9.248-6.416-18.913-12.118-28.933-17.076c0.246-4.617,0.37-9.238,0.37-13.857c0-35.14-6.897-69.266-20.502-101.429
	c-13.125-31.031-31.9-58.886-55.804-82.789c-23.903-23.903-51.758-42.678-82.789-55.803C676.226,82.961,642.1,76.063,606.96,76.063
	c-44.004,0-87.527,11.203-125.862,32.397c-24.805,13.713-47.283,31.499-66.401,52.397c-25.764-10.918-53.433-17.005-81.698-17.843
	c-2.216-0.066-4.47-0.1-6.698-0.1c-30.269-0.002-59.77,5.979-87.69,17.78c-26.817,11.334-50.976,27.513-71.803,48.087
	c-20.87,20.617-37.354,44.618-48.995,71.338c-12.148,27.884-18.444,57.444-18.713,87.858c-0.031,3.479,0.018,6.962,0.146,10.441
	c-23.96,17.123-44.425,38.879-60.086,64.056C17.295,477.626,5.656,518.159,5.501,559.691c-0.112,30.084,5.792,59.377,17.545,87.066
	c11.24,26.479,27.323,50.328,47.801,70.883c20.731,20.809,44.901,37.182,71.836,48.665c27.998,11.935,57.617,17.987,88.036,17.987
	h150.365v98.612c0,51.888,42.214,94.102,94.102,94.102h48.328c51.888,0,94.102-42.214,94.102-94.102v-98.612h146.643
	c31.182,0,61.527-6.205,90.192-18.442c27.597-11.781,52.339-28.583,73.541-49.938c20.952-21.103,37.378-45.586,48.82-72.771
	c11.954-28.4,17.903-58.44,17.682-89.287c-0.181-25.173-4.443-49.916-12.668-73.542
	C973.871,457.461,962.368,436.095,947.639,416.808z M547.616,784.292v98.612c0,13.311-10.791,24.102-24.102,24.102h-48.328
	c-13.311,0-24.102-10.791-24.102-24.102v-98.612v-70v-108.18c0-13.311-10.791-24.102-24.102-24.102h-34.921
	c-20.277,0-31.492-23.515-18.728-39.272l112.626-139.04c0.452-0.558,0.913-1.11,1.428-1.609c3.327-3.226,7.645-4.838,11.963-4.838
	c4.338,0,8.678,1.628,12.01,4.884c0.481,0.47,0.915,0.987,1.341,1.507l113.878,138.991c12.891,15.734,1.697,39.376-18.644,39.376
	h-36.219c-13.311,0-24.102,10.791-24.102,24.102v108.18v70.001H547.616z M764.259,714.292H617.616v-62.771
	c15.156-1.541,29.638-6.695,42.348-15.135c14.248-9.46,25.667-22.672,33.023-38.208c7.355-15.536,10.339-32.743,8.627-49.759
	c-1.85-18.386-9.072-35.727-20.887-50.147L566.85,359.279c-1.386-1.692-3.588-4.298-6.551-7.196
	c-16.396-16.019-38.033-24.831-60.943-24.832c-22.789-0.001-44.344,8.729-60.694,24.582c-3.23,3.134-5.596,5.955-7.095,7.806
	L318.941,498.678c-11.701,14.444-18.822,31.775-20.592,50.117c-1.64,16.983,1.395,34.141,8.776,49.619s18.803,28.636,33.032,38.052
	c12.317,8.151,26.294,13.222,40.929,14.914v62.912H230.721c-84.889,0-155.535-69.453-155.22-154.34
	c0.22-59.084,33.767-110.306,82.822-135.857c9.648-5.025,15.123-15.655,13.212-26.363c-1.685-9.446-2.527-19.184-2.439-29.134
	c0.759-85.793,71.922-155.689,157.191-155.682c1.536,0,3.09,0.023,4.635,0.069c30.291,0.898,58.416,10.39,82.051,26.103
	c4.314,2.868,9.201,4.253,14.021,4.253c7.995,0,15.807-3.812,20.514-11c34.022-51.949,92.716-86.277,159.451-86.277
	c105.224,0,190.524,85.299,190.524,190.523c0,13.014-1.324,25.714-3.825,37.987c-2.562,12.578,4.951,25.101,17.258,28.748
	c65.313,19.354,113.064,79.563,113.578,151.036C925.128,642.319,852.223,714.292,764.259,714.292z"/>
</svg>
