<?xml version="1.0" encoding="iso-8859-1"?>
<!-- Generator: Adobe Illustrator 18.0.0, SVG Export Plug-In . SVG Version: 6.00 Build 0)  -->
<!DOCTYPE svg PUBLIC "-//W3C//DTD SVG 1.1//EN" "http://www.w3.org/Graphics/SVG/1.1/DTD/svg11.dtd">
<svg version="1.1" id="Capa_1" xmlns="http://www.w3.org/2000/svg" xmlns:xlink="http://www.w3.org/1999/xlink" x="0px" y="0px"
	 viewBox="0 0 1000 1000" style="enable-background:new 0 0 1000 1000;" xml:space="preserve">
<path style="fill:#211915;stroke:#000000;stroke-miterlimit:10;" d="M70.848,787.462c20.732,20.809,44.901,37.182,71.836,48.665
	c27.998,11.936,57.617,17.987,88.036,17.987h533.538c31.182,0,61.528-6.205,90.193-18.442
	c27.596-11.781,52.339-28.583,73.541-49.938c20.952-21.103,37.377-45.586,48.82-72.771c11.954-28.4,17.903-58.44,17.681-89.287
	c-0.181-25.172-4.443-49.915-12.668-73.541c-7.955-22.851-19.457-44.217-34.187-63.504c-14.547-19.047-31.905-35.631-51.592-49.289
	c-9.248-6.416-18.913-12.118-28.932-17.076c0.246-4.617,0.37-9.238,0.37-13.857c0-35.14-6.898-69.266-20.502-101.429
	c-13.125-31.031-31.9-58.886-55.804-82.789c-23.903-23.903-51.758-42.678-82.789-55.803
	c-32.164-13.604-66.289-20.502-101.429-20.502c-44.004,0-87.527,11.203-125.862,32.397c-24.805,13.713-47.283,31.499-66.401,52.397
	c-25.764-10.918-53.433-17.005-81.698-17.843c-2.216-0.066-4.47-0.1-6.699-0.1c-30.269-0.002-59.769,5.979-87.69,17.78
	c-26.818,11.334-50.975,27.513-71.803,48.087c-20.87,20.617-37.354,44.618-48.994,71.338C105.665,377.826,99.369,407.386,99.1,437.8
	c-0.031,3.479,0.018,6.962,0.147,10.441c-23.96,17.123-44.425,38.879-60.086,64.056C17.295,547.448,5.656,587.981,5.502,629.514
	c-0.112,30.084,5.791,59.377,17.545,87.066C34.287,743.06,50.37,766.908,70.848,787.462z M158.323,493.917
	c9.648-5.025,15.123-15.655,13.213-26.363c-1.685-9.446-2.527-19.184-2.439-29.134c0.759-85.793,71.922-155.689,157.191-155.682
	c1.536,0,3.09,0.023,4.635,0.069c30.291,0.898,58.415,10.39,82.051,26.103c4.314,2.868,9.201,4.253,14.021,4.253
	c7.995,0,15.807-3.812,20.514-11c34.022-51.949,92.716-86.277,159.451-86.277c105.224,0,190.524,85.299,190.524,190.523
	c0,13.014-1.324,25.714-3.824,37.987c-2.563,12.578,4.951,25.101,17.258,28.748c65.314,19.354,113.064,79.563,113.578,151.036
	c0.633,87.962-72.273,159.935-160.237,159.935H230.72c-84.888,0-155.535-69.453-155.219-154.34
	C75.721,570.69,109.268,519.468,158.323,493.917z"/>
<path style="fill:#211915;stroke:#000000;stroke-miterlimit:10;" d="M334.814,566.689l96.194,105.456
	c17.958,19.687,43.54,30.978,70.187,30.978c26.647,0,52.229-11.291,70.187-30.979l96.194-105.456
	c13.03-14.285,21.315-31.857,23.958-50.819c2.438-17.487-0.063-35.317-7.234-51.562c-7.17-16.246-18.658-30.11-33.22-40.094
	c-15.79-10.825-34.356-16.547-53.691-16.547H405c-19.335,0-37.901,5.722-53.691,16.547c-14.563,9.984-26.05,23.848-33.22,40.094
	s-9.671,34.076-7.233,51.563C313.499,534.831,321.784,552.404,334.814,566.689z M405,477.667h192.39
	c21.724,0,33.11,25.798,18.47,41.848l-96.195,105.457c-4.957,5.435-11.714,8.152-18.47,8.152s-13.513-2.717-18.47-8.152
	l-96.194-105.457C371.891,503.465,383.277,477.667,405,477.667z"/>
</svg>
