<?xml version="1.0" encoding="iso-8859-1"?>
<!-- Generator: Adobe Illustrator 18.0.0, SVG Export Plug-In . SVG Version: 6.00 Build 0)  -->
<!DOCTYPE svg PUBLIC "-//W3C//DTD SVG 1.1//EN" "http://www.w3.org/Graphics/SVG/1.1/DTD/svg11.dtd">
<svg version="1.1" id="Capa_1" xmlns="http://www.w3.org/2000/svg" xmlns:xlink="http://www.w3.org/1999/xlink" x="0px" y="0px"
	 viewBox="0 0 1000 1000" style="enable-background:new 0 0 1000 1000;" xml:space="preserve">
<path style="fill:#211915;stroke:#000000;stroke-miterlimit:10;" d="M681.127,786.901c3.225,0,3.225-5,0-5
	C677.903,781.901,677.903,786.901,681.127,786.901z"/>
<path style="fill:#211915;stroke:#000000;stroke-miterlimit:10;" d="M748.147,654.631V348.336c0-52.383-42.617-95-95-95H346.853
	c-52.383,0-95,42.617-95,95V654.63c0,52.383,42.617,95,95,95h306.294C705.53,749.631,748.147,707.014,748.147,654.631z
	 M678.147,654.631c0,13.807-11.193,25-25,25H346.853c-13.807,0-25-11.193-25-25V348.336c0-13.807,11.193-25,25-25h306.294
	c13.807,0,25,11.193,25,25V654.631z"/>
<path style="fill:#211915;stroke:#000000;stroke-miterlimit:10;" d="M832.989,214.87c-19.33,0-35,15.67-35,35v508.36
	c0,19.33,15.67,35,35,35s35-15.67,35-35V249.87C867.989,230.54,852.319,214.87,832.989,214.87z"/>
<path style="fill:#211915;stroke:#000000;stroke-miterlimit:10;" d="M950,145.759c-19.33,0-35,15.67-35,35v646.583
	c0,19.33,15.67,35,35,35s35-15.67,35-35V180.759C985,161.429,969.33,145.759,950,145.759z"/>
<path style="fill:#211915;stroke:#000000;stroke-miterlimit:10;" d="M167.011,214.87c-19.33,0-35,15.67-35,35v508.36
	c0,19.33,15.67,35,35,35s35-15.67,35-35V249.87C202.011,230.54,186.341,214.87,167.011,214.87z"/>
<path style="fill:#211915;stroke:#000000;stroke-miterlimit:10;" d="M15,180.759v646.583c0,19.33,15.67,35,35,35s35-15.67,35-35
	V180.759c0-19.33-15.67-35-35-35S15,161.429,15,180.759z"/>
</svg>
