<?xml version="1.0" encoding="iso-8859-1"?>
<!-- Generator: Adobe Illustrator 18.0.0, SVG Export Plug-In . SVG Version: 6.00 Build 0)  -->
<!DOCTYPE svg PUBLIC "-//W3C//DTD SVG 1.1//EN" "http://www.w3.org/Graphics/SVG/1.1/DTD/svg11.dtd">
<svg version="1.1" id="Capa_1" xmlns="http://www.w3.org/2000/svg" xmlns:xlink="http://www.w3.org/1999/xlink" x="0px" y="0px"
	 viewBox="0 0 1000 1000" style="enable-background:new 0 0 1000 1000;" xml:space="preserve">
<path style="fill:#211915;stroke:#000000;stroke-miterlimit:10;" d="M499.198,243.201c-27.905,0-55.125,5.301-80.905,15.756
	c-26.728,10.838-50.68,26.734-71.191,47.245c-20.511,20.511-36.406,44.463-47.245,71.19c-10.455,25.781-15.756,53.001-15.755,80.906
	c0,27.904,5.301,55.125,15.755,80.905c10.838,26.728,26.734,50.679,47.245,71.19c20.51,20.511,44.462,36.407,71.19,47.245
	c25.781,10.455,53.001,15.755,80.906,15.755c27.905,0,55.125-5.301,80.906-15.755c26.728-10.838,50.68-26.734,71.191-47.246
	c20.51-20.511,36.406-44.462,47.244-71.19c10.455-25.78,15.756-53.001,15.756-80.905c0-27.905-5.301-55.125-15.756-80.906
	c-10.838-26.728-26.734-50.679-47.245-71.19c-20.51-20.511-44.462-36.406-71.19-47.245
	C554.323,248.502,527.103,243.201,499.198,243.201z M601.797,560.896c-28.332,28.332-65.465,42.498-102.599,42.498
	s-74.267-14.166-102.599-42.498c-56.664-56.664-56.664-148.533,0-205.197c28.332-28.332,65.465-42.498,102.599-42.498
	s74.267,14.166,102.599,42.498C658.46,412.363,658.46,504.232,601.797,560.896z"/>
<path style="fill:#211915;stroke:#000000;stroke-miterlimit:10;" d="M397.878,823.393h202.778c19.33,0,35-15.67,35-35
	s-15.67-35-35-35H397.878c-19.33,0-35,15.67-35,35S378.548,823.393,397.878,823.393z"/>
<path style="fill:#211915;stroke:#000000;stroke-miterlimit:10;" d="M397.878,972.876h202.778c19.33,0,35-15.67,35-35
	s-15.67-35-35-35H397.878c-19.33,0-35,15.67-35,35S378.548,972.876,397.878,972.876z"/>
<path style="fill:#211915;stroke:#000000;stroke-miterlimit:10;" d="M313.141,131.321L169.584,274.537
	c-13.685,13.652-13.711,35.813-0.059,49.498c6.837,6.853,15.808,10.28,24.778,10.28c8.943,0,17.888-3.406,24.72-10.222
	L362.58,180.878c13.685-13.652,13.711-35.813,0.059-49.498C348.986,117.697,326.826,117.669,313.141,131.321z"/>
<path style="fill:#211915;stroke:#000000;stroke-miterlimit:10;" d="M207.565,25.494L64.009,168.71
	c-13.685,13.652-13.711,35.813-0.059,49.498c6.837,6.853,15.807,10.28,24.778,10.28c8.943,0,17.888-3.406,24.72-10.222
	L257.005,75.051c13.685-13.652,13.711-35.813,0.059-49.498C243.41,11.868,221.25,11.843,207.565,25.494z"/>
<path style="fill:#211915;stroke:#000000;stroke-miterlimit:10;" d="M945.273,174.94c-0.03-25.001-9.793-48.494-27.493-66.151
	l-66.822-66.663c-17.669-17.627-41.146-27.335-66.104-27.335c-25.043,0-48.576,9.764-66.262,27.493l-52.537,52.634
	c-36.463,36.55-36.393,95.93,0.144,132.379l66.823,66.664c17.668,17.627,41.145,27.335,66.104,27.335
	c25.043,0,48.575-9.764,66.262-27.493l52.538-52.634C935.595,223.457,945.303,199.941,945.273,174.94z M868.382,191.717
	l-52.551,52.647c-4.609,4.62-10.657,6.931-16.706,6.931c-6.029,0-12.06-2.297-16.666-6.892l-66.822-66.663
	c-9.226-9.204-9.244-24.145-0.04-33.371l52.551-52.647c4.609-4.62,10.657-6.931,16.706-6.931c6.029,0,12.06,2.297,16.666,6.892
	l66.822,66.663C877.568,167.55,877.586,182.491,868.382,191.717z"/>
</svg>
