<?xml version="1.0" encoding="iso-8859-1"?>
<!-- Generator: Adobe Illustrator 18.0.0, SVG Export Plug-In . SVG Version: 6.00 Build 0)  -->
<!DOCTYPE svg PUBLIC "-//W3C//DTD SVG 1.1//EN" "http://www.w3.org/Graphics/SVG/1.1/DTD/svg11.dtd">
<svg version="1.1" id="Capa_1" xmlns="http://www.w3.org/2000/svg" xmlns:xlink="http://www.w3.org/1999/xlink" x="0px" y="0px"
	 viewBox="0 0 1000 1000" style="enable-background:new 0 0 1000 1000;" xml:space="preserve">
<g>
	<path style="fill:#211915;stroke:#000000;stroke-miterlimit:10;" d="M85.307,459.113h305.148c44.112,0,80-35.888,80-80V86.965
		c0-44.112-35.888-80-80-80H85.307c-44.112,0-80,35.888-80,80v292.148C5.307,423.226,41.194,459.113,85.307,459.113z M75.307,86.965
		c0-5.514,4.486-10,10-10h305.148c5.514,0,10,4.486,10,10v292.148c0,5.514-4.486,10-10,10H85.307c-5.514,0-10-4.486-10-10V86.965z"
		/>
	<path style="fill:#211915;stroke:#000000;stroke-miterlimit:10;" d="M917,4.965H617.218c-44.112,0-80,35.888-80,80v31.574
		c0,44.112,35.888,80,80,80H917c44.112,0,80-35.888,80-80V84.965C997,40.853,961.112,4.965,917,4.965z M927,116.539
		c0,5.514-4.486,10-10,10H617.218c-5.514,0-10-4.486-10-10V84.965c0-5.514,4.486-10,10-10H917c5.514,0,10,4.486,10,10V116.539z"/>
	<path style="fill:#211915;stroke:#000000;stroke-miterlimit:10;" d="M917,267.539H617.218c-44.112,0-80,35.888-80,80v31.574
		c0,44.112,35.888,80,80,80H917c44.112,0,80-35.888,80-80v-31.574C997,303.427,961.112,267.539,917,267.539z M927,379.113
		c0,5.514-4.486,10-10,10H617.218c-5.514,0-10-4.486-10-10v-31.574c0-5.514,4.486-10,10-10H917c5.514,0,10,4.486,10,10V379.113z"/>
	<path style="fill:#211915;stroke:#000000;stroke-miterlimit:10;" d="M5.307,912.983c0,44.112,35.888,80,80,80h305.148
		c44.112,0,80-35.888,80-80V620.835c0-44.112-35.888-80-80-80H85.307c-44.112,0-80,35.888-80,80
		C5.307,620.835,5.307,912.983,5.307,912.983z M75.307,620.835c0-5.514,4.486-10,10-10h305.148c5.514,0,10,4.486,10,10v292.148
		c0,5.514-4.486,10-10,10H85.307c-5.514,0-10-4.486-10-10V620.835z"/>
	<path style="fill:#211915;stroke:#000000;stroke-miterlimit:10;" d="M917,540.835H617.218c-44.112,0-80,35.888-80,80v31.574
		c0,44.112,35.888,80,80,80H917c44.112,0,80-35.888,80-80v-31.574C997,576.723,961.112,540.835,917,540.835z M927,652.409
		c0,5.514-4.486,10-10,10H617.218c-5.514,0-10-4.486-10-10v-31.574c0-5.514,4.486-10,10-10H917c5.514,0,10,4.486,10,10V652.409z"/>
	<path style="fill:#211915;stroke:#000000;stroke-miterlimit:10;" d="M917,800.409H617.218c-44.112,0-80,35.888-80,80v31.574
		c0,44.112,35.888,80,80,80H917c44.112,0,80-35.888,80-80v-31.574C997,836.297,961.112,800.409,917,800.409z M927,911.983
		c0,5.514-4.486,10-10,10H617.218c-5.514,0-10-4.486-10-10v-31.574c0-5.514,4.486-10,10-10H917c5.514,0,10,4.486,10,10V911.983z"/>
</g>
</svg>
