<?xml version="1.0" encoding="iso-8859-1"?>
<!-- Generator: Adobe Illustrator 18.0.0, SVG Export Plug-In . SVG Version: 6.00 Build 0)  -->
<!DOCTYPE svg PUBLIC "-//W3C//DTD SVG 1.1//EN" "http://www.w3.org/Graphics/SVG/1.1/DTD/svg11.dtd">
<svg version="1.1" id="Capa_1" xmlns="http://www.w3.org/2000/svg" xmlns:xlink="http://www.w3.org/1999/xlink" x="0px" y="0px"
	 viewBox="0 0 1000 1000" style="enable-background:new 0 0 1000 1000;" xml:space="preserve">
<path style="fill:#211915;stroke:#000000;stroke-miterlimit:10;" d="M630.395,562.025c-16.913-16.913-36.627-30.2-58.594-39.491
	c-22.779-9.635-46.937-14.52-71.801-14.52s-49.021,4.885-71.801,14.52c-21.967,9.291-41.681,22.578-58.594,39.491
	s-30.199,36.627-39.49,58.594c-9.635,22.779-14.521,46.936-14.521,71.8s4.886,49.021,14.521,71.8
	c9.291,21.967,22.577,41.681,39.49,58.594c16.913,16.913,36.627,30.2,58.594,39.491c22.779,9.635,46.937,14.52,71.801,14.52
	s49.021-4.885,71.801-14.52c21.967-9.291,41.681-22.578,58.594-39.491c16.913-16.913,30.199-36.627,39.49-58.594
	c9.635-22.779,14.521-46.936,14.521-71.8s-4.886-49.021-14.521-71.8C660.594,598.652,647.308,578.938,630.395,562.025z M500,806.825
	c-63.185,0-114.405-51.221-114.405-114.405S436.815,578.014,500,578.014s114.405,51.221,114.405,114.405
	S563.185,806.825,500,806.825z"/>
<path style="fill:#211915;stroke:#000000;stroke-miterlimit:10;" d="M259.935,988.657h480.131c52.383,0,95-42.617,95-95V112.078
	c0-52.383-42.617-95-95-95H259.935c-52.383,0-95,42.617-95,95v781.579C164.935,946.04,207.552,988.657,259.935,988.657z
	 M234.935,112.078c0-13.807,11.192-25,25-25h480.131c13.808,0,25,11.193,25,25v781.579c0,13.807-11.192,25-25,25H259.935
	c-13.808,0-25-11.193-25-25V112.078z"/>
<circle style="fill:#211915;stroke:#000000;stroke-miterlimit:10;" cx="500" cy="692.419" r="35"/>
<path style="fill:#211915;stroke:#000000;stroke-miterlimit:10;" d="M369.153,462.617h261.693c52.383,0,95-42.617,95-95V219.451
	c0-52.383-42.617-95-95-95H369.153c-52.383,0-95,42.617-95,95v148.165C274.153,420,316.771,462.617,369.153,462.617z
	 M344.153,219.451c0-13.807,11.193-25,25-25h261.693c13.807,0,25,11.193,25,25v148.165c0,13.807-11.193,25-25,25H369.153
	c-13.807,0-25-11.193-25-25V219.451z"/>
</svg>
