<?xml version="1.0" encoding="iso-8859-1"?>
<!-- Generator: Adobe Illustrator 18.0.0, SVG Export Plug-In . SVG Version: 6.00 Build 0)  -->
<!DOCTYPE svg PUBLIC "-//W3C//DTD SVG 1.1//EN" "http://www.w3.org/Graphics/SVG/1.1/DTD/svg11.dtd">
<svg version="1.1" id="Capa_1" xmlns="http://www.w3.org/2000/svg" xmlns:xlink="http://www.w3.org/1999/xlink" x="0px" y="0px"
	 viewBox="0 0 1000 1000" style="enable-background:new 0 0 1000 1000;" xml:space="preserve">
<path style="stroke:#000000;stroke-miterlimit:10;" d="M218.544,230.854c-22.835,24.585-40.16,52.995-51.492,84.438
	c-11.683,32.419-16.37,66.398-13.934,101.003l24.201,480.118l0.041,0.819l0.061,0.818c1.774,23.996,12.46,46.228,30.09,62.603
	s40.59,25.393,64.652,25.393h455.676c24.062,0,47.022-9.018,64.652-25.393s28.316-38.608,30.09-62.603l0.061-0.818l0.041-0.819
	l24.201-480.118c2.436-34.606-2.251-68.584-13.934-101.003c-11.332-31.444-28.656-59.853-51.492-84.438
	c-15.34-16.516-32.594-30.667-51.515-42.314c14.283-16.628,22.928-38.233,22.928-61.821v-16.264c0-52.383-42.617-95-95-95h-315.74
	c-52.383,0-95,42.617-95,95v16.264c0,23.588,8.645,45.193,22.928,61.821C251.138,200.188,233.884,214.338,218.544,230.854z
	 M682.869,110.455v16.264c0,13.807-11.193,25-25,25H342.131c-13.807,0-25-11.193-25-25v-16.264c0-13.807,11.193-25,25-25h315.737
	C671.676,85.455,682.869,96.648,682.869,110.455z M399.553,221.936h200.894c102.919,0,184.147,87.454,176.561,190.093L752.77,892.89
	c-0.965,13.057-11.84,23.157-24.932,23.157H272.162c-13.092,0-23.967-10.101-24.932-23.157l-24.238-480.861
	C215.406,309.39,296.634,221.936,399.553,221.936z"/>
<path style="stroke:#000000;stroke-miterlimit:10;" d="M375.962,553.684h248.075c52.383,0,95-42.617,95-95v-77.852
	c0-52.383-42.617-95-95-95H375.962c-52.383,0-95,42.617-95,95v77.852C280.962,511.068,323.58,553.684,375.962,553.684z
	 M350.962,380.833c0-13.807,11.193-25,25-25h248.075c13.807,0,25,11.193,25,25v77.852c0,13.807-11.193,25-25,25H375.962
	c-13.807,0-25-11.193-25-25V380.833z"/>
</svg>
