<?xml version="1.0" encoding="iso-8859-1"?>
<!-- Generator: Adobe Illustrator 18.0.0, SVG Export Plug-In . SVG Version: 6.00 Build 0)  -->
<!DOCTYPE svg PUBLIC "-//W3C//DTD SVG 1.1//EN" "http://www.w3.org/Graphics/SVG/1.1/DTD/svg11.dtd">
<svg version="1.1" id="Capa_1" xmlns="http://www.w3.org/2000/svg" xmlns:xlink="http://www.w3.org/1999/xlink" x="0px" y="0px"
	 viewBox="0 0 1000 1000" style="enable-background:new 0 0 1000 1000;" xml:space="preserve">
<path style="stroke:#000000;stroke-miterlimit:10;" d="M823.033,628.121c18.094-21.531,25.696-49.769,20.855-77.473L763.169,88.65
	c-3.842-21.991-15.37-42.013-32.46-56.376C713.618,17.91,691.911,10,669.586,10H484H298.414c-22.325,0-44.032,7.91-61.122,22.274
	c-17.09,14.363-28.619,34.385-32.46,56.376l-80.719,462c-4.841,27.703,2.761,55.94,20.855,77.471
	C163.062,649.651,189.57,662,217.695,662h44.295c-6.085,14.116-10.959,28.494-14.552,43.082
	c-8.742,35.494-9.846,71.219-3.282,106.181c6.294,33.525,19.31,64.804,38.687,92.969c18.984,27.593,42.977,50.625,71.313,68.457
	c15.187,9.555,32.691,14.604,50.624,14.604h158.44c17.946,0,35.475-5.064,50.69-14.646c34.24-21.562,62.844-51.571,82.719-86.785
	c20.548-36.404,31.409-77.838,31.409-119.822c0-32.914-6.462-64.88-19.207-95.012c-1.288-3.044-2.647-6.048-4.05-9.026h45.523
	C778.43,662,804.938,649.651,823.033,628.121z M655.047,592H484H304.571h-86.876c-15.528,0-27.3-14.007-24.627-29.303l80.719-462
	C275.877,88.731,286.266,80,298.414,80H484h185.586c12.147,0,22.537,8.731,24.627,20.697l80.719,462
	c2.673,15.296-9.099,29.303-24.627,29.303H655.047z M658.039,766.039c0,62.082-32.508,116.566-81.428,147.373
	c-4.011,2.526-8.65,3.881-13.391,3.881H404.78c-4.721,0-9.346-1.336-13.342-3.85C316.229,866.116,279.787,762.834,340.55,662H484
	h139.529C645.204,691.021,658.039,727.031,658.039,766.039z"/>
</svg>
