<?xml version="1.0" encoding="iso-8859-1"?>
<!-- Generator: Adobe Illustrator 18.0.0, SVG Export Plug-In . SVG Version: 6.00 Build 0)  -->
<!DOCTYPE svg PUBLIC "-//W3C//DTD SVG 1.1//EN" "http://www.w3.org/Graphics/SVG/1.1/DTD/svg11.dtd">
<svg version="1.1" id="Capa_1" xmlns="http://www.w3.org/2000/svg" xmlns:xlink="http://www.w3.org/1999/xlink" x="0px" y="0px"
	 viewBox="0 0 1000 1000" style="enable-background:new 0 0 1000 1000;" xml:space="preserve">
<g>
	<path style="fill:#211915;stroke:#000000;stroke-miterlimit:10;" d="M558.525,420.727L158.972,190.044
		c-14.462-8.351-30.874-12.765-47.458-12.765h-0.002h-0.004h-0.007c-52.399,0.007-95.029,42.64-95.029,95.037v461.367
		c0,52.403,42.634,95.037,95.038,95.037c16.587,0,33-4.414,47.464-12.767l399.553-230.682c14.967-8.641,27.277-21.145,35.6-36.159
		c7.786-14.046,11.901-29.992,11.901-46.113s-4.115-32.067-11.901-46.113C585.804,441.872,573.494,429.368,558.525,420.727z
		 M523.527,524.65L123.972,755.334c-4.028,2.326-8.3,3.387-12.462,3.387c-13.059,0-25.038-10.443-25.038-25.037V272.316
		c0-14.593,11.98-25.036,25.038-25.037c4.163-0.001,8.433,1.061,12.462,3.387L523.527,481.35
		C540.194,490.972,540.194,515.028,523.527,524.65z"/>
	<path style="fill:#211915;stroke:#000000;stroke-miterlimit:10;" d="M888.528,178.945H761.945c-52.383,0-95,42.617-95,95v451.801
		c0,52.383,42.617,95,95,95h126.583c52.383,0,95-42.617,95-95V273.945C983.528,221.562,940.911,178.945,888.528,178.945z
		 M913.528,725.746c0,13.807-11.193,25-25,25H761.945c-13.807,0-25-11.193-25-25V273.945c0-13.808,11.193-25,25-25h126.583
		c13.807,0,25,11.192,25,25V725.746z"/>
</g>
</svg>
