<?xml version="1.0" encoding="iso-8859-1"?>
<!-- Generator: Adobe Illustrator 18.0.0, SVG Export Plug-In . SVG Version: 6.00 Build 0)  -->
<!DOCTYPE svg PUBLIC "-//W3C//DTD SVG 1.1//EN" "http://www.w3.org/Graphics/SVG/1.1/DTD/svg11.dtd">
<svg version="1.1" id="Capa_1" xmlns="http://www.w3.org/2000/svg" xmlns:xlink="http://www.w3.org/1999/xlink" x="0px" y="0px"
	 viewBox="0 0 1000 1000" style="enable-background:new 0 0 1000 1000;" xml:space="preserve">
<path style="stroke:#000000;stroke-miterlimit:10;" d="M890.801,17.52c-10.836,0-21.545,1.85-31.83,5.498
	c-35.377,12.549-109.278,34.45-206.727,40.132c-49.424,2.882-97.87,6.065-147.178,13.268c-58.404,8.532-108.63,21.548-153.55,39.794
	c-103.005,41.84-183.689,119.959-233.331,225.912C95.39,390.778,80.948,443.978,76.42,495.974
	c-4.957,56.924,1.491,111.499,19.164,162.208l18.312,60.025c-26.959,32.68-54.936,68.246-84.693,107.623
	c-18.78,24.853-24.189,57.356-14.468,86.948c9.718,29.582,33.338,52.538,63.185,61.408l25.823,7.675
	c8.801,2.615,17.907,3.94,27.07,3.94c15.935,0,31.745-4.055,45.719-11.725c14.243-7.818,26.314-19.244,34.908-33.042
	c10.607-17.031,34.062-53.628,59.167-85.892c3.013,1.659,5.546,2.99,7.281,3.794c22.668,10.501,46.816,18.754,71.768,24.528
	c28.97,6.705,59.254,10.104,90.011,10.104c20.489,0,41.348-1.518,61.999-4.512c45.375-6.579,90.208-20.402,133.252-41.086
	c41.511-19.948,80.096-45.649,114.682-76.39c6.154-5.47,12.236-11.223,18.078-17.1c28.634-28.809,53.161-61.934,74.982-101.269
	c17.456-31.465,32.764-65.989,48.175-108.648c21.946-60.746,40.312-125.275,56.147-197.275
	c13.123-59.663,24.487-124.645,34.743-198.658c1.315-9.493,2.305-16.809,3.21-23.722c3.551-27.127-4.74-54.457-22.75-74.978
	C944.109,29.333,918.09,17.52,890.801,17.52z M915.527,115.824c-1.013,7.74-2.069,15.473-3.14,23.199
	C894.514,268.012,869.334,398.059,825,520.778c-61.797,171.056-210.401,312.694-402.296,302.315
	c-39.711-2.147-79.246-10.929-115.398-27.676c-2.716-1.258-20.268-11.493-33.939-19.704c-4-2.402-8.448-3.569-12.861-3.569
	c-6.821,0-13.559,2.788-18.428,8.109c-35.827,39.153-72.85,96.147-90.055,123.773c-4.649,7.464-12.746,11.776-21.211,11.776
	c-2.368,0-4.768-0.338-7.126-1.039l-25.825-7.676c-16.733-4.973-23.336-25.126-12.812-39.054
	c59.253-78.409,113.654-144.775,170.738-205.334c11.463-11.364,24.01-23.282,37.603-35.496
	c46.29-41.596,95.16-78.083,145.253-108.449c62.232-37.727,126.51-66.036,191.046-84.142c18.611-5.222,29.466-24.542,24.245-43.153
	c-5.223-18.612-24.544-29.467-43.153-24.245c-70.645,19.82-140.769,50.665-208.425,91.68
	c-53.818,32.625-106.222,71.734-155.752,116.242c-29.412,26.429-54.244,51.539-74.207,73.163
	c-0.037,0.04-11.169-26.031-11.727-27.733c-54.707-167.142,45.7-359.908,201.076-432.451
	c91.418-42.682,195.372-49.298,294.573-55.083c103.282-6.022,182.381-28.55,226.055-44.042c2.829-1.003,5.665-1.47,8.427-1.47
	C905.229,87.52,917.563,100.272,915.527,115.824z"/>
</svg>
