<?xml version="1.0" encoding="iso-8859-1"?>
<!-- Generator: Adobe Illustrator 18.0.0, SVG Export Plug-In . SVG Version: 6.00 Build 0)  -->
<!DOCTYPE svg PUBLIC "-//W3C//DTD SVG 1.1//EN" "http://www.w3.org/Graphics/SVG/1.1/DTD/svg11.dtd">
<svg version="1.1" id="Capa_1" xmlns="http://www.w3.org/2000/svg" xmlns:xlink="http://www.w3.org/1999/xlink" x="0px" y="0px"
	 viewBox="0 0 1000 1000" style="enable-background:new 0 0 1000 1000;" xml:space="preserve">
<g>
	<path style="fill:#211915;stroke:#000000;stroke-miterlimit:10;" d="M59.005,568.913L336.367,837.69
		c17.926,17.371,41.437,26.936,66.204,26.936c24.4,0,47.66-9.187,65.495-25.869c9.349-8.745,16.714-19.092,21.889-30.755
		c5.425-12.223,8.175-25.281,8.175-38.811v-48.609c65.417,5.593,128.474,19.082,188.016,40.253
		c62.54,22.237,108.484,48.522,136.015,66.656c15.671,10.323,33.786,15.779,52.387,15.779c26.516,0,52.091-11.201,70.168-30.73
		c8.75-9.453,15.383-20.374,19.715-32.459c4.554-12.706,6.331-26.038,5.279-39.627c-3.292-42.56-11.249-84.26-23.651-123.94
		C928.693,560.951,902.968,510.9,869.6,467.752c-41.762-54.002-95.275-96.907-159.054-127.523
		c-61.335-29.444-132.626-47.611-212.417-54.177v-55.244c0-13.531-2.75-26.589-8.174-38.812
		c-5.176-11.664-12.542-22.013-21.894-30.759c-17.833-16.678-41.092-25.864-65.491-25.864c-24.822,0-48.371,9.603-66.309,27.039
		L58.9,432.019c-9.399,9.136-16.695,19.897-21.685,31.983c-4.798,11.621-7.226,23.897-7.216,36.486
		c0.01,12.589,2.457,24.861,7.272,36.475C42.28,549.042,49.592,559.792,59.005,568.913z M107.691,482.213l277.362-269.607
		c5.139-4.995,11.391-7.233,17.518-7.233c13.06,0,25.56,10.159,25.56,25.435v97.445c0,13.708,10.887,24.966,24.59,25.368
		C829.407,364.69,890.988,630.354,899.92,745.854c1.218,15.752-11.505,27.417-25.372,27.417c-4.66,0-9.446-1.316-13.88-4.236
		c-64.07-42.203-203.296-115.194-406.459-121.039c-0.248-0.007-0.496-0.011-0.742-0.011c-13.948,0-25.336,11.35-25.336,25.391
		v95.816c0,15.271-12.5,25.435-25.559,25.435c-6.116,0-12.354-2.228-17.49-7.206L107.719,518.644
		C97.438,508.681,97.425,492.192,107.691,482.213z"/>
</g>
</svg>
