<?xml version="1.0" encoding="iso-8859-1"?>
<!-- Generator: Adobe Illustrator 18.0.0, SVG Export Plug-In . SVG Version: 6.00 Build 0)  -->
<!DOCTYPE svg PUBLIC "-//W3C//DTD SVG 1.1//EN" "http://www.w3.org/Graphics/SVG/1.1/DTD/svg11.dtd">
<svg version="1.1" id="Capa_1" xmlns="http://www.w3.org/2000/svg" xmlns:xlink="http://www.w3.org/1999/xlink" x="0px" y="0px"
	 viewBox="0 0 1000 1000" style="enable-background:new 0 0 1000 1000;" xml:space="preserve">
<g>
	<path style="fill:#211915;stroke:#000000;stroke-miterlimit:10;" d="M160.803,838.983c44.014,44.014,95.287,78.578,152.394,102.732
		c59.161,25.023,121.964,37.71,186.665,37.71s127.504-12.688,186.665-37.71c57.106-24.154,108.38-58.718,152.394-102.732
		s78.578-95.287,102.732-152.394c25.022-59.16,37.71-121.964,37.71-186.665s-12.688-127.504-37.71-186.665
		c-24.154-57.107-58.719-108.379-102.732-152.393S743.633,82.288,686.526,58.134c-59.161-25.023-121.964-37.71-186.665-37.71
		s-127.504,12.688-186.665,37.71c-57.106,24.154-108.38,58.718-152.394,102.732S82.225,256.153,58.07,313.26
		c-25.022,59.16-37.71,121.963-37.71,186.665S33.048,627.429,58.07,686.59C82.225,743.697,116.789,794.969,160.803,838.983z
		 M499.861,90.424c226.161,0,409.501,183.34,409.501,409.501s-183.34,409.501-409.501,409.501S90.36,726.086,90.36,499.925
		S273.7,90.424,499.861,90.424z"/>
	<path style="fill:#211915;stroke:#000000;stroke-miterlimit:10;" d="M387.535,712.431c16.971,13.905,38.309,21.562,60.082,21.562
		c24.408,0,47.647-9.241,65.438-26.02c9.225-8.701,16.494-18.976,21.604-30.537c5.364-12.136,8.084-25.086,8.084-38.49v-10.919
		h185.955c50.005,0,90.687-40.682,90.687-90.687v-74.68c0-50.005-40.682-90.687-90.687-90.687H542.742v-9.298
		c0-13.398-2.718-26.343-8.077-38.475c-5.106-11.559-12.37-21.832-21.59-30.533c-17.791-16.791-41.036-26.039-65.453-26.039
		c0,0-0.006,0-0.008,0c-21.581,0.002-42.771,7.541-59.668,21.228L213.301,430.323c-1.063,0.862-2.102,1.754-3.112,2.677
		c-18.794,17.142-29.573,41.563-29.573,67s10.779,49.858,29.573,67c0.915,0.835,1.852,1.645,2.81,2.43L387.535,712.431z
		 M257.361,484.717L432.007,343.25c4.785-3.876,10.263-5.621,15.613-5.621c12.925-0.001,25.122,10.172,25.122,25.047v58.611
		c0,11.425,9.262,20.687,20.687,20.687h235.269c11.425,0,20.687,9.261,20.687,20.687v74.681c0,11.425-9.262,20.687-20.687,20.687
		H493.429c-11.425,0-20.687,9.262-20.687,20.687v60.232c0,14.884-12.206,25.048-25.125,25.048c-5.395,0-10.911-1.771-15.719-5.709
		l-174.537-143C248.367,507.079,248.367,492.921,257.361,484.717z"/>
</g>
</svg>
