<?xml version="1.0" encoding="iso-8859-1"?>
<!-- Generator: Adobe Illustrator 18.0.0, SVG Export Plug-In . SVG Version: 6.00 Build 0)  -->
<!DOCTYPE svg PUBLIC "-//W3C//DTD SVG 1.1//EN" "http://www.w3.org/Graphics/SVG/1.1/DTD/svg11.dtd">
<svg version="1.1" id="Capa_1" xmlns="http://www.w3.org/2000/svg" xmlns:xlink="http://www.w3.org/1999/xlink" x="0px" y="0px"
	 viewBox="0 0 1000 1000" style="enable-background:new 0 0 1000 1000;" xml:space="preserve">
<g>
	<path style="fill:#211915;stroke:#000000;stroke-miterlimit:10;" d="M160.942,838.983c44.014,44.014,95.286,78.578,152.393,102.732
		c59.161,25.023,121.964,37.71,186.665,37.71s127.504-12.688,186.665-37.71c57.107-24.154,108.379-58.718,152.393-102.732
		c44.014-44.014,78.578-95.287,102.732-152.394c25.023-59.161,37.71-121.963,37.71-186.665c0-64.701-12.687-127.504-37.71-186.665
		c-24.154-57.107-58.718-108.379-102.732-152.393S743.772,82.287,686.665,58.133C627.504,33.111,564.701,20.424,500,20.424
		s-127.504,12.688-186.665,37.71c-57.107,24.154-108.379,58.719-152.393,102.733C116.927,204.88,82.363,256.153,58.209,313.26
		c-25.023,59.161-37.71,121.964-37.71,186.665c0,64.702,12.688,127.504,37.71,186.665
		C82.363,743.697,116.927,794.969,160.942,838.983z M500,90.424c226.161,0,409.501,183.34,409.501,409.501
		S726.161,909.426,500,909.426S90.499,726.086,90.499,499.925S273.839,90.424,500,90.424z"/>
	<path style="fill:#211915;stroke:#000000;stroke-miterlimit:10;" d="M284.712,570.187l222.036,202.535
		c17.577,16.033,40.259,24.863,63.867,24.863c24.339,0,47.531-9.182,65.303-25.856c9.28-8.707,16.592-19.001,21.73-30.597
		c5.389-12.161,8.122-25.147,8.122-38.596V297.464c0-13.449-2.732-26.433-8.12-38.594c-5.139-11.596-12.449-21.891-21.73-30.598
		c-17.772-16.674-40.964-25.857-65.304-25.857c-0.002,0-0.005,0-0.007,0c-23.606,0.002-46.286,8.831-63.86,24.862L284.711,429.813
		c-19.687,17.958-30.978,43.54-30.978,70.187C253.734,526.647,265.025,552.23,284.712,570.187z M331.885,481.53l222.037-202.536
		c4.979-4.542,10.898-6.579,16.693-6.579c12.883-0.001,25.156,10.065,25.156,25.049v405.073c0,14.983-12.274,25.049-25.156,25.049
		c-5.795,0-11.712-2.036-16.693-6.579L331.885,518.47C321.016,508.555,321.016,491.445,331.885,481.53z"/>
</g>
</svg>
