<?xml version="1.0" encoding="iso-8859-1"?>
<!-- Generator: Adobe Illustrator 18.0.0, SVG Export Plug-In . SVG Version: 6.00 Build 0)  -->
<!DOCTYPE svg PUBLIC "-//W3C//DTD SVG 1.1//EN" "http://www.w3.org/Graphics/SVG/1.1/DTD/svg11.dtd">
<svg version="1.1" id="Capa_1" xmlns="http://www.w3.org/2000/svg" xmlns:xlink="http://www.w3.org/1999/xlink" x="0px" y="0px"
	 viewBox="0 0 1000 1000" style="enable-background:new 0 0 1000 1000;" xml:space="preserve">
<g>
	<path style="fill:#211915;stroke:#000000;stroke-miterlimit:10;" d="M889.496,177.279c-16.586,0-32.999,4.414-47.464,12.766
		L442.478,420.728c-14.967,8.641-27.277,21.145-35.6,36.159c-7.786,14.046-11.9,29.992-11.9,46.113
		c0,16.121,4.115,32.067,11.9,46.113c8.322,15.015,20.633,27.519,35.601,36.16l399.554,230.683
		c14.462,8.351,30.875,12.765,47.462,12.765c52.404,0,95.038-42.634,95.038-95.037V272.316
		C984.533,219.913,941.899,177.279,889.496,177.279z M914.533,733.684c0,14.594-11.979,25.037-25.038,25.037
		c-4.162,0-8.434-1.061-12.462-3.387L477.478,524.65c-16.667-9.622-16.667-33.679,0-43.301l399.555-230.684
		c4.029-2.326,8.299-3.387,12.462-3.387c13.057,0,25.038,10.444,25.038,25.037L914.533,733.684L914.533,733.684z"/>
	<path style="fill:#211915;stroke:#000000;stroke-miterlimit:10;" d="M239.06,178.945H112.477c-52.383,0-95,42.617-95,95v451.801
		c0,52.383,42.617,95,95,95H239.06c52.383,0,95-42.617,95-95V273.945C334.06,221.562,291.442,178.945,239.06,178.945z
		 M264.06,725.746c0,13.807-11.193,25-25,25H112.477c-13.807,0-25-11.193-25-25V273.945c0-13.808,11.193-25,25-25H239.06
		c13.807,0,25,11.192,25,25V725.746z"/>
</g>
</svg>
