<?xml version="1.0" encoding="iso-8859-1"?>
<!-- Generator: Adobe Illustrator 18.0.0, SVG Export Plug-In . SVG Version: 6.00 Build 0)  -->
<!DOCTYPE svg PUBLIC "-//W3C//DTD SVG 1.1//EN" "http://www.w3.org/Graphics/SVG/1.1/DTD/svg11.dtd">
<svg version="1.1" id="Capa_1" xmlns="http://www.w3.org/2000/svg" xmlns:xlink="http://www.w3.org/1999/xlink" x="0px" y="0px"
	 viewBox="0 0 1000 1000" style="enable-background:new 0 0 1000 1000;" xml:space="preserve">
<g>
	<path style="fill:#211915;stroke:#000000;stroke-miterlimit:10;" d="M161.152,839.058c44.014,44.014,95.286,78.578,152.394,102.733
		c59.16,25.023,121.964,37.71,186.665,37.71s127.504-12.688,186.665-37.71c57.106-24.154,108.379-58.718,152.393-102.733
		c44.015-44.014,78.579-95.286,102.733-152.393c25.022-59.161,37.71-121.964,37.71-186.665s-12.688-127.504-37.71-186.665
		c-24.154-57.107-58.719-108.379-102.733-152.393c-44.014-44.014-95.286-78.578-152.393-102.733
		c-59.161-25.023-121.964-37.71-186.665-37.71s-127.505,12.688-186.665,37.71c-57.107,24.154-108.38,58.718-152.394,102.733
		c-44.014,44.014-78.578,95.286-102.732,152.393C33.397,372.496,20.71,435.299,20.71,500s12.688,127.504,37.71,186.665
		C82.574,743.772,117.139,795.044,161.152,839.058z M500.211,90.499c226.161,0,409.501,183.34,409.501,409.501
		s-183.34,409.501-409.501,409.501S90.71,726.161,90.71,500S274.05,90.499,500.211,90.499z"/>
	<path style="fill:#211915;stroke:#000000;stroke-miterlimit:10;" d="M490.703,794.307c24.339,0,47.531-9.182,65.303-25.856
		c9.281-8.707,16.592-19.001,21.731-30.597c5.273-11.899,8.003-24.587,8.118-37.727h104.607c52.383,0,95-42.617,95-95V394.874
		c0-52.383-42.617-95-95-95H585.854c-0.115-13.139-2.844-25.826-8.117-37.725c-5.138-11.596-12.449-21.891-21.729-30.598
		c-17.771-16.675-40.964-25.857-65.304-25.857h-0.007c-23.606,0.002-46.286,8.831-63.861,24.862L208.394,429.814
		c-19.687,17.957-30.978,43.539-30.978,70.186c0,26.647,11.292,52.229,30.979,70.187l218.441,199.257
		C444.413,785.477,467.095,794.307,490.703,794.307z M255.568,481.53L474.01,282.272c4.979-4.542,10.898-6.579,16.693-6.579
		c12.883-0.001,25.155,10.065,25.155,25.049v44.131c0,13.807,11.193,25,25,25h149.603c13.807,0,25,11.193,25,25v210.253
		c0,13.807-11.193,25-25,25H540.858c-13.807,0-25,11.193-25,25v44.131c0,14.983-12.274,25.049-25.155,25.049
		c-5.795,0-11.712-2.036-16.693-6.579L255.568,518.47C244.698,508.555,244.698,491.445,255.568,481.53z"/>
</g>
</svg>
