<?xml version="1.0" encoding="iso-8859-1"?>
<!-- Generator: Adobe Illustrator 18.0.0, SVG Export Plug-In . SVG Version: 6.00 Build 0)  -->
<!DOCTYPE svg PUBLIC "-//W3C//DTD SVG 1.1//EN" "http://www.w3.org/Graphics/SVG/1.1/DTD/svg11.dtd">
<svg version="1.1" id="Capa_1" xmlns="http://www.w3.org/2000/svg" xmlns:xlink="http://www.w3.org/1999/xlink" x="0px" y="0px"
	 viewBox="0 0 1000 1000" style="enable-background:new 0 0 1000 1000;" xml:space="preserve">
<g>
	<path style="fill:#211915;stroke:#000000;stroke-miterlimit:10;" d="M397.916,515.005c-5.106-11.559-12.37-21.832-21.59-30.534
		c-17.791-16.791-41.036-26.039-65.453-26.039c-21.587,0.001-42.778,7.54-59.675,21.227L64.329,631.028
		c-1.683,1.363-4.258,3.514-7.15,6.419c-35.735,35.865-35.645,94.164,0.222,129.938c2.662,2.654,5.016,4.638,6.556,5.9
		L248.31,924.329c17.243,14.128,38.919,21.908,61.035,21.908c24.801,0,48.415-9.39,66.492-26.44
		c9.372-8.839,16.754-19.275,21.945-31.017c5.449-12.329,8.211-25.486,8.211-39.108v-15.823H875c52.383,0,95-42.617,95-95V148.763
		c0-52.383-42.617-95-95-95h-76.147H125c-52.383,0-95,42.617-95,95v73.088c0,52.383,42.617,95,95,95h581.912v253.91H405.993V553.48
		C405.993,540.082,403.276,527.137,397.916,515.005z M751.912,640.761c13.807,0,25-11.193,25-25v-343.91c0-13.807-11.193-25-25-25
		H125c-13.807,0-25-11.193-25-25v-73.088c0-13.807,11.193-25,25-25h673.853H875c13.807,0,25,11.193,25,25v590.086
		c0,13.807-11.193,25-25,25H360.993c-13.807,0-25,11.193-25,25v60.823c0,15.786-12.946,26.566-26.648,26.566
		c-5.722,0-11.573-1.878-16.671-6.055L108.331,719.147c-0.515-0.422-1.025-0.853-1.497-1.323
		c-8.558-8.536-8.574-22.433-0.049-30.989c0.502-0.505,1.05-0.964,1.604-1.413l186.869-151.369
		c4.785-3.876,10.263-5.62,15.613-5.621c12.925-0.001,25.123,10.172,25.123,25.047v62.281c0,13.807,11.193,25,25,25h390.918V640.761
		z"/>
</g>
</svg>
