<?xml version="1.0" encoding="iso-8859-1"?>
<!-- Generator: Adobe Illustrator 18.0.0, SVG Export Plug-In . SVG Version: 6.00 Build 0)  -->
<!DOCTYPE svg PUBLIC "-//W3C//DTD SVG 1.1//EN" "http://www.w3.org/Graphics/SVG/1.1/DTD/svg11.dtd">
<svg version="1.1" id="Capa_1" xmlns="http://www.w3.org/2000/svg" xmlns:xlink="http://www.w3.org/1999/xlink" x="0px" y="0px"
	 viewBox="0 0 1000 1000" style="enable-background:new 0 0 1000 1000;" xml:space="preserve">
<path style="stroke:#000000;stroke-miterlimit:10;" d="M156.347,845.314c44.61,44.611,96.578,79.644,154.459,104.125
	C370.768,974.801,434.422,987.66,500,987.66s129.232-12.859,189.194-38.221c57.881-24.481,109.849-59.514,154.459-104.125
	c44.611-44.611,79.644-96.578,104.126-154.459C973.141,630.894,986,567.24,986,501.661s-12.859-129.233-38.221-189.195
	c-24.482-57.881-59.515-109.848-104.126-154.459c-44.61-44.611-96.578-79.644-154.459-104.125
	C629.232,28.52,565.578,15.661,500,15.661S370.768,28.52,310.806,53.882c-57.881,24.481-109.849,59.514-154.459,104.125
	c-44.611,44.611-79.644,96.578-104.126,154.459C26.859,372.428,14,436.082,14,501.661s12.859,129.233,38.221,189.195
	C76.703,748.736,111.735,800.704,156.347,845.314z M84,501.661c0-29.69,3.118-58.65,9.03-86.58l164.429,37.488
	c-3.194,15.868-4.879,32.283-4.879,49.092c0,15.689,1.477,31.031,4.27,45.91l-164.482,37.5C86.882,558.122,84,530.228,84,501.661z
	 M112.143,652.357l167.446-38.176c23.384,45.713,60.577,83.182,106.069,106.933L347.43,888.792
	C239.777,846.332,154.098,760.263,112.143,652.357z M500,324.24c47.391,0,91.944,18.455,125.455,51.965
	c33.51,33.51,51.965,78.064,51.965,125.455s-18.455,91.945-51.965,125.455C591.944,660.625,547.391,679.08,500,679.08
	s-91.944-18.455-125.455-51.965c-33.51-33.51-51.965-78.064-51.965-125.455s18.455-91.945,51.965-125.455
	C408.056,342.695,452.609,324.24,500,324.24z M500,917.661c-29.257,0-57.806-3.027-85.356-8.772l37.493-164.451
	c15.487,3.036,31.486,4.644,47.863,4.644s32.376-1.607,47.863-4.644l37.493,164.451C557.806,914.634,529.257,917.661,500,917.661z
	 M652.57,888.792l-38.229-167.677c45.492-23.751,82.686-61.22,106.069-106.933l167.446,38.176
	C845.902,760.263,760.223,846.332,652.57,888.792z M916,501.661c0,28.567-2.882,56.461-8.367,83.41l-164.482-37.5
	c2.793-14.878,4.27-30.221,4.27-45.91c0-16.809-1.685-33.224-4.879-49.092l164.429-37.488C912.882,443.01,916,471.971,916,501.661z
	 M886.66,347.916l-167.81,38.258c-23.578-44.59-60.375-81.106-105.184-104.324l38.209-167.59
	C758.836,156.225,844.193,241.207,886.66,347.916z M500,85.661c29.001,0,57.307,2.972,84.634,8.62l-37.495,164.464
	c-15.263-2.944-31.018-4.504-47.139-4.504s-31.876,1.56-47.139,4.504L415.366,94.28C442.693,88.632,470.999,85.661,500,85.661z
	 M348.125,114.26l38.209,167.59c-44.809,23.218-81.605,59.734-105.184,104.324l-167.81-38.258
	C155.807,241.207,241.164,156.225,348.125,114.26z"/>
</svg>
