<?xml version="1.0" encoding="iso-8859-1"?>
<!-- Generator: Adobe Illustrator 18.0.0, SVG Export Plug-In . SVG Version: 6.00 Build 0)  -->
<!DOCTYPE svg PUBLIC "-//W3C//DTD SVG 1.1//EN" "http://www.w3.org/Graphics/SVG/1.1/DTD/svg11.dtd">
<svg version="1.1" id="Capa_1" xmlns="http://www.w3.org/2000/svg" xmlns:xlink="http://www.w3.org/1999/xlink" x="0px" y="0px"
	 viewBox="0 0 1000 1000" style="enable-background:new 0 0 1000 1000;" xml:space="preserve">
<path style="fill:#211915;stroke:#000000;stroke-miterlimit:10;" d="M327.033,897.229c0,52.383,42.617,95,95,95h155.934
	c52.383,0,95-42.617,95-95V773.734v-19.079c29.852-25.218,57.369-56.676,82.058-93.868c28.22-42.51,51.701-91.477,67.904-141.607
	c16.521-51.113,25.254-102.819,25.254-149.527c0-48.414-9.063-95.444-26.938-139.785c-17.334-43.002-42.187-81.66-73.868-114.901
	c-31.906-33.478-69.151-59.802-110.701-78.241C593.383,17.513,547.398,7.771,500,7.771s-93.383,9.742-136.676,28.955
	c-41.55,18.44-78.795,44.764-110.701,78.241c-31.681,33.241-56.533,71.899-73.868,114.901
	c-17.875,44.341-26.938,91.372-26.938,139.785c0,46.708,8.733,98.414,25.254,149.527c16.204,50.13,39.685,99.097,67.904,141.607
	c24.689,37.192,52.206,68.65,82.058,93.868v19.079L327.033,897.229L327.033,897.229z M602.967,800.036v97.193
	c0,13.807-11.193,25-25,25H422.033c-13.807,0-25-11.193-25-25v-14.248h76.032c19.33,0,35-15.67,35-35
	c0-9.498-3.789-18.106-9.93-24.412c-6.358-6.528-15.238-10.588-25.07-10.588h-42.536h-33.496v-12.945v-26.302h205.934V800.036z
	 M221.817,369.654c0-161.202,124.546-291.883,278.183-291.883s278.183,130.681,278.183,291.883
	c0,114.155-62.458,259.159-153.473,334.08h-21.743H535V450.681h24.146c19.33,0,35-15.67,35-35s-15.67-35-35-35H500h-59.146
	c-19.33,0-35,15.67-35,35s15.67,35,35,35H465v253.053h-67.967H375.29C284.276,628.813,221.817,483.809,221.817,369.654z"/>
</svg>
