<?xml version="1.0" encoding="iso-8859-1"?>
<!-- Generator: Adobe Illustrator 18.0.0, SVG Export Plug-In . SVG Version: 6.00 Build 0)  -->
<!DOCTYPE svg PUBLIC "-//W3C//DTD SVG 1.1//EN" "http://www.w3.org/Graphics/SVG/1.1/DTD/svg11.dtd">
<svg version="1.1" id="Capa_1" xmlns="http://www.w3.org/2000/svg" xmlns:xlink="http://www.w3.org/1999/xlink" x="0px" y="0px"
	 viewBox="0 0 1000 1000" style="enable-background:new 0 0 1000 1000;" xml:space="preserve">
<path style="stroke:#000000;stroke-miterlimit:10;" d="M838.647,96.595c-44.951-26.997-96.071-41.267-147.834-41.267
	c-22.528,0-44.984,2.627-66.745,7.808c-21.184,5.043-41.815,12.53-61.321,22.252c-22.701,11.315-43.96,25.76-62.995,42.698
	c-19.034-16.938-40.293-31.383-62.994-42.697c-19.506-9.722-40.137-17.209-61.321-22.252c-21.761-5.181-44.217-7.808-66.745-7.808
	c-54.032,0-106.877,15.625-152.823,45.185c-45.228,29.099-81.414,70.159-104.645,118.742
	c-26.476,55.369-32.561,116.777-18.085,182.518c10.055,45.665,29.642,93.184,61.642,149.544
	c45.146,79.514,107.134,155.347,184.242,225.392c9.224,8.379,18.527,16.989,28.375,26.104
	c42.032,38.899,89.673,82.989,140.451,116.403c15.465,10.178,33.445,15.558,51.992,15.558c17.962,0,35.501-5.067,50.721-14.655
	c86.924-54.759,166.404-123.51,236.234-204.345c71.719-83.021,148.82-183.229,176.882-296.98
	c6.178-25.044,9.757-49.82,10.638-73.641c1.873-50.658-8.146-96.917-29.778-137.496C920.189,161.981,883.572,123.577,838.647,96.595
	z M904.364,342.565c-0.742,20.059-3.844,39.986-8.648,59.461c-24.556,99.54-95.939,191.641-161.891,267.986
	c-63.813,73.87-137.949,138.828-220.572,190.876c-4.098,2.582-8.759,3.884-13.411,3.884c-4.712,0-9.416-1.337-13.513-4.033
	c-56.797-37.374-110.672-90.819-160.238-135.845c-66.39-60.309-126.063-129.985-170.436-208.14
	c-46.009-81.035-84.638-176.626-41.278-267.303c35.716-74.691,111.162-124.126,194.317-124.125
	c69.589,0,131.541,32.7,171.329,83.572c5.035,6.437,12.383,9.655,19.731,9.655s14.696-3.218,19.731-9.655
	c39.789-50.872,101.741-83.572,171.331-83.572c79.64,0,154.49,44.983,191.954,115.259
	C899.555,272.077,905.674,307.125,904.364,342.565z"/>
</svg>
