<?xml version="1.0" encoding="iso-8859-1"?>
<!-- Generator: Adobe Illustrator 18.0.0, SVG Export Plug-In . SVG Version: 6.00 Build 0)  -->
<!DOCTYPE svg PUBLIC "-//W3C//DTD SVG 1.1//EN" "http://www.w3.org/Graphics/SVG/1.1/DTD/svg11.dtd">
<svg version="1.1" id="Capa_1" xmlns="http://www.w3.org/2000/svg" xmlns:xlink="http://www.w3.org/1999/xlink" x="0px" y="0px"
	 viewBox="0 0 1000 1000" style="enable-background:new 0 0 1000 1000;" xml:space="preserve">
<path style="fill:#211915;stroke:#000000;stroke-miterlimit:10;" d="M832.827,40.812c-16.055-16.055-37.4-24.896-60.104-24.896
	s-44.05,8.842-60.104,24.896L456.96,296.472c-16.055,16.054-24.896,37.399-24.896,60.104c0,22.704,8.842,44.05,24.896,60.104
	l38.432,38.432l-40.28,40.28L416.68,456.96c-16.054-16.055-37.399-24.896-60.104-24.896c-0.002,0,0,0-0.001,0
	c-22.703,0-44.051,8.843-60.104,24.896L40.812,712.619c-16.055,16.054-24.896,37.399-24.896,60.104s8.841,44.05,24.896,60.104
	l126.361,126.361c16.055,16.055,37.4,24.896,60.104,24.896s44.05-8.842,60.104-24.896l255.659-255.66
	c16.055-16.054,24.896-37.399,24.896-60.104s-8.842-44.051-24.896-60.104l-38.432-38.432l40.28-40.28l38.431,38.431
	c16.054,16.055,37.399,24.896,60.104,24.896c22.704,0,44.05-8.842,60.104-24.896l255.659-255.66
	c16.055-16.054,24.896-37.399,24.896-60.104s-8.841-44.05-24.896-60.104L832.827,40.812z M493.544,632.818
	c3.822,3.822,4.393,8.285,4.393,10.606c0,2.32-0.57,6.783-4.394,10.605L237.883,909.69c-3.822,3.822-8.285,4.393-10.605,4.393
	s-6.784-0.57-10.606-4.394L90.31,783.329c-3.823-3.822-4.394-8.286-4.394-10.606s0.57-6.783,4.394-10.605l255.66-255.661
	c3.822-3.822,8.285-4.393,10.606-4.393c2.32,0,6.783,0.57,10.605,4.394l38.432,38.432l-69.033,69.033
	c-13.668,13.669-13.668,35.829,0,49.498c6.834,6.834,15.792,10.251,24.749,10.251s17.915-3.417,24.749-10.251l69.034-69.034
	L493.544,632.818z M909.69,237.883L654.03,493.544c-3.822,3.822-8.285,4.393-10.605,4.393c-2.321,0-6.784-0.57-10.606-4.394
	l-38.432-38.432l72.666-72.666c13.668-13.669,13.668-35.829,0-49.498c-13.668-13.668-35.83-13.668-49.498,0l-72.667,72.667
	l-38.432-38.432c-3.822-3.822-4.393-8.285-4.393-10.605c0-2.321,0.57-6.784,4.394-10.606L762.117,90.31
	c3.822-3.822,8.285-4.393,10.605-4.393s6.784,0.57,10.606,4.394l126.362,126.36c3.823,3.822,4.394,8.286,4.394,10.606
	S913.514,234.061,909.69,237.883z"/>
</svg>
