<?xml version="1.0" encoding="iso-8859-1"?>
<!-- Generator: Adobe Illustrator 18.0.0, SVG Export Plug-In . SVG Version: 6.00 Build 0)  -->
<!DOCTYPE svg PUBLIC "-//W3C//DTD SVG 1.1//EN" "http://www.w3.org/Graphics/SVG/1.1/DTD/svg11.dtd">
<svg version="1.1" id="Capa_1" xmlns="http://www.w3.org/2000/svg" xmlns:xlink="http://www.w3.org/1999/xlink" x="0px" y="0px"
	 viewBox="0 0 1000 1000" style="enable-background:new 0 0 1000 1000;" xml:space="preserve">
<g>
	<path style="fill:#211915;stroke:#000000;stroke-miterlimit:10;" d="M41.452,682.969c17.1,15.97,39.396,24.765,62.781,24.765
		c24.324,0,47.258-9.538,64.576-26.856L281.146,568.54c37.793-37.793,37.793-99.287,0-137.081L168.809,319.122
		c-17.318-17.318-40.252-26.856-64.576-26.856c-23.386,0-45.682,8.795-62.782,24.765c-8.995,8.4-16.081,18.346-21.061,29.561
		c-5.214,11.741-7.858,24.278-7.858,37.262v232.292c0,12.985,2.644,25.522,7.859,37.265
		C25.372,664.625,32.457,674.569,41.452,682.969z M82.532,383.854c0-12.987,10.625-21.588,21.7-21.588
		c5.293,0,10.69,1.965,15.078,6.354l112.337,112.337c10.517,10.517,10.517,27.569,0,38.086L119.311,631.38
		c-4.389,4.39-9.784,6.354-15.078,6.354c-11.075,0-21.7-8.602-21.7-21.588L82.532,383.854L82.532,383.854z"/>
	<path style="fill:#211915;stroke:#000000;stroke-miterlimit:10;" d="M988.468,100.562c0-52.383-42.617-95-95-95H462.602
		c-52.383,0-95,42.617-95,95v105.801c0,52.383,42.617,95,95,95h430.866c52.383,0,95-42.617,95-95V100.562z M918.468,206.363
		c0,13.807-11.193,25-25,25H462.602c-13.807,0-25-11.193-25-25V100.562c0-13.807,11.193-25,25-25h430.866c13.807,0,25,11.193,25,25
		V206.363z"/>
	<path style="fill:#211915;stroke:#000000;stroke-miterlimit:10;" d="M988.468,447.1c0-52.383-42.617-95-95-95H462.602
		c-52.383,0-95,42.617-95,95v105.8c0,52.383,42.617,95,95,95h430.866c52.383,0,95-42.617,95-95V447.1z M918.468,552.9
		c0,13.807-11.193,25-25,25H462.602c-13.807,0-25-11.193-25-25V447.1c0-13.807,11.193-25,25-25h430.866c13.807,0,25,11.193,25,25
		V552.9z"/>
	<path style="fill:#211915;stroke:#000000;stroke-miterlimit:10;" d="M988.468,899.438V793.637c0-52.383-42.617-95-95-95H462.602
		c-52.383,0-95,42.617-95,95v105.801c0,52.383,42.617,95,95,95h430.866C945.851,994.438,988.468,951.821,988.468,899.438z
		 M918.468,899.438c0,13.807-11.193,25-25,25H462.602c-13.807,0-25-11.193-25-25V793.637c0-13.807,11.193-25,25-25h430.866
		c13.807,0,25,11.193,25,25V899.438z"/>
</g>
</svg>
