<?xml version="1.0" encoding="iso-8859-1"?>
<!-- Generator: Adobe Illustrator 18.0.0, SVG Export Plug-In . SVG Version: 6.00 Build 0)  -->
<!DOCTYPE svg PUBLIC "-//W3C//DTD SVG 1.1//EN" "http://www.w3.org/Graphics/SVG/1.1/DTD/svg11.dtd">
<svg version="1.1" id="Capa_1" xmlns="http://www.w3.org/2000/svg" xmlns:xlink="http://www.w3.org/1999/xlink" x="0px" y="0px"
	 viewBox="0 0 1000 1000" style="enable-background:new 0 0 1000 1000;" xml:space="preserve">
<g>
	<path style="fill:#211915;stroke:#000000;stroke-miterlimit:10;" d="M898.607,5.562H441.35c-52.383,0-95,42.617-95,95v115.801
		c0,52.383,42.617,95,95,95h457.257c52.383,0,95-42.617,95-95V100.562C993.607,48.179,950.99,5.562,898.607,5.562z M923.607,216.363
		c0,13.807-11.193,25-25,25H441.35c-13.807,0-25-11.193-25-25V100.562c0-13.807,11.193-25,25-25h457.257c13.807,0,25,11.193,25,25
		V216.363z"/>
	<path style="fill:#211915;stroke:#000000;stroke-miterlimit:10;" d="M898.607,347.1H441.35c-52.383,0-95,42.617-95,95v115.8
		c0,52.383,42.617,95,95,95h457.257c52.383,0,95-42.617,95-95V442.1C993.607,389.716,950.99,347.1,898.607,347.1z M923.607,557.9
		c0,13.807-11.193,25-25,25H441.35c-13.807,0-25-11.193-25-25V442.1c0-13.807,11.193-25,25-25h457.257c13.807,0,25,11.193,25,25
		V557.9z"/>
	<path style="fill:#211915;stroke:#000000;stroke-miterlimit:10;" d="M898.607,688.637H441.35c-52.383,0-95,42.617-95,95v115.801
		c0,52.383,42.617,95,95,95h457.257c52.383,0,95-42.617,95-95V783.637C993.607,731.254,950.99,688.637,898.607,688.637z
		 M923.607,899.438c0,13.807-11.193,25-25,25H441.35c-13.807,0-25-11.193-25-25V783.637c0-13.807,11.193-25,25-25h457.257
		c13.807,0,25,11.193,25,25V899.438z"/>
	<path style="fill:#211915;stroke:#000000;stroke-miterlimit:10;" d="M52.177,266.579c14.02,14.02,30.364,25.035,48.58,32.739
		c18.896,7.992,38.927,12.044,59.537,12.044s40.642-4.052,59.537-12.044c18.216-7.705,34.561-18.72,48.579-32.739
		c14.02-14.02,25.035-30.364,32.739-48.58c7.992-18.896,12.045-38.927,12.045-59.538s-4.053-40.642-12.045-59.538
		c-7.704-18.215-18.72-34.56-32.739-48.58c-14.019-14.019-30.363-25.034-48.579-32.739C200.935,9.612,180.904,5.56,160.294,5.56
		s-40.642,4.052-59.537,12.044c-18.216,7.705-34.561,18.72-48.58,32.739S27.143,80.71,19.438,98.925
		c-7.992,18.896-12.044,38.926-12.044,59.537S11.445,199.104,19.438,218C27.143,236.215,38.157,252.56,52.177,266.579z
		 M160.294,75.562c45.784,0,82.9,37.116,82.9,82.9s-37.116,82.9-82.9,82.9c-45.785,0-82.9-37.116-82.9-82.9
		S114.509,75.562,160.294,75.562z"/>
	<path style="fill:#211915;stroke:#000000;stroke-miterlimit:10;" d="M52.177,608.117c14.02,14.02,30.364,25.035,48.58,32.739
		c18.896,7.992,38.927,12.044,59.537,12.044s40.642-4.052,59.537-12.044c18.216-7.705,34.561-18.72,48.579-32.739
		c14.02-14.02,25.035-30.364,32.739-48.58c7.992-18.896,12.045-38.927,12.045-59.538s-4.053-40.642-12.045-59.538
		c-7.704-18.215-18.72-34.56-32.739-48.58c-14.019-14.019-30.363-25.034-48.579-32.739c-18.896-7.992-38.927-12.044-59.537-12.044
		s-40.642,4.052-59.537,12.044c-18.216,7.705-34.561,18.72-48.58,32.739s-25.034,30.364-32.739,48.58
		C11.445,459.358,7.394,479.389,7.394,500c0,20.611,4.052,40.642,12.044,59.537C27.143,577.752,38.157,594.097,52.177,608.117z
		 M160.294,417.1c45.784,0,82.9,37.116,82.9,82.9s-37.116,82.9-82.9,82.9c-45.785,0-82.9-37.116-82.9-82.9
		S114.509,417.1,160.294,417.1z"/>
	<path style="fill:#211915;stroke:#000000;stroke-miterlimit:10;" d="M100.757,982.394c18.896,7.992,38.927,12.044,59.537,12.044
		s40.642-4.052,59.537-12.044c18.216-7.705,34.561-18.72,48.579-32.739c14.02-14.02,25.035-30.364,32.739-48.58
		c7.992-18.896,12.045-38.927,12.045-59.538S309.142,800.896,301.15,782c-7.704-18.215-18.72-34.56-32.739-48.58
		c-14.019-14.019-30.363-25.034-48.579-32.739c-18.896-7.992-38.927-12.044-59.537-12.044s-40.642,4.052-59.537,12.044
		c-18.216,7.705-34.561,18.72-48.58,32.739S27.143,763.785,19.438,782c-7.992,18.896-12.044,38.926-12.044,59.537
		s4.052,40.642,12.044,59.537c7.705,18.215,18.72,34.56,32.739,48.58S82.541,974.689,100.757,982.394z M160.294,758.637
		c45.784,0,82.9,37.116,82.9,82.9s-37.116,82.9-82.9,82.9c-45.785,0-82.9-37.116-82.9-82.9S114.509,758.637,160.294,758.637z"/>
</g>
</svg>
