<?xml version="1.0" encoding="iso-8859-1"?>
<!-- Generator: Adobe Illustrator 18.0.0, SVG Export Plug-In . SVG Version: 6.00 Build 0)  -->
<!DOCTYPE svg PUBLIC "-//W3C//DTD SVG 1.1//EN" "http://www.w3.org/Graphics/SVG/1.1/DTD/svg11.dtd">
<svg version="1.1" id="Capa_1" xmlns="http://www.w3.org/2000/svg" xmlns:xlink="http://www.w3.org/1999/xlink" x="0px" y="0px"
	 viewBox="0 0 1000 1000" style="enable-background:new 0 0 1000 1000;" xml:space="preserve">
<g>
	<path style="fill:#211915;stroke:#000000;stroke-miterlimit:10;" d="M218.949,5.152H103.148c-52.384,0-95,42.617-95,95v115.801
		c0,52.383,42.616,95,95,95h115.801c52.383,0,95-42.617,95-95V100.152C313.949,47.769,271.332,5.152,218.949,5.152z
		 M243.949,215.953c0,13.807-11.193,25-25,25H103.148c-13.808,0-25-11.193-25-25V100.152c0-13.807,11.192-25,25-25h115.801
		c13.807,0,25,11.193,25,25V215.953z"/>
	<path style="fill:#211915;stroke:#000000;stroke-miterlimit:10;" d="M103.148,652.491h115.801c52.383,0,95-42.617,95-95V441.689
		c0-52.383-42.617-95-95-95H103.148c-52.384,0-95,42.617-95,95V557.49C8.148,609.874,50.765,652.491,103.148,652.491z
		 M78.148,441.689c0-13.807,11.192-25,25-25h115.801c13.807,0,25,11.193,25,25V557.49c0,13.807-11.193,25-25,25H103.148
		c-13.808,0-25-11.193-25-25V441.689z"/>
	<path style="fill:#211915;stroke:#000000;stroke-miterlimit:10;" d="M8.148,899.028c0,52.383,42.616,95,95,95h115.801
		c52.383,0,95-42.617,95-95v-115.8c0-52.383-42.617-95-95-95H103.148c-52.384,0-95,42.617-95,95
		C8.148,783.228,8.148,899.028,8.148,899.028z M78.148,783.228c0-13.807,11.192-25,25-25h115.801c13.807,0,25,11.193,25,25v115.801
		c0,13.807-11.193,25-25,25H103.148c-13.808,0-25-11.193-25-25V783.228z"/>
	<path style="fill:#211915;stroke:#000000;stroke-miterlimit:10;" d="M900.361,5.152H442.104c-52.383,0-95,42.617-95,95v115.801
		c0,52.383,42.617,95,95,95h458.257c52.383,0,95-42.617,95-95V100.152C995.361,47.769,952.744,5.152,900.361,5.152z
		 M925.361,215.953c0,13.807-11.192,25-25,25H442.104c-13.808,0-25-11.193-25-25V100.152c0-13.807,11.192-25,25-25h458.257
		c13.808,0,25,11.193,25,25L925.361,215.953L925.361,215.953z"/>
	<path style="fill:#211915;stroke:#000000;stroke-miterlimit:10;" d="M900.361,346.689H442.104c-52.383,0-95,42.617-95,95V557.49
		c0,52.383,42.617,95,95,95h458.257c52.383,0,95-42.617,95-95V441.689C995.361,389.306,952.744,346.689,900.361,346.689z
		 M925.361,557.491c0,13.807-11.192,25-25,25H442.104c-13.808,0-25-11.193-25-25V441.689c0-13.807,11.192-25,25-25h458.257
		c13.808,0,25,11.193,25,25L925.361,557.491L925.361,557.491z"/>
	<path style="fill:#211915;stroke:#000000;stroke-miterlimit:10;" d="M900.361,688.228H442.104c-52.383,0-95,42.617-95,95v115.801
		c0,52.383,42.617,95,95,95h458.257c52.383,0,95-42.617,95-95V783.228C995.361,730.844,952.744,688.228,900.361,688.228z
		 M925.361,899.028c0,13.807-11.192,25-25,25H442.104c-13.808,0-25-11.193-25-25v-115.8c0-13.807,11.192-25,25-25h458.257
		c13.808,0,25,11.193,25,25L925.361,899.028L925.361,899.028z"/>
</g>
</svg>
