<?xml version="1.0" encoding="iso-8859-1"?>
<!-- Generator: Adobe Illustrator 18.0.0, SVG Export Plug-In . SVG Version: 6.00 Build 0)  -->
<!DOCTYPE svg PUBLIC "-//W3C//DTD SVG 1.1//EN" "http://www.w3.org/Graphics/SVG/1.1/DTD/svg11.dtd">
<svg version="1.1" id="Capa_1" xmlns="http://www.w3.org/2000/svg" xmlns:xlink="http://www.w3.org/1999/xlink" x="0px" y="0px"
	 viewBox="0 0 1000 1000" style="enable-background:new 0 0 1000 1000;" xml:space="preserve">
<path style="fill:#211915;stroke:#000000;stroke-miterlimit:10;" d="M828.779,482.644h-33.885V302.351
	c0-39.033-7.66-76.936-22.769-112.655c-14.578-34.466-35.432-65.403-61.984-91.956c-26.552-26.552-57.491-47.406-91.957-61.983
	c-35.719-15.108-73.622-22.769-112.655-22.769s-76.936,7.66-112.655,22.769c-34.466,14.577-65.404,35.432-91.957,61.983
	c-26.552,26.553-47.407,57.49-61.984,91.956c-15.108,35.72-22.769,73.622-22.769,112.655v180.293H182.28c-52.383,0-95,42.617-95,95
	v310.124c0,52.383,42.617,95,95,95h646.499c52.383,0,95-42.617,95-95V577.644C923.779,525.261,881.163,482.644,828.779,482.644z
	 M853.779,887.768c0,13.807-11.193,25-25,25H182.28c-13.807,0-25-11.193-25-25V577.644c0-13.808,11.193-25,25-25h33.885h35h35
	h438.729h35h35h33.885c13.807,0,25,11.192,25,25V887.768z M286.166,302.351c0-121.151,98.212-219.363,219.364-219.363
	S724.894,181.2,724.894,302.351v180.293H286.166V302.351z"/>
</svg>
