<?xml version="1.0" encoding="iso-8859-1"?>
<!-- Generator: Adobe Illustrator 18.0.0, SVG Export Plug-In . SVG Version: 6.00 Build 0)  -->
<!DOCTYPE svg PUBLIC "-//W3C//DTD SVG 1.1//EN" "http://www.w3.org/Graphics/SVG/1.1/DTD/svg11.dtd">
<svg version="1.1" id="Capa_1" xmlns="http://www.w3.org/2000/svg" xmlns:xlink="http://www.w3.org/1999/xlink" x="0px" y="0px"
	 viewBox="0 0 1000 1000" style="enable-background:new 0 0 1000 1000;" xml:space="preserve">
<path style="fill:#211915;stroke:#000000;stroke-miterlimit:10;" d="M833.504,431.11v-55.379c0-44.889-8.807-88.473-26.178-129.54
	c-16.763-39.632-40.745-75.21-71.281-105.746s-66.114-54.518-105.746-71.28c-41.067-17.37-84.651-26.178-129.541-26.178
	s-88.473,8.808-129.541,26.178c-39.632,16.763-75.209,40.744-105.746,71.28s-54.519,66.114-71.281,105.746
	c-17.37,41.067-26.178,84.65-26.178,129.54v55.379c-47.941,4.779-85.504,45.348-85.504,94.526v360.131c0,52.383,42.617,95,95,95
	h646.499c52.383,0,95-42.617,95-95v-360.13C919.009,476.458,881.446,435.89,833.504,431.11z M152.51,885.768V525.637
	c0-10.444,6.407-19.389,15.504-23.128c2.928-1.204,6.133-1.872,9.496-1.872h25.505h35h525.49h35h25.505
	c3.362,0,6.567,0.668,9.496,1.872c9.097,3.739,15.504,12.684,15.504,23.128v360.131c0,13.807-11.193,25-25,25h-646.5
	C163.702,910.768,152.51,899.574,152.51,885.768z M238.014,375.731c0-145.109,117.635-262.744,262.745-262.744l0,0
	c145.11,0,262.745,117.635,262.745,262.744v54.905h-525.49L238.014,375.731L238.014,375.731z"/>
<path style="fill:#211915;stroke:#000000;stroke-miterlimit:10;" d="M500.759,536.246c-56.107,0-101.753,45.646-101.753,101.754
	c0,43.528,27.477,80.755,65.994,95.262v66.307v13.87c0,8.463,3.004,16.225,8.004,22.276c6.419,7.771,16.129,12.724,26.996,12.724
	c10.8,0,20.454-4.895,26.875-12.583c5.071-6.072,8.125-13.887,8.125-22.417V799.78v-65.961
	c39.312-14.09,67.512-51.721,67.512-95.819C602.512,581.893,556.866,536.246,500.759,536.246z M500.759,669.754
	c-17.537,0-31.753-14.217-31.753-31.754s14.217-31.754,31.753-31.754s31.753,14.217,31.753,31.754S518.296,669.754,500.759,669.754z
	"/>
</svg>
