<?xml version="1.0" encoding="iso-8859-1"?>
<!-- Generator: Adobe Illustrator 18.0.0, SVG Export Plug-In . SVG Version: 6.00 Build 0)  -->
<!DOCTYPE svg PUBLIC "-//W3C//DTD SVG 1.1//EN" "http://www.w3.org/Graphics/SVG/1.1/DTD/svg11.dtd">
<svg version="1.1" id="Capa_1" xmlns="http://www.w3.org/2000/svg" xmlns:xlink="http://www.w3.org/1999/xlink" x="0px" y="0px"
	 viewBox="0 0 1000 1000" style="enable-background:new 0 0 1000 1000;" xml:space="preserve">
<path style="stroke:#000000;stroke-miterlimit:10;" d="M821.417,607.739c16.222-34.848,25.562-71.587,27.899-109.455h0.604v-18.938
	v-51.062v-18.938h-0.604c-2.336-37.868-11.677-74.607-27.899-109.455c-18.026-38.724-43.692-73.374-76.286-102.989
	c-32.113-29.179-69.393-52.043-110.804-67.957c-5.113-1.965-10.265-3.807-15.449-5.538C618.774,60.241,565.473,8.882,499.969,8.882
	c-65.567,0-118.911,51.458-118.911,114.708c0,0.044,0.001,0.087,0.002,0.131c-4.877,1.643-9.728,3.375-14.542,5.225
	c-41.411,15.914-78.691,38.778-110.805,67.957c-32.594,29.615-58.26,64.266-76.286,102.989
	c-16.222,34.848-25.562,71.587-27.899,109.455h-0.604v18.938v51.062v18.938h0.604c2.336,37.868,11.677,74.607,27.899,109.455
	c18.026,38.724,43.692,73.374,76.286,102.989c22.013,20.001,46.454,37.032,72.988,50.895l-31.759,186.818
	c-3.239,19.057,9.582,37.132,28.639,40.371c1.985,0.338,3.96,0.501,5.908,0.501c16.753,0,31.561-12.068,34.463-29.14l7.199-42.349
	h254.542l7.199,42.349c2.902,17.072,17.709,29.14,34.463,29.14c1.947,0,3.924-0.164,5.908-0.501
	c19.057-3.239,31.878-21.314,28.639-40.371l-31.759-186.818c26.534-13.862,50.976-30.894,72.988-50.895
	C777.725,681.113,803.391,646.463,821.417,607.739z M593.85,718.747c-29.216,9.414-60.659,14.555-93.427,14.555
	s-64.211-5.141-93.427-14.555c-23.542-7.585-45.63-17.953-65.79-30.673c-67.329-42.48-113.127-111.15-119.508-189.79h557.451
	c-6.381,78.64-52.179,147.31-119.508,189.79C639.479,700.794,617.392,711.162,593.85,718.747z M221.697,409.347
	c8.188-100.908,81.268-185.413,181.472-219.209c12.177-4.107,24.756-7.457,37.667-10.005c19.203-3.789,39.135-5.804,59.587-5.804
	c20.188,0,39.869,1.962,58.842,5.656c12.916,2.516,25.505,5.828,37.69,9.903c100.576,33.633,173.985,118.307,182.192,219.458
	c0.507,6.253,0.773,12.566,0.773,18.938H220.924C220.924,421.913,221.189,415.6,221.697,409.347z M499.969,78.882
	c20.553,0,38.173,11.653,45.4,28.105c-14.816-1.758-29.81-2.658-44.946-2.658c-15.463,0-30.778,0.943-45.905,2.778
	C461.711,90.592,479.366,78.882,499.969,78.882z M385.052,847.825l10.112-59.486c33.909,9.923,69.188,14.963,105.258,14.963
	s71.35-5.04,105.258-14.963l10.112,59.486H385.052z"/>
</svg>
