<?xml version="1.0" encoding="iso-8859-1"?>
<!-- Generator: Adobe Illustrator 18.0.0, SVG Export Plug-In . SVG Version: 6.00 Build 0)  -->
<!DOCTYPE svg PUBLIC "-//W3C//DTD SVG 1.1//EN" "http://www.w3.org/Graphics/SVG/1.1/DTD/svg11.dtd">
<svg version="1.1" id="Capa_1" xmlns="http://www.w3.org/2000/svg" xmlns:xlink="http://www.w3.org/1999/xlink" x="0px" y="0px"
	 viewBox="0 0 1000 1000" style="enable-background:new 0 0 1000 1000;" xml:space="preserve">
<g>
	<path style="fill:#211915;stroke:#000000;stroke-miterlimit:10;" d="M112.143,968h775.713c52.383,0,95-42.617,95-95V125.128
		c0-52.383-42.617-95-95-95H112.143c-52.383,0-95,42.617-95,95V873C17.143,925.383,59.76,968,112.143,968z M912.857,873
		c0,13.807-11.193,25-25,25H112.143c-13.807,0-25-11.193-25-25V302.128h825.713L912.857,873L912.857,873z M87.143,125.128
		c0-13.807,11.193-25,25-25h775.713c13.807,0,25,11.193,25,25v107H87.143V125.128z"/>
	<path style="fill:#211915;stroke:#000000;stroke-miterlimit:10;" d="M150.379,836.166c16.535,17.312,39.741,27.241,63.667,27.241
		c0.612,0,1.228-0.006,1.845-0.02l179.099,0.015c38.619,0.003,73.092-23.062,87.824-58.761c14.732-35.7,6.557-76.364-20.825-103.598
		l-1.441-1.433L699.23,460.594c20-20.028,25.97-50.128,15.13-76.273c-10.84-26.145-36.359-43.189-64.662-43.189H506.109
		c-18.587,0-36.41,7.392-49.542,20.547L290.532,528.011l-2.432-2.427c-17.966-17.923-41.729-27.793-66.912-27.794
		c-24.284-0.002-47.439,9.133-65.197,25.721c-9.328,8.713-16.675,19.028-21.838,30.656c-5.407,12.18-8.149,25.195-8.148,38.681
		l0.015,180.687C125.553,796.68,134.361,819.395,150.379,836.166z M221.185,567.79c6.133,0,12.387,2.273,17.476,7.351l34.281,34.199
		c4.88,4.868,11.268,7.301,17.656,7.301c6.403,0,12.807-2.446,17.689-7.334l197.821-198.175h143.588L379.178,682.028
		c-9.795,9.78-9.779,25.657,0.035,35.417l33.412,33.231c15.816,15.73,4.675,42.728-17.631,42.726l-180.103-0.015
		c-0.284,0.013-0.566,0.02-0.847,0.02c-10.232,0-18.501-8.558-18.026-18.892l-0.015-181.673
		C196.004,577.772,208.331,567.789,221.185,567.79z"/>
</g>
</svg>
