<?xml version="1.0" encoding="iso-8859-1"?>
<!-- Generator: Adobe Illustrator 18.0.0, SVG Export Plug-In . SVG Version: 6.00 Build 0)  -->
<!DOCTYPE svg PUBLIC "-//W3C//DTD SVG 1.1//EN" "http://www.w3.org/Graphics/SVG/1.1/DTD/svg11.dtd">
<svg version="1.1" id="Capa_1" xmlns="http://www.w3.org/2000/svg" xmlns:xlink="http://www.w3.org/1999/xlink" x="0px" y="0px"
	 viewBox="0 0 1000 1000" style="enable-background:new 0 0 1000 1000;" xml:space="preserve">
<g>
	<path style="fill:#211915;stroke:#000000;stroke-miterlimit:10;" d="M917.198,29.579H491.44c-19.33,0-35,15.67-35,35
		s15.67,35,35,35h418.167V904.34H492.758c-19.33,0-35,15.67-35,35s15.67,35,35,35h424.44c34.413,0,62.409-27.997,62.409-62.409
		V91.988C979.607,57.576,951.611,29.579,917.198,29.579z"/>
	<path style="fill:#211915;stroke:#000000;stroke-miterlimit:10;" d="M97.723,399.189v199.75c0,50.128,40.782,90.911,90.911,90.911
		h228.011v32.266c0,12.858,2.616,25.28,7.775,36.922c4.922,11.108,11.924,20.967,20.81,29.304
		c16.995,15.945,39.176,24.727,62.455,24.727c22.609,0,44.321-8.448,61.137-23.787l244.527-223.051
		c18.839-17.184,29.644-41.665,29.644-67.164c0-25.5-10.804-49.98-29.643-67.166L568.822,208.847
		c-16.815-15.339-38.527-23.787-61.136-23.787c-23.28,0-45.46,8.781-62.455,24.726c-8.887,8.337-15.889,18.197-20.811,29.306
		c-5.159,11.642-7.774,24.063-7.774,36.92v32.266H188.634C138.506,308.278,97.723,349.061,97.723,399.189z M465.734,378.278
		c11.549,0,20.911-9.362,20.911-20.911v-81.355c0-12.533,10.265-20.952,21.041-20.952c4.847,0,9.797,1.704,13.962,5.503
		l244.527,223.051c9.092,8.293,9.092,22.605,0,30.898L521.648,737.564c-4.166,3.8-9.115,5.503-13.962,5.503
		c-10.774,0-21.041-8.42-21.041-20.952V640.76c0-11.549-9.362-20.911-20.911-20.911h-277.1c-11.549,0-20.911-9.362-20.911-20.911
		v-199.75c0-11.549,9.362-20.911,20.911-20.911h277.1V378.278z"/>
</g>
</svg>
