<?xml version="1.0" encoding="iso-8859-1"?>
<!-- Generator: Adobe Illustrator 18.0.0, SVG Export Plug-In . SVG Version: 6.00 Build 0)  -->
<!DOCTYPE svg PUBLIC "-//W3C//DTD SVG 1.1//EN" "http://www.w3.org/Graphics/SVG/1.1/DTD/svg11.dtd">
<svg version="1.1" id="Capa_1" xmlns="http://www.w3.org/2000/svg" xmlns:xlink="http://www.w3.org/1999/xlink" x="0px" y="0px"
	 viewBox="0 0 1000 1000" style="enable-background:new 0 0 1000 1000;" xml:space="preserve">
<g>
	<path style="fill:#211915;stroke:#000000;stroke-miterlimit:10;" d="M111.942,968.936h556.316c52.383,0,95-42.617,95-95V580.577
		L953.31,396.408c9.375-9.084,16.658-19.791,21.646-31.821c4.796-11.567,7.233-23.79,7.243-36.328
		c0.01-12.539-2.408-24.765-7.186-36.339c-4.97-12.039-12.236-22.756-21.597-31.855L730.377,43.263
		C712.514,25.9,689.062,16.336,664.34,16.334l0,0c-24.302-0.002-47.467,9.146-65.23,25.758
		c-9.314,8.711-16.651,19.019-21.807,30.637c-5.402,12.174-8.142,25.18-8.142,38.655v26.944
		c-62.789,6.178-119.341,20.983-168.574,44.176c-34.309,16.162-65.236,36.438-92.467,60.56H111.942c-52.383,0-95,42.617-95,95
		v535.872C16.942,926.319,59.558,968.936,111.942,968.936z M639.161,180.444v-69.06c0-15.044,12.311-25.051,25.173-25.05
		c6.034,0,12.191,2.204,17.252,7.124l223.037,216.801c10.11,9.828,10.098,26.068-0.028,35.88L763.257,483.102l-70,67.833
		l-11.698,11.336c-5.059,4.902-11.202,7.097-17.226,7.097c-12.862,0-25.172-10.01-25.172-25.05v-67.475
		c0-13.857-11.256-25.006-25.005-25.005c-0.289,0-0.58,0.005-0.871,0.015c-161.642,5.523-274.377,61.74-330.019,97.193
		c-4.3,2.74-8.91,3.975-13.396,3.975c-13.83,0-26.452-11.75-24.937-27.394c5.312-54.854,24.75-142.688,91.335-212.563
		c25.723-26.994,58.485-51.304,100.185-70c47.175-21.151,105.785-35.119,178.604-37.641
		C628.505,204.958,639.161,193.9,639.161,180.444z M86.942,338.064c0-13.807,11.193-25,25-25h134.744
		c-49.091,72.334-66.067,150.47-71.427,205.816c-2.576,26.602,6.204,53.156,24.087,72.854
		c18.051,19.883,43.756,31.287,70.524,31.287c18.032,0,35.671-5.166,51.01-14.939c42.023-26.776,126.754-70.299,248.281-83.049
		v19.286c0,13.475,2.74,26.479,8.142,38.654c5.155,11.616,12.491,21.922,21.803,30.633c17.762,16.614,40.926,25.763,65.227,25.763
		c9.942,0,19.671-1.573,28.924-4.553v239.121c0,13.807-11.193,25-25,25H111.942c-13.807,0-25-11.193-25-25V338.064z"/>
</g>
</svg>
