<?xml version="1.0" encoding="iso-8859-1"?>
<!-- Generator: Adobe Illustrator 18.0.0, SVG Export Plug-In . SVG Version: 6.00 Build 0)  -->
<!DOCTYPE svg PUBLIC "-//W3C//DTD SVG 1.1//EN" "http://www.w3.org/Graphics/SVG/1.1/DTD/svg11.dtd">
<svg version="1.1" id="Capa_1" xmlns="http://www.w3.org/2000/svg" xmlns:xlink="http://www.w3.org/1999/xlink" x="0px" y="0px"
	 viewBox="0 0 1000 1000" style="enable-background:new 0 0 1000 1000;" xml:space="preserve">
<g>
	<path style="fill:#211915;stroke:#000000;stroke-miterlimit:10;" d="M891.959,243.064H695.781
		c-27.231-24.122-58.159-44.398-92.467-60.56c-49.232-23.193-105.784-37.998-168.574-44.176v-26.944
		c0-13.475-2.739-26.481-8.142-38.655c-5.156-11.619-12.493-21.926-21.807-30.637c-17.761-16.61-40.924-25.758-65.224-25.758
		c-24.724,0-48.178,9.563-66.043,26.929L50.487,260.064c-9.361,9.099-16.627,19.817-21.597,31.855
		c-4.778,11.575-7.196,23.801-7.187,36.339c0.01,12.538,2.446,24.761,7.243,36.328c4.988,12.03,12.271,22.737,21.646,31.822
		l190.052,184.168v293.36c0,52.383,42.617,95,95,95H891.96c52.383,0,95-42.617,95-95V338.064
		C986.959,285.681,944.342,243.064,891.959,243.064z M99.278,310.258L322.314,93.457c5.061-4.919,11.218-7.124,17.252-7.124
		c12.862,0,25.173,10.006,25.173,25.05v69.06c0,13.457,10.656,24.514,24.104,24.979c72.818,2.522,131.428,16.489,178.604,37.641
		c41.7,18.696,74.462,43.006,100.185,70c66.585,69.875,86.023,157.709,91.335,212.563c1.515,15.643-11.107,27.394-24.938,27.394
		c-4.486,0-9.096-1.235-13.396-3.975c-55.642-35.453-168.377-91.67-330.019-97.193c-0.291-0.01-0.582-0.015-0.871-0.015
		c-13.749,0-25.004,11.148-25.004,25.005v67.475c0,15.04-12.311,25.05-25.172,25.05c-6.024,0-12.167-2.195-17.226-7.097
		l-11.698-11.336l-70-67.833L99.305,346.138C89.18,336.326,89.167,320.086,99.278,310.258z M916.959,873.936
		c0,13.807-11.193,25-25,25H335.644c-13.807,0-25-11.193-25-25V634.815c9.253,2.98,18.982,4.553,28.924,4.553
		c24.301,0,47.465-9.149,65.227-25.763c9.312-8.71,16.647-19.017,21.803-30.633c5.402-12.174,8.142-25.179,8.142-38.654v-19.285
		c121.539,12.75,206.257,56.272,248.28,83.048c15.34,9.773,32.979,14.939,51.011,14.939c26.769,0,52.474-11.403,70.525-31.287
		c17.883-19.698,26.663-46.252,24.086-72.854c-5.359-55.347-22.336-133.483-71.427-205.817H891.96c13.807,0,25,11.193,25,25v535.874
		H916.959z"/>
</g>
</svg>
