<?xml version="1.0" encoding="iso-8859-1"?>
<!-- Generator: Adobe Illustrator 18.0.0, SVG Export Plug-In . SVG Version: 6.00 Build 0)  -->
<!DOCTYPE svg PUBLIC "-//W3C//DTD SVG 1.1//EN" "http://www.w3.org/Graphics/SVG/1.1/DTD/svg11.dtd">
<svg version="1.1" id="Capa_1" xmlns="http://www.w3.org/2000/svg" xmlns:xlink="http://www.w3.org/1999/xlink" x="0px" y="0px"
	 viewBox="0 0 1000 1000" style="enable-background:new 0 0 1000 1000;" xml:space="preserve">
<g>
	<path style="fill:#211915;stroke:#000000;stroke-miterlimit:10;" d="M482.35,974.34h424.44c34.413,0,62.409-27.997,62.409-62.409
		V91.988c0-34.413-27.997-62.409-62.409-62.409H481.031c-19.33,0-35,15.67-35,35s15.67,35,35,35h418.167V904.34H482.35
		c-19.33,0-35,15.67-35,35S463.02,974.34,482.35,974.34z"/>
	<path style="fill:#211915;stroke:#000000;stroke-miterlimit:10;" d="M504.89,239.094c-4.922-11.108-11.923-20.968-20.809-29.305
		c-16.996-15.946-39.177-24.729-62.457-24.729c-0.001,0-0.004,0-0.005,0c-22.608,0.001-44.318,8.449-61.133,23.787L115.959,431.898
		c-18.84,17.187-29.645,41.667-29.644,67.167c0,25.499,10.805,49.979,29.644,67.164l244.528,223.052
		c16.815,15.339,38.527,23.787,61.136,23.787c23.279,0,45.46-8.781,62.455-24.727c8.886-8.336,15.888-18.196,20.81-29.304
		c5.159-11.642,7.775-24.064,7.775-36.922V689.85h228.011c50.128,0,90.911-40.782,90.911-90.911v-199.75
		c0-50.128-40.782-90.911-90.911-90.911h-228.01v-32.266C512.664,263.156,510.048,250.735,504.89,239.094z M740.674,378.278
		c11.549,0,20.911,9.362,20.911,20.911v199.75c0,11.548-9.362,20.911-20.911,20.911h-277.1c-11.549,0-20.911,9.362-20.911,20.911
		v81.355c0,12.532-10.266,20.952-21.041,20.952c-4.847,0-9.796-1.703-13.962-5.503L163.133,514.513
		c-9.092-8.293-9.092-22.604,0-30.898L407.66,260.564c4.165-3.799,9.115-5.502,13.962-5.503c10.775,0,21.041,8.419,21.041,20.952
		v81.355c0,11.548,9.362,20.911,20.911,20.911h277.1V378.278z"/>
</g>
</svg>
