<?xml version="1.0" encoding="iso-8859-1"?>
<!-- Generator: Adobe Illustrator 18.0.0, SVG Export Plug-In . SVG Version: 6.00 Build 0)  -->
<!DOCTYPE svg PUBLIC "-//W3C//DTD SVG 1.1//EN" "http://www.w3.org/Graphics/SVG/1.1/DTD/svg11.dtd">
<svg version="1.1" id="Capa_1" xmlns="http://www.w3.org/2000/svg" xmlns:xlink="http://www.w3.org/1999/xlink" x="0px" y="0px"
	 viewBox="0 0 1000 1000" style="enable-background:new 0 0 1000 1000;" xml:space="preserve">
<g>
	<path style="fill:#211915;stroke:#000000;stroke-miterlimit:10;" d="M17.068,873c0,52.383,42.617,95,95,95h775.713
		c52.383,0,95-42.617,95-95V125.128c0-52.383-42.617-95-95-95H112.068c-52.383,0-95,42.617-95,95V873z M912.782,873
		c0,13.807-11.193,25-25,25H112.068c-13.807,0-25-11.193-25-25V302.128h825.713L912.782,873L912.782,873z M87.068,125.128
		c0-13.807,11.193-25,25-25h775.713c13.807,0,25,11.193,25,25v107H87.068V125.128z"/>
	<path style="fill:#211915;stroke:#000000;stroke-miterlimit:10;" d="M377.479,863.407c0.015,0,0.042,0,0.057,0l87.367-0.058
		c15.842-0.011,31.292-3.095,45.921-9.167c14.631-6.072,27.724-14.835,38.917-26.044l151.287-151.516l1.387,1.395
		c17.995,18.094,41.852,28.059,67.176,28.059c24.279,0,47.428-9.13,65.184-25.709c9.332-8.713,16.682-19.028,21.846-30.658
		c5.41-12.183,8.152-25.2,8.152-38.689l-0.014-179.121c0.466-23.146-8.342-45.859-24.36-62.628
		c-16.535-17.312-39.741-27.24-63.667-27.24c-0.613,0-1.229,0.006-1.847,0.02l-180.667-0.015
		c-38.537-0.003-72.982,22.994-87.753,58.589c-14.77,35.595-6.728,76.224,20.49,103.506l2.433,2.439L317.416,718.264
		c-24.421,24.388-31.674,60.753-18.476,92.645C312.136,842.8,342.965,863.407,377.479,863.407z M366.881,767.793l243.798-243.478
		c9.766-9.753,9.78-25.575,0.033-35.346l-34.198-34.281c-15.721-15.758-4.558-42.658,17.701-42.656l181.673,0.015
		c0.283-0.013,0.566-0.02,0.847-0.02c10.233,0,18.501,8.557,18.026,18.892l0.015,180.102c0.001,15.076-12.331,25.052-25.182,25.052
		c-6.164,0-12.445-2.294-17.544-7.421l-33.231-33.413c-4.886-4.913-11.306-7.371-17.726-7.371c-6.404,0-12.807,2.444-17.691,7.336
		L500.206,778.677c-9.371,9.385-22.087,14.663-35.349,14.672l-87.367,0.058c-0.003,0-0.007,0-0.011,0
		C364.113,793.407,357.42,777.241,366.881,767.793z"/>
</g>
</svg>
