<?xml version="1.0" encoding="iso-8859-1"?>
<!-- Generator: Adobe Illustrator 18.0.0, SVG Export Plug-In . SVG Version: 6.00 Build 0)  -->
<!DOCTYPE svg PUBLIC "-//W3C//DTD SVG 1.1//EN" "http://www.w3.org/Graphics/SVG/1.1/DTD/svg11.dtd">
<svg version="1.1" id="Capa_1" xmlns="http://www.w3.org/2000/svg" xmlns:xlink="http://www.w3.org/1999/xlink" x="0px" y="0px"
	 viewBox="0 0 1000 1000" style="enable-background:new 0 0 1000 1000;" xml:space="preserve">
<path style="fill:#211915;stroke:#000000;stroke-miterlimit:10;" d="M50.377,249.667c-19.943,47.152-30.056,97.199-30.056,148.75
	s10.112,101.599,30.056,148.75c19.248,45.508,46.789,86.363,81.857,121.432c35.069,35.068,75.924,62.609,121.432,81.857
	c47.152,19.943,97.199,30.056,148.75,30.056s101.599-10.112,148.75-30.056c7.901-3.342,15.652-6.95,23.267-10.788l214.089,214.089
	c18.966,18.965,44.18,29.409,71,29.409c26.819,0,52.034-10.444,70.999-29.408l17.256-17.256
	c39.148-39.149,39.149-102.849,0.002-141.998L736.763,583.488c6.502-11.747,12.421-23.852,17.694-36.32
	c19.943-47.152,30.056-97.199,30.056-148.75s-10.112-101.599-30.056-148.75c-19.248-45.508-46.789-86.363-81.857-121.432
	c-35.069-35.068-75.924-62.609-121.432-81.857c-47.152-19.943-97.199-30.056-148.75-30.056s-101.599,10.112-148.75,30.056
	c-45.508,19.248-86.363,46.789-121.432,81.857C97.167,163.304,69.625,204.159,50.377,249.667z M646.803,592.523
	c-17.753,22.321-38.499,42.149-61.631,58.889c-19.583,14.171-40.872,26.122-63.507,35.488
	c-36.742,15.205-77.01,23.613-119.248,23.613c-172.366,0-312.096-139.73-312.096-312.096S230.052,86.322,402.417,86.322
	s312.096,139.73,312.096,312.096c0,47.606-10.676,92.712-29.738,133.083C674.458,553.351,661.685,573.811,646.803,592.523z
	 M898.282,844.001c11.875,11.875,11.875,31.129,0,43.004l-17.255,17.255c-5.938,5.938-13.72,8.906-21.502,8.906
	s-15.564-2.969-21.502-8.906L635.201,701.44c13.09-10.079,25.581-21.021,37.399-32.84c8.436-8.435,16.424-17.214,23.977-26.303
	L898.282,844.001z"/>
<path style="fill:#211915;stroke:#000000;stroke-miterlimit:10;" d="M524.638,268.077L338.203,454.512l-71.699-71.7
	c-13.668-13.668-35.83-13.668-49.498,0c-13.668,13.669-13.668,35.829,0,49.498l96.448,96.448
	c6.835,6.835,15.791,10.251,24.749,10.251c8.956,0,17.915-3.418,24.749-10.251l26.177-26.177l107.432-107.432l77.575-77.574
	c13.668-13.669,13.668-35.829,0-49.498C560.466,254.408,538.306,254.409,524.638,268.077z"/>
</svg>
