<?xml version="1.0" encoding="iso-8859-1"?>
<!-- Generator: Adobe Illustrator 18.0.0, SVG Export Plug-In . SVG Version: 6.00 Build 0)  -->
<!DOCTYPE svg PUBLIC "-//W3C//DTD SVG 1.1//EN" "http://www.w3.org/Graphics/SVG/1.1/DTD/svg11.dtd">
<svg version="1.1" id="Capa_1" xmlns="http://www.w3.org/2000/svg" xmlns:xlink="http://www.w3.org/1999/xlink" x="0px" y="0px"
	 viewBox="0 0 1000 1000" style="enable-background:new 0 0 1000 1000;" xml:space="preserve">
<path style="stroke:#000000;stroke-miterlimit:10;" d="M91.209,653.382l10.207,89.357c5.152,45.094,43.263,79.098,88.648,79.098
	h69.216c32.702,0,61.624-17.657,77.164-44.393c3.468,0.411,6.99,0.641,10.562,0.665l14.84,129.918
	c5.459,47.788,45.847,83.826,93.946,83.826h88.416c48.1,0,88.487-36.038,93.946-83.826l14.84-129.918
	c3.564-0.024,7.082-0.253,10.544-0.663c15.54,26.735,44.46,44.391,77.162,44.391h69.216c45.386,0,83.496-34.004,88.648-79.096
	l10.207-89.359c42.474-6.821,75.028-43.729,75.028-88.096V404.879c0-49.198-40.026-89.224-89.225-89.224H656.04
	c-42.045,0-77.385,29.234-86.774,68.442H430.715c-9.391-39.208-44.729-68.442-86.774-68.442H105.405
	c-49.198,0-89.225,40.026-89.225,89.224v160.406C16.181,609.653,48.735,646.561,91.209,653.382z M652.351,454.097
	c13.562,0,24.557,10.994,24.557,24.557V584.51v99.044c0,13.562-10.994,24.557-24.557,24.557h-4.255h-35.81
	c-13.562,0-24.557,10.995-24.557,24.557l-19.123,167.414c-1.417,12.404-11.914,21.77-24.398,21.77h-88.416
	c-12.484,0-22.981-9.366-24.398-21.77l-19.123-167.414c0-13.562-10.994-24.557-24.557-24.557h-35.829h-4.235
	c-13.562,0-24.557-10.994-24.557-24.557V584.51V478.654c0-13.562,10.994-24.557,24.557-24.557h15.515h70h133.652h70H652.351z
	 M894.575,385.655c10.618,0,19.225,8.607,19.225,19.224v160.406c0,10.617-8.606,19.224-19.225,19.224h-31.363
	c-10.618,0-19.225,8.607-19.225,19.224l-14.971,131.06c-1.109,9.71-9.327,17.042-19.101,17.042H740.7
	c-6.369,0-12.062-3.125-15.573-7.981c13.595-16.379,21.78-37.402,21.78-60.302V478.654c0-46.292-33.439-84.917-77.43-92.999H894.575
	z M86.181,404.879c0-10.617,8.606-19.224,19.225-19.224h225.117c-43.99,8.082-77.43,46.707-77.43,92.999v204.901
	c0,22.895,8.182,43.912,21.77,60.289c-3.51,4.863-9.208,7.994-15.582,7.994h-69.216c-9.773,0-17.991-7.333-19.101-17.042
	l-14.971-131.06c0-10.617-8.606-19.224-19.225-19.224h-31.363c-10.618,0-19.225-8.607-19.225-19.224L86.181,404.879L86.181,404.879z
	"/>
<path style="stroke:#000000;stroke-miterlimit:10;" d="M829.543,18.444C812.326,11.163,794.078,7.47,775.307,7.47
	s-37.018,3.692-54.234,10.974c-16.594,7.018-31.48,17.051-44.25,29.82c-12.768,12.768-22.801,27.656-29.82,44.25
	c-3.383,7.999-5.98,16.223-7.804,24.616c-7.232-13.282-16.315-25.427-27.126-36.237c-14.533-14.533-31.476-25.952-50.357-33.938
	C542.13,38.671,521.366,34.47,500,34.47s-42.13,4.2-61.715,12.484c-18.882,7.986-35.824,19.405-50.357,33.938
	c-10.817,10.817-19.905,22.97-27.141,36.263c-1.823-8.402-4.423-16.635-7.81-24.642c-7.02-16.594-17.052-31.481-29.82-44.25
	s-27.656-22.801-44.25-29.82c-17.216-7.28-35.463-10.973-54.234-10.973s-37.019,3.692-54.235,10.974
	c-16.593,7.018-31.481,17.051-44.249,29.82c-12.769,12.768-22.802,27.656-29.82,44.25c-7.281,17.216-10.974,35.463-10.974,54.235
	c0,18.771,3.692,37.019,10.974,54.235c7.019,16.594,17.052,31.481,29.82,44.25s27.656,22.801,44.249,29.82
	c17.217,7.281,35.464,10.974,54.235,10.974s37.019-3.692,54.234-10.974c16.594-7.019,31.481-17.051,44.25-29.819
	c7.91-7.91,14.768-16.636,20.512-26.075c2.027,12.167,5.467,24.048,10.32,35.521c7.986,18.882,19.404,35.825,33.938,50.358
	c14.534,14.533,31.477,25.952,50.358,33.938C457.87,347.26,478.634,351.46,500,351.46c21.366,0,42.13-4.2,61.715-12.484
	c18.882-7.986,35.824-19.405,50.358-33.938c14.533-14.533,25.951-31.476,33.938-50.358c4.85-11.466,8.289-23.338,10.315-35.496
	c5.741,9.429,12.594,18.146,20.496,26.049c12.77,12.768,27.656,22.801,44.25,29.819c17.217,7.282,35.463,10.974,54.234,10.974
	s37.02-3.692,54.236-10.974c16.592-7.019,31.48-17.052,44.248-29.82c12.77-12.768,22.803-27.656,29.82-44.25
	c7.281-17.216,10.975-35.463,10.975-54.235s-3.693-37.019-10.975-54.235c-7.018-16.594-17.051-31.481-29.82-44.25
	C861.023,35.496,846.135,25.463,829.543,18.444z M224.673,216.027c-38.262,0-69.278-31.017-69.278-69.278
	s31.017-69.278,69.278-69.278s69.278,31.017,69.278,69.278S262.934,216.027,224.673,216.027z M500,281.46
	c-48.874,0-88.495-39.621-88.495-88.495S451.126,104.47,500,104.47s88.495,39.621,88.495,88.495
	C588.495,241.84,548.874,281.46,500,281.46z M775.307,216.027c-38.26,0-69.277-31.017-69.277-69.278s31.018-69.278,69.277-69.278
	c38.262,0,69.279,31.017,69.279,69.278S813.568,216.027,775.307,216.027z"/>
</svg>
