<?xml version="1.0" encoding="iso-8859-1"?>
<!-- Generator: Adobe Illustrator 18.0.0, SVG Export Plug-In . SVG Version: 6.00 Build 0)  -->
<!DOCTYPE svg PUBLIC "-//W3C//DTD SVG 1.1//EN" "http://www.w3.org/Graphics/SVG/1.1/DTD/svg11.dtd">
<svg version="1.1" id="Capa_1" xmlns="http://www.w3.org/2000/svg" xmlns:xlink="http://www.w3.org/1999/xlink" x="0px" y="0px"
	 viewBox="0 0 1000 1000" style="enable-background:new 0 0 1000 1000;" xml:space="preserve">
<path style="stroke:#000000;stroke-miterlimit:10;" d="M132.429,868.299c35.507,35.506,76.872,63.391,122.948,82.88
	c47.739,20.192,98.411,30.43,150.606,30.43s102.867-10.238,150.607-30.43c46.075-19.489,87.441-47.374,122.947-82.88
	c35.507-35.506,63.392-76.872,82.88-122.948c20.192-47.74,30.431-98.411,30.431-150.607c0-42.331-6.812-83.976-20.247-123.778
	c-6.425-19.031-14.303-37.475-23.573-55.211l56.487-56.487c15.171,9.793,32.798,15.041,51.19,15.041
	c48.789,0,89.147-36.441,94.657-84.128l31.205-160.495c5.442-27.989-1.828-56.652-19.95-78.636
	c-18.155-22.026-44.886-34.659-73.337-34.659c-5.839,0-11.724,0.544-17.49,1.617l-162.027,30.14
	c-17.01,1.889-33.028,8.231-46.657,18.524c-14.108,10.655-24.962,25.051-31.389,41.63c-6.426,16.58-8.109,34.531-4.868,51.911
	c2.261,12.12,6.829,23.559,13.443,33.821l-56.871,56.872c-17.567-9.082-35.821-16.804-54.639-23.102
	c-39.507-13.221-80.822-19.925-122.8-19.925c-52.195,0-102.867,10.238-150.606,30.43c-46.076,19.489-87.441,47.373-122.948,82.879
	s-63.392,76.872-82.88,122.948c-20.192,47.74-30.431,98.411-30.431,150.607c0,52.196,10.238,102.867,30.431,150.607
	C69.037,791.427,96.922,832.792,132.429,868.299z M594.901,338.421l125.091-125.092c9.813-9.812,9.813-25.722,0-35.535
	l-17.345-17.345c-15.438-15.439-5.196-41.867,16.615-42.869l165.332-30.754c1.584-0.295,3.151-0.436,4.687-0.436
	c15.356,0,27.65,14.115,24.574,29.935l-31.881,163.967c-0.671,14.6-12.734,24.016-25.268,24.016c-6.191,0-12.497-2.297-17.602-7.402
	l-17.344-17.344c-4.907-4.907-11.338-7.36-17.769-7.36s-12.861,2.453-17.768,7.36L661.135,404.655
	c-0.31,0.309-0.626,0.61-0.947,0.899c39.359,52.799,62.661,118.272,62.661,189.19c0,174.999-141.865,316.865-316.865,316.865
	c-174.999,0-316.865-141.866-316.865-316.865c0-175,141.866-316.865,316.865-316.865c70.323,0,135.284,22.923,187.851,61.684
	C594.178,339.175,594.53,338.792,594.901,338.421z"/>
<path style="stroke:#000000;stroke-miterlimit:10;" d="M326.532,406.748c-24.308,10.281-46.123,24.985-64.841,43.703
	c-18.719,18.718-33.423,40.534-43.704,64.842c-10.659,25.203-16.064,51.934-16.064,79.451c0,27.517,5.405,54.248,16.064,79.451
	c10.281,24.308,24.985,46.124,43.704,64.842c18.718,18.718,40.533,33.422,64.841,43.703c25.203,10.66,51.935,16.065,79.451,16.065
	c27.518,0,54.249-5.405,79.451-16.065c24.308-10.281,46.124-24.985,64.842-43.703s33.422-40.534,43.703-64.842
	c10.659-25.202,16.064-51.934,16.064-79.451s-5.405-54.248-16.064-79.451c-10.281-24.308-24.985-46.124-43.703-64.841
	c-18.718-18.718-40.534-33.422-64.842-43.703c-25.202-10.66-51.934-16.065-79.451-16.065
	C378.467,390.683,351.735,396.088,326.532,406.748z M405.983,728.804c-74.039,0-134.061-60.021-134.061-134.06
	c0-74.04,60.021-134.061,134.061-134.061s134.061,60.021,134.061,134.061C540.044,668.783,480.023,728.804,405.983,728.804z"/>
</svg>
