<?xml version="1.0" encoding="iso-8859-1"?>
<!-- Generator: Adobe Illustrator 18.0.0, SVG Export Plug-In . SVG Version: 6.00 Build 0)  -->
<!DOCTYPE svg PUBLIC "-//W3C//DTD SVG 1.1//EN" "http://www.w3.org/Graphics/SVG/1.1/DTD/svg11.dtd">
<svg version="1.1" id="Capa_1" xmlns="http://www.w3.org/2000/svg" xmlns:xlink="http://www.w3.org/1999/xlink" x="0px" y="0px"
	 viewBox="0 0 1000 1000" style="enable-background:new 0 0 1000 1000;" xml:space="preserve">
<path style="stroke:#000000;stroke-miterlimit:10;" d="M249.9,467.656v208.598c0,52.383,42.617,95,95,95h0.472l15.235,133.379
	c5.485,48.013,46.062,84.219,94.386,84.219h90.012c48.324,0,88.901-36.206,94.386-84.218l15.235-133.38h0.472
	c52.383,0,95-42.617,95-95V467.656c0-52.383-42.617-95-95-95H344.9C292.517,372.656,249.9,415.273,249.9,467.656z M319.9,467.656
	c0-13.807,11.193-25,25-25h310.2c13.807,0,25,11.193,25,25v208.598c0,13.807-11.193,25-25,25h-40.787c-13.807,0-25,11.193-25,25
	l-19.468,170.435c-1.442,12.627-12.129,22.163-24.838,22.163h-90.012c-12.709,0-23.396-9.536-24.838-22.163l-19.468-170.435
	c0-13.807-11.193-25-25-25H344.9c-13.807,0-25-11.193-25-25V467.656z"/>
<path style="stroke:#000000;stroke-miterlimit:10;" d="M386.798,282.889c14.68,14.68,31.794,26.214,50.866,34.28
	c19.782,8.367,40.755,12.61,62.336,12.61s42.554-4.242,62.336-12.61c19.072-8.067,36.186-19.6,50.866-34.28
	c14.68-14.68,26.213-31.793,34.28-50.865c8.367-19.782,12.609-40.755,12.609-62.336s-4.242-42.554-12.609-62.336
	c-8.067-19.072-19.601-36.186-34.28-50.865c-14.68-14.68-31.794-26.214-50.866-34.28C542.554,13.838,521.582,9.595,500,9.595
	s-42.554,4.242-62.336,12.61c-19.072,8.067-36.186,19.6-50.866,34.28s-26.213,31.793-34.28,50.865
	c-8.367,19.782-12.609,40.755-12.609,62.336s4.242,42.554,12.609,62.336C360.584,251.095,372.118,268.209,386.798,282.889z
	 M500,79.595c49.756,0,90.092,40.335,90.092,90.092S549.756,259.779,500,259.779s-90.092-40.335-90.092-90.092
	S450.244,79.595,500,79.595z"/>
</svg>
