<?xml version="1.0" encoding="iso-8859-1"?>
<!-- Generator: Adobe Illustrator 18.0.0, SVG Export Plug-In . SVG Version: 6.00 Build 0)  -->
<!DOCTYPE svg PUBLIC "-//W3C//DTD SVG 1.1//EN" "http://www.w3.org/Graphics/SVG/1.1/DTD/svg11.dtd">
<svg version="1.1" id="Capa_1" xmlns="http://www.w3.org/2000/svg" xmlns:xlink="http://www.w3.org/1999/xlink" x="0px" y="0px"
	 viewBox="0 0 1000 1000" style="enable-background:new 0 0 1000 1000;" xml:space="preserve">
<path style="stroke:#000000;stroke-miterlimit:10;" d="M956.696,14.991L662.32,134.412c-6.027,2.445-12.769,2.445-18.796,0
	L359.148,19.047c-6.027-2.445-12.769-2.445-18.796,0L27.181,146.094c-9.432,3.826-15.602,12.988-15.602,23.166v787.856
	c0,17.739,17.96,29.835,34.398,23.166l294.376-119.421c6.027-2.445,12.769-2.445,18.796,0l284.375,115.364
	c6.027,2.445,12.769,2.445,18.796,0l313.172-127.046c9.432-3.826,15.602-12.988,15.602-23.166V38.157
	C991.094,20.418,973.133,8.322,956.696,14.991z M314.75,795.707L81.579,890.298V199.566l233.172-94.592v690.733H314.75z
	 M617.922,890.298L384.75,795.707V104.974l233.171,94.592L617.922,890.298L617.922,890.298z M921.094,795.707l-233.172,94.592
	V199.566l233.172-94.592V795.707z"/>
</svg>
