<?xml version="1.0" encoding="iso-8859-1"?>
<!-- Generator: Adobe Illustrator 18.0.0, SVG Export Plug-In . SVG Version: 6.00 Build 0)  -->
<!DOCTYPE svg PUBLIC "-//W3C//DTD SVG 1.1//EN" "http://www.w3.org/Graphics/SVG/1.1/DTD/svg11.dtd">
<svg version="1.1" id="Capa_1" xmlns="http://www.w3.org/2000/svg" xmlns:xlink="http://www.w3.org/1999/xlink" x="0px" y="0px"
	 viewBox="0 0 1000 1000" style="enable-background:new 0 0 1000 1000;" xml:space="preserve">
<path style="stroke:#000000;stroke-miterlimit:10;" d="M910.941,102.627l-13.569-13.568c-25.55-25.55-55.378-45.348-88.655-58.842
	c-32.106-13.02-66.011-19.621-100.773-19.621c-34.761,0-68.667,6.602-100.773,19.621c-33.277,13.494-63.105,33.292-88.656,58.843
	L89.059,518.516c-25.551,25.551-45.348,55.379-58.843,88.656c-13.019,32.106-19.621,66.011-19.621,100.772
	s6.602,68.667,19.621,100.772c13.494,33.277,33.292,63.105,58.843,88.656l13.569,13.568c25.551,25.55,55.379,45.348,88.656,58.842
	c32.106,13.02,66.011,19.621,100.773,19.621c34.761,0,68.666-6.602,100.773-19.621c33.277-13.494,63.105-33.292,88.656-58.843
	l429.457-429.456c25.551-25.551,45.348-55.379,58.843-88.656c13.02-32.106,19.621-66.011,19.621-100.772
	s-6.602-68.667-19.621-100.773C956.29,158.006,936.492,128.178,910.941,102.627z M431.987,861.443
	c-38.641,38.641-89.286,57.961-139.931,57.961s-101.29-19.32-139.931-57.961l-13.568-13.568
	c-77.282-77.282-77.282-202.581,0-279.862l189.979-189.979l293.431,293.431L431.987,861.443z M861.444,431.987l-189.98,189.979
	l-293.43-293.43l189.979-189.979c38.641-38.641,89.286-57.961,139.931-57.961c50.645,0,101.29,19.32,139.931,57.961l13.568,13.568
	C938.725,229.406,938.725,354.705,861.444,431.987z"/>
</svg>
