<?xml version="1.0" encoding="iso-8859-1"?>
<!-- Generator: Adobe Illustrator 18.0.0, SVG Export Plug-In . SVG Version: 6.00 Build 0)  -->
<!DOCTYPE svg PUBLIC "-//W3C//DTD SVG 1.1//EN" "http://www.w3.org/Graphics/SVG/1.1/DTD/svg11.dtd">
<svg version="1.1" id="Capa_1" xmlns="http://www.w3.org/2000/svg" xmlns:xlink="http://www.w3.org/1999/xlink" x="0px" y="0px"
	 viewBox="0 0 1000 1000" style="enable-background:new 0 0 1000 1000;" xml:space="preserve">
<g>
	<path style="fill:#211915;stroke:#000000;stroke-miterlimit:10;" d="M894.106,5.562H105.893c-52.383,0-95,42.617-95,95v105.801
		c0,52.383,42.617,95,95,95h788.213c52.383,0,95-42.617,95-95V100.562C989.106,48.179,946.49,5.562,894.106,5.562z M919.106,206.363
		c0,13.807-11.193,25-25,25H105.893c-13.807,0-25-11.193-25-25V100.562c0-13.807,11.193-25,25-25h788.213c13.807,0,25,11.193,25,25
		V206.363z"/>
	<path style="fill:#211915;stroke:#000000;stroke-miterlimit:10;" d="M894.106,352.1H105.893c-52.383,0-95,42.617-95,95v105.8
		c0,52.383,42.617,95,95,95h788.213c52.383,0,95-42.617,95-95V447.1C989.106,394.717,946.49,352.1,894.106,352.1z M919.106,552.9
		c0,13.807-11.193,25-25,25H105.893c-13.807,0-25-11.193-25-25V447.1c0-13.807,11.193-25,25-25h788.213c13.807,0,25,11.193,25,25
		V552.9z"/>
	<path style="fill:#211915;stroke:#000000;stroke-miterlimit:10;" d="M894.106,698.637H105.893c-52.383,0-95,42.617-95,95v105.801
		c0,52.383,42.617,95,95,95h788.213c52.383,0,95-42.617,95-95V793.637C989.106,741.254,946.49,698.637,894.106,698.637z
		 M919.106,899.438c0,13.807-11.193,25-25,25H105.893c-13.807,0-25-11.193-25-25V793.637c0-13.807,11.193-25,25-25h788.213
		c13.807,0,25,11.193,25,25V899.438z"/>
</g>
</svg>
