<?xml version="1.0" encoding="iso-8859-1"?>
<!-- Generator: Adobe Illustrator 18.0.0, SVG Export Plug-In . SVG Version: 6.00 Build 0)  -->
<!DOCTYPE svg PUBLIC "-//W3C//DTD SVG 1.1//EN" "http://www.w3.org/Graphics/SVG/1.1/DTD/svg11.dtd">
<svg version="1.1" id="Capa_1" xmlns="http://www.w3.org/2000/svg" xmlns:xlink="http://www.w3.org/1999/xlink" x="0px" y="0px"
	 viewBox="0 0 1000 1000" style="enable-background:new 0 0 1000 1000;" xml:space="preserve">
<path style="stroke:#000000;stroke-miterlimit:10;" d="M894.885,22.298H105.116c-52.383,0-95,42.617-95,95v589.859
	c0,51.562,41.292,93.661,92.543,94.969l0.226,88.131c0.034,13.265,2.743,26.095,8.052,38.135
	c5.053,11.459,12.227,21.665,21.321,30.332c17.816,16.979,41.143,26.329,65.682,26.329c17.717,0,35.084-4.992,50.224-14.435
	l270.075-168.46h376.646c52.383,0,95-42.617,95-95v-589.86C989.885,64.915,947.268,22.298,894.885,22.298z M919.885,707.157
	c0,13.807-11.193,25-25,25h-389.53c-4.678,0-9.262,1.312-13.231,3.788l-281.008,175.28c-4.219,2.631-8.754,3.828-13.176,3.828
	c-13.004,0-25.018-10.351-25.055-24.975l-0.341-132.984c-0.036-13.782-11.218-24.936-25-24.936h-42.428c-13.807,0-25-11.193-25-25
	v-589.86c0-13.807,11.193-25,25-25h789.769c13.807,0,25,11.193,25,25V707.157z"/>
<path style="stroke:#000000;stroke-miterlimit:10;" d="M709.567,192.538H290.433c-55.611,0-100.854,45.243-100.854,100.854
	s45.243,100.854,100.854,100.854h419.135c55.611,0,100.854-45.243,100.854-100.854S765.178,192.538,709.567,192.538z
	 M709.567,324.247H290.433c-17.041,0-30.854-13.814-30.854-30.854s13.813-30.854,30.854-30.854h419.135
	c17.041,0,30.854,13.814,30.854,30.854C740.421,310.433,726.608,324.247,709.567,324.247z"/>
<path style="stroke:#000000;stroke-miterlimit:10;" d="M531.141,429.684H290.433c-55.611,0-100.854,45.243-100.854,100.854
	c0,55.611,45.243,100.854,100.854,100.854h240.708c55.611,0,100.854-45.243,100.854-100.854
	C631.994,474.926,586.75,429.684,531.141,429.684z M531.141,561.392H290.433c-17.041,0-30.854-13.813-30.854-30.854
	s13.813-30.854,30.854-30.854h240.708c17.041,0,30.854,13.814,30.854,30.854C561.995,547.579,548.181,561.392,531.141,561.392z"/>
</svg>
