<?xml version="1.0" encoding="iso-8859-1"?>
<!-- Generator: Adobe Illustrator 18.0.0, SVG Export Plug-In . SVG Version: 6.00 Build 0)  -->
<!DOCTYPE svg PUBLIC "-//W3C//DTD SVG 1.1//EN" "http://www.w3.org/Graphics/SVG/1.1/DTD/svg11.dtd">
<svg version="1.1" id="Capa_1" xmlns="http://www.w3.org/2000/svg" xmlns:xlink="http://www.w3.org/1999/xlink" x="0px" y="0px"
	 viewBox="0 0 1000 1000" style="enable-background:new 0 0 1000 1000;" xml:space="preserve">
<path style="stroke:#000000;stroke-miterlimit:10;" d="M754,324.111c-57.398,0-104.095,46.696-104.095,104.095
	S696.602,532.302,754,532.302s104.095-46.697,104.095-104.096S811.398,324.111,754,324.111z M754,462.302
	c-18.83,0-34.095-15.266-34.095-34.096S735.17,394.111,754,394.111s34.095,15.265,34.095,34.095S772.83,462.302,754,462.302z"/>
<path style="stroke:#000000;stroke-miterlimit:10;" d="M500,324.111c-57.398,0-104.095,46.696-104.095,104.095
	S442.602,532.302,500,532.302s104.095-46.697,104.095-104.096S557.398,324.111,500,324.111z M500,462.302
	c-18.83,0-34.095-15.266-34.095-34.096S481.17,394.111,500,394.111c18.83,0,34.095,15.265,34.095,34.095S518.83,462.302,500,462.302
	z"/>
<path style="stroke:#000000;stroke-miterlimit:10;" d="M246,324.111c-57.398,0-104.095,46.696-104.095,104.095
	S188.602,532.302,246,532.302s104.095-46.697,104.095-104.096S303.398,324.111,246,324.111z M246,462.302
	c-18.83,0-34.095-15.266-34.095-34.096S227.17,394.111,246,394.111s34.095,15.265,34.095,34.095S264.83,462.302,246,462.302z"/>
<path style="stroke:#000000;stroke-miterlimit:10;" d="M989.884,117.298c0-52.383-42.617-95-95-95H105.116
	c-52.383,0-95,42.617-95,95v589.859c0,51.562,41.292,93.661,92.543,94.969l0.226,88.131c0.034,13.265,2.743,26.096,8.052,38.136
	c5.053,11.459,12.227,21.665,21.321,30.332c17.816,16.978,41.143,26.329,65.683,26.329c17.717,0,35.083-4.992,50.223-14.435
	l270.075-168.46h376.646c52.383,0,95-42.617,95-95V117.298H989.884z M919.884,707.157c0,13.807-11.193,25-25,25H505.355
	c-4.678,0-9.262,1.312-13.231,3.788l-281.008,175.28c-4.219,2.631-8.754,3.828-13.175,3.828c-13.004,0-25.018-10.351-25.056-24.975
	l-0.341-132.984c-0.035-13.782-11.218-24.936-25-24.936h-42.428c-13.807,0-25-11.193-25-25v-589.86c0-13.807,11.193-25,25-25
	h789.769c13.807,0,25,11.193,25,25v589.859H919.884z"/>
</svg>
