<?xml version="1.0" encoding="iso-8859-1"?>
<!-- Generator: Adobe Illustrator 18.0.0, SVG Export Plug-In . SVG Version: 6.00 Build 0)  -->
<!DOCTYPE svg PUBLIC "-//W3C//DTD SVG 1.1//EN" "http://www.w3.org/Graphics/SVG/1.1/DTD/svg11.dtd">
<svg version="1.1" id="Capa_1" xmlns="http://www.w3.org/2000/svg" xmlns:xlink="http://www.w3.org/1999/xlink" x="0px" y="0px"
	 viewBox="0 0 1000 1000" style="enable-background:new 0 0 1000 1000;" xml:space="preserve">
<path style="stroke:#000000;stroke-miterlimit:10;" d="M32.995,952.694c18.274,22.147,45.166,34.849,73.779,34.849
	c6.106,0,12.256-0.591,18.28-1.756l197.334-38.165c57.14,22.804,117.506,34.356,179.651,34.356c1.683,0,3.367-0.009,5.054-0.026
	c65.235-0.667,128.488-14.143,188.008-40.055c57.401-24.99,108.863-60.419,152.956-105.305
	c44.087-44.88,78.597-96.964,102.573-154.806c24.856-59.964,37.225-123.441,36.763-188.668
	c-0.459-64.836-13.514-127.742-38.803-186.967c-24.424-57.199-59.192-108.587-103.338-152.735
	c-44.147-44.148-95.532-78.918-152.731-103.344c-59.225-25.291-122.129-38.349-186.965-38.81c-1.158-0.008-2.342-0.012-3.492-0.012
	c-64.867,0-127.942,12.692-187.471,37.722c-57.454,24.158-109.16,58.73-153.683,102.755
	c-44.545,44.047-79.697,95.379-104.479,152.572c-25.697,59.301-39.063,122.3-39.728,187.249
	c-0.655,63.919,10.889,125.992,34.329,184.719L12.866,873.605C7.421,901.765,14.757,930.592,32.995,952.694z M81.593,886.897
	l40.698-210.433c0.982-5.076,0.411-10.329-1.642-15.074c-22.396-51.767-34.565-108.991-33.95-169.125
	C89.027,264.916,275.061,81.25,502.062,81.25c0.988,0,2.005,0.004,2.995,0.011c227.011,1.615,410.73,185.339,412.337,412.353
	c1.615,228.342-182.677,416.009-411.012,418.342c-1.45,0.015-2.896,0.022-4.343,0.022c-58.544,0-114.258-12.117-164.774-33.972
	c-3.234-1.399-6.704-2.11-10.193-2.11c-1.63,0-3.265,0.155-4.881,0.468l-210.433,40.698c-1.686,0.326-3.35,0.481-4.983,0.481
	C91.068,917.543,78.457,903.111,81.593,886.897z"/>
</svg>
