<?xml version="1.0" encoding="iso-8859-1"?>
<!-- Generator: Adobe Illustrator 18.0.0, SVG Export Plug-In . SVG Version: 6.00 Build 0)  -->
<!DOCTYPE svg PUBLIC "-//W3C//DTD SVG 1.1//EN" "http://www.w3.org/Graphics/SVG/1.1/DTD/svg11.dtd">
<svg version="1.1" id="Capa_1" xmlns="http://www.w3.org/2000/svg" xmlns:xlink="http://www.w3.org/1999/xlink" x="0px" y="0px"
	 viewBox="0 0 1000 1000" style="enable-background:new 0 0 1000 1000;" xml:space="preserve">
<path style="stroke:#000000;stroke-miterlimit:10;" d="M894.884,22.298H105.116c-52.383,0-95,42.617-95,95v589.859
	c0,51.562,41.292,93.661,92.543,94.969l0.226,88.131c0.034,13.265,2.743,26.096,8.052,38.136
	c5.053,11.459,12.227,21.665,21.321,30.332c17.816,16.978,41.143,26.329,65.683,26.329c17.717,0,35.083-4.992,50.223-14.435
	l270.075-168.46h376.646c52.383,0,95-42.617,95-95V117.298C989.884,64.915,947.267,22.298,894.884,22.298z M919.884,707.157
	c0,13.807-11.193,25-25,25H505.355c-4.678,0-9.262,1.312-13.231,3.788l-281.008,175.28c-4.219,2.631-8.754,3.828-13.175,3.828
	c-13.004,0-25.018-10.351-25.056-24.975l-0.341-132.984c-0.035-13.782-11.218-24.936-25-24.936h-42.428c-13.807,0-25-11.193-25-25
	v-589.86c0-13.807,11.193-25,25-25h789.769c13.807,0,25,11.193,25,25v589.859H919.884z"/>
</svg>
