<?xml version="1.0" encoding="iso-8859-1"?>
<!-- Generator: Adobe Illustrator 18.0.0, SVG Export Plug-In . SVG Version: 6.00 Build 0)  -->
<!DOCTYPE svg PUBLIC "-//W3C//DTD SVG 1.1//EN" "http://www.w3.org/Graphics/SVG/1.1/DTD/svg11.dtd">
<svg version="1.1" id="Capa_1" xmlns="http://www.w3.org/2000/svg" xmlns:xlink="http://www.w3.org/1999/xlink" x="0px" y="0px"
	 viewBox="0 0 1000 1000" style="enable-background:new 0 0 1000 1000;" xml:space="preserve">
<path style="fill:#211915;stroke:#000000;stroke-miterlimit:10;" d="M838.173,732.351c25.492-15.929,42.489-44.241,42.489-76.452
	V273.692c0-7.311-0.892-14.606-2.652-21.699l-41.182-172.37L836.678,79l-0.16-0.621c-10.276-39.773-46.143-67.552-87.222-67.552
	H249.259c-41.436,0-77.38,28.08-87.408,68.284l-0.15,0.603l-0.14,0.605l-39.745,172.299c-1.645,6.869-2.479,13.926-2.479,20.988
	v382.292c0,32.211,16.997,60.523,42.489,76.452L20.986,937.579c-10.938,15.938-6.884,37.726,9.054,48.663
	c6.052,4.153,12.948,6.145,19.773,6.145c11.147,0,22.105-5.313,28.889-15.198l18.736-27.302h805.124l18.736,27.302
	c6.784,9.886,17.741,15.198,28.889,15.198c6.824,0,13.722-1.992,19.773-6.145c15.938-10.938,19.992-32.725,9.054-48.663
	L838.173,732.351z M237.368,745.985h525.263l20.524,29.906h-566.31L237.368,745.985z M189.338,655.898V273.606
	c0-1.639,0.2-3.271,0.597-4.861L229.77,96.053c2.232-8.947,10.268-15.226,19.489-15.226h500.037c9.158,0,17.157,6.195,19.448,15.062
	l41.28,172.778c0.424,1.641,0.638,3.329,0.638,5.024v382.206c0,8.316-5.054,15.451-12.257,18.503
	c-2.406,1.02-5.051,1.584-7.829,1.584h-59.841h-461.47h-59.841c-2.777,0-5.423-0.564-7.829-1.584
	C194.392,671.35,189.338,664.215,189.338,655.898z M145.477,879.887l23.33-33.995h662.387l23.33,33.995H145.477z"/>
<path style="fill:#211915;stroke:#000000;stroke-miterlimit:10;" d="M694.649,484.846h70v-70V299.111v-7.41l-1.551-7.245
	l-23.535-109.921l-11.85-55.345h-56.599H331.086h-58.298l-10.547,57.336l-20.22,109.921l-1.155,6.279v6.385v115.734v70h70h383.783
	V484.846z M310.866,299.111l20.22-109.921h340.027l23.535,109.921v115.734H310.866V299.111z"/>
<path style="fill:#211915;stroke:#000000;stroke-miterlimit:10;" d="M332.165,547.35h-18.813c-13.807,0-25,11.193-25,25v18.813
	c0,13.807,11.193,25,25,25h18.813c13.807,0,25-11.193,25-25V572.35C357.165,558.543,345.972,547.35,332.165,547.35z"/>
<path style="fill:#211915;stroke:#000000;stroke-miterlimit:10;" d="M686.648,547.35h-18.813c-13.807,0-25,11.193-25,25v18.813
	c0,13.807,11.193,25,25,25h18.813c13.807,0,25-11.193,25-25V572.35C711.648,558.543,700.456,547.35,686.648,547.35z"/>
</svg>
