<?xml version="1.0" encoding="iso-8859-1"?>
<!-- Generator: Adobe Illustrator 18.0.0, SVG Export Plug-In . SVG Version: 6.00 Build 0)  -->
<!DOCTYPE svg PUBLIC "-//W3C//DTD SVG 1.1//EN" "http://www.w3.org/Graphics/SVG/1.1/DTD/svg11.dtd">
<svg version="1.1" id="Capa_1" xmlns="http://www.w3.org/2000/svg" xmlns:xlink="http://www.w3.org/1999/xlink" x="0px" y="0px"
	 viewBox="0 0 1000 1000" style="enable-background:new 0 0 1000 1000;" xml:space="preserve">
<path style="fill:#211915;stroke:#000000;stroke-miterlimit:10;" d="M731.439,992.144h14.881c52.383,0,95-42.617,95-95v-14.782
	h20.342c52.383,0,95-42.616,95-95V299.656c0-8.021-1.019-16.023-3.026-23.785L902.263,77.026
	C891.431,35.085,853.606,5.79,810.283,5.79H187.918c-43.693,0-81.597,29.609-92.175,72.003L46.162,276.557
	c-1.875,7.525-2.824,15.256-2.824,22.993v487.812c0,52.383,42.617,95,95,95h20.342v14.782c0,52.383,42.617,95,95,95h14.881
	c52.383,0,95-42.617,95-95v-14.782H636.44v14.782C636.439,949.526,679.057,992.144,731.439,992.144z M357.265,812.362H164.976
	h-26.638c-13.807,0-25-11.193-25-25V299.55c0-2.04,0.25-4.072,0.743-6.051l49.58-198.76c2.778-11.135,12.78-18.949,24.257-18.949
	h622.365c11.398,0,21.354,7.71,24.205,18.747l51.379,198.866c0.528,2.042,0.795,4.144,0.795,6.253v487.706c0,13.807-11.193,25-25,25
	h-26.638H642.735H357.265z M293.561,897.144c0,13.807-11.192,25-25,25H253.68c-13.808,0-25-11.193-25-25v-14.782h64.881
	L293.561,897.144L293.561,897.144z M771.32,882.361v14.782c0,13.807-11.192,25-25,25h-14.881c-13.808,0-25-11.193-25-25v-14.782
	H771.32z"/>
<path style="fill:#211915;stroke:#000000;stroke-miterlimit:10;" d="M841.32,556.38V332.957c0-7.953-1.002-15.892-2.978-23.598
	l-9.966-38.849c-10.782-42.034-48.622-71.393-92.021-71.393H262.02c-21.615,0-42.787,7.47-59.616,21.035
	c-16.828,13.563-28.624,32.665-33.215,53.787l-8.341,38.367c-1.439,6.631-2.168,13.415-2.168,20.18V556.38c0,52.383,42.617,95,95,95
	h492.64C798.703,651.38,841.32,608.764,841.32,556.38z M228.68,556.38V332.487c0-1.786,0.191-3.566,0.57-5.311l8.341-38.369
	c2.498-11.493,12.668-19.69,24.429-19.69h474.337c11.415,0,21.38,7.731,24.216,18.788l9.964,38.839
	c0.521,2.03,0.784,4.117,0.784,6.212V556.38c0,13.807-11.192,25-25,25H253.68C239.872,581.38,228.68,570.188,228.68,556.38z"/>
<path style="fill:#211915;stroke:#000000;stroke-miterlimit:10;" d="M325.018,170.129h349.965c19.33,0,35-15.67,35-35
	s-15.67-35-35-35H325.018c-19.33,0-35,15.67-35,35S305.688,170.129,325.018,170.129z"/>
<path style="fill:#211915;stroke:#000000;stroke-miterlimit:10;" d="M300.018,698.481h-18.812c-13.808,0-25,11.193-25,25v18.813
	c0,3.2,0.607,6.255,1.703,9.067c3.631,9.323,12.689,15.933,23.297,15.933h18.812c5.203,0,10.034-1.591,14.036-4.311
	c6.617-4.498,10.964-12.085,10.964-20.689v-18.813C325.018,709.674,313.825,698.481,300.018,698.481z"/>
<path style="fill:#211915;stroke:#000000;stroke-miterlimit:10;" d="M718.795,698.481h-18.812c-13.808,0-25,11.193-25,25v18.813
	c0,8.604,4.347,16.191,10.964,20.689c4.002,2.72,8.833,4.311,14.036,4.311h18.812c10.607,0,19.666-6.61,23.297-15.933
	c1.096-2.812,1.703-5.868,1.703-9.067v-18.813C743.795,709.674,732.603,698.481,718.795,698.481z"/>
</svg>
