<?xml version="1.0" encoding="iso-8859-1"?>
<!-- Generator: Adobe Illustrator 18.0.0, SVG Export Plug-In . SVG Version: 6.00 Build 0)  -->
<!DOCTYPE svg PUBLIC "-//W3C//DTD SVG 1.1//EN" "http://www.w3.org/Graphics/SVG/1.1/DTD/svg11.dtd">
<svg version="1.1" id="Capa_1" xmlns="http://www.w3.org/2000/svg" xmlns:xlink="http://www.w3.org/1999/xlink" x="0px" y="0px"
	 viewBox="0 0 1000 1000" style="enable-background:new 0 0 1000 1000;" xml:space="preserve">
<path style="fill:#211915;stroke:#000000;stroke-miterlimit:10;" d="M780.276,508.348c44.059,0,85.158-18.76,122.155-55.757
	c24.626-24.626,43.708-53.376,56.715-85.451c12.549-30.946,18.912-63.624,18.912-97.128s-6.363-66.182-18.912-97.128
	c-13.007-32.075-32.089-60.825-56.715-85.452c-24.626-24.626-53.376-43.708-85.452-56.715
	c-30.946-12.549-63.624-18.912-97.128-18.912s-66.182,6.363-97.128,18.912c-32.075,13.007-60.825,32.089-85.452,56.715
	c-26.883,26.883-44.261,56.235-51.651,87.24c-4.685,19.658-5.345,39.71-2.043,59.921L146.249,640.171
	c-15.185,18.257-22.949,41.376-21.861,65.098c1.087,23.721,10.934,46.033,27.724,62.824l11.427,11.427L44.254,898.804
	c-13.668,13.668-13.668,35.829,0,49.497c6.834,6.834,15.792,10.251,24.749,10.251s17.915-3.417,24.749-10.251l119.284-119.284
	l9.384,9.384c17.943,17.943,41.802,27.825,67.181,27.825c22.264,0,43.927-7.875,60.998-22.174L621.573,617.07l7.509,7.509
	c6.834,6.834,15.791,10.251,24.749,10.251s17.915-3.417,24.749-10.251c13.668-13.668,13.668-35.829,0-49.497l-3.135-3.135
	l78.593-65.833C762.782,507.602,771.519,508.348,780.276,508.348z M305.648,790.39c-4.662,3.905-10.364,5.835-16.048,5.835
	c-6.423,0-12.823-2.463-17.683-7.323l-9.383-9.383l-49.497-49.497l-11.426-11.426c-9.136-9.137-9.806-23.73-1.543-33.664
	l313.06-376.399c21.216,33.677,50.266,64.091,77.189,91.014c24.802,24.802,51.763,50.515,80.851,70.542
	c3.155,2.172,6.298,4.243,9.43,6.227L305.648,790.39z M852.933,136.929c73.499,73.499,73.499,192.665,0,266.164
	c-12.488,12.488-24.764,21.321-36.9,27.023c-12.035,5.655-23.931,8.231-35.757,8.231c-1.906,0-3.811-0.073-5.714-0.205
	c-44.461-3.073-88.116-41.461-134.749-88.093c-46.626-46.626-85.005-90.284-88.084-134.739c-0.95-13.713,1.454-27.502,8.02-41.478
	c5.702-12.137,14.529-24.414,27.02-36.904c36.75-36.75,84.916-55.125,133.082-55.125S816.184,100.179,852.933,136.929z"/>
</svg>
