<?xml version="1.0" encoding="iso-8859-1"?>
<!-- Generator: Adobe Illustrator 18.0.0, SVG Export Plug-In . SVG Version: 6.00 Build 0)  -->
<!DOCTYPE svg PUBLIC "-//W3C//DTD SVG 1.1//EN" "http://www.w3.org/Graphics/SVG/1.1/DTD/svg11.dtd">
<svg version="1.1" id="Capa_1" xmlns="http://www.w3.org/2000/svg" xmlns:xlink="http://www.w3.org/1999/xlink" x="0px" y="0px"
	 viewBox="0 0 1000 1000" style="enable-background:new 0 0 1000 1000;" xml:space="preserve">
<g>
	<circle style="fill:#211915;stroke:#000000;stroke-miterlimit:10;" cx="829.941" cy="168.744" r="34.667"/>
	<circle style="fill:#211915;stroke:#000000;stroke-miterlimit:10;" cx="726.608" cy="168.744" r="34.667"/>
	<circle style="fill:#211915;stroke:#000000;stroke-miterlimit:10;" cx="623.274" cy="168.744" r="34.667"/>
	<path style="fill:#211915;stroke:#000000;stroke-miterlimit:10;" d="M103.144,968h775.713c52.383,0,95-42.617,95-95V125.128
		c0-52.383-42.617-95-95-95H103.144c-52.383,0-95,42.617-95,95V873C8.144,925.383,50.761,968,103.144,968z M903.856,873
		c0,13.807-11.192,25-25,25H103.144c-13.808,0-25-11.193-25-25V302.128h825.713L903.856,873L903.856,873z M78.144,125.128
		c0-13.807,11.192-25,25-25h775.713c13.808,0,25,11.193,25,25v107H78.144V125.128z"/>
	<path style="fill:#211915;stroke:#000000;stroke-miterlimit:10;" d="M323.301,632.269h335.397c19.33,0,35-15.67,35-35
		s-15.67-35-35-35H323.301c-19.33,0-35,15.67-35,35S303.971,632.269,323.301,632.269z"/>
</g>
</svg>
