<?xml version="1.0" encoding="iso-8859-1"?>
<!-- Generator: Adobe Illustrator 18.0.0, SVG Export Plug-In . SVG Version: 6.00 Build 0)  -->
<!DOCTYPE svg PUBLIC "-//W3C//DTD SVG 1.1//EN" "http://www.w3.org/Graphics/SVG/1.1/DTD/svg11.dtd">
<svg version="1.1" id="Capa_1" xmlns="http://www.w3.org/2000/svg" xmlns:xlink="http://www.w3.org/1999/xlink" x="0px" y="0px"
	 viewBox="0 0 1000 1000" style="enable-background:new 0 0 1000 1000;" xml:space="preserve">
<path style="fill:#211915;stroke:#000000;stroke-miterlimit:10;" d="M108.125,786.989h235.716v77.676h-86.592
	c-19.33,0-35,15.67-35,35s15.67,35,35,35h86.592h311.232h86.592c19.33,0,35-15.67,35-35s-15.67-35-35-35h-86.592v-77.676h235.716
	c52.383,0,95-42.617,95-95V161.504c0-52.383-42.617-95-95-95H108.125c-52.383,0-95,42.617-95,95v530.485
	C13.125,744.372,55.742,786.989,108.125,786.989z M585.073,864.665H413.841v-77.676h171.232V864.665z M83.125,161.504
	c0-13.807,11.193-25,25-25h782.664c13.808,0,25,11.193,25,25v530.485c0,13.807-11.192,25-25,25H655.073v-0.947H343.841v0.947
	H108.125c-13.807,0-25-11.193-25-25V161.504z"/>
</svg>
