<?xml version="1.0" encoding="iso-8859-1"?>
<!-- Generator: Adobe Illustrator 18.0.0, SVG Export Plug-In . SVG Version: 6.00 Build 0)  -->
<!DOCTYPE svg PUBLIC "-//W3C//DTD SVG 1.1//EN" "http://www.w3.org/Graphics/SVG/1.1/DTD/svg11.dtd">
<svg version="1.1" id="Capa_1" xmlns="http://www.w3.org/2000/svg" xmlns:xlink="http://www.w3.org/1999/xlink" x="0px" y="0px"
	 viewBox="0 0 1000 1000" style="enable-background:new 0 0 1000 1000;" xml:space="preserve">
<path style="stroke:#000000;stroke-miterlimit:10;" d="M883.213,641.613c35.824-28.366,64.904-66.254,86.433-112.614
	c13.717-29.538,11.5-63.478-5.931-90.791c-8.347-13.08-19.893-24.05-33.388-31.726c-14.283-8.124-30.479-12.418-46.837-12.418
	c-13.361,0-26.409,2.781-38.782,8.266c-2.373,1.052-4.492,1.692-6.324,1.912c-1.335-0.678-4.265-2.405-9.203-6.473
	c-7.491-6.172-16.174-14.872-25.367-24.083c-18.776-18.812-40.058-40.135-67.87-57.932c-16.541-10.583-33.852-18.802-51.454-24.426
	c-20.286-6.482-41.645-9.769-63.483-9.769c-34.276,0-66.365,7.427-95.376,22.076c-8.938,4.513-17.495,9.666-25.639,15.434
	c-8.142-5.766-16.7-10.92-25.635-15.432c-29.01-14.649-61.097-22.078-95.369-22.078c-21.836,0-43.192,3.286-63.476,9.768
	c-17.6,5.624-34.91,13.841-51.449,24.423c-27.81,17.794-49.092,39.115-67.869,57.926c-9.197,9.214-17.884,17.917-25.379,24.09
	c-4.942,4.071-7.875,5.798-9.208,6.475c-1.829-0.219-3.945-0.857-6.312-1.906c-12.367-5.48-25.411-8.26-38.768-8.261
	c-16.357-0.001-32.554,4.29-46.838,12.412c-13.499,7.675-25.047,18.646-33.396,31.729c-17.432,27.314-19.648,61.256-5.928,90.796
	c21.529,46.354,50.608,84.24,86.431,112.603c22.879,18.116,48.443,32.184,75.982,41.812c29.996,10.488,62.651,15.806,97.057,15.806
	c51.835,0,103.005-12.962,152.086-38.526c22.531-11.736,42.032-24.838,58.076-37.158c16.044,12.32,35.548,25.423,58.078,37.158
	c49.083,25.564,100.253,38.526,152.089,38.526c34.407,0.002,67.064-5.316,97.063-15.804
	C834.767,673.8,860.333,659.731,883.213,641.613z M517.136,546.378c-4.819-4.535-10.98-6.802-17.142-6.802
	s-12.325,2.268-17.144,6.803c-30.647,28.846-100.395,82.854-193.018,82.854c-111.938,0-168.294-70.092-195.983-129.708
	c-8.143-17.533,5.592-35.452,22.67-35.45c3.388,0,6.909,0.706,10.415,2.259c10.911,4.835,23.022,7.994,36.042,7.994
	c71.22,0,104.746-122.768,216.011-122.768c51.68,0,84.324,24.125,102.507,44.125c4.962,5.458,11.729,8.187,18.497,8.187
	s13.535-2.729,18.498-8.188c18.182-20,50.828-44.125,102.518-44.125c111.283,0,144.792,122.768,216.002,122.768
	c13.028,0,25.147-3.163,36.065-8.003c3.508-1.555,7.026-2.26,10.416-2.26c17.073,0,30.809,17.921,22.668,35.451
	c-27.688,59.621-84.045,129.723-195.997,129.717C617.538,629.233,547.786,575.224,517.136,546.378z"/>
</svg>
