<?xml version="1.0" encoding="iso-8859-1"?>
<!-- Generator: Adobe Illustrator 18.0.0, SVG Export Plug-In . SVG Version: 6.00 Build 0)  -->
<!DOCTYPE svg PUBLIC "-//W3C//DTD SVG 1.1//EN" "http://www.w3.org/Graphics/SVG/1.1/DTD/svg11.dtd">
<svg version="1.1" id="Capa_1" xmlns="http://www.w3.org/2000/svg" xmlns:xlink="http://www.w3.org/1999/xlink" x="0px" y="0px"
	 viewBox="0 0 1000 1000" style="enable-background:new 0 0 1000 1000;" xml:space="preserve">
<path style="fill:#211915;stroke:#000000;stroke-miterlimit:10;" d="M988.826,680.261c0-35.17-6.679-69.472-19.851-101.954
	c-13.652-33.666-33.682-63.844-59.533-89.694L651.045,230.216c-25.851-25.851-56.028-45.88-89.695-59.533
	c-32.482-13.172-66.785-19.851-101.954-19.851s-69.472,6.679-101.954,19.851c-27.286,11.065-52.278,26.321-74.534,45.468
	c-2.934-7.606-5.681-16.352-7.596-25.926c-8.522-42.612,3.87-80.932,36.833-113.896c13.668-13.668,13.668-35.829,0-49.498
	c-13.668-13.668-35.829-13.669-49.498,0c-62.953,62.953-65.187,131.066-55.976,177.121c5.426,27.129,15.276,49.425,23.203,64.221
	c-24.232,25.08-43.132,54.073-56.187,86.266c-13.172,32.482-19.851,66.784-19.851,101.954c0,35.169,6.679,69.472,19.851,101.954
	c13.653,33.666,33.682,63.844,59.532,89.695l258.397,258.396c25.85,25.851,56.028,45.88,89.694,59.533
	c32.482,13.172,66.785,19.851,101.954,19.851s69.472-6.678,101.954-19.851c33.666-13.652,63.844-33.682,89.694-59.533l34.529-34.529
	c25.851-25.85,45.88-56.028,59.533-89.694C982.147,749.732,988.826,715.43,988.826,680.261z M459.397,220.832
	c51.448,0,102.897,19.627,142.151,58.881l22.903,22.903L490.487,436.58L325.673,271.766
	C363.711,237.817,411.551,220.832,459.397,220.832z M276.101,321.188L440.99,486.077l-135.37,135.37l-22.903-22.903
	C206.483,522.31,204.282,400.085,276.101,321.188z M859.945,822.412l-34.529,34.529c-39.254,39.254-90.702,58.881-142.151,58.881
	s-102.897-19.627-142.151-58.881L355.117,670.944l160.119-160.119l158.712-158.712L859.945,538.11
	C938.452,616.618,938.452,743.904,859.945,822.412z"/>
</svg>
