<?xml version="1.0" encoding="iso-8859-1"?>
<!-- Generator: Adobe Illustrator 18.0.0, SVG Export Plug-In . SVG Version: 6.00 Build 0)  -->
<!DOCTYPE svg PUBLIC "-//W3C//DTD SVG 1.1//EN" "http://www.w3.org/Graphics/SVG/1.1/DTD/svg11.dtd">
<svg version="1.1" id="Capa_1" xmlns="http://www.w3.org/2000/svg" xmlns:xlink="http://www.w3.org/1999/xlink" x="0px" y="0px"
	 viewBox="0 0 1000 1000" style="enable-background:new 0 0 1000 1000;" xml:space="preserve">
<path style="fill:#211915;stroke:#000000;stroke-miterlimit:10;" d="M899.312,48.041c-4.333,0-8.711,0.305-13.014,0.906
	l-546.771,76.36c-22.7,3.17-43.487,14.439-58.531,31.73c-15.045,17.291-23.33,39.437-23.33,62.357v282.608
	c-7.173-0.764-14.412-1.188-21.712-1.27c-0.851-0.009-1.701-0.014-2.536-0.014C109.853,500.709,8.631,601.216,7.784,724.765
	c-0.21,30.582,5.614,60.311,17.311,88.363c11.278,27.048,27.501,51.339,48.217,72.197c20.719,20.862,44.903,37.254,71.879,48.72
	c27.966,11.887,57.643,17.914,88.208,17.914c30.196,0,59.543-5.888,87.225-17.5c26.703-11.201,50.717-27.236,71.375-47.658
	c20.644-20.408,36.948-44.219,48.459-70.774c11.631-26.83,17.849-55.298,18.493-84.647c0.045-1.023,0.068-2.05,0.068-3.078V399.174
	l332.63-46.454v67.009c-7.422-0.791-14.916-1.216-22.474-1.276c-0.58-0.005-1.188-0.007-1.786-0.007
	c-30.368-0.001-59.897,5.989-87.766,17.805c-26.834,11.378-50.938,27.636-71.639,48.322c-20.712,20.697-36.991,44.799-48.384,71.637
	c-11.839,27.888-17.841,57.448-17.841,87.859c0,30.427,5.976,59.981,17.761,87.842c11.368,26.874,27.626,50.995,48.325,71.693
	c20.698,20.698,44.819,36.956,71.693,48.323c27.861,11.784,57.415,17.76,87.842,17.76c0.554,0,1.095-0.002,1.65-0.006
	c30.323-0.218,59.814-6.534,87.651-18.773c26.567-11.68,50.437-28.217,70.947-49.15c20.411-20.833,36.465-44.971,47.716-71.743
	C987.06,702.141,993,672.726,993,642.586V141.779C993,90.092,950.972,48.041,899.312,48.041z M923,642.586
	c0,84.973-69.504,156.486-154.475,157.097c-0.385,0.003-0.761,0.004-1.145,0.004c-85.942,0-155.62-69.676-155.621-155.619
	c-0.001-85.779,70.001-155.626,155.63-155.623c0.41,0,0.826,0.002,1.236,0.005c23.044,0.181,44.893,5.374,64.514,14.539
	c2.803,1.309,5.692,1.913,8.507,1.913c10.523,0,20.002-8.44,20.002-20.004v-183.9c0-13.991-11.397-25.005-24.952-25.005
	c-1.155,0-2.326,0.08-3.506,0.245l-422.629,59.023c-12.351,1.725-21.542,12.289-21.542,24.76v368.28l-0.024-0.003
	c-1.052,85.042-70.305,153.66-155.596,153.66c-86.311,0-156.21-70.265-155.616-156.713c0.585-85.269,70.575-154.534,155.637-154.528
	c0.58,0,1.172,0.003,1.753,0.01c22.85,0.256,44.515,5.439,63.986,14.534c2.803,1.309,5.691,1.913,8.506,1.913
	c10.522,0,20.002-8.44,20.002-20.005V219.394c0-12.471,9.191-23.035,21.542-24.76l546.774-76.361
	c1.121-0.157,2.231-0.232,3.328-0.232c12.868,0,23.688,10.457,23.688,23.738L923,642.586L923,642.586z"/>
</svg>
