<?xml version="1.0" encoding="iso-8859-1"?>
<!-- Generator: Adobe Illustrator 18.0.0, SVG Export Plug-In . SVG Version: 6.00 Build 0)  -->
<!DOCTYPE svg PUBLIC "-//W3C//DTD SVG 1.1//EN" "http://www.w3.org/Graphics/SVG/1.1/DTD/svg11.dtd">
<svg version="1.1" id="Capa_1" xmlns="http://www.w3.org/2000/svg" xmlns:xlink="http://www.w3.org/1999/xlink" x="0px" y="0px"
	 viewBox="0 0 1000 1000" style="enable-background:new 0 0 1000 1000;" xml:space="preserve">
<path style="fill:#211915;stroke:#000000;stroke-miterlimit:10;" d="M782.087,139.775c-3.993,0-8.027,0.281-11.989,0.834
	c-0.089,0.013-0.179,0.025-0.269,0.038l-395.196,56.767c-20.779,2.955-39.799,13.296-53.579,29.133
	c-13.828,15.893-21.444,36.249-21.444,57.315v219.816c-22.152,0.577-43.717,5.235-64.166,13.87
	c-21.051,8.888-39.983,21.586-56.271,37.742c-16.301,16.168-29.157,35.011-38.212,56.004c-9.427,21.855-14.29,45.033-14.453,68.89
	c-0.166,24.092,4.426,47.522,13.648,69.637c8.889,21.318,21.671,40.459,37.992,56.892c16.323,16.436,35.38,29.351,56.641,38.388
	c22.048,9.372,45.438,14.124,69.518,14.124c23.79,0,46.919-4.642,68.744-13.797c21.046-8.828,39.969-21.463,56.245-37.553
	c16.264-16.078,29.11-34.841,38.183-55.768c9.139-21.082,14.039-43.44,14.575-66.482c0.038-0.945,0.058-1.893,0.058-2.843V426.886
	l203.886-29.513v45.437c-22.283,0.578-43.957,5.273-64.491,13.98c-21.144,8.964-40.131,21.771-56.435,38.062
	c-16.312,16.3-29.135,35.288-38.112,56.435c-9.336,21.992-14.069,45.297-14.069,69.268c0,23.972,4.712,47.264,14.003,69.23
	c8.959,21.18,21.77,40.188,38.077,56.494c16.306,16.306,35.313,29.117,56.494,38.075c21.965,9.291,45.258,14.002,69.23,14.002
	c0.442,0,0.875-0.002,1.318-0.005c23.932-0.172,47.221-5.159,69.201-14.823c20.927-9.2,39.719-22.216,55.854-38.685
	c16.046-16.378,28.67-35.36,37.52-56.418c9.23-21.963,13.91-45.144,13.91-68.899V226.219
	C868.497,178.553,829.733,139.775,782.087,139.775z M798.497,619.526c0,58.864-48.147,108.403-107.01,108.827
	c-0.267,0.002-0.527,0.003-0.793,0.003c-59.535,0-107.803-48.267-107.804-107.802c-0.001-59.422,48.492-107.807,107.81-107.805
	c0.284,0,0.572,0.001,0.856,0.003c15.963,0.125,31.099,3.722,44.691,10.072c1.942,0.907,3.943,1.325,5.893,1.325
	c7.289,0,13.856-5.846,13.856-13.858V336.516c0-9.692-7.896-17.322-17.286-17.322c-0.8,0-1.611,0.055-2.428,0.17l-309.25,44.765
	c-8.556,1.195-14.923,8.513-14.923,17.152v301.501l-0.017-0.002c-0.729,58.911-48.702,106.445-107.787,106.445
	c-59.79,0-108.212-48.675-107.801-108.56c0.406-59.069,48.89-107.051,107.815-107.047c0.402,0,0.812,0.002,1.214,0.007
	c15.829,0.177,30.837,3.768,44.325,10.068c1.942,0.907,3.943,1.325,5.893,1.325c7.29,0,13.856-5.846,13.856-13.858V283.863
	c0-8.639,6.367-15.957,14.923-17.152l395.249-56.775c0.777-0.108,1.545-0.161,2.306-0.161c8.914,0,16.409,7.244,16.409,16.444
	v393.307H798.497z"/>
<path style="fill:#211915;stroke:#000000;stroke-miterlimit:10;" d="M901,3H99C46.617,3,4,45.617,4,98v802c0,52.383,42.617,95,95,95
	h802c52.383,0,95-42.617,95-95V98C996,45.617,953.383,3,901,3z M926,900c0,13.807-11.193,25-25,25H99c-13.807,0-25-11.193-25-25V98
	c0-13.807,11.193-25,25-25h802c13.807,0,25,11.193,25,25V900z"/>
</svg>
