<?xml version="1.0" encoding="iso-8859-1"?>
<!-- Generator: Adobe Illustrator 18.0.0, SVG Export Plug-In . SVG Version: 6.00 Build 0)  -->
<!DOCTYPE svg PUBLIC "-//W3C//DTD SVG 1.1//EN" "http://www.w3.org/Graphics/SVG/1.1/DTD/svg11.dtd">
<svg version="1.1" id="Capa_1" xmlns="http://www.w3.org/2000/svg" xmlns:xlink="http://www.w3.org/1999/xlink" x="0px" y="0px"
	 viewBox="0 0 1000 1000" style="enable-background:new 0 0 1000 1000;" xml:space="preserve">
<path style="fill:#211915;stroke:#000000;stroke-miterlimit:10;" d="M150.689,849.311c45.345,45.345,98.169,80.955,157.002,105.839
	C368.639,980.929,433.341,994,500,994s131.361-13.071,192.309-38.85c58.833-24.884,111.657-60.494,157.002-105.839
	c45.345-45.345,80.955-98.169,105.84-157.002C980.929,631.361,994,566.659,994,500s-13.071-131.361-38.85-192.309
	c-24.885-58.833-60.494-111.657-105.84-157.002c-45.345-45.345-98.169-80.955-157.002-105.839C631.361,19.071,566.659,6,500,6
	S368.639,19.071,307.691,44.85c-58.833,24.884-111.657,60.494-157.002,105.839s-80.955,98.169-105.84,157.002
	C19.071,368.639,6,433.341,6,500s13.071,131.361,38.85,192.309C69.734,751.142,105.344,803.965,150.689,849.311z M500,76
	c234.169,0,424,189.831,424,424S734.169,924,500,924S76,734.169,76,500S265.831,76,500,76z"/>
<path style="fill:#211915;stroke:#000000;stroke-miterlimit:10;" d="M500,195.592c81.31,0,157.754,31.664,215.249,89.159
	S804.408,418.69,804.408,500c0,19.33,15.67,35,35,35s35-15.67,35-35c0-50.529-9.904-99.566-29.437-145.747
	c-18.859-44.588-45.851-84.625-80.225-118.999s-74.411-61.365-118.999-80.225c-46.181-19.533-95.218-29.437-145.747-29.437
	c-19.33,0-35,15.67-35,35S480.67,195.592,500,195.592z"/>
<path style="fill:#211915;stroke:#000000;stroke-miterlimit:10;" d="M491.582,312.928c107.793,0,195.49,87.696,195.49,195.49
	c0,19.33,15.67,35,35,35s35-15.67,35-35c0-70.915-27.616-137.585-77.76-187.729s-116.814-77.76-187.729-77.76
	c-19.33,0-35,15.67-35,35S472.252,312.928,491.582,312.928z"/>
<path style="fill:#211915;stroke:#000000;stroke-miterlimit:10;" d="M354.253,844.971c46.181,19.533,95.218,29.437,145.747,29.437
	c19.33,0,35-15.67,35-35s-15.67-35-35-35c-81.31,0-157.754-31.664-215.249-89.159S195.592,581.31,195.592,500
	c0-19.33-15.67-35-35-35s-35,15.67-35,35c0,50.529,9.904,99.566,29.437,145.747c18.859,44.588,45.851,84.625,80.225,118.999
	S309.665,826.111,354.253,844.971z"/>
<path style="fill:#211915;stroke:#000000;stroke-miterlimit:10;" d="M508.418,757.072c19.33,0,35-15.67,35-35s-15.67-35-35-35
	c-107.793,0-195.49-87.696-195.49-195.49c0-19.33-15.67-35-35-35s-35,15.67-35,35c0,70.915,27.616,137.585,77.76,187.729
	S437.503,757.072,508.418,757.072z"/>
<path style="fill:#211915;stroke:#000000;stroke-miterlimit:10;" d="M404.928,595.072c12.325,12.325,26.697,22.01,42.716,28.786
	c16.621,7.03,34.236,10.595,52.356,10.595s35.735-3.565,52.356-10.595c16.019-6.775,30.39-16.46,42.716-28.786
	c12.325-12.325,22.01-26.697,28.786-42.716c7.03-16.621,10.594-34.236,10.594-52.356s-3.564-35.735-10.594-52.356
	c-6.775-16.019-16.46-30.39-28.786-42.716c-12.325-12.325-26.697-22.01-42.716-28.786c-16.621-7.03-34.236-10.595-52.356-10.595
	s-35.735,3.565-52.356,10.595c-16.019,6.775-30.39,16.46-42.716,28.786c-12.325,12.325-22.01,26.697-28.786,42.716
	c-7.03,16.621-10.594,34.236-10.594,52.356c0,18.12,3.564,35.735,10.594,52.356C382.918,568.375,392.603,582.747,404.928,595.072z
	 M500,435.548c35.596,0,64.452,28.856,64.452,64.452S535.596,564.452,500,564.452S435.548,535.596,435.548,500
	S464.404,435.548,500,435.548z"/>
</svg>
