<?xml version="1.0" encoding="iso-8859-1"?>
<!-- Generator: Adobe Illustrator 18.0.0, SVG Export Plug-In . SVG Version: 6.00 Build 0)  -->
<!DOCTYPE svg PUBLIC "-//W3C//DTD SVG 1.1//EN" "http://www.w3.org/Graphics/SVG/1.1/DTD/svg11.dtd">
<svg version="1.1" id="Capa_1" xmlns="http://www.w3.org/2000/svg" xmlns:xlink="http://www.w3.org/1999/xlink" x="0px" y="0px"
	 viewBox="0 0 1000 1000" style="enable-background:new 0 0 1000 1000;" xml:space="preserve">
<path style="stroke:#000000;stroke-miterlimit:10;" d="M861.81,182.755H131.147c-52.383,0-95,42.617-95,95v477.29
	c0,52.383,42.617,95,95,95H861.81c52.383,0,95-42.617,95-95v-477.29C956.81,225.372,914.192,182.755,861.81,182.755z
	 M830.493,252.755L518.23,500.47c-12.807,10.16-30.697,10.16-43.504,0L162.464,252.755H830.493z M886.81,755.046
	c0,13.807-11.193,25-25,25H131.147c-13.807,0-25-11.193-25-25V297.431L431.223,555.31c18.485,14.664,41.66,22.74,65.256,22.74
	s46.771-8.076,65.256-22.74L886.81,297.431V755.046z"/>
</svg>
