<?xml version="1.0" encoding="iso-8859-1"?>
<!-- Generator: Adobe Illustrator 18.0.0, SVG Export Plug-In . SVG Version: 6.00 Build 0)  -->
<!DOCTYPE svg PUBLIC "-//W3C//DTD SVG 1.1//EN" "http://www.w3.org/Graphics/SVG/1.1/DTD/svg11.dtd">
<svg version="1.1" id="Capa_1" xmlns="http://www.w3.org/2000/svg" xmlns:xlink="http://www.w3.org/1999/xlink" x="0px" y="0px"
	 viewBox="0 0 1000 1000" style="enable-background:new 0 0 1000 1000;" xml:space="preserve">
<g>
	<path style="fill:#211915;stroke:#000000;stroke-miterlimit:10;" d="M106.737,310.953h115.801c52.383,0,95-42.617,95-95V100.152
		c0-52.383-42.617-95-95-95H106.737c-52.383,0-95,42.617-95,95v115.801C11.737,268.336,54.354,310.953,106.737,310.953z
		 M81.737,100.152c0-13.807,11.193-25,25-25h115.801c13.807,0,25,11.193,25,25v115.801c0,13.807-11.193,25-25,25H106.737
		c-13.807,0-25-11.193-25-25V100.152z"/>
	<path style="fill:#211915;stroke:#000000;stroke-miterlimit:10;" d="M443.9,310.953h115.801c52.383,0,95-42.617,95-95V100.152
		c0-52.383-42.617-95-95-95H443.9c-52.383,0-95,42.617-95,95v115.801C348.9,268.336,391.517,310.953,443.9,310.953z M418.9,100.152
		c0-13.807,11.193-25,25-25h115.801c13.807,0,25,11.193,25,25v115.801c0,13.807-11.193,25-25,25H443.9c-13.807,0-25-11.193-25-25
		V100.152z"/>
	<path style="fill:#211915;stroke:#000000;stroke-miterlimit:10;" d="M896.864,5.152H781.063c-52.383,0-95,42.617-95,95v115.801
		c0,52.383,42.617,95,95,95h115.801c52.383,0,95-42.617,95-95V100.152C991.864,47.769,949.247,5.152,896.864,5.152z
		 M921.864,215.953c0,13.807-11.193,25-25,25H781.063c-13.807,0-25-11.193-25-25V100.152c0-13.807,11.193-25,25-25h115.801
		c13.807,0,25,11.193,25,25V215.953z"/>
	<path style="fill:#211915;stroke:#000000;stroke-miterlimit:10;" d="M11.737,557.491c0,52.383,42.617,95,95,95h115.801
		c52.383,0,95-42.617,95-95V441.689c0-52.383-42.617-95-95-95H106.737c-52.383,0-95,42.617-95,95
		C11.737,441.689,11.737,557.491,11.737,557.491z M81.737,441.689c0-13.807,11.193-25,25-25h115.801c13.807,0,25,11.193,25,25
		V557.49c0,13.807-11.193,25-25,25H106.737c-13.807,0-25-11.193-25-25V441.689z"/>
	<path style="fill:#211915;stroke:#000000;stroke-miterlimit:10;" d="M348.9,557.491c0,52.383,42.617,95,95,95h115.801
		c52.383,0,95-42.617,95-95V441.689c0-52.383-42.617-95-95-95H443.9c-52.383,0-95,42.617-95,95V557.491z M418.9,441.689
		c0-13.807,11.193-25,25-25h115.801c13.807,0,25,11.193,25,25V557.49c0,13.807-11.193,25-25,25H443.9c-13.807,0-25-11.193-25-25
		V441.689z"/>
	<path style="fill:#211915;stroke:#000000;stroke-miterlimit:10;" d="M896.864,346.689H781.063c-52.383,0-95,42.617-95,95V557.49
		c0,52.383,42.617,95,95,95h115.801c52.383,0,95-42.617,95-95V441.689C991.864,389.306,949.247,346.689,896.864,346.689z
		 M921.864,557.491c0,13.807-11.193,25-25,25H781.063c-13.807,0-25-11.193-25-25V441.689c0-13.807,11.193-25,25-25h115.801
		c13.807,0,25,11.193,25,25V557.491z"/>
	<path style="fill:#211915;stroke:#000000;stroke-miterlimit:10;" d="M106.737,994.028h115.801c52.383,0,95-42.617,95-95v-115.8
		c0-52.383-42.617-95-95-95H106.737c-52.383,0-95,42.617-95,95v115.801C11.737,951.412,54.354,994.028,106.737,994.028z
		 M81.737,783.228c0-13.807,11.193-25,25-25h115.801c13.807,0,25,11.193,25,25v115.801c0,13.807-11.193,25-25,25H106.737
		c-13.807,0-25-11.193-25-25V783.228z"/>
	<path style="fill:#211915;stroke:#000000;stroke-miterlimit:10;" d="M348.9,899.028c0,52.383,42.617,95,95,95h115.801
		c52.383,0,95-42.617,95-95v-115.8c0-52.383-42.617-95-95-95H443.9c-52.383,0-95,42.617-95,95V899.028z M418.9,783.228
		c0-13.807,11.193-25,25-25h115.801c13.807,0,25,11.193,25,25v115.801c0,13.807-11.193,25-25,25H443.9c-13.807,0-25-11.193-25-25
		V783.228z"/>
	<path style="fill:#211915;stroke:#000000;stroke-miterlimit:10;" d="M896.864,688.228H781.063c-52.383,0-95,42.617-95,95v115.801
		c0,52.383,42.617,95,95,95h115.801c52.383,0,95-42.617,95-95V783.228C991.864,730.844,949.247,688.228,896.864,688.228z
		 M921.864,899.028c0,13.807-11.193,25-25,25H781.063c-13.807,0-25-11.193-25-25v-115.8c0-13.807,11.193-25,25-25h115.801
		c13.807,0,25,11.193,25,25V899.028z"/>
</g>
</svg>
