<?xml version="1.0" encoding="iso-8859-1"?>
<!-- Generator: Adobe Illustrator 18.0.0, SVG Export Plug-In . SVG Version: 6.00 Build 0)  -->
<!DOCTYPE svg PUBLIC "-//W3C//DTD SVG 1.1//EN" "http://www.w3.org/Graphics/SVG/1.1/DTD/svg11.dtd">
<svg version="1.1" id="Capa_1" xmlns="http://www.w3.org/2000/svg" xmlns:xlink="http://www.w3.org/1999/xlink" x="0px" y="0px"
	 viewBox="0 0 1000 1000" style="enable-background:new 0 0 1000 1000;" xml:space="preserve">
<path style="stroke:#000000;stroke-miterlimit:10;" d="M766.191,144.001h-73.016V62.832c0-19.33-15.67-35-35-35s-35,15.67-35,35
	v81.169h-246.35V62.832c0-19.33-15.67-35-35-35s-35,15.67-35,35v81.169h-73.016c-52.383,0-95,42.617-95,95v644.951
	c0,52.383,42.617,95,95,95h532.382c52.383,0,95-42.617,95-95V239.001C861.191,186.618,818.574,144.001,766.191,144.001z
	 M791.191,883.952c0,13.807-11.193,25-25,25H233.809c-13.807,0-25-11.193-25-25V239.001c0-13.807,11.193-25,25-25h73.016v54.139
	c0,19.33,15.67,35,35,35s35-15.67,35-35v-54.139h246.351v54.139c0,19.33,15.67,35,35,35s35-15.67,35-35v-54.139h73.016
	c13.807,0,25,11.193,25,25v644.951H791.191z"/>
<path style="stroke:#000000;stroke-miterlimit:10;" d="M670.198,415.263H329.802c-19.33,0-35,15.67-35,35s15.67,35,35,35h340.396
	c19.33,0,35-15.67,35-35S689.528,415.263,670.198,415.263z"/>
<path style="stroke:#000000;stroke-miterlimit:10;" d="M670.198,573.536H329.802c-19.33,0-35,15.67-35,35s15.67,35,35,35h340.396
	c19.33,0,35-15.67,35-35S689.528,573.536,670.198,573.536z"/>
<path style="stroke:#000000;stroke-miterlimit:10;" d="M583.473,731.81h-253.67c-19.33,0-35,15.67-35,35s15.67,35,35,35h253.67
	c19.33,0,35-15.67,35-35S602.803,731.81,583.473,731.81z"/>
</svg>
