<?xml version="1.0" encoding="iso-8859-1"?>
<!-- Generator: Adobe Illustrator 18.0.0, SVG Export Plug-In . SVG Version: 6.00 Build 0)  -->
<!DOCTYPE svg PUBLIC "-//W3C//DTD SVG 1.1//EN" "http://www.w3.org/Graphics/SVG/1.1/DTD/svg11.dtd">
<svg version="1.1" id="Capa_1" xmlns="http://www.w3.org/2000/svg" xmlns:xlink="http://www.w3.org/1999/xlink" x="0px" y="0px"
	 viewBox="0 0 1000 1000" style="enable-background:new 0 0 1000 1000;" xml:space="preserve">
<path style="fill:#211915;stroke:#000000;stroke-miterlimit:10;" d="M876.346,31.414c-13.127-13.127-30.932-20.502-49.498-20.502
	s-36.37,7.375-49.498,20.502L669.097,139.667h-563.11c-52.383,0-95,42.617-95,95v659.345c0,52.383,42.617,95,95,95h659.345
	c52.383,0,95-42.617,95-95V333.099l109.352-109.352c13.127-13.127,20.502-30.932,20.502-49.498s-7.375-36.37-20.502-49.498
	L876.346,31.414z M750.543,209.667l39.789,39.789l27.324,27.324l-27.324,27.324l-311.64,311.639
	c-3.518,3.519-8.006,5.907-12.89,6.86l-79.326,15.478c-1.319,0.257-2.625,0.381-3.904,0.381c-12.213,0-22.017-11.232-19.556-23.841
	l15.478-79.326c0.953-4.883,3.341-9.372,6.86-12.89l312.737-312.738l26.226-26.226L750.543,209.667z M867.154,227.283l-8.088-8.088
	l-78.26-78.26l-6.99-6.99l53.033-53.033l93.338,93.338L867.154,227.283z M790.333,894.013c0,13.807-11.193,25-25,25H105.987
	c-13.807,0-25-11.193-25-25V234.667c0-13.807,11.193-25,25-25h493.11l-263.24,263.24c-13.416,13.415-22.431,30.352-26.066,48.978
	l-15.479,79.33c-5.168,26.49,1.701,53.621,18.848,74.437c17.175,20.851,42.476,32.809,69.413,32.809
	c5.783,0,11.605-0.563,17.305-1.675l79.33-15.479c18.63-3.636,35.567-12.65,48.985-26.07l262.139-262.139v490.915H790.333z"/>
</svg>
