<?xml version="1.0" encoding="iso-8859-1"?>
<!-- Generator: Adobe Illustrator 18.0.0, SVG Export Plug-In . SVG Version: 6.00 Build 0)  -->
<!DOCTYPE svg PUBLIC "-//W3C//DTD SVG 1.1//EN" "http://www.w3.org/Graphics/SVG/1.1/DTD/svg11.dtd">
<svg version="1.1" id="Capa_1" xmlns="http://www.w3.org/2000/svg" xmlns:xlink="http://www.w3.org/1999/xlink" x="0px" y="0px"
	 viewBox="0 0 1000 1000" style="enable-background:new 0 0 1000 1000;" xml:space="preserve">
<path style="fill:#211915;stroke:#000000;stroke-miterlimit:10;" d="M178.339,590h-66.851c-52.383,0-95,42.617-95,95v17.148h-0.722
	L16,772.382l0.404,120.935c0.085,25.316,10.006,49.1,27.937,66.971C62.272,978.158,86.089,988,111.404,988h131.935h513.81H889
	c52.383,0,95-42.617,95-95V772.148V685c0-52.383-42.617-95-95-95h-65.851c-52.383,0-95,42.617-95,95v39h-454.81v-39
	C273.339,632.617,230.722,590,178.339,590z M773.149,794c13.807,0,25-11.193,25-25v-84c0-13.807,11.193-25,25-25H889
	c13.807,0,25,11.193,25,25v87.148V893c0,13.807-11.193,25-25,25H757.149h-513.81H111.404c-13.775,0-24.954-11.142-25-24.916
	L86,772.148h0.488V685c0-13.807,11.193-25,25-25h66.851c13.807,0,25,11.193,25,25v84c0,13.807,11.193,25,25,25H773.149z"/>
<path style="fill:#211915;stroke:#000000;stroke-miterlimit:10;" d="M783.973,277.348L570.186,42.978
	C552.229,23.291,526.647,12,500,12c-26.646,0-52.228,11.291-70.186,30.977L216.027,277.348
	c-13.03,14.285-21.315,31.858-23.958,50.819c-2.438,17.487,0.063,35.317,7.234,51.563c7.17,16.246,18.658,30.109,33.22,40.093
	c15.79,10.825,34.356,16.547,53.691,16.547h23v139.922c0,52.383,42.617,95,95,95h191.572c52.383,0,95-42.617,95-95V436.37h23
	c19.335,0,37.901-5.722,53.691-16.547c14.563-9.984,26.05-23.848,33.22-40.093c7.17-16.246,9.671-34.076,7.234-51.563
	C805.288,309.206,797.003,291.633,783.973,277.348z M713.786,366.37h-68c-13.807,0-25,11.193-25,25v184.922
	c0,13.807-11.193,25-25,25H404.214c-13.807,0-25-11.193-25-25V391.37c0-13.807-11.193-25-25-25h-68
	c-21.724,0-33.11-25.798-18.47-41.848L481.53,90.152C486.487,84.717,493.244,82,500,82s13.513,2.717,18.47,8.152l213.786,234.371
	C746.896,340.572,735.51,366.37,713.786,366.37z"/>
</svg>
