<?xml version="1.0" encoding="iso-8859-1"?>
<!-- Generator: Adobe Illustrator 18.0.0, SVG Export Plug-In . SVG Version: 6.00 Build 0)  -->
<!DOCTYPE svg PUBLIC "-//W3C//DTD SVG 1.1//EN" "http://www.w3.org/Graphics/SVG/1.1/DTD/svg11.dtd">
<svg version="1.1" id="Capa_1" xmlns="http://www.w3.org/2000/svg" xmlns:xlink="http://www.w3.org/1999/xlink" x="0px" y="0px"
	 viewBox="0 0 1000 1000" style="enable-background:new 0 0 1000 1000;" xml:space="preserve">
<g>
	<path style="fill:#211915;stroke:#000000;stroke-miterlimit:10;" d="M353.805,12.856H110.22c-52.383,0-95,42.617-95,95v784.287
		c0,52.383,42.617,95,95,95h243.585c52.383,0,95-42.617,95-95V107.856C448.805,55.474,406.188,12.856,353.805,12.856z
		 M378.805,892.144c0,13.808-11.193,25-25,25H110.22c-13.807,0-25-11.192-25-25V107.856c0-13.808,11.193-25,25-25h243.585
		c13.807,0,25,11.192,25,25V892.144z"/>
	<path style="fill:#211915;stroke:#000000;stroke-miterlimit:10;" d="M891.141,12.856H647.556c-52.383,0-95,42.617-95,95v784.287
		c0,52.383,42.617,95,95,95h243.585c52.383,0,95-42.617,95-95V107.856C986.141,55.474,943.524,12.856,891.141,12.856z
		 M916.141,892.144c0,13.808-11.193,25-25,25H647.556c-13.807,0-25-11.192-25-25V107.856c0-13.808,11.193-25,25-25h243.585
		c13.807,0,25,11.192,25,25L916.141,892.144L916.141,892.144z"/>
</g>
</svg>
