<?xml version="1.0" encoding="iso-8859-1"?>
<!-- Generator: Adobe Illustrator 18.0.0, SVG Export Plug-In . SVG Version: 6.00 Build 0)  -->
<!DOCTYPE svg PUBLIC "-//W3C//DTD SVG 1.1//EN" "http://www.w3.org/Graphics/SVG/1.1/DTD/svg11.dtd">
<svg version="1.1" id="Capa_1" xmlns="http://www.w3.org/2000/svg" xmlns:xlink="http://www.w3.org/1999/xlink" x="0px" y="0px"
	 viewBox="0 0 1000 1000" style="enable-background:new 0 0 1000 1000;" xml:space="preserve">
<path style="stroke:#000000;stroke-miterlimit:10;" d="M100.344,987.173c11.657,0,23.033-2.365,33.812-7.029l156.003-67.493
	c16.853-4.906,32.149-13.943,44.668-26.461l618.611-618.611c37.04-37.04,37.041-97.309,0-134.35l-94.025-94.026
	c-17.943-17.943-41.8-27.825-67.175-27.825s-49.232,9.882-67.175,27.825L680.675,83.59l-61.912-62.663
	c-6.55-6.629-15.473-10.373-24.792-10.401c-0.036,0-0.07,0-0.105,0c-9.28,0-18.185,3.687-24.749,10.251L202.975,386.919
	c-13.668,13.668-13.668,35.83,0,49.498c6.834,6.834,15.792,10.251,24.749,10.251s17.914-3.417,24.749-10.251l245.843-245.842
	l37.688,37.688l-429.551,429.55c-13.275,13.275-22.637,29.677-27.307,47.743L20.174,874.055c-9.086,25.959-5.031,54.819,10.847,77.2
	C46.978,973.745,72.893,987.173,100.344,987.173z M144.551,730.579l117.823,117.823L106.358,915.9
	c-2.02,0.874-4.052,1.273-6.015,1.273c-9.696,0-17.691-9.732-14.099-19.995L144.551,730.579z M809.916,88.701l94.025,94.025
	c9.763,9.763,9.763,25.593,0,35.356L317.495,804.527l-129.381-129.38L774.56,88.701c4.882-4.882,11.28-7.322,17.678-7.322
	S805.034,83.819,809.916,88.701z M547.813,141.077l45.903-45.903l37.46,37.915L585.5,178.765L547.813,141.077z"/>
</svg>
