<?xml version="1.0" encoding="iso-8859-1"?>
<!-- Generator: Adobe Illustrator 18.0.0, SVG Export Plug-In . SVG Version: 6.00 Build 0)  -->
<!DOCTYPE svg PUBLIC "-//W3C//DTD SVG 1.1//EN" "http://www.w3.org/Graphics/SVG/1.1/DTD/svg11.dtd">
<svg version="1.1" id="Capa_1" xmlns="http://www.w3.org/2000/svg" xmlns:xlink="http://www.w3.org/1999/xlink" x="0px" y="0px"
	 viewBox="0 0 1000 1000" style="enable-background:new 0 0 1000 1000;" xml:space="preserve">
<path style="stroke:#000000;stroke-miterlimit:10;" d="M120.167,964.139c5.574,0,11.183-0.543,16.673-1.614l132.173-25.79
	c20.797-4.057,39.71-14.122,54.694-29.106l619.476-619.476c37.04-37.041,37.04-97.309,0.001-134.349l-99.35-99.349
	c-17.942-17.943-41.799-27.825-67.175-27.825s-49.232,9.882-67.175,27.825L90.008,673.929
	c-14.984,14.984-25.049,33.897-29.106,54.696L35.111,860.8c-4.98,25.526,1.64,51.67,18.164,71.729
	C69.823,952.617,94.204,964.139,120.167,964.139z M776.659,96.629c6.398,0,12.796,2.441,17.678,7.322l99.349,99.348
	c9.763,9.763,9.763,25.592,0,35.355l-69.827,69.827L689.155,173.777l69.826-69.826C763.863,99.07,770.261,96.629,776.659,96.629z
	 M160.73,702.202l478.927-478.927l134.704,134.704L295.434,836.906L160.73,702.202z M232.141,872.609l-108.71,21.212
	c-1.103,0.215-2.196,0.318-3.264,0.318c-10.211,0-18.408-9.391-16.351-19.933l21.212-108.711L232.141,872.609z"/>
</svg>
