<?xml version="1.0" encoding="iso-8859-1"?>
<!-- Generator: Adobe Illustrator 18.0.0, SVG Export Plug-In . SVG Version: 6.00 Build 0)  -->
<!DOCTYPE svg PUBLIC "-//W3C//DTD SVG 1.1//EN" "http://www.w3.org/Graphics/SVG/1.1/DTD/svg11.dtd">
<svg version="1.1" id="Capa_1" xmlns="http://www.w3.org/2000/svg" xmlns:xlink="http://www.w3.org/1999/xlink" x="0px" y="0px"
	 viewBox="0 0 1000 1000" style="enable-background:new 0 0 1000 1000;" xml:space="preserve">
<path style="fill:#211915;stroke:#000000;stroke-miterlimit:10;" d="M820.579,39.326c-17.942-17.943-41.799-27.825-67.175-27.825
	c-25.375,0-49.232,9.881-67.175,27.825l-85.802,85.802c-14.388-8.438-30.815-12.943-47.937-12.943
	c-25.376,0-49.233,9.883-67.176,27.827L89.381,535.942c-25.221,25.221-44.763,54.665-58.084,87.513
	c-12.852,31.692-19.368,65.159-19.368,99.472s6.517,67.78,19.368,99.472c13.321,32.848,32.863,62.292,58.084,87.513
	s54.664,44.763,87.513,58.083c31.692,12.853,65.16,19.368,99.472,19.368c34.313,0,67.78-6.516,99.473-19.368
	c32.848-13.32,62.292-32.862,87.513-58.084l395.933-395.933c31.147-31.147,36.095-78.716,14.858-115.089l85.824-85.825
	c17.942-17.94,27.825-41.798,27.825-67.175s-9.883-49.235-27.828-67.178L820.579,39.326z M809.787,464.482L413.854,860.415
	c-37.966,37.967-87.727,56.949-137.488,56.949s-99.521-18.982-137.487-56.949c-75.933-75.932-75.933-199.042,0-274.975
	l395.933-395.933c1.604-1.604,3.374-2.939,5.251-4.016c3.837-2.201,8.131-3.307,12.427-3.307c6.398,0,12.796,2.44,17.678,7.322
	l32.438,32.438l174.745,174.745l32.438,32.438c8.159,8.159,9.494,20.552,4.016,30.104
	C812.726,461.108,811.391,462.878,809.787,464.482z M910.47,263.568l-83.623,83.624L652.102,172.447l83.624-83.624
	c4.881-4.882,11.28-7.322,17.678-7.322s12.796,2.44,17.678,7.322l139.389,139.39C920.233,237.976,920.233,253.805,910.47,263.568z"
	/>
<path style="fill:#211915;stroke:#000000;stroke-miterlimit:10;" d="M770.862,133.459c-9.763-9.763-25.592-9.763-35.355,0
	l-15.554,15.554c-9.763,9.763-9.763,25.592,0,35.355l15.554,15.554c9.763,9.763,25.592,9.763,35.355,0l15.554-15.554
	c9.763-9.763,9.763-25.592,0-35.355L770.862,133.459z"/>
<path style="fill:#211915;stroke:#000000;stroke-miterlimit:10;" d="M851.97,214.566c-9.763-9.763-25.592-9.763-35.355,0
	l-15.554,15.554c-9.763,9.763-9.763,25.592,0,35.355l15.554,15.554c9.763,9.763,25.592,9.763,35.355,0l15.554-15.554
	c9.764-9.763,9.764-25.592,0-35.355L851.97,214.566z"/>
</svg>
