<?xml version="1.0" encoding="iso-8859-1"?>
<!-- Generator: Adobe Illustrator 18.0.0, SVG Export Plug-In . SVG Version: 6.00 Build 0)  -->
<!DOCTYPE svg PUBLIC "-//W3C//DTD SVG 1.1//EN" "http://www.w3.org/Graphics/SVG/1.1/DTD/svg11.dtd">
<svg version="1.1" id="Capa_1" xmlns="http://www.w3.org/2000/svg" xmlns:xlink="http://www.w3.org/1999/xlink" x="0px" y="0px"
	 viewBox="0 0 1000 1000" style="enable-background:new 0 0 1000 1000;" xml:space="preserve">
<g>
	<path style="fill:#211915;stroke:#000000;stroke-miterlimit:10;" d="M894,157H106c-52.383,0-95,42.617-95,95v496
		c0,52.383,42.617,95,95,95h788c52.383,0,95-42.617,95-95V252C989,199.617,946.383,157,894,157z M919,748c0,13.807-11.193,25-25,25
		H106c-13.807,0-25-11.193-25-25V252c0-13.807,11.193-25,25-25h788c13.807,0,25,11.193,25,25V748z"/>
	<path style="fill:#211915;stroke:#000000;stroke-miterlimit:10;" d="M398.14,512.539c-3.638-2.884-7.379-5.61-11.215-8.18
		c10.781-11.434,19.346-24.547,25.476-39.039c6.891-16.293,10.385-33.559,10.385-51.319s-3.494-35.026-10.385-51.318
		c-6.641-15.702-16.134-29.789-28.214-41.869c-12.081-12.08-26.167-21.573-41.868-28.214c-16.292-6.892-33.559-10.386-51.319-10.386
		s-35.027,3.494-51.319,10.386c-15.701,6.641-29.788,16.134-41.868,28.214s-21.573,26.167-28.214,41.869
		c-6.891,16.292-10.385,33.559-10.385,51.318c0,17.761,3.494,35.026,10.385,51.319c6.13,14.492,14.695,27.605,25.476,39.039
		c-3.835,2.569-7.577,5.296-11.215,8.18c-29.796,23.623-51.225,56.888-60.338,93.667c-6.694,27.018-0.69,55.092,16.472,77.024
		c8.166,10.436,18.733,19.087,30.558,25.019c12.44,6.239,26.394,9.537,40.352,9.537h160.192c13.958,0,27.912-3.298,40.352-9.537
		c11.825-5.932,22.392-14.583,30.558-25.019c17.162-21.933,23.166-50.007,16.473-77.022
		C449.365,569.427,427.936,536.162,398.14,512.539z M291,352.214c34.124,0,61.787,27.663,61.787,61.787
		c0,17.317-7.435,34.095-20.253,45.736c-38.877,35.306-103.32,6.313-103.32-45.736C229.213,379.877,256.876,352.214,291,352.214z
		 M371.096,647.786H210.904c-12.965,0-22.555-12.159-19.437-24.744c5.771-23.294,19.891-44.127,39.295-58.231
		c52.274-37.995,129.024-16.474,154.428,42.383c2.212,5.124,4.001,10.43,5.343,15.847
		C393.651,635.627,384.061,647.786,371.096,647.786z"/>
	<path style="fill:#211915;stroke:#000000;stroke-miterlimit:10;" d="M822.025,645h-255.13c-19.33,0-35,15.67-35,35s15.67,35,35,35
		h255.13c19.33,0,35-15.67,35-35S841.355,645,822.025,645z"/>
	<path style="fill:#211915;stroke:#000000;stroke-miterlimit:10;" d="M822.025,463.5h-255.13c-19.33,0-35,15.67-35,35
		c0,19.33,15.67,35,35,35h255.13c19.33,0,35-15.67,35-35S841.355,463.5,822.025,463.5z"/>
	<path style="fill:#211915;stroke:#000000;stroke-miterlimit:10;" d="M822.025,282h-255.13c-19.33,0-35,15.67-35,35s15.67,35,35,35
		h255.13c19.33,0,35-15.67,35-35S841.355,282,822.025,282z"/>
</g>
</svg>
