<?xml version="1.0" encoding="iso-8859-1"?>
<!-- Generator: Adobe Illustrator 18.0.0, SVG Export Plug-In . SVG Version: 6.00 Build 0)  -->
<!DOCTYPE svg PUBLIC "-//W3C//DTD SVG 1.1//EN" "http://www.w3.org/Graphics/SVG/1.1/DTD/svg11.dtd">
<svg version="1.1" id="Capa_1" xmlns="http://www.w3.org/2000/svg" xmlns:xlink="http://www.w3.org/1999/xlink" x="0px" y="0px"
	 viewBox="0 0 1000 1000" style="enable-background:new 0 0 1000 1000;" xml:space="preserve">
<path style="stroke:#000000;stroke-miterlimit:10;" d="M787.574,704.372c-44.244-38.669-99.567-61.94-157.771-66.77
	c13-8.626,25.146-18.55,36.325-29.729c21.554-21.554,38.484-46.672,50.321-74.657c12.27-29.01,18.491-59.785,18.491-91.471
	s-6.221-62.461-18.491-91.471c-5.377-12.712-11.816-24.825-19.25-36.288c2.478-2.391,4.81-4.866,6.946-7.445
	c12.578-15.18,19.226-33.273,19.226-52.322v-0.085v-0.085l-0.193-79.241c-0.033-13.574-2.822-26.662-8.29-38.9
	c-5.223-11.691-12.644-22.052-22.057-30.797c-17.845-16.579-41.086-25.709-65.441-25.709c-11.8,0-23.301,2.144-34.23,6.377
	l-8.346-16.208c-16.459-31.968-49.021-51.828-84.979-51.83c-35.955-0.003-68.519,19.853-84.983,51.818l-8.408,16.325
	c-10.861-4.176-22.284-6.292-34.002-6.294c-24.405-0.003-47.681,9.156-65.541,25.791c-9.42,8.773-16.837,19.167-22.046,30.891
	c-5.453,12.271-8.215,25.388-8.21,38.988l0.025,79.355c0,19.016,6.636,37.095,19.191,52.261c2.098,2.533,4.381,4.967,6.807,7.317
	c-7.377,11.402-13.771,23.447-19.115,36.082c-12.27,29.01-18.491,59.785-18.491,91.471s6.221,62.461,18.491,91.471
	c11.837,27.985,28.767,53.103,50.321,74.657c11.179,11.179,23.325,21.103,36.325,29.729c-58.204,4.83-113.527,28.101-157.771,66.77
	c-49.461,43.229-81.811,102.706-91.091,167.475c-3.934,27.465,4.231,55.238,22.404,76.198c18.166,20.955,44.49,32.972,72.221,32.972
	h568.08c27.731,0,54.055-12.018,72.221-32.972c18.172-20.961,26.338-48.733,22.404-76.196
	C869.385,807.078,837.035,747.601,787.574,704.372z M784.04,911.018H215.96c-15.585,0-27.542-13.815-25.333-29.242
	c14.187-99.019,99.353-175.129,202.295-175.129h214.154c102.942,0,188.108,76.111,202.295,175.129
	C811.583,897.203,799.625,911.018,784.04,911.018z M390.874,157.704l12.222,13.001c5.129,5.456,11.891,8.065,18.598,8.065
	c9.117,0,18.132-4.824,22.793-13.875l32.595-63.284c4.763-9.248,13.755-13.872,22.748-13.871c8.993,0,17.987,4.625,22.75,13.874
	l32.579,63.274c4.662,9.054,13.675,13.878,22.795,13.878c6.705,0,13.469-2.61,18.597-8.065l12.396-13.187
	c5.271-5.606,11.914-8.113,18.443-8.113c13.113,0,25.75,10.122,25.788,25.576l0.193,79.241c0,2.463-0.96,4.87-2.771,7.202
	c-5.165,6.651-17.333,12.686-34.531,17.616c-14.699,4.215-33.067,7.622-53.855,9.918c-19.077,2.107-40.188,3.281-62.38,3.281
	c-22.157,0-43.211-1.144-62.226-3.207c-20.843-2.262-39.231-5.629-53.919-9.813c-17.267-4.918-29.417-10.964-34.44-17.664
	c-1.688-2.252-2.579-4.577-2.579-6.958l-0.025-79.355c-0.005-15.49,12.65-25.649,25.789-25.647
	C378.958,149.591,385.604,152.098,390.874,157.704z M365.173,346.723c3.138,0.884,6.366,1.738,9.709,2.557
	c34.125,8.355,78.5,12.957,124.951,12.957c46.435,0,90.934-4.682,125.299-13.183c3.287-0.813,6.462-1.661,9.552-2.536
	c19.055,26.9,30.256,59.756,30.256,95.23c0,91.094-73.846,164.94-164.94,164.94s-164.94-73.846-164.94-164.94
	C335.06,406.363,346.207,373.585,365.173,346.723z"/>
</svg>
