<?xml version="1.0" encoding="iso-8859-1"?>
<!-- Generator: Adobe Illustrator 18.0.0, SVG Export Plug-In . SVG Version: 6.00 Build 0)  -->
<!DOCTYPE svg PUBLIC "-//W3C//DTD SVG 1.1//EN" "http://www.w3.org/Graphics/SVG/1.1/DTD/svg11.dtd">
<svg version="1.1" id="Capa_1" xmlns="http://www.w3.org/2000/svg" xmlns:xlink="http://www.w3.org/1999/xlink" x="0px" y="0px"
	 viewBox="0 0 1000 1000" style="enable-background:new 0 0 1000 1000;" xml:space="preserve">
<path style="fill:#211915;stroke:#000000;stroke-miterlimit:10;" d="M229.632,8.614c-52.383,0-95,42.617-95,95v791.05
	c0,52.383,42.617,95,95,95h540.737c52.383,0,95-42.617,95-95v-791.05c0-52.383-42.617-95-95-95L229.632,8.614L229.632,8.614z
	 M795.369,103.614v791.05c0,13.807-11.193,25-25,25H229.632c-13.807,0-25-11.193-25-25v-791.05c0-13.807,11.193-25,25-25h540.737
	C784.176,78.614,795.369,89.807,795.369,103.614z"/>
<path style="fill:#211915;stroke:#000000;stroke-miterlimit:10;" d="M649.387,118.798H350.614c-52.383,0-95,42.617-95,95v285.341
	c0,52.383,42.617,95,95,95h298.773c52.383,0,95-42.617,95-95V213.798C744.387,161.415,701.77,118.798,649.387,118.798z
	 M674.387,499.139c0,13.807-11.193,25-25,25H350.614c-13.807,0-25-11.193-25-25V213.798c0-13.807,11.193-25,25-25h298.773
	c13.807,0,25,11.193,25,25V499.139z"/>
<path style="fill:#211915;stroke:#000000;stroke-miterlimit:10;" d="M356.346,642.653h-61.464c-19.33,0-35,15.67-35,35
	s15.67,35,35,35h61.464c19.33,0,35-15.67,35-35S375.676,642.653,356.346,642.653z"/>
<path style="fill:#211915;stroke:#000000;stroke-miterlimit:10;" d="M530.732,642.653h-61.464c-19.33,0-35,15.67-35,35
	s15.67,35,35,35h61.464c19.33,0,35-15.67,35-35S550.062,642.653,530.732,642.653z"/>
<path style="fill:#211915;stroke:#000000;stroke-miterlimit:10;" d="M705.119,642.653h-61.464c-19.33,0-35,15.67-35,35
	s15.67,35,35,35h61.464c19.33,0,35-15.67,35-35S724.449,642.653,705.119,642.653z"/>
<path style="fill:#211915;stroke:#000000;stroke-miterlimit:10;" d="M356.346,798.167h-61.464c-19.33,0-35,15.67-35,35
	s15.67,35,35,35h61.464c19.33,0,35-15.67,35-35S375.676,798.167,356.346,798.167z"/>
<path style="fill:#211915;stroke:#000000;stroke-miterlimit:10;" d="M530.732,798.167h-61.464c-19.33,0-35,15.67-35,35
	s15.67,35,35,35h61.464c19.33,0,35-15.67,35-35S550.062,798.167,530.732,798.167z"/>
<path style="fill:#211915;stroke:#000000;stroke-miterlimit:10;" d="M705.119,798.167h-61.464c-19.33,0-35,15.67-35,35
	s15.67,35,35,35h61.464c19.33,0,35-15.67,35-35S724.449,798.167,705.119,798.167z"/>
</svg>
