<?xml version="1.0" encoding="iso-8859-1"?>
<!-- Generator: Adobe Illustrator 18.0.0, SVG Export Plug-In . SVG Version: 6.00 Build 0)  -->
<!DOCTYPE svg PUBLIC "-//W3C//DTD SVG 1.1//EN" "http://www.w3.org/Graphics/SVG/1.1/DTD/svg11.dtd">
<svg version="1.1" id="Capa_1" xmlns="http://www.w3.org/2000/svg" xmlns:xlink="http://www.w3.org/1999/xlink" x="0px" y="0px"
	 viewBox="0 0 1000 1000" style="enable-background:new 0 0 1000 1000;" xml:space="preserve">
<path style="fill:#211915;stroke:#000000;stroke-miterlimit:10;" d="M491.52,731.899c20.633,20.632,44.678,36.839,71.468,48.17
	c27.772,11.747,57.233,17.703,87.564,17.703s59.792-5.956,87.564-17.703c26.79-11.331,50.835-27.538,71.467-48.17
	c20.633-20.632,36.839-44.677,48.17-71.467c11.747-27.773,17.703-57.233,17.703-87.564s-5.956-59.792-17.703-87.564
	c-11.331-26.79-27.537-50.835-48.17-71.467c-20.632-20.632-44.677-36.839-71.467-48.17c-27.772-11.747-57.233-17.703-87.564-17.703
	s-59.792,5.956-87.564,17.703c-26.79,11.331-50.835,27.538-71.468,48.17c-20.632,20.632-36.839,44.677-48.17,71.467
	c-11.747,27.773-17.703,57.234-17.703,87.565c0,30.331,5.956,59.792,17.703,87.565C454.681,687.222,470.888,711.267,491.52,731.899z
	 M650.552,417.963c85.552,0,154.904,69.353,154.904,154.905c0,85.551-69.353,154.905-154.904,154.905
	S495.647,658.42,495.647,572.868C495.646,487.316,565,417.963,650.552,417.963z"/>
<path style="fill:#211915;stroke:#000000;stroke-miterlimit:10;" d="M650.552,666.804c51.797,0,93.937-42.14,93.937-93.937
	s-42.14-93.936-93.937-93.936s-93.937,42.14-93.937,93.936C556.615,624.664,598.755,666.804,650.552,666.804z M650.552,548.931
	c13.198,0,23.937,10.738,23.937,23.936c0,13.199-10.738,23.937-23.937,23.937s-23.937-10.738-23.937-23.937
	C626.615,559.669,637.354,548.931,650.552,548.931z"/>
<path style="fill:#211915;stroke:#000000;stroke-miterlimit:10;" d="M109.211,907.933h781.578c52.383,0,95-42.617,95-95V332.802
	c0-52.383-42.617-95-95-95h-81.883L302.7,41.054c-18.019-7.002-38.3,1.926-45.302,19.943c-7.003,18.017,1.926,38.299,19.942,45.302
	l338.34,131.503H109.211c-52.383,0-95,42.617-95,95v480.132C14.211,865.316,56.828,907.933,109.211,907.933z M84.211,332.802
	c0-13.807,11.192-25,25-25h781.578c13.808,0,25,11.193,25,25v480.132c0,13.807-11.192,25-25,25H109.211c-13.808,0-25-11.193-25-25
	V332.802z"/>
<path style="fill:#211915;stroke:#000000;stroke-miterlimit:10;" d="M170.592,762.772h187.19c19.33,0,35-15.67,35-35
	s-15.67-35-35-35h-187.19c-19.33,0-35,15.67-35,35S151.262,762.772,170.592,762.772z"/>
</svg>
