<?xml version="1.0" encoding="iso-8859-1"?>
<!-- Generator: Adobe Illustrator 18.0.0, SVG Export Plug-In . SVG Version: 6.00 Build 0)  -->
<!DOCTYPE svg PUBLIC "-//W3C//DTD SVG 1.1//EN" "http://www.w3.org/Graphics/SVG/1.1/DTD/svg11.dtd">
<svg version="1.1" id="Capa_1" xmlns="http://www.w3.org/2000/svg" xmlns:xlink="http://www.w3.org/1999/xlink" x="0px" y="0px"
	 viewBox="0 0 1000 1000" style="enable-background:new 0 0 1000 1000;" xml:space="preserve">
<g>
	<path style="fill:#211915;stroke:#000000;stroke-miterlimit:10;" d="M886.214,221.624H428.968v-15.641c0-52.383-42.617-95-95-95
		h-95.989c-52.383,0-95,42.617-95,95v15.641h-25.592c-52.688,0-95.553,42.864-95.553,95.553v457.815
		c0,52.688,42.865,95.553,95.553,95.553h768.827c52.688,0,95.553-42.865,95.553-95.553V317.177
		C981.767,264.488,938.902,221.624,886.214,221.624z M212.979,205.983c0-13.807,11.193-25,25-25h95.989c13.807,0,25,11.193,25,25
		v15.641H212.979V205.983z M911.767,774.992c0,14.112-11.44,25.553-25.553,25.553H117.387c-14.112,0-25.553-11.44-25.553-25.553
		V317.177c0-14.112,11.44-25.553,25.553-25.553h25.592v0.354h70h145.989h70v-0.354h457.246c14.112,0,25.553,11.44,25.553,25.553
		L911.767,774.992L911.767,774.992z"/>
	<path style="fill:#211915;stroke:#000000;stroke-miterlimit:10;" d="M752.844,410.7c-17.561-17.561-38.029-31.355-60.836-41.002
		c-23.649-10.004-48.73-15.075-74.547-15.075s-50.897,5.071-74.547,15.075c-22.807,9.646-43.276,23.441-60.836,41.002
		c-17.561,17.562-31.356,38.029-41.003,60.837C431.072,495.187,426,520.268,426,546.084s5.072,50.897,15.075,74.547
		c9.646,22.808,23.442,43.275,41.003,60.837c17.561,17.561,38.029,31.355,60.836,41.002c23.649,10.004,48.73,15.075,74.547,15.075
		s50.897-5.071,74.547-15.075c22.807-9.646,43.276-23.441,60.836-41.002c17.561-17.562,31.356-38.029,41.003-60.837
		c10.003-23.649,15.075-48.73,15.075-74.547s-5.072-50.897-15.075-74.547C784.201,448.729,770.405,428.262,752.844,410.7z
		 M617.461,667.545C550.38,667.545,496,613.165,496,546.084s54.38-121.461,121.461-121.461s121.461,54.38,121.461,121.461
		S684.542,667.545,617.461,667.545z"/>
	<circle style="fill:#211915;stroke:#000000;stroke-miterlimit:10;" cx="827.5" cy="370.124" r="35.5"/>
</g>
</svg>
