<?xml version="1.0" encoding="iso-8859-1"?>
<!-- Generator: Adobe Illustrator 18.0.0, SVG Export Plug-In . SVG Version: 6.00 Build 0)  -->
<!DOCTYPE svg PUBLIC "-//W3C//DTD SVG 1.1//EN" "http://www.w3.org/Graphics/SVG/1.1/DTD/svg11.dtd">
<svg version="1.1" id="Capa_1" xmlns="http://www.w3.org/2000/svg" xmlns:xlink="http://www.w3.org/1999/xlink" x="0px" y="0px"
	 viewBox="0 0 1000 1000" style="enable-background:new 0 0 1000 1000;" xml:space="preserve">
<g>
	<path style="fill:#211915;stroke:#000000;stroke-miterlimit:10;" d="M895.956,160.979H106.054c-52.383,0-95,42.617-95,95v519.565
		c0,52.383,42.617,95,95,95h789.902c52.383,0,95-42.617,95-95V255.979C990.956,203.596,948.339,160.979,895.956,160.979z
		 M920.956,775.544c0,13.808-11.193,25-25,25H106.054c-13.807,0-25-11.192-25-25V255.979c0-13.808,11.193-25,25-25h789.902
		c13.807,0,25,11.192,25,25V775.544z"/>
	<path style="fill:#211915;stroke:#000000;stroke-miterlimit:10;" d="M754.043,281.907c-55.339,0-100.361,45.021-100.361,100.361
		S698.704,482.63,754.043,482.63s100.361-45.021,100.361-100.361S809.382,281.907,754.043,281.907z M754.043,412.63
		c-16.768,0-30.361-13.593-30.361-30.361s13.593-30.361,30.361-30.361s30.361,13.594,30.361,30.361
		C784.404,399.037,770.811,412.63,754.043,412.63z"/>
	<path style="fill:#211915;stroke:#000000;stroke-miterlimit:10;" d="M636.782,536.385c-9.763-9.764-25.592-9.764-35.355,0
		l-73.894,73.893L394.314,477.061c-9.763-9.764-25.592-9.764-35.355,0L147.825,688.193c-9.763,9.763-9.763,25.592,0,35.355
		l14.143,14.143c9.763,9.763,25.592,9.763,35.355,0l161.636-161.637c9.763-9.763,25.592-9.764,35.355,0l161.637,161.637
		c9.763,9.764,25.592,9.764,35.355,0l14.143-14.143c9.763-9.763,9.763-25.593,0-35.355l-28.418-28.418l42.074-42.074l121.359,121.36
		c9.763,9.763,25.592,9.763,35.355,0l14.143-14.143c9.763-9.763,9.763-25.593,0-35.355L636.782,536.385z"/>
</g>
</svg>
