<?xml version="1.0" encoding="iso-8859-1"?>
<!-- Generator: Adobe Illustrator 18.0.0, SVG Export Plug-In . SVG Version: 6.00 Build 0)  -->
<!DOCTYPE svg PUBLIC "-//W3C//DTD SVG 1.1//EN" "http://www.w3.org/Graphics/SVG/1.1/DTD/svg11.dtd">
<svg version="1.1" id="Capa_1" xmlns="http://www.w3.org/2000/svg" xmlns:xlink="http://www.w3.org/1999/xlink" x="0px" y="0px"
	 viewBox="0 0 1000 1000" style="enable-background:new 0 0 1000 1000;" xml:space="preserve">
<path style="stroke:#000000;stroke-miterlimit:10;" d="M947.341,388.778c-14.423-14.423-31.237-25.754-49.976-33.68
	c-19.437-8.221-40.043-12.389-61.247-12.389H167.892c-21.204,0-41.81,4.168-61.247,12.39c-18.739,7.926-35.553,19.257-49.976,33.68
	c-14.422,14.423-25.754,31.237-33.68,49.976C14.769,458.19,10.6,478.797,10.6,500c0,21.204,4.168,41.81,12.389,61.246
	c7.926,18.739,19.257,35.553,33.68,49.976c14.424,14.423,31.238,25.754,49.976,33.68c19.437,8.221,40.043,12.389,61.247,12.389
	h668.227c21.204,0,41.81-4.168,61.247-12.39c18.738-7.926,35.553-19.257,49.976-33.68c14.422-14.423,25.754-31.237,33.68-49.975
	c8.221-19.437,12.39-40.043,12.39-61.246c0-21.203-4.168-41.809-12.389-61.246C973.096,420.015,961.764,403.201,947.341,388.778z
	 M836.119,587.292H167.892c-24.105,0-45.928-9.771-61.725-25.567C90.37,545.928,80.6,524.105,80.6,500
	c0-48.21,39.082-87.292,87.292-87.292h668.227c48.211,0,87.292,39.082,87.292,87.292C923.41,548.21,884.329,587.292,836.119,587.292
	z"/>
</svg>
