<?xml version="1.0" encoding="iso-8859-1"?>
<!-- Generator: Adobe Illustrator 18.0.0, SVG Export Plug-In . SVG Version: 6.00 Build 0)  -->
<!DOCTYPE svg PUBLIC "-//W3C//DTD SVG 1.1//EN" "http://www.w3.org/Graphics/SVG/1.1/DTD/svg11.dtd">
<svg version="1.1" id="Capa_1" xmlns="http://www.w3.org/2000/svg" xmlns:xlink="http://www.w3.org/1999/xlink" x="0px" y="0px"
	 viewBox="0 0 1000 1000" style="enable-background:new 0 0 1000 1000;" xml:space="preserve">
<path style="stroke:#000000;stroke-miterlimit:10;" d="M50.692,979.976c6.728,6.201,15.231,9.264,23.712,9.264
	c9.437,0,18.845-3.793,25.744-11.279l240.973-261.442l156.953,138.213c17.351,15.28,39.623,23.695,62.714,23.695
	c15.838,0,31.561-3.997,45.47-11.56c14.52-7.895,26.798-19.524,35.507-33.631c14.362-23.265,25.638-50.007,33.512-79.485
	c5.069-18.978,8.852-39.593,11.283-61.456l139.247-158.127c2.749,0.241,5.516,0.362,8.296,0.362
	c27.286,0,53.276-11.742,71.306-32.216l40.19-45.64c16.771-19.043,25.12-43.478,23.513-68.803s-12.981-48.508-32.026-65.278
	L618.305,41.875c-17.359-15.286-39.652-23.704-62.774-23.704c-27.286,0-53.276,11.742-71.306,32.216l-40.19,45.64
	c-16.771,19.044-25.12,43.479-23.513,68.803c0.307,4.823,0.967,9.568,1.967,14.205l-139.23,158.108
	c-21.38,5.177-41.352,11.536-59.537,18.966c-28.245,11.539-53.348,26.105-74.609,43.295c-21.86,17.673-34.737,43.915-35.329,71.997
	c-0.591,28.027,11.137,54.729,32.177,73.258l142.615,125.587L48.678,930.52C35.577,944.733,36.479,966.875,50.692,979.976z
	 M193.121,453.84c34.369-27.787,78.04-42.842,119.351-51.542c5.302-1.117,10.109-3.889,13.689-7.955l182.921-207.722l-10.273-9.047
	c-10.362-9.125-11.365-24.922-2.24-35.284l40.19-45.64c4.941-5.612,11.84-8.478,18.771-8.478c5.869,0,11.763,2.055,16.513,6.238
	l318.781,280.72c10.362,9.125,11.365,24.922,2.24,35.284l-40.19,45.64c-4.941,5.612-11.839,8.478-18.771,8.478
	c-5.868,0-11.763-2.055-16.513-6.238l-10.273-9.046L624.396,656.97c-3.581,4.066-5.723,9.185-6.16,14.585
	c-3.406,42.079-12.817,87.303-36.034,124.91c-4.813,7.797-13.062,11.962-21.413,11.962c-5.81,0-11.668-2.016-16.452-6.229
	L388.575,665.035l-52.548-46.273L192.223,492.126C180.562,481.858,181.038,463.608,193.121,453.84z"/>
</svg>
