<?xml version="1.0" encoding="iso-8859-1"?>
<!-- Generator: Adobe Illustrator 18.0.0, SVG Export Plug-In . SVG Version: 6.00 Build 0)  -->
<!DOCTYPE svg PUBLIC "-//W3C//DTD SVG 1.1//EN" "http://www.w3.org/Graphics/SVG/1.1/DTD/svg11.dtd">
<svg version="1.1" id="Capa_1" xmlns="http://www.w3.org/2000/svg" xmlns:xlink="http://www.w3.org/1999/xlink" x="0px" y="0px"
	 viewBox="0 0 1000 1000" style="enable-background:new 0 0 1000 1000;" xml:space="preserve">
<path style="stroke:#000000;stroke-miterlimit:10;" d="M486.322,566.631c-53.113,0-96.323,43.211-96.323,96.323
	s43.211,96.323,96.323,96.323s96.323-43.211,96.323-96.323S539.435,566.631,486.322,566.631z M486.322,689.278
	c-14.538,0-26.323-11.786-26.323-26.323s11.785-26.323,26.323-26.323s26.323,11.786,26.323,26.323S500.86,689.278,486.322,689.278z"
	/>
<path style="stroke:#000000;stroke-miterlimit:10;" d="M763.447,482.684c0-53.672-43.665-97.336-97.336-97.336
	s-97.336,43.665-97.336,97.336s43.665,97.336,97.336,97.336S763.447,536.356,763.447,482.684z M638.774,482.684
	c0-15.097,12.239-27.336,27.336-27.336s27.336,12.239,27.336,27.336s-12.239,27.336-27.336,27.336S638.774,497.782,638.774,482.684z
	"/>
<path style="stroke:#000000;stroke-miterlimit:10;" d="M736.643,621.483c-29.208,0-56.668,11.374-77.321,32.027
	c-20.653,20.653-32.027,48.113-32.027,77.321s11.374,56.668,32.028,77.321c20.653,20.653,48.113,32.027,77.321,32.027
	s56.668-11.374,77.321-32.027c20.653-20.653,32.028-48.113,32.028-77.321s-11.374-56.668-32.027-77.321
	C793.31,632.857,765.851,621.483,736.643,621.483z M736.643,770.179c-21.731,0-39.348-17.617-39.348-39.348
	s17.617-39.348,39.348-39.348s39.348,17.617,39.348,39.348S758.374,770.179,736.643,770.179z"/>
<path style="stroke:#000000;stroke-miterlimit:10;" d="M789.404,196.769l-23.338-64.953c3.023-30.537-7.132-62.145-30.472-85.486
	l-9.445-9.445C706.13,16.866,679.511,5.84,651.196,5.84c-28.314,0-54.932,11.026-74.953,31.047L40.52,572.61
	c-41.329,41.33-41.329,108.577,0,149.906l9.445,9.445c20.02,20.02,46.639,31.046,74.952,31.046c3.585,0,7.142-0.178,10.662-0.528
	l64.824,23.291l549.734,197.522c10.626,3.818,21.725,5.755,32.989,5.755c41.742,0,78.839-26.541,92.31-66.043
	c11.983-35.135,35.505-66.18,66.234-87.417c36.443-25.185,51.466-71.804,36.532-113.368L789.404,196.769z M90.017,622.107
	L625.741,86.384c7.029-7.029,16.243-10.544,25.456-10.544s18.426,3.515,25.456,10.544l9.444,9.444
	c14.059,14.059,14.059,36.853,0,50.912L150.373,682.462c-7.029,7.03-16.243,10.544-25.456,10.544s-18.426-3.515-25.456-10.544
	l-9.444-9.443C75.959,658.96,75.959,636.166,90.017,622.107z M901.872,778.001c-42.734,29.533-75.606,72.314-92.689,122.408
	c-3.908,11.459-14.616,18.638-26.058,18.638c-3.092,0-6.24-0.525-9.319-1.631L224.072,719.894l499.455-499.455L912.324,745.89
	C916.577,757.725,912.218,770.852,901.872,778.001z"/>
</svg>
