<?xml version="1.0" encoding="iso-8859-1"?>
<!-- Generator: Adobe Illustrator 18.0.0, SVG Export Plug-In . SVG Version: 6.00 Build 0)  -->
<!DOCTYPE svg PUBLIC "-//W3C//DTD SVG 1.1//EN" "http://www.w3.org/Graphics/SVG/1.1/DTD/svg11.dtd">
<svg version="1.1" id="Capa_1" xmlns="http://www.w3.org/2000/svg" xmlns:xlink="http://www.w3.org/1999/xlink" x="0px" y="0px"
	 viewBox="0 0 1000 1000" style="enable-background:new 0 0 1000 1000;" xml:space="preserve">
<path style="stroke:#000000;stroke-miterlimit:10;" d="M58.268,685.75c20.022,20.021,46.641,31.047,74.953,31.047
	c1.879,0,3.75-0.052,5.613-0.149l60.679,21.802l653.584,234.836c10.641,3.824,21.71,5.762,32.9,5.762
	c31.401,0,61.005-15.439,79.192-41.298c8.622-12.26,14.347-26.535,16.556-41.282c2.353-15.717,0.727-32.012-4.703-47.126
	L742.206,195.758l-21.802-60.678c0.097-1.863,0.149-3.735,0.149-5.614c0-28.314-11.026-54.933-31.048-74.954l-3.847-3.847
	c-20.02-20.021-46.639-31.047-74.953-31.047s-54.934,11.026-74.954,31.047L54.42,531.996c-20.021,20.02-31.047,46.639-31.047,74.953
	s11.026,54.933,31.048,74.954L58.268,685.75z M911.166,873.012c6.567,18.277-7.569,36.037-25.167,36.037
	c-3.004,0-6.11-0.518-9.23-1.639L223.183,672.574l453.146-453.146L911.166,873.012z M103.918,581.494l481.331-481.331
	c7.029-7.029,16.242-10.544,25.456-10.544c9.213,0,18.426,3.515,25.455,10.544l3.848,3.848c14.06,14.059,14.06,36.853,0,50.911
	L158.677,636.253c-7.029,7.029-16.242,10.544-25.456,10.544c-9.213,0-18.426-3.515-25.455-10.544l-3.848-3.848
	C89.858,618.346,89.858,595.553,103.918,581.494z"/>
<path style="stroke:#000000;stroke-miterlimit:10;" d="M462.117,528.032c-51.767,0-93.883,42.116-93.883,93.883
	s42.116,93.883,93.883,93.883S556,673.681,556,621.914S513.884,528.032,462.117,528.032z M462.117,645.797
	c-13.19,0-23.883-10.693-23.883-23.883s10.693-23.883,23.883-23.883S486,608.724,486,621.914S475.307,645.797,462.117,645.797z"/>
<path style="stroke:#000000;stroke-miterlimit:10;" d="M529.434,458.358c0,52.274,42.528,94.802,94.802,94.802
	s94.802-42.528,94.802-94.802s-42.528-94.802-94.802-94.802S529.434,406.084,529.434,458.358z M649.038,458.358
	c0,13.698-11.104,24.802-24.802,24.802s-24.802-11.104-24.802-24.802s11.104-24.802,24.802-24.802S649.038,444.66,649.038,458.358z"
	/>
<path style="stroke:#000000;stroke-miterlimit:10;" d="M610.367,694.064c0,51.427,41.839,93.267,93.267,93.267
	c51.427,0,93.267-41.839,93.267-93.267s-41.839-93.267-93.267-93.267C652.206,600.797,610.367,642.636,610.367,694.064z
	 M726.9,694.064c0,12.85-10.417,23.267-23.267,23.267c-12.85,0-23.267-10.417-23.267-23.267s10.417-23.267,23.267-23.267
	C716.483,670.797,726.9,681.214,726.9,694.064z"/>
</svg>
