<?xml version="1.0" encoding="iso-8859-1"?>
<!-- Generator: Adobe Illustrator 18.0.0, SVG Export Plug-In . SVG Version: 6.00 Build 0)  -->
<!DOCTYPE svg PUBLIC "-//W3C//DTD SVG 1.1//EN" "http://www.w3.org/Graphics/SVG/1.1/DTD/svg11.dtd">
<svg version="1.1" id="Capa_1" xmlns="http://www.w3.org/2000/svg" xmlns:xlink="http://www.w3.org/1999/xlink" x="0px" y="0px"
	 viewBox="0 0 1000 1000" style="enable-background:new 0 0 1000 1000;" xml:space="preserve">
<path style="fill:#211915;stroke:#000000;stroke-miterlimit:10;" d="M137.91,429.332c5.309,41.401,15.797,85.163,31.174,130.069
	c21.101,61.626,50.911,123.538,88.604,184.014c46.464,74.55,105.167,147.224,174.478,216.004
	c18.159,18.021,42.25,27.946,67.834,27.946c25.584,0,49.676-9.926,67.836-27.948c69.309-68.778,128.012-141.453,174.476-216.002
	c37.693-60.476,67.504-122.387,88.604-184.014c15.377-44.906,25.865-88.668,31.174-130.069c3.645-28.42,3.65-46.764,3.49-53.237
	c-0.142-48.939-9.814-96.449-28.756-141.232c-18.417-43.541-44.767-82.631-78.319-116.183s-72.641-59.902-116.183-78.318
	c-45.116-19.083-93-28.758-142.322-28.758s-97.206,9.676-142.322,28.758c-43.542,18.417-82.631,44.767-116.183,78.318
	c-33.553,33.552-59.902,72.642-78.319,116.183c-18.941,44.783-28.614,92.296-28.756,141.232
	C134.26,382.568,134.266,400.911,137.91,429.332z M518.527,909.731c-5.128,5.089-11.828,7.634-18.527,7.634
	s-13.399-2.545-18.527-7.634C194.451,624.907,204.409,377.387,204.418,377.188v-0.002C204.418,213.94,336.755,81.603,500,81.603
	S795.582,213.94,795.582,377.185v0.002C795.591,377.387,805.549,624.907,518.527,909.731z"/>
<path style="fill:#211915;stroke:#000000;stroke-miterlimit:10;" d="M662.064,205.688c-21.026-21.026-45.53-37.542-72.83-49.089
	c-28.302-11.97-58.324-18.04-89.234-18.04s-60.933,6.07-89.234,18.04c-27.3,11.547-51.804,28.063-72.83,49.089
	s-37.542,45.53-49.09,72.83c-11.971,28.301-18.04,58.324-18.04,89.234s6.069,60.933,18.04,89.234
	c11.548,27.3,28.063,51.804,49.09,72.83c21.026,21.026,45.53,37.542,72.83,49.089c28.302,11.97,58.324,18.04,89.234,18.04
	s60.933-6.07,89.234-18.04c27.3-11.547,51.804-28.063,72.83-49.089s37.542-45.53,49.09-72.83
	c11.971-28.301,18.04-58.324,18.04-89.234s-6.069-60.933-18.04-89.234C699.606,251.218,683.091,226.714,662.064,205.688z
	 M500,526.946c-87.92,0-159.194-71.273-159.194-159.194S412.08,208.559,500,208.559s159.194,71.273,159.194,159.194
	S587.92,526.946,500,526.946z"/>
</svg>
