<?xml version="1.0" encoding="iso-8859-1"?>
<!-- Generator: Adobe Illustrator 18.0.0, SVG Export Plug-In . SVG Version: 6.00 Build 0)  -->
<!DOCTYPE svg PUBLIC "-//W3C//DTD SVG 1.1//EN" "http://www.w3.org/Graphics/SVG/1.1/DTD/svg11.dtd">
<svg version="1.1" id="Capa_1" xmlns="http://www.w3.org/2000/svg" xmlns:xlink="http://www.w3.org/1999/xlink" x="0px" y="0px"
	 viewBox="0 0 1000 1000" style="enable-background:new 0 0 1000 1000;" xml:space="preserve">
<g>
	<path style="fill:#211915;stroke:#000000;stroke-miterlimit:10;" d="M911.091,419.279L232.01,27.211
		c-14.188-8.191-30.291-12.521-46.566-12.522h-0.002h-0.002h-0.005c-51.413,0.006-93.238,41.835-93.238,93.243v784.137
		c0,51.414,41.829,93.243,93.244,93.243c16.276,0,32.378-4.329,46.567-12.521l679.084-392.069
		c14.685-8.479,26.763-20.749,34.929-35.483c7.638-13.782,11.676-29.427,11.675-45.241c-0.001-15.813-4.038-31.457-11.677-45.238
		C937.852,440.024,925.774,427.756,911.091,419.279z M876.092,520.1L197.01,912.168c-3.739,2.158-7.706,3.144-11.569,3.144
		c-12.124,0-23.244-9.694-23.244-23.243V107.932c0-13.547,11.122-23.241,23.243-23.243c3.865,0,7.829,0.984,11.57,3.145
		l679.082,392.068C891.564,488.834,891.564,511.166,876.092,520.1z"/>
</g>
</svg>
