<?xml version="1.0" encoding="iso-8859-1"?>
<!-- Generator: Adobe Illustrator 18.0.0, SVG Export Plug-In . SVG Version: 6.00 Build 0)  -->
<!DOCTYPE svg PUBLIC "-//W3C//DTD SVG 1.1//EN" "http://www.w3.org/Graphics/SVG/1.1/DTD/svg11.dtd">
<svg version="1.1" id="Capa_1" xmlns="http://www.w3.org/2000/svg" xmlns:xlink="http://www.w3.org/1999/xlink" x="0px" y="0px"
	 viewBox="0 0 1000 1000" style="enable-background:new 0 0 1000 1000;" xml:space="preserve">
<g>
	<path style="fill:#211915;stroke:#000000;stroke-miterlimit:10;" d="M784.489,989.375c52.383,0,95-42.617,95-95V111.919
		c0-52.383-42.617-95-95-95H215.511c-52.383,0-95,42.617-95,95v782.456c0,52.383,42.617,95,95,95H784.489z M190.511,894.375V111.919
		c0-13.807,11.193-25,25-25h568.977c13.807,0,25,11.193,25,25v782.456c0,13.807-11.193,25-25,25H215.511
		C201.704,919.375,190.511,908.182,190.511,894.375z"/>
	<path style="fill:#211915;stroke:#000000;stroke-miterlimit:10;" d="M353.386,633.891c-4.341,19.834-1.933,40.896,7.529,59.929
		c15.501,31.179,46.76,50.547,81.579,50.547H500h57.506c34.819,0,66.078-19.369,81.579-50.547
		c9.492-19.093,11.886-40.223,7.489-60.111c21.935-14.628,39.505-34.886,50.903-58.723c13.715-28.682,16.977-59.994,9.695-93.065
		c-4.513-20.494-12.886-41.086-26.353-64.804c-18.114-31.904-42.733-62.102-73.174-89.754c-3.06-2.779-6.227-5.711-9.581-8.814
		c-11.994-11.1-25.588-23.68-40.568-35.052c-16.542-12.558-37.092-19.473-57.864-19.473c-19.318,0-37.949,5.754-53.881,16.642
		c-29.293,20.017-56.267,44.197-80.172,71.869c-28.518,33.012-59.3,73.363-71.383,122.343c-2.897,11.744-4.581,23.484-5.002,34.893
		c-0.954,25.802,4.33,49.703,15.705,71.039C316.317,602.226,333.005,620.472,353.386,633.891z M359.147,512.355
		c0.258-6.988,1.339-13.929,3.013-20.712c8.554-34.673,33.419-66.755,56.392-93.349c19.586-22.672,41.963-42.935,66.695-59.834
		c4.341-2.966,9.366-4.436,14.387-4.436c5.485,0,10.964,1.754,15.54,5.228c15.972,12.125,31.198,27.019,45.406,39.925
		c23.126,21.007,43.912,45.278,59.369,72.502c16.026,28.228,29.482,61.525,14.378,93.11c-12.441,26.018-38.722,43.237-67.687,43.237
		c-0.208,0-0.417-0.001-0.625-0.002c-0.047,0-0.091,0-0.138,0c-12.839,0-20.235,14.607-12.461,24.875l20.916,27.625
		c10.525,13.901,0.61,33.844-16.826,33.844H500h-57.506c-17.435,0-27.351-19.943-16.826-33.844l20.914-27.623
		c7.781-10.277,0.366-24.876-12.497-24.876c-0.033,0-0.067,0-0.1,0c-0.151,0.001-0.302,0.001-0.453,0.001
		c-27.741,0-53.814-15.669-66.864-40.148C360.822,536.909,358.69,524.7,359.147,512.355z"/>
</g>
</svg>
