<?xml version="1.0" encoding="iso-8859-1"?>
<!-- Generator: Adobe Illustrator 18.0.0, SVG Export Plug-In . SVG Version: 6.00 Build 0)  -->
<!DOCTYPE svg PUBLIC "-//W3C//DTD SVG 1.1//EN" "http://www.w3.org/Graphics/SVG/1.1/DTD/svg11.dtd">
<svg version="1.1" id="Capa_1" xmlns="http://www.w3.org/2000/svg" xmlns:xlink="http://www.w3.org/1999/xlink" x="0px" y="0px"
	 viewBox="0 0 1000 1000" style="enable-background:new 0 0 1000 1000;" xml:space="preserve">
<g>
	<path style="fill:#211915;stroke:#000000;stroke-miterlimit:10;" d="M364.082,771.729c17.772,16.674,40.964,25.856,65.303,25.856
		c23.608,0,46.29-8.83,63.866-24.862l222.038-202.537c19.686-17.957,30.978-43.539,30.978-70.186s-11.291-52.229-30.978-70.188
		L493.252,227.277c-17.578-16.033-40.259-24.863-63.867-24.863c-24.339,0-47.531,9.182-65.303,25.855
		c-9.281,8.707-16.593,19.002-21.732,30.599c-5.389,12.16-8.121,25.146-8.121,38.594v405.073c0,13.449,2.733,26.435,8.122,38.596
		C347.49,752.728,354.802,763.022,364.082,771.729z M404.229,297.464c0-14.984,12.273-25.049,25.156-25.049
		c5.794,0,11.713,2.037,16.693,6.579L668.115,481.53c10.869,9.915,10.869,27.026,0,36.94L446.077,721.006
		c-4.98,4.543-10.897,6.579-16.693,6.579c-12.882,0-25.156-10.067-25.156-25.049V297.464H404.229z"/>
	<path style="fill:#211915;stroke:#000000;stroke-miterlimit:10;" d="M161.219,838.983c44.014,44.014,95.286,78.578,152.393,102.732
		c59.161,25.023,121.964,37.71,186.665,37.71s127.504-12.688,186.665-37.71c57.107-24.154,108.379-58.718,152.393-102.732
		c44.014-44.014,78.578-95.287,102.732-152.394c25.023-59.161,37.71-121.963,37.71-186.665c0-64.701-12.688-127.504-37.71-186.665
		c-24.154-57.107-58.718-108.379-102.732-152.393S744.049,82.287,686.942,58.133c-59.161-25.023-121.964-37.71-186.665-37.71
		s-127.504,12.688-186.665,37.71c-57.107,24.154-108.379,58.719-152.393,102.733C117.204,204.88,82.64,256.153,58.486,313.26
		c-25.023,59.161-37.71,121.964-37.71,186.665c0,64.702,12.688,127.504,37.71,186.665
		C82.64,743.697,117.204,794.969,161.219,838.983z M500.277,90.424c226.161,0,409.501,183.34,409.501,409.501
		s-183.34,409.501-409.501,409.501S90.776,726.086,90.776,499.925S274.116,90.424,500.277,90.424z"/>
</g>
</svg>
