<?xml version="1.0" encoding="iso-8859-1"?>
<!-- Generator: Adobe Illustrator 18.0.0, SVG Export Plug-In . SVG Version: 6.00 Build 0)  -->
<!DOCTYPE svg PUBLIC "-//W3C//DTD SVG 1.1//EN" "http://www.w3.org/Graphics/SVG/1.1/DTD/svg11.dtd">
<svg version="1.1" id="Capa_1" xmlns="http://www.w3.org/2000/svg" xmlns:xlink="http://www.w3.org/1999/xlink" x="0px" y="0px"
	 viewBox="0 0 1000 1000" style="enable-background:new 0 0 1000 1000;" xml:space="preserve">
<g>
	<path style="fill:#211915;stroke:#000000;stroke-miterlimit:10;" d="M120.512,111.918v782.456c0,52.383,42.617,95,95,95H784.49
		c52.383,0,95-42.617,95-95V111.918c0-52.383-42.617-95-95-95H215.512C163.129,16.918,120.512,59.535,120.512,111.918z
		 M809.489,111.918v782.456c0,13.807-11.193,25-25,25H215.512c-13.807,0-25-11.193-25-25V111.918c0-13.807,11.193-25,25-25H784.49
		C798.296,86.918,809.489,98.111,809.489,111.918z"/>
	<path style="fill:#211915;stroke:#000000;stroke-miterlimit:10;" d="M420.157,695.992c18.3,25.88,48.148,41.33,79.844,41.33
		c31.695,0,61.543-15.45,79.843-41.329l96.441-136.389c23.878-33.77,23.878-79.146,0.001-112.915l-98.717-139.607
		c-17.778-25.142-46.775-40.152-77.567-40.152s-59.789,15.01-77.567,40.151l-98.717,139.606
		c-23.878,33.769-23.878,79.146-0.001,112.915L420.157,695.992z M380.871,487.103l98.716-139.606
		c4.981-7.044,12.697-10.566,20.412-10.566s15.431,3.522,20.412,10.566l98.717,139.606c6.799,9.615,6.799,22.472,0,32.087
		l-96.44,136.387c-5.537,7.83-14.113,11.745-22.689,11.745s-17.152-3.915-22.689-11.745L380.87,519.19
		C374.073,509.575,374.073,496.718,380.871,487.103z"/>
</g>
</svg>
