<?xml version="1.0" encoding="iso-8859-1"?>
<!-- Generator: Adobe Illustrator 18.0.0, SVG Export Plug-In . SVG Version: 6.00 Build 0)  -->
<!DOCTYPE svg PUBLIC "-//W3C//DTD SVG 1.1//EN" "http://www.w3.org/Graphics/SVG/1.1/DTD/svg11.dtd">
<svg version="1.1" id="Capa_1" xmlns="http://www.w3.org/2000/svg" xmlns:xlink="http://www.w3.org/1999/xlink" x="0px" y="0px"
	 viewBox="0 0 1000 1000" style="enable-background:new 0 0 1000 1000;" xml:space="preserve">
<g>
	<path style="fill:#211915;stroke:#000000;stroke-miterlimit:10;" d="M265.247,944.346c17.772,16.673,40.964,25.856,65.302,25.856
		c23.608,0,46.29-8.829,63.866-24.862l411.299-375.176c19.687-17.958,30.978-43.541,30.978-70.187
		c0-26.647-11.291-52.228-30.978-70.186L394.416,54.616c-17.576-16.033-40.258-24.863-63.867-24.863
		c-24.34,0-47.531,9.182-65.303,25.855c-9.281,8.708-16.593,19.003-21.732,30.6c-5.388,12.16-8.121,25.145-8.121,38.594v750.35
		c0,13.45,2.733,26.435,8.122,38.596C248.655,925.345,255.966,935.639,265.247,944.346z M305.394,124.802
		c0-14.984,12.273-25.049,25.155-25.049c5.794,0,11.714,2.037,16.693,6.579L758.54,481.507c10.869,9.915,10.869,27.025,0,36.94
		L347.242,893.623c-4.98,4.543-10.897,6.579-16.693,6.579c-12.881,0-25.156-10.067-25.156-25.049V124.802H305.394z"/>
</g>
</svg>
