<?xml version="1.0" encoding="iso-8859-1"?>
<!-- Generator: Adobe Illustrator 18.0.0, SVG Export Plug-In . SVG Version: 6.00 Build 0)  -->
<!DOCTYPE svg PUBLIC "-//W3C//DTD SVG 1.1//EN" "http://www.w3.org/Graphics/SVG/1.1/DTD/svg11.dtd">
<svg version="1.1" id="Capa_1" xmlns="http://www.w3.org/2000/svg" xmlns:xlink="http://www.w3.org/1999/xlink" x="0px" y="0px"
	 viewBox="0 0 1000 1000" style="enable-background:new 0 0 1000 1000;" xml:space="preserve">
<path style="fill:#211915;stroke:#000000;stroke-miterlimit:10;" d="M236.998,515.67h-21.53v-21.531c0-19.33-15.67-35-35-35
	s-35,15.67-35,35v21.531h-21.531c-19.33,0-35,15.67-35,35s15.67,35,35,35h21.531v21.531c0,19.33,15.67,35,35,35s35-15.67,35-35
	V585.67h21.53c19.33,0,35-15.67,35-35S256.328,515.67,236.998,515.67z"/>
<path style="fill:#211915;stroke:#000000;stroke-miterlimit:10;" d="M924.57,319.447c-21.963-21.963-47.559-39.215-76.075-51.276
	c-29.559-12.502-60.918-18.842-93.206-18.842H241.71c-32.288,0-63.647,6.339-93.206,18.842
	c-28.516,12.061-54.111,29.313-76.075,51.276s-39.215,47.558-51.277,76.074C8.65,425.08,2.311,456.44,2.311,488.728v123.885
	c0,32.288,6.339,63.647,18.842,93.207c12.062,28.516,29.313,54.111,51.277,76.074c21.963,21.964,47.559,39.216,76.074,51.277
	c29.56,12.502,60.919,18.842,93.207,18.842H755.29c32.288,0,63.647-6.34,93.207-18.842c28.516-12.061,54.111-29.313,76.074-51.277
	c21.963-21.963,39.215-47.558,51.277-76.074c12.502-29.559,18.842-60.919,18.842-93.207V488.728
	c0-32.288-6.339-63.647-18.842-93.207C963.786,367.005,946.534,341.41,924.57,319.447z M924.689,612.612
	c0,93.557-75.843,169.4-169.399,169.4H241.71c-93.557,0-169.399-75.843-169.399-169.4V488.728
	c0-93.557,75.843-169.399,169.399-169.399h513.58c93.557,0,169.399,75.842,169.399,169.399L924.689,612.612L924.689,612.612z"/>
<circle style="fill:#211915;stroke:#000000;stroke-miterlimit:10;" cx="849.935" cy="495.906" r="35"/>
<circle style="fill:#211915;stroke:#000000;stroke-miterlimit:10;" cx="771.562" cy="574.28" r="35"/>
<path style="fill:#211915;stroke:#000000;stroke-miterlimit:10;" d="M606.961,357.224H383.039c-52.383,0-95,42.617-95,95v200.429
	c0,52.383,42.617,95,95,95h223.922c52.383,0,95-42.617,95-95V452.224C701.961,399.841,659.344,357.224,606.961,357.224z
	 M631.961,652.653c0,13.785-11.215,25-25,25H383.039c-13.785,0-25-11.215-25-25V452.224c0-13.785,11.215-25,25-25h223.922
	c13.785,0,25,11.215,25,25V652.653z"/>
</svg>
