<?xml version="1.0" encoding="iso-8859-1"?>
<!-- Generator: Adobe Illustrator 18.0.0, SVG Export Plug-In . SVG Version: 6.00 Build 0)  -->
<!DOCTYPE svg PUBLIC "-//W3C//DTD SVG 1.1//EN" "http://www.w3.org/Graphics/SVG/1.1/DTD/svg11.dtd">
<svg version="1.1" id="Capa_1" xmlns="http://www.w3.org/2000/svg" xmlns:xlink="http://www.w3.org/1999/xlink" x="0px" y="0px"
	 viewBox="0 0 1000 1000" style="enable-background:new 0 0 1000 1000;" xml:space="preserve">
<g>
	<path style="fill:#211915;stroke:#000000;stroke-miterlimit:10;" d="M120.511,111.919v782.456c0,52.383,42.617,95,95,95h568.977
		c52.383,0,95-42.617,95-95V111.919c0-52.383-42.617-95-95-95H215.511C163.128,16.919,120.511,59.536,120.511,111.919z
		 M809.489,111.919v782.456c0,13.807-11.193,25-25,25H215.511c-13.807,0-25-11.193-25-25V111.919c0-13.807,11.193-25,25-25h568.977
		C798.296,86.919,809.489,98.112,809.489,111.919z"/>
	<path style="fill:#211915;stroke:#000000;stroke-miterlimit:10;" d="M329.869,629.103c13.042,13.803,28.391,24.681,45.618,32.333
		c5.946,2.641,12.017,4.854,18.197,6.635c1.341,5.279,3.222,10.433,5.627,15.374c6.327,12.998,16.048,24.045,28.111,31.949
		c13.038,8.542,28.202,13.057,43.855,13.057h28.099h29.349c15.652,0,30.817-4.515,43.854-13.057
		c12.063-7.903,21.783-18.951,28.111-31.949c2.389-4.908,4.261-10.025,5.6-15.267c6.177-1.75,12.241-3.927,18.171-6.526
		c17.399-7.624,32.856-18.521,45.942-32.392c13.428-14.233,23.652-30.83,30.387-49.328c6.846-18.803,9.719-38.592,8.542-58.819
		c-2.085-35.799-15.567-67.043-38.987-90.353c-8.499-8.458-18.069-15.694-28.642-21.667c-3.102-32.938-18.011-63.919-42.46-87.919
		c-26.247-25.766-60.343-40.397-96.008-41.197c-1.067-0.024-2.157-0.036-3.233-0.036c-19.181,0-37.826,3.772-55.416,11.211
		c-16.955,7.171-32.168,17.423-45.215,30.47s-23.299,28.26-30.47,45.214c-5.784,13.676-9.351,27.989-10.653,42.696
		c-10.428,5.925-19.881,13.062-28.287,21.371c-23.684,23.41-37.277,54.746-39.31,90.619c-1.142,20.158,1.838,39.938,8.858,58.789
		C306.303,598.558,316.518,614.974,329.869,629.103z M360.538,525.483c2.348-41.433,30.106-57.053,51.69-62.911
		c11.524-3.127,18.88-15.259,16.688-26.996c-0.806-4.318-1.229-8.772-1.229-13.325c0-39.938,32.373-72.312,72.312-72.312
		c0.551,0,1.108,0.006,1.662,0.019c36.809,0.826,69.105,32.52,70.59,69.307c0.222,5.497-0.172,10.862-1.117,16.035
		c-2.219,12.145,5.115,23.926,17.043,27.112c21.486,5.74,48.853,21.235,51.271,62.77c2.481,42.609-29.485,78.357-72.132,78.357
		c-0.068,0-0.136,0-0.204,0c-8.812-0.023-17.251-1.625-25.052-4.536c-1.873-0.699-3.733-1.019-5.529-1.019
		c-10.595,0-18.918,11.166-13.791,21.781c3.741,7.747,8.31,15.337,13.883,22.447c5.167,6.592,0.477,16.237-7.899,16.237h-29.349
		h-28.099c-8.375,0-13.065-9.645-7.899-16.237c5.574-7.111,10.143-14.703,13.885-22.452c5.128-10.619-3.198-21.774-13.797-21.774
		c-1.798,0-3.661,0.321-5.535,1.02c-7.747,2.89-16.125,4.488-24.871,4.531c-0.123,0-0.24,0.001-0.363,0.001
		C390.771,603.541,358.163,567.395,360.538,525.483z"/>
</g>
</svg>
