<?xml version="1.0" encoding="iso-8859-1"?>
<!-- Generator: Adobe Illustrator 18.0.0, SVG Export Plug-In . SVG Version: 6.00 Build 0)  -->
<!DOCTYPE svg PUBLIC "-//W3C//DTD SVG 1.1//EN" "http://www.w3.org/Graphics/SVG/1.1/DTD/svg11.dtd">
<svg version="1.1" id="Capa_1" xmlns="http://www.w3.org/2000/svg" xmlns:xlink="http://www.w3.org/1999/xlink" x="0px" y="0px"
	 viewBox="0 0 1000 1000" style="enable-background:new 0 0 1000 1000;" xml:space="preserve">
<path style="fill:#211915;stroke:#000000;stroke-miterlimit:10;" d="M846.664,893.688V106.312c0-52.383-42.617-95-95-95H247.251
	c-52.383,0-95,42.617-95,95v787.375c0,52.383,42.617,95,95,95h504.413C804.047,988.688,846.664,946.07,846.664,893.688z
	 M222.251,893.688V106.312c0-13.807,11.192-25,25-25h504.413c13.807,0,25,11.193,25,25v787.375c0,13.807-11.193,25-25,25H247.251
	C233.443,918.688,222.251,907.495,222.251,893.688z"/>
<path style="fill:#211915;stroke:#000000;stroke-miterlimit:10;" d="M359.312,693.494h280.29c52.383,0,95-42.617,95-95V369.735
	c0-52.383-42.617-95-95-95h-280.29c-52.383,0-95,42.617-95,95v228.759C264.312,650.877,306.93,693.494,359.312,693.494z
	 M334.312,369.735c0-13.807,11.192-25,25-25h280.29c13.807,0,25,11.193,25,25v228.759c0,13.807-11.193,25-25,25h-280.29
	c-13.808,0-25-11.193-25-25L334.312,369.735L334.312,369.735z"/>
<path style="fill:#211915;stroke:#000000;stroke-miterlimit:10;" d="M421.711,511.491c19.33,0,35-15.67,35-35v-69.125
	c0-19.33-15.67-35-35-35s-35,15.67-35,35v69.125C386.711,495.821,402.381,511.491,421.711,511.491z"/>
<path style="fill:#211915;stroke:#000000;stroke-miterlimit:10;" d="M577.204,511.491c19.33,0,35-15.67,35-35v-69.125
	c0-19.33-15.67-35-35-35s-35,15.67-35,35v69.125C542.204,495.821,557.874,511.491,577.204,511.491z"/>
<circle style="fill:#211915;stroke:#000000;stroke-miterlimit:10;" cx="499.457" cy="560.061" r="34.198"/>
</svg>
