<?xml version="1.0" encoding="iso-8859-1"?>
<!-- Generator: Adobe Illustrator 18.0.0, SVG Export Plug-In . SVG Version: 6.00 Build 0)  -->
<!DOCTYPE svg PUBLIC "-//W3C//DTD SVG 1.1//EN" "http://www.w3.org/Graphics/SVG/1.1/DTD/svg11.dtd">
<svg version="1.1" id="Capa_1" xmlns="http://www.w3.org/2000/svg" xmlns:xlink="http://www.w3.org/1999/xlink" x="0px" y="0px"
	 viewBox="0 0 1000 1000" style="enable-background:new 0 0 1000 1000;" xml:space="preserve">
<path style="fill:#211915;stroke:#000000;stroke-miterlimit:10;" d="M44.684,960.547c6.834,6.834,15.792,10.251,24.749,10.251
	s17.915-3.417,24.749-10.251L315.7,739.029c31.11,25.87,65.686,46.661,103.206,61.978c47.582,19.425,97.83,29.273,149.346,29.273
	c51.107,0,100.987-9.703,148.255-28.84c48.896-19.796,92.862-48.865,130.678-86.399c31.195-30.962,56.811-66.48,76.135-105.568
	c19.567-39.575,11.742-87.14-19.475-118.357l-59.097-59.097l115.453-115.453c13.668-13.669,13.668-35.829,0-49.498
	c-13.668-13.668-35.83-13.668-49.498,0L795.25,382.521L622.017,209.288L737.47,93.835c13.668-13.669,13.668-35.829,0-49.498
	c-13.67-13.668-35.83-13.668-49.498,0L572.519,159.79l-61.437-61.437c-9.717-9.718-21.089-17.28-33.799-22.479
	c-12.428-5.083-25.537-7.66-38.965-7.66c-15.715,0-31.472,3.683-45.566,10.649c-38.643,19.101-73.812,44.361-104.531,75.08
	c-37.73,37.731-66.971,81.754-86.909,130.849c-19.243,47.384-29.026,97.438-29.077,148.771
	c-0.051,51.328,9.63,101.397,28.774,148.816c15.841,39.236,37.636,75.238,64.939,107.405L44.684,911.049
	C31.016,924.718,31.016,946.878,44.684,960.547z M438.317,138.214c8.536,0,16.954,3.322,23.268,9.636l392.762,392.762
	c9.973,9.973,12.474,25.195,6.223,37.838c-15.527,31.408-36.426,60.834-62.696,86.908c-63.772,63.297-146.715,94.922-229.622,94.922
	c-71.759,0-143.479-23.699-202.783-71.02c-9.768-7.793-19.21-16.205-28.248-25.281c-7.656-7.688-14.838-15.67-21.569-23.898
	C210.9,512.03,218.249,322.91,337.718,203.441c25.862-25.862,54.988-46.471,86.052-61.825
	C428.401,139.327,433.379,138.214,438.317,138.214z"/>
<path style="fill:#211915;stroke:#000000;stroke-miterlimit:10;" d="M593.775,539.414c6.834,6.834,15.792,10.251,24.749,10.251
	s17.915-3.417,24.749-10.251c13.668-13.669,13.668-35.829,0-49.498L512.438,359.081c-13.668-13.668-35.828-13.668-49.498,0
	c-13.668,13.669-13.668,35.829,0,49.498L593.775,539.414z"/>
<path style="fill:#211915;stroke:#000000;stroke-miterlimit:10;" d="M500.113,633.075c6.834,6.834,15.792,10.251,24.749,10.251
	s17.915-3.417,24.749-10.251c13.668-13.669,13.668-35.829,0-49.498L418.776,452.742c-13.668-13.668-35.828-13.668-49.498,0
	c-13.668,13.669-13.668,35.829,0,49.498L500.113,633.075z"/>
</svg>
