<?xml version="1.0" encoding="iso-8859-1"?>
<!-- Generator: Adobe Illustrator 18.0.0, SVG Export Plug-In . SVG Version: 6.00 Build 0)  -->
<!DOCTYPE svg PUBLIC "-//W3C//DTD SVG 1.1//EN" "http://www.w3.org/Graphics/SVG/1.1/DTD/svg11.dtd">
<svg version="1.1" id="Capa_1" xmlns="http://www.w3.org/2000/svg" xmlns:xlink="http://www.w3.org/1999/xlink" x="0px" y="0px"
	 viewBox="0 0 1000 1000" style="enable-background:new 0 0 1000 1000;" xml:space="preserve">
<path style="stroke:#000000;stroke-miterlimit:10;" d="M945.336,388.778c-14.423-14.423-31.237-25.754-49.976-33.68
	c-19.437-8.221-40.043-12.389-61.247-12.389H657.292V165.887c0-21.203-4.169-41.81-12.391-61.247
	c-7.925-18.738-19.257-35.551-33.68-49.974c-14.422-14.422-31.236-25.754-49.974-33.68c-19.437-8.222-40.043-12.39-61.246-12.39H500
	c-21.204,0-41.81,4.168-61.247,12.389c-18.739,7.926-35.553,19.257-49.976,33.68c-14.422,14.423-25.754,31.237-33.68,49.976
	c-8.221,19.437-12.39,40.043-12.39,61.246v176.822h-176.82c-21.204,0-41.81,4.168-61.247,12.39
	c-18.739,7.926-35.553,19.257-49.976,33.68s-25.754,31.237-33.68,49.976c-8.221,19.437-12.389,40.043-12.389,61.247
	c0,21.201,4.167,41.808,12.389,61.245c7.926,18.739,19.257,35.553,33.68,49.976c14.424,14.423,31.238,25.754,49.976,33.68
	c19.437,8.221,40.043,12.389,61.247,12.389h176.822v176.822c0,21.203,4.168,41.81,12.389,61.246
	c7.925,18.739,19.257,35.553,33.68,49.976c14.423,14.423,31.237,25.755,49.976,33.68c19.437,8.221,40.043,12.389,61.246,12.389
	c21.204,0,41.81-4.168,61.247-12.389c18.739-7.926,35.553-19.257,49.976-33.68c14.423-14.423,25.754-31.237,33.68-49.975
	c8.221-19.437,12.39-40.043,12.39-61.247V657.292h176.822c21.204,0,41.81-4.168,61.247-12.39
	c18.738-7.926,35.553-19.257,49.976-33.68c14.423-14.423,25.754-31.237,33.68-49.976c8.221-19.437,12.389-40.043,12.389-61.247
	c0-21.201-4.167-41.808-12.389-61.245C971.09,420.016,959.759,403.201,945.336,388.778z M834.113,587.292H612.292
	c-13.807,0-25,11.193-25,25v221.822c0,48.21-39.082,87.292-87.292,87.292c-0.001,0,0,0-0.001,0
	c-24.104,0-45.928-9.771-61.724-25.567c-15.797-15.797-25.567-37.619-25.567-61.725V612.292c0-13.807-11.193-25-25-25H165.887
	c-24.105,0-45.928-9.771-61.725-25.567C88.365,545.928,78.595,524.105,78.595,500c0-48.21,39.081-87.292,87.292-87.292h221.822
	c13.807,0,25-11.193,25-25V165.887c0-48.21,39.082-87.292,87.292-87.292c0.003,0-0.001,0,0.001,0
	c48.206,0,87.29,39.083,87.29,87.292v221.822c0,13.807,11.193,25,25,25h221.822c48.211,0,87.292,39.082,87.292,87.292
	C921.405,548.21,882.323,587.292,834.113,587.292z"/>
</svg>
