<?xml version="1.0" encoding="iso-8859-1"?>
<!-- Generator: Adobe Illustrator 18.0.0, SVG Export Plug-In . SVG Version: 6.00 Build 0)  -->
<!DOCTYPE svg PUBLIC "-//W3C//DTD SVG 1.1//EN" "http://www.w3.org/Graphics/SVG/1.1/DTD/svg11.dtd">
<svg version="1.1" id="Capa_1" xmlns="http://www.w3.org/2000/svg" xmlns:xlink="http://www.w3.org/1999/xlink" x="0px" y="0px"
	 viewBox="0 0 1000 1000" style="enable-background:new 0 0 1000 1000;" xml:space="preserve">
<path style="stroke:#000000;stroke-miterlimit:10;" d="M397.005,179.629v-72.483c-22.941,5.587-45.445,13.031-67.406,22.32
	c-52.745,22.309-100.1,54.232-140.75,94.882c-40.649,40.65-72.572,88.005-94.881,140.75
	c-23.113,54.644-34.832,112.65-34.832,172.406S70.855,655.266,93.968,709.91c22.309,52.745,54.232,100.1,94.881,140.75
	c40.65,40.65,88.005,72.573,140.75,94.882c54.644,23.113,112.65,34.832,172.406,34.832s117.762-11.719,172.406-34.832
	c52.745-22.309,100.1-54.232,140.75-94.882c40.649-40.65,72.572-88.005,94.881-140.75c23.113-54.644,34.832-112.65,34.832-172.406
	s-11.719-117.762-34.832-172.406c-22.309-52.745-54.232-100.1-94.881-140.75c-40.65-40.65-88.005-72.573-140.75-94.882
	c-21.96-9.289-44.465-16.733-67.407-22.32v72.483c154.808,45.346,267.869,188.404,267.869,357.875
	c0,205.93-166.939,372.869-372.869,372.869S129.135,743.434,129.135,537.504C129.136,368.034,242.198,224.976,397.005,179.629z"/>
<path style="stroke:#000000;stroke-miterlimit:10;" d="M537.005,493.363V166.262V95.996V49.402c0-19.33-15.67-35-35-35
	s-35,15.67-35,35v46.594v70.267v327.101c0,19.33,15.67,35,35,35C521.335,528.364,537.005,512.693,537.005,493.363z"/>
</svg>
