<?xml version="1.0" encoding="iso-8859-1"?>
<!-- Generator: Adobe Illustrator 18.0.0, SVG Export Plug-In . SVG Version: 6.00 Build 0)  -->
<!DOCTYPE svg PUBLIC "-//W3C//DTD SVG 1.1//EN" "http://www.w3.org/Graphics/SVG/1.1/DTD/svg11.dtd">
<svg version="1.1" id="Capa_1" xmlns="http://www.w3.org/2000/svg" xmlns:xlink="http://www.w3.org/1999/xlink" x="0px" y="0px"
	 viewBox="0 0 1000 1000" style="enable-background:new 0 0 1000 1000;" xml:space="preserve">
<path style="fill:#211915;stroke:#000000;stroke-miterlimit:10;" d="M104.938,695.464h68.249V864.5c0,52.383,42.617,95,95,95
	h463.627c52.383,0,95-42.617,95-95V695.464h68.249c52.383,0,95-42.617,95-95v-339.14c0-52.383-42.617-95-95-95h-68.249v-60.552
	c0-52.383-42.617-95-95-95H268.187c-52.383,0-95,42.617-95,95v60.552h-68.249c-52.383,0-95,42.617-95,95v339.14
	C9.938,652.847,52.555,695.464,104.938,695.464z M79.938,261.324c0-13.807,11.193-25,25-25h68.249h35h35h513.627h35h35h68.249
	c13.807,0,25,11.193,25,25v339.14c0,13.807-11.193,25-25,25h-68.249V573.97c0-52.383-42.617-95-95-95H268.187
	c-52.383,0-95,42.617-95,95v51.494h-68.249c-13.807,0-25-11.193-25-25C79.938,600.464,79.938,261.324,79.938,261.324z
	 M243.187,105.773c0-13.807,11.193-25,25-25h463.627c13.807,0,25,11.193,25,25v60.552H243.187V105.773z M756.814,695.464V864.5
	c0,13.807-11.193,25-25,25H268.187c-13.807,0-25-11.193-25-25V695.464v-35v-35V573.97c0-13.807,11.193-25,25-25h463.627
	c13.807,0,25,11.193,25,25v51.494v35V695.464z"/>
<path style="fill:#211915;stroke:#000000;stroke-miterlimit:10;" d="M710.316,366.041h79.738h13.257c19.33,0,35-15.67,35-35
	c0-10.726-4.83-20.32-12.428-26.74c-6.095-5.15-13.969-8.26-22.572-8.26h-11.722h-35.277h-45.997c-13.961,0-26.01,8.176-31.627,20
	c-2.16,4.547-3.373,9.631-3.373,15c0,7.438,2.327,14.33,6.284,20C687.925,360.105,698.425,366.041,710.316,366.041z"/>
</svg>
