<?xml version="1.0" encoding="iso-8859-1"?>
<!-- Generator: Adobe Illustrator 18.0.0, SVG Export Plug-In . SVG Version: 6.00 Build 0)  -->
<!DOCTYPE svg PUBLIC "-//W3C//DTD SVG 1.1//EN" "http://www.w3.org/Graphics/SVG/1.1/DTD/svg11.dtd">
<svg version="1.1" id="Capa_1" xmlns="http://www.w3.org/2000/svg" xmlns:xlink="http://www.w3.org/1999/xlink" x="0px" y="0px"
	 viewBox="0 0 1000 1000" style="enable-background:new 0 0 1000 1000;" xml:space="preserve">
<circle style="fill:#211915;stroke:#000000;stroke-miterlimit:10;" cx="343.961" cy="502" r="34.498"/>
<circle style="fill:#211915;stroke:#000000;stroke-miterlimit:10;" cx="500" cy="502" r="34.498"/>
<circle style="fill:#211915;stroke:#000000;stroke-miterlimit:10;" cx="656.039" cy="502" r="34.498"/>
<path style="fill:#211915;stroke:#000000;stroke-miterlimit:10;" d="M239.451,775.302c17.943,17.943,41.8,27.825,67.175,27.825
	c25.376,0,49.233-9.882,67.176-27.826c17.942-17.941,27.824-41.798,27.824-67.174c0-25.375-9.882-49.232-27.825-67.175L234.85,502
	l134.851-134.851c37.041-37.041,37.041-97.31,0-134.351c-17.943-17.943-41.8-27.825-67.175-27.825s-49.232,9.882-67.175,27.825
	L33.325,434.825c-37.04,37.041-37.04,97.31,0,134.351L239.451,775.302z M82.822,484.322l202.026-202.026
	c4.882-4.881,11.28-7.322,17.678-7.322s12.796,2.441,17.678,7.322l0,0c9.763,9.763,9.763,25.592,0,35.355l-166.671,166.67
	c-9.763,9.763-9.763,25.592,0,35.355l170.771,170.771c9.763,9.763,9.763,25.592,0,35.355l0,0c-4.881,4.881-11.28,7.322-17.678,7.322
	s-12.796-2.441-17.678-7.322L82.822,519.678C73.059,509.915,73.059,494.085,82.822,484.322z"/>
<path style="fill:#211915;stroke:#000000;stroke-miterlimit:10;" d="M764.776,232.799c-17.943-17.943-41.8-27.825-67.175-27.825
	s-49.232,9.882-67.175,27.825c-37.041,37.041-37.041,97.31,0,134.351L765.276,502L626.325,640.951
	c-37.04,37.041-37.04,97.31,0,134.351c17.943,17.943,41.8,27.825,67.175,27.825s49.232-9.882,67.175-27.825l206.126-206.126
	c37.041-37.041,37.041-97.31,0-134.351L764.776,232.799z M917.304,519.678L711.178,725.804c-4.882,4.881-11.28,7.322-17.678,7.322
	s-12.796-2.441-17.678-7.322c-9.763-9.763-9.763-25.592,0-35.355l170.771-170.771c9.763-9.763,9.763-25.592,0-35.355
	l-166.671-166.67c-9.763-9.763-9.763-25.592,0-35.355c4.882-4.881,11.28-7.322,17.678-7.322s12.796,2.441,17.678,7.322
	l202.026,202.026C927.068,494.085,927.068,509.915,917.304,519.678z"/>
</svg>
