<?xml version="1.0" encoding="iso-8859-1"?>
<!-- Generator: Adobe Illustrator 18.0.0, SVG Export Plug-In . SVG Version: 6.00 Build 0)  -->
<!DOCTYPE svg PUBLIC "-//W3C//DTD SVG 1.1//EN" "http://www.w3.org/Graphics/SVG/1.1/DTD/svg11.dtd">
<svg version="1.1" id="Capa_1" xmlns="http://www.w3.org/2000/svg" xmlns:xlink="http://www.w3.org/1999/xlink" x="0px" y="0px"
	 viewBox="0 0 1000 1000" style="enable-background:new 0 0 1000 1000;" xml:space="preserve">
<path style="stroke:#000000;stroke-miterlimit:10;" d="M57.103,686.803c24.214,57.25,58.865,108.651,102.989,152.776
	c44.125,44.124,95.525,78.775,152.775,102.99c59.309,25.085,122.27,37.805,187.133,37.805s127.824-12.719,187.133-37.805
	c57.25-24.215,108.651-58.865,152.775-102.99c44.124-44.125,78.775-95.525,102.99-152.776
	c25.085-59.308,37.805-122.269,37.805-187.133s-12.72-127.824-37.805-187.133c-24.215-57.25-58.866-108.651-102.99-152.775
	c-44.125-44.124-95.525-78.775-152.775-102.99C627.824,31.687,564.863,18.968,500,18.968S372.176,31.687,312.867,56.772
	c-57.25,24.215-108.651,58.865-152.775,102.99c-44.124,44.124-78.775,95.525-102.989,152.775
	c-25.086,59.309-37.805,122.27-37.805,187.133S32.017,627.494,57.103,686.803z M500,88.968
	c226.825,0,410.702,183.878,410.702,410.703c0,100.812-36.324,193.138-96.595,264.61L235.39,185.563
	C306.862,125.292,399.188,88.968,500,88.968z M185.893,235.061L764.61,813.777c-71.472,60.271-163.798,96.595-264.61,96.595
	c-226.825,0-410.702-183.878-410.702-410.703C89.298,398.859,125.622,306.532,185.893,235.061z"/>
</svg>
