<?xml version="1.0" encoding="iso-8859-1"?>
<!-- Generator: Adobe Illustrator 18.0.0, SVG Export Plug-In . SVG Version: 6.00 Build 0)  -->
<!DOCTYPE svg PUBLIC "-//W3C//DTD SVG 1.1//EN" "http://www.w3.org/Graphics/SVG/1.1/DTD/svg11.dtd">
<svg version="1.1" id="Capa_1" xmlns="http://www.w3.org/2000/svg" xmlns:xlink="http://www.w3.org/1999/xlink" x="0px" y="0px"
	 viewBox="0 0 1000 1000" style="enable-background:new 0 0 1000 1000;" xml:space="preserve">
<path style="stroke:#000000;stroke-miterlimit:10;" d="M5.221,613.406c2.13,28.934,7.472,57.649,15.878,85.352
	c8.313,27.395,19.655,53.909,33.711,78.807c14.067,24.918,30.9,48.302,50.032,69.503c19.375,21.47,41.186,40.786,64.827,57.412
	c16.578,11.658,35.95,17.677,56.023,17.407c16.224-0.218,32.216-4.656,46.245-12.835c14.166-8.258,26.059-20.181,34.397-34.481
	l90.417-155.086c9.861-16.913,14.21-36.173,12.578-55.697c-1.606-19.214-8.902-37.289-21.098-52.272
	c-8.481-10.417-16.169-25.536-20.632-36.339c-4.79-17.194-14.831-32.682-28.656-44.045c-15.532-12.765-35.156-19.788-55.259-19.776
	l-183.767,0.11c-0.382,0-0.809,0.003-1.227,0.009c-26.076,0.35-51.14,11.579-68.766,30.807
	C12.314,561.497,3.309,587.42,5.221,613.406z M99.633,581.47c0.108-0.001,0.219-0.002,0.328-0.002l183.766-0.11
	c8.142-0.005,15.021,5.749,16.687,13.614c0.244,1.151,0.619,2.262,1.049,3.358c3.099,7.905,14.587,35.398,32.48,57.377
	c6.618,8.131,7.615,19.466,2.335,28.522l-90.417,155.087c-4.687,8.04-12.746,12.465-21.109,12.578
	c-5.052,0.068-10.217-1.438-14.815-4.672C131.612,792.14,82.111,704.438,75.033,608.27C73.976,593.908,85.277,581.663,99.633,581.47
	z"/>
<path style="stroke:#000000;stroke-miterlimit:10;" d="M970.01,542.284c-17.626-19.228-42.69-30.456-68.766-30.807
	c-0.418-0.006-0.845-0.009-1.227-0.009l-183.767-0.11c-20.102-0.012-39.727,7.011-55.259,19.776
	c-13.824,11.362-23.866,26.851-28.656,44.045c-4.463,10.803-12.151,25.922-20.632,36.339
	c-12.196,14.982-19.491,33.058-21.097,52.272c-1.632,19.524,2.717,38.784,12.578,55.697l90.417,155.086
	c8.337,14.3,20.231,26.223,34.397,34.481c14.029,8.179,30.021,12.617,46.245,12.835c20.073,0.27,39.446-5.75,56.023-17.407
	c23.642-16.626,45.452-35.942,64.827-57.412c19.132-21.201,35.965-44.585,50.032-69.503c14.056-24.898,25.397-51.413,33.711-78.807
	c8.406-27.702,13.748-56.418,15.878-85.352C996.628,587.42,987.623,561.497,970.01,542.284z M924.904,608.27
	c-7.079,96.168-56.58,183.87-134.904,238.951c-4.599,3.234-9.763,4.74-14.815,4.672c-8.364-0.112-16.422-4.537-21.109-12.578
	l-90.417-155.087c-5.28-9.057-4.283-20.392,2.335-28.522c17.893-21.979,29.381-49.472,32.48-57.377
	c0.429-1.095,0.805-2.207,1.049-3.358c1.666-7.866,8.546-13.619,16.687-13.614l183.766,0.11c0.109,0,0.22,0.001,0.328,0.002
	C914.66,581.663,925.961,593.908,924.904,608.27z"/>
<path style="stroke:#000000;stroke-miterlimit:10;" d="M708.925,200.27c13.374-22.661,16.749-50.125,9.258-75.351
	c-7.486-25.208-25.286-46.363-48.836-58.04c-27.165-13.469-55.881-23.784-85.352-30.66c-29.143-6.799-59.07-10.247-88.951-10.248
	c-27.32-0.001-54.692,2.886-81.355,8.581C386.691,40.318,360.248,49,335.095,60.357c-24.276,10.961-42.944,31.628-51.218,56.701
	c-8.285,25.105-5.576,52.867,7.432,76.167l87.51,156.748c16.758,30.018,48.579,48.666,83.044,48.666
	c4.75,0,9.543-0.359,14.245-1.067c4.75-0.715,10.283-1.078,16.444-1.078c0,0,0.001,0,0.002,0c10.833,0,20.44,1.12,25.337,1.811
	c7.381,1.987,14.986,2.993,22.666,2.993c14.852,0,29.549-3.825,42.502-11.061c13.419-7.496,24.645-18.461,32.463-31.709
	L708.925,200.27z M555.238,322.949c-3.15,5.338-8.801,8.348-14.681,8.348c-1.844,0-3.71-0.296-5.529-0.909
	c-1.115-0.375-2.263-0.618-3.424-0.805c-5.675-0.917-21.029-3.091-39.053-3.09c-8.602,0-17.814,0.496-26.868,1.859
	c-1.278,0.192-2.554,0.287-3.819,0.287c-9,0-17.443-4.763-21.924-12.788l-87.509-156.746c-7.277-13.035-2.134-28.805,11.472-34.949
	c41.664-18.812,86.374-28.186,131.139-28.184c49,0.002,98.063,11.237,143.21,33.622c13,6.446,17.765,22.601,10.39,35.097
	L555.238,322.949z"/>
<path style="stroke:#000000;stroke-miterlimit:10;" d="M498.937,417.278c-61.925,0-112.125,50.201-112.125,112.125
	c0,61.925,50.2,112.125,112.125,112.125s112.125-50.2,112.125-112.125C611.062,467.479,560.863,417.278,498.937,417.278z
	 M498.937,571.529c-23.228,0-42.125-18.897-42.125-42.125c0-23.228,18.897-42.125,42.125-42.125
	c23.228,0,42.125,18.897,42.125,42.125C541.062,552.631,522.165,571.529,498.937,571.529z"/>
</svg>
