<?xml version="1.0" encoding="iso-8859-1"?>
<!-- Generator: Adobe Illustrator 18.0.0, SVG Export Plug-In . SVG Version: 6.00 Build 0)  -->
<!DOCTYPE svg PUBLIC "-//W3C//DTD SVG 1.1//EN" "http://www.w3.org/Graphics/SVG/1.1/DTD/svg11.dtd">
<svg version="1.1" id="Capa_1" xmlns="http://www.w3.org/2000/svg" xmlns:xlink="http://www.w3.org/1999/xlink" x="0px" y="0px"
	 viewBox="0 0 1000 1000" style="enable-background:new 0 0 1000 1000;" xml:space="preserve">
<path style="fill:#211915;stroke:#000000;stroke-miterlimit:10;" d="M897.689,307.228H535V148.239c0-19.33-15.67-35-35-35
	s-35,15.67-35,35v158.989H102.311c-52.383,0-95,42.617-95,95v342.98c0,52.383,42.617,95,95,95h795.378c52.383,0,95-42.617,95-95
	v-342.98C992.689,349.845,950.072,307.228,897.689,307.228z M922.689,745.208c0,13.807-11.193,25-25,25H102.311
	c-13.807,0-25-11.193-25-25v-342.98c0-13.807,11.193-25,25-25h795.378c13.807,0,25,11.193,25,25L922.689,745.208L922.689,745.208z"
	/>
<path style="fill:#211915;stroke:#000000;stroke-miterlimit:10;" d="M382.601,538.718h-67.994v-67.994c0-13.807-11.193-25-25-25h-20
	c-13.807,0-25,11.193-25,25v67.994h-67.994c-13.807,0-25,11.193-25,25v20c0,13.807,11.193,25,25,25h67.994v67.994
	c0,13.807,11.193,25,25,25h20c13.807,0,25-11.193,25-25v-67.994h67.994c13.807,0,25-11.193,25-25v-20
	C407.601,549.911,396.408,538.718,382.601,538.718z"/>
<circle style="fill:#211915;stroke:#000000;stroke-miterlimit:10;" cx="708.935" cy="652.653" r="35"/>
<circle style="fill:#211915;stroke:#000000;stroke-miterlimit:10;" cx="708.935" cy="495.906" r="35"/>
<circle style="fill:#211915;stroke:#000000;stroke-miterlimit:10;" cx="630.562" cy="574.28" r="35"/>
<circle style="fill:#211915;stroke:#000000;stroke-miterlimit:10;" cx="787.309" cy="574.28" r="35"/>
</svg>
