<?xml version="1.0" encoding="iso-8859-1"?>
<!-- Generator: Adobe Illustrator 18.0.0, SVG Export Plug-In . SVG Version: 6.00 Build 0)  -->
<!DOCTYPE svg PUBLIC "-//W3C//DTD SVG 1.1//EN" "http://www.w3.org/Graphics/SVG/1.1/DTD/svg11.dtd">
<svg version="1.1" id="Capa_1" xmlns="http://www.w3.org/2000/svg" xmlns:xlink="http://www.w3.org/1999/xlink" x="0px" y="0px"
	 viewBox="0 0 1000 1000" style="enable-background:new 0 0 1000 1000;" xml:space="preserve">
<g>
	<path style="stroke:#000000;stroke-miterlimit:10;" d="M942.866,409.437L599.954,176.49v-70.089
		c0-51.902-42.226-94.128-94.128-94.128h-17.579c-51.903,0-94.128,42.226-94.128,94.128v70.691L52.091,409.437
		c-19.198,13.041-30.683,34.75-30.665,57.958l0.326,419.377c0.039,51.179,41.709,92.816,92.888,92.816h765.677
		c51.179,0,92.849-41.637,92.888-92.816l0.326-419.377C973.549,444.186,962.063,422.478,942.866,409.437z M464.118,106.401
		c0-13.326,10.803-24.128,24.128-24.128h17.579c13.326,0,24.128,10.802,24.128,24.128v33.913v73.832v177.315
		c0,11.046,8.954,20,20,20h41.793c23.93,0,34.185,30.384,15.151,44.886l-92.834,78.512c-4.699,4.075-10.54,6.114-16.38,6.114
		c-5.843,0-11.684-2.039-16.384-6.117l-92.898-78.606c-20.924-17.515-8.57-44.788,15.278-44.788h40.437c11.046,0,20-8.954,20-20
		V214.605v-74.079v-34.125H464.118z M394.118,261.715v80.198c-16.511,1.572-32.158,7.217-45.718,16.559
		c-16.255,11.198-28.387,26.861-35.084,45.296c-13.668,37.622-1.9,79.207,29.979,106.009l92.548,78.31
		c17.214,14.761,39.153,22.884,61.841,22.884c22.675,0,44.605-8.115,61.814-22.861l91.637-77.5
		c15.834-12.653,26.98-29.504,32.295-48.871c5.021-18.297,4.443-37.544-1.672-55.662c-6.115-18.117-17.32-33.778-32.403-45.289
		c-14.405-10.994-31.344-17.482-49.402-18.988v-80.688L883.73,453.888l-358.319,285.89c-16.447,13.047-39.419,13.046-55.79,0.061
		l-358.395-285.95L394.118,261.715z M903.205,886.717c-0.01,12.634-10.254,22.87-22.888,22.87H114.64
		c-12.634,0-22.878-10.237-22.888-22.87l-0.279-359.038l334.569,266.94c20.236,16.053,45.606,24.894,71.437,24.894
		c25.83,0,51.201-8.841,71.514-24.955L903.484,527.68L903.205,886.717z"/>
</g>
</svg>
