<?xml version="1.0" encoding="iso-8859-1"?>
<!-- Generator: Adobe Illustrator 18.0.0, SVG Export Plug-In . SVG Version: 6.00 Build 0)  -->
<!DOCTYPE svg PUBLIC "-//W3C//DTD SVG 1.1//EN" "http://www.w3.org/Graphics/SVG/1.1/DTD/svg11.dtd">
<svg version="1.1" id="Capa_1" xmlns="http://www.w3.org/2000/svg" xmlns:xlink="http://www.w3.org/1999/xlink" x="0px" y="0px"
	 viewBox="0 0 1000 1000" style="enable-background:new 0 0 1000 1000;" xml:space="preserve">
<path style="stroke:#000000;stroke-miterlimit:10;" d="M756.885,263.357h-513.77c-26.613,0-52.21,11.235-70.224,30.825
	c-18.015,19.589-27.07,46.035-24.845,72.555l44.511,530.627c2.004,23.903,12.832,46.01,30.49,62.248
	c17.656,16.238,40.591,25.18,64.578,25.18h424.748c23.987,0,46.922-8.942,64.578-25.18c17.658-16.238,28.486-38.345,30.49-62.25
	l44.511-530.628c2.226-26.517-6.83-52.963-24.845-72.552C809.095,274.592,783.498,263.357,756.885,263.357z M782.198,360.883
	l-44.511,530.63c-1.104,13.16-12.107,23.279-25.313,23.279H287.626c-13.206,0-24.21-10.119-25.313-23.279l-44.511-530.63
	c-1.243-14.815,10.446-27.526,25.313-27.526h513.77C771.752,333.357,783.441,346.068,782.198,360.883z"/>
<path style="stroke:#000000;stroke-miterlimit:10;" d="M164.689,225.529H835.31c19.33,0,35-15.67,35-35s-15.67-35-35-35H708.188
	v-1.579v-34.547c0-52.605-42.797-95.402-95.402-95.402H387.214c-52.605,0-95.402,42.797-95.402,95.402v34.547v1.579H164.689
	c-19.33,0-35,15.67-35,35S145.359,225.529,164.689,225.529z M361.812,119.402c0-14.029,11.373-25.402,25.402-25.402h225.572
	c14.029,0,25.402,11.373,25.402,25.402v34.547H361.812V119.402z"/>
<path style="stroke:#000000;stroke-miterlimit:10;" d="M376.413,468.01c-1.274-19.289-17.958-33.887-37.231-32.616
	c-19.288,1.275-33.891,17.944-32.616,37.232l20.322,307.513c1.223,18.503,16.611,32.693,34.889,32.693
	c0.776,0,1.558-0.026,2.343-0.077c19.288-1.275,33.891-17.944,32.616-37.232L376.413,468.01z"/>
<path style="stroke:#000000;stroke-miterlimit:10;" d="M500,435.317c-19.33,0-35,15.67-35,35V777.83c0,19.33,15.67,35,35,35
	c19.33,0,35-15.67,35-35V470.317C535,450.988,519.33,435.317,500,435.317z"/>
<path style="stroke:#000000;stroke-miterlimit:10;" d="M660.818,435.394c-19.276-1.271-35.957,13.327-37.231,32.616l-20.322,307.513
	c-1.274,19.288,13.328,35.957,32.616,37.232c0.786,0.052,1.565,0.077,2.343,0.077c18.276,0,33.666-14.192,34.889-32.693
	l20.322-307.513C694.709,453.337,680.106,436.668,660.818,435.394z"/>
</svg>
