<?xml version="1.0" encoding="iso-8859-1"?>
<!-- Generator: Adobe Illustrator 18.0.0, SVG Export Plug-In . SVG Version: 6.00 Build 0)  -->
<!DOCTYPE svg PUBLIC "-//W3C//DTD SVG 1.1//EN" "http://www.w3.org/Graphics/SVG/1.1/DTD/svg11.dtd">
<svg version="1.1" id="Capa_1" xmlns="http://www.w3.org/2000/svg" xmlns:xlink="http://www.w3.org/1999/xlink" x="0px" y="0px"
	 viewBox="0 0 1000 1000" style="enable-background:new 0 0 1000 1000;" xml:space="preserve">
<path style="stroke:#000000;stroke-miterlimit:10;" d="M178.366,886.018c0,52.383,42.617,95,95,95h453.268c52.383,0,95-42.617,95-95
	V113.982c0-52.383-42.617-95-95-95H273.366c-52.383,0-95,42.617-95,95V886.018z M751.634,886.018c0,13.807-11.193,25-25,25H273.366
	c-13.807,0-25-11.193-25-25v-435.05h503.268L751.634,886.018L751.634,886.018z M248.366,113.982c0-13.807,11.193-25,25-25h453.268
	c13.807,0,25,11.193,25,25v266.986H248.366V113.982z"/>
<path style="stroke:#000000;stroke-miterlimit:10;" d="M648.819,146.945c-19.33,0-35,15.67-35,35v108.011c0,19.33,15.67,35,35,35
	s35-15.67,35-35V181.945C683.819,162.615,668.149,146.945,648.819,146.945z"/>
<path style="stroke:#000000;stroke-miterlimit:10;" d="M648.819,690.997c19.33,0,35-15.67,35-35V547.986c0-19.33-15.67-35-35-35
	s-35,15.67-35,35v108.011C613.819,675.327,629.489,690.997,648.819,690.997z"/>
</svg>
