<?xml version="1.0" encoding="iso-8859-1"?>
<!-- Generator: Adobe Illustrator 18.0.0, SVG Export Plug-In . SVG Version: 6.00 Build 0)  -->
<!DOCTYPE svg PUBLIC "-//W3C//DTD SVG 1.1//EN" "http://www.w3.org/Graphics/SVG/1.1/DTD/svg11.dtd">
<svg version="1.1" id="Capa_1" xmlns="http://www.w3.org/2000/svg" xmlns:xlink="http://www.w3.org/1999/xlink" x="0px" y="0px"
	 viewBox="0 0 1000 1000" style="enable-background:new 0 0 1000 1000;" xml:space="preserve">
<path style="stroke:#000000;stroke-miterlimit:10;" d="M274.203,425.342c26.592,11.248,54.8,16.951,83.839,16.951
	s57.247-5.703,83.839-16.951c25.65-10.849,48.672-26.366,68.425-46.119s35.27-42.774,46.119-68.425
	c11.248-26.593,16.951-54.8,16.951-83.839s-5.703-57.247-16.951-83.839c-10.849-25.65-26.366-48.672-46.119-68.425
	c-19.753-19.753-42.775-35.27-68.425-46.119c-26.592-11.248-54.8-16.951-83.839-16.951s-57.247,5.703-83.839,16.951
	c-25.65,10.849-48.672,26.366-68.425,46.119s-35.27,42.775-46.119,68.425c-11.248,26.592-16.951,54.8-16.951,83.839
	s5.703,57.247,16.951,83.839c10.849,25.65,26.366,48.672,46.119,68.425C225.532,398.977,248.553,414.493,274.203,425.342z
	 M503.377,226.959c0,80.266-65.068,145.334-145.334,145.334s-145.334-65.068-145.334-145.334S277.777,81.625,358.043,81.625
	S503.377,146.693,503.377,226.959z"/>
<path style="stroke:#000000;stroke-miterlimit:10;" d="M919.675,599.557c-20.895-20.895-45.246-37.308-72.376-48.783
	c-28.125-11.896-57.961-17.928-88.678-17.928s-60.553,6.032-88.678,17.928c-10.067,4.258-19.749,9.199-29.016,14.793
	c-3.748-4.292-7.644-8.476-11.703-12.534c-22.944-22.944-49.681-40.966-79.469-53.565c-30.876-13.06-63.634-19.681-97.363-19.681
	H263.693c-33.73,0-66.487,6.622-97.363,19.681c-29.788,12.599-56.525,30.621-79.469,53.565s-40.966,49.682-53.565,79.47
	c-13.06,30.876-19.681,63.634-19.681,97.363v127.451c0,52.383,42.617,95,95,95h498.856c8.144,0,16.051-1.031,23.6-2.968
	c12.192,8.251,25.177,15.306,38.873,21.099c28.125,11.896,57.961,17.928,88.678,17.928s60.553-6.032,88.678-17.928
	c27.13-11.475,51.481-27.888,72.376-48.783c20.895-20.895,37.308-45.246,48.783-72.376c11.896-28.125,17.928-57.96,17.928-88.678
	s-6.032-60.553-17.928-88.678C956.983,644.802,940.57,620.451,919.675,599.557z M690.716,903.047
	c-10.64-5.082-20.622-11.318-29.782-18.551c-10.694-8.444-20.268-18.243-28.464-29.139c-19.847-26.383-31.614-59.19-31.614-94.747
	c0-30.6,8.721-59.159,23.8-83.345c7.226-11.59,15.91-22.175,25.802-31.495c8.688-8.186,18.304-15.395,28.675-21.456
	c23.342-13.643,50.499-21.469,79.487-21.469c87.131,0,157.764,70.634,157.764,157.765S845.75,918.375,758.62,918.375
	C734.309,918.375,711.283,912.871,690.716,903.047z M108.614,882.316c-13.807,0-25-11.193-25-25v-127.45
	c0-99.455,80.624-180.079,180.079-180.079h188.699c53.691,0,101.885,23.506,134.878,60.779
	c-16.047,18.29-28.969,38.869-38.485,61.367c-11.896,28.125-17.928,57.96-17.928,88.678s6.032,60.553,17.928,88.678
	c4.877,11.531,10.655,22.554,17.281,33.028H108.614V882.316z"/>
<path style="stroke:#000000;stroke-miterlimit:10;" d="M835.556,725.61H702.418h-20.732c-5.069,0-9.882,1.086-14.231,3.025
	c-12.235,5.454-20.769,17.714-20.769,31.975c0,14.267,8.541,26.531,20.784,31.981c4.345,1.935,9.153,3.019,14.216,3.019h20.784
	h133.085c19.33,0,35-15.67,35-35S854.886,725.61,835.556,725.61z"/>
</svg>
