<?xml version="1.0" encoding="iso-8859-1"?>
<!-- Generator: Adobe Illustrator 18.0.0, SVG Export Plug-In . SVG Version: 6.00 Build 0)  -->
<!DOCTYPE svg PUBLIC "-//W3C//DTD SVG 1.1//EN" "http://www.w3.org/Graphics/SVG/1.1/DTD/svg11.dtd">
<svg version="1.1" id="Capa_1" xmlns="http://www.w3.org/2000/svg" xmlns:xlink="http://www.w3.org/1999/xlink" x="0px" y="0px"
	 viewBox="0 0 1000 1000" style="enable-background:new 0 0 1000 1000;" xml:space="preserve">
<path style="stroke:#000000;stroke-miterlimit:10;" d="M10.003,313.953v81.617c0,55.397,36.962,102.317,87.517,117.414v220.317
	c0,19.33,15.67,35,35,35s35-15.67,35-35V512.984c50.555-15.097,87.517-62.017,87.517-117.414v-81.617c0-19.33-15.67-35-35-35
	s-35,15.67-35,35v81.617c0,15.522-6.775,29.488-17.517,39.111V313.953c0-19.33-15.67-35-35-35s-35,15.67-35,35v120.729
	c-10.742-9.623-17.517-23.588-17.517-39.111v-81.617c0-19.33-15.67-35-35-35S10.003,294.623,10.003,313.953z"/>
<path style="stroke:#000000;stroke-miterlimit:10;" d="M946.109,288.076c-18.289-18.4-41.537-28.534-65.462-28.534
	s-47.173,10.134-65.462,28.534c-10.119,10.181-18.96,23.013-26.279,38.139c-11.826,24.444-18.886,53.246-18.886,77.046
	c0,29.36,10.306,57.411,29.021,78.986c12.785,14.74,28.908,25.619,46.606,31.841v219.214c0,19.33,15.67,35,35,35s35-15.67,35-35
	V514.088c17.699-6.222,33.821-17.101,46.606-31.841c18.714-21.575,29.02-49.626,29.02-78.986c0-23.8-7.06-52.602-18.886-77.046
	C965.069,311.089,956.228,298.257,946.109,288.076z M880.647,450.098c-22.438,0-40.627-20.97-40.627-46.837
	c0-25.868,18.189-73.719,40.627-73.719s40.627,47.851,40.627,73.719C921.274,429.128,903.084,450.098,880.647,450.098z"/>
<path style="stroke:#000000;stroke-miterlimit:10;" d="M607.818,278.239c-29.72-12.57-61.251-18.944-93.715-18.944
	s-63.994,6.374-93.715,18.944c-28.671,12.127-54.406,29.474-76.489,51.557c-22.083,22.083-39.429,47.818-51.556,76.489
	c-12.571,29.721-18.945,61.251-18.945,93.715s6.374,63.994,18.945,93.715c12.127,28.671,29.473,54.406,51.556,76.489
	s47.818,39.43,76.489,51.557c29.72,12.57,61.251,18.944,93.715,18.944s63.994-6.374,93.715-18.944
	c28.671-12.128,54.406-29.474,76.489-51.557s39.429-47.818,51.556-76.489c12.571-29.721,18.945-61.251,18.945-93.715
	s-6.374-63.994-18.945-93.715c-12.127-28.671-29.473-54.406-51.556-76.489S636.489,290.367,607.818,278.239z M514.103,670.705
	c-94.278,0-170.705-76.428-170.705-170.705s76.427-170.705,170.705-170.705S684.807,405.723,684.807,500
	S608.38,670.705,514.103,670.705z"/>
<path style="stroke:#000000;stroke-miterlimit:10;" d="M514.103,403.79c-53.05,0-96.21,43.159-96.21,96.21s43.159,96.21,96.21,96.21
	c53.05,0,96.209-43.159,96.209-96.21S567.153,403.79,514.103,403.79z M514.103,526.21c-14.475,0-26.21-11.734-26.21-26.21
	s11.735-26.21,26.21-26.21c14.475,0,26.209,11.734,26.209,26.21S528.578,526.21,514.103,526.21z"/>
</svg>
