<?xml version="1.0" encoding="iso-8859-1"?>
<!-- Generator: Adobe Illustrator 18.0.0, SVG Export Plug-In . SVG Version: 6.00 Build 0)  -->
<!DOCTYPE svg PUBLIC "-//W3C//DTD SVG 1.1//EN" "http://www.w3.org/Graphics/SVG/1.1/DTD/svg11.dtd">
<svg version="1.1" id="Capa_1" xmlns="http://www.w3.org/2000/svg" xmlns:xlink="http://www.w3.org/1999/xlink" x="0px" y="0px"
	 viewBox="0 0 1000 1000" style="enable-background:new 0 0 1000 1000;" xml:space="preserve">
<path style="stroke:#000000;stroke-miterlimit:10;" d="M324.376,909.043V549.478c28.11-10.831,53.895-27.531,75.836-49.473
	c41.274-41.274,64.005-96.151,64.005-154.521V216.11v-41.781V44.957c0-19.33-15.67-35-35-35s-35,15.67-35,35v129.372v41.781
	c0,69.844-48.464,128.572-113.526,144.35V44.957c0-19.33-15.67-35-35-35s-35,15.67-35,35V360.46
	c-65.063-15.776-113.527-74.505-113.527-144.35v-41.781V44.957c0-19.33-15.67-35-35-35s-35,15.67-35,35v129.372v41.781v129.373
	c0,58.37,22.731,113.247,64.005,154.521c21.941,21.941,47.726,38.642,75.836,49.473v359.565c0,43.388,35.298,78.686,78.686,78.686
	C289.078,987.729,324.376,952.431,324.376,909.043z M101.242,380.078c39.93,35.274,90.704,54.559,144.449,54.559
	s104.519-19.284,144.449-54.559c-15.631,65.267-74.46,113.932-144.45,113.932C175.701,494.01,116.872,445.345,101.242,380.078z
	 M237.005,909.043V563.825c2.887,0.112,5.78,0.185,8.686,0.185c2.905,0,5.799-0.072,8.685-0.185v345.218
	c0,4.789-3.896,8.686-8.686,8.686C240.902,917.729,237.005,913.832,237.005,909.043z"/>
<path style="stroke:#000000;stroke-miterlimit:10;" d="M840.774,53.463c-28.693-28.868-59.445-43.506-91.401-43.506
	s-62.708,14.638-91.402,43.506c-22.265,22.4-42.805,52.88-61.05,90.592c-32.555,67.29-53.591,150.215-53.591,211.263
	c0,61.097,20.832,118.76,58.658,162.368c19.879,22.918,43.206,40.581,68.699,52.415v338.942c0,43.388,35.298,78.686,78.686,78.686
	c43.387,0,78.685-35.298,78.685-78.686V570.101c25.493-11.834,48.82-29.497,68.7-52.415
	c37.826-43.608,58.658-101.271,58.658-162.368c0-61.048-21.036-143.973-53.591-211.263
	C883.579,106.343,863.039,75.863,840.774,53.463z M758.058,909.043c0,4.789-3.896,8.686-8.686,8.686s-8.685-3.896-8.685-8.686
	V587.291c2.885,0.133,5.779,0.216,8.686,0.216c2.906,0,5.8-0.083,8.685-0.216V909.043z M749.373,517.507
	c-75.014,0-136.043-72.758-136.043-162.189c0-50.512,18.729-123.16,46.604-180.776c28.226-58.342,62.497-94.584,89.439-94.584
	s61.213,36.242,89.439,94.584c27.875,57.616,46.604,130.265,46.604,180.776C885.416,444.749,824.387,517.507,749.373,517.507z"/>
</svg>
