<?xml version="1.0" encoding="iso-8859-1"?>
<!-- Generator: Adobe Illustrator 18.0.0, SVG Export Plug-In . SVG Version: 6.00 Build 0)  -->
<!DOCTYPE svg PUBLIC "-//W3C//DTD SVG 1.1//EN" "http://www.w3.org/Graphics/SVG/1.1/DTD/svg11.dtd">
<svg version="1.1" id="Capa_1" xmlns="http://www.w3.org/2000/svg" xmlns:xlink="http://www.w3.org/1999/xlink" x="0px" y="0px"
	 viewBox="0 0 1000 1000" style="enable-background:new 0 0 1000 1000;" xml:space="preserve">
<g>
	<path style="fill:#211915;stroke:#000000;stroke-miterlimit:10;" d="M894.202,190.705c-16.585,0-32.997,4.414-47.461,12.765
		L586.73,353.587v-67.844c0-52.404-42.634-95.038-95.039-95.038c-16.585,0-32.997,4.414-47.461,12.765L67.93,420.728
		c-14.968,8.642-27.278,21.146-35.6,36.16c-7.785,14.046-11.9,29.991-11.9,46.112c0,16.121,4.115,32.066,11.9,46.112
		c8.322,15.015,20.632,27.519,35.6,36.16l376.3,217.257c14.466,8.352,30.877,12.766,47.461,12.766
		c52.404,0,95.039-42.634,95.039-95.038v-67.845l260.01,150.117c14.466,8.352,30.877,12.766,47.461,12.766
		c52.404,0,95.039-42.634,95.039-95.038V285.743C989.241,233.339,946.606,190.705,894.202,190.705z M516.73,611.998v108.259
		c0,14.595-11.979,25.038-25.039,25.038c-4.161,0-8.434-1.062-12.461-3.387L102.93,524.65c-16.667-9.622-16.667-33.679,0-43.301
		l376.3-217.257c4.028-2.325,8.299-3.387,12.461-3.387c13.058,0,25.039,10.444,25.039,25.038v108.259v80.829v56.338V611.998z
		 M919.241,720.257c0,14.595-11.979,25.038-25.039,25.038c-4.161,0-8.434-1.062-12.461-3.387L586.73,571.584V434.416l295.01-170.324
		c4.028-2.325,8.299-3.387,12.461-3.387c13.058,0,25.039,10.444,25.039,25.038v434.514H919.241z"/>
</g>
</svg>
