<?xml version="1.0" encoding="iso-8859-1"?>
<!-- Generator: Adobe Illustrator 18.0.0, SVG Export Plug-In . SVG Version: 6.00 Build 0)  -->
<!DOCTYPE svg PUBLIC "-//W3C//DTD SVG 1.1//EN" "http://www.w3.org/Graphics/SVG/1.1/DTD/svg11.dtd">
<svg version="1.1" id="Capa_1" xmlns="http://www.w3.org/2000/svg" xmlns:xlink="http://www.w3.org/1999/xlink" x="0px" y="0px"
	 viewBox="0 0 1000 1000" style="enable-background:new 0 0 1000 1000;" xml:space="preserve">
<g>
	<path style="fill:#211915;stroke:#000000;stroke-miterlimit:10;" d="M55.284,812.541c18.077,19.529,43.652,30.73,70.168,30.73
		c18.601,0,36.715-5.456,52.386-15.778c27.531-18.135,73.476-44.42,136.015-66.657c59.547-21.173,122.609-34.663,188.016-40.254
		v48.61c0,13.53,2.75,26.588,8.175,38.811c5.175,11.662,12.54,22.01,21.889,30.755c17.834,16.682,41.095,25.869,65.495,25.869
		c24.767,0,48.278-9.566,66.203-26.935l277.362-268.778c9.413-9.122,16.726-19.871,21.734-31.95
		c4.815-11.614,7.262-23.886,7.271-36.475c0.01-12.589-2.418-24.865-7.216-36.486c-4.989-12.086-12.285-22.847-21.685-31.983
		L663.738,162.412c-17.936-17.434-41.482-27.037-66.302-27.039l0,0c-24.401-0.002-47.663,9.183-65.498,25.864
		c-9.352,8.746-16.718,19.095-21.894,30.759c-5.424,12.223-8.174,25.281-8.174,38.812v55.244
		c-79.791,6.567-151.081,24.733-212.417,54.177c-63.778,30.617-117.292,73.522-159.054,127.523
		C97.03,510.9,71.306,560.951,53.94,616.514c-12.402,39.68-20.359,81.38-23.651,123.942c-1.051,13.587,0.725,26.919,5.279,39.625
		C39.901,792.167,46.534,803.088,55.284,812.541z M100.081,745.854c8.932-115.501,70.514-381.164,447.199-392.233
		c13.703-0.403,24.59-11.66,24.59-25.368v-97.445c0-15.275,12.5-25.436,25.56-25.435c6.127,0.001,12.379,2.238,17.518,7.233
		L892.31,482.213c10.266,9.979,10.253,26.468-0.028,36.431L614.919,787.421c-5.136,4.977-11.374,7.206-17.49,7.206
		c-13.06,0-25.559-10.164-25.559-25.435v-95.816c0-14.041-11.388-25.392-25.336-25.391c-0.246,0-0.494,0.004-0.742,0.011
		c-203.164,5.845-342.39,78.836-406.459,121.039c-4.434,2.921-9.22,4.236-13.88,4.236
		C111.586,773.271,98.863,761.606,100.081,745.854z"/>
</g>
</svg>
