<?xml version="1.0" encoding="iso-8859-1"?>
<!-- Generator: Adobe Illustrator 18.0.0, SVG Export Plug-In . SVG Version: 6.00 Build 0)  -->
<!DOCTYPE svg PUBLIC "-//W3C//DTD SVG 1.1//EN" "http://www.w3.org/Graphics/SVG/1.1/DTD/svg11.dtd">
<svg version="1.1" id="Capa_1" xmlns="http://www.w3.org/2000/svg" xmlns:xlink="http://www.w3.org/1999/xlink" x="0px" y="0px"
	 viewBox="0 0 1000 1000" style="enable-background:new 0 0 1000 1000;" xml:space="preserve">
<g>
	<path style="fill:#211915;stroke:#000000;stroke-miterlimit:10;" d="M839.196,160.866
		c-44.014-44.014-95.286-78.578-152.394-102.732c-59.16-25.023-121.963-37.71-186.664-37.71c-64.702,0-127.505,12.688-186.666,37.71
		c-57.106,24.154-108.379,58.718-152.393,102.732S82.502,256.153,58.348,313.26c-25.024,59.16-37.711,121.963-37.711,186.665
		S33.324,627.429,58.348,686.59c24.154,57.107,58.718,108.38,102.732,152.394s95.286,78.578,152.393,102.732
		c59.161,25.023,121.964,37.71,186.666,37.71c64.701,0,127.504-12.688,186.664-37.71c57.107-24.154,108.38-58.718,152.394-102.732
		c44.015-44.014,78.579-95.287,102.732-152.394c25.023-59.16,37.711-121.964,37.711-186.665S966.952,372.42,941.929,313.26
		C917.775,256.153,883.211,204.88,839.196,160.866z M500.139,909.426c-226.162,0-409.502-183.34-409.502-409.501
		S273.977,90.424,500.139,90.424c226.16,0,409.501,183.34,409.501,409.501S726.299,909.426,500.139,909.426z"/>
	<path style="fill:#211915;stroke:#000000;stroke-miterlimit:10;" d="M612.054,288.855c-16.899-13.689-38.092-21.227-59.674-21.227
		c-24.416,0-47.661,9.247-65.452,26.036c-9.22,8.702-16.485,18.975-21.592,30.534c-5.36,12.133-8.078,25.079-8.078,38.477v9.298
		H271.303c-50.005,0-90.687,40.682-90.687,90.687v74.681c0,50.005,40.682,90.687,90.687,90.687h185.955v10.919
		c0,13.404,2.72,26.354,8.084,38.49c5.109,11.562,12.379,21.836,21.604,30.537c17.79,16.779,41.029,26.02,65.438,26.02
		c21.773,0,43.111-7.658,60.083-21.562l174.536-143c0.958-0.785,1.895-1.595,2.81-2.43c18.794-17.143,29.573-41.563,29.573-67
		c0-25.438-10.779-49.858-29.573-67c-1.011-0.923-2.049-1.815-3.112-2.677L612.054,288.855z M742.639,515.283l-174.537,143
		c-4.808,3.939-10.324,5.709-15.719,5.709c-12.919,0-25.125-10.164-25.125-25.048v-60.232c0-11.425-9.262-20.687-20.687-20.687
		H271.303c-11.425,0-20.687-9.262-20.687-20.687V462.66c0-11.425,9.262-20.687,20.687-20.687h235.269
		c11.425,0,20.687-9.262,20.687-20.687v-58.611c0-14.875,12.197-25.047,25.122-25.047c5.351,0,10.828,1.745,15.613,5.621
		L742.64,484.716C751.633,492.921,751.633,507.079,742.639,515.283z"/>
</g>
</svg>
