<?xml version="1.0" encoding="iso-8859-1"?>
<!-- Generator: Adobe Illustrator 18.0.0, SVG Export Plug-In . SVG Version: 6.00 Build 0)  -->
<!DOCTYPE svg PUBLIC "-//W3C//DTD SVG 1.1//EN" "http://www.w3.org/Graphics/SVG/1.1/DTD/svg11.dtd">
<svg version="1.1" id="Capa_1" xmlns="http://www.w3.org/2000/svg" xmlns:xlink="http://www.w3.org/1999/xlink" x="0px" y="0px"
	 viewBox="0 0 1000 1000" style="enable-background:new 0 0 1000 1000;" xml:space="preserve">
<g>
	<path style="fill:#211915;stroke:#000000;stroke-miterlimit:10;" d="M618.669,909.125c5.11,11.562,12.379,21.836,21.604,30.538
		c17.79,16.779,41.029,26.02,65.438,26.02c21.773,0,43.11-7.658,60.082-21.562l173.764-142.367c1.553-1.27,3.974-3.31,6.702-6.047
		c17.021-17.068,26.416-39.754,26.453-63.876c0.037-24.114-9.282-46.823-26.241-63.945c-2.932-2.959-5.55-5.148-7.265-6.538
		L765.382,520.545c-16.901-13.689-38.093-21.227-59.674-21.227c-24.417,0-47.661,9.246-65.452,26.036
		c-9.221,8.702-16.485,18.975-21.592,30.534c-5.36,12.133-8.079,25.079-8.079,38.477v9.298H122.288c-52.383,0-95,42.617-95,95
		v66.054c0,52.383,42.617,95,95,95h488.297v10.919C610.585,884.039,613.305,896.989,618.669,909.125z M122.288,789.716
		c-13.807,0-25-11.193-25-25v-66.054c0-13.807,11.193-25,25-25h533.297c13.807,0,25-11.193,25-25v-54.298
		c0-14.875,12.198-25.047,25.123-25.047c5.351,0,10.828,1.744,15.613,5.621l173.814,140.794c0.554,0.448,1.101,0.907,1.603,1.413
		c7.981,8.058,7.965,21.098-0.049,29.135c-0.47,0.471-0.98,0.903-1.496,1.324L721.429,889.973
		c-4.807,3.939-10.324,5.709-15.718,5.709c-12.919,0-25.125-10.164-25.125-25.047v-55.919c0-13.807-11.193-25-25-25H122.288z"/>
	<path style="fill:#211915;stroke:#000000;stroke-miterlimit:10;" d="M972.712,233.662c0-52.383-42.617-95-95-95H389.415v-9.298
		c0-13.398-2.718-26.343-8.078-38.476c-5.106-11.559-12.37-21.832-21.59-30.533c-17.791-16.791-41.036-26.038-65.453-26.038
		c0,0-0.006,0-0.009,0c-21.579,0.002-42.768,7.54-59.665,21.225L60.804,196.339c-1.725,1.398-4.344,3.587-7.271,6.542
		c-16.963,17.125-26.282,39.834-26.245,63.948c0.038,24.122,9.433,46.808,26.455,63.879c2.726,2.734,5.148,4.774,6.732,6.07
		L234.208,479.12c16.971,13.905,38.309,21.562,60.082,21.562c24.409,0,47.648-9.24,65.438-26.02
		c9.226-8.702,16.495-18.976,21.604-30.538c5.364-12.136,8.083-25.086,8.083-38.49v-10.919h488.297c52.383,0,95-42.617,95-95
		V233.662z M902.712,299.716c0,13.807-11.193,25-25,25H344.415c-13.807,0-25,11.193-25,25v55.919
		c0,14.884-12.206,25.047-25.125,25.047c-5.394,0-10.911-1.771-15.718-5.709L104.807,282.605c-0.515-0.422-1.025-0.853-1.496-1.324
		c-8.014-8.037-8.03-21.077-0.049-29.135c0.501-0.506,1.049-0.965,1.603-1.413l173.814-140.794
		c4.785-3.876,10.262-5.621,15.613-5.621c12.925-0.001,25.123,10.172,25.123,25.047v54.298c0,13.807,11.193,25,25,25h533.297
		c13.807,0,25,11.193,25,25V299.716z"/>
</g>
</svg>
