<?xml version="1.0" encoding="iso-8859-1"?>
<!-- Generator: Adobe Illustrator 18.0.0, SVG Export Plug-In . SVG Version: 6.00 Build 0)  -->
<!DOCTYPE svg PUBLIC "-//W3C//DTD SVG 1.1//EN" "http://www.w3.org/Graphics/SVG/1.1/DTD/svg11.dtd">
<svg version="1.1" id="Capa_1" xmlns="http://www.w3.org/2000/svg" xmlns:xlink="http://www.w3.org/1999/xlink" x="0px" y="0px"
	 viewBox="0 0 1000 1000" style="enable-background:new 0 0 1000 1000;" xml:space="preserve">
<g>
	<path style="fill:#211915;stroke:#000000;stroke-miterlimit:10;" d="M161.152,839.058c44.014,44.014,95.286,78.578,152.394,102.733
		c59.16,25.023,121.963,37.71,186.665,37.71c64.701,0,127.504-12.688,186.665-37.71c57.106-24.154,108.379-58.718,152.393-102.733
		c44.014-44.014,78.579-95.286,102.732-152.393c25.023-59.161,37.71-121.964,37.71-186.665s-12.688-127.504-37.71-186.665
		c-24.154-57.107-58.718-108.379-102.732-152.393S743.982,82.364,686.876,58.209c-59.161-25.023-121.964-37.71-186.665-37.71
		c-64.702,0-127.505,12.688-186.665,37.71c-57.107,24.154-108.38,58.718-152.394,102.733
		c-44.014,44.014-78.578,95.286-102.732,152.393C33.397,372.496,20.709,435.299,20.709,500s12.688,127.504,37.71,186.665
		C82.574,743.772,117.138,795.044,161.152,839.058z M500.211,90.499c226.161,0,409.501,183.34,409.501,409.501
		s-183.34,409.501-409.501,409.501S90.709,726.161,90.709,500S274.05,90.499,500.211,90.499z"/>
	<path style="fill:#211915;stroke:#000000;stroke-miterlimit:10;" d="M309.539,700.126h104.607
		c0.115,13.14,2.845,25.828,8.118,37.727c5.139,11.596,12.45,21.89,21.731,30.597c17.772,16.674,40.963,25.856,65.303,25.856
		c23.608,0,46.29-8.829,63.867-24.862l218.443-199.258c19.687-17.957,30.978-43.539,30.978-70.186s-11.292-52.229-30.979-70.187
		L573.164,230.556c-17.578-16.033-40.259-24.863-63.867-24.863c-24.34,0-47.532,9.182-65.303,25.855
		c-9.281,8.707-16.593,19.003-21.731,30.599c-5.272,11.898-8.002,24.586-8.117,37.726H309.539c-52.383,0-95,42.617-95,95v210.253
		C214.539,657.51,257.155,700.126,309.539,700.126z M284.539,394.874c0-13.807,11.193-25,25-25h149.603c13.807,0,25-11.193,25-25
		v-44.131c0-14.984,12.272-25.049,25.155-25.049c5.794,0,11.713,2.037,16.693,6.579L744.432,481.53
		c10.87,9.915,10.87,27.025,0,36.94L525.99,717.728c-4.98,4.543-10.897,6.579-16.693,6.579c-12.881,0-25.155-10.067-25.155-25.049
		v-44.131c0-13.807-11.193-25-25-25H309.539c-13.807,0-25-11.193-25-25V394.874z"/>
</g>
</svg>
