<?xml version="1.0" encoding="iso-8859-1"?>
<!-- Generator: Adobe Illustrator 18.0.0, SVG Export Plug-In . SVG Version: 6.00 Build 0)  -->
<!DOCTYPE svg PUBLIC "-//W3C//DTD SVG 1.1//EN" "http://www.w3.org/Graphics/SVG/1.1/DTD/svg11.dtd">
<svg version="1.1" id="Capa_1" xmlns="http://www.w3.org/2000/svg" xmlns:xlink="http://www.w3.org/1999/xlink" x="0px" y="0px"
	 viewBox="0 0 1000 1000" style="enable-background:new 0 0 1000 1000;" xml:space="preserve">
<path style="stroke:#000000;stroke-miterlimit:10;" d="M972.94,342.761c-5.192-11.621-12.568-21.92-21.924-30.611
	c-17.734-16.475-40.829-25.548-65.032-25.548c-12.718,0-25.085,2.506-36.758,7.447c-12.212,5.169-23.068,12.752-32.265,22.536
	L709.809,430.571L584.458,187.118c-16.358-31.771-48.721-51.51-84.458-51.512c-35.734-0.002-68.097,19.732-84.46,51.501
	L290.138,430.581L183.149,316.768c-9.197-9.783-20.051-17.364-32.263-22.534c-11.671-4.941-24.035-7.447-36.749-7.448
	c-24.253-0.003-47.384,9.099-65.132,25.629c-9.363,8.72-16.736,19.051-21.914,30.705c-5.419,12.196-8.165,25.233-8.16,38.747
	l0.104,323.152c0,23.296,8.447,45.825,24.428,65.13c10.816,13.065,24.764,24.476,42.642,34.887
	c26.479,15.419,62.362,28.736,106.651,39.58C275.416,864.854,384.531,876,500,876c115.334,0,224.684-11.338,307.906-31.925
	c44.38-10.978,80.352-24.414,106.917-39.933c17.883-10.447,31.834-21.872,42.652-34.928c16.022-19.337,24.49-41.889,24.49-65.218
	v-0.085v-0.085L981.18,381.42C981.147,367.93,978.375,354.924,972.94,342.761z M500,806c-226.97,0-410.965-44.669-410.965-101.004
	l-0.104-323.152c-0.005-15.134,12.36-25.06,25.197-25.058c6.375,0.001,12.87,2.45,18.018,7.927l150.616,160.223
	c5.011,5.331,11.618,7.88,18.17,7.88c8.908,0,17.716-4.713,22.27-13.556L477.77,219.159c4.654-9.036,13.439-13.553,22.225-13.553
	s17.574,4.519,22.227,13.556l154.513,300.092c4.555,8.846,13.361,13.559,22.272,13.559c6.551,0,13.16-2.55,18.17-7.88
	l150.786-160.404c5.149-5.478,11.641-7.927,18.019-7.927c12.812,0,25.159,9.89,25.196,24.989l0.785,322.406
	C911.965,760.331,726.97,806,500,806z"/>
</svg>
