<?xml version="1.0" encoding="iso-8859-1"?>
<!-- Generator: Adobe Illustrator 18.0.0, SVG Export Plug-In . SVG Version: 6.00 Build 0)  -->
<!DOCTYPE svg PUBLIC "-//W3C//DTD SVG 1.1//EN" "http://www.w3.org/Graphics/SVG/1.1/DTD/svg11.dtd">
<svg version="1.1" id="Capa_1" xmlns="http://www.w3.org/2000/svg" xmlns:xlink="http://www.w3.org/1999/xlink" x="0px" y="0px"
	 viewBox="0 0 1000 1000" style="enable-background:new 0 0 1000 1000;" xml:space="preserve">
<path style="stroke:#000000;stroke-miterlimit:10;" d="M64.221,654.625c-30.246,105.832-17.625,193.018,36.143,246.787
	c34.75,34.749,83.175,52.31,141.543,52.309c32.254-0.001,67.553-5.376,105.247-16.165c48.974,17.206,100.259,25.912,152.847,25.912
	c62.298,0,122.769-12.217,179.733-36.311c54.986-23.257,104.354-56.537,146.732-98.916s75.658-91.747,98.916-146.733
	c24.094-56.965,36.311-117.436,36.311-179.733c0-52.583-8.704-103.865-25.907-152.836c30.317-105.908,17.807-192.845-36.148-246.801
	c-53.55-53.547-141.101-66.337-246.784-36.142C603.877,48.789,552.59,40.083,500,40.083c-62.298,0-122.769,12.217-179.733,36.311
	c-54.986,23.257-104.354,56.537-146.732,98.916s-75.658,91.747-98.916,146.733c-24.094,56.965-36.311,117.436-36.311,179.733
	C38.308,554.364,47.014,605.65,64.221,654.625z M227.873,883.172c-33.327-2.303-59.574-12.82-78.012-31.258
	c-17.783-17.782-28.209-42.866-30.987-74.554c-0.454-5.177-0.68-10.504-0.729-15.944c16.23,23.83,34.726,46.161,55.39,66.825
	c20.66,20.661,42.986,39.152,66.811,55.38C236.095,883.592,231.928,883.453,227.873,883.172z M500,893.468
	c-13.061,0-25.971-0.646-38.703-1.895c83.651-42.901,168.469-105.841,245.564-182.937s140.035-161.913,182.937-245.564
	c1.249,12.732,1.895,25.642,1.895,38.703C891.692,718.101,716.326,893.468,500,893.468z M850.139,151.637
	c18.438,18.438,28.954,44.685,31.259,78.012c0.28,4.055,0.419,8.223,0.448,12.473c-16.229-23.824-34.72-46.151-55.38-66.812
	c-20.695-20.695-43.062-39.215-66.932-55.463C798.288,120.134,829.311,130.809,850.139,151.637z M500,110.083
	c162.985,0,302.713,99.549,361.714,241.159c-0.314,0.926-0.609,1.845-0.931,2.774c-16.751,48.4-42.416,98.995-76.282,150.376
	c-35.422,53.743-78.197,105.808-127.138,154.747c-48.939,48.94-101.004,91.716-154.747,127.138
	c-51.381,33.866-101.976,59.531-150.376,76.282c-0.929,0.321-1.848,0.617-2.773,0.931
	c-141.61-59.002-241.159-198.73-241.159-361.715C108.308,285.45,283.674,110.083,500,110.083z"/>
</svg>
