<?xml version="1.0" encoding="iso-8859-1"?>
<!-- Generator: Adobe Illustrator 18.0.0, SVG Export Plug-In . SVG Version: 6.00 Build 0)  -->
<!DOCTYPE svg PUBLIC "-//W3C//DTD SVG 1.1//EN" "http://www.w3.org/Graphics/SVG/1.1/DTD/svg11.dtd">
<svg version="1.1" id="Capa_1" xmlns="http://www.w3.org/2000/svg" xmlns:xlink="http://www.w3.org/1999/xlink" x="0px" y="0px"
	 viewBox="0 0 1000 1000" style="enable-background:new 0 0 1000 1000;" xml:space="preserve">
<path style="fill:#211915;stroke:#000000;stroke-miterlimit:10;" d="M102.612,982.664h790.386c52.383,0,95-42.617,95-95V141.278
	c0-52.383-42.617-95-95-95h-11.539h-70H627.232h-70.39h-56.354h-70h-58.213h-70h-27.967c-24.363,0-47.533,9.214-65.242,25.946
	L37.368,234.453C18.457,252.32,7.612,277.489,7.612,303.505v584.159C7.612,940.047,50.229,982.664,102.612,982.664z
	 M556.843,116.278l-0.439,79.098c-0.076,13.753-11.246,24.861-24.999,24.861h-5.916c-13.808,0-25-11.193-25-25v-78.959H556.843z
	 M430.488,116.278v78.959c0,52.383,42.617,95,95,95h5.916c25.276,0,49.066-9.816,66.989-27.64
	c17.922-17.823,27.868-41.559,28.009-66.834l0.439-79.097l0.002-0.389h184.615v200.947c0,13.807-11.192,25-25,25H397.275
	c-13.808,0-25-11.193-25-25V116.278H430.488z M77.612,303.505c0-6.876,2.832-13.449,7.83-18.172l171.696-162.227
	c4.642-4.385,10.785-6.828,17.17-6.828h27.967v200.947c0,52.383,42.617,95,95,95h389.184c52.383,0,95-42.617,95-95V116.278h11.539
	c13.807,0,25,11.193,25,25v746.386c0,13.807-11.193,25-25,25H102.612c-13.808,0-25-11.193-25-25V303.505z"/>
</svg>
