<?xml version="1.0" encoding="iso-8859-1"?>
<!-- Generator: Adobe Illustrator 18.0.0, SVG Export Plug-In . SVG Version: 6.00 Build 0)  -->
<!DOCTYPE svg PUBLIC "-//W3C//DTD SVG 1.1//EN" "http://www.w3.org/Graphics/SVG/1.1/DTD/svg11.dtd">
<svg version="1.1" id="Capa_1" xmlns="http://www.w3.org/2000/svg" xmlns:xlink="http://www.w3.org/1999/xlink" x="0px" y="0px"
	 viewBox="0 0 1000 1000" style="enable-background:new 0 0 1000 1000;" xml:space="preserve">
<path style="fill:#211915;stroke:#000000;stroke-miterlimit:10;" d="M60.377,547.168c19.248,45.508,46.789,86.363,81.857,121.432
	c35.069,35.068,75.924,62.609,121.432,81.857c47.152,19.943,97.199,30.056,148.75,30.056s101.599-10.112,148.75-30.056
	c7.901-3.342,15.652-6.95,23.267-10.788l214.089,214.089c18.966,18.965,44.181,29.409,71,29.409s52.034-10.444,70.999-29.408
	l17.256-17.256c39.148-39.149,39.148-102.849,0.002-141.998L746.763,583.488c6.502-11.747,12.421-23.852,17.694-36.32
	c19.943-47.152,30.056-97.199,30.056-148.75s-10.112-101.599-30.056-148.75c-19.248-45.508-46.789-86.363-81.857-121.432
	c-35.069-35.068-75.924-62.609-121.432-81.857c-47.152-19.943-97.199-30.056-148.75-30.056s-101.599,10.112-148.75,30.056
	c-45.508,19.248-86.363,46.789-121.432,81.857c-35.068,35.069-62.609,75.924-81.857,121.432
	c-19.943,47.152-30.056,97.199-30.056,148.75S40.434,500.016,60.377,547.168z M656.803,592.523
	c-17.753,22.321-38.499,42.149-61.631,58.889c-19.583,14.171-40.872,26.122-63.507,35.488
	c-36.742,15.205-77.01,23.613-119.248,23.613c-172.366,0-312.096-139.73-312.096-312.096S240.052,86.322,412.417,86.322
	s312.096,139.73,312.096,312.096c0,47.606-10.676,92.712-29.738,133.083C684.458,553.351,671.685,573.811,656.803,592.523z
	 M908.282,844.001c11.875,11.875,11.875,31.129,0,43.004l-17.256,17.255c-5.938,5.938-13.72,8.906-21.502,8.906
	s-15.564-2.969-21.502-8.906L645.201,701.44c13.09-10.079,25.581-21.021,37.399-32.84c8.436-8.435,16.424-17.214,23.977-26.303
	L908.282,844.001z"/>
<path style="fill:#211915;stroke:#000000;stroke-miterlimit:10;" d="M543.371,268.077c-13.669-13.669-35.829-13.668-49.498,0
	l-80.843,80.842l-80.843-80.842c-13.67-13.668-35.83-13.668-49.498,0c-13.668,13.669-13.668,35.829,0,49.498l80.843,80.842
	l-80.843,80.842c-13.668,13.669-13.668,35.829,0,49.498c6.835,6.835,15.791,10.251,24.749,10.251
	c8.956,0,17.915-3.418,24.749-10.251l80.843-80.842l14.389,14.389l49.498,49.497l16.956,16.956
	c6.835,6.834,15.792,10.251,24.749,10.251s17.915-3.417,24.749-10.251c13.668-13.669,13.668-35.829,0-49.498l-16.923-16.923
	l-49.498-49.497l-14.422-14.422l80.843-80.842C557.039,303.906,557.039,281.746,543.371,268.077z"/>
</svg>
