<?xml version="1.0" encoding="iso-8859-1"?>
<!-- Generator: Adobe Illustrator 18.0.0, SVG Export Plug-In . SVG Version: 6.00 Build 0)  -->
<!DOCTYPE svg PUBLIC "-//W3C//DTD SVG 1.1//EN" "http://www.w3.org/Graphics/SVG/1.1/DTD/svg11.dtd">
<svg version="1.1" id="Capa_1" xmlns="http://www.w3.org/2000/svg" xmlns:xlink="http://www.w3.org/1999/xlink" x="0px" y="0px"
	 viewBox="0 0 1000 1000" style="enable-background:new 0 0 1000 1000;" xml:space="preserve">
<path style="fill:#211915;stroke:#000000;stroke-miterlimit:10;" d="M47.895,388.95c-20.445,23.622-31.704,53.835-31.704,85.076
	v49.967c0,31.241,11.259,61.455,31.704,85.076c17.032,19.678,39.506,33.705,64.41,40.43c2.252,5.797,4.634,11.544,7.145,17.235
	c-12.856,22.366-18.831,48.178-16.96,74.138c2.246,31.16,15.649,60.486,37.74,82.576l35.331,35.332
	c12.342,12.342,26.778,21.927,42.906,28.489c15.637,6.362,32.135,9.588,49.036,9.588c23.018,0,45.142-5.938,64.794-17.288
	c5.684,2.507,11.424,4.886,17.213,7.135c6.725,24.904,20.75,47.377,40.429,64.409c23.622,20.445,53.836,31.705,85.076,31.705h49.967
	c31.241,0,61.455-11.259,85.076-31.705c19.679-17.032,33.704-39.506,40.429-64.409c5.79-2.25,11.529-4.628,17.213-7.135
	c19.653,11.35,41.777,17.288,64.795,17.288c16.902,0,33.4-3.226,49.036-9.588c16.128-6.562,30.563-16.146,42.906-28.489
	l35.332-35.333c22.09-22.09,35.493-51.416,37.74-82.576c1.872-25.96-4.104-51.772-16.96-74.138
	c2.51-5.691,4.893-11.438,7.145-17.235c24.904-6.725,47.378-20.751,64.41-40.43c20.445-23.622,31.704-53.835,31.704-85.076v-49.967
	c0-31.241-11.259-61.455-31.704-85.076c-17.032-19.679-39.506-33.705-64.41-40.43c-2.251-5.795-4.635-11.545-7.145-17.235
	c12.856-22.366,18.831-48.178,16.96-74.138c-2.246-31.16-15.649-60.486-37.74-82.576l-35.332-35.333
	c-12.343-12.342-26.778-21.927-42.906-28.489c-15.637-6.362-32.135-9.588-49.035-9.588c-23.018,0-45.142,5.938-64.795,17.288
	c-5.684-2.507-11.424-4.886-17.213-7.135c-6.725-24.904-20.751-47.377-40.429-64.41c-23.622-20.445-53.836-31.704-85.076-31.704
	h-49.967c-31.24,0-61.455,11.259-85.076,31.704c-19.678,17.032-33.704,39.506-40.429,64.41c-5.79,2.25-11.529,4.628-17.213,7.135
	c-19.652-11.35-41.776-17.287-64.793-17.288c-16.901,0-33.4,3.225-49.037,9.587c-16.128,6.562-30.563,16.147-42.906,28.489
	l-35.332,35.332c-22.091,22.091-35.493,51.417-37.74,82.577c-1.872,25.96,4.103,51.772,16.96,74.138
	c-2.51,5.691-4.893,11.438-7.145,17.235C87.401,355.246,64.927,369.271,47.895,388.95z M149.814,412.811
	c9.441-1.417,17.27-8.083,20.121-17.195c6.199-19.812,14.132-38.856,23.622-56.957c4.417-8.425,3.535-18.653-2.118-26.304
	l-7.358-9.958c-17.839-23.886-15.434-57.248,5.647-78.329l35.332-35.332c11.629-11.629,26.993-17.575,42.444-17.574
	c12.558,0,25.175,3.929,35.885,11.928l9.958,7.358c4.393,3.246,9.636,4.919,14.9,4.919c3.903,0,7.817-0.92,11.404-2.801
	c18.101-9.49,37.145-17.423,56.957-23.622c9.112-2.851,15.778-10.679,17.195-20.121l1.836-12.229
	c4.276-29.505,29.567-51.394,59.38-51.394h49.967c29.813,0,55.104,21.889,59.38,51.394l1.836,12.229
	c1.417,9.441,8.083,17.27,17.195,20.121c19.812,6.199,38.856,14.132,56.957,23.622c3.588,1.881,7.501,2.801,11.404,2.801
	c5.263,0,10.507-1.673,14.9-4.919l9.958-7.358c10.711-8,23.324-11.928,35.885-11.928c15.449,0,30.816,5.947,42.444,17.574
	l35.332,35.332c21.081,21.081,23.486,54.442,5.647,78.329l-7.358,9.958c-5.653,7.651-6.536,17.879-2.118,26.304
	c9.49,18.1,17.423,37.145,23.622,56.957c2.851,9.111,10.679,15.777,20.121,17.195l12.229,1.836
	c29.504,4.276,51.394,29.567,51.394,59.38v49.967c0,29.812-21.889,55.104-51.394,59.38l-12.229,1.836
	c-9.441,1.417-17.27,8.083-20.121,17.195c-6.199,19.812-14.132,38.856-23.622,56.957c-4.417,8.425-3.535,18.653,2.118,26.304
	l7.358,9.958c17.839,23.887,15.434,57.248-5.647,78.329l-35.332,35.332c-11.629,11.629-26.993,17.574-42.444,17.574
	c-12.558,0-25.175-3.929-35.885-11.927l-9.958-7.358c-4.393-3.246-9.636-4.919-14.9-4.919c-3.903,0-7.817,0.92-11.404,2.801
	c-18.101,9.49-37.145,17.423-56.957,23.622c-9.112,2.851-15.778,10.679-17.195,20.121l-1.836,12.229
	c-4.276,29.504-29.567,51.394-59.38,51.394h-49.967c-29.813,0-55.104-21.89-59.38-51.394l-1.836-12.229
	c-1.417-9.441-8.083-17.27-17.195-20.121c-19.812-6.199-38.856-14.132-56.957-23.622c-3.588-1.881-7.501-2.801-11.404-2.801
	c-5.263,0-10.507,1.673-14.9,4.919l-9.958,7.358c-10.711,8-23.324,11.927-35.885,11.927c-15.449,0-30.816-5.946-42.444-17.574
	l-35.332-35.332c-21.081-21.081-23.486-54.442-5.647-78.329l7.358-9.958c5.653-7.651,6.536-17.879,2.118-26.304
	c-9.49-18.101-17.423-37.145-23.622-56.957c-2.851-9.111-10.679-15.777-20.121-17.195l-12.229-1.836
	c-29.504-4.276-51.394-29.567-51.394-59.38v-49.967c0-29.813,21.889-55.104,51.394-59.38L149.814,412.811z"/>
<path style="fill:#211915;stroke:#000000;stroke-miterlimit:10;" d="M303.424,696.576c25.508,25.508,55.232,45.543,88.344,59.549
	C426.087,770.64,462.501,778,500,778s73.913-7.36,108.232-21.875c33.112-14.005,62.836-34.041,88.344-59.549
	c25.508-25.509,45.544-55.232,59.549-88.344C770.64,573.913,778,537.499,778,500s-7.36-73.913-21.875-108.231
	c-14.005-33.112-34.041-62.835-59.549-88.344c-25.508-25.508-55.232-45.543-88.344-59.549C573.913,229.36,537.499,222,500,222
	s-73.913,7.36-108.232,21.875c-33.112,14.005-62.836,34.041-88.344,59.549c-25.508,25.509-45.544,55.232-59.549,88.344
	C229.36,426.087,222,462.501,222,500s7.36,73.913,21.875,108.231C257.881,641.344,277.916,671.067,303.424,696.576z M500,292
	c114.875,0,208,93.125,208,208s-93.125,208-208,208s-208-93.125-208-208S385.125,292,500,292z"/>
</svg>
