<?xml version="1.0" encoding="iso-8859-1"?>
<!-- Generator: Adobe Illustrator 18.0.0, SVG Export Plug-In . SVG Version: 6.00 Build 0)  -->
<!DOCTYPE svg PUBLIC "-//W3C//DTD SVG 1.1//EN" "http://www.w3.org/Graphics/SVG/1.1/DTD/svg11.dtd">
<svg version="1.1" id="Capa_1" xmlns="http://www.w3.org/2000/svg" xmlns:xlink="http://www.w3.org/1999/xlink" x="0px" y="0px"
	 viewBox="0 0 1000 1000" style="enable-background:new 0 0 1000 1000;" xml:space="preserve">
<path style="stroke:#000000;stroke-miterlimit:10;" d="M684.076,273.844c13.561,13.56,29.369,24.214,46.988,31.666
	c18.278,7.731,37.654,11.651,57.589,11.651s39.311-3.92,57.589-11.651c17.619-7.452,33.428-18.106,46.988-31.666
	c13.56-13.56,24.213-29.369,31.665-46.988c7.731-18.278,11.651-37.654,11.651-57.588s-3.92-39.31-11.65-57.588
	c-7.453-17.619-18.106-33.429-31.667-46.988c-13.56-13.56-29.368-24.214-46.987-31.666c-18.278-7.731-37.654-11.651-57.589-11.651
	s-39.311,3.92-57.589,11.651c-17.619,7.453-33.428,18.106-46.987,31.666c-13.561,13.56-24.214,29.369-31.667,46.988
	c-7.73,18.278-11.65,37.654-11.65,57.588c0,14.092,1.969,27.903,5.849,41.246L322.713,396.608c-2.178-2.487-4.438-4.912-6.791-7.266
	c-13.56-13.56-29.368-24.214-46.987-31.666c-18.278-7.731-37.654-11.651-57.589-11.651s-39.31,3.92-57.588,11.651
	c-17.619,7.452-33.429,18.106-46.988,31.666c-13.56,13.56-24.214,29.369-31.666,46.988c-7.731,18.279-11.651,37.654-11.651,57.589
	c0,19.935,3.92,39.31,11.651,57.589c7.452,17.619,18.106,33.428,31.666,46.988s29.369,24.213,46.988,31.666
	c18.278,7.731,37.653,11.651,57.588,11.651s39.311-3.92,57.589-11.651c17.619-7.453,33.428-18.106,46.987-31.666
	c2.402-2.402,4.708-4.877,6.926-7.418l323.698,185.344c-3.839,13.278-5.786,27.018-5.786,41.037c0,19.935,3.92,39.31,11.651,57.588
	c7.452,17.619,18.105,33.428,31.665,46.988c13.561,13.56,29.369,24.214,46.988,31.666c18.278,7.731,37.654,11.651,57.589,11.651
	s39.311-3.92,57.589-11.651c17.619-7.452,33.428-18.106,46.988-31.666s24.213-29.369,31.665-46.988
	c7.731-18.278,11.651-37.654,11.651-57.588s-3.92-39.31-11.65-57.588c-7.453-17.619-18.106-33.429-31.666-46.988
	c-13.561-13.56-29.369-24.214-46.988-31.666c-18.278-7.731-37.654-11.651-57.589-11.651s-39.311,3.92-57.589,11.651
	c-17.619,7.453-33.428,18.106-46.988,31.666c-0.924,0.924-1.831,1.86-2.728,2.804L355.07,528.866
	c2.764-11.375,4.169-23.06,4.169-34.946c0-11.955-1.421-23.707-4.217-35.144l326.476-187.577
	C682.346,272.09,683.204,272.972,684.076,273.844z M745.66,752.51c12.323-8.174,27.099-12.945,42.993-12.945
	c43.02,0,77.894,34.874,77.894,77.894c0,43.019-34.874,77.894-77.894,77.894s-77.894-34.874-77.894-77.894
	c0-1.41,0.042-2.811,0.116-4.202C712.226,787.878,725.725,765.733,745.66,752.51z M211.346,571.813
	c-43.019,0-77.894-34.874-77.894-77.894s34.875-77.894,77.894-77.894c18.255,0,35.029,6.296,48.309,16.813
	c18.015,14.267,29.585,36.316,29.585,61.081c0,24.729-11.537,46.751-29.508,61.02C246.44,565.493,229.636,571.813,211.346,571.813z
	 M710.76,169.267c0-43.02,34.874-77.894,77.894-77.894s77.894,34.874,77.894,77.894c0,43.019-34.874,77.894-77.894,77.894
	c-15.854,0-30.592-4.748-42.896-12.883c-19.958-13.196-33.487-35.324-34.873-60.695C710.807,172.154,710.76,170.716,710.76,169.267z
	"/>
</svg>
