<?xml version="1.0" encoding="iso-8859-1"?>
<!-- Generator: Adobe Illustrator 18.0.0, SVG Export Plug-In . SVG Version: 6.00 Build 0)  -->
<!DOCTYPE svg PUBLIC "-//W3C//DTD SVG 1.1//EN" "http://www.w3.org/Graphics/SVG/1.1/DTD/svg11.dtd">
<svg version="1.1" id="Capa_1" xmlns="http://www.w3.org/2000/svg" xmlns:xlink="http://www.w3.org/1999/xlink" x="0px" y="0px"
	 viewBox="0 0 1000 1000" style="enable-background:new 0 0 1000 1000;" xml:space="preserve">
<path style="stroke:#000000;stroke-miterlimit:10;" d="M951.669,238.304c-0.245-19.508-6.376-38.203-17.73-54.068
	c-11.329-15.83-27.01-27.654-45.347-34.195L531.912,22.836c-10.269-3.663-21.006-5.52-31.912-5.52
	c-10.905,0-21.642,1.857-31.913,5.521L111.412,150.04c-18.341,6.542-34.021,18.366-45.351,34.196
	c-11.354,15.865-17.486,34.561-17.73,54.065c-0.654,52.305,3.394,189.795,54.988,336.519
	c29.951,85.175,71.389,160.404,123.162,223.596c63.57,77.592,142.927,137.32,235.865,177.524
	c11.959,5.172,24.625,7.793,37.654,7.793c13.03,0,25.697-2.622,37.65-7.792c92.942-40.206,172.298-99.933,235.869-177.525
	c51.773-63.192,93.21-138.421,123.162-223.596C948.275,428.096,952.323,290.606,951.669,238.304z M509.862,911.693
	c-3.143,1.359-6.502,2.04-9.862,2.04s-6.719-0.68-9.862-2.04C131.613,756.598,117.181,330.707,118.326,239.18
	c0.131-10.445,6.761-19.698,16.6-23.207L491.602,88.769c2.716-0.968,5.557-1.453,8.398-1.453s5.682,0.484,8.398,1.453
	l356.676,127.204c9.839,3.509,16.469,12.762,16.6,23.207C882.819,330.707,868.387,756.598,509.862,911.693z"/>
<path style="stroke:#000000;stroke-miterlimit:10;" d="M771.195,225.774l-239.283-85.337c-10.273-3.664-21.009-5.521-31.912-5.521
	s-21.639,1.857-31.91,5.52l-239.287,85.338c-37.714,13.45-63.068,49.395-63.088,89.446c-0.011,21.433,1.164,55.69,6.824,97.181
	c6.924,50.765,18.741,99.213,35.123,143.998c21.682,59.276,51.302,111.799,88.038,156.11
	c44.999,54.278,100.765,96.404,165.749,125.208c12.219,5.416,25.189,8.161,38.552,8.161s26.333-2.746,38.55-8.16
	c64.986-28.805,120.752-70.931,165.751-125.209c36.736-44.311,66.356-96.834,88.038-156.11
	c16.381-44.785,28.198-93.232,35.123-143.998c5.66-41.491,6.835-75.749,6.824-97.181
	C834.265,275.169,808.911,239.224,771.195,225.774z M510.187,773.722c-3.243,1.438-6.715,2.156-10.187,2.156
	s-6.943-0.719-10.187-2.156c-238.264-105.609-254.136-385.22-254.099-458.465c0.005-10.572,6.645-19.998,16.603-23.549
	l239.285-85.338c2.715-0.968,5.557-1.453,8.398-1.453s5.683,0.484,8.398,1.453l239.285,85.338
	c9.958,3.551,16.597,12.977,16.603,23.549C764.322,388.502,748.451,668.112,510.187,773.722z"/>
</svg>
