<?xml version="1.0" encoding="iso-8859-1"?>
<!-- Generator: Adobe Illustrator 18.0.0, SVG Export Plug-In . SVG Version: 6.00 Build 0)  -->
<!DOCTYPE svg PUBLIC "-//W3C//DTD SVG 1.1//EN" "http://www.w3.org/Graphics/SVG/1.1/DTD/svg11.dtd">
<svg version="1.1" id="Capa_1" xmlns="http://www.w3.org/2000/svg" xmlns:xlink="http://www.w3.org/1999/xlink" x="0px" y="0px"
	 viewBox="0 0 1000 1000" style="enable-background:new 0 0 1000 1000;" xml:space="preserve">
<path style="stroke:#000000;stroke-miterlimit:10;" d="M98.482,945.985c1.294,12.765,12.042,22.479,24.873,22.479h40.669H500
	h335.976h40.669c12.831,0,23.579-9.713,24.873-22.479l4.102-40.461l70.15-737.367c0.662-6.952-1.615-13.863-6.278-19.062
	l-94.82-105.702c-4.742-5.286-11.508-8.306-18.61-8.306H500H143.938c-7.102,0-13.868,3.02-18.61,8.306l-94.82,105.702
	c-4.663,5.198-6.939,12.11-6.278,19.062l70.15,737.367L98.482,945.985z M156.573,101.394c4.742-5.286,11.508-8.306,18.61-8.306H500
	h324.817c7.102,0,13.868,3.02,18.61,8.306l53.98,60.175H500H102.592L156.573,101.394z M500,233.239h397.408l-59.335,642.523
	c-1.188,12.862-11.978,22.701-24.894,22.701H500H186.822c-12.917,0-23.707-9.839-24.894-22.701l-59.335-642.523L500,233.239
	L500,233.239z"/>
<path style="stroke:#000000;stroke-miterlimit:10;" d="M500,642.646c58.497,0,113.492-22.78,154.856-64.144
	C696.22,537.139,719,482.144,719,423.646c0-19.33-15.67-35-35-35s-35,15.67-35,35c0,82.159-66.841,149-149,149s-149-66.841-149-149
	c0-19.33-15.67-35-35-35s-35,15.67-35,35c0,58.497,22.78,113.492,64.144,154.856S441.503,642.646,500,642.646z"/>
</svg>
