<?xml version="1.0" encoding="iso-8859-1"?>
<!-- Generator: Adobe Illustrator 18.0.0, SVG Export Plug-In . SVG Version: 6.00 Build 0)  -->
<!DOCTYPE svg PUBLIC "-//W3C//DTD SVG 1.1//EN" "http://www.w3.org/Graphics/SVG/1.1/DTD/svg11.dtd">
<svg version="1.1" id="Capa_1" xmlns="http://www.w3.org/2000/svg" xmlns:xlink="http://www.w3.org/1999/xlink" x="0px" y="0px"
	 viewBox="0 0 1000 1000" style="enable-background:new 0 0 1000 1000;" xml:space="preserve">
<path style="fill:#211915;stroke:#000000;stroke-miterlimit:10;" d="M726.342,402.432c2.544,19.786,11.907,38.293,26.549,51.968
	c16.083,15.021,37.054,23.293,59.051,23.293c22.507,0,43.737-8.651,59.928-24.391l96.59-91.611l0.672-0.637l0.654-0.654
	c16.279-16.279,25.244-37.922,25.244-60.943c0-23.022-8.966-44.667-25.246-60.945l-0.653-0.653l-0.671-0.636l-96.589-91.611
	c-16.191-15.739-37.422-24.391-59.929-24.391c-21.996,0-42.968,8.272-59.05,23.291c-14.94,13.953-24.384,32.936-26.697,53.175
	H620.747c-28.717,0-55.58,12.777-73.7,35.056l-75.648,93.006l-75.566-92.905c-18.119-22.278-44.981-35.056-73.699-35.056H101.47
	c-52.383,0-95,42.617-95,95v14.746c0,52.383,42.617,95,95,95h164.866l71.305,87.667l-71.305,87.667H101.47
	c-52.383,0-95,42.617-95,95v14.746c0,52.383,42.617,95,95,95h220.664c28.716,0,55.579-12.777,73.699-35.055l75.566-92.906
	l75.648,93.006c18.122,22.279,44.984,35.056,73.7,35.056h105.449c2.313,20.24,11.757,39.222,26.697,53.175
	c16.083,15.019,37.054,23.291,59.05,23.291c22.507,0,43.738-8.652,59.929-24.391l96.589-91.611l0.672-0.637l0.654-0.654
	c16.279-16.279,25.244-37.922,25.244-60.943c0-23.022-8.966-44.666-25.245-60.944l-0.654-0.654l-0.671-0.637l-96.589-91.611
	c-16.191-15.739-37.422-24.392-59.928-24.392c-22.002,0.002-42.971,8.274-59.051,23.292c-14.643,13.675-24.006,32.183-26.55,51.969
	h-49.797L605.159,490.2l71.387-87.768L726.342,402.432L726.342,402.432z M655.14,647.967h140.5v-59.042
	c0-9.757,7.982-16.218,16.303-16.219c3.978,0,8.031,1.476,11.329,4.773l97.018,92.018c6.321,6.321,6.321,16.57,0,22.891
	l-97.018,92.018c-3.297,3.297-7.352,4.773-11.329,4.773c-8.321,0-16.303-6.461-16.303-16.219v-60.247H620.747
	c-7.524,0-14.647-3.389-19.395-9.225l-84.838-104.305l-45.115-55.468l-43.528-53.516l-45.115-55.468l-75.621-92.974
	c-4.747-5.837-11.871-9.225-19.395-9.225H101.47c-13.807,0-25-11.193-25-25v-14.746c0-13.807,11.193-25,25-25h220.664
	c7.524,0,14.647,3.388,19.394,9.225l84.755,104.204l45.115,55.468l43.528,53.516l45.115,55.468l75.703,93.075
	C640.493,644.579,647.617,647.967,655.14,647.967z M341.528,703.387c-4.747,5.836-11.871,9.225-19.394,9.225H101.47
	c-13.807,0-25-11.193-25-25v-14.746c0-13.807,11.193-25,25-25h186.27c7.524,0,14.647-3.389,19.395-9.225l75.621-92.974
	l43.528,53.516L341.528,703.387z M635.746,341.657l-75.703,93.075l-43.528-53.516l84.838-104.305
	c4.747-5.837,11.871-9.225,19.395-9.225H795.64v-60.248c0-9.757,7.982-16.219,16.303-16.219c3.977,0,8.031,1.476,11.329,4.773
	l97.018,92.018c6.321,6.321,6.321,16.57,0,22.891l-97.018,92.018c-3.298,3.298-7.351,4.773-11.329,4.773
	c-8.32,0-16.303-6.462-16.303-16.219v-59.042h-140.5C647.617,332.432,640.493,335.82,635.746,341.657z"/>
</svg>
