<?xml version="1.0" encoding="iso-8859-1"?>
<!-- Generator: Adobe Illustrator 18.0.0, SVG Export Plug-In . SVG Version: 6.00 Build 0)  -->
<!DOCTYPE svg PUBLIC "-//W3C//DTD SVG 1.1//EN" "http://www.w3.org/Graphics/SVG/1.1/DTD/svg11.dtd">
<svg version="1.1" id="Capa_1" xmlns="http://www.w3.org/2000/svg" xmlns:xlink="http://www.w3.org/1999/xlink" x="0px" y="0px"
	 viewBox="0 0 1000 1000" style="enable-background:new 0 0 1000 1000;" xml:space="preserve">
<path style="stroke:#000000;stroke-miterlimit:10;" d="M923.139,257.544c-16.35-31.908-48.685-51.729-84.387-51.729
	c-3.728,0-7.507,0.221-11.229,0.657l-172.677,20.203l-71.44-158.506c-7.886-17.497-20.614-32.001-36.807-41.943
	c-14.942-9.173-32.161-14.022-49.796-14.022h-0.001H496.8c-17.891,0-35.324,4.98-50.415,14.401
	c-16.372,10.22-29.106,25.083-36.824,42.981l-68.845,159.652l-172.991-17.385c-3.21-0.323-6.461-0.486-9.667-0.486
	c-18.372,0-36.189,5.269-51.525,15.236c-14.134,9.186-25.622,22.042-33.222,37.178c-16.21,32.281-12.868,70.344,8.72,99.335
	l103.84,139.447L84.32,643.685c-20.921,29.074-23.779,66.92-7.459,98.771c16.35,31.908,48.685,51.73,84.387,51.73
	c3.728,0,7.506-0.221,11.229-0.657l172.677-20.204l71.44,158.507c7.886,17.497,20.614,32.001,36.808,41.942
	c14.942,9.173,32.161,14.022,49.795,14.022c17.892,0,35.326-4.979,50.417-14.4c16.373-10.221,29.106-25.083,36.824-42.982
	l68.844-159.651l172.991,17.385c3.209,0.323,6.461,0.486,9.667,0.486c18.372,0,36.189-5.268,51.525-15.236
	c14.134-9.186,25.622-22.042,33.223-37.178c16.209-32.281,12.868-70.344-8.72-99.334l-103.84-139.447L915.68,356.316
	C936.601,327.242,939.459,289.395,923.139,257.544z M858.861,315.429L738.069,483.29c-6.365,8.845-6.267,20.794,0.241,29.533
	l123.514,165.868c12.437,16.702,0.185,39.941-19.884,39.941c-0.876,0-1.764-0.044-2.668-0.135l-205.768-20.678
	c-0.84-0.084-1.679-0.126-2.511-0.126c-9.894-0.001-18.965,5.871-22.946,15.101l-81.889,189.901
	c-4.335,10.053-13.647,15.101-22.963,15.101c-9.176,0-18.354-4.896-22.786-14.728l-84.976-188.54
	c-4.073-9.038-13.047-14.728-22.782-14.729c-0.966,0-1.938,0.056-2.916,0.17l-205.403,24.033c-1.046,0.122-2.078,0.182-3.088,0.182
	c-19.823,0-32.188-22.83-20.109-39.615L261.931,516.71c6.365-8.845,6.267-20.793-0.241-29.534L138.175,321.308
	c-12.437-16.702-0.185-39.941,19.884-39.941c0.876,0,1.764,0.044,2.668,0.135l205.768,20.679c0.84,0.084,1.679,0.126,2.511,0.126
	c9.894,0,18.965-5.871,22.946-15.102l81.889-189.901c4.335-10.053,13.647-15.101,22.963-15.101c9.176,0,18.354,4.896,22.786,14.728
	l84.976,188.539c4.073,9.038,13.047,14.729,22.782,14.729c0.966,0,1.938-0.056,2.916-0.17l205.403-24.032
	c1.046-0.122,2.078-0.182,3.088-0.182C858.575,275.815,870.94,298.644,858.861,315.429z"/>
</svg>
