<?xml version="1.0" encoding="iso-8859-1"?>
<!-- Generator: Adobe Illustrator 18.0.0, SVG Export Plug-In . SVG Version: 6.00 Build 0)  -->
<!DOCTYPE svg PUBLIC "-//W3C//DTD SVG 1.1//EN" "http://www.w3.org/Graphics/SVG/1.1/DTD/svg11.dtd">
<svg version="1.1" id="Capa_1" xmlns="http://www.w3.org/2000/svg" xmlns:xlink="http://www.w3.org/1999/xlink" x="0px" y="0px"
	 viewBox="0 0 1000 1000" style="enable-background:new 0 0 1000 1000;" xml:space="preserve">
<path style="stroke:#000000;stroke-miterlimit:10;" d="M737.091,60.414c-18.331-18.33-42.703-28.425-68.626-28.425
	s-50.296,10.095-68.627,28.425l-92.789,92.789c-0.002,0.002-0.004,0.004-0.005,0.006L403.745,256.507
	c-45.754,45.755-70.952,106.589-70.952,171.296c0,35.457,7.583,69.744,21.952,101.032L65.406,818.175
	c-15.928,15.928-24.701,37.105-24.701,59.632c0,22.525,8.772,43.703,24.7,59.632c16.44,16.44,38.036,24.66,59.631,24.66
	s43.191-8.221,59.631-24.66l289.34-289.34c31.287,14.368,65.575,21.951,101.032,21.951c64.707,0,125.541-25.198,171.295-70.952
	l103.284-103.284c0.007-0.007,0.014-0.013,0.02-0.02l92.789-92.789c37.84-37.841,37.84-99.413,0-137.254L737.091,60.414z
	 M668.465,101.989c7.226,0,14.02,2.813,19.129,7.923l77.92,77.92L534.307,419.039c-18.352-27.837-28.21-60.43-28.21-94.541
	c0-46.004,17.913-89.254,50.44-121.786l33.373-33.373c0.004-0.005,0.008-0.009,0.013-0.014l59.413-59.413
	C654.444,104.803,661.238,101.989,668.465,101.989z M135.171,887.94c-5.588,5.588-14.681,5.588-20.268,0
	c-3.653-3.652-4.198-7.917-4.198-10.134c0-2.218,0.545-6.481,4.198-10.134l279.014-279.014c3.167,3.556,6.434,7.044,9.829,10.438
	c3.395,3.395,6.883,6.662,10.439,9.829L135.171,887.94z M575.04,600.05c-46.009,0-89.264-17.916-121.797-50.45
	c-60.859-60.858-66.568-156.303-17.128-223.65c0.374,64.163,25.523,124.433,70.936,169.845
	c45.417,45.417,105.695,70.566,169.868,70.935C647.551,588.36,612.195,600.05,575.04,600.05z M892.931,353.507l-59.41,59.41
	c-0.005,0.006-0.011,0.011-0.016,0.016l-33.403,33.403c-32.529,32.508-75.767,50.41-121.757,50.41
	c-34.111,0-66.703-9.857-94.54-28.21l231.207-231.207l77.919,77.92C903.479,325.797,903.479,342.959,892.931,353.507z"/>
</svg>
