<?xml version="1.0" encoding="iso-8859-1"?>
<!-- Generator: Adobe Illustrator 18.0.0, SVG Export Plug-In . SVG Version: 6.00 Build 0)  -->
<!DOCTYPE svg PUBLIC "-//W3C//DTD SVG 1.1//EN" "http://www.w3.org/Graphics/SVG/1.1/DTD/svg11.dtd">
<svg version="1.1" id="Capa_1" xmlns="http://www.w3.org/2000/svg" xmlns:xlink="http://www.w3.org/1999/xlink" x="0px" y="0px"
	 viewBox="0 0 1000 1000" style="enable-background:new 0 0 1000 1000;" xml:space="preserve">
<path style="fill:#211915;stroke:#000000;stroke-miterlimit:10;" d="M107.559,745.859h94.401L462.558,909.2
	c15.107,9.469,32.448,14.473,50.149,14.473c24.458,0,47.697-9.33,65.435-26.271c9.057-8.65,16.193-18.833,21.209-30.268
	c5.271-12.013,7.943-24.809,7.943-38.032V538.167v-0.335V246.898c0-13.224-2.673-26.021-7.944-38.034
	c-5.017-11.433-12.153-21.616-21.209-30.265c-17.738-16.942-40.976-26.272-65.434-26.272c-17.703,0-35.045,5.005-50.151,14.474
	L202.495,329.806h-94.936c-52.125,0-94.532,42.407-94.532,94.532v226.99C13.027,703.453,55.434,745.859,107.559,745.859z
	 M83.027,424.338c0-13.549,10.983-24.532,24.532-24.532h98.134c11.061,0,21.897-3.115,31.269-8.99l262.772-164.704
	c4.152-2.603,8.619-3.785,12.973-3.785c12.78,0,24.587,10.189,24.587,24.571v290.934v0.335v290.934
	c0,14.383-11.806,24.571-24.587,24.571c-4.354,0-8.822-1.183-12.973-3.785L236.427,684.849c-9.372-5.874-20.208-8.99-31.269-8.99
	h-97.599c-13.549,0-24.532-10.984-24.532-24.532C83.027,651.327,83.027,424.338,83.027,424.338z"/>
<path style="fill:#211915;stroke:#000000;stroke-miterlimit:10;" d="M710.579,653.837c6.834,6.834,15.791,10.251,24.749,10.251
	c8.957,0,17.915-3.417,24.749-10.251l66.34-66.34l66.34,66.34c6.834,6.834,15.792,10.251,24.749,10.251
	c8.958,0,17.915-3.417,24.749-10.251c13.668-13.668,13.668-35.829,0-49.498L875.914,538l66.339-66.339
	c13.668-13.668,13.668-35.829,0-49.498c-13.668-13.668-35.83-13.669-49.497,0l-66.34,66.34l-66.34-66.34
	c-13.668-13.669-35.83-13.668-49.497,0c-13.668,13.668-13.668,35.829,0,49.498L776.918,538l-66.339,66.339
	C696.911,618.008,696.911,640.169,710.579,653.837z"/>
</svg>
