<?xml version="1.0" encoding="iso-8859-1"?>
<!-- Generator: Adobe Illustrator 18.0.0, SVG Export Plug-In . SVG Version: 6.00 Build 0)  -->
<!DOCTYPE svg PUBLIC "-//W3C//DTD SVG 1.1//EN" "http://www.w3.org/Graphics/SVG/1.1/DTD/svg11.dtd">
<svg version="1.1" id="Capa_1" xmlns="http://www.w3.org/2000/svg" xmlns:xlink="http://www.w3.org/1999/xlink" x="0px" y="0px"
	 viewBox="0 0 1000 1000" style="enable-background:new 0 0 1000 1000;" xml:space="preserve">
<g>
	<path style="fill:#211915;stroke:#000000;stroke-miterlimit:10;" d="M577.479,143.62c-17.738-16.94-40.976-26.271-65.434-26.271
		c-17.701,0-35.042,5.005-50.147,14.473L201.832,294.829h-94.936c-52.125,0-94.532,42.406-94.532,94.531v226.99
		c0,52.125,42.407,94.532,94.532,94.532h94.4l260.6,163.341c15.104,9.468,32.445,14.473,50.148,14.473
		c24.459,0,47.697-9.33,65.436-26.271c9.057-8.649,16.192-18.833,21.209-30.268c5.271-12.013,7.943-24.809,7.943-38.032V503.19
		v-0.336V211.921c0-13.225-2.673-26.021-7.945-38.035C593.671,162.453,586.535,152.27,577.479,143.62z M536.633,502.854v0.336
		v290.934c0,14.383-11.807,24.571-24.588,24.571c-4.354,0-8.821-1.183-12.973-3.785L235.765,649.872
		c-9.372-5.874-20.209-8.99-31.27-8.99h-97.599c-13.549,0-24.532-10.983-24.532-24.532V389.36c0-13.548,10.983-24.531,24.532-24.531
		h98.135c11.061,0,21.896-3.116,31.269-8.99l262.772-164.704c4.152-2.603,8.618-3.785,12.973-3.785
		c12.78,0,24.588,10.189,24.588,24.571L536.633,502.854L536.633,502.854z"/>
	<path style="fill:#211915;stroke:#000000;stroke-miterlimit:10;" d="M708.804,332.138c-8.604-17.31-29.614-24.369-46.921-15.761
		c-17.31,8.604-24.365,29.612-15.761,46.921c20.303,40.841,31.034,89.222,31.034,139.913c0,51.479-11.037,100.469-31.919,141.675
		c-8.737,17.243-1.843,38.304,15.399,47.042c5.072,2.569,10.472,3.787,15.793,3.787c12.771,0,25.081-7.016,31.248-19.187
		c25.827-50.966,39.479-110.897,39.479-173.317C747.156,441.765,733.895,382.608,708.804,332.138z"/>
	<path style="fill:#211915;stroke:#000000;stroke-miterlimit:10;" d="M808.459,236.312c-8.604-17.309-29.611-24.364-46.921-15.761
		c-17.309,8.604-24.365,29.611-15.761,46.921c34.2,68.799,52.277,150.104,52.277,235.126c0,86.352-18.596,168.69-53.777,238.114
		c-8.738,17.242-1.844,38.304,15.398,47.041c5.071,2.57,10.472,3.788,15.793,3.788c12.771,0,25.081-7.016,31.248-19.187
		c40.128-79.184,61.338-172.465,61.338-269.757C868.055,406.821,847.447,314.741,808.459,236.312z"/>
	<path style="fill:#211915;stroke:#000000;stroke-miterlimit:10;" d="M871.873,136.586c-17.448,8.319-24.849,29.208-16.529,46.656
		c44.514,93.36,68.042,203.606,68.042,318.82c0,117.016-24.205,228.667-69.998,322.884c-8.45,17.385-1.207,38.328,16.179,46.778
		c4.928,2.396,10.141,3.529,15.274,3.529c12.979,0,25.449-7.25,31.504-19.708c50.4-103.695,77.041-225.928,77.041-353.483
		c0-125.572-25.885-246.236-74.856-348.947C910.209,135.668,889.323,128.269,871.873,136.586z"/>
</g>
</svg>
