<?xml version="1.0" encoding="iso-8859-1"?>
<!-- Generator: Adobe Illustrator 18.0.0, SVG Export Plug-In . SVG Version: 6.00 Build 0)  -->
<!DOCTYPE svg PUBLIC "-//W3C//DTD SVG 1.1//EN" "http://www.w3.org/Graphics/SVG/1.1/DTD/svg11.dtd">
<svg version="1.1" id="Capa_1" xmlns="http://www.w3.org/2000/svg" xmlns:xlink="http://www.w3.org/1999/xlink" x="0px" y="0px"
	 viewBox="0 0 1000 1000" style="enable-background:new 0 0 1000 1000;" xml:space="preserve">
<path style="fill:#211915;stroke:#000000;stroke-miterlimit:10;" d="M49.898,786.212c6.534,0,13.145-1.828,19.032-5.653
	l102.177-66.369c16.419,13.534,37.444,21.673,60.335,21.673h122.18l323.912,203.025c15.182,9.516,32.609,14.545,50.397,14.545
	c24.58,0,47.934-9.377,65.76-26.403c9.101-8.693,16.272-18.926,21.313-30.416c5.297-12.072,7.982-24.931,7.982-38.222v-358.19
	v-0.403V290.763L969.2,195.791c16.21-10.53,20.815-32.207,10.286-48.417s-32.206-20.816-48.417-10.286l-108.082,70.204v-65.686
	c0-13.291-2.686-26.151-7.984-38.223c-5.041-11.489-12.212-21.722-21.313-30.414c-17.827-17.027-41.181-26.403-65.76-26.403
	c-17.789,0-35.216,5.03-50.398,14.546L354.266,263.734H231.442c-52.383,0-95,42.617-95,95v282.13c0,4.027,0.254,7.995,0.743,11.891
	L30.8,721.856c-16.211,10.53-20.816,32.207-10.286,48.417C27.218,780.596,38.442,786.212,49.898,786.212z M752.988,499.798v0.403
	v358.192c0,14.657-12.032,25.04-25.056,25.04c-4.437,0-8.99-1.206-13.221-3.857L379.836,669.681
	c-3.979-2.495-8.581-3.817-13.277-3.817H245.508l507.479-329.632L752.988,499.798L752.988,499.798z M206.442,358.734
	c0-13.807,11.193-25,25-25h135.762c4.696,0,9.298-1.323,13.277-3.817L714.71,120.424c4.232-2.652,8.783-3.857,13.221-3.857
	c13.024,0,25.057,10.384,25.057,25.04V252.76L206.442,607.769V358.734z"/>
</svg>
