<?xml version="1.0" encoding="iso-8859-1"?>
<!-- Generator: Adobe Illustrator 18.0.0, SVG Export Plug-In . SVG Version: 6.00 Build 0)  -->
<!DOCTYPE svg PUBLIC "-//W3C//DTD SVG 1.1//EN" "http://www.w3.org/Graphics/SVG/1.1/DTD/svg11.dtd">
<svg version="1.1" id="Capa_1" xmlns="http://www.w3.org/2000/svg" xmlns:xlink="http://www.w3.org/1999/xlink" x="0px" y="0px"
	 viewBox="0 0 1000 1000" style="enable-background:new 0 0 1000 1000;" xml:space="preserve">
<path style="fill:#211915;stroke:#000000;stroke-miterlimit:10;" d="M930.453,286.687c-14.117-13.972-30.279-25.302-48.132-33.762
	v-87.142c0-52.389-42.593-95.01-94.947-95.01c-6.924,0-13.876,0.765-20.662,2.272l-678.4,150.772
	c-21.021,4.672-40.019,16.496-53.494,33.293c-13.475,16.799-20.896,37.909-20.896,59.444v186.473
	c0,21.527,7.417,42.634,20.884,59.43c13.467,16.795,32.457,28.622,53.47,33.301l33.141,7.378c1.066,3.46,2.369,6.894,3.91,10.285
	l0.392,0.862l0.415,0.851L261.97,893.815c15.614,33.188,49.216,54.561,85.962,54.561c0.237,0,0.468,0,0.704-0.002l9.7-0.062
	c32.023-0.203,61.567-16.352,79.03-43.197c17.462-26.845,20.249-60.397,7.454-89.755l-0.297-0.681l-0.311-0.675l-24.894-53.965
	c3.885-1.656,7.847-3.537,11.814-5.687c29.282-15.863,48.291-40.076,55.525-69.906l280.02,62.338
	c6.794,1.513,13.758,2.28,20.697,2.28c52.354,0,94.947-42.621,94.947-95.01v-87.13c17.852-8.459,34.015-19.79,48.132-33.762
	c16.107-15.941,28.768-34.54,37.631-55.278c9.212-21.556,13.883-44.421,13.883-67.96s-4.671-46.404-13.883-67.961
	C959.221,321.226,946.56,302.628,930.453,286.687z M812.321,583.761v70.294c0,14.105-11.518,25.01-24.947,25.01
	c-1.802,0-3.639-0.196-5.486-0.607L335.88,579.167l-43.024-9.578L177.02,543.8l-43.283-9.636l-30.247-6.733
	c-11.434-2.546-19.567-12.689-19.567-24.403V316.555c0-11.718,8.138-21.862,19.576-24.404L781.898,141.38
	c1.845-0.41,3.678-0.605,5.477-0.605c13.429,0,24.947,10.905,24.947,25.01v70.306v70.045v103.653v0.275v103.653L812.321,583.761
	L812.321,583.761z M357.891,878.313l-9.799,0.062c-0.054,0-0.106,0-0.159,0c-9.799,0-18.702-5.728-22.76-14.658L207.499,622.3
	l79.338,17.662l93.813,203.364C387.82,859.776,375.835,878.199,357.891,878.313z M372.749,659.088l45.521,10.133
	c-2.756,9.669-8.96,16.99-19.116,22.822c-3.04,1.746-6.153,3.192-9.175,4.395L372.749,659.088z M882.321,482.286v-72.224v-0.275
	v-72.224c18.346,18.712,29.646,44.229,29.646,72.361S900.667,463.574,882.321,482.286z"/>
</svg>
