<?xml version="1.0" encoding="iso-8859-1"?>
<!-- Generator: Adobe Illustrator 18.0.0, SVG Export Plug-In . SVG Version: 6.00 Build 0)  -->
<!DOCTYPE svg PUBLIC "-//W3C//DTD SVG 1.1//EN" "http://www.w3.org/Graphics/SVG/1.1/DTD/svg11.dtd">
<svg version="1.1" id="Capa_1" xmlns="http://www.w3.org/2000/svg" xmlns:xlink="http://www.w3.org/1999/xlink" x="0px" y="0px"
	 viewBox="0 0 1000 1000" style="enable-background:new 0 0 1000 1000;" xml:space="preserve">
<path style="fill:#211915;stroke:#000000;stroke-miterlimit:10;" d="M225,752.086h138.543L724.546,978.36
	c15.181,9.515,32.608,14.545,50.397,14.545c24.58,0,47.934-9.377,65.761-26.402c9.101-8.693,16.272-18.926,21.314-30.416
	c5.297-12.072,7.982-24.932,7.982-38.222V500.221v-0.443V102.136c0-13.291-2.686-26.151-7.983-38.223
	c-5.041-11.489-12.212-21.721-21.313-30.414c-17.827-17.026-41.181-26.403-65.76-26.403c-17.788,0-35.214,5.029-50.396,14.544
	L364.251,247.472H225c-52.383,0-95,42.617-95,95v314.613C130,709.469,172.617,752.086,225,752.086z M200,342.472
	c0-13.807,11.193-25,25-25h152.188c4.696,0,9.298-1.323,13.277-3.817L761.723,80.953c4.232-2.652,8.783-3.857,13.221-3.857
	c13.024,0,25.056,10.384,25.056,25.04v397.643v0.443v397.643c0,14.657-12.032,25.04-25.057,25.04c-4.437,0-8.99-1.205-13.221-3.857
	L389.758,685.903c-3.979-2.494-8.581-3.817-13.277-3.817H225c-13.807,0-25-11.193-25-25V342.472z"/>
</svg>
