<?xml version="1.0" encoding="iso-8859-1"?>
<!-- Generator: Adobe Illustrator 18.0.0, SVG Export Plug-In . SVG Version: 6.00 Build 0)  -->
<!DOCTYPE svg PUBLIC "-//W3C//DTD SVG 1.1//EN" "http://www.w3.org/Graphics/SVG/1.1/DTD/svg11.dtd">
<svg version="1.1" id="Capa_1" xmlns="http://www.w3.org/2000/svg" xmlns:xlink="http://www.w3.org/1999/xlink" x="0px" y="0px"
	 viewBox="0 0 1000 1000" style="enable-background:new 0 0 1000 1000;" xml:space="preserve">
<path style="fill:#211915;stroke:#000000;stroke-miterlimit:10;" d="M106.428,745.859h94.401L461.427,909.2
	c15.107,9.469,32.448,14.473,50.149,14.473c24.459,0,47.697-9.33,65.435-26.271c9.057-8.65,16.193-18.834,21.21-30.268
	c5.271-12.012,7.943-24.809,7.943-38.032V538.167v-0.335V246.898c0-13.224-2.673-26.021-7.945-38.034
	c-5.017-11.433-12.152-21.616-21.209-30.266c-17.738-16.942-40.976-26.272-65.434-26.272c-17.703,0-35.045,5.005-50.151,14.474
	l-260.06,163.006h-94.936c-52.125,0-94.532,42.407-94.532,94.532v226.99C11.896,703.453,54.303,745.859,106.428,745.859z
	 M81.896,424.338c0-13.549,10.983-24.532,24.532-24.532h98.134c11.061,0,21.897-3.115,31.269-8.99l262.772-164.704
	c4.152-2.603,8.619-3.785,12.973-3.785c12.78,0,24.587,10.189,24.587,24.571v290.934v0.335v290.934
	c0,14.383-11.806,24.571-24.587,24.571c-4.354,0-8.822-1.183-12.973-3.785L235.296,684.849c-9.372-5.874-20.209-8.99-31.269-8.99
	h-97.599c-13.549,0-24.532-10.984-24.532-24.532C81.896,651.327,81.896,424.338,81.896,424.338z"/>
<path style="fill:#211915;stroke:#000000;stroke-miterlimit:10;" d="M696.467,573h257.637c19.33,0,35-15.67,35-35s-15.67-35-35-35
	H696.467c-19.33,0-35,15.67-35,35S677.137,573,696.467,573z"/>
</svg>
