<?xml version="1.0" encoding="iso-8859-1"?>
<!-- Generator: Adobe Illustrator 18.0.0, SVG Export Plug-In . SVG Version: 6.00 Build 0)  -->
<!DOCTYPE svg PUBLIC "-//W3C//DTD SVG 1.1//EN" "http://www.w3.org/Graphics/SVG/1.1/DTD/svg11.dtd">
<svg version="1.1" id="Capa_1" xmlns="http://www.w3.org/2000/svg" xmlns:xlink="http://www.w3.org/1999/xlink" x="0px" y="0px"
	 viewBox="0 0 1000 1000" style="enable-background:new 0 0 1000 1000;" xml:space="preserve">
<path style="fill:#211915;stroke:#000000;stroke-miterlimit:10;" d="M842.726,156.774c-44.49-44.49-96.317-79.429-154.042-103.844
	C628.884,27.638,565.402,14.812,500,14.812S371.116,27.638,311.316,52.931c-57.725,24.415-109.552,59.354-154.042,103.844
	S77.845,253.092,53.43,310.816c-25.293,59.8-38.118,123.282-38.118,188.684S28.137,628.384,53.43,688.184
	c24.415,57.725,59.354,109.552,103.844,154.042s96.317,79.429,154.042,103.844c59.8,25.293,123.282,38.118,188.684,38.118
	s128.884-12.825,188.684-38.118c57.725-24.415,109.552-59.354,154.042-103.844s79.429-96.317,103.844-154.042
	c25.293-59.8,38.118-123.282,38.118-188.684s-12.825-128.884-38.118-188.684C922.155,253.092,887.216,201.265,842.726,156.774z
	 M500,914.188c-229.026,0-414.688-185.662-414.688-414.688S270.974,84.812,500,84.812S914.688,270.475,914.688,499.5
	S729.026,914.188,500,914.188z"/>
<path style="fill:#211915;stroke:#000000;stroke-miterlimit:10;" d="M535,633.281V414.846c0-19.33-15.67-35-35-35s-35,15.67-35,35
	v218.436c-43.219,14.63-74.414,55.576-74.414,103.673c0,60.331,49.083,109.414,109.414,109.414s109.414-49.083,109.414-109.414
	C609.414,688.857,578.219,647.911,535,633.281z M500,776.368c-21.733,0-39.414-17.681-39.414-39.414
	c0-21.732,17.681-39.413,39.414-39.413c21.733,0,39.414,17.681,39.414,39.413C539.414,758.688,521.733,776.368,500,776.368z"/>
<circle style="fill:#211915;stroke:#000000;stroke-miterlimit:10;" cx="238.444" cy="340.803" r="36.31"/>
<circle style="fill:#211915;stroke:#000000;stroke-miterlimit:10;" cx="761.556" cy="340.803" r="36.31"/>
<circle style="fill:#211915;stroke:#000000;stroke-miterlimit:10;" cx="647.124" cy="238.33" r="36.309"/>
<circle style="fill:#211915;stroke:#000000;stroke-miterlimit:10;" cx="352.876" cy="238.33" r="36.309"/>
<circle style="fill:#211915;stroke:#000000;stroke-miterlimit:10;" cx="500.759" cy="195.191" r="36.31"/>
</svg>
