<?xml version="1.0" encoding="iso-8859-1"?>
<!-- Generator: Adobe Illustrator 18.0.0, SVG Export Plug-In . SVG Version: 6.00 Build 0)  -->
<!DOCTYPE svg PUBLIC "-//W3C//DTD SVG 1.1//EN" "http://www.w3.org/Graphics/SVG/1.1/DTD/svg11.dtd">
<svg version="1.1" id="Capa_1" xmlns="http://www.w3.org/2000/svg" xmlns:xlink="http://www.w3.org/1999/xlink" x="0px" y="0px"
	 viewBox="0 0 1000 1000" style="enable-background:new 0 0 1000 1000;" xml:space="preserve">
<g>
	<path style="fill:#211915;stroke:#000000;stroke-miterlimit:10;" d="M886.469,17.81H112.088c-52.383,0-95,42.617-95,95v774.38
		c0,52.383,42.617,95,95,95h774.381c52.383,0,95-42.617,95-95V112.81C981.469,60.427,938.852,17.81,886.469,17.81z M911.469,887.19
		c0,13.807-11.192,25-25,25H112.088c-13.807,0-25-11.193-25-25V112.81c0-13.807,11.193-25,25-25h774.381c13.808,0,25,11.193,25,25
		V887.19z"/>
</g>
</svg>
