<?xml version="1.0" encoding="iso-8859-1"?>
<!-- Generator: Adobe Illustrator 18.0.0, SVG Export Plug-In . SVG Version: 6.00 Build 0)  -->
<!DOCTYPE svg PUBLIC "-//W3C//DTD SVG 1.1//EN" "http://www.w3.org/Graphics/SVG/1.1/DTD/svg11.dtd">
<svg version="1.1" id="Capa_1" xmlns="http://www.w3.org/2000/svg" xmlns:xlink="http://www.w3.org/1999/xlink" x="0px" y="0px"
	 viewBox="0 0 1000 1000" style="enable-background:new 0 0 1000 1000;" xml:space="preserve">
<g>
	<path style="fill:#211915;stroke:#000000;stroke-miterlimit:10;" d="M899.703,139.039H797.918V100.98c0-52.383-42.617-95-95-95
		h-600.34c-52.383,0-95,42.617-95,95v660.04c0,52.383,42.617,95,95,95h101.784v38.059c0,52.383,42.617,95,95,95h600.341
		c52.383,0,95-42.617,95-95v-660.04C994.703,181.656,952.086,139.039,899.703,139.039z M274.362,894.079V856.02v-67.68h519.547
		h130.794v105.739c0,13.807-11.193,25-25,25H299.362C285.555,919.079,274.362,907.886,274.362,894.079z M924.703,718.34H797.918h-70
		H274.362v-63.059v-70V234.039c0-13.807,11.193-25,25-25h428.557h70h101.784c13.807,0,25,11.193,25,25V718.34z M77.578,100.98
		c0-13.807,11.193-25,25-25h600.341c13.808,0,25,11.193,25,25v38.059H299.362c-52.383,0-95,42.617-95,95v351.242H77.578V100.98z
		 M102.578,786.021c-13.807,0-25-11.193-25-25v-105.74h126.784V786.02L102.578,786.021L102.578,786.021z"/>
</g>
</svg>
