<?xml version="1.0" encoding="iso-8859-1"?>
<!-- Generator: Adobe Illustrator 18.0.0, SVG Export Plug-In . SVG Version: 6.00 Build 0)  -->
<!DOCTYPE svg PUBLIC "-//W3C//DTD SVG 1.1//EN" "http://www.w3.org/Graphics/SVG/1.1/DTD/svg11.dtd">
<svg version="1.1" id="Capa_1" xmlns="http://www.w3.org/2000/svg" xmlns:xlink="http://www.w3.org/1999/xlink" x="0px" y="0px"
	 viewBox="0 0 1000 1000" style="enable-background:new 0 0 1000 1000;" xml:space="preserve">
<path style="stroke:#000000;stroke-miterlimit:10;" d="M958.823,345.049c-13.781-12.121-30.748-19.935-49.066-22.596l-224.27-32.588
	L585.19,86.641c-8.191-16.598-20.866-30.321-36.652-39.682C533.893,38.275,517.109,33.685,500,33.685s-33.893,4.59-48.538,13.274
	c-15.786,9.361-28.46,23.083-36.652,39.682L314.514,289.864l-224.27,32.588c-18.319,2.662-35.286,10.476-49.067,22.596
	c-12.784,11.244-22.336,25.788-27.623,42.06c-5.287,16.271-6.108,33.652-2.375,50.263c4.025,17.906,13.158,34.2,26.414,47.121
	L199.876,642.68l-38.31,223.364c-4.747,27.678,2.872,55.819,20.905,77.208c18.167,21.549,44.674,33.907,72.723,33.907
	c15.276,0,30.565-3.793,44.213-10.968L500,860.733l200.593,105.458c13.647,7.175,28.936,10.968,44.212,10.968
	c28.049,0,54.555-12.359,72.723-33.907c18.033-21.389,25.653-49.53,20.905-77.208l-38.31-223.364l162.284-158.187
	c13.256-12.921,22.389-29.215,26.414-47.121c3.733-16.611,2.912-33.992-2.375-50.263
	C981.159,370.837,971.608,356.293,958.823,345.049z M913.546,434.367L734.322,609.068c-5.892,5.743-8.581,14.019-7.19,22.128
	l42.309,246.681c2.771,16.159-10.069,29.282-24.636,29.282c-3.844,0-7.809-0.914-11.638-2.927L511.634,787.765
	c-3.641-1.915-7.638-2.872-11.634-2.872s-7.992,0.957-11.634,2.872L266.833,904.232c-3.828,2.013-7.795,2.927-11.638,2.927
	c-14.568,0-27.407-13.122-24.636-29.282l42.309-246.681c1.391-8.11-1.298-16.385-7.19-22.128L86.454,434.367
	c-14.838-14.463-6.65-39.662,13.855-42.642l247.682-35.99c8.143-1.183,15.182-6.297,18.823-13.676l110.767-224.438
	c4.585-9.291,13.502-13.936,22.418-13.936c8.917,0,17.833,4.646,22.418,13.936l110.767,224.438
	c3.641,7.378,10.681,12.493,18.823,13.676l247.682,35.99C920.196,394.705,928.384,419.904,913.546,434.367z"/>
</svg>
