<?xml version="1.0" encoding="iso-8859-1"?>
<!-- Generator: Adobe Illustrator 18.0.0, SVG Export Plug-In . SVG Version: 6.00 Build 0)  -->
<!DOCTYPE svg PUBLIC "-//W3C//DTD SVG 1.1//EN" "http://www.w3.org/Graphics/SVG/1.1/DTD/svg11.dtd">
<svg version="1.1" id="Capa_1" xmlns="http://www.w3.org/2000/svg" xmlns:xlink="http://www.w3.org/1999/xlink" x="0px" y="0px"
	 viewBox="0 0 1000 1000" style="enable-background:new 0 0 1000 1000;" xml:space="preserve">
<path style="stroke:#000000;stroke-miterlimit:10;" d="M385.132,575.256h-67.659c-22.216,0-43.107,7.077-60.415,20.465
	c-15.741,12.176-27.341,28.705-33.545,47.801c-6.205,19.096-6.536,39.287-0.958,58.389c6.133,21.005,18.875,39.01,36.848,52.068
	l54.738,39.77l-20.908,64.348c-4.977,15.318-6.201,31.668-3.537,47.28c2.513,14.732,8.513,28.95,17.352,41.115
	c18.68,25.711,48.678,41.061,80.246,41.061c20.818,0,40.864-6.569,57.97-18.998L500,928.784l54.737,39.77
	c17.107,12.429,37.153,18.999,57.971,18.999c31.566,0,61.564-15.35,80.244-41.062c8.838-12.164,14.838-26.38,17.352-41.112
	c2.664-15.613,1.441-31.963-3.536-47.283l-20.907-64.348l54.737-39.769c17.974-13.059,30.715-31.063,36.848-52.069
	c5.578-19.102,5.246-39.293-0.958-58.389c-6.205-19.096-17.805-35.625-33.545-47.801c-17.308-13.388-38.199-20.465-60.415-20.465
	h-67.659l-20.908-64.348c-0.142-0.436-0.302-0.861-0.449-1.294c46.271-6.342,82.035-46.125,82.035-94.111V100.991
	c0-52.383-42.617-95-95-95H419.454c-52.383,0-95,42.617-95,95v314.511c0,47.986,35.764,87.769,82.035,94.111
	c-0.147,0.434-0.308,0.859-0.449,1.295L385.132,575.256z M394.454,415.502V100.991c0-13.807,11.193-25,25-25h161.093
	c13.807,0,25,11.193,25,25v314.511c0,13.807-11.193,25-25,25H419.454C405.646,440.502,394.454,429.309,394.454,415.502z
	 M415.068,645.256c12.475,0,23.531-8.033,27.386-19.897l30.159-92.819c4.31-13.265,15.848-19.897,27.386-19.897
	s23.076,6.633,27.386,19.897l30.159,92.819c3.855,11.864,14.911,19.897,27.386,19.897h97.596c27.895,0,39.493,35.696,16.926,52.092
	l-78.957,57.365c-10.093,7.333-14.316,20.331-10.461,32.195l30.159,92.819c6.566,20.208-9.489,37.825-27.486,37.825
	c-5.63,0-11.448-1.723-16.826-5.63l-78.957-57.366c-5.046-3.667-10.986-5.5-16.926-5.5s-11.879,1.833-16.926,5.5l-78.957,57.366
	c-5.376,3.906-11.197,5.63-16.826,5.63c-17.999,0-34.053-17.615-27.486-37.825l30.159-92.819
	c3.855-11.864-0.368-24.862-10.461-32.195l-78.957-57.365c-22.568-16.396-10.969-52.092,16.926-52.092H415.068z"/>
</svg>
