<?xml version="1.0" encoding="iso-8859-1"?>
<!-- Generator: Adobe Illustrator 18.0.0, SVG Export Plug-In . SVG Version: 6.00 Build 0)  -->
<!DOCTYPE svg PUBLIC "-//W3C//DTD SVG 1.1//EN" "http://www.w3.org/Graphics/SVG/1.1/DTD/svg11.dtd">
<svg version="1.1" id="Capa_1" xmlns="http://www.w3.org/2000/svg" xmlns:xlink="http://www.w3.org/1999/xlink" x="0px" y="0px"
	 viewBox="0 0 1000 1000" style="enable-background:new 0 0 1000 1000;" xml:space="preserve">
<circle style="fill:#211915;stroke:#000000;stroke-miterlimit:10;" cx="500" cy="841" r="35"/>
<path style="fill:#211915;stroke:#000000;stroke-miterlimit:10;" d="M199.632,987.664h600.736c52.383,0,95-42.617,95-95v-791.05
	c0-52.383-42.617-95-95-95H199.632c-52.383,0-95,42.617-95,95v791.05C104.632,945.047,147.249,987.664,199.632,987.664z
	 M174.632,101.614c0-13.807,11.193-25,25-25h600.736c13.807,0,25,11.193,25,25v791.05c0,13.807-11.193,25-25,25H199.632
	c-13.807,0-25-11.193-25-25V101.614z"/>
<path style="fill:#211915;stroke:#000000;stroke-miterlimit:10;" d="M320.614,762.015h358.772c52.383,0,95-42.617,95-95V212.798
	c0-52.383-42.617-95-95-95H320.614c-52.383,0-95,42.617-95,95v454.217C225.614,719.398,268.231,762.015,320.614,762.015z
	 M295.614,212.798c0-13.807,11.193-25,25-25h358.772c13.807,0,25,11.193,25,25v454.217c0,13.807-11.193,25-25,25H320.614
	c-13.807,0-25-11.193-25-25V212.798z"/>
</svg>
