<?xml version="1.0" encoding="iso-8859-1"?>
<!-- Generator: Adobe Illustrator 18.0.0, SVG Export Plug-In . SVG Version: 6.00 Build 0)  -->
<!DOCTYPE svg PUBLIC "-//W3C//DTD SVG 1.1//EN" "http://www.w3.org/Graphics/SVG/1.1/DTD/svg11.dtd">
<svg version="1.1" id="Capa_1" xmlns="http://www.w3.org/2000/svg" xmlns:xlink="http://www.w3.org/1999/xlink" x="0px" y="0px"
	 viewBox="0 0 1000 1000" style="enable-background:new 0 0 1000 1000;" xml:space="preserve">
<path style="stroke:#000000;stroke-miterlimit:10;" d="M949.67,131.784c-5.479-42.927-39.284-76.733-82.211-82.21L565.118,10.992
	c-3.971-0.507-8.02-0.765-12.027-0.765h-0.001h-0.001c-12.498,0.001-24.692,2.419-36.246,7.189
	c-11.625,4.799-22.03,11.742-30.924,20.636L37.745,486.225C19.802,504.168,9.92,528.024,9.92,553.4s9.882,49.232,27.826,67.175
	l340.922,340.923c17.943,17.943,41.8,27.825,67.175,27.825c25.376,0,49.233-9.882,67.177-27.826l448.17-448.17
	c10.201-10.2,18.059-22.809,22.724-36.461c4.663-13.651,6.163-28.43,4.337-42.74L949.67,131.784z M911.693,463.829L463.521,912.001
	c-4.881,4.881-11.28,7.322-17.678,7.322s-12.796-2.441-17.678-7.322L87.243,571.077c-9.763-9.763-9.763-25.592,0-35.355
	L535.415,87.55c4.717-4.717,11.09-7.322,17.676-7.322c1.052,0,2.109,0.066,3.167,0.201L858.6,119.011
	c11.298,1.441,20.192,10.337,21.634,21.634l38.582,302.342C919.794,450.662,917.165,458.358,911.693,463.829z"/>
<path style="stroke:#000000;stroke-miterlimit:10;" d="M704.537,185.629c-29.135,0-56.527,11.346-77.129,31.947
	c-20.603,20.604-31.948,47.995-31.948,77.13s11.346,56.527,31.948,77.129s47.994,31.948,77.129,31.948s56.527-11.346,77.129-31.948
	c20.602-20.602,31.948-47.994,31.948-77.129s-11.346-56.526-31.947-77.128C761.064,196.975,733.672,185.629,704.537,185.629z
	 M732.169,322.338c-7.63,7.63-17.631,11.445-27.632,11.445s-20.001-3.815-27.632-11.445c-15.26-15.26-15.26-40.002,0-55.263
	c7.63-7.63,17.631-11.445,27.632-11.445s20.001,3.815,27.632,11.445C747.429,282.335,747.429,307.078,732.169,322.338z"/>
</svg>
