<?xml version="1.0" encoding="iso-8859-1"?>
<!-- Generator: Adobe Illustrator 18.0.0, SVG Export Plug-In . SVG Version: 6.00 Build 0)  -->
<!DOCTYPE svg PUBLIC "-//W3C//DTD SVG 1.1//EN" "http://www.w3.org/Graphics/SVG/1.1/DTD/svg11.dtd">
<svg version="1.1" id="Capa_1" xmlns="http://www.w3.org/2000/svg" xmlns:xlink="http://www.w3.org/1999/xlink" x="0px" y="0px"
	 viewBox="0 0 1000 1000" style="enable-background:new 0 0 1000 1000;" xml:space="preserve">
<path style="fill:#211915;stroke:#000000;stroke-miterlimit:10;" d="M582.668,577.03c-1.711,1.586-3.404,3.278-5.015,5.014
	c-0.578,0.603-15.953,16.495-43.625,31.823c-34.706,19.225-72.521,28.973-112.394,28.973c-1.672,0-3.353-0.018-5.04-0.053
	l-85.325-85.325c-18.131-18.131-42.237-28.116-67.877-28.116s-49.746,9.985-67.877,28.115L45.484,707.494
	C8.058,744.922,8.058,805.82,45.482,843.247l62.5,62.5c23.614,23.614,57.895,37.807,82.495,45.556
	c35.5,11.182,76.442,17.092,118.401,17.092c32.504,0,65.898-3.475,99.253-10.328c36.908-7.583,74.102-19.386,110.55-35.079
	c83.029-35.75,163.132-91.882,238.086-166.835c65.741-65.741,117.176-135.686,152.875-207.894
	c30.899-62.498,49.972-126.365,56.687-189.828c5.562-52.558,2.36-104.562-9.258-150.391c-5.201-20.513-11.943-39.331-20.041-55.928
	c-8.897-18.237-19.215-33.292-30.668-44.744l-62.499-62.499c-18.13-18.13-42.237-28.115-67.877-28.115s-49.747,9.985-67.877,28.115
	L558.078,194.9c-37.426,37.427-37.427,98.326-0.001,135.753l85.33,85.33c0.825,39.432-7.84,76.928-25.833,111.668
	C601.417,558.843,583.418,576.31,582.668,577.03z M607.575,244.397L757.607,94.365c5.075-5.075,11.728-7.613,18.379-7.613
	c6.652,0,13.305,2.538,18.38,7.613l62.499,62.499c45.273,45.273,110.867,289.328-149.595,549.79
	c-149.785,149.785-294.143,191.74-398.391,191.74c-77.03,0-132.161-22.907-151.398-42.145l-62.5-62.499
	c-10.15-10.151-10.15-26.609,0-36.76l150.032-150.032c5.075-5.075,11.727-7.613,18.379-7.613s13.304,2.538,18.38,7.613
	l97.252,97.253c4.362,4.362,10.139,7.025,16.287,7.533c9.013,0.745,17.775,1.094,26.323,1.094
	c125.713,0,200.491-75.79,207.315-83.166c0.431-0.466,0.873-0.908,1.339-1.339c7.877-7.288,93.778-92.062,82.072-233.638
	c-0.509-6.148-3.171-11.925-7.534-16.287l-97.253-97.253C597.425,271.006,597.425,254.548,607.575,244.397z"/>
</svg>
