<?xml version="1.0" encoding="iso-8859-1"?>
<!-- Generator: Adobe Illustrator 18.0.0, SVG Export Plug-In . SVG Version: 6.00 Build 0)  -->
<!DOCTYPE svg PUBLIC "-//W3C//DTD SVG 1.1//EN" "http://www.w3.org/Graphics/SVG/1.1/DTD/svg11.dtd">
<svg version="1.1" id="Capa_1" xmlns="http://www.w3.org/2000/svg" xmlns:xlink="http://www.w3.org/1999/xlink" x="0px" y="0px"
	 viewBox="0 0 1000 1000" style="enable-background:new 0 0 1000 1000;" xml:space="preserve">
<path style="fill:#211915;stroke:#000000;stroke-miterlimit:10;" d="M900.247,232.565H426.933L564.749,94.749
	c13.668-13.668,13.668-35.829,0-49.497s-35.83-13.668-49.498,0L344,216.502L172.749,45.251c-13.668-13.668-35.83-13.668-49.498,0
	s-13.668,35.829,0,49.497l137.816,137.816H99.753c-52.383,0-95,42.617-95,95v542.915c0,52.383,42.617,95,95,95h800.494
	c52.383,0,95-42.617,95-95V327.565C995.247,275.182,952.63,232.565,900.247,232.565z M925.247,870.479c0,13.807-11.193,25-25,25
	H99.753c-13.807,0-25-11.193-25-25V327.565c0-13.807,11.193-25,25-25h800.494c13.807,0,25,11.193,25,25V870.479z"/>
<path style="fill:#211915;stroke:#000000;stroke-miterlimit:10;" d="M533.938,354.437H219.157c-52.383,0-95,42.617-95,95v299.17
	c0,52.383,42.617,95,95,95h314.782c52.383,0,95-42.617,95-95v-299.17C628.938,397.054,586.322,354.437,533.938,354.437z
	 M558.938,748.607c0,13.807-11.193,25-25,25H219.157c-13.807,0-25-11.193-25-25v-299.17c0-13.807,11.193-25,25-25h314.782
	c13.807,0,25,11.193,25,25v299.17H558.938z"/>
<path style="fill:#211915;stroke:#000000;stroke-miterlimit:10;" d="M781.945,373.358c-56.477,0-102.424,45.947-102.424,102.424
	s45.947,102.424,102.424,102.424s102.424-45.947,102.424-102.424S838.422,373.358,781.945,373.358z M781.945,508.206
	c-17.908,0-32.424-14.517-32.424-32.424s14.517-32.424,32.424-32.424s32.424,14.517,32.424,32.424S799.853,508.206,781.945,508.206z
	"/>
<path style="fill:#211915;stroke:#000000;stroke-miterlimit:10;" d="M781.945,619.838c-56.477,0-102.424,45.947-102.424,102.424
	s45.947,102.424,102.424,102.424s102.424-45.947,102.424-102.424C884.369,665.785,838.422,619.838,781.945,619.838z
	 M781.945,754.686c-17.908,0-32.424-14.517-32.424-32.424s14.517-32.424,32.424-32.424s32.424,14.517,32.424,32.424
	C814.369,740.169,799.853,754.686,781.945,754.686z"/>
</svg>
