<?xml version="1.0" encoding="iso-8859-1"?>
<!-- Generator: Adobe Illustrator 18.0.0, SVG Export Plug-In . SVG Version: 6.00 Build 0)  -->
<!DOCTYPE svg PUBLIC "-//W3C//DTD SVG 1.1//EN" "http://www.w3.org/Graphics/SVG/1.1/DTD/svg11.dtd">
<svg version="1.1" id="Capa_1" xmlns="http://www.w3.org/2000/svg" xmlns:xlink="http://www.w3.org/1999/xlink" x="0px" y="0px"
	 viewBox="0 0 1000 1000" style="enable-background:new 0 0 1000 1000;" xml:space="preserve">
<g>
	<path style="fill:#211915;stroke:#000000;stroke-miterlimit:10;" d="M705.05,177.453L563.616,34.554
		c-8.879-8.971-19.289-15.985-30.94-20.847c-11.65-4.861-23.957-7.325-36.581-7.325H105.527c-52.383,0-95,42.617-95,95v742.235
		c0,52.383,42.617,95,95,95h506.86c17.297,14.296,36.489,25.943,57.286,34.74c28.647,12.117,59.038,18.26,90.327,18.26
		s61.679-6.144,90.327-18.26c27.634-11.688,52.438-28.407,73.722-49.691s38.002-46.088,49.691-73.722
		c12.117-28.647,18.26-59.038,18.26-90.327s-6.144-61.679-18.26-90.327c-11.688-27.634-28.407-52.438-49.691-73.722
		s-46.088-38.002-73.722-49.691c-28.647-12.117-59.038-18.26-90.327-18.26c-9.244,0-18.407,0.55-27.473,1.619V244.28
		C732.527,219.09,722.769,195.357,705.05,177.453z M630.856,202h-86.168c-6.681,0-12.961-2.603-17.684-7.328
		c-4.723-4.727-7.321-11.009-7.316-17.689l0.062-87.24L630.856,202z M105.527,868.618c-13.807,0-25-11.193-25-25V101.382
		c0-13.807,11.193-25,25-25H449.76l-0.072,100.55c-0.018,25.388,9.855,49.26,27.801,67.219S519.3,272,544.688,272h117.84v277.06
		c-24.773,11.467-47.146,27.079-66.576,46.509c-21.284,21.284-38.002,46.088-49.691,73.722C534.144,697.938,528,728.329,528,759.618
		s6.144,61.679,18.26,90.327c2.699,6.381,5.678,12.603,8.908,18.673H105.527z M760,921.618c-19.756,0-38.684-3.542-56.19-10.016
		c-24.632-9.11-46.446-24.033-63.771-43.109C613.919,839.729,598,801.532,598,759.618c0-52.876,25.337-99.83,64.527-129.398
		c20.181-15.226,44.036-25.835,70-30.271c8.931-1.525,18.107-2.331,27.473-2.331c89.47,0,162,72.53,162,162
		S849.47,921.618,760,921.618z"/>
	<path style="fill:#211915;stroke:#000000;stroke-miterlimit:10;" d="M182.027,258.362h178c19.33,0,35-15.67,35-35s-15.67-35-35-35
		h-178c-19.33,0-35,15.67-35,35S162.697,258.362,182.027,258.362z"/>
	<path style="fill:#211915;stroke:#000000;stroke-miterlimit:10;" d="M182.027,507h378.055c19.33,0,35-15.67,35-35s-15.67-35-35-35
		H182.027c-19.33,0-35,15.67-35,35S162.697,507,182.027,507z"/>
	<path style="fill:#211915;stroke:#000000;stroke-miterlimit:10;" d="M451.907,686.637h-269.88c-19.33,0-35,15.67-35,35
		s15.67,35,35,35h269.88c19.33,0,35-15.67,35-35S471.237,686.637,451.907,686.637z"/>
	<path style="fill:#211915;stroke:#000000;stroke-miterlimit:10;" d="M839,724.618h-44v-44c0-19.33-15.67-35-35-35
		c-11.144,0-21.063,5.214-27.473,13.328c-4.709,5.961-7.527,13.485-7.527,21.672v44h-44c-6.782,0-13.11,1.935-18.473,5.274
		C652.607,736.071,646,747.07,646,759.618s6.607,23.547,16.527,29.726c5.362,3.339,11.69,5.274,18.473,5.274h44v44
		c0,7.466,2.345,14.381,6.329,20.062c6.33,9.029,16.808,14.938,28.671,14.938c19.33,0,35-15.67,35-35v-44h44c19.33,0,35-15.67,35-35
		S858.33,724.618,839,724.618z"/>
</g>
</svg>
