<?xml version="1.0" encoding="iso-8859-1"?>
<!-- Generator: Adobe Illustrator 18.0.0, SVG Export Plug-In . SVG Version: 6.00 Build 0)  -->
<!DOCTYPE svg PUBLIC "-//W3C//DTD SVG 1.1//EN" "http://www.w3.org/Graphics/SVG/1.1/DTD/svg11.dtd">
<svg version="1.1" id="Capa_1" xmlns="http://www.w3.org/2000/svg" xmlns:xlink="http://www.w3.org/1999/xlink" x="0px" y="0px"
	 viewBox="0 0 1000 1000" style="enable-background:new 0 0 1000 1000;" xml:space="preserve">
<g>
	<path style="fill:#211915;stroke:#000000;stroke-miterlimit:10;" d="M40.848,646.138c-9.239,15.047-14.089,32.385-14.027,50.143
		s5.034,35.062,14.378,50.043c10.131,16.244,24.851,28.924,42.567,36.669l122.378,53.501c12.087,5.284,24.887,7.964,38.042,7.964
		c2.11,0,4.204-0.086,6.286-0.223c0.247,5.294,0.931,10.586,2.078,15.819c5.634,25.685,21.853,48.096,44.499,61.488
		c39.64,23.442,82.595,40.159,127.673,49.686c28.826,6.093,58.294,9.183,87.585,9.183c24.97,0,50.208-2.25,75.015-6.686
		c54.199-9.691,105.224-29.439,151.657-58.694c28.374-17.876,54.373-38.937,77.63-62.857c10.402,3.844,21.414,5.827,32.644,5.827
		c27.401,0,53.515-11.86,71.647-32.538c17.955-20.477,26.201-47.792,22.622-74.942l-17.454-132.416
		c-1.393-10.567-4.548-20.709-9.229-30.072c0.76-0.303,1.518-0.615,2.273-0.938c11.392-4.875,21.585-11.829,30.295-20.667
		c8.726-8.854,15.541-19.169,20.254-30.658c4.898-11.939,7.286-24.554,7.098-37.494c-0.67-46.048-8.807-91.418-24.186-134.85
		c-18.317-51.733-46.129-98.85-82.664-140.042c-36.534-41.191-79.993-74.431-129.17-98.794
		c-30.05-14.889-61.579-26.089-94.117-33.458c-0.981-4.958-2.364-9.84-4.144-14.623c-4.413-11.858-11.063-22.557-19.766-31.798
		c-17.967-19.077-43.271-30.021-69.421-30.024c-0.003,0-0.003,0-0.003,0c-21.53-0.002-42.691,7.515-59.586,21.167l-103.883,83.947
		c-8.779,7.094-16.129,15.648-21.815,25.168c-15.055-9.692-32.838-15.157-51.448-15.157c-15.656,0-31.235,3.93-45.054,11.365
		c-40.554,21.816-77.068,49.949-108.524,83.614c-37.469,40.1-66.464,86.498-86.181,137.905
		C57.082,414.102,47.614,467.99,48.658,522.861c0.637,33.532,5.228,66.672,13.686,98.948
		C53.859,628.583,46.595,636.779,40.848,646.138z M380.009,606.916c-2.39-14.232-8.14-27.97-16.628-39.73
		c-17.451-24.177-45.295-38.846-74.835-39.543c-1.916-26.616,2.08-53.426,11.947-79.15c15.435-40.242,44.871-74.098,82.887-95.331
		c19.229-10.74,33.972-27.672,42.001-48.041l49.161,50.552c18.066,18.577,42.193,28.808,67.938,28.808
		c23.298,0,45.744-8.491,63.204-23.91c8.279-7.312,15.097-15.859,20.278-25.283c24.496,10.567,46.434,26.464,64.71,47.071
		c28.6,32.245,45.078,73.972,46.4,117.496c0.559,18.405,6.414,36.019,16.714,50.954l-73.156,16.578
		c-18.857,4.273-35.699,13.957-48.706,28.004c-11.996,12.956-20.135,29.015-23.538,46.444c-3.402,17.428-1.901,35.37,4.341,51.887
		c1.769,4.681,3.894,9.186,6.351,13.482c-21.795,15.397-46.806,25.83-73.928,30.68c-10.669,1.908-21.561,2.875-32.373,2.875
		c-32.063,0-63.903-8.492-92.078-24.558c-14.304-8.157-30.561-12.469-47.011-12.469c-4.93,0-9.81,0.385-14.604,1.13l17.34-52.266
		C381.313,637.859,382.553,622.062,380.009,606.916z M849.253,788.001c-4.777,0-9.693-1.408-14.206-4.552l-13.29-9.258
		c-4.337-3.021-9.313-4.481-14.249-4.481c-7.335,0-14.583,3.223-19.517,9.333c-24.427,30.247-53.375,56.004-86.325,76.763
		c-38.768,24.425-81.385,40.916-126.666,49.012c-20.852,3.729-41.79,5.592-62.692,5.592c-24.487,0-48.924-2.558-73.109-7.67
		c-37.698-7.968-73.419-21.879-106.517-41.452c-12.512-7.399-16.172-23.826-7.906-35.783l28.334-40.985
		c4.823-6.977,12.614-10.788,20.577-10.788c4.201,0,8.451,1.061,12.337,3.277c38.789,22.118,82.411,33.749,126.753,33.749
		c14.867,0,29.823-1.309,44.695-3.968c56.986-10.19,107.686-38.75,145.501-81.427c9.9-11.173,7.772-28.507-4.478-37.04
		l-11.159-7.773c-17.825-12.417-12.422-40.094,8.765-44.895l130.259-29.518c1.867-0.423,3.728-0.625,5.558-0.625
		c12.237,0.001,23.08,9.053,24.752,21.74l17.454,132.416C876.243,775.753,863.346,788.001,849.253,788.001z M433.819,174.246
		L537.701,90.3c4.799-3.878,10.256-5.614,15.583-5.613c13.426,0.001,26.015,11.028,25.085,26.553l-0.969,16.168
		c-0.786,13.116,8.721,24.568,21.749,26.281c38.547,5.068,75.621,16.336,110.516,33.625c41.058,20.341,77.353,48.105,107.875,82.519
		c30.523,34.414,53.754,73.764,69.047,116.957c12.86,36.321,19.619,74.055,20.179,112.503c0.204,14.054-11.108,25.447-24.976,25.447
		c-0.474,0-0.953-0.013-1.433-0.041l-49.747-2.802c-12.935-0.729-23.18-11.218-23.573-24.168
		c-1.81-59.595-24.074-116.806-63.998-161.819c-38.413-43.31-89.221-71.676-145.356-81.686c-1.482-0.264-2.952-0.392-4.401-0.391
		c-12.923,0.001-24.066,10.129-24.869,23.528l-0.813,13.575c-0.862,14.382-12.776,23.544-25.123,23.544
		c-6.27,0-12.654-2.365-17.755-7.61l-93.116-95.75C421.352,200.573,422.376,183.493,433.819,174.246z M111.646,673.112l14.795-6.592
		c12.003-5.348,17.783-19.063,13.299-31.414c-13.268-36.545-20.356-74.639-21.095-113.576
		c-0.871-45.812,7.039-90.818,23.512-133.767s40.687-81.701,71.971-115.181c26.306-28.153,56.677-51.543,90.541-69.76
		c3.8-2.044,7.878-3.01,11.89-3.01c9.503,0,18.636,5.416,22.829,14.737l20.441,45.439c5.315,11.815,0.728,25.741-10.583,32.059
		c-52.054,29.073-92.565,75.2-114.111,131.377c-20.731,54.051-22.487,112.215-5.499,166.646
		c3.364,10.779,13.302,17.488,23.846,17.488c3.396,0,6.856-0.696,10.177-2.176l12.422-5.535c3.438-1.532,6.908-2.23,10.26-2.23
		c15.993,0,29.298,15.893,23.643,32.938l-42.057,126.767c-3.509,10.577-13.326,17.137-23.74,17.137
		c-3.335,0-6.732-0.673-10.002-2.103l-122.378-53.501C91.902,710.153,91.803,681.954,111.646,673.112z"/>
</g>
</svg>
