<?xml version="1.0" encoding="iso-8859-1"?>
<!-- Generator: Adobe Illustrator 18.0.0, SVG Export Plug-In . SVG Version: 6.00 Build 0)  -->
<!DOCTYPE svg PUBLIC "-//W3C//DTD SVG 1.1//EN" "http://www.w3.org/Graphics/SVG/1.1/DTD/svg11.dtd">
<svg version="1.1" id="Capa_1" xmlns="http://www.w3.org/2000/svg" xmlns:xlink="http://www.w3.org/1999/xlink" x="0px" y="0px"
	 viewBox="0 0 1000 1000" style="enable-background:new 0 0 1000 1000;" xml:space="preserve">
<path style="stroke:#000000;stroke-miterlimit:10;" d="M298.073,778.309c-3.529,17.361-2.164,35.328,3.946,51.958
	c6.11,16.628,16.703,31.204,30.632,42.15l108.847,85.532c16.748,13.161,37.703,20.409,59.004,20.409
	c21.163,0,42.012-7.165,58.704-20.175l109.887-85.645c13.97-10.888,24.62-25.418,30.797-42.02c6.177-16.6,7.615-34.558,4.16-51.93
	L597.626,243.454c-1.702-8.56-4.574-16.805-8.479-24.509c7.571-10.823,12.888-23.184,15.47-36.28l10.87-55.102
	c5.549-28.133-1.711-56.972-19.92-79.123s-45.097-34.855-73.771-34.855h-43.429c-29.043,0-56.15,12.972-74.369,35.59
	c-18.219,22.618-25.121,51.865-18.936,80.242l12.009,55.104c2.93,13.442,8.763,26.069,16.944,36.982
	c-3.217,6.842-5.63,14.078-7.151,21.557L298.073,778.309z M626.062,817.326l-109.887,85.645c-4.608,3.592-10.141,5.387-15.673,5.387
	c-5.566,0-11.132-1.817-15.754-5.449l-108.845-85.531c-7.58-5.957-11.153-15.679-9.232-25.126l108.792-535.249
	c2.415-11.881,12.862-20.418,24.986-20.418h3.516c12.164,0,22.634,8.593,25.007,20.523l106.424,535.135
	C637.275,801.695,633.663,811.401,626.062,817.326z M546.811,114.016l-10.87,55.104c-2.357,11.949-12.835,20.562-25.014,20.562
	h-20.549c-11.989,0-22.359-8.353-24.912-20.067l-12.009-55.105c-3.464-15.896,8.643-30.925,24.911-30.925h43.429
	C537.858,83.585,549.919,98.258,546.811,114.016z"/>
</svg>
