<?xml version="1.0" encoding="iso-8859-1"?>
<!-- Generator: Adobe Illustrator 18.0.0, SVG Export Plug-In . SVG Version: 6.00 Build 0)  -->
<!DOCTYPE svg PUBLIC "-//W3C//DTD SVG 1.1//EN" "http://www.w3.org/Graphics/SVG/1.1/DTD/svg11.dtd">
<svg version="1.1" id="Capa_1" xmlns="http://www.w3.org/2000/svg" xmlns:xlink="http://www.w3.org/1999/xlink" x="0px" y="0px"
	 viewBox="0 0 1000 1000" style="enable-background:new 0 0 1000 1000;" xml:space="preserve">
<path style="stroke:#000000;stroke-miterlimit:10;" d="M897.754,235.718H739.22v-69.953c0-51.657-42.026-93.683-93.682-93.683
	H354.462c-51.656,0-93.682,42.025-93.682,93.683v69.953H102.246c-52.383,0-95,42.617-95,95v513.498c0,52.383,42.617,95,95,95
	h795.509c52.383,0,95-42.617,95-95V330.718C992.754,278.335,950.137,235.718,897.754,235.718z M922.754,844.216
	c0,13.807-11.193,25-25,25H826.26V305.718h71.495c13.807,0,25,11.193,25,25L922.754,844.216L922.754,844.216z M77.246,844.216
	V330.718c0-13.807,11.193-25,25-25h71.495v563.498h-71.495C88.438,869.216,77.246,858.023,77.246,844.216z M330.78,165.766
	c0-12.837,10.845-23.683,23.682-23.683h291.076c12.837,0,23.682,10.846,23.682,23.683v69.953H330.78V165.766z M756.26,869.216
	H243.74V305.718h512.52V869.216z"/>
</svg>
