<?xml version="1.0" encoding="iso-8859-1"?>
<!-- Generator: Adobe Illustrator 18.0.0, SVG Export Plug-In . SVG Version: 6.00 Build 0)  -->
<!DOCTYPE svg PUBLIC "-//W3C//DTD SVG 1.1//EN" "http://www.w3.org/Graphics/SVG/1.1/DTD/svg11.dtd">
<svg version="1.1" id="Capa_1" xmlns="http://www.w3.org/2000/svg" xmlns:xlink="http://www.w3.org/1999/xlink" x="0px" y="0px"
	 viewBox="0 0 1000 1000" style="enable-background:new 0 0 1000 1000;" xml:space="preserve">
<g>
	<path style="fill:#211915;stroke:#000000;stroke-miterlimit:10;" d="M189.285,570.164L600.584,945.34
		c17.577,16.033,40.258,24.862,63.867,24.862c24.339,0,47.531-9.182,65.302-25.856c9.281-8.707,16.592-19.001,21.731-30.597
		c5.389-12.161,8.122-25.147,8.122-38.596v-750.35c0-13.448-2.732-26.433-8.12-38.593c-5.138-11.596-12.449-21.891-21.729-30.599
		c-17.772-16.675-40.964-25.858-65.304-25.858c-0.001,0-0.004,0-0.005,0c-23.608,0.001-46.289,8.831-63.864,24.863L189.286,429.791
		c-19.687,17.958-30.978,43.539-30.978,70.186C158.308,526.624,169.599,552.206,189.285,570.164z M236.46,481.507l411.298-375.175
		c4.979-4.542,10.898-6.579,16.693-6.579c12.883-0.001,25.155,10.065,25.155,25.049v750.35c0,14.983-12.274,25.049-25.156,25.049
		c-5.796,0-11.712-2.036-16.693-6.579L236.46,518.448C225.591,508.533,225.591,491.422,236.46,481.507z"/>
</g>
</svg>
