<?xml version="1.0" encoding="iso-8859-1"?>
<!-- Generator: Adobe Illustrator 18.0.0, SVG Export Plug-In . SVG Version: 6.00 Build 0)  -->
<!DOCTYPE svg PUBLIC "-//W3C//DTD SVG 1.1//EN" "http://www.w3.org/Graphics/SVG/1.1/DTD/svg11.dtd">
<svg version="1.1" id="Capa_1" xmlns="http://www.w3.org/2000/svg" xmlns:xlink="http://www.w3.org/1999/xlink" x="0px" y="0px"
	 viewBox="0 0 1000 1000" style="enable-background:new 0 0 1000 1000;" xml:space="preserve">
<g>
	<path style="stroke:#000000;stroke-miterlimit:10;" d="M954.247,291.1c27.352-28.072,35.181-69.543,19.947-105.653
		c-15.232-36.109-50.399-59.441-89.59-59.441l-766.336-0.01h-0.001c-39.191,0-74.358,23.333-89.591,59.443
		S21.274,263.02,48.625,291.09l417.811,428.805v182.617H381.92c-19.33,0-35,15.67-35,35s15.67,35,35,35h239.033
		c19.33,0,35-15.67,35-35s-15.67-35-35-35h-84.518V719.895L954.247,291.1z M98.761,242.239
		c-16.815-17.258-4.588-46.244,19.507-46.244l766.337,0.01c24.095,0,36.321,28.986,19.507,46.244L501.436,655.51L98.761,242.239z"/>
	<path style="stroke:#000000;stroke-miterlimit:10;" d="M551.935,517.434l102.668-106.956l113.724-118.474l-164.222-0.001
		l-207.515-0.002L229.946,292L346.6,411.003l104.847,106.958l50.516,51.532L551.935,517.434z M396.589,362.001l207.515,0.002
		L501.436,468.959L396.589,362.001z"/>
</g>
</svg>
