<?xml version="1.0" encoding="iso-8859-1"?>
<!-- Generator: Adobe Illustrator 18.0.0, SVG Export Plug-In . SVG Version: 6.00 Build 0)  -->
<!DOCTYPE svg PUBLIC "-//W3C//DTD SVG 1.1//EN" "http://www.w3.org/Graphics/SVG/1.1/DTD/svg11.dtd">
<svg version="1.1" id="Capa_1" xmlns="http://www.w3.org/2000/svg" xmlns:xlink="http://www.w3.org/1999/xlink" x="0px" y="0px"
	 viewBox="0 0 1000 1000" style="enable-background:new 0 0 1000 1000;" xml:space="preserve">
<g>
	<path style="fill:#211915;stroke:#000000;stroke-miterlimit:10;" d="M814.944,199.287c-38.36-38.523-83.094-68.812-132.958-90.027
		c-30.555-13-62.365-22.26-94.959-27.665c-4.495-14.857-12.576-28.448-23.803-39.7c-17.992-18.032-42.908-28.375-68.36-28.378
		c-23.812-0.003-46.713,8.884-64.483,25.025l-93.612,85.029c-13.107,11.906-22.557,27.145-27.518,43.841
		c-10.924-4.158-22.587-6.331-34.309-6.331c-22.226,0-43.922,7.792-61.094,21.942c-12.859,10.596-22.194,18.818-28.539,25.137
		c-38.523,38.36-68.812,83.093-90.027,132.957c-21.99,51.686-33.201,106.547-33.32,163.06c-0.12,56.513,10.859,111.422,32.632,163.2
		c21.004,49.953,51.104,94.814,89.465,133.336c38.36,38.523,83.094,68.812,132.958,90.027c30.552,12.999,62.368,22.26,94.959,27.665
		c4.496,14.86,12.578,28.451,23.808,39.705c17.994,18.031,42.911,28.373,68.364,28.373c23.811,0,46.709-8.887,64.475-25.025
		l93.612-85.029c13.107-11.906,22.557-27.145,27.518-43.841c10.924,4.158,22.587,6.331,34.309,6.331
		c22.226,0,43.922-7.792,61.094-21.942c12.859-10.596,22.194-18.818,28.539-25.137c38.523-38.36,68.812-83.093,90.027-132.957
		c21.99-51.686,33.201-106.547,33.32-163.06c0.12-56.513-10.859-111.422-32.632-163.2
		C883.404,282.67,853.304,237.809,814.944,199.287z M636.588,631.626c-15.359,13.375-26.013,31.282-30.527,51.024l-36.78-33.693
		c-17.805-16.311-40.806-25.295-64.765-25.298c-24.602-0.002-48.05,9.266-66.029,26.098c-7.913,7.408-14.415,15.957-19.383,25.471
		c-24.716-8.941-47.22-23.302-66.345-42.508c-24.855-24.96-41.75-56.11-48.861-90.083c-7.266-34.714-4.154-71.888,8.993-107.597
		c12.283-26.323,28.936-48.742,49.521-66.668c15.359-13.375,26.013-31.282,30.527-51.024l36.78,33.693
		c17.808,16.314,40.812,25.298,64.774,25.298c24.596,0,48.042-9.268,66.019-26.098c7.913-7.408,14.415-15.956,19.383-25.472
		c24.716,8.941,47.221,23.303,66.345,42.508c24.855,24.96,41.75,56.11,48.861,90.083c7.266,34.714,4.154,71.888-8.993,107.597
		C673.826,591.282,657.173,613.701,636.588,631.626z M615.167,824.615l-93.612,85.029c-5.201,4.724-11.369,6.841-17.41,6.841
		c-13.486,0-26.329-10.558-26.296-26.242l0.023-11.116c0.029-13.736-10.587-25.065-24.282-26.122
		c-37.695-2.909-74.311-11.844-109.172-26.677c-41.527-17.668-78.793-42.904-110.761-75.008
		c-31.968-32.103-57.047-69.475-74.539-111.076c-18.121-43.096-27.259-88.826-27.159-135.919s9.43-92.784,27.733-135.803
		c17.668-41.527,42.904-78.792,75.008-110.76c5.433-5.41,14.746-13.37,23.661-20.717c4.894-4.033,10.764-5.964,16.579-5.964
		c8.647,0,17.172,4.273,22.179,12.263l24.256,38.706c6.814,10.874,4.744,25.107-4.933,33.534
		c-27.717,24.135-50.967,54.931-67.78,91.573c-0.288,0.627-0.554,1.267-0.797,1.913c-37.596,100.075-14.124,203.336,55.291,273.045
		c39.726,39.895,90.507,64.775,145.465,71.799c1.142,0.146,2.274,0.217,3.393,0.217c14.208,0,26.146-11.451,26.176-26.075
		l0.017-8.265c0.033-15.643,12.85-26.132,26.297-26.131c6.074,0.001,12.28,2.142,17.49,6.915l93.252,85.423
		C626.59,796.387,626.552,814.274,615.167,824.615z M839.307,631.479c-17.668,41.527-42.904,78.792-75.008,110.76
		c-5.433,5.41-14.746,13.37-23.661,20.717c-4.894,4.033-10.764,5.964-16.579,5.964c-8.647,0-17.172-4.273-22.179-12.263
		l-24.256-38.706c-6.814-10.874-4.744-25.107,4.933-33.534c27.717-24.135,50.967-54.931,67.78-91.573
		c0.288-0.627,0.554-1.267,0.797-1.913c37.596-100.075,14.124-203.336-55.291-273.045c-39.726-39.895-90.507-64.775-145.465-71.799
		c-1.142-0.146-2.274-0.217-3.393-0.217c-14.208,0-26.146,11.451-26.176,26.075l-0.017,8.265
		c-0.033,15.643-12.85,26.131-26.297,26.131c-6.074,0-12.28-2.142-17.49-6.915l-93.252-85.423
		c-11.341-10.389-11.303-28.276,0.082-38.617l93.612-85.029c5.201-4.724,11.369-6.842,17.41-6.841
		c13.486,0.002,26.329,10.558,26.296,26.242l-0.023,11.116c-0.029,13.736,10.587,25.065,24.282,26.122
		c37.695,2.909,74.311,11.844,109.172,26.677c41.527,17.668,78.793,42.904,110.761,75.008
		c31.968,32.103,57.047,69.475,74.539,111.076c18.121,43.096,27.259,88.826,27.159,135.919S857.61,588.459,839.307,631.479z"/>
</g>
</svg>
