<?xml version="1.0" encoding="iso-8859-1"?>
<!-- Generator: Adobe Illustrator 18.0.0, SVG Export Plug-In . SVG Version: 6.00 Build 0)  -->
<!DOCTYPE svg PUBLIC "-//W3C//DTD SVG 1.1//EN" "http://www.w3.org/Graphics/SVG/1.1/DTD/svg11.dtd">
<svg version="1.1" id="Capa_1" xmlns="http://www.w3.org/2000/svg" xmlns:xlink="http://www.w3.org/1999/xlink" x="0px" y="0px"
	 viewBox="0 0 1000 1000" style="enable-background:new 0 0 1000 1000;" xml:space="preserve">
<path style="stroke:#000000;stroke-miterlimit:10;" d="M500,13c-19.33,0-35,15.67-35,35v36.791
	c-101.526,7.849-197.018,49.724-271.954,119.905c-40.596,38.02-73.421,82.604-97.562,132.517
	c-24.89,51.459-39.531,106.552-43.517,163.746c-1.823,26.185,7.399,52.209,25.303,71.403c17.905,19.195,43.228,30.204,69.476,30.204
	H465V828c0,81.056,65.944,147,147,147s147-65.944,147-147c0-19.33-15.67-35-35-35s-35,15.67-35,35c0,42.458-34.542,77-77,77
	s-77-34.542-77-77V602.565h318.255c26.248,0,51.57-11.009,69.476-30.204c17.903-19.194,27.126-45.219,25.303-71.401
	c-3.985-57.197-18.627-112.289-43.517-163.749c-24.142-49.912-56.967-94.497-97.562-132.517
	C732.018,134.515,636.526,92.64,535,84.791V48C535,28.67,519.33,13,500,13z M853.255,532.565H535h-70H146.745
	c-14.492,0-25.954-12.285-24.947-26.741C134.711,320.51,280.801,171.897,465,155.036c11.525-1.055,23.199-1.601,35-1.601
	s23.475,0.546,35,1.601c184.199,16.861,330.289,165.474,343.202,350.789C879.209,520.281,867.747,532.565,853.255,532.565z"/>
</svg>
