<?xml version="1.0" encoding="iso-8859-1"?>
<!-- Generator: Adobe Illustrator 18.0.0, SVG Export Plug-In . SVG Version: 6.00 Build 0)  -->
<!DOCTYPE svg PUBLIC "-//W3C//DTD SVG 1.1//EN" "http://www.w3.org/Graphics/SVG/1.1/DTD/svg11.dtd">
<svg version="1.1" id="Capa_1" xmlns="http://www.w3.org/2000/svg" xmlns:xlink="http://www.w3.org/1999/xlink" x="0px" y="0px"
	 viewBox="0 0 1000 1000" style="enable-background:new 0 0 1000 1000;" xml:space="preserve">
<path style="fill:#211915;stroke:#000000;stroke-miterlimit:10;" d="M832.812,327.616c88.017,0,159.624-71.606,159.624-159.623
	S920.828,8.369,832.812,8.369S673.188,79.977,673.188,167.993v89.623H327.616v-89.623c0-88.017-71.606-159.624-159.623-159.624
	S8.369,79.977,8.369,167.993s71.607,159.623,159.624,159.623h89.623v345.572h-89.623c-88.017,0-159.624,71.606-159.624,159.623
	s71.607,159.624,159.624,159.624s159.623-71.607,159.623-159.624v-89.623h345.572v89.623c0,88.017,71.606,159.624,159.623,159.624
	s159.624-71.607,159.624-159.624s-71.607-159.623-159.624-159.623h-89.623V327.616H832.812z M743.188,167.993
	c0-49.419,40.205-89.624,89.623-89.624c49.419,0,89.624,40.205,89.624,89.624c0,49.418-40.205,89.623-89.624,89.623h-89.623V167.993
	z M167.993,257.616c-49.419,0-89.624-40.205-89.624-89.623c0-49.419,40.205-89.624,89.624-89.624
	c49.418,0,89.623,40.205,89.623,89.624v89.623H167.993z M257.616,832.812c0,49.419-40.205,89.624-89.623,89.624
	c-49.419,0-89.624-40.205-89.624-89.624c0-49.418,40.205-89.623,89.624-89.623h89.623V832.812z M327.616,673.188V327.616h345.572
	v345.572H327.616z M832.812,743.188c49.419,0,89.624,40.205,89.624,89.623c0,49.419-40.205,89.624-89.624,89.624
	c-49.418,0-89.623-40.205-89.623-89.624v-89.623H832.812z"/>
</svg>
