<?xml version="1.0" encoding="iso-8859-1"?>
<!-- Generator: Adobe Illustrator 18.0.0, SVG Export Plug-In . SVG Version: 6.00 Build 0)  -->
<!DOCTYPE svg PUBLIC "-//W3C//DTD SVG 1.1//EN" "http://www.w3.org/Graphics/SVG/1.1/DTD/svg11.dtd">
<svg version="1.1" id="Capa_1" xmlns="http://www.w3.org/2000/svg" xmlns:xlink="http://www.w3.org/1999/xlink" x="0px" y="0px"
	 viewBox="0 0 1000 1000" style="enable-background:new 0 0 1000 1000;" xml:space="preserve">
<path style="fill:#211915;stroke:#000000;stroke-miterlimit:10;" d="M333.677,412.563c20.208-20.208,31.338-47.078,31.338-75.657
	s-11.129-55.448-31.338-75.657s-47.078-31.338-75.657-31.338s-55.448,11.129-75.657,31.338s-31.338,47.078-31.338,75.657
	s11.129,55.448,31.338,75.657c11.653,11.653,25.523,20.28,40.657,25.501v62.769c0,44.386,13.819,77.967,42.246,102.662
	c23.343,20.277,52.779,30.96,81.247,41.29c53.081,19.262,99.051,35.949,118.375,107.625v16.978
	c-2.982,0.978-5.935,2.075-8.849,3.308c-13.416,5.674-25.45,13.783-35.768,24.101s-18.427,22.352-24.102,35.769
	c-5.891,13.926-8.877,28.679-8.877,43.849c0,15.169,2.987,29.923,8.877,43.849c5.674,13.417,13.784,25.451,24.102,35.769
	s22.352,18.427,35.769,24.102c13.926,5.89,28.679,8.877,43.849,8.877s29.922-2.987,43.849-8.877
	c13.416-5.675,25.45-13.784,35.769-24.102c10.318-10.318,18.427-22.353,24.102-35.769c5.89-13.926,8.877-28.679,8.877-43.849
	s-2.987-29.922-8.877-43.849c-5.675-13.416-13.784-25.45-24.102-35.768s-22.353-18.427-35.769-24.102
	c-2.914-1.232-5.866-2.33-8.849-3.308v-21.446v-11.72c0.348-17.354,2.37-53.694,12.412-90.805
	c7.599-28.084,18.209-50.997,31.535-68.103c15.083-19.359,33.312-30.919,55.729-35.34c38.046-7.503,67.893-18.036,91.247-32.2
	c24.271-14.72,41.732-33.305,53.384-56.818c16.16-32.613,18.561-70.052,18.021-112.331c34.946-6.367,61.531-37.01,61.531-73.765
	v-46.631c0-41.355-33.645-75-75-75h-46.631c-41.355,0-75,33.645-75,75v46.631c0,38,28.415,69.469,65.109,74.327
	c0.462,33.831-1.088,61.186-10.752,80.688c-8.335,16.82-26.717,37.865-95.452,51.421c-26.781,5.282-58.311,18.297-86.134,47.75
	V217.871h1.456c34.098,0,64.561-20.355,77.61-51.857s5.9-67.437-18.21-91.547L556.488,35.21
	c-15.863-15.865-36.959-24.604-59.4-24.604s-43.537,8.74-59.403,24.608l-39.252,39.252c-24.111,24.111-31.259,60.045-18.21,91.547
	s43.512,51.857,77.61,51.857h7.057v408.77c-30.656-24.481-65.322-37.069-94.497-47.656c-55.037-19.972-77.371-29.996-77.371-78.15
	v-62.769C308.154,432.843,322.024,424.216,333.677,412.563z M732.118,233.067v-12.838c0-2.761,2.238-5,5-5h46.631
	c2.761,0,5,2.239,5,5v13.025v33.606c0,2.761-2.239,5-5,5h-46.631c-2.762,0-5-2.239-5-5V233.067z M447.929,123.964l39.256-39.256
	c2.734-2.735,6.318-4.102,9.902-4.102s7.168,1.367,9.902,4.102l39.256,39.256c8.822,8.822,2.574,23.907-9.902,23.907h-1.456h-70
	h-7.057C445.355,147.871,439.107,132.787,447.929,123.964z M499.889,919.01c-23.525,0-42.596-19.071-42.596-42.596
	c0-9.021,2.812-17.381,7.596-24.268c7.692-11.073,20.496-18.328,35-18.328s27.308,7.255,35,18.328
	c4.784,6.887,7.596,15.247,7.596,24.268C542.485,899.939,523.414,919.01,499.889,919.01z M258.021,299.912
	c20.432,0,36.995,16.563,36.995,36.995c0,4.195-0.708,8.222-1.995,11.98c-4.979,14.549-18.763,25.014-35,25.014
	s-30.021-10.465-35-25.014c-1.287-3.759-1.995-7.786-1.995-11.98C221.026,316.475,237.589,299.912,258.021,299.912z"/>
</svg>
