<?xml version="1.0" encoding="iso-8859-1"?>
<!-- Generator: Adobe Illustrator 18.0.0, SVG Export Plug-In . SVG Version: 6.00 Build 0)  -->
<!DOCTYPE svg PUBLIC "-//W3C//DTD SVG 1.1//EN" "http://www.w3.org/Graphics/SVG/1.1/DTD/svg11.dtd">
<svg version="1.1" id="Capa_1" xmlns="http://www.w3.org/2000/svg" xmlns:xlink="http://www.w3.org/1999/xlink" x="0px" y="0px"
	 viewBox="0 0 1000 1000" style="enable-background:new 0 0 1000 1000;" xml:space="preserve">
<path style="fill:#211915;stroke:#000000;stroke-miterlimit:10;" d="M828,482.644h-46.978V288.255
	c0-73.795-28.737-143.173-80.918-195.354S578.545,11.983,504.75,11.983S361.577,40.721,309.396,92.901
	s-80.918,121.559-80.918,195.354v47.026c0,19.33,15.67,35,35,35c5.407,0,10.526-1.228,15.098-3.417
	c11.771-5.637,19.902-17.66,19.902-31.583v-47.026c0-113.738,92.533-206.271,206.272-206.271
	c113.738,0,206.271,92.533,206.271,206.271v194.389H333.922H181.501c-52.383,0-95,42.617-95,95v310.124c0,52.383,42.617,95,95,95
	H828c52.383,0,95-42.617,95-95V577.644C923,525.261,880.383,482.644,828,482.644z M853,887.768c0,13.807-11.193,25-25,25H181.501
	c-13.807,0-25-11.193-25-25V577.644c0-13.808,11.193-25,25-25h185.883h343.639h35h35H828c13.807,0,25,11.192,25,25V887.768z"/>
</svg>
