<?xml version="1.0" encoding="iso-8859-1"?>
<!-- Generator: Adobe Illustrator 18.0.0, SVG Export Plug-In . SVG Version: 6.00 Build 0)  -->
<!DOCTYPE svg PUBLIC "-//W3C//DTD SVG 1.1//EN" "http://www.w3.org/Graphics/SVG/1.1/DTD/svg11.dtd">
<svg version="1.1" id="Capa_1" xmlns="http://www.w3.org/2000/svg" xmlns:xlink="http://www.w3.org/1999/xlink" x="0px" y="0px"
	 viewBox="0 0 1000 1000" style="enable-background:new 0 0 1000 1000;" xml:space="preserve">
<path style="fill:#211915;stroke:#000000;stroke-miterlimit:10;" d="M825.493,430.665v-63.574c0-43.929-8.611-86.562-25.595-126.715
	c-16.396-38.766-39.862-73.574-69.746-103.457c-29.883-29.884-64.691-53.35-103.458-69.746
	c-40.153-16.983-82.787-25.595-126.715-25.595c-71.495,0-139.349,22.744-196.227,65.774c-27.339,20.683-51.152,45.412-70.777,73.502
	c-19.916,28.506-35.04,59.796-44.951,93.002c-5.528,18.522,5.005,38.021,23.528,43.549c8.899,2.658,18.019,1.599,25.711-2.266
	c8.317-4.179,14.964-11.639,17.837-21.262c15.4-51.596,47.677-98.013,90.885-130.701c44.619-33.756,97.87-51.599,153.994-51.599
	c68.25,0,132.415,26.578,180.675,74.838s74.838,112.425,74.838,180.675v63.546H295.251H176.73c-52.383,0-95,42.617-95,95v360.131
	c0,52.383,42.617,95,95,95h646.499c52.383,0,95-42.617,95-95v-360.13C918.229,474.011,876.834,431.872,825.493,430.665z
	 M848.229,885.768c0,13.807-11.193,25-25,25H176.73c-13.808,0-25-11.193-25-25V525.637c0-13.807,11.192-25,25-25h153.666h425.097h35
	h32.737c0.763,0,1.517,0.04,2.263,0.106c12.746,1.146,22.737,11.851,22.737,24.894L848.229,885.768L848.229,885.768z"/>
<path style="fill:#211915;stroke:#000000;stroke-miterlimit:10;" d="M499.979,536.246c-55.37,0-100.548,44.456-101.725,99.549
	c-0.016,0.733-0.028,1.468-0.028,2.205c0,34.117,16.879,64.365,42.724,82.835c7.129,5.096,14.942,9.29,23.271,12.427v33.924v46.253
	c0,19.33,15.67,35,35,35c0.255,0,0.506-0.014,0.759-0.02c9.779-0.208,18.567-4.423,24.792-11.074
	c5.856-6.257,9.448-14.66,9.448-23.906v-12.308v-67.312c39.312-14.09,67.513-51.721,67.513-95.819
	C601.733,581.893,556.087,536.246,499.979,536.246z M499.979,669.754c-17.537,0-31.753-14.217-31.753-31.754
	s14.216-31.754,31.753-31.754s31.754,14.217,31.754,31.754S517.517,669.754,499.979,669.754z"/>
</svg>
