<?xml version="1.0" encoding="iso-8859-1"?>
<!-- Generator: Adobe Illustrator 18.0.0, SVG Export Plug-In . SVG Version: 6.00 Build 0)  -->
<!DOCTYPE svg PUBLIC "-//W3C//DTD SVG 1.1//EN" "http://www.w3.org/Graphics/SVG/1.1/DTD/svg11.dtd">
<svg version="1.1" id="Capa_1" xmlns="http://www.w3.org/2000/svg" xmlns:xlink="http://www.w3.org/1999/xlink" x="0px" y="0px"
	 viewBox="0 0 1000 1000" style="enable-background:new 0 0 1000 1000;" xml:space="preserve">
<g>
	<path style="fill:#211915;stroke:#000000;stroke-miterlimit:10;" d="M71.134,620.689c15.79,10.825,34.356,16.547,53.691,16.547
		h85.594v231.695c0,52.383,42.617,95,95,95h389.162c52.383,0,95-42.617,95-95V637.236h85.594c19.335,0,37.901-5.722,53.691-16.547
		c14.563-9.984,26.05-23.848,33.22-40.093c7.17-16.246,9.672-34.076,7.234-51.563c-2.643-18.961-10.928-36.534-23.958-50.819
		L570.186,66.916C552.229,47.229,526.647,35.938,500,35.938s-52.229,11.291-70.187,30.979L54.638,478.214
		c-13.03,14.285-21.315,31.858-23.958,50.819c-2.438,17.487,0.064,35.318,7.234,51.563
		C45.084,596.841,56.571,610.705,71.134,620.689z M106.355,525.388L481.53,114.09c4.957-5.435,11.714-8.152,18.47-8.152
		s13.513,2.717,18.47,8.152l375.175,411.298c14.64,16.049,3.253,41.848-18.47,41.848H744.581c-13.807,0-25,11.193-25,25v276.695
		c0,13.807-11.193,25-25,25H305.419c-13.807,0-25-11.193-25-25V592.236c0-13.807-11.193-25-25-25H124.825
		C103.101,567.236,91.715,541.438,106.355,525.388z"/>
</g>
</svg>
