<?xml version="1.0" encoding="iso-8859-1"?>
<!-- Generator: Adobe Illustrator 18.0.0, SVG Export Plug-In . SVG Version: 6.00 Build 0)  -->
<!DOCTYPE svg PUBLIC "-//W3C//DTD SVG 1.1//EN" "http://www.w3.org/Graphics/SVG/1.1/DTD/svg11.dtd">
<svg version="1.1" id="Capa_1" xmlns="http://www.w3.org/2000/svg" xmlns:xlink="http://www.w3.org/1999/xlink" x="0px" y="0px"
	 viewBox="0 0 1000 1000" style="enable-background:new 0 0 1000 1000;" xml:space="preserve">
<g>
	<path style="fill:#211915;stroke:#000000;stroke-miterlimit:10;" d="M772.722,649.265L570.187,427.229
		c-17.958-19.687-43.54-30.979-70.187-30.979s-52.229,11.292-70.188,30.979L227.277,649.266
		c-13.03,14.284-21.315,31.856-23.958,50.817c-2.438,17.487,0.063,35.317,7.233,51.563s18.657,30.11,33.22,40.094
		c15.79,10.825,34.356,16.547,53.691,16.547h405.072c19.335,0,37.901-5.722,53.691-16.547c14.563-9.984,26.05-23.848,33.22-40.094
		c7.17-16.246,9.671-34.076,7.233-51.563C794.038,681.122,785.752,663.549,772.722,649.265z M702.536,738.288H297.464
		c-21.724,0-33.11-25.798-18.47-41.848L481.53,474.403c4.958-5.435,11.714-8.152,18.47-8.152s13.513,2.717,18.47,8.152
		L721.006,696.44C735.646,712.489,724.26,738.288,702.536,738.288z"/>
	<path style="fill:#211915;stroke:#000000;stroke-miterlimit:10;" d="M982.856,873V125.128c0-52.383-42.617-95-95-95H112.144
		c-52.383,0-95,42.617-95,95V873c0,52.383,42.617,95,95,95h775.713C940.239,968,982.856,925.383,982.856,873z M87.144,125.128
		c0-13.807,11.193-25,25-25h775.713c13.807,0,25,11.193,25,25v107H87.144V125.128z M87.144,873V302.128h825.713V873
		c0,13.807-11.193,25-25,25H112.144C98.336,898,87.144,886.807,87.144,873z"/>
</g>
</svg>
