<?xml version="1.0" encoding="iso-8859-1"?>
<!-- Generator: Adobe Illustrator 18.0.0, SVG Export Plug-In . SVG Version: 6.00 Build 0)  -->
<!DOCTYPE svg PUBLIC "-//W3C//DTD SVG 1.1//EN" "http://www.w3.org/Graphics/SVG/1.1/DTD/svg11.dtd">
<svg version="1.1" id="Capa_1" xmlns="http://www.w3.org/2000/svg" xmlns:xlink="http://www.w3.org/1999/xlink" x="0px" y="0px"
	 viewBox="0 0 1000 1000" style="enable-background:new 0 0 1000 1000;" xml:space="preserve">
<g>
	<path style="fill:#211915;stroke:#000000;stroke-miterlimit:10;" d="M160.942,839.058c44.014,44.014,95.286,78.578,152.393,102.732
		C372.496,966.813,435.299,979.5,500,979.5s127.504-12.688,186.665-37.71c57.107-24.154,108.379-58.718,152.393-102.732
		c44.014-44.014,78.579-95.286,102.733-152.393c25.022-59.161,37.71-121.964,37.71-186.665s-12.688-127.504-37.71-186.665
		c-24.154-57.107-58.719-108.379-102.733-152.393c-44.014-44.014-95.286-78.578-152.393-102.732
		C627.504,33.186,564.701,20.499,500,20.499s-127.504,12.688-186.665,37.71c-57.107,24.154-108.379,58.718-152.393,102.732
		S82.363,256.227,58.209,313.334C33.187,372.496,20.499,435.299,20.499,500s12.688,127.504,37.71,186.665
		C82.363,743.772,116.928,795.044,160.942,839.058z M500,90.499c226.161,0,409.501,183.34,409.501,409.501
		S726.161,909.501,500,909.501S90.499,726.161,90.499,500S273.839,90.499,500,90.499z"/>
	<path style="fill:#211915;stroke:#000000;stroke-miterlimit:10;" d="M247.052,569.311c15.553,10.663,33.8,16.374,52.822,16.543
		v104.607c0,52.383,42.617,95,95,95h210.253c52.383,0,95-42.617,95-95V585.854c19.021-0.169,37.269-5.881,52.822-16.543
		c14.563-9.984,26.05-23.848,33.221-40.094c7.17-16.245,9.671-34.076,7.233-51.563c-2.644-18.961-10.929-36.534-23.959-50.818
		L570.187,208.393c-17.958-19.687-43.54-30.978-70.187-30.978s-52.229,11.291-70.187,30.978L230.556,426.836
		c-13.03,14.284-21.315,31.857-23.958,50.818c-2.438,17.487,0.063,35.318,7.233,51.563
		C221.001,545.463,232.489,559.327,247.052,569.311z M282.272,474.01L481.53,255.568c4.958-5.435,11.714-8.152,18.47-8.152
		s13.513,2.717,18.47,8.152L717.728,474.01c14.64,16.05,3.253,41.848-18.47,41.848h-44.131c-13.807,0-25,11.193-25,25v149.603
		c0,13.807-11.193,25-25,25H394.874c-13.807,0-25-11.193-25-25V540.858c0-13.807-11.193-25-25-25h-44.131
		C279.019,515.858,267.632,490.06,282.272,474.01z"/>
</g>
</svg>
