<?xml version="1.0" encoding="iso-8859-1"?>
<!-- Generator: Adobe Illustrator 18.0.0, SVG Export Plug-In . SVG Version: 6.00 Build 0)  -->
<!DOCTYPE svg PUBLIC "-//W3C//DTD SVG 1.1//EN" "http://www.w3.org/Graphics/SVG/1.1/DTD/svg11.dtd">
<svg version="1.1" id="Capa_1" xmlns="http://www.w3.org/2000/svg" xmlns:xlink="http://www.w3.org/1999/xlink" x="0px" y="0px"
	 viewBox="0 0 1000 1000" style="enable-background:new 0 0 1000 1000;" xml:space="preserve">
<g>
	<path style="fill:#211915;stroke:#000000;stroke-miterlimit:10;" d="M161.219,839.058c44.014,44.014,95.286,78.578,152.393,102.733
		c59.161,25.023,121.964,37.71,186.665,37.71s127.504-12.688,186.665-37.71c57.107-24.154,108.379-58.718,152.393-102.733
		c44.014-44.014,78.578-95.286,102.732-152.393c25.023-59.161,37.71-121.964,37.71-186.665s-12.687-127.504-37.71-186.665
		c-24.154-57.107-58.718-108.379-102.732-152.393S744.049,82.364,686.942,58.209c-59.161-25.023-121.964-37.71-186.665-37.71
		s-127.504,12.688-186.665,37.71c-57.107,24.154-108.379,58.718-152.393,102.733c-44.014,44.014-78.578,95.286-102.732,152.393
		C33.463,372.496,20.776,435.299,20.776,500s12.688,127.504,37.71,186.665C82.64,743.772,117.204,795.044,161.219,839.058z
		 M500.277,90.499c226.161,0,409.501,183.34,409.501,409.501s-183.34,409.501-409.501,409.501S90.776,726.161,90.776,500
		S274.116,90.499,500.277,90.499z"/>
	<path style="fill:#211915;stroke:#000000;stroke-miterlimit:10;" d="M243.772,649.223c15.79,10.825,34.356,16.547,53.691,16.547
		h405.073c19.335,0,37.901-5.722,53.691-16.547c14.562-9.984,26.05-23.848,33.22-40.093c7.17-16.245,9.672-34.076,7.234-51.563
		c-2.643-18.961-10.928-36.534-23.958-50.819L570.186,284.711c-17.957-19.687-43.539-30.978-70.186-30.978
		s-52.228,11.291-70.186,30.978L227.277,506.748c-13.03,14.284-21.315,31.857-23.958,50.818
		c-2.438,17.487,0.063,35.318,7.233,51.563C217.723,625.375,229.21,639.24,243.772,649.223z M278.994,553.923L481.53,331.886
		c4.957-5.435,11.714-8.152,18.47-8.152s13.513,2.717,18.47,8.152l202.536,222.037c14.64,16.049,3.253,41.848-18.47,41.848H297.464
		C275.74,595.771,264.354,569.972,278.994,553.923z"/>
</g>
</svg>
