<?xml version="1.0" encoding="iso-8859-1"?>
<!-- Generator: Adobe Illustrator 18.0.0, SVG Export Plug-In . SVG Version: 6.00 Build 0)  -->
<!DOCTYPE svg PUBLIC "-//W3C//DTD SVG 1.1//EN" "http://www.w3.org/Graphics/SVG/1.1/DTD/svg11.dtd">
<svg version="1.1" id="Capa_1" xmlns="http://www.w3.org/2000/svg" xmlns:xlink="http://www.w3.org/1999/xlink" x="0px" y="0px"
	 viewBox="0 0 1000 1000" style="enable-background:new 0 0 1000 1000;" xml:space="preserve">
<path style="fill:#211915;stroke:#000000;stroke-miterlimit:10;" d="M69.652,717.64c20.731,20.809,44.901,37.182,71.837,48.665
	c27.997,11.936,57.617,17.987,88.036,17.987h533.538c31.183,0,61.527-6.205,90.193-18.442c27.596-11.781,52.338-28.583,73.54-49.938
	c20.952-21.103,37.378-45.587,48.82-72.771c11.954-28.4,17.903-58.44,17.682-89.287c-0.181-25.172-4.443-49.916-12.668-73.542
	c-7.955-22.851-19.458-44.217-34.188-63.504c-14.547-19.047-31.904-35.631-51.592-49.289c-9.248-6.416-18.913-12.118-28.933-17.076
	c0.246-4.617,0.37-9.238,0.37-13.857c0-35.14-6.897-69.266-20.502-101.429c-13.125-31.031-31.9-58.886-55.804-82.789
	s-51.758-42.678-82.789-55.803c-32.163-13.604-66.289-20.502-101.429-20.502c-44.005,0-87.527,11.203-125.862,32.397
	c-24.804,13.713-47.282,31.499-66.401,52.397c-25.763-10.917-53.434-17.005-81.699-17.843c-2.216-0.066-4.47-0.1-6.698-0.1
	c-30.269-0.002-59.77,5.979-87.69,17.78c-26.816,11.334-50.975,27.513-71.803,48.087c-20.869,20.616-37.354,44.618-48.994,71.337
	c-12.147,27.884-18.443,57.444-18.713,87.858c-0.031,3.479,0.019,6.962,0.146,10.441c-23.959,17.123-44.425,38.879-60.086,64.056
	C16.1,477.626,4.461,518.159,4.307,559.691c-0.112,30.084,5.791,59.377,17.545,87.066C33.092,673.237,49.174,697.085,69.652,717.64z
	 M157.128,424.094c9.647-5.025,15.123-15.655,13.213-26.363c-1.686-9.446-2.527-19.184-2.439-29.134
	c0.76-85.793,71.922-155.689,157.19-155.682c1.537,0,3.091,0.023,4.636,0.069c30.292,0.898,58.416,10.39,82.052,26.103
	c4.314,2.868,9.201,4.253,14.021,4.253c7.995,0,15.807-3.812,20.514-11c34.022-51.949,92.716-86.277,159.451-86.277
	c105.224,0,190.523,85.299,190.523,190.523c0,13.014-1.324,25.714-3.824,37.987c-2.562,12.578,4.95,25.101,17.258,28.748
	c65.313,19.354,113.064,79.563,113.578,151.036c0.632,87.962-72.273,159.935-160.237,159.935H229.525
	c-84.889,0-155.535-69.453-155.22-154.34C74.525,500.868,108.073,449.646,157.128,424.094z"/>
<path style="fill:#211915;stroke:#000000;stroke-miterlimit:10;" d="M350.114,601.753c15.79,10.825,34.356,16.547,53.691,16.547
	h192.389c19.335,0,37.901-5.722,53.691-16.547c14.562-9.984,26.05-23.848,33.22-40.093c7.17-16.246,9.672-34.076,7.234-51.563
	c-2.644-18.961-10.928-36.534-23.958-50.818l-96.196-105.457c-17.954-19.686-43.537-30.978-70.186-30.978
	s-52.23,11.292-70.188,30.98l-96.192,105.454c-13.031,14.285-21.315,31.858-23.959,50.819c-2.438,17.487,0.064,35.317,7.234,51.563
	C324.064,577.905,335.552,591.77,350.114,601.753z M385.335,506.453l96.195-105.457c4.957-5.435,11.713-8.152,18.47-8.152
	s13.513,2.717,18.47,8.152l96.195,105.457c14.64,16.049,3.253,41.848-18.471,41.848H403.806
	C382.082,548.3,370.695,522.502,385.335,506.453z"/>
</svg>
