<?xml version="1.0" encoding="iso-8859-1"?>
<!-- Generator: Adobe Illustrator 18.0.0, SVG Export Plug-In . SVG Version: 6.00 Build 0)  -->
<!DOCTYPE svg PUBLIC "-//W3C//DTD SVG 1.1//EN" "http://www.w3.org/Graphics/SVG/1.1/DTD/svg11.dtd">
<svg version="1.1" id="Capa_1" xmlns="http://www.w3.org/2000/svg" xmlns:xlink="http://www.w3.org/1999/xlink" x="0px" y="0px"
	 viewBox="0 0 1000 1000" style="enable-background:new 0 0 1000 1000;" xml:space="preserve">
<g>
	<path style="fill:#211915;stroke:#000000;stroke-miterlimit:10;" d="M112.282,733.449h263.257c2.213,0.418,4.442,0.767,6.689,1.027
		v113.411c0,51.888,42.214,94.102,94.102,94.102h48.327c51.888,0,94.102-42.214,94.102-94.102v-113.27
		c2.695-0.274,5.368-0.668,8.014-1.168h261.223c52.383,0,95-42.617,95-95v-531.95c0-52.383-42.617-95-95-95H112.282
		c-52.383,0-95,42.617-95,95v531.95C17.282,690.832,59.899,733.449,112.282,733.449z M548.759,689.208v44.24v114.438
		c0,13.311-10.79,24.102-24.102,24.102H476.33c-13.311,0-24.102-10.791-24.102-24.102V733.449v-44.24
		c0-13.311-10.791-24.102-24.102-24.102h-34.921c-3.22,0-6.209-0.597-8.912-1.658c-14.32-5.619-20.554-24.359-9.816-37.614
		l112.626-139.04c0.452-0.558,0.912-1.11,1.428-1.61c3.327-3.225,7.645-4.838,11.963-4.838c4.338,0,8.678,1.628,12.011,4.885
		c0.48,0.47,0.915,0.987,1.341,1.507L627.724,625.73c10.849,13.242,4.637,32.081-9.728,37.719c-2.704,1.061-5.694,1.658-8.916,1.658
		h-36.219C559.55,665.107,548.759,675.897,548.759,689.208z M912.995,638.449c0,13.807-11.193,25-25,25H700.477
		c2.57-10.41,3.36-21.209,2.281-31.934c-1.85-18.386-9.072-35.727-20.887-50.147L567.993,442.375
		c-1.379-1.683-3.577-4.286-6.537-7.181c-16.411-16.033-38.048-24.846-60.959-24.847c-22.787-0.001-44.342,8.728-60.692,24.581
		c-3.196,3.097-5.567,5.923-7.071,7.777l-112.65,139.069c-11.701,14.444-18.821,31.775-20.593,50.117
		c-1.023,10.601-0.225,21.271,2.315,31.557H112.282c-13.808,0-25-11.193-25-25V303.577h825.713V638.449z M87.282,106.499
		c0-13.807,11.192-25,25-25h775.713c13.807,0,25,11.193,25,25v127.078H87.282V106.499z"/>
	<circle style="fill:#211915;stroke:#000000;stroke-miterlimit:10;" cx="840.139" cy="157.449" r="34.667"/>
	<circle style="fill:#211915;stroke:#000000;stroke-miterlimit:10;" cx="736.805" cy="157.449" r="34.667"/>
	<circle style="fill:#211915;stroke:#000000;stroke-miterlimit:10;" cx="633.472" cy="157.449" r="34.667"/>
</g>
</svg>
