<?xml version="1.0" encoding="iso-8859-1"?>
<!-- Generator: Adobe Illustrator 18.0.0, SVG Export Plug-In . SVG Version: 6.00 Build 0)  -->
<!DOCTYPE svg PUBLIC "-//W3C//DTD SVG 1.1//EN" "http://www.w3.org/Graphics/SVG/1.1/DTD/svg11.dtd">
<svg version="1.1" id="Capa_1" xmlns="http://www.w3.org/2000/svg" xmlns:xlink="http://www.w3.org/1999/xlink" x="0px" y="0px"
	 viewBox="0 0 1000 1000" style="enable-background:new 0 0 1000 1000;" xml:space="preserve">
<g>
	<path style="fill:#211915;stroke:#000000;stroke-miterlimit:10;" d="M895.703,139.039h-99.504V100.98c0-52.383-42.617-95-95-95
		H100.858c-52.383,0-95,42.617-95,95v660.04c0,52.383,42.617,95,95,95h99.504v38.059c0,52.383,42.617,95,95,95h600.341
		c52.383,0,95-42.617,95-95v-660.04C990.703,181.656,948.086,139.039,895.703,139.039z M270.362,894.079V856.02v-67.68h521.827
		h128.514v105.739c0,13.807-11.193,25-25,25H295.362C281.554,919.079,270.362,907.886,270.362,894.079z M920.703,718.34H796.199h-70
		H270.362v-63.059v-70V234.039c0-13.807,11.193-25,25-25h430.837h70h99.504c13.807,0,25,11.193,25,25V718.34z M75.858,100.98
		c0-13.807,11.193-25,25-25h600.341c13.807,0,25,11.193,25,25v38.059H295.362c-52.383,0-95,42.617-95,95v351.242H75.858V100.98z
		 M100.858,786.021c-13.807,0-25-11.193-25-25v-105.74h124.504V786.02L100.858,786.021L100.858,786.021z"/>
	<path style="fill:#211915;stroke:#000000;stroke-miterlimit:10;" d="M726.199,489.331c-5.818-6.412-12.163-12.366-18.982-17.773
		c-2.507-1.987-5.068-3.893-7.677-5.72c9.581-10.455,17.232-22.356,22.772-35.455c1.461-3.455,2.752-6.959,3.888-10.502
		c3.91-12.193,5.896-24.874,5.896-37.834c0-12.961-1.985-25.641-5.896-37.835c-1.136-3.542-2.426-7.046-3.887-10.501
		c-6.255-14.789-15.195-28.056-26.572-39.433c-11.377-11.376-24.644-20.316-39.432-26.571c-15.347-6.492-31.61-9.783-48.336-9.783
		s-32.988,3.291-48.336,9.783c-14.789,6.255-28.056,15.195-39.432,26.571c-11.377,11.377-20.317,24.644-26.572,39.433
		c-6.491,15.348-9.783,31.61-9.783,48.336s3.292,32.988,9.783,48.336c5.54,13.099,13.191,25.001,22.772,35.455
		c-2.609,1.827-5.17,3.732-7.677,5.72c-27.597,21.88-47.445,52.693-55.887,86.765c-2.22,8.959-3.001,18.038-2.409,26.959
		c1.145,17.241,7.428,33.893,18.427,47.949c6.951,8.884,15.692,16.438,25.478,22.051c1.392,0.798,2.804,1.558,4.235,2.275
		c12.099,6.068,25.668,9.276,39.24,9.276h140.322c13.572,0,27.141-3.208,39.24-9.276c1.432-0.718,2.844-1.478,4.235-2.275
		c1.559-0.895,3.088-1.842,4.591-2.832c4.515-2.976,8.765-6.369,12.665-10.121c2.951-2.84,5.705-5.881,8.222-9.098
		c16.69-21.33,22.528-48.633,16.018-74.908C756.748,532.671,743.924,508.867,726.199,489.331z M607.972,327.924
		c29.891,0,54.123,24.231,54.123,54.123c0,29.891-24.231,54.122-54.123,54.122s-54.123-24.231-54.123-54.122
		C553.849,352.155,578.081,327.924,607.972,327.924z M520.785,575.158c9.697-39.135,45.054-68.145,87.187-68.145
		s77.49,29.01,87.187,68.145c0.874,3.525,0.604,7.01-0.532,10.123c-2.416,6.621-8.769,11.552-16.494,11.552H537.811
		c-7.725,0-14.078-4.931-16.494-11.552C520.181,582.168,519.912,578.684,520.785,575.158z"/>
</g>
</svg>
