<?xml version="1.0" encoding="iso-8859-1"?>
<!-- Generator: Adobe Illustrator 18.0.0, SVG Export Plug-In . SVG Version: 6.00 Build 0)  -->
<!DOCTYPE svg PUBLIC "-//W3C//DTD SVG 1.1//EN" "http://www.w3.org/Graphics/SVG/1.1/DTD/svg11.dtd">
<svg version="1.1" id="Capa_1" xmlns="http://www.w3.org/2000/svg" xmlns:xlink="http://www.w3.org/1999/xlink" x="0px" y="0px"
	 viewBox="0 0 1000 1000" style="enable-background:new 0 0 1000 1000;" xml:space="preserve">
<g>
	<circle style="fill:#211915;stroke:#000000;stroke-miterlimit:10;" cx="838.941" cy="169.681" r="34.667"/>
	<circle style="fill:#211915;stroke:#000000;stroke-miterlimit:10;" cx="735.608" cy="169.681" r="34.667"/>
	<circle style="fill:#211915;stroke:#000000;stroke-miterlimit:10;" cx="632.275" cy="169.681" r="34.667"/>
	<path style="fill:#211915;stroke:#000000;stroke-miterlimit:10;" d="M112.144,968.936h775.713c52.383,0,95-42.617,95-95V126.064
		c0-52.383-42.617-95-95-95H112.144c-52.383,0-95,42.617-95,95v747.872C17.144,926.319,59.761,968.936,112.144,968.936z
		 M912.856,873.936c0,13.807-11.192,25-25,25H112.144c-13.808,0-25-11.193-25-25V303.064h825.713L912.856,873.936L912.856,873.936z
		 M87.144,126.064c0-13.807,11.192-25,25-25h775.713c13.808,0,25,11.193,25,25v107H87.144V126.064z"/>
	<path style="fill:#211915;stroke:#000000;stroke-miterlimit:10;" d="M404.028,744.175c6.564,6.563,15.466,10.251,24.749,10.251
		s18.185-3.688,24.749-10.251L715.44,482.26c13.668-13.669,13.668-35.829,0-49.498c-13.668-13.668-35.829-13.668-49.498,0
		L428.777,669.929l-94.869-94.87c-13.668-13.668-35.829-13.668-49.498,0c-13.668,13.669-13.668,35.829,0,49.498L404.028,744.175z"/>
</g>
</svg>
