<?xml version="1.0" encoding="iso-8859-1"?>
<!-- Generator: Adobe Illustrator 18.0.0, SVG Export Plug-In . SVG Version: 6.00 Build 0)  -->
<!DOCTYPE svg PUBLIC "-//W3C//DTD SVG 1.1//EN" "http://www.w3.org/Graphics/SVG/1.1/DTD/svg11.dtd">
<svg version="1.1" id="Capa_1" xmlns="http://www.w3.org/2000/svg" xmlns:xlink="http://www.w3.org/1999/xlink" x="0px" y="0px"
	 viewBox="0 0 1000 1000" style="enable-background:new 0 0 1000 1000;" xml:space="preserve">
<path style="stroke:#000000;stroke-miterlimit:10;" d="M975.78,346.19c7.734-19.071,11.655-39.203,11.655-59.835
	s-3.921-40.763-11.655-59.835c-8.022-19.781-19.779-37.501-34.945-52.667c-15.167-15.167-32.887-26.924-52.668-34.945
	c-19.072-7.734-39.203-11.655-59.834-11.655s-40.763,3.921-59.834,11.655c-19.781,8.022-37.501,19.778-52.667,34.944
	L362.196,527.488l-72.849-72.849c-15.167-15.166-32.887-26.923-52.668-34.945c-19.071-7.734-39.203-11.655-59.834-11.655
	s-40.763,3.921-59.834,11.655c-19.781,8.022-37.501,19.778-52.667,34.944c-15.167,15.167-26.924,32.888-34.946,52.669
	c-7.734,19.071-11.655,39.203-11.655,59.834c0,20.632,3.921,40.763,11.655,59.835c8.022,19.782,19.779,37.502,34.945,52.667
	l185.352,185.352c15.167,15.166,32.886,26.923,52.667,34.945c19.072,7.734,39.203,11.655,59.835,11.655s40.763-3.921,59.835-11.655
	c19.781-8.022,37.501-19.779,52.667-34.944l466.137-466.138C956.001,383.692,967.758,365.972,975.78,346.19z M891.337,349.36
	L425.201,815.498c-17.399,17.398-40.201,26.097-63.005,26.097s-45.606-8.699-63.005-26.097L113.84,630.146
	c-34.796-34.797-34.796-91.213,0-126.01c17.399-17.398,40.202-26.097,63.005-26.097s45.606,8.699,63.005,26.097l104.668,104.669
	c4.882,4.882,11.28,7.323,17.678,7.323s12.796-2.441,17.678-7.323l385.454-385.454c17.399-17.398,40.202-26.097,63.005-26.097
	s45.606,8.699,63.005,26.097C926.134,258.147,926.134,314.564,891.337,349.36z"/>
</svg>
