<?xml version="1.0" encoding="iso-8859-1"?>
<!-- Generator: Adobe Illustrator 18.0.0, SVG Export Plug-In . SVG Version: 6.00 Build 0)  -->
<!DOCTYPE svg PUBLIC "-//W3C//DTD SVG 1.1//EN" "http://www.w3.org/Graphics/SVG/1.1/DTD/svg11.dtd">
<svg version="1.1" id="Capa_1" xmlns="http://www.w3.org/2000/svg" xmlns:xlink="http://www.w3.org/1999/xlink" x="0px" y="0px"
	 viewBox="0 0 1000 1000" style="enable-background:new 0 0 1000 1000;" xml:space="preserve">
<path style="stroke:#000000;stroke-miterlimit:10;" d="M870.913,348.586c-33.932-27.455-70.928-51.148-109.96-70.422
	c-39.771-19.639-81.804-34.759-124.931-44.94c-44.331-10.465-90.096-15.771-136.022-15.771s-91.691,5.306-136.022,15.771
	c-43.127,10.181-85.16,25.301-124.931,44.94c-39.032,19.274-76.028,42.967-109.96,70.422
	c-33.713,27.277-64.478,58.327-91.441,92.287C24.347,457.623,17.024,478.621,17.024,500c0,21.379,7.323,42.378,20.621,59.126
	c26.964,33.96,57.729,65.01,91.442,92.287c33.932,27.455,70.928,51.148,109.96,70.422c39.771,19.639,81.804,34.759,124.931,44.94
	c44.331,10.465,90.096,15.771,136.022,15.771s91.691-5.306,136.022-15.771c43.127-10.181,85.16-25.301,124.931-44.94
	c39.032-19.274,76.028-42.968,109.96-70.422c33.713-27.277,64.478-58.327,91.442-92.287c13.297-16.748,20.621-37.747,20.621-59.126
	c0-21.38-7.324-42.378-20.622-59.127C935.391,406.913,904.625,375.863,870.913,348.586z M907.532,515.6
	c-46.387,58.425-105.074,106.64-172.142,140.743c9.697-14.58,18.035-30.052,24.924-46.341
	c14.752-34.879,22.233-71.889,22.233-110.002s-7.48-75.123-22.233-110.002c-6.889-16.288-15.228-31.761-24.924-46.341
	c67.068,34.103,125.755,82.318,172.142,140.742C914.79,493.541,914.79,506.459,907.532,515.6z M92.467,484.4
	c46.387-58.424,105.074-106.639,172.142-140.742c-9.697,14.58-18.035,30.052-24.924,46.341
	c-14.752,34.879-22.233,71.889-22.233,110.002s7.48,75.123,22.233,110.002c6.889,16.288,15.227,31.761,24.924,46.34
	C197.541,622.239,138.854,574.024,92.467,515.6C85.21,506.459,85.21,493.541,92.467,484.4z M500,712.547
	c-117.387,0-212.547-95.161-212.547-212.547S382.613,287.453,500,287.453S712.547,382.614,712.547,500S617.387,712.547,500,712.547z
	"/>
<path style="stroke:#000000;stroke-miterlimit:10;" d="M585.361,414.639c-11.064-11.064-23.967-19.759-38.351-25.843
	c-14.928-6.314-30.745-9.515-47.011-9.515s-32.083,3.201-47.011,9.515c-14.384,6.084-27.287,14.778-38.351,25.842
	c-11.064,11.064-19.759,23.967-25.842,38.351c-6.314,14.928-9.515,30.745-9.515,47.011c0,16.266,3.201,32.083,9.515,47.011
	c6.084,14.383,14.778,27.286,25.842,38.351c11.064,11.064,23.967,19.759,38.351,25.842c14.928,6.314,30.745,9.515,47.011,9.515
	s32.083-3.201,47.011-9.515c14.384-6.084,27.287-14.778,38.351-25.843c11.064-11.064,19.759-23.967,25.842-38.351
	c6.314-14.928,9.516-30.745,9.516-47.011s-3.202-32.083-9.516-47.011C605.12,438.606,596.425,425.703,585.361,414.639z M500,550.719
	c-28.011,0-50.719-22.708-50.719-50.719s22.708-50.719,50.719-50.719s50.719,22.708,50.719,50.719S528.011,550.719,500,550.719z"/>
</svg>
