<?xml version="1.0" encoding="iso-8859-1"?>
<!-- Generator: Adobe Illustrator 18.0.0, SVG Export Plug-In . SVG Version: 6.00 Build 0)  -->
<!DOCTYPE svg PUBLIC "-//W3C//DTD SVG 1.1//EN" "http://www.w3.org/Graphics/SVG/1.1/DTD/svg11.dtd">
<svg version="1.1" id="Capa_1" xmlns="http://www.w3.org/2000/svg" xmlns:xlink="http://www.w3.org/1999/xlink" x="0px" y="0px"
	 viewBox="0 0 1000 1000" style="enable-background:new 0 0 1000 1000;" xml:space="preserve">
<path style="fill:#211915;stroke:#000000;stroke-miterlimit:10;" d="M366.242,610.459c15.957,15.957,34.558,28.494,55.286,37.261
	c21.497,9.092,44.291,13.703,67.75,13.703h21.443c23.459,0,46.254-4.61,67.75-13.703c20.728-8.767,39.329-21.304,55.286-37.261
	c15.957-15.957,28.494-34.558,37.261-55.286c9.092-21.497,13.703-44.291,13.703-67.75V188c0-23.459-4.61-46.253-13.703-67.75
	c-8.767-20.728-21.304-39.329-37.261-55.286C617.801,49.006,599.2,36.47,578.472,27.703C556.975,18.61,534.181,14,510.722,14
	h-21.443c-23.459,0-46.253,4.61-67.75,13.703c-20.728,8.767-39.329,21.304-55.286,37.261s-28.494,34.558-37.261,55.286
	c-9.092,21.497-13.703,44.291-13.703,67.75v299.423c0,23.459,4.61,46.254,13.703,67.75
	C337.748,575.901,350.284,594.502,366.242,610.459z M385.278,188c0-57.437,46.562-104,104-104h21.443c57.438,0,104,46.562,104,104
	v299.423c0,57.438-46.562,104-104,104h-21.443c-57.438,0-104-46.562-104-104V188z"/>
<path style="fill:#211915;stroke:#000000;stroke-miterlimit:10;" d="M626.989,770.121c38.85-16.432,73.733-39.949,103.681-69.896
	c29.948-29.948,53.464-64.831,69.896-103.681c17.02-40.24,25.65-82.965,25.65-126.989v-21.006c0-19.33-15.67-35-35-35
	s-35,15.67-35,35v21.006c0,68.438-26.651,132.779-75.044,181.172C632.78,699.12,568.438,725.771,500,725.771
	s-132.78-26.651-181.172-75.044c-48.393-48.393-75.044-112.734-75.044-181.172v-21.006c0-19.33-15.67-35-35-35s-35,15.67-35,35
	v21.006c0,44.023,8.63,86.749,25.65,126.989c16.432,38.85,39.948,73.733,69.896,103.681s64.831,53.464,103.681,69.896
	c29.483,12.47,60.304,20.416,91.989,23.784V905h-79.721c-19.33,0-35,15.67-35,35s15.67,35,35,35H500h114.721c19.33,0,35-15.67,35-35
	s-15.67-35-35-35H535V793.905C566.685,790.537,597.506,782.591,626.989,770.121z"/>
</svg>
