<?xml version="1.0" encoding="iso-8859-1"?>
<!-- Generator: Adobe Illustrator 18.0.0, SVG Export Plug-In . SVG Version: 6.00 Build 0)  -->
<!DOCTYPE svg PUBLIC "-//W3C//DTD SVG 1.1//EN" "http://www.w3.org/Graphics/SVG/1.1/DTD/svg11.dtd">
<svg version="1.1" id="Capa_1" xmlns="http://www.w3.org/2000/svg" xmlns:xlink="http://www.w3.org/1999/xlink" x="0px" y="0px"
	 viewBox="0 0 1000 1000" style="enable-background:new 0 0 1000 1000;" xml:space="preserve">
<path style="stroke:#000000;stroke-miterlimit:10;" d="M418.362,655.292c0.401,0.401,0.81,0.793,1.216,1.188
	c-19.959,20.822-30.923,48.069-30.923,77.002c0,29.741,11.582,57.703,32.612,78.733c21.031,21.03,48.992,32.612,78.733,32.612
	c29.741,0,57.703-11.582,78.733-32.612c21.03-21.031,32.612-48.992,32.612-78.733c0-28.934-10.964-56.181-30.923-77.002
	c0.406-0.395,0.815-0.786,1.216-1.188c10.581-10.58,18.896-22.92,24.714-36.677c6.039-14.279,9.102-29.406,9.102-44.961V270.626
	c0-15.555-3.062-30.683-9.102-44.961c-5.818-13.757-14.133-26.097-24.714-36.677s-22.92-18.896-36.677-24.714
	c-14.279-6.04-29.406-9.102-44.961-9.102s-30.683,3.062-44.961,9.102c-13.757,5.818-26.096,14.133-36.677,24.714
	s-18.896,22.92-24.714,36.677c-6.04,14.279-9.102,29.406-9.102,44.961v303.028c0,15.555,3.062,30.683,9.102,44.961
	C399.466,632.372,407.781,644.712,418.362,655.292z M500,774.828c-22.834,0-41.345-18.511-41.345-41.345
	s18.511-41.345,41.345-41.345c22.834,0,41.345,18.511,41.345,41.345S522.834,774.828,500,774.828z M454.546,270.626
	c0-25.104,20.35-45.454,45.454-45.454s45.454,20.35,45.454,45.454v303.028c0,25.104-20.35,45.454-45.454,45.454
	s-45.454-20.35-45.454-45.454L454.546,270.626L454.546,270.626z"/>
<path style="stroke:#000000;stroke-miterlimit:10;" d="M312.362,944.093C371.831,969.247,434.961,982,500,982
	s128.169-12.753,187.638-37.907c57.405-24.28,108.944-59.024,153.188-103.268s78.988-95.783,103.268-153.188
	C969.247,628.169,982,565.039,982,500s-12.753-128.169-37.907-187.638c-24.28-57.405-59.024-108.944-103.268-153.188
	S745.042,80.187,687.638,55.907C628.169,30.754,565.039,18,500,18S371.831,30.754,312.362,55.907
	c-57.405,24.28-108.944,59.024-153.188,103.268S80.187,254.958,55.907,312.362C30.754,371.831,18,434.961,18,500
	s12.754,128.169,37.907,187.638c24.28,57.405,59.024,108.944,103.268,153.188S254.958,919.813,312.362,944.093z M500,88
	c227.542,0,412,184.458,412,412S727.542,912,500,912S88,727.542,88,500S272.458,88,500,88z"/>
</svg>
