<?xml version="1.0" encoding="iso-8859-1"?>
<!-- Generator: Adobe Illustrator 18.0.0, SVG Export Plug-In . SVG Version: 6.00 Build 0)  -->
<!DOCTYPE svg PUBLIC "-//W3C//DTD SVG 1.1//EN" "http://www.w3.org/Graphics/SVG/1.1/DTD/svg11.dtd">
<svg version="1.1" id="Capa_1" xmlns="http://www.w3.org/2000/svg" xmlns:xlink="http://www.w3.org/1999/xlink" x="0px" y="0px"
	 viewBox="0 0 1000 1000" style="enable-background:new 0 0 1000 1000;" xml:space="preserve">
<path style="stroke:#000000;stroke-miterlimit:10;" d="M954.22,345.452L652.548,43.78c-37.04-37.04-97.31-37.04-134.35,0
	l-37.021,37.021c-23.37,23.37-31.995,55.99-25.875,86.185L48.483,634.489c-15.848,18.212-24.114,41.528-23.278,65.654
	s10.698,46.813,27.768,63.883l181.001,181.001c17.07,17.07,39.757,26.932,63.883,27.768s47.442-7.43,65.653-23.277l467.504-406.819
	c30.194,6.12,62.814-2.505,86.185-25.875l37.021-37.021C991.26,442.762,991.26,382.493,954.22,345.452z M867.701,467.326
	c-9.763,9.763-25.592,9.763-35.355,0l-9.934-9.934l-504.853,439.32c-9.909,8.622-24.8,8.105-34.088-1.183l-181-181
	c-9.288-9.288-9.805-24.179-1.183-34.088l439.32-504.853l-9.934-9.934c-9.763-9.763-9.763-25.593,0-35.355l37.021-37.021
	c9.763-9.763,25.592-9.763,35.355,0L904.722,394.95c9.763,9.763,9.763,25.593,0,35.355L867.701,467.326z"/>
<path style="stroke:#000000;stroke-miterlimit:10;" d="M339,453L186.052,631.824c-15.994,18.199-24.372,41.557-23.592,65.771
	c0.781,24.214,10.644,46.985,27.775,64.117l46.052,46.052c17.131,17.131,39.902,26.995,64.117,27.775
	c24.214,0.78,47.573-7.598,65.77-23.591l277.627-243.986L777,453H339z M319.966,759.369c-9.901,8.701-24.859,8.22-34.181-1.101
	l-54.052-50.052c-9.321-9.321-9.803-24.279-1.101-34.181L372,516l225.591,0.384L319.966,759.369z"/>
</svg>
