<?xml version="1.0" encoding="iso-8859-1"?>
<!-- Generator: Adobe Illustrator 18.0.0, SVG Export Plug-In . SVG Version: 6.00 Build 0)  -->
<!DOCTYPE svg PUBLIC "-//W3C//DTD SVG 1.1//EN" "http://www.w3.org/Graphics/SVG/1.1/DTD/svg11.dtd">
<svg version="1.1" id="Capa_1" xmlns="http://www.w3.org/2000/svg" xmlns:xlink="http://www.w3.org/1999/xlink" x="0px" y="0px"
	 viewBox="0 0 1000 1000" style="enable-background:new 0 0 1000 1000;" xml:space="preserve">
<path style="stroke:#000000;stroke-miterlimit:10;" d="M286.686,41.973c-52.383,0-95,42.617-95,95v52.356
	c0,33.05,16.967,62.214,42.646,79.237l42.91,618.239c1.673,24.085,12.314,46.416,29.965,62.884
	c17.651,16.469,40.667,25.538,64.808,25.538h255.973c24.141,0,47.156-9.069,64.808-25.538c17.65-16.468,28.292-38.799,29.965-62.881
	l42.91-618.242c25.679-17.023,42.646-46.188,42.646-79.237v-52.356c0-52.383-42.617-95-95-95L286.686,41.973L286.686,41.973z
	 M738.314,136.973v52.356c0,13.807-11.193,25-25,25h-14.049l-46.339,667.63c-0.91,13.104-11.805,23.269-24.94,23.269H372.014
	c-13.136,0-24.03-10.165-24.94-23.269l-46.339-667.63h-14.049c-13.807,0-25-11.193-25-25v-52.356c0-13.807,11.193-25,25-25h426.629
	C727.121,111.973,738.314,123.166,738.314,136.973z"/>
<path style="stroke:#000000;stroke-miterlimit:10;" d="M418.7,344.307h-74.66l4.806,74.505l23.788,368.834
	c1.558,24.175,12.149,46.617,29.825,63.189c17.674,16.57,40.75,25.696,64.978,25.696h65.127c24.228,0,47.304-9.126,64.978-25.696
	c17.676-16.572,28.268-39.015,29.826-63.193l23.787-368.83l4.806-74.505H581.3L418.7,344.307L418.7,344.307z M557.512,783.141
	c-0.848,13.154-11.766,23.391-24.948,23.391h-65.127c-13.183,0-24.101-10.236-24.948-23.391L418.7,414.307h162.6L557.512,783.141z"
	/>
</svg>
