<?xml version="1.0" encoding="iso-8859-1"?>
<!-- Generator: Adobe Illustrator 18.0.0, SVG Export Plug-In . SVG Version: 6.00 Build 0)  -->
<!DOCTYPE svg PUBLIC "-//W3C//DTD SVG 1.1//EN" "http://www.w3.org/Graphics/SVG/1.1/DTD/svg11.dtd">
<svg version="1.1" id="Capa_1" xmlns="http://www.w3.org/2000/svg" xmlns:xlink="http://www.w3.org/1999/xlink" x="0px" y="0px"
	 viewBox="0 0 1000 1000" style="enable-background:new 0 0 1000 1000;" xml:space="preserve">
<g>
	<path style="fill:#211915;stroke:#000000;stroke-miterlimit:10;" d="M390.649,638.269h231.342c19.33,0,35-15.67,35-35
		s-15.67-35-35-35H390.649c-19.33,0-35,15.67-35,35S371.319,638.269,390.649,638.269z"/>
	<path style="fill:#211915;stroke:#000000;stroke-miterlimit:10;" d="M180.071,608.317c6.835,6.834,15.792,10.251,24.749,10.251
		s17.915-3.417,24.749-10.251l92.646-92.646c6.879-6.879,10.292-15.911,10.247-24.927c0.046-9.016-3.367-18.047-10.247-24.927
		l-92.646-92.646c-13.669-13.669-35.829-13.668-49.498,0c-13.668,13.668-13.668,35.829,0,49.498l68.076,68.076l-68.076,68.076
		C166.403,572.488,166.403,594.649,180.071,608.317z"/>
	<path style="fill:#211915;stroke:#000000;stroke-miterlimit:10;" d="M18.148,873c0,52.383,42.617,95,95,95h775.713
		c52.383,0,95-42.617,95-95V125.128c0-52.383-42.617-95-95-95H113.148c-52.383,0-95,42.617-95,95
		C18.148,125.128,18.148,873,18.148,873z M913.861,873c0,13.807-11.193,25-25,25H113.148c-13.807,0-25-11.193-25-25V302.128h825.713
		V873z M88.148,125.128c0-13.807,11.193-25,25-25h775.713c13.807,0,25,11.193,25,25v107H88.148V125.128z"/>
</g>
</svg>
