<?xml version="1.0" encoding="iso-8859-1"?>
<!-- Generator: Adobe Illustrator 18.0.0, SVG Export Plug-In . SVG Version: 6.00 Build 0)  -->
<!DOCTYPE svg PUBLIC "-//W3C//DTD SVG 1.1//EN" "http://www.w3.org/Graphics/SVG/1.1/DTD/svg11.dtd">
<svg version="1.1" id="Capa_1" xmlns="http://www.w3.org/2000/svg" xmlns:xlink="http://www.w3.org/1999/xlink" x="0px" y="0px"
	 viewBox="0 0 1000 1000" style="enable-background:new 0 0 1000 1000;" xml:space="preserve">
<g>
	<path style="fill:#211915;stroke:#000000;stroke-miterlimit:10;" d="M898.856,5.152h-155.8c-52.383,0-95,42.617-95,95v798.876
		c0,52.383,42.617,95,95,95h155.801c52.383,0,95-42.617,95-95V100.152C993.856,47.769,951.239,5.152,898.856,5.152z
		 M923.856,899.028c0,13.807-11.192,25-25,25h-155.8c-13.807,0-25-11.193-25-25V100.152c0-13.807,11.193-25,25-25h155.801
		c13.808,0,25,11.193,25,25v798.876H923.856z"/>
	<path style="fill:#211915;stroke:#000000;stroke-miterlimit:10;" d="M8.144,215.953c0,52.383,42.617,95,95,95H521.4
		c52.383,0,95-42.617,95-95V100.152c0-52.383-42.617-95-95-95H103.144c-52.383,0-95,42.617-95,95
		C8.144,100.152,8.144,215.953,8.144,215.953z M78.144,100.152c0-13.807,11.192-25,25-25H521.4c13.808,0,25,11.193,25,25v115.801
		c0,13.807-11.192,25-25,25H103.144c-13.808,0-25-11.193-25-25V100.152z"/>
	<path style="fill:#211915;stroke:#000000;stroke-miterlimit:10;" d="M8.144,557.491c0,52.383,42.617,95,95,95H521.4
		c52.383,0,95-42.617,95-95V441.689c0-52.383-42.617-95-95-95H103.144c-52.383,0-95,42.617-95,95
		C8.144,441.689,8.144,557.491,8.144,557.491z M78.144,441.689c0-13.807,11.192-25,25-25H521.4c13.808,0,25,11.193,25,25V557.49
		c0,13.807-11.192,25-25,25H103.144c-13.808,0-25-11.193-25-25V441.689z"/>
	<path style="fill:#211915;stroke:#000000;stroke-miterlimit:10;" d="M8.144,899.028c0,52.383,42.617,95,95,95H521.4
		c52.383,0,95-42.617,95-95v-115.8c0-52.383-42.617-95-95-95H103.144c-52.383,0-95,42.617-95,95
		C8.144,783.228,8.144,899.028,8.144,899.028z M78.144,783.228c0-13.807,11.192-25,25-25H521.4c13.808,0,25,11.193,25,25v115.801
		c0,13.807-11.192,25-25,25H103.144c-13.808,0-25-11.193-25-25V783.228z"/>
</g>
</svg>
