<?xml version="1.0" encoding="iso-8859-1"?>
<!-- Generator: Adobe Illustrator 18.0.0, SVG Export Plug-In . SVG Version: 6.00 Build 0)  -->
<!DOCTYPE svg PUBLIC "-//W3C//DTD SVG 1.1//EN" "http://www.w3.org/Graphics/SVG/1.1/DTD/svg11.dtd">
<svg version="1.1" id="Capa_1" xmlns="http://www.w3.org/2000/svg" xmlns:xlink="http://www.w3.org/1999/xlink" x="0px" y="0px"
	 viewBox="0 0 1000 1000" style="enable-background:new 0 0 1000 1000;" xml:space="preserve">
<path style="fill:#211915;stroke:#000000;stroke-miterlimit:10;" d="M756.739,221.053C674.982,187.899,588.603,171.089,500,171.089
	S325.018,187.9,243.261,221.053c-84.663,34.332-160.61,84.76-225.732,149.882c-13.668,13.669-13.668,35.829,0,49.498
	c13.668,13.667,35.829,13.668,49.498,0c58.462-58.462,126.606-103.718,202.541-134.511c73.361-29.749,150.89-44.833,230.433-44.833
	s157.072,15.084,230.433,44.833c75.934,30.793,144.078,76.049,202.541,134.511c6.834,6.834,15.792,10.251,24.749,10.251
	c8.958,0,17.915-3.417,24.749-10.251c13.668-13.669,13.668-35.829,0-49.498C917.349,305.812,841.401,255.385,756.739,221.053z"/>
<path style="fill:#211915;stroke:#000000;stroke-miterlimit:10;" d="M839.407,548.999c8.958,0,17.915-3.417,24.749-10.251
	c13.668-13.669,13.668-35.829,0-49.498c-49.15-49.149-106.474-87.211-170.381-113.126C632.066,351.101,566.871,338.412,500,338.412
	S367.934,351.1,306.225,376.124c-63.906,25.915-121.231,63.977-170.38,113.126c-13.668,13.669-13.668,35.829,0,49.498
	c13.667,13.667,35.828,13.668,49.497,0c42.49-42.49,92.011-75.379,147.189-97.755c53.313-21.619,109.658-32.581,167.47-32.581
	c57.811,0,114.156,10.962,167.469,32.581c55.178,22.376,104.7,55.265,147.189,97.755
	C821.493,545.582,830.45,548.999,839.407,548.999z"/>
<path style="fill:#211915;stroke:#000000;stroke-miterlimit:10;" d="M730.49,674.753c8.958,0,17.915-3.417,24.749-10.251
	c13.668-13.669,13.668-35.829,0-49.498c-34.446-34.445-74.626-61.123-119.426-79.29c-43.253-17.539-88.947-26.433-135.812-26.433
	s-92.559,8.894-135.812,26.433c-44.799,18.167-84.98,44.845-119.426,79.29c-13.668,13.669-13.668,35.829,0,49.498
	c13.667,13.667,35.828,13.668,49.497,0c54.956-54.956,128.022-85.221,205.741-85.221s150.786,30.265,205.741,85.221
	C712.575,671.336,721.533,674.753,730.49,674.753z"/>
<path style="fill:#211915;stroke:#000000;stroke-miterlimit:10;" d="M548.542,688.437c-15.476-6.276-31.808-9.458-48.542-9.458
	s-33.066,3.182-48.542,9.458c-16.059,6.512-30.439,16.051-42.74,28.353s-21.84,26.681-28.353,42.741
	c-6.276,15.476-9.458,31.808-9.458,48.542s3.182,33.066,9.458,48.542c6.512,16.06,16.051,30.439,28.353,42.741
	s26.681,21.84,42.741,28.353c15.476,6.276,31.808,9.458,48.542,9.458s33.066-3.182,48.542-9.458
	c16.06-6.512,30.439-16.051,42.741-28.353s21.84-26.681,28.353-42.741c6.276-15.476,9.458-31.808,9.458-48.542
	s-3.182-33.066-9.458-48.542c-6.512-16.06-16.051-30.439-28.353-42.741S564.602,694.949,548.542,688.437z M541.785,849.857
	c-11.539,11.539-26.662,17.308-41.785,17.308s-30.247-5.77-41.785-17.308c-23.077-23.077-23.077-60.493,0-83.57
	c11.539-11.539,26.662-17.308,41.785-17.308s30.247,5.77,41.785,17.308C564.862,789.364,564.862,826.78,541.785,849.857z"/>
</svg>
