<?xml version="1.0" encoding="iso-8859-1"?>
<!-- Generator: Adobe Illustrator 18.0.0, SVG Export Plug-In . SVG Version: 6.00 Build 0)  -->
<!DOCTYPE svg PUBLIC "-//W3C//DTD SVG 1.1//EN" "http://www.w3.org/Graphics/SVG/1.1/DTD/svg11.dtd">
<svg version="1.1" id="Capa_1" xmlns="http://www.w3.org/2000/svg" xmlns:xlink="http://www.w3.org/1999/xlink" x="0px" y="0px"
	 viewBox="0 0 1000 1000" style="enable-background:new 0 0 1000 1000;" xml:space="preserve">
<g>
	<path style="fill:#211915;stroke:#000000;stroke-miterlimit:10;" d="M112.144,734.253H302.59
		c-3.256,11.336-4.375,23.207-3.237,34.995c1.771,18.342,8.892,35.673,20.592,50.118l112.626,139.04
		c1.495,1.847,3.866,4.676,7.093,7.804c16.351,15.853,37.904,24.583,60.691,24.583c22.912,0,44.55-8.812,60.928-24.814
		c2.962-2.895,5.16-5.494,6.558-7.198l113.891-139.008c11.815-14.421,19.038-31.762,20.887-50.147
		c1.198-11.912,0.087-23.914-3.205-35.373h188.441c52.383,0,95-42.617,95-95v-531.95c0-52.383-42.617-95-95-95H112.144
		c-52.383,0-95,42.617-95,95v531.95C17.144,691.636,59.761,734.253,112.144,734.253z M572.723,736.033h36.219
		c20.34,0,31.534,23.643,18.644,39.376L513.708,914.401c-0.426,0.52-0.86,1.037-1.341,1.507c-3.333,3.256-7.672,4.885-12.011,4.885
		c-4.318,0-8.636-1.612-11.962-4.838c-0.515-0.5-0.976-1.052-1.428-1.61L374.34,775.305c-12.764-15.756-1.55-39.272,18.728-39.272
		h34.921c3.218,0,6.287-0.636,9.093-1.78c8.802-3.59,15.008-12.229,15.008-22.321v-47.679v-111
		c0-13.311,10.791-24.102,24.102-24.102h48.328c13.311,0,24.102,10.791,24.102,24.102v111v47.679
		c0,10.093,6.206,18.732,15.008,22.321C566.436,735.397,569.504,736.033,572.723,736.033z M912.856,639.253
		c0,13.807-11.193,25-25,25H618.621v-111c0-51.888-42.214-94.102-94.102-94.102h-48.328c-51.888,0-94.102,42.214-94.102,94.102v111
		H112.144c-13.807,0-25-11.193-25-25V304.381h825.713L912.856,639.253L912.856,639.253z M87.144,107.302c0-13.807,11.193-25,25-25
		h775.713c13.807,0,25,11.193,25,25V234.38H87.144V107.302z"/>
	<circle style="fill:#211915;stroke:#000000;stroke-miterlimit:10;" cx="840" cy="158.253" r="34.667"/>
	<circle style="fill:#211915;stroke:#000000;stroke-miterlimit:10;" cx="736.667" cy="158.253" r="34.667"/>
	<circle style="fill:#211915;stroke:#000000;stroke-miterlimit:10;" cx="633.333" cy="158.253" r="34.667"/>
</g>
</svg>
