<?xml version="1.0" encoding="iso-8859-1"?>
<!-- Generator: Adobe Illustrator 18.0.0, SVG Export Plug-In . SVG Version: 6.00 Build 0)  -->
<!DOCTYPE svg PUBLIC "-//W3C//DTD SVG 1.1//EN" "http://www.w3.org/Graphics/SVG/1.1/DTD/svg11.dtd">
<svg version="1.1" id="Capa_1" xmlns="http://www.w3.org/2000/svg" xmlns:xlink="http://www.w3.org/1999/xlink" x="0px" y="0px"
	 viewBox="0 0 1000 1000" style="enable-background:new 0 0 1000 1000;" xml:space="preserve">
<g>
	<path style="fill:#211915;stroke:#000000;stroke-miterlimit:10;" d="M110.074,968.936h648.668c52.383,0,95-42.617,95-95V834.91
		h35.026c52.383,0,95-42.617,95-95V114.8c0-52.383-42.617-95-95-95H240.101c-52.383,0-95,42.617-95,95v39.026h-35.027
		c-52.383,0-95,42.617-95,95v625.11C15.074,926.319,57.691,968.936,110.074,968.936z M783.742,834.91v39.026
		c0,13.807-11.193,25-25,25H110.074c-13.807,0-25-11.193-25-25V400.131h60.027h70h568.641V764.91V834.91z M758.742,223.826
		c13.807,0,25,11.193,25,25v81.305H215.101h-70H85.074v-81.305c0-13.807,11.193-25,25-25h35.027h70L758.742,223.826L758.742,223.826
		z M215.101,114.799c0-13.807,11.193-25,25-25h648.667c13.807,0,25,11.193,25,25v625.11c0,13.807-11.193,25-25,25h-35.026V248.826
		c0-52.383-42.617-95-95-95H215.101V114.799z"/>
</g>
</svg>
