<?xml version="1.0" encoding="iso-8859-1"?>
<!-- Generator: Adobe Illustrator 18.0.0, SVG Export Plug-In . SVG Version: 6.00 Build 0)  -->
<!DOCTYPE svg PUBLIC "-//W3C//DTD SVG 1.1//EN" "http://www.w3.org/Graphics/SVG/1.1/DTD/svg11.dtd">
<svg version="1.1" id="Capa_1" xmlns="http://www.w3.org/2000/svg" xmlns:xlink="http://www.w3.org/1999/xlink" x="0px" y="0px"
	 viewBox="0 0 1000 1000" style="enable-background:new 0 0 1000 1000;" xml:space="preserve">
<g>
	<circle style="fill:#211915;stroke:#000000;stroke-miterlimit:10;" cx="838.941" cy="169.681" r="34.667"/>
	<circle style="fill:#211915;stroke:#000000;stroke-miterlimit:10;" cx="735.608" cy="169.681" r="34.667"/>
	<circle style="fill:#211915;stroke:#000000;stroke-miterlimit:10;" cx="632.275" cy="169.681" r="34.667"/>
	<path style="fill:#211915;stroke:#000000;stroke-miterlimit:10;" d="M112.143,968.936h775.713c52.383,0,95-42.617,95-95V126.064
		c0-52.383-42.617-95-95-95H112.143c-52.383,0-95,42.617-95,95v747.872C17.143,926.319,59.76,968.936,112.143,968.936z
		 M912.857,873.936c0,13.807-11.193,25-25,25H112.143c-13.807,0-25-11.193-25-25V303.064h825.713L912.857,873.936L912.857,873.936z
		 M87.143,126.064c0-13.807,11.193-25,25-25h775.713c13.807,0,25,11.193,25,25v107H87.143V126.064z"/>
	<path style="fill:#211915;stroke:#000000;stroke-miterlimit:10;" d="M342.977,745.492c6.834,6.834,15.792,10.251,24.749,10.251
		c8.958,0,17.915-3.417,24.749-10.251L500,637.966l107.526,107.526c6.834,6.834,15.791,10.251,24.749,10.251
		s17.915-3.417,24.749-10.251c13.668-13.669,13.668-35.829,0-49.498L549.498,588.468l107.525-107.526
		c13.668-13.669,13.668-35.829,0-49.498c-13.668-13.668-35.829-13.668-49.497,0L500,538.971L392.474,431.444
		c-13.669-13.668-35.83-13.669-49.498,0c-13.668,13.669-13.668,35.829,0,49.498l107.526,107.526L342.977,695.994
		C329.308,709.663,329.308,731.823,342.977,745.492z"/>
</g>
</svg>
