<?xml version="1.0" encoding="iso-8859-1"?>
<!-- Generator: Adobe Illustrator 18.0.0, SVG Export Plug-In . SVG Version: 6.00 Build 0)  -->
<!DOCTYPE svg PUBLIC "-//W3C//DTD SVG 1.1//EN" "http://www.w3.org/Graphics/SVG/1.1/DTD/svg11.dtd">
<svg version="1.1" id="Capa_1" xmlns="http://www.w3.org/2000/svg" xmlns:xlink="http://www.w3.org/1999/xlink" x="0px" y="0px"
	 viewBox="0 0 1000 1000" style="enable-background:new 0 0 1000 1000;" xml:space="preserve">
<path style="stroke:#000000;stroke-miterlimit:10;" d="M455.828,36.403c-4.17-17.458-21.702-28.232-39.162-24.06
	c-31.046,7.415-61.494,18.266-90.497,32.25c-54.247,26.156-101.76,62.169-141.221,107.037
	c-38.103,43.324-67.111,93.025-86.22,147.722c-19.109,54.696-27.361,111.649-24.527,169.275
	c2.935,59.68,17.686,117.445,43.843,171.692c26.156,54.247,62.169,101.761,107.037,141.222
	c43.324,38.103,93.025,67.111,147.722,86.221c37.339,13.045,75.73,21.005,114.667,23.858v29.88h-62.852
	c-17.949,0-32.5,14.551-32.5,32.5s14.551,32.5,32.5,32.5h190.705c17.949,0,32.5-14.551,32.5-32.5s-14.551-32.5-32.5-32.5H552.47
	v-29.847c55.995-4.057,110.208-18.571,161.301-43.207c28.28-13.637,55.102-30.213,79.718-49.27
	c14.193-10.987,16.792-31.4,5.805-45.594c-10.988-14.192-31.401-16.794-45.594-5.805c-12.53,9.699-25.74,18.644-39.485,26.763
	l-13.404-27.799c30.848-18.519,58.448-41.5,82.303-68.624c29.931-34.032,52.714-73.063,67.718-116.007
	c15.003-42.944,21.481-87.671,19.255-132.938c-2.307-46.903-13.89-92.281-34.427-134.873
	c-29.191-60.54-74.761-111.084-131.783-146.17c-55.446-34.116-119.104-52.149-184.09-52.149v59.76l0,0l-0.005-59.759
	c-25.834,0.002-51.681,2.886-76.844,8.573c-15.33,3.465-30.464,7.993-45.259,13.515l-13.406-27.803
	c15.544-5.94,31.427-10.865,47.495-14.703C449.226,71.395,459.998,53.861,455.828,36.403z M394.241,806.399
	c-96.127-33.583-173.423-102.591-217.648-194.31c-44.225-91.72-50.085-195.172-16.502-291.299
	c29.984-85.826,88.224-156.617,165.637-202.285l13.401,27.792c-30.848,18.519-58.448,41.5-82.303,68.624
	c-29.931,34.033-52.714,73.063-67.718,116.007c-15.003,42.944-21.482,87.67-19.255,132.938c2.307,46.903,13.89,92.28,34.427,134.873
	c29.194,60.546,74.768,111.093,131.794,146.177c55.446,34.112,119.107,52.143,184.101,52.143c25.813,0,51.662-2.884,76.829-8.572
	c15.329-3.465,30.463-7.993,45.258-13.516l13.413,27.817C571.734,834.921,480.068,836.383,394.241,806.399z M610.939,366.577
	l-75.81,36.554l-32.822-68.071c22.175-12.502,43.165-26.539,62.409-41.727C580.851,315.226,596.465,339.82,610.939,366.577z
	 M667.696,506.902c-23.868,5.6-47.922,13.283-71.514,22.848l-32.822-68.07l75.803-36.551
	C651.085,453.113,660.615,480.646,667.696,506.902z M537.619,557.95c-22.296,12.526-43.165,26.458-62.431,41.708
	c-16.122-21.88-31.724-46.457-46.187-73.193l75.81-36.554L537.619,557.95z M668.418,679.56l-43.947-91.143
	c18.551-7.323,37.349-13.28,55.971-17.753C686.09,616.64,682.201,655.006,668.418,679.56z M517.182,649.388
	c15.019-11.731,31.366-22.726,48.742-32.736l43.945,91.139C582.075,703.286,549.637,682.435,517.182,649.388z M400.777,467.912
	c-11.912-27.964-21.437-55.477-28.517-81.714c23.93-5.578,47.827-13.231,71.513-22.876l32.807,68.04L400.777,467.912z
	 M415.469,304.62c-18.654,7.362-37.437,13.307-55.97,17.754c-5.648-45.975-1.759-84.34,12.025-108.893L415.469,304.62z
	 M292.625,304.592c0.524,8.864,1.387,17.949,2.558,27.208c-12.517,0.593-24.671,0.384-36.314-0.663
	c8.838-20.026,19.971-39.078,33.267-56.711C291.854,283.886,291.994,293.925,292.625,304.592z M239.317,394.286
	c13.617,1.861,27.852,2.802,42.522,2.802c8.48,0,17.108-0.323,25.839-0.948c8.39,32.627,20.002,66.379,34.491,100.032
	l-91.787,44.258C233.539,492.268,230.402,441.974,239.317,394.286z M370.39,554.726c17.328,32.383,36.429,62.42,56.759,89.308
	c-16.165,17.577-30.009,35.985-41.086,54.62c-42.864-22.72-80.268-56.495-107.463-99.668L370.39,554.726z M469.75,693.846
	c0.554,0.568,1.107,1.145,1.662,1.708c13.717,13.913,27.549,26.075,41.351,36.397c-22.085-0.576-43.936-3.713-65.115-9.27
	C454.082,712.917,461.489,703.274,469.75,693.846z M474.019,276.393l-43.947-91.143c27.795,4.504,60.235,25.357,92.69,58.406
	C507.666,255.44,491.3,266.438,474.019,276.393z M747.805,618.615c0.282-9.46,0.142-19.5-0.489-30.167
	c-0.524-8.864-1.387-17.948-2.558-27.207c12.586-0.587,24.73-0.342,36.301,0.692C772.223,581.948,761.095,600.99,747.805,618.615z
	 M800.623,498.762c-21.499-2.945-44.513-3.571-68.36-1.861c-8.39-32.626-20.002-66.379-34.491-100.032l91.787-44.258
	C806.402,400.775,809.54,451.072,800.623,498.762z M761.342,294.056l-91.79,44.26c-17.327-32.382-36.427-62.417-56.757-89.305
	c16.178-17.586,30.005-35.98,41.083-54.627C696.741,217.104,734.146,250.881,761.342,294.056z M592.262,170.348
	c-6.398,9.701-13.771,19.36-22.071,28.846c-0.554-0.567-1.105-1.143-1.66-1.705c-13.719-13.915-27.551-26.078-41.355-36.4
	C549.25,161.663,571.092,164.797,592.262,170.348z"/>
</svg>
