<?xml version="1.0" encoding="iso-8859-1"?>
<!-- Generator: Adobe Illustrator 18.0.0, SVG Export Plug-In . SVG Version: 6.00 Build 0)  -->
<!DOCTYPE svg PUBLIC "-//W3C//DTD SVG 1.1//EN" "http://www.w3.org/Graphics/SVG/1.1/DTD/svg11.dtd">
<svg version="1.1" id="Capa_1" xmlns="http://www.w3.org/2000/svg" xmlns:xlink="http://www.w3.org/1999/xlink" x="0px" y="0px"
	 viewBox="0 0 1000 1000" style="enable-background:new 0 0 1000 1000;" xml:space="preserve">
<path style="fill:#211915;stroke:#000000;stroke-miterlimit:10;" d="M54.482,472.118c14.188,21.693,31.289,42.469,50.829,61.751
	c28.831,28.45,62.392,50.486,99.751,65.496c36.064,14.489,74.124,21.836,113.121,21.836c30.489,0,60.347-4.473,89.116-13.325
	L763.733,964.31c18.89,18.89,44.005,29.292,70.717,29.292c26.713,0,51.827-10.402,70.717-29.291l59.271-59.271
	c18.889-18.888,29.292-44.003,29.292-70.717c0-26.713-10.403-51.828-29.292-70.717L607.99,407.157
	c5.635-18.367,9.516-37.266,11.586-56.472c3.168-29.391,2.045-59.021-3.337-88.066c-11.19-60.388-40.128-115.331-83.684-158.888
	c-30.642-30.642-64.403-54.714-100.345-71.546C393.602,14.104,353.724,4.936,313.684,4.936c-23.045,0-46.014,3.101-68.27,9.218
	c-16.572,4.554-31.572,13.479-43.379,25.809C190.97,51.519,182.952,65.83,178.847,81.35c-4.1,15.5-4.21,31.88-0.319,47.369
	c4.157,16.547,12.776,31.714,24.924,43.862L323.75,292.879l-30.744,30.744L172.553,203.169
	c-17.903-17.903-41.655-27.765-66.88-27.768c-19.948-0.002-39.814,6.453-55.939,18.178c-17.198,12.505-29.822,30.735-35.546,51.332
	c-7.226,26.002-10.31,52.858-9.165,79.823c1.095,25.793,6.063,51.729,14.766,77.086C28.059,425.912,39.731,449.564,54.482,472.118z
	 M81.633,263.655c3.211-11.556,13.497-18.255,24.031-18.254c6.169,0.001,12.426,2.299,17.392,7.266l148.731,148.731
	c5.86,5.86,13.54,8.79,21.22,8.79s15.36-2.93,21.22-8.79l87.299-87.299c11.719-11.719,11.719-30.72,0-42.44L252.95,123.082
	c-13.456-13.456-7.335-36.389,11.014-41.431c16.505-4.536,33.142-6.715,49.721-6.715c60.415,0,120.027,28.946,169.373,78.292
	c69.224,69.224,85.8,171.146,49.755,256.044c-3.929,9.255-1.721,19.981,5.388,27.09l376.739,376.74
	c11.719,11.72,11.719,30.721,0,42.44l-59.27,59.27c-5.86,5.86-13.54,8.79-21.22,8.79s-15.36-2.93-21.22-8.79L436.451,538.033
	c-4.74-4.74-11.09-7.292-17.537-7.292c-3.195,0-6.414,0.627-9.472,1.926c-29.091,12.358-60.168,18.535-91.259,18.535
	c-59.162,0-118.335-22.387-163.705-67.158C90.444,420.854,60.184,340.836,81.633,263.655z"/>
<circle style="fill:#211915;stroke:#000000;stroke-miterlimit:10;" cx="826.727" cy="826.6" r="35.945"/>
</svg>
