<?xml version="1.0" encoding="iso-8859-1"?>
<!-- Generator: Adobe Illustrator 18.0.0, SVG Export Plug-In . SVG Version: 6.00 Build 0)  -->
<!DOCTYPE svg PUBLIC "-//W3C//DTD SVG 1.1//EN" "http://www.w3.org/Graphics/SVG/1.1/DTD/svg11.dtd">
<svg version="1.1" id="Capa_1" xmlns="http://www.w3.org/2000/svg" xmlns:xlink="http://www.w3.org/1999/xlink" x="0px" y="0px"
	 viewBox="0 0 1000 1000" style="enable-background:new 0 0 1000 1000;" xml:space="preserve">
<path style="fill:#211915;stroke:#000000;stroke-miterlimit:10;" d="M741.35,258.649c-4.211-4.211-8.524-8.291-12.92-12.258V105.009
	c0-52.383-42.617-95-95-95H366.57c-52.383,0-95,42.617-95,95v141.384c-4.396,3.966-8.708,8.046-12.92,12.257
	c-31.324,31.324-55.924,67.819-73.119,108.472C167.714,409.246,158.68,453.953,158.68,500s9.034,90.754,26.851,132.879
	c17.195,40.652,41.795,77.147,73.119,108.471c4.211,4.212,8.524,8.291,12.92,12.258v140.884c0,52.383,42.617,95,95,95h266.86
	c52.383,0,95-42.617,95-95V753.607c4.396-3.967,8.708-8.046,12.92-12.258c31.324-31.323,55.924-67.818,73.119-108.471
	C832.286,590.754,841.32,546.047,841.32,500s-9.034-90.754-26.851-132.879C797.274,326.469,772.674,289.974,741.35,258.649z
	 M728.43,646.461c-18.496,28.788-42.292,53.841-70,73.806c-44.578,32.12-99.29,51.054-158.43,51.054
	c-59.141,0-113.852-18.934-158.43-51.054c-27.708-19.965-51.504-45.018-70-73.806c-27.144-42.248-42.89-92.515-42.89-146.461
	s15.746-104.213,42.89-146.461c18.496-28.788,42.292-53.841,70-73.806c44.578-32.12,99.29-51.054,158.43-51.054
	c59.141,0,113.852,18.934,158.43,51.054c27.708,19.964,51.504,45.018,70,73.806c27.144,42.248,42.89,92.515,42.89,146.461
	S755.574,604.213,728.43,646.461z M341.57,105.009c0-13.808,11.193-25,25-25h266.86c13.807,0,25,11.192,25,25v92.617
	c-8.324-4.36-16.836-8.408-25.551-12.095C590.754,167.714,546.047,158.68,500,158.68s-90.754,9.034-132.879,26.852
	c-8.716,3.687-17.228,7.734-25.552,12.095v-92.618H341.57z M658.43,894.491c0,13.807-11.193,25-25,25H366.57
	c-13.807,0-25-11.193-25-25v-92.117c8.324,4.36,16.836,8.408,25.552,12.095C409.246,832.286,453.953,841.32,500,841.32
	s90.754-9.034,132.879-26.852c8.716-3.687,17.228-7.734,25.551-12.095L658.43,894.491L658.43,894.491z"/>
<path style="fill:#211915;stroke:#000000;stroke-miterlimit:10;" d="M677.519,465H658.43H539.257c-2.347,0-4.257-1.909-4.257-4.257
	v-91.038c0-19.33-15.67-35-35-35s-35,15.67-35,35v91.038C465,501.688,498.311,535,539.257,535H658.43h19.088c19.33,0,35-15.67,35-35
	S696.848,465,677.519,465z"/>
</svg>
