<?xml version="1.0" encoding="iso-8859-1"?>
<!-- Generator: Adobe Illustrator 18.0.0, SVG Export Plug-In . SVG Version: 6.00 Build 0)  -->
<!DOCTYPE svg PUBLIC "-//W3C//DTD SVG 1.1//EN" "http://www.w3.org/Graphics/SVG/1.1/DTD/svg11.dtd">
<svg version="1.1" id="Capa_1" xmlns="http://www.w3.org/2000/svg" xmlns:xlink="http://www.w3.org/1999/xlink" x="0px" y="0px"
	 viewBox="0 0 1000 1000" style="enable-background:new 0 0 1000 1000;" xml:space="preserve">
<g>
	<path style="fill:#211915;stroke:#000000;stroke-miterlimit:10;" d="M206.505,985.137h572c52.383,0,95-42.617,95-95V251.799
		c0-25.191-9.76-48.925-27.48-66.829L704.594,42.074c-8.879-8.971-19.289-15.986-30.94-20.847
		c-11.649-4.86-23.957-7.325-36.58-7.325H206.505c-52.383,0-95,42.617-95,95v781.235
		C111.505,942.521,154.122,985.137,206.505,985.137z M789.648,227.52H685.665c-6.681,0-12.961-2.603-17.684-7.328
		c-4.723-4.727-7.321-11.009-7.316-17.689l0.075-105.227L789.648,227.52z M181.505,108.902c0-13.807,11.192-25,25-25h65.413l0,0
		v29.789c0,13.807,11.193,25,25,25h20c13.807,0,25-11.193,25-25V83.902l0,0H590.75l-0.085,118.55
		c-0.018,25.388,9.855,49.26,27.801,67.219c17.946,17.959,41.812,27.849,67.199,27.849h117.84v592.618c0,13.807-11.193,25-25,25
		h-572c-13.808,0-25-11.193-25-25V108.902z"/>
	<path style="fill:#211915;stroke:#000000;stroke-miterlimit:10;" d="M378.811,220.584h20c13.807,0,25-11.193,25-25v-29.789
		c0-13.807-11.193-25-25-25h-20c-13.808,0-25,11.193-25,25v29.789C353.811,209.391,365.003,220.584,378.811,220.584z"/>
	<path style="fill:#211915;stroke:#000000;stroke-miterlimit:10;" d="M296.709,302.686h20c13.807,0,25-11.193,25-25v-29.789
		c0-13.807-11.193-25-25-25h-20c-13.808,0-25,11.193-25,25v29.789C271.709,291.493,282.901,302.686,296.709,302.686z"/>
	<path style="fill:#211915;stroke:#000000;stroke-miterlimit:10;" d="M377.654,383.631h20c13.807,0,25-11.193,25-25v-29.789
		c0-13.807-11.193-25-25-25h-20c-13.808,0-25,11.193-25,25v29.789C352.654,372.438,363.847,383.631,377.654,383.631z"/>
	<path style="fill:#211915;stroke:#000000;stroke-miterlimit:10;" d="M317.287,384.209h-20c-13.808,0-25,11.193-25,25v29.789
		c0,13.807,11.192,25,25,25h20c13.807,0,25-11.193,25-25v-29.789C342.287,395.402,331.094,384.209,317.287,384.209z"/>
	<path style="fill:#211915;stroke:#000000;stroke-miterlimit:10;" d="M333.501,775.141h38.307c42.534,0,77.138-34.604,77.138-77.138
		V572.138c0-42.534-34.604-77.138-77.138-77.138h-38.307c-42.534,0-77.139,34.604-77.139,77.138v125.865
		C256.362,740.537,290.967,775.141,333.501,775.141z M388.945,698.002c0,9.465-7.673,17.138-17.138,17.138H333.5
		c-9.465,0-17.139-7.673-17.139-17.138v-15.999h72.583v15.999H388.945z M316.362,572.138c0-9.465,7.674-17.138,17.139-17.138h38.307
		c9.465,0,17.138,7.673,17.138,17.138v49.866h-72.583v-49.866H316.362z"/>
</g>
</svg>
