<?xml version="1.0" encoding="iso-8859-1"?>
<!-- Generator: Adobe Illustrator 18.0.0, SVG Export Plug-In . SVG Version: 6.00 Build 0)  -->
<!DOCTYPE svg PUBLIC "-//W3C//DTD SVG 1.1//EN" "http://www.w3.org/Graphics/SVG/1.1/DTD/svg11.dtd">
<svg version="1.1" id="Capa_1" xmlns="http://www.w3.org/2000/svg" xmlns:xlink="http://www.w3.org/1999/xlink" x="0px" y="0px"
	 viewBox="0 0 1000 1000" style="enable-background:new 0 0 1000 1000;" xml:space="preserve">
<path style="fill:#211915;stroke:#000000;stroke-miterlimit:10;" d="M52.215,549.006c19.248,45.508,46.789,86.363,81.857,121.432
	c35.069,35.068,75.924,62.609,121.432,81.857c47.152,19.943,97.199,30.056,148.75,30.056s101.599-10.112,148.75-30.056
	c7.901-3.342,15.652-6.95,23.267-10.788L790.36,955.596c18.966,18.965,44.18,29.409,71,29.409c26.819,0,52.034-10.444,70.999-29.408
	l17.256-17.256c39.148-39.149,39.149-102.849,0.002-141.998L738.601,585.325c6.503-11.746,12.421-23.851,17.695-36.319
	c19.943-47.152,30.056-97.199,30.056-148.75s-10.112-101.599-30.056-148.75c-19.248-45.508-46.789-86.363-81.857-121.432
	c-35.069-35.068-75.924-62.609-121.432-81.857c-47.152-19.943-97.199-30.056-148.75-30.056s-101.599,10.112-148.75,30.056
	c-45.508,19.248-86.363,46.789-121.432,81.857c-35.068,35.069-62.609,75.924-81.857,121.432
	c-19.943,47.152-30.056,97.199-30.056,148.75S32.272,501.854,52.215,549.006z M648.641,594.36
	c-17.752,22.321-38.498,42.15-61.63,58.889c-19.583,14.17-40.873,26.122-63.507,35.488c-36.742,15.205-77.011,23.613-119.248,23.613
	C231.89,712.35,92.16,572.62,92.16,400.254S231.89,88.16,404.255,88.16s312.096,139.73,312.096,312.096
	c0,47.606-10.676,92.712-29.738,133.083C676.296,555.188,663.523,575.648,648.641,594.36z M900.12,845.839
	c11.875,11.875,11.875,31.129,0,43.004l-17.255,17.255c-5.938,5.938-13.72,8.906-21.502,8.906s-15.564-2.969-21.502-8.906
	l-202.822-202.82c13.09-10.08,25.581-21.021,37.399-32.84c8.435-8.436,16.423-17.214,23.977-26.303L900.12,845.839z"/>
<path style="fill:#211915;stroke:#000000;stroke-miterlimit:10;" d="M548,365.255H439.255V256.511c0-19.33-15.67-35-35-35
	s-35,15.67-35,35v108.745H260.511c-19.33,0-35,15.67-35,35s15.67,35,35,35h108.745V544c0,19.33,15.67,35,35,35
	c2.922,0,5.758-0.364,8.472-1.038c15.235-3.789,26.528-17.554,26.528-33.962v-99.829v-8.916h8.928H548
	c11.074,0,20.94-5.149,27.354-13.177c4.781-5.985,7.646-13.567,7.646-21.823C583,380.925,567.331,365.255,548,365.255z"/>
</svg>
