<?xml version="1.0" encoding="iso-8859-1"?>
<!-- Generator: Adobe Illustrator 18.0.0, SVG Export Plug-In . SVG Version: 6.00 Build 0)  -->
<!DOCTYPE svg PUBLIC "-//W3C//DTD SVG 1.1//EN" "http://www.w3.org/Graphics/SVG/1.1/DTD/svg11.dtd">
<svg version="1.1" id="Capa_1" xmlns="http://www.w3.org/2000/svg" xmlns:xlink="http://www.w3.org/1999/xlink" x="0px" y="0px"
	 viewBox="0 0 1000 1000" style="enable-background:new 0 0 1000 1000;" xml:space="preserve">
<path style="fill:#211915;stroke:#000000;stroke-miterlimit:10;" d="M748.601,585.325c6.503-11.746,12.421-23.851,17.695-36.319
	c19.943-47.152,30.056-97.199,30.056-148.75s-10.112-101.599-30.056-148.75c-19.248-45.508-46.789-86.363-81.857-121.432
	c-35.069-35.068-75.924-62.609-121.432-81.857c-47.152-19.943-97.199-30.056-148.75-30.056s-101.599,10.112-148.75,30.056
	c-45.508,19.248-86.363,46.789-121.432,81.857c-35.068,35.069-62.609,75.924-81.857,121.432
	c-19.943,47.152-30.056,97.199-30.056,148.75s10.112,101.599,30.056,148.75c19.248,45.508,46.789,86.363,81.857,121.432
	c35.069,35.068,75.924,62.609,121.432,81.857c47.152,19.943,97.199,30.056,148.75,30.056s101.599-10.112,148.75-30.056
	c7.901-3.342,15.652-6.95,23.267-10.788l214.089,214.089c18.966,18.965,44.18,29.409,71,29.409
	c26.819,0,52.034-10.444,70.999-29.408l17.256-17.256c39.148-39.149,39.149-102.849,0.002-141.998L748.601,585.325z M597.01,653.25
	c-19.583,14.17-40.873,26.122-63.507,35.488c-36.742,15.205-77.011,23.613-119.248,23.613
	c-172.366,0-312.096-139.73-312.096-312.096S241.89,88.16,414.255,88.16s312.096,139.73,312.096,312.096
	c0,47.606-10.676,92.712-29.738,133.083c-10.317,21.851-23.09,42.311-37.973,61.022C640.888,616.682,620.143,636.51,597.01,653.25z
	 M910.12,888.844l-17.255,17.255c-5.938,5.938-13.72,8.906-21.502,8.906s-15.564-2.969-21.502-8.906L647.039,703.278
	c13.09-10.08,25.581-21.021,37.399-32.84c8.435-8.436,16.423-17.214,23.977-26.303L910.12,845.839
	C921.995,857.715,921.995,876.968,910.12,888.844z"/>
<path style="fill:#211915;stroke:#000000;stroke-miterlimit:10;" d="M558,365.255H270.511c-19.33,0-35,15.67-35,35s15.67,35,35,35
	h187.672H558c11.074,0,20.94-5.149,27.354-13.177c4.781-5.984,7.646-13.567,7.646-21.823C593,380.925,577.33,365.255,558,365.255z"
	/>
</svg>
